<?xml version="1.0" encoding="utf-8"?>
<!-- Generator: Adobe Illustrator 19.0.0, SVG Export Plug-In . SVG Version: 6.00 Build 0)  -->
<svg version="1.1" id="Layer_1" xmlns="http://www.w3.org/2000/svg" xmlns:xlink="http://www.w3.org/1999/xlink" x="0px" y="0px"
	 viewBox="-206 298.3803711 197.6201172 197.6196289" style="enable-background:new -206 298.3803711 197.6201172 197.6196289;"
	 xml:space="preserve">
<style type="text/css">
	.st0{fill:#D5D8F6;}
</style>
<g>
	<g>
		<g>
			<path class="st0" d="M-110.0552063,393.6835632c0,0,1.5586014-21.9902039,8.6718979-32.3183289
				c7.1035004-10.3261719,18.8721008-17.0995789,25.9843979-13.9921875c2.9902039,2.3301086,3.214798,3.8887024,3.214798,3.8887024
				s-6.2157974-1.164093-8.9706955,0.3242188c-2.7451019,1.4882812-7.1727982,3.570282-10.4746017,9.4784851
				c-3.2938995,5.9179688-6.3866959,10.8535156-9.2461014,33.6523132c0,0,5.5674057,1.5058899,11.892601,1.1269836
				c6.3163986-0.3710938,5.5996017-0.7714844,5.5996017-0.7714844s-1.0322037,1.6347961-2.0605011,2.7851868
				c-1.024498,1.148407-2.3887024,3.3847046-7.5331955,2.9082031c-5.145607-0.4863892-8.717804-0.7949829-8.717804-0.7949829
				s-0.6016006,2.515686-0.9092026,4.2421875c-0.3007965,1.718811-1.9911957,12.6504211-4.3583984,18.6133118
				c-2.3593979,5.9589844-3.2606964,11.7597961-16.0586014,21.3866882
				c-5.4237976,4.0801086-14.8329926,4.1659851-16.1679993,2.9707031c-0.800705-0.7265015-2.683609-2.5-3.0995941-4.3592834
				c0,0,3.4472961,0.6717834,6,0.5332031c2.5469055-0.1407166,9.8349991-1.5489197,14.7460938-9.9258423
				c4.9082031-8.3866882,6.427803-12.9589844,8.5498047-24.390564c2.1259995-11.4239197,1.3330002-9.6973267,1.3330002-9.6973267
				s-12.425705-1.4550781-16.0127029-0.6620789c0,0,1.6738968-4.7109985,7.2432022-5.2207031
				c5.5761948-0.5020142,9.2022018,0.7089844,9.7431946,0.6777039
				C-110.1558075,394.109375-110.0552063,393.6835632-110.0552063,393.6835632z"/>
		</g>
		<g>
			<path class="st0" d="M-73.3716125,346.2167664c0,0,3.0644989,2.9863892,3.6094055,6.3789062
				c0,0,7.5126953,2.6913757,9.4111023,8.8926086c1.8984985,6.1953125,2.1143036,12.6132812-0.7723999,18.5898743
				c-2.875,5.9765015-10.6426086,13.5605164-19.4287033,14.546814l-4.6298981,6.125c0,0,7.947197-0.6191101,12.4374924-2.6230164
				c4.4795074-2.0058899,13.6660004-6.6034851,19.1748047-16.8065796
				c5.4980011-10.2051392,1.3486023-18.8828735-0.1475067-21.9453735
				C-55.2143097,356.3144531-60.6069031,346.3945618-73.3716125,346.2167664z"/>
		</g>
		<g>
			<path class="st0" d="M-141.4096985,448.1620483c0,0-3.0625153-2.9901733-3.609314-6.3789062
				c0,0-7.503891-2.6991577-9.4003906-8.9002686c-1.8994141-6.1954041-1.9746094-12.2109985,0.9082031-18.1895142
				c2.8768921-5.976593,14.0682983-16.0800781,23.7968903-15.9882812c0,0,0.9627991-1.7988281,1.9256973-2.6992188
				c1.1670074-1.101593,3.4493027-2.6210938,3.4493027-2.6210938s-9.7187958-1.2362976-17.6875,3.039093
				c-4.3271942,2.3261108-13.0733032,6.2909851-18.5782013,16.4960938
				c-5.5018921,10.2129211-1.9462891,19.0213928-0.4491882,22.0761108
				C-159.5571136,438.0605469-152.4780121,447.8906555-141.4096985,448.1620483z"/>
		</g>
	</g>
	<g>
		<path class="st0" d="M-174.800293,439.2314453c-1.1357422,0.6875-2.5732422,0.2753906-3.2294922-0.8515625
			c-0.6572266-1.1279297-0.2949219-2.5625,0.8320312-3.21875c1.1474609-0.6679688,2.5625-0.2949219,3.2304688,0.8515625
			C-173.3110352,437.140625-173.652832,438.5634766-174.800293,439.2314453z"/>
		<path class="st0" d="M-191.8295898,420.1953125c0.3349609,0.2958984,0.6738281,0.5166016,1.0166016,0.6621094
			c0.3417969,0.1445312,0.7304688,0.2128906,1.1630859,0.203125c0.3720703-0.0126953,0.8476562-0.1074219,1.4296875-0.2841797
			l5.6035156-1.7001953c1.4277344-0.3642578,2.7148438-0.2460938,3.8623047,0.3544922
			c1.2451172,0.625,2.0703125,1.6035156,2.4746094,2.9345703c0.4013672,1.3251953,0.2539062,2.6025391-0.4443359,3.8320312
			c-0.6816406,1.2099609-1.7197266,2.0253906-3.1152344,2.4492188l-5.5927734,1.6972656
			c-1.2890625,0.390625-2.5683594,0.2626953-3.8369141-0.3857422c-0.6025391-0.3222656-1.1074219-0.7294922-1.5126953-1.2226562
			c-0.40625-0.4931641-0.7148438-1.0869141-0.9248047-1.7802734c-0.1455078-0.5302734-0.2197266-1.0390625-0.2226562-1.5283203
			s0.0839844-0.9648438,0.2607422-1.4287109c0.1767578-0.4628906,0.4785156-0.9501953,0.9052734-1.4628906
			c-0.8935547-0.1953125-1.671875-0.6904297-2.3339844-1.484375c-0.4912109-0.5859375-0.8681641-1.3095703-1.1289062-2.171875
			c-0.2275391-0.75-0.296875-1.4580078-0.2089844-2.1240234c0.0888672-0.6660156,0.2949219-1.2119141,0.6162109-1.6386719
			c0.5566406-0.7666016,1.6015625-1.3818359,3.1367188-1.8476562l4.9511719-1.5029297
			c1.3740234-0.4169922,2.4794922-0.5947266,3.3164062-0.5351562c0.8300781,0.0615234,1.5341797,0.2998047,2.1113281,0.7138672
			c0.5341797,0.3740234,0.9902344,0.8554688,1.3681641,1.4453125l-1.4404297,0.4365234
			c-0.4814453-0.4511719-0.9824219-0.7539062-1.5039062-0.9091797c-0.2509766-0.0693359-0.6474609-0.0908203-1.1904297-0.0644531
			c-0.4296875,0.0234375-1.1835938,0.1992188-2.2626953,0.5263672l-5.046875,1.53125
			c-0.9804688,0.2978516-1.6660156,0.6630859-2.0556641,1.0947266c-0.5566406,0.6123047-0.6660156,1.4765625-0.3271484,2.5908203
			C-192.550293,419.296875-192.2387695,419.8300781-191.8295898,420.1953125z M-182.1020508,420.4697266l-5.6035156,1.7001953
			c-1.0507812,0.3193359-1.8027344,0.9072266-2.2548828,1.7636719c-0.5166016,0.8457031-0.6396484,1.7128906-0.3691406,2.6035156
			c0.2998047,0.9882812,0.890625,1.7119141,1.7724609,2.171875c0.8828125,0.4355469,1.8388672,0.4980469,2.8691406,0.1855469
			l5.6035156-1.7011719c1.0166016-0.3076172,1.7685547-0.8867188,2.2578125-1.7353516
			c0.4882812-0.8486328,0.5888672-1.7460938,0.3017578-2.6923828c-0.2910156-0.9599609-0.8759766-1.6513672-1.7539062-2.0732422
			C-180.2006836,420.2529297-181.1420898,420.1787109-182.1020508,420.4697266z"/>
		<path class="st0" d="M-187.0053711,402.0654297c-1.640625,0.1591797-2.7207031,0.3671875-3.2402344,0.6240234
			c-0.6376953,0.3271484-1.1386719,0.7763672-1.5019531,1.3486328c-0.2939453,0.4628906-0.5371094,1.1347656-0.7314453,2.0146484
			c-0.1767578,0.7529297-0.3662109,1.3613281-0.5673828,1.8261719c-0.2021484,0.4648438-0.4697266,0.8720703-0.8037109,1.2207031
			c-0.6220703,0.6347656-1.4257812,1-2.4101562,1.0957031l-0.1591797-1.640625
			c0.3720703-0.0361328,0.71875-0.1435547,1.0390625-0.3222656c0.2802734-0.1513672,0.5302734-0.4189453,0.75-0.8007812
			c0.2978516-0.5,0.5644531-1.1953125,0.8017578-2.0869141c0.1972656-0.7773438,0.3935547-1.4013672,0.5908203-1.8730469
			s0.4941406-0.9365234,0.890625-1.3945312c0.2851562-0.3300781,0.6757812-0.6210938,1.1738281-0.8759766
			c0.3427734-0.1806641,0.9443359-0.3476562,1.8056641-0.5009766c0.8603516-0.1533203,1.6230469-0.2626953,2.2861328-0.3271484
			c1.0498047-0.1025391,1.9765625-0.1005859,2.7822266,0.0058594c0.9755859,0.125,1.7646484,0.4023438,2.3652344,0.8291016
			c1.0039062,0.7119141,1.5791016,1.8222656,1.7255859,3.3320312c0.1259766,1.296875-0.2197266,2.3945312-1.0380859,3.2900391
			c-0.8027344,0.8955078-1.9365234,1.4287109-3.3984375,1.6005859l-0.1484375-1.53125
			c1.0019531-0.1337891,1.7597656-0.4765625,2.2734375-1.0263672c0.5976562-0.6621094,0.8574219-1.3974609,0.7783203-2.2070312
			c-0.0917969-0.9472656-0.484375-1.65625-1.1777344-2.1259766c-0.5332031-0.3378906-1.0849609-0.5234375-1.6542969-0.5566406
			C-185.2475586,401.9462891-186.0581055,401.9736328-187.0053711,402.0654297z"/>
		<path class="st0" d="M-189.1665039,396.0908203l-1.2958984-0.0458984
			c0.0234375-0.0429688,0.0380859-0.1337891,0.0429688-0.2734375c0.0029297-0.0800781,0.0039062-0.1513672,0.0019531-0.2138672
			c-0.0009766-0.0625,0-0.1337891,0.0029297-0.2148438c0.0371094-1.0458984-0.1542969-1.8486328-0.5742188-2.4052734
			c-0.4130859-0.5351562-1.0556641-0.8183594-1.9267578-0.8496094c-0.7460938-0.0263672-1.3671875,0.1767578-1.8632812,0.609375
			c-0.4951172,0.4335938-0.7548828,0.9941406-0.7792969,1.6816406c-0.0283203,0.7763672,0.1806641,1.3994141,0.6259766,1.8691406
			c0.4667969,0.4638672,1.125,0.71875,1.9726562,0.7636719l-0.0517578,1.4599609
			c-1.2421875-0.1025391-2.2158203-0.5332031-2.921875-1.2910156c-0.7060547-0.765625-1.0371094-1.7373047-0.9951172-2.9160156
			s0.4492188-2.1171875,1.2216797-2.8144531c0.7724609-0.6982422,1.7216797-1.0273438,2.8486328-0.9873047
			c0.7177734,0.0253906,1.2695312,0.1660156,1.65625,0.421875c0.515625,0.3486328,0.9335938,0.7626953,1.2529297,1.2431641
			c0.3574219-0.7636719,0.8115234-1.2753906,1.3632812-1.5341797c0.7597656-0.3466797,1.7109375-0.5,2.8525391-0.4589844
			c0.3291016,0.0117188,0.703125,0.0488281,1.1230469,0.1113281c0.4189453,0.0625,0.8349609,0.1542969,1.2490234,0.2753906
			c0.4130859,0.1210938,0.7919922,0.2753906,1.1376953,0.4638672c0.3007812,0.171875,0.5498047,0.3857422,0.7460938,0.6416016
			c0.1962891,0.2568359,0.3994141,0.6123047,0.6103516,1.0664062c0.2519531,0.5585938,0.3603516,1.3212891,0.3251953,2.2871094
			c-0.0429688,1.2226562-0.4619141,2.1679688-1.2548828,2.8359375c-0.7871094,0.7050781-1.8183594,1.0341797-3.0917969,0.9892578
			l0.0566406-1.5703125c0.7919922-0.015625,1.4394531-0.2470703,1.9423828-0.6953125
			c0.5039062-0.4472656,0.7675781-1.0146484,0.7919922-1.703125c0.0371094-1.0244141-0.1816406-1.7910156-0.6542969-2.2988281
			c-0.2753906-0.2958984-0.703125-0.5195312-1.2841797-0.671875c-0.2470703-0.0605469-0.7548828-0.1044922-1.5234375-0.1318359
			c-0.703125-0.0097656-1.2167969,0.0097656-1.5410156,0.0605469s-0.6523438,0.1982422-0.9833984,0.4433594
			c-0.3613281,0.2587891-0.6201172,0.6416016-0.7773438,1.1484375c-0.1582031,0.5292969-0.2509766,1.1826172-0.2792969,1.9580078
			L-189.1665039,396.0908203z"/>
		<path class="st0" d="M-194.2993164,378.2304688c0.4277344-0.6210938,0.9931641-1.0830078,1.6972656-1.3847656
			c0.4355469-0.1796875,0.9638672-0.2792969,1.5859375-0.2988281c0.5253906-0.0224609,1.3857422,0.0771484,2.5810547,0.2978516
			l3.78125,0.6992188c1.9589844,0.3613281,3.3095703,0.9140625,4.0507812,1.6582031s1.1650391,1.6552734,1.2714844,2.7324219
			l-1.4580078-0.2695312c-0.1982422-0.5800781-0.5146484-1.0673828-0.9482422-1.4599609
			c-0.2490234-0.2246094-0.5839844-0.4248047-1.0068359-0.5996094c-0.4423828-0.1855469-1.1992188-0.3779297-2.2724609-0.5761719
			l-4.1376953-0.7646484c-1.3974609-0.2578125-2.4658203-0.1796875-3.2060547,0.234375
			c-0.7519531,0.4423828-1.2265625,1.2001953-1.4248047,2.2734375c-0.2207031,1.1953125-0.0566406,2.1191406,0.4931641,2.7724609
			c0.5625,0.6621094,1.5244141,1.1191406,2.8857422,1.3710938l4.1601562,0.7685547
			c0.9931641,0.1835938,1.7636719,0.2695312,2.3085938,0.2587891c0.4042969-0.0078125,0.7949219-0.0693359,1.1738281-0.1855469
			c0.2216797-0.0703125,0.4580078-0.2001953,0.7089844-0.3886719s0.4833984-0.4003906,0.6982422-0.6357422l1.4589844,0.2695312
			c-0.3085938,0.6201172-0.703125,1.1357422-1.1855469,1.5458984c-0.4814453,0.4101562-1.1582031,0.6855469-2.0292969,0.8261719
			s-1.9804688,0.0869141-3.3271484-0.1621094l-3.78125-0.6992188c-1.0517578-0.1943359-1.8886719-0.4189453-2.5117188-0.6757812
			c-0.5332031-0.2177734-0.9902344-0.5068359-1.3701172-0.8681641c-0.5244141-0.5058594-0.8896484-1.1318359-1.0947266-1.8779297
			c-0.1181641-0.4082031-0.1708984-0.8369141-0.1591797-1.2861328c0.0126953-0.4482422,0.0527344-0.859375,0.1220703-1.234375
			c0.0625-0.3378906,0.1767578-0.7304688,0.3408203-1.1767578S-194.5317383,378.5605469-194.2993164,378.2304688z"/>
		<path class="st0" d="M-181.1674805,365.8242188c0.2841797-0.03125,0.5849609-0.0361328,0.9042969-0.0146484
			c0.3193359,0.0205078,0.5546875,0.0585938,0.7060547,0.1123047c1.3720703,0.4921875,2.3691406,1.3583984,2.9902344,2.6005859
			c0.6367188,1.2626953,0.7207031,2.5458984,0.2539062,3.8486328c-0.4765625,1.3310547-1.3291016,2.3095703-2.5566406,2.9355469
			c-0.5742188,0.2763672-1.1972656,0.4150391-1.8701172,0.4150391s-1.3544922-0.1240234-2.0439453-0.3710938l-10.5283203-3.7724609
			l0.5224609-1.4580078l10.6113281,3.8027344c0.4824219,0.1728516,0.9667969,0.2646484,1.453125,0.2753906
			c0.4238281,0.0117188,0.8623047-0.1035156,1.3144531-0.3457031s0.8486328-0.5458984,1.1894531-0.9101562
			s0.5693359-0.7080078,0.6855469-1.0322266c0.3330078-0.9316406,0.28125-1.8291016-0.1552734-2.6933594
			c-0.4628906-0.8818359-1.1904297-1.5-2.1826172-1.8564453c-0.296875-0.1054688-0.6621094-0.1396484-1.0966797-0.1005859
			c-0.4404297,0.0371094-0.8789062,0.0761719-1.3144531,0.1181641c-0.4345703,0.0429688-0.8007812,0.0107422-1.0976562-0.0957031
			c-0.2753906-0.0986328-0.5283203-0.3056641-0.7568359-0.6210938c-0.2451172-0.3369141-0.4335938-0.6806641-0.5644531-1.03125
			l0.5146484-1.4375c0.2871094,0.5234375,0.5126953,0.9033203,0.6767578,1.1416016
			c0.2089844,0.2841797,0.4140625,0.4628906,0.6132812,0.5341797c0.1455078,0.0517578,0.4169922,0.0644531,0.8164062,0.0361328
			C-181.6645508,365.8671875-181.3598633,365.8408203-181.1674805,365.8242188z"/>
		<path class="st0" d="M-184.1323242,351.8779297c0.5771484-0.3925781,1.2646484-0.5869141,2.0644531-0.5810547
			c0.3730469,0.0048828,0.8398438,0.1074219,1.3984375,0.3066406c0.3173828,0.1083984,0.6191406,0.2285156,0.9052734,0.3613281
			s0.6542969,0.3232422,1.1035156,0.5703125l4.5703125,2.5185547c0.859375,0.4746094,1.4794922,0.8740234,1.859375,1.2011719
			c0.4130859,0.328125,0.7314453,0.6914062,0.9541016,1.0908203c0.3886719,0.7070312,0.5761719,1.3828125,0.5634766,2.0283203
			c-0.0205078,0.75-0.2216797,1.4716797-0.6035156,2.1640625c-0.5800781,1.0517578-1.3857422,1.703125-2.4189453,1.953125
			c-1.0244141,0.2802734-2.09375,0.1132812-3.2099609-0.5019531l0.7636719-1.3857422
			c0.7138672,0.34375,1.3935547,0.4296875,2.0400391,0.2587891c0.6552734-0.1738281,1.1494141-0.5615234,1.4824219-1.1650391
			c0.4697266-0.8525391,0.5283203-1.6113281,0.1748047-2.2744141c-0.3447266-0.6494141-1.3251953-1.4199219-2.9414062-2.3115234
			l-3.4257812-1.8876953c-1.6162109-0.890625-2.7910156-1.3085938-3.5244141-1.2519531
			c-0.765625,0.0537109-1.3164062,0.3857422-1.6523438,0.9951172c-0.1455078,0.2636719-0.2421875,0.5693359-0.2929688,0.9179688
			c-0.0478516,0.2998047-0.0117188,0.6210938,0.109375,0.9628906c0.109375,0.3027344,0.2646484,0.5625,0.4677734,0.7783203
			c0.203125,0.2167969,0.4902344,0.4570312,0.8632812,0.7207031l-0.7636719,1.3857422
			c-0.6074219-0.2929688-1.2744141-0.3886719-1.9990234-0.2871094c-0.2470703,0.0234375-0.4882812,0.1035156-0.7226562,0.2421875
			c-0.2353516,0.1376953-0.40625,0.3027344-0.5117188,0.4951172l-0.3984375,0.7216797l-1.2792969-0.7050781l0.3769531-0.6835938
			c0.4306641-0.7822266,1.1201172-1.2509766,2.0673828-1.40625c0.3925781-0.0595703,0.7871094-0.0634766,1.1855469-0.0117188
			c-0.3183594-0.3925781-0.5263672-0.7294922-0.6240234-1.0087891c-0.1865234-0.4951172-0.2685547-0.9609375-0.2460938-1.3964844
			c0.0224609-0.4345703,0.1582031-0.8925781,0.4072266-1.375
			C-185.0395508,352.6826172-184.6206055,352.203125-184.1323242,351.8779297z"/>
		<path class="st0" d="M-162.1918945,346.6757812c0.4931641-0.5712891,0.8847656-1.1865234,1.1738281-1.8466797
			c0.3427734-0.7773438,0.5136719-1.5019531,0.5107422-2.171875c-0.0048828-0.6328125-0.2695312-1.2001953-0.7939453-1.7021484
			c-0.5214844-0.4492188-0.9833984-0.6601562-1.3857422-0.6308594c-0.3925781,0.0292969-0.7900391,0.2041016-1.1923828,0.5234375
			c-0.2158203,0.1826172-0.5605469,0.5478516-1.0341797,1.0966797l-0.4814453,0.5566406l-0.9726562-0.8398438l0.453125-0.5244141
			c0.6845703-0.7919922,1.0400391-1.5351562,1.0673828-2.2275391c0.0136719-0.6650391-0.5751953-1.5126953-1.7675781-2.5419922
			c-0.7753906-0.6708984-1.4501953-1.0546875-2.0234375-1.1533203c-0.8154297-0.1425781-1.6035156,0.2265625-2.3652344,1.1074219
			c-0.4589844,0.5322266-0.7441406,1.0800781-0.8535156,1.6445312c-0.0791016,0.4726562-0.0800781,0.890625-0.0009766,1.2539062
			c0.078125,0.3632812,0.2402344,0.7128906,0.4853516,1.0507812s0.5634766,0.6894531,0.9541016,1.0556641
			c1.0761719,1.0175781,1.6669922,2.1708984,1.7714844,3.4619141c0.1328125,1.3818359-0.2568359,2.5996094-1.1660156,3.6523438
			c-0.9042969,1.0478516-2.0605469,1.6074219-3.4677734,1.6787109c-1.3974609,0.0615234-2.6425781-0.3798828-3.734375-1.3232422
			c-1.03125-0.890625-1.6064453-2.0400391-1.7246094-3.4492188c-0.1005859-1.3740234,0.3115234-2.5957031,1.2353516-3.6650391
			c0.8710938-1.0087891,2.0029297-1.546875,3.3945312-1.6123047c0.2734375-0.0244141,0.5439453-0.0185547,0.8115234,0.0185547
			c-0.2998047-0.8291016-0.2851562-1.7421875,0.0419922-2.7363281c0.2314453-0.7285156,0.6425781-1.4335938,1.2314453-2.1152344
			c0.5117188-0.59375,1.0732422-1.0302734,1.6835938-1.3115234s1.1826172-0.3994141,1.7148438-0.3554688
			c0.9443359,0.0605469,2.0234375,0.6152344,3.2373047,1.6640625c0.4443359,0.3828125,0.9169922,0.8886719,1.4199219,1.5166016
			c0.2050781,0.2548828,0.3398438,0.5839844,0.4033203,0.9863281c0.0634766,0.4033203,0.078125,0.7988281,0.0439453,1.1845703
			c0.5166016-0.3173828,1.0556641-0.3984375,1.6181641-0.2421875c0.5615234,0.15625,1.1699219,0.5166016,1.8232422,1.0810547
			c0.5898438,0.5390625,0.9609375,1.1542969,1.1132812,1.8466797c0.1513672,0.6923828,0.1425781,1.40625-0.0273438,2.1396484
			c-0.1689453,0.734375-0.4326172,1.4267578-0.7900391,2.0761719c-0.4111328,0.7666016-0.8134766,1.3779297-1.2060547,1.8330078
			c-0.5898438,0.6708984-1.2666016,1.3544922-2.03125,2.0488281c-0.5449219,0.4970703-1.0751953,0.8564453-1.5917969,1.078125
			c-0.515625,0.2226562-1.0302734,0.3076172-1.5429688,0.2568359s-1.1074219-0.2382812-1.7861328-0.5625l1.0634766-1.2304688
			c0.2529297,0.1220703,0.5478516,0.1884766,0.8867188,0.2001953c0.2919922,0.0097656,0.6015625-0.046875,0.9296875-0.1689453
			c0.2226562-0.0898438,0.5908203-0.3564453,1.1064453-0.8017578
			C-163.4418945,348.0302734-162.8530273,347.4306641-162.1918945,346.6757812z M-171.3217773,342.5058594
			c-0.8144531-0.703125-1.7138672-1.0244141-2.6953125-0.9628906c-1.0341797,0.0654297-1.8330078,0.4248047-2.3984375,1.0791016
			c-0.6748047,0.78125-0.9707031,1.6679688-0.8876953,2.6582031c0.1025391,0.9794922,0.5615234,1.8212891,1.3759766,2.5244141
			c0.8095703,0.6992188,1.7001953,1.0234375,2.6728516,0.9736328c0.9785156-0.0351562,1.7910156-0.4277344,2.4375-1.1757812
			c0.65625-0.7597656,0.9277344-1.6230469,0.8154297-2.5908203
			C-170.0834961,344.03125-170.5239258,343.1953125-171.3217773,342.5058594z"/>
		<path class="st0" d="M-154.0043945,332.3642578c-1.0146484-1.2988281-1.7695312-2.0986328-2.2646484-2.3994141
			c-0.6181641-0.3632812-1.2666016-0.5449219-1.9443359-0.5449219c-0.5478516,0.0009766-1.2451172,0.1552734-2.0917969,0.4628906
			c-0.7304688,0.2548828-1.3466797,0.421875-1.8466797,0.5009766c-0.5,0.0800781-0.9873047,0.0722656-1.4609375-0.0234375
			c-0.8691406-0.1845703-1.6083984-0.6669922-2.2167969-1.4462891l1.2988281-1.0146484
			c0.2294922,0.2949219,0.5058594,0.5302734,0.8291016,0.7050781c0.2783203,0.1542969,0.6376953,0.2216797,1.078125,0.203125
			c0.5820312-0.0175781,1.3125-0.1650391,2.1914062-0.4433594c0.7617188-0.25,1.3945312-0.4189453,1.8974609-0.5058594
			c0.5039062-0.0869141,1.0556641-0.0859375,1.6552734,0.0039062c0.4306641,0.0634766,0.8867188,0.2363281,1.3681641,0.5205078
			c0.3369141,0.1923828,0.8007812,0.6113281,1.3916016,1.2548828c0.5917969,0.6445312,1.0927734,1.2285156,1.5029297,1.7539062
			c0.6484375,0.8310547,1.1445312,1.6152344,1.4873047,2.3515625c0.4179688,0.890625,0.6074219,1.7050781,0.5683594,2.4414062
			c-0.0625,1.2285156-0.6904297,2.3095703-1.8857422,3.2431641c-1.0273438,0.8027344-2.1386719,1.0986328-3.3339844,0.8896484
			c-1.1865234-0.1982422-2.2441406-0.8681641-3.1728516-2.0107422l1.2119141-0.9472656
			c0.6513672,0.7744141,1.3466797,1.2304688,2.0859375,1.3681641c0.8789062,0.1503906,1.6386719-0.0253906,2.2792969-0.5253906
			c0.7509766-0.5859375,1.1386719-1.2978516,1.1630859-2.1347656c-0.0009766-0.6318359-0.1396484-1.1962891-0.4179688-1.6953125
			C-152.9604492,333.7841797-153.418457,333.1142578-154.0043945,332.3642578z"/>
		<path class="st0" d="M-148.5932617,318.7070312c0.2978516,0.1201172,0.59375,0.2861328,0.8857422,0.4970703
			c0.0166016-0.4677734,0.1201172-0.9042969,0.3115234-1.3085938c0.3447266-0.734375,0.9384766-1.3251953,1.7802734-1.7734375
			c0.7099609-0.3310547,1.4433594-0.4824219,2.1992188-0.4550781c0.7294922,0.0400391,1.390625,0.2705078,1.9814453,0.6894531
			c0.3076172-0.9345703,0.6582031-1.6357422,1.0517578-2.1015625s0.9248047-0.8544922,1.5957031-1.1669922
			c1.4873047-0.6923828,2.7783203-0.7480469,3.8730469-0.1669922c0.4677734,0.2431641,0.921875,0.6015625,1.3603516,1.0751953
			c0.4394531,0.4746094,0.8144531,1.046875,1.1269531,1.7177734c0.3457031,0.7597656,0.5605469,1.4472656,0.6455078,2.0625
			c0.0859375,0.6708984,0.0761719,1.2050781-0.0302734,1.6015625c-0.1162109,0.4101562-0.3144531,0.8173828-0.5947266,1.2216797
			c-0.2519531,0.34375-0.5605469,0.6777344-0.9267578,1.0019531l-0.640625-1.375
			c0.3789062-0.5234375,0.6103516-1.0585938,0.6943359-1.6074219c0.0800781-0.5214844-0.0839844-1.28125-0.4921875-2.2792969
			c-0.4541016-0.9765625-1.0419922-1.6484375-1.7617188-2.015625c-0.7685547-0.4013672-1.6015625-0.3935547-2.4980469,0.0234375
			c-0.5048828,0.2353516-0.9287109,0.5986328-1.2734375,1.0898438c-0.3291016,0.4921875-0.5253906,0.9560547-0.5898438,1.3896484
			c-0.0761719,0.5126953-0.0488281,0.9882812,0.0830078,1.4277344c0.1113281,0.34375,0.4023438,1.0205078,0.8720703,2.0302734
			l0.890625,1.9121094l-1.3642578,0.6347656l-0.890625-1.9121094c-0.5195312-1.1152344-0.9775391-1.9609375-1.3740234-2.5351562
			c-0.2802734-0.3945312-0.5849609-0.6933594-0.9140625-0.8955078c-0.6376953-0.3984375-1.3984375-0.3916016-2.28125,0.0195312
			c-0.6240234,0.2910156-1.0429688,0.7607422-1.2578125,1.4101562c-0.1210938,0.3310547-0.0996094,0.8193359,0.0644531,1.4667969
			c0.1640625,0.6464844,0.5107422,1.5488281,1.0419922,2.7070312l0.9101562,1.9033203l-1.4541016,0.6767578l-0.8808594-1.8916016
			c-0.5439453-1.1689453-0.9765625-1.9853516-1.2978516-2.4501953c-0.3212891-0.4638672-0.6445312-0.7939453-0.9697266-0.9902344
			c-0.6513672-0.3916016-1.4082031-0.3867188-2.2714844,0.0146484c-0.6240234,0.2910156-1.0439453,0.7607422-1.2578125,1.4101562
			c-0.2421875,0.6621094-0.1923828,1.3583984,0.1474609,2.0878906l1.5400391,3.3066406
			c0.8251953,1.7734375,2.0888672,2.9863281,3.7910156,3.640625c0.8037109,0.3037109,1.3671875,0.4736328,1.6904297,0.5087891
			c0.4248047,0.0449219,0.9589844,0.0107422,1.6005859-0.1025391c0.6425781-0.1132812,1.2519531-0.2958984,1.8291016-0.5488281
			l3.3564453-1.5625c2.3105469-1.0751953,3.6513672-1.8935547,4.0205078-2.453125
			c0.2597656-0.3789062,0.4189453-0.9658203,0.4765625-1.7607422l1.4648438-0.6816406
			c0.3476562,0.9042969,0.3339844,1.7167969-0.0419922,2.4365234c-0.375,0.7207031-0.9599609,1.3466797-1.7548828,1.8779297
			c-0.8652344,0.5878906-1.8320312,1.1318359-2.9013672,1.6289062l-3.5957031,1.6738281
			c-0.7636719,0.3554688-1.5039062,0.6318359-2.2197266,0.828125c-0.6875,0.1904297-1.4150391,0.2666016-2.1845703,0.2285156
			c-0.7490234-0.0302734-1.5449219-0.2216797-2.3867188-0.5722656c-2.1347656-0.8886719-3.6875-2.3759766-4.6582031-4.4609375
			l-1.5205078-3.2666016c-0.5380859-1.1552734-0.6269531-2.265625-0.265625-3.3300781
			c0.3115234-0.9609375,1.0341797-1.7255859,2.1669922-2.2939453c0.5644531-0.2626953,1.1035156-0.4160156,1.6152344-0.4609375
			C-149.5639648,318.4443359-149.0698242,318.5175781-148.5932617,318.7070312z"/>
		<path class="st0" d="M-121.7182617,309.2363281c0.734375,0.1689453,1.3710938,0.5253906,1.9111328,1.0693359
			c0.3271484,0.3388672,0.6142578,0.7939453,0.8613281,1.3652344c0.2128906,0.4804688,0.4375,1.3173828,0.6708984,2.5097656
			l0.7402344,3.7734375c0.3828125,1.9550781,0.3652344,3.4140625-0.0546875,4.3769531
			c-0.4189453,0.9628906-1.1103516,1.6923828-2.0732422,2.1865234l-0.2851562-1.4550781
			c0.4667969-0.3974609,0.8037109-0.8701172,1.0097656-1.4179688c0.1171875-0.3144531,0.1796875-0.7001953,0.1875-1.15625
			c0.0097656-0.4794922-0.0898438-1.2548828-0.2998047-2.3261719l-0.8095703-4.1289062
			c-0.2734375-1.3945312-0.7392578-2.359375-1.3964844-2.8945312c-0.6875-0.5371094-1.5664062-0.7001953-2.6376953-0.4902344
			c-1.1923828,0.2333984-1.9921875,0.7265625-2.3964844,1.4775391c-0.4101562,0.7666016-0.4814453,1.8291016-0.2148438,3.1875
			l0.8144531,4.1513672c0.1943359,0.9912109,0.3964844,1.7392578,0.6074219,2.2421875
			c0.1552734,0.3730469,0.3564453,0.7138672,0.6035156,1.0244141c0.1474609,0.1796875,0.3544922,0.3515625,0.6220703,0.515625
			s0.5498047,0.3027344,0.8486328,0.4160156l0.2851562,1.4550781c-0.6904297-0.0585938-1.3154297-0.2363281-1.8740234-0.5332031
			c-0.5576172-0.2978516-1.0625-0.8251953-1.5136719-1.5839844s-0.8085938-1.8105469-1.0722656-3.1542969l-0.7392578-3.7734375
			c-0.2060547-1.0488281-0.3046875-1.9111328-0.2949219-2.5839844c0.0068359-0.5761719,0.1083984-1.1074219,0.3037109-1.59375
			c0.2783203-0.6738281,0.7265625-1.2431641,1.3447266-1.7080078c0.3369141-0.2597656,0.7158203-0.4667969,1.1376953-0.6201172
			c0.4208984-0.1533203,0.8183594-0.2675781,1.1923828-0.3408203c0.3378906-0.0664062,0.7441406-0.1044922,1.2197266-0.1162109
			C-122.5444336,309.0996094-122.1108398,309.1416016-121.7182617,309.2363281z"/>
		<path class="st0" d="M-100.2768555,308.1679688c0.6064453,0.3447266,1.0839844,0.8769531,1.4306641,1.5966797
			c0.1601562,0.3378906,0.2734375,0.8017578,0.3408203,1.3916016c0.0429688,0.3320312,0.0683594,0.6552734,0.0751953,0.9707031
			c0.0068359,0.3164062-0.0019531,0.7304688-0.0263672,1.2421875l-0.2480469,5.2128906
			c-0.0458984,0.9804688-0.1328125,1.7128906-0.2578125,2.1982422c-0.1123047,0.515625-0.2988281,0.9609375-0.5585938,1.3369141
			c-0.4638672,0.6601562-0.9882812,1.1259766-1.5732422,1.3994141c-0.6826172,0.3115234-1.4189453,0.4492188-2.2089844,0.4121094
			c-1.1992188-0.0576172-2.1396484-0.4941406-2.8193359-1.3115234c-0.7021484-0.7958984-1.0234375-1.8300781-0.9628906-3.1035156
			l1.5800781,0.0751953c0.0068359,0.7929688,0.2285156,1.4414062,0.6669922,1.9453125
			c0.4443359,0.5126953,1.0107422,0.7851562,1.6982422,0.8183594c0.9726562,0.0458984,1.6796875-0.2353516,2.1191406-0.8457031
			c0.4316406-0.5947266,0.6914062-1.8144531,0.7792969-3.6582031l0.1855469-3.9072266
			c0.0869141-1.8427734-0.0556641-3.0820312-0.4287109-3.7158203c-0.3867188-0.6630859-0.9267578-1.0117188-1.6220703-1.0449219
			c-0.2998047-0.0136719-0.6171875,0.0332031-0.9521484,0.1416016c-0.2910156,0.0888672-0.5625,0.2636719-0.8173828,0.5224609
			c-0.2236328,0.2314453-0.3876953,0.4853516-0.4921875,0.7626953c-0.1054688,0.2773438-0.1943359,0.6416016-0.2666016,1.0927734
			L-106.215332,311.625c-0.0048828-0.6748047-0.2128906-1.3144531-0.6240234-1.9208984
			c-0.1289062-0.2119141-0.3076172-0.3925781-0.5351562-0.5429688c-0.2275391-0.1494141-0.4511719-0.2304688-0.6699219-0.2402344
			l-0.8232422-0.0390625l0.0693359-1.4599609l0.7792969,0.0371094c0.8925781,0.0419922,1.6171875,0.4550781,2.1738281,1.2363281
			c0.2265625,0.3261719,0.4033203,0.6787109,0.5322266,1.0595703c0.2128906-0.4599609,0.4228516-0.7939453,0.6308594-1.0039062
			c0.3632812-0.3867188,0.7441406-0.6650391,1.1455078-0.8369141c0.4003906-0.171875,0.8710938-0.2519531,1.4130859-0.2412109
			C-101.3989258,307.7080078-100.7836914,307.8730469-100.2768555,308.1679688z"/>
		<path class="st0" d="M-84.2270508,311.921875l-4.3447266-0.9091797c-1.3115234-0.2744141-2.3398438-0.2275391-3.0820312,0.140625
			c-0.703125,0.3544922-1.1640625,1.0546875-1.3828125,2.1015625l-0.5664062,2.7099609
			c1.1435547-0.7109375,2.3388672-0.9355469,3.5869141-0.6748047c1.3828125,0.2890625,2.4521484,1.0107422,3.2060547,2.1630859
			c0.7626953,1.1845703,1.0039062,2.4443359,0.7255859,3.7773438c-0.2998047,1.4335938-1.015625,2.5488281-2.1474609,3.3447266
			c-1.1533203,0.7910156-2.4189453,1.0429688-3.7949219,0.7548828c-1.3623047-0.2851562-2.4111328-1.0126953-3.1455078-2.1845703
			c-0.2626953-0.4287109-0.4570312-0.8398438-0.5839844-1.2333984c-0.1279297-0.3925781-0.2011719-0.8085938-0.2216797-1.2470703
			s0.015625-0.8837891,0.1103516-1.3349609l1.3496094-6.4521484c0.1728516-0.8242188,0.5117188-1.5351562,1.0185547-2.1328125
			c0.5039062-0.5830078,1.1435547-1.0107422,1.9179688-1.2822266c0.4746094-0.1552734,0.9716797-0.2275391,1.4931641-0.2158203
			c0.5058594,0.0166016,1.2919922,0.1357422,2.3603516,0.359375l3.8183594,0.7988281L-84.2270508,311.921875z
			 M-94.4291992,319.6982422c-0.2148438,1.0253906-0.0595703,1.9628906,0.4667969,2.8134766
			c0.5009766,0.8232422,1.2421875,1.3378906,2.2246094,1.5429688c0.9677734,0.203125,1.8496094,0.0283203,2.6464844-0.5234375
			c0.8076172-0.5722656,1.3203125-1.3779297,1.5380859-2.4169922c0.2216797-1.0615234,0.0761719-2.0117188-0.4355469-2.8525391
			c-0.5410156-0.8164062-1.3164062-1.3300781-2.3271484-1.5419922c-0.9101562-0.1904297-1.7617188-0.0009766-2.5537109,0.5664062
			C-93.6870117,317.8330078-94.2075195,318.6376953-94.4291992,319.6982422z"/>
		<path class="st0" d="M-72.6225586,315.0087891c0.53125,0.5351562,0.8808594,1.1757812,1.0488281,1.9228516
			c0.0966797,0.4619141,0.0976562,1,0.0019531,1.6142578c-0.0742188,0.5205078-0.3300781,1.3486328-0.7675781,2.4824219
			l-1.3818359,3.5888672c-0.7158203,1.8583984-1.5078125,3.0839844-2.3759766,3.6757812
			c-0.8671875,0.5927734-1.8408203,0.8417969-2.9189453,0.7480469l0.5332031-1.3837891
			c0.6064453-0.0878906,1.1435547-0.3095703,1.609375-0.6640625c0.2666016-0.203125,0.5244141-0.4960938,0.7744141-0.8789062
			c0.2636719-0.4003906,0.5917969-1.109375,0.984375-2.1279297l1.5126953-3.9267578
			c0.5107422-1.3261719,0.6298828-2.390625,0.3583984-3.1933594c-0.2958984-0.8212891-0.953125-1.4277344-1.9716797-1.8193359
			c-1.1347656-0.4375-2.0732422-0.4453125-2.8164062-0.0253906c-0.7548828,0.4316406-1.3808594,1.2929688-1.8779297,2.5849609
			l-1.5205078,3.9472656c-0.3632812,0.9433594-0.5898438,1.6835938-0.6796875,2.2226562
			c-0.0664062,0.3974609-0.078125,0.7939453-0.0332031,1.1875c0.0283203,0.2314453,0.1123047,0.4873047,0.2519531,0.7675781
			c0.1386719,0.28125,0.3046875,0.5498047,0.4970703,0.8037109l-0.5332031,1.3847656
			c-0.5537109-0.4179688-0.9882812-0.9003906-1.3027344-1.4492188s-0.4599609-1.2646484-0.4384766-2.1474609
			c0.0224609-0.8818359,0.2792969-1.9619141,0.7714844-3.2402344l1.3818359-3.5888672
			c0.3847656-0.9970703,0.7597656-1.7792969,1.1269531-2.34375c0.3115234-0.484375,0.6806641-0.8798828,1.1044922-1.1875
			c0.5947266-0.4228516,1.2773438-0.6660156,2.0478516-0.7304688c0.4228516-0.0410156,0.8544922-0.0136719,1.2929688,0.0800781
			c0.4384766,0.0947266,0.8359375,0.2099609,1.1914062,0.3466797c0.3212891,0.1240234,0.6855469,0.3076172,1.09375,0.5517578
			C-73.2485352,314.4541016-72.9038086,314.7207031-72.6225586,315.0087891z"/>
		<path class="st0" d="M-68.4389648,324.9257812l0.6396484-1.1279297c0.0273438,0.0410156,0.1015625,0.0957031,0.2226562,0.1640625
			c0.0703125,0.0400391,0.1328125,0.0732422,0.1884766,0.1005859c0.0566406,0.0273438,0.1191406,0.0615234,0.1894531,0.1015625
			c0.9111328,0.5166016,1.7109375,0.7167969,2.3994141,0.6025391c0.6650391-0.1191406,1.2128906-0.5585938,1.6425781-1.3164062
			c0.3691406-0.6503906,0.4755859-1.2949219,0.3203125-1.9345703c-0.1552734-0.6386719-0.5322266-1.1289062-1.1308594-1.46875
			c-0.6757812-0.3828125-1.3242188-0.4853516-1.9472656-0.3076172c-0.6269531,0.1992188-1.15625,0.6660156-1.5878906,1.3974609
			l-1.2714844-0.7207031c0.6650391-1.0546875,1.4970703-1.71875,2.4951172-1.9951172
			c1.0048828-0.2724609,2.0205078-0.1171875,3.0458984,0.4648438c1.0263672,0.5810547,1.6699219,1.3759766,1.9316406,2.3837891
			c0.2626953,1.0068359,0.1152344,2.0019531-0.4404297,2.9824219c-0.3544922,0.625-0.734375,1.0488281-1.1396484,1.2744141
			c-0.546875,0.2958984-1.1074219,0.4746094-1.6816406,0.5361328c0.5126953,0.6699219,0.7568359,1.3095703,0.7314453,1.9179688
			c-0.0429688,0.8339844-0.3466797,1.7480469-0.9111328,2.7421875c-0.1621094,0.2861328-0.3681641,0.6015625-0.6171875,0.9443359
			s-0.5234375,0.6689453-0.8212891,0.9804688c-0.2988281,0.3105469-0.6103516,0.5751953-0.9365234,0.7949219
			c-0.2919922,0.1875-0.5976562,0.3095703-0.9150391,0.3652344s-0.7275391,0.0712891-1.2275391,0.0488281
			c-0.6113281-0.0351562-1.3378906-0.2910156-2.1787109-0.7685547c-1.0644531-0.6035156-1.7089844-1.4111328-1.9345703-2.4228516
			c-0.2617188-1.0244141-0.078125-2.0908203,0.5507812-3.1992188l1.3662109,0.7753906
			c-0.3515625,0.7099609-0.4453125,1.390625-0.28125,2.0439453s0.5458984,1.1494141,1.1445312,1.4892578
			c0.8925781,0.5058594,1.6728516,0.6660156,2.3417969,0.4814453c0.3896484-0.1074219,0.7861328-0.3837891,1.1894531-0.828125
			c0.1669922-0.1914062,0.4404297-0.6210938,0.8203125-1.2900391c0.3339844-0.6191406,0.5537109-1.0839844,0.6582031-1.3955078
			c0.1044922-0.3105469,0.125-0.6699219,0.0615234-1.0761719c-0.0625-0.4394531-0.2822266-0.8466797-0.6591797-1.2207031
			c-0.3964844-0.3847656-0.9326172-0.7685547-1.6083984-1.1513672L-68.4389648,324.9257812z"/>
		<path class="st0" d="M-51.1567383,329.5839844c-0.0703125,0.5-0.2714844,1.0517578-0.6044922,1.6542969
			c-0.3330078,0.6035156-0.6826172,1.1435547-1.0478516,1.6201172l-3.1757812,4.140625
			c-0.4951172,0.6455078-0.9863281,1.1962891-1.4746094,1.6523438c-0.5117188,0.4746094-1.0839844,0.7929688-1.7148438,0.9550781
			c-0.6318359,0.1611328-1.1611328,0.2080078-1.5878906,0.1386719c-0.6865234-0.1289062-1.3720703-0.4560547-2.0576172-0.9814453
			c-0.953125-0.7314453-1.4765625-1.6259766-1.5693359-2.6845703c-0.1171875-1.0507812,0.2119141-2.0810547,0.9873047-3.0927734
			l1.2460938,0.9560547c-0.4462891,0.6542969-0.6328125,1.3164062-0.5605469,1.9863281
			c0.0732422,0.6689453,0.3828125,1.2138672,0.9287109,1.6328125c0.7792969,0.5966797,1.5195312,0.7685547,2.2226562,0.5136719
			c0.6855469-0.2314453,1.59375-1.0859375,2.7255859-2.5615234l2.3798828-3.1044922
			c1.1230469-1.4638672,1.7119141-2.5634766,1.7666016-3.296875c0.0634766-0.7451172-0.2939453-1.4160156-1.0722656-2.0126953
			c-0.546875-0.4189453-1.1542969-0.5712891-1.8232422-0.4570312c-0.6621094,0.0927734-1.2529297,0.4423828-1.7734375,1.0488281
			l-1.2470703-0.9560547c0.7402344-0.9648438,1.6552734-1.5322266,2.7451172-1.7021484
			c1.0527344-0.1806641,2.046875,0.0751953,2.984375,0.765625c0.703125,0.5390625,1.1972656,1.1171875,1.4824219,1.7324219
			C-51.1186523,328.1318359-51.0385742,328.8164062-51.1567383,329.5839844z"/>
		<path class="st0" d="M-45.3413086,336.9169922c-0.3066406-0.0078125-0.6953125,0.0146484-1.1660156,0.0673828
			c-0.4716797,0.0537109-0.9462891,0.1503906-1.4238281,0.2910156c-0.4785156,0.140625-0.8525391,0.3125-1.1220703,0.515625
			c1.015625,0.3046875,1.8388672,0.8232422,2.4697266,1.5566406c0.6591797,0.765625,1.0888672,1.4736328,1.2890625,2.1220703
			c0.3369141,0.9755859,0.3554688,1.8447266,0.0537109,2.6064453c0.8125-0.1679688,1.6708984-0.0175781,2.5761719,0.4501953
			c0.6816406,0.3310547,1.3183594,0.8417969,1.9111328,1.5302734c1.0644531,1.2382812,1.46875,2.4648438,1.2109375,3.6816406
			c-0.2373047,1.1513672-0.9052734,2.1992188-2.0048828,3.1455078c-0.8203125,0.6962891-1.5947266,1.1494141-2.3222656,1.3603516
			c-0.7275391,0.2099609-1.3701172,0.2460938-1.9287109,0.1083984c-0.5576172-0.1386719-1.1123047-0.3867188-1.6611328-0.7441406
			l1.140625-0.9824219c0.7080078,0.2509766,1.2880859,0.3466797,1.7392578,0.2871094
			c0.4716797-0.0585938,1.1601562-0.4423828,2.0654297-1.1542969c0.8164062-0.7021484,1.3007812-1.4472656,1.453125-2.2353516
			c0.171875-0.8339844-0.1337891-1.7060547-0.9179688-2.6162109c-0.4726562-0.5498047-0.9726562-0.9121094-1.4990234-1.0869141
			c-0.5732422-0.1826172-1.0742188-0.2451172-1.5019531-0.1865234s-0.8662109,0.2333984-1.3164062,0.5244141
			s-1.0253906,0.7373047-1.7246094,1.3388672l-1.0107422-1.1738281c0.6992188-0.6025391,1.2285156-1.1054688,1.5859375-1.5097656
			s0.5957031-0.8144531,0.7158203-1.2314453c0.1191406-0.4169922,0.1308594-0.9169922,0.0341797-1.5009766
			c-0.09375-0.546875-0.3769531-1.0957031-0.8496094-1.6455078c-0.7792969-0.9042969-1.5957031-1.3369141-2.4501953-1.2978516
			c-0.796875,0.0283203-1.6064453,0.3964844-2.4277344,1.1035156c-0.8056641,0.7705078-1.2890625,1.3935547-1.4492188,1.8701172
			c-0.1337891,0.3945312-0.1259766,0.9824219,0.0234375,1.7617188l-1.140625,0.9814453
			c-0.2773438-0.6015625-0.4433594-1.1933594-0.4980469-1.7744141c-0.0556641-0.5800781,0.0751953-1.2099609,0.390625-1.8867188
			c0.2783203-0.5869141,0.8564453-1.2675781,1.7353516-2.0429688l2.0595703-1.8007812
			c1.7832031-1.4765625,3.8017578-2.1455078,6.0556641-2.0078125c0.8828125,0.0615234,1.6933594,0.2392578,2.4296875,0.5332031
			c0.6748047,0.2695312,1.4082031,0.7451172,2.1982422,1.4277344c0.4443359,0.3808594,1.1123047,1.0908203,2.0058594,2.1289062
			c0.1865234,0.2167969,0.3613281,0.4140625,0.5244141,0.5927734c0.1523438,0.1777344,0.3769531,0.4384766,0.6738281,0.7822266
			c0.2431641,0.2832031,0.4287109,0.5048828,0.5576172,0.6660156c0.6796875,0.8349609,1.2060547,1.609375,1.578125,2.3232422
			c0.3720703,0.7128906,0.5478516,1.421875,0.5253906,2.1269531c-0.0214844,0.7050781-0.3447266,1.3740234-0.96875,2.0068359
			l-1.0527344-1.2236328c0.2509766-0.71875,0.3427734-1.3144531,0.2744141-1.7871094
			c-0.0947266-0.6826172-0.8574219-1.8564453-2.2910156-3.5214844l-1.8769531-2.1826172
			c-0.40625-0.4716797-0.859375-0.8837891-1.3603516-1.2353516s-1.0234375-0.6142578-1.5693359-0.7880859
			C-44.1430664,337.0185547-44.7241211,336.9267578-45.3413086,336.9169922z"/>
		<path class="st0" d="M-34.4555664,363.0390625c-0.1660156,0.2314453-0.3632812,0.4599609-0.5917969,0.6835938
			s-0.4140625,0.3740234-0.5556641,0.4511719c-1.28125,0.6943359-2.5917969,0.859375-3.9306641,0.4941406
			c-1.3662109-0.3681641-2.3789062-1.1601562-3.0380859-2.3769531c-0.6738281-1.2431641-0.8349609-2.5302734-0.4824219-3.8623047
			c0.1757812-0.6123047,0.4882812-1.1689453,0.9375-1.6708984c0.4482422-0.5019531,0.9951172-0.9267578,1.6386719-1.2763672
			l9.8320312-5.3300781l0.7382812,1.3613281l-9.9091797,5.3730469c-0.4501953,0.2441406-0.8417969,0.5439453-1.1748047,0.8994141
			c-0.2910156,0.3076172-0.4970703,0.7109375-0.6181641,1.2099609s-0.1591797,0.9960938-0.1152344,1.4931641
			c0.0449219,0.4960938,0.1484375,0.8964844,0.3125,1.1992188c0.4716797,0.8691406,1.1748047,1.4287109,2.1113281,1.6796875
			c0.9648438,0.2431641,1.9111328,0.1132812,2.8378906-0.3886719c0.2763672-0.1503906,0.5458984-0.4003906,0.8056641-0.75
			c0.2666016-0.3525391,0.5302734-0.7060547,0.7880859-1.0585938c0.2587891-0.3525391,0.5273438-0.6035156,0.8037109-0.7539062
			c0.2578125-0.1396484,0.5800781-0.1894531,0.96875-0.1503906c0.4140625,0.0419922,0.7958984,0.1308594,1.1445312,0.2666016
			l0.7275391,1.3427734c-0.5810547-0.1347656-1.015625-0.2207031-1.3017578-0.2568359
			c-0.3515625-0.0341797-0.6210938,0-0.8076172,0.1005859c-0.1347656,0.0732422-0.3251953,0.2685547-0.5703125,0.5849609
			C-34.1557617,362.6396484-34.3393555,362.8847656-34.4555664,363.0390625z"/>
		<path class="st0" d="M-22.1547852,370.4003906c-0.0634766,0.7509766-0.3261719,1.4326172-0.7871094,2.0439453
			c-0.2890625,0.3720703-0.6992188,0.7207031-1.2294922,1.0458984c-0.4453125,0.2792969-1.2421875,0.6201172-2.3896484,1.0205078
			l-3.6308594,1.2675781c-1.8808594,0.6572266-3.3271484,0.8457031-4.3398438,0.5673828
			c-1.0126953-0.2792969-1.8320312-0.859375-2.4589844-1.7421875l1.4003906-0.4892578
			c0.4599609,0.40625,0.9755859,0.671875,1.546875,0.7978516c0.328125,0.0722656,0.71875,0.0791016,1.171875,0.0214844
			c0.4755859-0.0576172,1.2294922-0.265625,2.2597656-0.6259766l3.9726562-1.3867188
			c1.3408203-0.46875,2.2304688-1.0664062,2.6669922-1.7929688c0.4345703-0.7568359,0.4716797-1.6503906,0.1113281-2.6806641
			c-0.4003906-1.1474609-1.0019531-1.8691406-1.8027344-2.1630859c-0.8173828-0.2958984-1.8789062-0.2167969-3.1865234,0.2402344
			l-3.9931641,1.3945312c-0.9541016,0.3330078-1.6650391,0.6396484-2.1337891,0.9189453
			c-0.3466797,0.2070312-0.65625,0.4541016-0.9277344,0.7431641c-0.1572266,0.1708984-0.2978516,0.4013672-0.4228516,0.6884766
			c-0.1240234,0.2880859-0.2216797,0.5878906-0.2910156,0.8994141l-1.4003906,0.4882812
			c-0.0400391-0.6914062,0.0478516-1.3349609,0.2626953-1.9296875c0.2148438-0.5957031,0.6660156-1.1699219,1.3535156-1.7236328
			c0.6865234-0.5546875,1.6767578-1.0566406,2.9697266-1.5087891l3.6308594-1.2675781
			c1.0087891-0.3525391,1.8476562-0.5712891,2.5166016-0.6572266c0.5703125-0.0751953,1.1103516-0.0507812,1.6201172,0.0742188
			c0.7060547,0.1796875,1.3330078,0.5419922,1.8808594,1.0888672c0.3056641,0.2958984,0.5634766,0.6425781,0.7753906,1.0380859
			s0.3808594,0.7724609,0.5068359,1.1318359c0.1132812,0.3251953,0.2089844,0.7226562,0.2871094,1.1914062
			C-22.1362305,369.5634766-22.1166992,369.9990234-22.1547852,370.4003906z"/>
		<path class="st0" d="M-24.3061523,381.3691406c-0.3388672-0.4707031-0.7753906-0.8837891-1.3105469-1.2392578
			c-1.078125-0.71875-2.3037109-0.9628906-3.6757812-0.7333984c-1.3798828,0.2314453-2.4550781,0.8603516-3.2265625,1.8876953
			c-0.7871094,1.0234375-1.0703125,2.1884766-0.8515625,3.4960938c0.2148438,1.2851562,0.8603516,2.2802734,1.9355469,2.984375
			c1.0625,0.7128906,2.2910156,0.953125,3.6855469,0.7197266c1.4082031-0.2353516,2.4951172-0.8632812,3.2607422-1.8818359
			c0.5869141-0.796875,0.8730469-1.7285156,0.8574219-2.7949219l-2.3076172,0.3857422L-26.190918,382.6875l7.3251953-1.2255859
			l0.2519531,1.5058594l-3.5332031,0.5908203c0.0859375,1.4414062-0.2988281,2.7607422-1.1533203,3.9580078
			c-1.0244141,1.4199219-2.3828125,2.2705078-4.0732422,2.5537109c-1.7763672,0.296875-3.3925781-0.0419922-4.8476562-1.015625
			c-1.4580078-0.9892578-2.3291016-2.3330078-2.6123047-4.0302734c-0.2880859-1.71875,0.0820312-3.28125,1.109375-4.6855469
			s2.4082031-2.2519531,4.1416016-2.5419922c1.7480469-0.2929688,3.34375,0.0566406,4.7871094,1.0478516
			c0.9072266,0.6279297,1.5791016,1.3847656,2.0166016,2.2695312L-24.3061523,381.3691406z"/>
		<path class="st0" d="M-19.3979492,399.8398438c-0.4345703,0.2558594-0.9921875,0.4414062-1.671875,0.5546875
			s-1.3193359,0.1748047-1.9199219,0.1845703l-5.2177734,0.0849609c-0.8125,0.0136719-1.5498047-0.0292969-2.2099609-0.1289062
			c-0.6904297-0.1054688-1.2958984-0.3564453-1.8144531-0.7509766c-0.5195312-0.3935547-0.8847656-0.7802734-1.0957031-1.1572266
			c-0.3251953-0.6171875-0.4951172-1.3583984-0.5087891-2.2226562c-0.0195312-1.2011719,0.3564453-2.1669922,1.1289062-2.8964844
			c0.75-0.7451172,1.7617188-1.1279297,3.0361328-1.1484375l0.0253906,1.5703125
			c-0.7900391,0.0576172-1.4248047,0.3222656-1.9042969,0.7949219s-0.7138672,1.0537109-0.703125,1.7421875
			c0.0166016,0.9814453,0.3427734,1.6679688,0.9785156,2.0605469c0.6074219,0.3935547,1.8408203,0.5742188,3.7011719,0.5439453
			l3.9101562-0.0634766c1.8457031-0.0292969,3.0732422-0.2509766,3.6816406-0.6640625
			c0.6230469-0.4130859,0.9267578-1.109375,0.9111328-2.0908203c-0.0117188-0.6884766-0.2695312-1.2597656-0.7753906-1.7128906
			c-0.4833984-0.4609375-1.125-0.7070312-1.9238281-0.7373047l-0.0253906-1.5712891
			c1.2158203-0.0195312,2.2285156,0.3447266,3.0390625,1.09375c0.7958984,0.7119141,1.2138672,1.6503906,1.2548828,2.8144531
			c0.0136719,0.8857422-0.1318359,1.6318359-0.4365234,2.2373047
			C-18.2358398,398.9677734-18.722168,399.4550781-19.3979492,399.8398438z"/>
		<path class="st0" d="M-23.5366211,408.2041016c-0.1748047-0.5537109-0.4609375-1.0820312-0.8574219-1.5878906
			c-0.7998047-1.0185547-1.8876953-1.6328125-3.2636719-1.8427734c-1.3828125-0.2119141-2.6005859,0.0507812-3.6542969,0.7861328
			c-1.0664062,0.7255859-1.7001953,1.7441406-1.9003906,3.0546875c-0.1972656,1.2890625,0.1054688,2.4355469,0.9082031,3.4394531
			c0.7861328,1.0097656,1.8779297,1.6210938,3.2753906,1.8349609c1.4121094,0.2148438,2.640625-0.0419922,3.6855469-0.7705078
			c0.8066406-0.5742188,1.3691406-1.3691406,1.6875-2.3876953l-2.3134766-0.3535156l0.2314453-1.5097656l7.3408203,1.1220703
			l-0.2304688,1.5097656l-3.5400391-0.5410156c-0.3691406,1.3955078-1.1464844,2.5292969-2.3320312,3.4003906
			c-1.4160156,1.0283203-2.9716797,1.4130859-4.6660156,1.1533203c-1.78125-0.2714844-3.2109375-1.0976562-4.2890625-2.4775391
			c-1.0761719-1.3945312-1.484375-2.9423828-1.2236328-4.6435547c0.2626953-1.7236328,1.1015625-3.0917969,2.5166016-4.1054688
			c1.4140625-1.0136719,2.9902344-1.3886719,4.7275391-1.1230469c1.7519531,0.2685547,3.1591797,1.0976562,4.2207031,2.4902344
			c0.6660156,0.8798828,1.0683594,1.8085938,1.2080078,2.7851562L-23.5366211,408.2041016z"/>
		<path class="st0" d="M-23.5161133,427.9716797c-0.5097656,0.5556641-1.1337891,0.9345703-1.8720703,1.1367188
			c-0.4570312,0.1181641-0.9941406,0.1435547-1.6123047,0.0761719c-0.5234375-0.0507812-1.3623047-0.2685547-2.515625-0.6523438
			l-3.6474609-1.2158203c-1.890625-0.6298828-3.1513672-1.3642578-3.7822266-2.2041016s-0.9248047-1.8007812-0.8808594-2.8818359
			l1.4072266,0.46875c0.1152344,0.6025391,0.3613281,1.1279297,0.7363281,1.5771484
			c0.2158203,0.2568359,0.5205078,0.5019531,0.9140625,0.7333984c0.4121094,0.2451172,1.1357422,0.5400391,2.1708984,0.8857422
			l3.9921875,1.3300781c1.3476562,0.4492188,2.4169922,0.5195312,3.2070312,0.2119141
			c0.8056641-0.3339844,1.3808594-1.0185547,1.7265625-2.0537109c0.3837891-1.1533203,0.3496094-2.0917969-0.1044922-2.8144531
			c-0.4658203-0.734375-1.3554688-1.3193359-2.6689453-1.7578125l-4.0126953-1.3369141
			c-0.9589844-0.3193359-1.7089844-0.5117188-2.2509766-0.5761719c-0.4003906-0.0488281-0.796875-0.0419922-1.1884766,0.0205078
			c-0.2294922,0.0400391-0.4814453,0.1347656-0.7558594,0.2871094c-0.2744141,0.1513672-0.5341797,0.3291016-0.7792969,0.5332031
			l-1.4072266-0.46875c0.3916016-0.5722656,0.8535156-1.0283203,1.3876953-1.3671875
			c0.5341797-0.3398438,1.2421875-0.5185547,2.1240234-0.5371094c0.8828125-0.0185547,1.9736328,0.1884766,3.2734375,0.6210938
			l3.6474609,1.2158203c1.0146484,0.3378906,1.8125,0.6777344,2.3945312,1.0175781
			c0.4970703,0.2900391,0.9101562,0.6396484,1.2363281,1.0498047c0.4492188,0.5742188,0.7236328,1.2441406,0.8232422,2.0107422
			c0.0605469,0.421875,0.0537109,0.8535156-0.0205078,1.2958984s-0.1708984,0.8447266-0.2910156,1.2060547
			c-0.109375,0.3261719-0.2763672,0.6992188-0.5009766,1.1181641
			C-22.9907227,427.3212891-23.2407227,427.6777344-23.5161133,427.9716797z"/>
		<path class="st0" d="M-37.1538086,435.0722656c1.1591797,0.6474609,1.5107422,2.1015625,0.8554688,3.2304688
			c-0.65625,1.1279297-2.0820312,1.5224609-3.2109375,0.8662109c-1.1474609-0.6669922-1.5224609-2.0820312-0.8554688-3.2294922
			C-39.7084961,434.8105469-38.3022461,434.4052734-37.1538086,435.0722656z"/>
	</g>
	<g>
		<path class="st0" d="M-165.3085938,450.7412109c0.8417969-0.9150391,0.737793-1.796875-0.09375-2.7441406
			c-0.8081055-0.9199219-1.6630859-1.1113281-2.3393555-0.5175781c-0.7211914,0.6337891-0.2172852,1.5166016,0.4462891,2.6904297
			c0.7021484,1.2363281,1.5498047,2.8564453,0.1967773,4.0439453c-1.4248047,1.2519531-3.0644531,0.4394531-4.1411133-0.7871094
			c-1.3466797-1.5332031-1.6240234-3.2861328-0.0727539-4.6484375l0.7207031,0.8212891
			c-1.1318359,1.0576172-0.793457,2.2617188,0.109375,3.2890625c0.6577148,0.7490234,1.6635742,1.3671875,2.5742188,0.5673828
			c0.8295898-0.7285156,0.2792969-1.6826172-0.4038086-2.9521484c-0.6762695-1.2431641-1.5581055-2.5927734-0.2055664-3.7802734
			c1.3168945-1.1552734,2.8603516-0.4345703,3.8740234,0.71875c1.1958008,1.3613281,1.3881836,2.8535156,0.0556641,4.1201172
			L-165.3085938,450.7412109z"/>
		<path class="st0" d="M-165.7099609,459.1298828c-1.394043-1.3203125-1.2348633-2.9716797,0.0615234-4.3398438
			c1.4194336-1.4990234,3.1474609-1.6474609,4.472168-0.3925781c1.0976562,1.0400391,1.2412109,2.2675781,0.3969727,3.4023438
			l-0.7666016-0.7265625c0.472168-0.7597656,0.4018555-1.4707031-0.2080078-2.0488281
			c-0.8540039-0.8085938-2.0380859-0.6416016-3.0615234,0.4394531c-1.0400391,1.0976562-1.1621094,2.2382812-0.3256836,3.03125
			c0.6708984,0.6357422,1.5029297,0.6464844,2.3178711,0.0136719l0.7495117,0.7099609
			C-163.2197266,460.1660156-164.5947266,460.1865234-165.7099609,459.1298828z"/>
		<path class="st0" d="M-161.4584961,462.6455078L-162.25,461.9833984l3.9760742-4.7480469l0.7915039,0.6621094
			L-161.4584961,462.6455078z M-156.7734375,457.0517578l-0.7915039-0.6630859l0.8017578-0.9570312l0.7910156,0.6630859
			L-156.7734375,457.0517578z"/>
		<path class="st0" d="M-157.8032227,465.7617188c-1.4658203-1.0849609-1.6289062-2.6992188-0.4291992-4.3193359
			c1.1923828-1.6103516,2.9345703-2.0078125,4.3139648-0.9863281c1.6391602,1.2138672,1.2924805,2.9726562,0.2285156,4.4101562
			l-0.0859375,0.1152344l-3.7416992-2.7705078l-0.0522461,0.0507812c-0.7856445,1.0605469-0.6689453,2.1328125,0.2954102,2.8466797
			c0.7138672,0.5283203,1.3378906,0.5126953,2.1259766-0.0683594l0.8007812,0.5927734
			C-155.4482422,466.5947266-156.6264648,466.6337891-157.8032227,465.7617188z M-154.4379883,461.1171875
			c-0.800293-0.5927734-1.7880859-0.4287109-2.5869141,0.4277344l2.8930664,2.1425781
			C-153.5092773,462.6855469-153.6181641,461.7236328-154.4379883,461.1171875z"/>
		<path class="st0" d="M-150.4038086,464.2792969c0.8354492-0.3740234,1.5825195-0.3515625,2.3901367,0.1455078
			c1.2880859,0.7919922,1.324707,1.7861328,0.5825195,2.9921875l-2.15625,3.5068359l-0.8686523-0.5341797l1.9111328-3.1074219
			c0.5151367-0.8388672,0.9145508-1.5791016-0.1791992-2.2519531c-1.1352539-0.6982422-2.03125-0.0654297-2.6723633,0.9775391
			l-1.6972656,2.7597656l-0.8691406-0.5341797l3.2436523-5.2753906l0.8183594,0.5029297L-150.4038086,464.2792969z"/>
		<path class="st0" d="M-142.8154297,468.4599609l-1.0957031-0.5732422l-1.6762695,3.2011719
			c-0.2617188,0.5-0.4550781,0.7910156,0.1831055,1.1259766c0.1806641,0.0947266,0.3032227,0.1445312,0.5058594,0.2236328
			l-0.4067383,0.7763672c-0.3037109-0.1181641-0.4262695-0.1689453-0.7133789-0.3193359
			c-1.371582-0.71875-0.9511719-1.3652344-0.3222656-2.5673828l1.5258789-2.9140625l-0.925293-0.484375l0.3896484-0.7451172
			l0.925293,0.4853516l0.8525391-1.6279297l0.9038086,0.4736328l-0.8520508,1.6269531l1.0952148,0.5742188L-142.8154297,468.4599609
			z"/>
		<path class="st0" d="M-142.8261719,474.3808594l-0.934082-0.4384766l2.6298828-5.6064453l0.934082,0.4384766
			L-142.8261719,474.3808594z M-139.7275391,467.7753906l-0.934082-0.4384766l0.5297852-1.1298828l0.9345703,0.4384766
			L-139.7275391,467.7753906z"/>
		<path class="st0" d="M-135.746582,477.2939453c-0.2319336-0.0019531-0.4794922-0.0615234-0.6914062-0.1455078
			c-0.5351562-0.2119141-0.7060547-0.6279297-0.5-1.1796875c-0.8212891,0.4101562-1.5566406,0.4414062-2.4487305,0.0878906
			c-1.1376953-0.4521484-1.5927734-1.3554688-1.1943359-2.359375c0.4067383-1.0253906,1.3261719-1.3583984,2.753418-0.9853516
			c1.4384766,0.3769531,1.8935547,0.5957031,2.203125-0.1845703c0.2436523-0.6132812-0.0810547-1.1298828-0.9287109-1.4658203
			c-0.8813477-0.3496094-1.4667969-0.2080078-1.8925781,0.6044922l-0.9257812-0.3671875
			c0.5205078-1.2138672,1.7001953-1.5849609,3.184082-0.9960938c0.7695312,0.3056641,1.3476562,0.7666016,1.5854492,1.2744141
			c0.246582,0.5498047,0.0009766,1.1367188-0.2026367,1.6494141c-0.340332,0.859375-0.7216797,1.6894531-1.0620117,2.5478516
			c-0.168457,0.4238281-0.1254883,0.6083984,0.1645508,0.7236328c0.0893555,0.0351562,0.1381836,0.0419922,0.2475586,0.0595703
			L-135.746582,477.2939453z M-137.5063477,473.5615234c-0.7270508-0.1845703-1.6948242-0.4785156-2.0625,0.4472656
			c-0.234375,0.5917969,0.0546875,1.1318359,0.7685547,1.4150391c0.8920898,0.3544922,1.9946289,0.0810547,2.2866211-0.6542969
			l0.4160156-1.0488281C-136.5610352,473.8466797-137.0605469,473.6748047-137.5063477,473.5615234z"/>
		<path class="st0" d="M-127.203125,476.8828125c-0.2036133,0.7568359-0.9873047,1.2080078-1.7436523,1.0048828
			c-0.7568359-0.203125-1.2084961-0.9873047-1.0053711-1.7441406c0.2036133-0.7558594,0.9873047-1.2080078,1.7441406-1.0048828
			C-127.4516602,475.3427734-127,476.1259766-127.203125,476.8828125z"/>
		<path class="st0" d="M-117.7963867,481.5625l-5.5888672-0.9072266l1.3686523-8.4316406l1.1132812,0.1816406l-1.2114258,7.4589844
			l4.4760742,0.7265625L-117.7963867,481.5625z"/>
		<path class="st0" d="M-110.7866211,482.1083984c-0.2216797,0.0673828-0.4755859,0.0839844-0.7026367,0.0664062
			c-0.5742188-0.0439453-0.8608398-0.390625-0.828125-0.9775391c-0.6621094,0.6347656-1.3549805,0.8828125-2.3120117,0.8095703
			c-1.2202148-0.09375-1.9223633-0.8212891-1.840332-1.8974609c0.0844727-1.1005859,0.8637695-1.6914062,2.3369141-1.7587891
			c1.4853516-0.0664062,1.9848633,0.0078125,2.0488281-0.8300781c0.050293-0.6582031-0.4125977-1.0537109-1.3217773-1.1240234
			c-0.9448242-0.0722656-1.4619141,0.2373047-1.6274414,1.1396484l-0.9926758-0.0761719
			c0.1362305-1.3134766,1.152832-2.0175781,2.7441406-1.8964844c0.8251953,0.0634766,1.5146484,0.3330078,1.8920898,0.7470703
			c0.3984375,0.4511719,0.3378906,1.0849609,0.2958984,1.6347656c-0.0703125,0.9208984-0.1879883,1.8271484-0.2583008,2.7480469
			c-0.034668,0.4541016,0.0610352,0.6181641,0.3720703,0.6416016c0.0957031,0.0078125,0.1445312,0,0.2539062-0.0166016
			L-110.7866211,482.1083984z M-113.5742188,479.0673828c-0.7490234,0.0390625-1.7602539,0.0458984-1.8359375,1.0390625
			c-0.0488281,0.6337891,0.3876953,1.0644531,1.1533203,1.1230469c0.9570312,0.0732422,1.9287109-0.5146484,1.9887695-1.3046875
			l0.0864258-1.1240234C-112.5869141,479.0585938-113.1147461,479.0419922-113.5742188,479.0673828z"/>
		<path class="st0" d="M-108.1376953,476.8330078c0.4560547-0.7158203,1.1826172-1.0390625,2.0341797-1.0537109
			c1.690918-0.0283203,2.8154297,1.2255859,2.8481445,3.1923828c0.0332031,2.0029297-1.0727539,3.3164062-2.7998047,3.3447266
			c-0.8515625,0.0146484-1.6484375-0.2841797-2.0688477-1.0449219l0.0146484,0.8994141l-0.9594727,0.015625l-0.1411133-8.5390625
			l1.0195312-0.0166016L-108.1376953,476.8330078z M-108.1357422,479.1240234
			c0.0244141,1.4628906,0.7832031,2.3623047,1.9702148,2.3427734c1.1396484-0.0185547,1.8793945-0.9912109,1.8549805-2.4658203
			c-0.0244141-1.4628906-0.7832031-2.3740234-1.9345703-2.3554688
			C-107.6601562,476.6689453-108.1557617,477.8886719-108.1357422,479.1240234z"/>
		<path class="st0" d="M-95.8735352,478.2832031c0.2138672,2.0878906-0.7475586,3.4160156-2.6206055,3.6074219
			c-1.8852539,0.1933594-3.1313477-0.9091797-3.3388672-2.9375s0.8217773-3.4003906,2.6831055-3.5908203
			S-96.0820312,476.2421875-95.8735352,478.2832031z M-100.7851562,478.8212891
			c0.1547852,1.515625,0.9741211,2.3359375,2.215332,2.2089844c1.1928711-0.1220703,1.815918-1.1015625,1.6606445-2.6171875
			c-0.1499023-1.4677734-0.984375-2.3232422-2.1777344-2.2011719S-100.9355469,477.3535156-100.7851562,478.8212891z"/>
		<path class="st0" d="M-91.449707,475.3212891c-0.1083984,0.0068359-0.1557617,0.015625-0.262207,0.0341797
			c-1.6557617,0.2900391-1.7294922,1.6074219-1.4887695,2.9794922l0.4526367,2.578125l-1.0053711,0.1757812l-1.0708008-6.1015625
			l0.9580078-0.1679688l0.2304688,1.3125c0.2451172-1.1035156,0.9155273-1.6601562,2.003418-1.8505859L-91.449707,475.3212891z"/>
		<path class="st0" d="M-83.6679688,475.8691406c0.2124023,0.7558594-0.230957,1.5449219-0.9863281,1.7578125
			c-0.7548828,0.2119141-1.5449219-0.2314453-1.7573242-0.9863281c-0.2119141-0.7548828,0.230957-1.5449219,0.9863281-1.7568359
			C-84.6704102,474.6708984-83.8803711,475.1142578-83.6679688,475.8691406z"/>
		<path class="st0" d="M-73.175293,475.1064453l-5.2719727,2.0664062l-3.1181641-7.9521484l1.050293-0.4121094l2.7587891,7.0371094
			l4.222168-1.6552734L-73.175293,475.1064453z"/>
		<path class="st0" d="M-74.0014648,467.3974609l-0.9355469,0.4355469l-0.5268555-1.1318359l0.9355469-0.4355469
			L-74.0014648,467.3974609z M-70.9213867,474.0117188l-0.9355469,0.4355469l-2.6137695-5.6132812l0.9355469-0.4355469
			L-70.9213867,474.0117188z"/>
		<path class="st0" d="M-70.578125,467.8964844c0.0703125-0.8457031,0.5625-1.4716797,1.3100586-1.8808594
			c1.484375-0.8134766,3.0644531-0.2275391,4.0102539,1.4990234c0.9633789,1.7578125,0.5966797,3.4375-0.9194336,4.2675781
			c-0.7475586,0.4101562-1.5922852,0.5166016-2.3193359,0.0390625l0.4321289,0.7890625l-0.8422852,0.4619141l-4.1064453-7.4960938
			l0.8950195-0.4902344L-70.578125,467.8964844z M-69.5083008,469.9248047
			c0.7036133,1.2841797,1.7949219,1.7275391,2.8374023,1.15625c1-0.5478516,1.2016602-1.7539062,0.4926758-3.0488281
			c-0.7041016-1.2841797-1.8007812-1.7373047-2.8115234-1.1835938
			C-70.2319336,467.5292969-70.1020508,468.8408203-69.5083008,469.9248047z"/>
		<path class="st0" d="M-59.8095703,467.9277344c-1.5170898,1.0136719-3.0917969,0.6220703-4.2124023-1.0546875
			c-1.1132812-1.6660156-0.8989258-3.4404297,0.5283203-4.3945312c1.6962891-1.1328125,3.2353516-0.2128906,4.2285156,1.2744141
			l0.0800781,0.1191406l-3.871582,2.5878906l0.0297852,0.0664062c0.7333984,1.0976562,1.7822266,1.3496094,2.7802734,0.6826172
			c0.7382812-0.4931641,0.934082-1.0859375,0.6538086-2.0244141l0.828125-0.5537109
			C-58.2304688,465.9921875-58.5922852,467.1142578-59.8095703,467.9277344z M-63.046875,463.1904297
			c-0.8286133,0.5537109-1.0073242,1.5390625-0.4702148,2.5810547l2.9941406-2.0009766
			C-61.2563477,462.8457031-62.1987305,462.6240234-63.046875,463.1904297z"/>
		<path class="st0" d="M-56.918457,458.9990234c-0.0927734,0.0566406-0.1308594,0.0859375-0.2163086,0.1523438
			c-1.3286133,1.0273438-0.7807617,2.2265625,0.0708008,3.3271484l1.6000977,2.0693359l-0.8066406,0.6240234l-3.7871094-4.8974609
			l0.7685547-0.5947266l0.8144531,1.0537109c-0.2963867-1.0898438,0.0371094-1.8945312,0.9101562-2.5693359L-56.918457,458.9990234z
			"/>
		<path class="st0" d="M-54.140625,456.5166016l-0.9365234,0.8066406l2.355957,2.7373047
			c0.3681641,0.4277344,0.5678711,0.7148438,1.1132812,0.2451172c0.1547852-0.1337891,0.2470703-0.2285156,0.3950195-0.3876953
			l0.5712891,0.6640625c-0.222168,0.2382812-0.3139648,0.3339844-0.5595703,0.5449219
			c-1.1733398,1.0097656-1.6196289,0.3808594-2.5043945-0.6464844l-2.1445312-2.4921875l-0.7915039,0.6806641l-0.5478516-0.6357422
			l0.7915039-0.6816406l-1.1977539-1.3916016l0.7729492-0.6650391l1.1977539,1.3916016l0.9365234-0.8066406L-54.140625,456.5166016z
			"/>
		<path class="st0" d="M-45.4501953,455.5380859c-0.0947266,0.2109375-0.2490234,0.4140625-0.4111328,0.5742188
			c-0.4101562,0.4042969-0.8598633,0.3925781-1.28125-0.0175781c0.0444336,0.9160156-0.2236328,1.6015625-0.9072266,2.2753906
			c-0.871582,0.859375-1.8813477,0.9111328-2.6391602,0.1425781c-0.7749023-0.7871094-0.7084961-1.7617188,0.2075195-2.9179688
			c0.9248047-1.1640625,1.309082-1.4921875,0.7192383-2.0898438c-0.4628906-0.4707031-1.0664062-0.3808594-1.7158203,0.2587891
			c-0.6748047,0.6650391-0.7807617,1.2587891-0.2089844,1.9755859l-0.7094727,0.6992188
			c-0.9008789-0.9658203-0.7646484-2.1943359,0.371582-3.3144531c0.5898438-0.5820312,1.2456055-0.9248047,1.8056641-0.9375
			c0.6025391-0.0039062,1.0400391,0.4570312,1.4272461,0.8496094c0.6484375,0.6582031,1.2543945,1.3417969,1.9033203,1.9990234
			c0.3198242,0.3251953,0.5063477,0.3603516,0.7285156,0.1416016c0.0683594-0.0673828,0.09375-0.109375,0.1542969-0.203125
			L-45.4501953,455.5380859z M-49.5737305,455.6435547c-0.4624023,0.5908203-1.1210938,1.3583984-0.4223633,2.0673828
			c0.4467773,0.453125,1.0576172,0.40625,1.6040039-0.1328125c0.6835938-0.6738281,0.878418-1.7919922,0.3227539-2.3564453
			l-0.7919922-0.8027344C-48.9321289,454.8935547-49.2915039,455.28125-49.5737305,455.6435547z"/>
		<path class="st0" d="M-45.3061523,448.7451172c-0.6640625-0.4785156-1.269043-0.2558594-1.8413086,0.4072266
			c-0.5097656,0.5898438-0.5786133,1.1650391-0.1879883,1.5019531c0.5263672,0.4550781,1.1337891-0.0830078,1.8276367-0.5927734
			c0.8642578-0.6328125,1.9775391-1.4628906,2.9941406-0.5849609c0.9082031,0.7841797,0.840332,2.0742188-0.1713867,3.2451172
			c-1.0976562,1.2714844-2.2739258,1.4765625-3.3662109,0.6113281l0.6586914-0.7626953
			c0.7475586,0.5664062,1.4448242,0.3291016,2.0878906-0.4160156c0.5961914-0.6894531,0.6796875-1.4101562,0.2075195-1.8183594
			c-0.5175781-0.4472656-1.081543-0.0146484-1.8095703,0.4980469c-0.8979492,0.6357422-1.9311523,1.6298828-3.0112305,0.6962891
			c-0.8447266-0.7294922-0.7763672-1.8916016,0.1650391-2.9804688c0.909668-1.0537109,2.1240234-1.4316406,3.1137695-0.5761719
			L-45.3061523,448.7451172z"/>
	</g>
	<g>
		<path class="st0" d="M-107.1899414,496C-161.6738281,496-206,451.6738281-206,397.1904297
			c0-54.4838867,44.3261719-98.8100586,98.8100586-98.8100586s98.8100586,44.3261719,98.8100586,98.8100586
			C-8.3798828,451.6738281-52.7060547,496-107.1899414,496z M-107.1899414,300.409668
			c-53.3652344,0-96.7807617,43.4155273-96.7807617,96.7807617s43.4155273,96.7802734,96.7807617,96.7802734
			s96.7807617-43.4150391,96.7807617-96.7802734S-53.824707,300.409668-107.1899414,300.409668z"/>
	</g>
</g>
</svg>
