<?xml version="1.0" encoding="utf-8"?>
<!-- Generator: Adobe Illustrator 19.0.0, SVG Export Plug-In . SVG Version: 6.00 Build 0)  -->
<svg version="1.1" id="Isolation_Mode" xmlns="http://www.w3.org/2000/svg" xmlns:xlink="http://www.w3.org/1999/xlink" x="0px"
	 y="0px" viewBox="0 0 241.3 36.9" style="enable-background:new 0 0 241.3 36.9;" xml:space="preserve">
<style type="text/css">
	.st0{fill:#F05255;}
	.st1{fill:#2E3895;}
	.st2{fill:#1B1A1B;}
</style>
<polygon class="st0" points="13.8,0 13.8,9.2 32.3,9.2 32.3,36.9 41.5,36.9 41.5,9.2 55.4,9.2 55.4,0 "/>
<polygon class="st1" points="9.2,0 0,0 0,0.1 0,36.9 0,36.9 9.2,36.9 9.2,23.1 27.7,23.1 27.7,13.9 9.2,13.9 "/>
<g>
	<path class="st2" d="M75.8,16.5h-2.5V9.4h-6.7v7.2h-2.5V0.1h2.5v7h6.7v-7h2.5V16.5z"/>
	<path class="st2" d="M88.4,16.5h-2.3v-1.1c-0.4,0.4-0.9,0.7-1.3,0.9s-1.1,0.3-1.8,0.3c-0.7,0-1.3-0.1-1.8-0.3
		c-0.5-0.2-1-0.4-1.3-0.8c-0.6-0.6-0.9-1.5-0.9-2.5c0-0.7,0.2-1.3,0.5-1.8c0.3-0.5,0.8-0.9,1.4-1.2s1.3-0.4,2.2-0.4H86V8.9
		c0-0.7-0.2-1.3-0.6-1.6c-0.4-0.4-1.1-0.5-1.9-0.5c-0.7,0-1.2,0.1-1.5,0.2c-0.4,0.2-0.7,0.5-1,0.9l-1.5-1.4c0.5-0.6,1.1-1.1,1.8-1.3
		c0.6-0.2,1.5-0.4,2.4-0.4c3.2,0,4.8,1.3,4.8,4V16.5z M86,12.3v-0.9h-2.7c-0.7,0-1.2,0.1-1.6,0.4c-0.4,0.3-0.5,0.7-0.5,1.2
		c0,1.1,0.7,1.7,2.1,1.7c0.5,0,0.9,0,1.3-0.1s0.6-0.3,0.9-0.5C85.8,13.7,86,13.1,86,12.3z"/>
	<path class="st2" d="M100.4,15c-0.4,0.4-0.7,0.7-1.1,0.9c-0.4,0.3-0.8,0.4-1.3,0.5c-0.4,0.1-0.9,0.2-1.5,0.2
		c-0.9,0-1.8-0.2-2.6-0.6s-1.4-1.1-1.9-2s-0.7-2-0.7-3.4c0-1.1,0.1-2,0.4-2.7c0.3-0.8,0.7-1.4,1.2-1.9c0.5-0.5,1-0.8,1.7-1
		c0.6-0.2,1.3-0.3,1.9-0.3c0.8,0,1.5,0.1,2.1,0.4c0.6,0.3,1.2,0.7,1.7,1.3l-1.6,1.6c-0.4-0.4-0.7-0.7-1-0.9S97,6.8,96.6,6.8
		c-0.9,0-1.6,0.3-2.2,1C94.2,8.2,94,8.6,93.9,9c-0.1,0.4-0.2,1-0.2,1.7c0,1.3,0.2,2.3,0.7,2.9c0.5,0.7,1.2,1,2.2,1
		c0.5,0,0.9-0.1,1.2-0.3s0.7-0.5,1-0.8L100.4,15z"/>
	<path class="st2" d="M113.4,16.5h-2.9l-3.3-5.4l-1.7,2v3.4h-2.4V0.1h2.4v10.1l4.5-5.4h2.9l-4.1,4.6L113.4,16.5z"/>
	<path class="st2" d="M125.6,1.2h-4.9v15.3h-1.2V1.2h-4.9V0.1h11V1.2z"/>
	<path class="st2" d="M139.9,12.1c0,1.4-0.4,2.5-1.3,3.3c-0.9,0.8-2,1.2-3.5,1.2h-6.2V0.1h6c0.9,0,1.7,0.2,2.5,0.5
		c0.7,0.3,1.3,0.8,1.7,1.5s0.6,1.4,0.6,2.3c0,0.9-0.2,1.6-0.7,2.3c-0.5,0.7-1.1,1.1-1.9,1.4c0.9,0.3,1.6,0.8,2.1,1.5
		C139.7,10.3,139.9,11.1,139.9,12.1z M138.4,4.4c0-0.7-0.2-1.3-0.5-1.8c-0.3-0.5-0.8-0.8-1.3-1.1c-0.5-0.2-1.2-0.3-1.9-0.3h-4.7v6.4
		h4.7c1.1,0,1.9-0.3,2.6-0.8C138.1,6.3,138.4,5.5,138.4,4.4z M138.6,12.1c0-0.7-0.2-1.3-0.5-1.8c-0.3-0.5-0.7-0.9-1.3-1.2
		s-1.2-0.4-2-0.4h-4.8v6.7h4.8c0.8,0,1.4-0.1,2-0.4s1-0.7,1.3-1.2C138.5,13.4,138.6,12.8,138.6,12.1z"/>
	<path class="st2" d="M145.6,16.5h-1.2V0.1h1.2V16.5z"/>
	<path class="st2" d="M160.6,16.5h-10V0.1h1.2v15.3h8.7V16.5z"/>
	<path class="st2" d="M165.1,16.5h-1.2V0.1h1.2V16.5z"/>
	<path class="st2" d="M179.8,12.1c0,0.7-0.1,1.3-0.4,1.9c-0.3,0.6-0.6,1-1.1,1.4c-0.5,0.4-1.1,0.7-1.8,0.9c-0.7,0.2-1.5,0.3-2.3,0.3
		c-0.8,0-1.5-0.1-2.1-0.2c-0.6-0.2-1.2-0.4-1.8-0.7c-0.5-0.3-1.1-0.7-1.6-1.2l0.9-0.9c0.5,0.5,1,0.9,1.4,1.2s0.9,0.5,1.5,0.6
		c0.5,0.1,1.1,0.2,1.8,0.2c0.9,0,1.6-0.1,2.2-0.4s1.1-0.7,1.5-1.2s0.5-1.1,0.5-1.8c0-1-0.3-1.8-0.9-2.3c-0.3-0.2-0.6-0.4-0.9-0.5
		c-0.3-0.1-0.8-0.2-1.4-0.3l-1.9-0.3c-1.2-0.2-2.2-0.6-2.9-1.2c-0.9-0.7-1.3-1.7-1.3-3c0-0.7,0.1-1.3,0.4-1.9c0.2-0.6,0.6-1,1-1.4
		c0.4-0.4,1-0.7,1.6-0.9c0.6-0.2,1.3-0.3,2.1-0.3c1,0,1.9,0.1,2.6,0.4c0.7,0.3,1.4,0.7,2.1,1.3l-0.8,0.8c-0.6-0.5-1.2-0.9-1.7-1.1
		c-0.6-0.2-1.3-0.4-2.2-0.4c-1.2,0-2.1,0.3-2.8,0.9s-1,1.4-1,2.5c0,1,0.3,1.7,0.8,2.1c0.3,0.2,0.7,0.5,1.1,0.6
		c0.4,0.2,0.9,0.3,1.3,0.4l1.8,0.3c0.8,0.1,1.4,0.2,1.8,0.4c0.4,0.2,0.8,0.4,1.1,0.7c0.5,0.4,0.8,0.8,1.1,1.4S179.8,11.5,179.8,12.1
		z"/>
	<path class="st2" d="M184.9,16.5h-1.2V0.1h1.2V16.5z"/>
</g>
<g>
	<path class="st2" d="M71.4,29.9h-1.6l-0.4,2.4h1.5v0.7h-1.6l-0.6,3.8h-0.8l0.6-3.8h-2.8l-0.6,3.8h-0.8l0.6-3.8h-1.5v-0.7H65
		l0.4-2.4h-1.6v-0.7h1.7l0.6-3.7h0.8l-0.6,3.7h2.8l0.6-3.7h0.8l-0.6,3.7h1.5V29.9z M69,29.9h-2.8l-0.4,2.4h2.8L69,29.9z"/>
	<path class="st2" d="M79.7,36.9h-0.8v-4.8c0-0.7-0.2-1.3-0.5-1.7c-0.4-0.4-0.9-0.6-1.6-0.6c-0.5,0-0.9,0.1-1.2,0.3
		c-0.3,0.2-0.6,0.4-0.7,0.8s-0.3,0.8-0.3,1.2v4.8h-0.8V25.5h0.8v4.6c0.6-0.7,1.3-1,2.3-1c0.6,0,1.1,0.1,1.5,0.3c0.4,0.2,0.8,0.6,1,1
		c0.2,0.4,0.3,0.9,0.3,1.5V36.9z"/>
	<path class="st2" d="M88,36.9h-0.8v-0.8c-0.3,0.3-0.7,0.5-1,0.7S85.4,37,84.9,37c-0.4,0-0.7,0-1-0.1s-0.5-0.1-0.7-0.2
		s-0.4-0.2-0.6-0.4c-0.4-0.4-0.6-0.9-0.6-1.5c0-0.7,0.2-1.3,0.7-1.6c0.5-0.4,1.1-0.6,2-0.6h2.5v-0.9c0-0.6-0.2-1.1-0.5-1.4
		s-0.9-0.5-1.7-0.5c-0.5,0-1,0.1-1.3,0.2s-0.6,0.4-0.8,0.8l-0.6-0.5c0.2-0.3,0.5-0.5,0.7-0.7c0.3-0.2,0.5-0.3,0.9-0.4
		c0.3-0.1,0.7-0.1,1.1-0.1c2,0,3,0.8,3,2.5V36.9z M87.2,34.3v-1h-2.4c-1.3,0-2,0.5-2,1.6c0,0.5,0.2,0.9,0.5,1.1s0.8,0.4,1.5,0.4
		c0.4,0,0.8,0,1.1-0.1s0.6-0.2,0.8-0.5C87.1,35.5,87.2,35,87.2,34.3z"/>
	<path class="st2" d="M96.6,35.9c-0.4,0.5-0.8,0.8-1.2,0.9S94.6,37,94,37c-0.5,0-1-0.1-1.4-0.3c-0.4-0.2-0.8-0.4-1.1-0.8
		c-0.3-0.3-0.5-0.8-0.7-1.3c-0.2-0.5-0.2-1-0.2-1.6c0-0.8,0.1-1.5,0.4-2.1s0.7-1,1.2-1.4s1.1-0.5,1.8-0.5c0.6,0,1,0.1,1.4,0.3
		s0.8,0.5,1.2,0.9L96,30.8c-0.2-0.2-0.4-0.4-0.6-0.6S95,30,94.8,29.9s-0.5-0.1-0.7-0.1c-0.9,0-1.6,0.3-2,1c-0.2,0.3-0.3,0.6-0.4,0.9
		c-0.1,0.3-0.1,0.8-0.1,1.3s0,0.9,0.1,1.3s0.2,0.7,0.4,0.9c0.5,0.7,1.2,1,2,1c0.4,0,0.8-0.1,1.1-0.2s0.6-0.4,0.9-0.8L96.6,35.9z"/>
	<path class="st2" d="M105.2,36.9h-1l-2.7-4.2l-1.8,2v2.2H99V25.5h0.8v8l3.8-4.4h1l-2.5,2.9L105.2,36.9z"/>
	<path class="st2" d="M112.7,36.9h-0.8v-0.8c-0.3,0.3-0.7,0.5-1,0.7s-0.8,0.2-1.3,0.2c-0.4,0-0.7,0-1-0.1s-0.5-0.1-0.7-0.2
		s-0.4-0.2-0.6-0.4c-0.4-0.4-0.6-0.9-0.6-1.5c0-0.7,0.2-1.3,0.7-1.6c0.5-0.4,1.1-0.6,2-0.6h2.5v-0.9c0-0.6-0.2-1.1-0.5-1.4
		s-0.9-0.5-1.7-0.5c-0.5,0-1,0.1-1.3,0.2s-0.6,0.4-0.8,0.8l-0.6-0.5c0.2-0.3,0.5-0.5,0.7-0.7c0.3-0.2,0.5-0.3,0.9-0.4
		c0.3-0.1,0.7-0.1,1.1-0.1c2,0,3,0.8,3,2.5V36.9z M111.9,34.3v-1h-2.4c-1.3,0-2,0.5-2,1.6c0,0.5,0.2,0.9,0.5,1.1s0.8,0.4,1.5,0.4
		c0.4,0,0.8,0,1.1-0.1s0.6-0.2,0.8-0.5C111.8,35.5,111.9,35,111.9,34.3z"/>
	<path class="st2" d="M118.5,36.9h-0.7c-0.4,0-0.7-0.1-1-0.3c-0.3-0.2-0.5-0.4-0.6-0.7c-0.1-0.3-0.2-0.7-0.2-1v-5.1h-1.1v-0.6h1.1
		v-2.5h0.8v2.5h1.7v0.6h-1.7v5.1c0,0.9,0.4,1.3,1.2,1.3h0.6V36.9z"/>
	<path class="st2" d="M126.9,36.9h-0.8v-4.8c0-0.7-0.2-1.3-0.5-1.7c-0.4-0.4-0.9-0.6-1.6-0.6c-0.5,0-0.9,0.1-1.2,0.3
		c-0.3,0.2-0.6,0.4-0.7,0.8s-0.3,0.8-0.3,1.2v4.8H121V25.5h0.8v4.6c0.6-0.7,1.3-1,2.3-1c0.6,0,1.1,0.1,1.5,0.3c0.4,0.2,0.8,0.6,1,1
		c0.2,0.4,0.3,0.9,0.3,1.5V36.9z"/>
	<path class="st2" d="M135.7,33.1c0,0.4,0,0.8-0.1,1.2c-0.1,0.4-0.1,0.7-0.3,1.1s-0.3,0.6-0.6,0.9c-0.6,0.6-1.3,0.8-2.1,0.8
		c-0.9,0-1.6-0.3-2.1-0.8c-0.3-0.3-0.5-0.5-0.6-0.9c-0.1-0.3-0.2-0.7-0.3-1c-0.1-0.4-0.1-0.8-0.1-1.2c0-0.6,0.1-1.2,0.2-1.8
		c0.1-0.5,0.4-1,0.8-1.3c0.6-0.6,1.3-0.8,2.1-0.8c0.9,0,1.6,0.3,2.1,0.8c0.3,0.3,0.5,0.5,0.6,0.9s0.2,0.7,0.3,1.1
		C135.7,32.3,135.7,32.7,135.7,33.1z M134.9,33.1c0-0.6,0-1.1-0.1-1.5c-0.1-0.4-0.3-0.8-0.6-1.1c-0.4-0.4-1-0.7-1.6-0.7
		c-0.6,0-1.2,0.2-1.6,0.7c-0.3,0.3-0.5,0.6-0.6,1.1c-0.1,0.4-0.1,0.9-0.1,1.5c0,0.6,0,1.1,0.1,1.5s0.3,0.8,0.6,1.1
		c0.4,0.4,1,0.7,1.6,0.7c0.6,0,1.2-0.2,1.6-0.7c0.3-0.3,0.5-0.6,0.6-1.1C134.8,34.2,134.9,33.7,134.9,33.1z"/>
	<path class="st2" d="M144.3,36.9h-0.8v-4.8c0-0.7-0.2-1.3-0.5-1.7c-0.4-0.4-0.9-0.6-1.6-0.6c-0.5,0-0.9,0.1-1.2,0.3
		c-0.3,0.2-0.6,0.4-0.7,0.8s-0.3,0.8-0.3,1.2v4.8h-0.8v-7.7h0.8v0.9c0.6-0.7,1.3-1,2.3-1c0.9,0,1.5,0.2,2,0.7
		c0.5,0.5,0.8,1.2,0.8,2.1V36.9z"/>
	<path class="st2" d="M153.9,26.3h-3.4v10.6h-0.9V26.3h-3.4v-0.8h7.7V26.3z"/>
	<path class="st2" d="M161.9,36.9H161v-4.8c0-0.7-0.2-1.3-0.5-1.7c-0.4-0.4-0.9-0.6-1.6-0.6c-0.5,0-0.9,0.1-1.2,0.3
		c-0.3,0.2-0.6,0.4-0.7,0.8s-0.3,0.8-0.3,1.2v4.8h-0.8V25.5h0.8v4.6c0.6-0.7,1.3-1,2.3-1c0.6,0,1.1,0.1,1.5,0.3c0.4,0.2,0.8,0.6,1,1
		c0.2,0.4,0.3,0.9,0.3,1.5V36.9z"/>
	<path class="st2" d="M170.2,36.9h-0.8v-0.8c-0.3,0.3-0.7,0.5-1,0.7S167.6,37,167,37c-0.4,0-0.7,0-1-0.1s-0.5-0.1-0.7-0.2
		s-0.4-0.2-0.6-0.4c-0.4-0.4-0.6-0.9-0.6-1.5c0-0.7,0.2-1.3,0.7-1.6c0.5-0.4,1.1-0.6,2-0.6h2.5v-0.9c0-0.6-0.2-1.1-0.5-1.4
		s-0.9-0.5-1.7-0.5c-0.5,0-1,0.1-1.3,0.2s-0.6,0.4-0.8,0.8l-0.6-0.5c0.2-0.3,0.5-0.5,0.7-0.7c0.3-0.2,0.5-0.3,0.9-0.4
		c0.3-0.1,0.7-0.1,1.1-0.1c2,0,3,0.8,3,2.5V36.9z M169.4,34.3v-1H167c-1.3,0-2,0.5-2,1.6c0,0.5,0.2,0.9,0.5,1.1s0.8,0.4,1.5,0.4
		c0.4,0,0.8,0,1.1-0.1s0.6-0.2,0.8-0.5C169.3,35.5,169.4,35,169.4,34.3z"/>
	<path class="st2" d="M176,36.9h-0.7c-0.4,0-0.7-0.1-1-0.3c-0.3-0.2-0.5-0.4-0.6-0.7c-0.1-0.3-0.2-0.7-0.2-1v-5.1h-1.1v-0.6h1.1
		v-2.5h0.8v2.5h1.7v0.6h-1.7v5.1c0,0.9,0.4,1.3,1.2,1.3h0.6V36.9z"/>
	<path class="st2" d="M185.6,36.9h-6.9V25.5h0.9v10.6h6V36.9z"/>
	<path class="st2" d="M193.4,33.1c0,0.4,0,0.8-0.1,1.2c-0.1,0.4-0.1,0.7-0.3,1.1s-0.3,0.6-0.6,0.9c-0.6,0.6-1.3,0.8-2.1,0.8
		c-0.9,0-1.6-0.3-2.1-0.8c-0.3-0.3-0.5-0.5-0.6-0.9c-0.1-0.3-0.2-0.7-0.3-1c-0.1-0.4-0.1-0.8-0.1-1.2c0-0.6,0.1-1.2,0.2-1.8
		c0.1-0.5,0.4-1,0.8-1.3c0.6-0.6,1.3-0.8,2.1-0.8c0.9,0,1.6,0.3,2.1,0.8c0.3,0.3,0.5,0.5,0.6,0.9s0.2,0.7,0.3,1.1
		C193.3,32.3,193.4,32.7,193.4,33.1z M192.5,33.1c0-0.6,0-1.1-0.1-1.5c-0.1-0.4-0.3-0.8-0.6-1.1c-0.4-0.4-1-0.7-1.6-0.7
		c-0.6,0-1.2,0.2-1.6,0.7c-0.3,0.3-0.5,0.6-0.6,1.1c-0.1,0.4-0.1,0.9-0.1,1.5c0,0.6,0,1.1,0.1,1.5s0.3,0.8,0.6,1.1
		c0.4,0.4,1,0.7,1.6,0.7c0.6,0,1.2-0.2,1.6-0.7c0.3-0.3,0.5-0.6,0.6-1.1C192.5,34.2,192.5,33.7,192.5,33.1z"/>
	<path class="st2" d="M201.1,29.2l-2.8,7.7h-0.8l-2.8-7.7h0.9l2.3,6.8l2.3-6.8H201.1z"/>
	<path class="st2" d="M208.6,33.3h-5.4c0,1,0.2,1.7,0.6,2.3s1.1,0.8,1.9,0.8c0.4,0,0.8-0.1,1.1-0.2c0.3-0.1,0.6-0.4,1-0.7l0.6,0.5
		c-0.4,0.4-0.8,0.7-1.2,0.9s-0.9,0.3-1.5,0.3c-0.7,0-1.3-0.1-1.8-0.4s-0.9-0.7-1.1-1.3s-0.4-1.3-0.4-2.2c0-0.6,0.1-1.2,0.2-1.7
		c0.1-0.5,0.3-0.9,0.6-1.2c0.3-0.3,0.6-0.6,1-0.8s0.8-0.3,1.3-0.3c0.5,0,0.9,0.1,1.3,0.2s0.7,0.4,1,0.7c0.3,0.3,0.5,0.7,0.6,1.2
		s0.2,1,0.2,1.6V33.3z M207.8,32.6c0-0.4,0-0.7-0.1-0.8s-0.1-0.4-0.2-0.6c-0.2-0.4-0.4-0.7-0.8-0.9c-0.4-0.2-0.8-0.4-1.2-0.4
		c-0.4,0-0.8,0.1-1.2,0.3s-0.6,0.5-0.8,0.9c-0.1,0.2-0.2,0.5-0.2,0.7c0,0.2-0.1,0.5-0.1,0.8H207.8z"/>
	<path class="st2" d="M216.7,34.7c0,0.5-0.1,0.9-0.4,1.2s-0.6,0.6-1.1,0.8s-1,0.3-1.6,0.3c-1.3,0-2.4-0.4-3.1-1.1l0.6-0.6
		c0.6,0.6,1.4,0.9,2.5,0.9c0.8,0,1.3-0.1,1.7-0.4c0.4-0.3,0.6-0.7,0.6-1.2c0-0.4-0.1-0.7-0.4-0.9c-0.2-0.2-0.6-0.3-1.1-0.4l-1.3-0.1
		c-1.6-0.1-2.3-0.8-2.3-2c0-0.4,0.1-0.8,0.3-1.2s0.5-0.6,1-0.8c0.4-0.2,0.9-0.3,1.5-0.3c0.5,0,1,0.1,1.5,0.2
		c0.5,0.1,0.9,0.3,1.2,0.6l-0.5,0.5c-0.6-0.4-1.3-0.7-2.2-0.7c-0.6,0-1.1,0.1-1.5,0.4c-0.3,0.3-0.5,0.6-0.5,1.1
		c0,0.4,0.1,0.7,0.4,0.9c0.3,0.2,0.6,0.3,1.2,0.4l1.2,0.1c0.7,0.1,1.3,0.2,1.7,0.5C216.5,33.6,216.7,34,216.7,34.7z"/>
	<path class="st2" d="M225.4,25.5l-3.4,6.7v4.7h-0.9v-4.7l-3.4-6.7h0.9l2.9,5.8l2.8-5.8H225.4z"/>
	<path class="st2" d="M232.8,33.1c0,0.4,0,0.8-0.1,1.2c-0.1,0.4-0.1,0.7-0.3,1.1s-0.3,0.6-0.6,0.9c-0.6,0.6-1.3,0.8-2.1,0.8
		c-0.9,0-1.6-0.3-2.1-0.8c-0.3-0.3-0.5-0.5-0.6-0.9c-0.1-0.3-0.2-0.7-0.3-1c-0.1-0.4-0.1-0.8-0.1-1.2c0-0.6,0.1-1.2,0.2-1.8
		c0.1-0.5,0.4-1,0.8-1.3c0.6-0.6,1.3-0.8,2.1-0.8c0.9,0,1.6,0.3,2.1,0.8c0.3,0.3,0.5,0.5,0.6,0.9s0.2,0.7,0.3,1.1
		C232.8,32.3,232.8,32.7,232.8,33.1z M232,33.1c0-0.6,0-1.1-0.1-1.5c-0.1-0.4-0.3-0.8-0.6-1.1c-0.4-0.4-1-0.7-1.6-0.7
		c-0.6,0-1.2,0.2-1.6,0.7c-0.3,0.3-0.5,0.6-0.6,1.1c-0.1,0.4-0.1,0.9-0.1,1.5c0,0.6,0,1.1,0.1,1.5s0.3,0.8,0.6,1.1
		c0.4,0.4,1,0.7,1.6,0.7c0.6,0,1.2-0.2,1.6-0.7c0.3-0.3,0.5-0.6,0.6-1.1C232,34.2,232,33.7,232,33.1z"/>
	<path class="st2" d="M241.3,36.9h-0.8V36c-0.6,0.7-1.3,1-2.3,1c-0.9,0-1.5-0.2-2-0.7c-0.5-0.5-0.8-1.2-0.8-2.1v-4.9h0.8V34
		c0,0.7,0.2,1.3,0.5,1.7c0.4,0.4,0.9,0.6,1.6,0.6c0.5,0,0.8-0.1,1.2-0.3c0.3-0.2,0.6-0.4,0.7-0.8s0.3-0.8,0.3-1.2v-4.8h0.8V36.9z"/>
</g>
</svg>
