<?xml version="1.0" encoding="utf-8"?>
<!-- Generator: Adobe Illustrator 19.0.0, SVG Export Plug-In . SVG Version: 6.00 Build 0)  -->
<svg version="1.1" id="Isolation_Mode" xmlns="http://www.w3.org/2000/svg" xmlns:xlink="http://www.w3.org/1999/xlink" x="0px"
	 y="0px" viewBox="-76 264.7 241.3 37.2" style="enable-background:new -76 264.7 241.3 37.2;" xml:space="preserve">
<style type="text/css">
	.st0{fill:#FFFFFF;}
	.st1{fill:#F05255;}
</style>
<polygon class="st0" points="-62.1,264.7 -62.1,273.9 -43.7,273.9 -43.7,301.6 -34.4,301.6 -34.4,273.9 -20.6,273.9 -20.6,264.7 "/>
<polygon class="st0" points="-66.8,264.7 -76,264.7 -76,264.8 -76,301.6 -76,301.6 -66.8,301.6 -66.8,287.8 -48.3,287.8 
	-48.3,278.6 -66.8,278.6 "/>
<g>
	<path class="st0" d="M-0.2,281.3h-2.5v-7.2h-6.7v7.2h-2.5v-16.4h2.5v7h6.7v-7h2.5C-0.2,264.9-0.2,281.3-0.2,281.3z"/>
	<path class="st0" d="M12.4,281.3h-2.3v-1.1c-0.4,0.4-0.9,0.7-1.3,0.9c-0.5,0.2-1.1,0.3-1.8,0.3s-1.3-0.1-1.8-0.3s-1-0.4-1.3-0.8
		c-0.6-0.6-0.9-1.5-0.9-2.5c0-0.7,0.2-1.3,0.5-1.8s0.8-0.9,1.4-1.2c0.6-0.3,1.3-0.4,2.2-0.4h3.1v-0.8c0-0.7-0.2-1.3-0.6-1.6
		c-0.4-0.4-1.1-0.5-1.9-0.5c-0.7,0-1.2,0.1-1.5,0.2c-0.4,0.2-0.7,0.5-1,0.9l-1.5-1.4c0.5-0.6,1.1-1.1,1.8-1.3
		c0.6-0.2,1.5-0.4,2.4-0.4c3.2,0,4.8,1.3,4.8,4v7.8L12.4,281.3L12.4,281.3z M10,277.1v-1H7.3c-0.7,0-1.2,0.1-1.6,0.4
		s-0.5,0.7-0.5,1.2c0,1.1,0.7,1.7,2.1,1.7c0.5,0,0.9,0,1.3-0.1c0.3-0.1,0.6-0.3,0.9-0.5C9.9,278.5,10,277.9,10,277.1z"/>
	<path class="st0" d="M24.5,279.8c-0.4,0.4-0.7,0.7-1.1,0.9c-0.4,0.3-0.8,0.4-1.3,0.5c-0.4,0.1-0.9,0.2-1.5,0.2
		c-0.9,0-1.8-0.2-2.6-0.6s-1.4-1.1-1.9-2s-0.7-2-0.7-3.4c0-1.1,0.1-2,0.4-2.7c0.3-0.8,0.7-1.4,1.2-1.9s1-0.8,1.7-1
		c0.6-0.2,1.3-0.3,1.9-0.3c0.8,0,1.5,0.1,2.1,0.4s1.2,0.7,1.7,1.3l-1.6,1.6c-0.4-0.4-0.7-0.7-1-0.9s-0.7-0.2-1.2-0.2
		c-0.9,0-1.6,0.3-2.2,1c-0.3,0.3-0.4,0.7-0.5,1.1s-0.2,1-0.2,1.7c0,1.3,0.2,2.3,0.7,2.9c0.5,0.7,1.2,1,2.2,1c0.5,0,0.9-0.1,1.2-0.3
		s0.7-0.5,1-0.8L24.5,279.8z"/>
	<path class="st0" d="M37.4,281.3h-2.9l-3.3-5.4l-1.7,2v3.4h-2.4v-16.4h2.4V275l4.5-5.4h2.9l-4.1,4.6L37.4,281.3z"/>
	<path class="st0" d="M49.6,266h-4.9v15.3h-1.2V266h-4.9v-1.1h11L49.6,266L49.6,266z"/>
	<path class="st0" d="M63.9,276.8c0,1.4-0.4,2.5-1.3,3.3c-0.9,0.8-2,1.2-3.5,1.2h-6.2v-16.4h6c0.9,0,1.7,0.2,2.5,0.5
		c0.7,0.3,1.3,0.8,1.7,1.5s0.6,1.4,0.6,2.3s-0.2,1.6-0.7,2.3s-1.1,1.1-1.9,1.4c0.9,0.3,1.6,0.8,2.1,1.5
		C63.7,275,63.9,275.9,63.9,276.8z M62.4,269.2c0-0.7-0.2-1.3-0.5-1.8s-0.8-0.8-1.3-1.1c-0.5-0.2-1.2-0.3-1.9-0.3H54v6.4h4.7
		c1.1,0,1.9-0.3,2.6-0.8C62.1,271,62.4,270.2,62.4,269.2z M62.7,276.8c0-0.7-0.2-1.3-0.5-1.8s-0.7-0.9-1.3-1.2s-1.2-0.4-2-0.4h-4.8
		v6.7h4.8c0.8,0,1.4-0.1,2-0.4s1-0.7,1.3-1.2C62.5,278.1,62.7,277.5,62.7,276.8z"/>
	<path class="st0" d="M69.6,281.3h-1.2v-16.4h1.2V281.3z"/>
	<path class="st0" d="M84.6,281.3h-10v-16.4h1.2v15.3h8.7v1.1H84.6z"/>
	<path class="st0" d="M89.1,281.3h-1.2v-16.4h1.2V281.3z"/>
	<path class="st0" d="M103.8,276.9c0,0.7-0.1,1.3-0.4,1.9s-0.6,1-1.1,1.4s-1.1,0.7-1.8,0.9s-1.5,0.3-2.3,0.3s-1.5-0.1-2.1-0.2
		c-0.6-0.2-1.2-0.4-1.8-0.7s-1.1-0.7-1.6-1.2l0.9-0.9c0.5,0.5,1,0.9,1.4,1.2s0.9,0.5,1.5,0.6c0.5,0.1,1.1,0.2,1.8,0.2
		c0.9,0,1.6-0.1,2.2-0.4s1.1-0.7,1.5-1.2s0.5-1.1,0.5-1.8c0-1-0.3-1.8-0.9-2.3c-0.3-0.2-0.6-0.4-0.9-0.5s-0.8-0.2-1.4-0.3l-1.9-0.3
		c-1.2-0.2-2.2-0.6-2.9-1.2c-0.9-0.7-1.3-1.7-1.3-3c0-0.7,0.1-1.3,0.4-1.9c0.2-0.6,0.6-1,1-1.4s1-0.7,1.6-0.9s1.3-0.3,2.1-0.3
		c1,0,1.9,0.1,2.6,0.4s1.4,0.7,2.1,1.3l-0.8,0.8c-0.6-0.5-1.2-0.9-1.7-1.1c-0.6-0.2-1.3-0.4-2.2-0.4c-1.2,0-2.1,0.3-2.8,0.9
		c-0.7,0.6-1,1.4-1,2.5c0,1,0.3,1.7,0.8,2.1c0.3,0.2,0.7,0.5,1.1,0.6c0.4,0.2,0.9,0.3,1.3,0.4l1.8,0.3c0.8,0.1,1.4,0.2,1.8,0.4
		c0.4,0.2,0.8,0.4,1.1,0.7c0.5,0.4,0.8,0.8,1.1,1.4S103.8,276.2,103.8,276.9z"/>
	<path class="st0" d="M108.9,281.3h-1.2v-16.4h1.2V281.3z"/>
</g>
<g>
	<path class="st1" d="M-4.6,294.6h-1.6l-0.4,2.4h1.5v0.7h-1.6l-0.6,3.8h-0.8l0.6-3.8h-2.8l-0.6,3.8h-0.8l0.6-3.8h-1.5v-0.6h1.6
		l0.4-2.4h-1.6V294h1.7l0.6-3.7h0.8l-0.6,3.7h2.8l0.6-3.7h0.8l-0.6,3.7h1.5L-4.6,294.6L-4.6,294.6z M-7,294.6h-2.8l-0.4,2.4h2.8
		L-7,294.6z"/>
	<path class="st1" d="M3.7,301.6H2.9v-4.8c0-0.7-0.2-1.3-0.5-1.7c-0.4-0.4-0.9-0.6-1.6-0.6c-0.5,0-0.9,0.1-1.2,0.3s-0.6,0.4-0.7,0.8
		s-0.3,0.8-0.3,1.2v4.8h-0.8v-11.4h0.8v4.6c0.6-0.7,1.3-1,2.3-1c0.6,0,1.1,0.1,1.5,0.3s0.8,0.6,1,1s0.3,0.9,0.3,1.5V301.6z"/>
	<path class="st1" d="M12.1,301.6h-0.8v-0.8c-0.3,0.3-0.7,0.5-1,0.7c-0.3,0.1-0.8,0.2-1.3,0.2c-0.4,0-0.7,0-1-0.1
		c-0.3,0-0.5-0.1-0.7-0.2s-0.4-0.2-0.6-0.4c-0.4-0.4-0.6-0.9-0.6-1.5c0-0.7,0.2-1.3,0.7-1.6c0.5-0.4,1.1-0.6,2-0.6h2.5v-0.9
		c0-0.6-0.2-1.1-0.5-1.4s-0.9-0.5-1.7-0.5c-0.5,0-1,0.1-1.3,0.2s-0.6,0.4-0.8,0.8L6.4,295c0.2-0.3,0.5-0.5,0.7-0.7
		c0.3-0.2,0.5-0.3,0.9-0.4c0.3-0.1,0.7-0.1,1.1-0.1c2,0,3,0.8,3,2.5V301.6L12.1,301.6z M11.2,299v-1H8.8c-1.3,0-2,0.5-2,1.6
		c0,0.5,0.2,0.9,0.5,1.1s0.8,0.4,1.5,0.4c0.4,0,0.8,0,1.1-0.1s0.6-0.2,0.8-0.5C11.1,300.2,11.2,299.7,11.2,299z"/>
	<path class="st1" d="M20.6,300.6c-0.4,0.5-0.8,0.8-1.2,0.9s-0.8,0.2-1.4,0.2c-0.5,0-1-0.1-1.4-0.3s-0.8-0.4-1.1-0.8
		c-0.3-0.3-0.5-0.8-0.7-1.3s-0.2-1-0.2-1.6c0-0.8,0.1-1.5,0.4-2.1s0.7-1,1.2-1.4c0.5-0.4,1.1-0.5,1.8-0.5c0.6,0,1,0.1,1.4,0.3
		s0.8,0.5,1.2,0.9l-0.6,0.5c-0.2-0.2-0.4-0.4-0.6-0.6s-0.4-0.2-0.6-0.3s-0.5-0.1-0.7-0.1c-0.9,0-1.6,0.3-2,1
		c-0.2,0.3-0.3,0.6-0.4,0.9c-0.1,0.3-0.1,0.8-0.1,1.3s0,0.9,0.1,1.3s0.2,0.7,0.4,0.9c0.5,0.7,1.2,1,2,1c0.4,0,0.8-0.1,1.1-0.2
		s0.6-0.4,0.9-0.8L20.6,300.6z"/>
	<path class="st1" d="M29.2,301.6h-1l-2.7-4.2l-1.8,2v2.2h-0.8v-11.4h0.8v8l3.8-4.4h1l-2.5,2.9L29.2,301.6z"/>
	<path class="st1" d="M36.8,301.6H36v-0.8c-0.3,0.3-0.7,0.5-1,0.7c-0.3,0.1-0.8,0.2-1.3,0.2c-0.4,0-0.7,0-1-0.1
		c-0.3,0-0.5-0.1-0.7-0.2s-0.4-0.2-0.6-0.4c-0.4-0.4-0.6-0.9-0.6-1.5c0-0.7,0.2-1.3,0.7-1.6c0.5-0.4,1.1-0.6,2-0.6H36v-0.9
		c0-0.6-0.2-1.1-0.5-1.4s-0.9-0.5-1.7-0.5c-0.5,0-1,0.1-1.3,0.2s-0.6,0.4-0.8,0.8l-0.6-0.5c0.2-0.3,0.5-0.5,0.7-0.7
		c0.3-0.2,0.5-0.3,0.9-0.4c0.3-0.1,0.7-0.1,1.1-0.1c2,0,3,0.8,3,2.5V301.6L36.8,301.6z M36,299v-1h-2.4c-1.3,0-2,0.5-2,1.6
		c0,0.5,0.2,0.9,0.5,1.1s0.8,0.4,1.5,0.4c0.4,0,0.8,0,1.1-0.1s0.6-0.2,0.8-0.5C35.8,300.2,36,299.7,36,299z"/>
	<path class="st1" d="M42.6,301.6h-0.7c-0.4,0-0.7-0.1-1-0.3s-0.5-0.4-0.6-0.7s-0.2-0.7-0.2-1v-5.1H39v-0.6h1.1v-2.5h0.8v2.5h1.7
		v0.6h-1.7v5.1c0,0.9,0.4,1.3,1.2,1.3h0.6L42.6,301.6L42.6,301.6z"/>
	<path class="st1" d="M50.9,301.6h-0.8v-4.8c0-0.7-0.2-1.3-0.5-1.7c-0.4-0.4-0.9-0.6-1.6-0.6c-0.5,0-0.9,0.1-1.2,0.3
		s-0.6,0.4-0.7,0.8s-0.3,0.8-0.3,1.2v4.8H45v-11.4h0.8v4.6c0.6-0.7,1.3-1,2.3-1c0.6,0,1.1,0.1,1.5,0.3s0.8,0.6,1,1s0.3,0.9,0.3,1.5
		C50.9,296.6,50.9,301.6,50.9,301.6z"/>
	<path class="st1" d="M59.7,297.8c0,0.4,0,0.8-0.1,1.2s-0.1,0.7-0.3,1.1c-0.1,0.3-0.3,0.6-0.6,0.9c-0.6,0.6-1.3,0.8-2.1,0.8
		c-0.9,0-1.6-0.3-2.1-0.8c-0.3-0.3-0.5-0.5-0.6-0.9c-0.1-0.3-0.2-0.7-0.3-1c-0.1-0.4-0.1-0.8-0.1-1.2c0-0.6,0.1-1.2,0.2-1.8
		c0.1-0.5,0.4-1,0.8-1.3c0.6-0.6,1.3-0.8,2.1-0.8c0.9,0,1.6,0.3,2.1,0.8c0.3,0.3,0.5,0.5,0.6,0.9c0.1,0.3,0.2,0.7,0.3,1.1
		C59.7,297,59.7,297.4,59.7,297.8z M58.9,297.8c0-0.6,0-1.1-0.1-1.5s-0.3-0.8-0.6-1.1c-0.4-0.4-1-0.7-1.6-0.7s-1.2,0.2-1.6,0.7
		c-0.3,0.3-0.5,0.6-0.6,1.1c-0.1,0.4-0.1,0.9-0.1,1.5s0,1.1,0.1,1.5s0.3,0.8,0.6,1.1c0.4,0.4,1,0.7,1.6,0.7s1.2-0.2,1.6-0.7
		c0.3-0.3,0.5-0.6,0.6-1.1C58.9,298.9,58.9,298.4,58.9,297.8z"/>
	<path class="st1" d="M68.3,301.6h-0.8v-4.8c0-0.7-0.2-1.3-0.5-1.7c-0.4-0.4-0.9-0.6-1.6-0.6c-0.5,0-0.9,0.1-1.2,0.3
		s-0.6,0.4-0.7,0.8s-0.3,0.8-0.3,1.2v4.8h-0.8v-7.7h0.8v0.9c0.6-0.7,1.3-1,2.3-1c0.9,0,1.5,0.2,2,0.7s0.8,1.2,0.8,2.1
		C68.3,296.6,68.3,301.6,68.3,301.6z"/>
	<path class="st1" d="M77.9,291h-3.4v10.6h-0.9V291h-3.4v-0.8h7.7L77.9,291L77.9,291z"/>
	<path class="st1" d="M85.9,301.6h-0.8v-4.8c0-0.7-0.2-1.3-0.5-1.7c-0.4-0.4-0.9-0.6-1.6-0.6c-0.5,0-0.9,0.1-1.2,0.3
		s-0.6,0.4-0.7,0.8s-0.3,0.8-0.3,1.2v4.8H80v-11.4h0.8v4.6c0.6-0.7,1.3-1,2.3-1c0.6,0,1.1,0.1,1.5,0.3s0.8,0.6,1,1s0.3,0.9,0.3,1.5
		C85.9,296.6,85.9,301.6,85.9,301.6z"/>
	<path class="st1" d="M94.2,301.6h-0.8v-0.8c-0.3,0.3-0.7,0.5-1,0.7c-0.3,0.1-0.8,0.2-1.3,0.2c-0.4,0-0.7,0-1-0.1
		c-0.3,0-0.5-0.1-0.7-0.2s-0.4-0.2-0.6-0.4c-0.4-0.4-0.6-0.9-0.6-1.5c0-0.7,0.2-1.3,0.7-1.6c0.5-0.4,1.1-0.6,2-0.6h2.5v-0.9
		c0-0.6-0.2-1.1-0.5-1.4s-0.9-0.5-1.7-0.5c-0.5,0-1,0.1-1.3,0.2s-0.6,0.4-0.8,0.8l-0.6-0.5c0.2-0.3,0.5-0.5,0.7-0.7
		c0.3-0.2,0.5-0.3,0.9-0.4c0.3-0.1,0.7-0.1,1.1-0.1c2,0,3,0.8,3,2.5L94.2,301.6L94.2,301.6z M93.4,299v-1H91c-1.3,0-2,0.5-2,1.6
		c0,0.5,0.2,0.9,0.5,1.1s0.8,0.4,1.5,0.4c0.4,0,0.8,0,1.1-0.1s0.6-0.2,0.8-0.5C93.3,300.2,93.4,299.7,93.4,299z"/>
	<path class="st1" d="M100,301.6h-0.7c-0.4,0-0.7-0.1-1-0.3s-0.5-0.4-0.6-0.7s-0.2-0.7-0.2-1v-5.1h-1.1v-0.6h1.1v-2.5h0.8v2.5h1.7
		v0.6h-1.7v5.1c0,0.9,0.4,1.3,1.2,1.3h0.6v0.7H100z"/>
	<path class="st1" d="M109.6,301.6h-6.9v-11.4h0.9v10.6h6V301.6z"/>
	<path class="st1" d="M117.4,297.8c0,0.4,0,0.8-0.1,1.2s-0.1,0.7-0.3,1.1c-0.1,0.3-0.3,0.6-0.6,0.9c-0.6,0.6-1.3,0.8-2.1,0.8
		c-0.9,0-1.6-0.3-2.1-0.8c-0.3-0.3-0.5-0.5-0.6-0.9c-0.1-0.3-0.2-0.7-0.3-1c-0.1-0.4-0.1-0.8-0.1-1.2c0-0.6,0.1-1.2,0.2-1.8
		c0.1-0.5,0.4-1,0.8-1.3c0.6-0.6,1.3-0.8,2.1-0.8c0.9,0,1.6,0.3,2.1,0.8c0.3,0.3,0.5,0.5,0.6,0.9c0.1,0.3,0.2,0.7,0.3,1.1
		C117.3,297,117.4,297.4,117.4,297.8z M116.6,297.8c0-0.6,0-1.1-0.1-1.5s-0.3-0.8-0.6-1.1c-0.4-0.4-1-0.7-1.6-0.7s-1.2,0.2-1.6,0.7
		c-0.3,0.3-0.5,0.6-0.6,1.1c-0.1,0.4-0.1,0.9-0.1,1.5s0,1.1,0.1,1.5s0.3,0.8,0.6,1.1c0.4,0.4,1,0.7,1.6,0.7s1.2-0.2,1.6-0.7
		c0.3-0.3,0.5-0.6,0.6-1.1C116.5,298.9,116.6,298.4,116.6,297.8z"/>
	<path class="st1" d="M125.1,293.9l-2.8,7.7h-0.8l-2.8-7.7h0.9l2.3,6.8l2.3-6.8H125.1z"/>
	<path class="st1" d="M132.6,298h-5.4c0,1,0.2,1.7,0.6,2.3c0.4,0.6,1.1,0.8,1.9,0.8c0.4,0,0.8-0.1,1.1-0.2s0.6-0.4,1-0.7l0.6,0.5
		c-0.4,0.4-0.8,0.7-1.2,0.9s-0.9,0.3-1.5,0.3c-0.7,0-1.3-0.1-1.8-0.4s-0.9-0.7-1.1-1.3s-0.4-1.3-0.4-2.2c0-0.6,0.1-1.2,0.2-1.7
		s0.3-0.9,0.6-1.2s0.6-0.6,1-0.8s0.8-0.3,1.3-0.3s0.9,0.1,1.3,0.2c0.4,0.2,0.7,0.4,1,0.7s0.5,0.7,0.6,1.2s0.2,1,0.2,1.6L132.6,298
		L132.6,298z M131.8,297.3c0-0.4,0-0.7-0.1-0.8s-0.1-0.4-0.2-0.6c-0.2-0.4-0.4-0.7-0.8-0.9c-0.4-0.2-0.8-0.4-1.2-0.4
		s-0.8,0.1-1.2,0.3s-0.6,0.5-0.8,0.9c-0.1,0.2-0.2,0.5-0.2,0.7s-0.1,0.5-0.1,0.8H131.8z"/>
	<path class="st1" d="M140.7,299.4c0,0.5-0.1,0.9-0.4,1.2s-0.6,0.6-1.1,0.8s-1,0.3-1.6,0.3c-1.3,0-2.4-0.4-3.1-1.1l0.6-0.6
		c0.6,0.6,1.4,0.9,2.5,0.9c0.8,0,1.3-0.1,1.7-0.4s0.6-0.7,0.6-1.2c0-0.4-0.1-0.7-0.4-0.9c-0.2-0.2-0.6-0.3-1.1-0.4l-1.3-0.1
		c-1.6-0.1-2.3-0.8-2.3-2c0-0.4,0.1-0.8,0.3-1.2s0.5-0.6,1-0.8c0.4-0.2,0.9-0.3,1.5-0.3c0.5,0,1,0.1,1.5,0.2s0.9,0.3,1.2,0.6
		l-0.5,0.5c-0.6-0.4-1.3-0.7-2.2-0.7c-0.6,0-1.1,0.1-1.5,0.4c-0.3,0.3-0.5,0.6-0.5,1.1c0,0.4,0.1,0.7,0.4,0.9
		c0.3,0.2,0.6,0.3,1.2,0.4l1.2,0.1c0.7,0.1,1.3,0.2,1.7,0.5C140.5,298.3,140.7,298.7,140.7,299.4z"/>
	<path class="st1" d="M149.4,290.2l-3.4,6.7v4.7h-0.9v-4.7l-3.4-6.7h0.9l2.9,5.8l2.8-5.8H149.4z"/>
	<path class="st1" d="M156.9,297.8c0,0.4,0,0.8-0.1,1.2s-0.1,0.7-0.3,1.1c-0.1,0.3-0.3,0.6-0.6,0.9c-0.6,0.6-1.3,0.8-2.1,0.8
		c-0.9,0-1.6-0.3-2.1-0.8c-0.3-0.3-0.5-0.5-0.6-0.9c-0.1-0.3-0.2-0.7-0.3-1c-0.1-0.4-0.1-0.8-0.1-1.2c0-0.6,0.1-1.2,0.2-1.8
		c0.1-0.5,0.4-1,0.8-1.3c0.6-0.6,1.3-0.8,2.1-0.8c0.9,0,1.6,0.3,2.1,0.8c0.3,0.3,0.5,0.5,0.6,0.9c0.1,0.3,0.2,0.7,0.3,1.1
		C156.8,297,156.9,297.4,156.9,297.8z M156,297.8c0-0.6,0-1.1-0.1-1.5s-0.3-0.8-0.6-1.1c-0.4-0.4-1-0.7-1.6-0.7s-1.2,0.2-1.6,0.7
		c-0.3,0.3-0.5,0.6-0.6,1.1c-0.1,0.4-0.1,0.9-0.1,1.5s0,1.1,0.1,1.5s0.3,0.8,0.6,1.1c0.4,0.4,1,0.7,1.6,0.7s1.2-0.2,1.6-0.7
		c0.3-0.3,0.5-0.6,0.6-1.1C156,298.9,156,298.4,156,297.8z"/>
	<path class="st1" d="M165.3,301.6h-0.8v-0.9c-0.6,0.7-1.3,1-2.3,1c-0.9,0-1.5-0.2-2-0.7s-0.8-1.2-0.8-2.1V294h0.8v4.8
		c0,0.7,0.2,1.3,0.5,1.7c0.4,0.4,0.9,0.6,1.6,0.6c0.5,0,0.9-0.1,1.2-0.3s0.6-0.4,0.7-0.8s0.3-0.8,0.3-1.2V294h0.8V301.6z"/>
</g>
</svg>
