<?xml version="1.0" encoding="utf-8"?>
<!-- Generator: Adobe Illustrator 19.0.0, SVG Export Plug-In . SVG Version: 6.00 Build 0)  -->
<svg version="1.1" id="Layer_1" xmlns="http://www.w3.org/2000/svg" xmlns:xlink="http://www.w3.org/1999/xlink" x="0px" y="0px"
	 viewBox="0 0 250.8 274" style="enable-background:new 0 0 250.8 274;" xml:space="preserve">
<style type="text/css">
	.st0{fill:#294052;}
</style>
<g id="bpCJn9_1_">
	<g id="XMLID_1_">
		<path id="XMLID_78_" class="st0" d="M0,207.2c0.1-0.6,0.3-1.2,0.4-1.7c0.9-4.7,3.6-8.2,7.5-10.9c5.1-3.4,10.2-6.8,15.3-10.1
			c1.2-0.8,1.7-1.6,1.7-3c0.1-14.1,0.3-28.2,0.5-42.3c0-0.7,0.1-1.3,0.1-2.3c1.2,0,2.3,0,3.4,0c8.4-0.1,16.8-0.1,25.2-0.4
			c6.8-0.2,13.6-0.9,20.4-2.2c3.5-0.7,6.5-2.4,9.2-4.7c2.9-2.5,5.3-5.4,7.2-8.7c-0.2,0.2-0.5,0.4-0.7,0.7c-1.4,1.3-2.8,2.5-4.2,3.7
			c-5.2,4.4-11.2,6.6-18.1,7.1c-12.2,1-24.4,1.1-36.7,0.6c-6.7-0.3-13.1-1.8-19.2-4.5c-5.8-2.6-8.6-7.2-9.1-13.4
			c-0.6-7.2,1-14.1,2.9-20.9C9.5,80,14,66,19.9,52.6c3.5-7.9,8-15,14.1-21.1c3.9-3.8,8.2-7,13.7-7.9c3.1-0.5,6.4-0.4,9.5-0.4
			c1.2,0,1.8-0.3,2.2-1.5c2.5-6.9,5.1-13.7,7.6-20.5c0.1-0.3,0.3-0.7,0.5-1.2c5.1,6.2,10,12.3,15.1,18.5C87.8,13,92.8,7.5,97.9,2
			c4.1,5.9,8.1,11.7,12.2,17.7c6.1-4,12.2-8,18.3-12.1c0.6,2.7,1.2,5.3,1.8,7.9c0.9,4,1.9,8,2.7,12c0.2,1,0.7,1.4,1.7,1.5
			c7.1,0.5,14.3,1.1,21.4,1.7c0.4,0,0.7,0.1,1.2,0.2c-3.6,7.6-7.2,15.1-10.8,22.7c6.3,4.4,12.5,8.8,18.8,13.3
			c-5.2,7-10.4,13.8-15.6,20.8c5.1,4.9,10.2,9.7,15.4,14.6c-1.5,1.7-2.9,3.4-4.4,5c-3.1,3.6-6.2,7.2-9.4,10.7
			c-0.8,0.9-0.8,1.6,0,2.6c3.7,4.4,7.4,8.9,11.1,13.4c0.4,0.5,0.7,0.9,1.2,1.5c-4.3,4.8-8.7,9.5-13.1,14.4
			c3.6,3.4,7.2,6.7,10.9,10.2c-4,5.3-8,10.6-12.1,15.9c1.9,1.5,3.8,3,5.7,4.5c0.4,0.4,0.9,0.7,1.3,1c1,0.7,1.2,1.5,0.6,2.7
			c-1.1,2-2.1,4-3.3,6.3c1.2-0.1,2.2-0.2,3.2-0.3c2.5-0.2,4.9-0.5,7.4-0.7c0.5,0,1.1,0.1,1.5,0.4c2.3,1.7,4.7,3.4,6.9,5.1
			c1,0.7,2,0.9,3.1,0.6c3.3-1,6.7-2,10-2.9c0.5-0.1,1.3-0.1,1.8,0.1c5,2.4,10,4.8,15,7.2c1.2,0.6,2.4,0.8,3.7,0.4
			c3.9-1.1,7.8-2.2,11.8-3.2c0.5-0.1,1.2-0.1,1.6,0.2c2.8,1.8,5.6,3.6,8.3,5.4c0.9,0.6,1.7,0.7,2.7,0.4c2.6-0.7,5.2-1.4,7.8-2.1
			c0.4-0.1,1.1,0,1.3,0.3c3.6,4.2,7.2,8.4,10.8,12.7c0.1,0.1,0.1,0.2,0.2,0.4c-2-0.2-3.9-0.4-5.9-0.5c-10.9-0.8-21.8-2-32.6-2.3
			c-20.4-0.7-40.8-1.1-61.2-1.2c-14.8-0.1-29.6,0.3-44.4,0.8c-10,0.3-20,1-29.9,1.6c-3.2,0.2-6.1,1.3-8.8,2.8
			c-6.9,3.8-14,6.7-21.7,8.5c-3.3,0.8-6.7,1.3-10.1,1.1c-4.9-0.3-7.5-2.9-7.6-7.8c0-0.4,0-0.8,0-1.4c-2,0.2-3.9,0.5-5.7,0.5
			c-5.2,0.1-10.5,0.3-15.7,0.1c-3.6-0.1-6.2-2.8-6.9-6.4c-0.1-0.4-0.2-0.8-0.3-1.1C0,208.7,0,207.9,0,207.2z M67.5,67.1
			c0.1-3-1.1-5-2.8-5.5c-1.8-0.6-4,0.3-5.4,2.4c-1.4,2-1.9,4.2-1.5,6.6c0.6,3.5,3.9,4.8,6.6,2.6C66.5,71.5,67.4,69.3,67.5,67.1z
			 M56.3,66.2c0-3-1-4.9-2.9-5.5c-1.7-0.6-3.8,0.3-5.2,2.3c-1.5,2-2.1,4.2-1.6,6.7c0.3,1.6,1,2.9,2.6,3.5c1.6,0.6,3,0.1,4.2-1
			C55.3,70.5,56.2,68.3,56.3,66.2z"/>
		<path id="XMLID_77_" class="st0" d="M76.5,252.7c0,6.9,0,13.8,0,20.6c-2.2,0-4.3,0-6.6,0c0-1.3,0-2.5,0-3.9
			c-0.3,0.1-0.5,0.2-0.6,0.3c-6.3,5.7-15.8,4.9-21.8-0.1c-6.3-5.3-8.6-12.2-7.3-20.2c1.3-7.5,5.7-13,13-15.4
			c6.8-2.3,13.4-1.4,18.9,3.6c1.3,1.1,2.2,2.7,3.3,4.1c-2.2,1.6-4.2,3.1-6.2,4.5c-0.2-0.3-0.4-0.6-0.6-0.8
			c-4.6-7.3-14.6-7.1-18.8,0.4c-2.6,4.7-2.7,9.6-0.2,14.4c3.5,6.7,11.5,8.2,17.5,3.4c0.4-0.3,0.8-0.8,1.3-1.1c1.3-1,1.6-2.2,1.2-3.9
			c-0.8,0-1.8,0-2.7,0c-1.4,0-2.9,0-4.3,0c-0.3,0-0.8-0.3-0.8-0.5c-0.1-1.8,0-3.6,0-5.4C66.8,252.7,71.6,252.7,76.5,252.7z"/>
		<path id="XMLID_76_" class="st0" d="M92.4,249.3c0.5,0,0.9,0.1,1.3,0.1c5,0,10.1,0,15.1,0c1,0,1.3-0.3,1.3-1.3c0-4.4,0-8.8,0-13.2
			c0-1.6,0-1.6,1.7-1.6c2.1,0,4.1,0,6.3,0c0,13.4,0,26.7,0,40c-2.6,0-5.2,0-7.9,0c0-5.6,0-11.2,0-16.8c-0.5,0-0.9-0.1-1.2-0.1
			c-5.1,0-10.2,0-15.2,0c-1,0-1.3,0.3-1.3,1.3c0,4.8,0,9.5,0,14.3c0,0.4,0,0.9,0,1.4c-2.7,0-5.3,0-8.1,0c0-0.5,0-0.9,0-1.3
			c0-12.4,0-24.9,0-37.3c0-1.1,0.3-1.5,1.4-1.4c1.8,0.1,3.6,0.1,5.4,0c1,0,1.4,0.2,1.4,1.3c-0.1,4.4,0,8.9,0,13.3
			C92.4,248.3,92.4,248.8,92.4,249.3z"/>
		<path id="XMLID_73_" class="st0" d="M38.1,273.4c-2.6,0-5.2,0-7.8,0c-0.2,0-0.6-0.4-0.7-0.8c-1-2.7-2.1-5.4-3.1-8.2
			c-0.2-0.7-0.6-0.9-1.3-0.9c-3.9,0-7.8,0-11.8,0c-0.7,0-1,0.3-1.3,0.9c-1,2.7-2,5.4-2.9,8.1c-0.2,0.7-0.6,0.9-1.3,0.9
			c-2.4,0-4.8,0-7.3,0c0.2-0.6,0.3-1,0.5-1.5c4.8-12.5,9.5-25,14.3-37.5c0.3-0.9,0.8-1.2,1.7-1.2c1.7,0.1,3.4,0,5,0.1
			c0.4,0,0.9,0.3,1.1,0.7c5,13,9.9,25.9,14.8,38.9C38.1,273,38.1,273.1,38.1,273.4z M19.6,243.3c-0.1,0-0.2,0-0.3,0
			c-1.7,4.7-3.5,9.5-5.2,14.3c3.6,0,7,0,10.6,0C22.9,252.7,21.2,248,19.6,243.3z"/>
		<path id="XMLID_72_" class="st0" d="M201.5,256.3c0.5-0.5,0.9-1,1.3-1.5c3-3.3,6-6.7,8.9-10.1c0.7-0.8,1.4-1.1,2.4-1
			c1.8,0.1,3.7,0,5.5,0c0.4,0,0.8,0,1.4,0.1c-0.4,0.5-0.7,0.9-0.9,1.2c-3.1,3.5-6.2,7-9.3,10.5c-0.6,0.7-0.6,1.1-0.1,1.8
			c3.5,4.9,6.9,9.9,10.3,14.9c0.2,0.3,0.4,0.6,0.7,1.2c-2.9,0-5.5,0-8.1,0c-0.3,0-0.6-0.4-0.8-0.8c-2.4-3.5-4.8-7.1-7.2-10.6
			c-0.2-0.3-0.5-0.6-0.8-1.1c-1.2,1.2-2.4,2.3-3.5,3.5c-0.2,0.2-0.2,0.7-0.3,1.1c0,2.3,0,4.6,0,6.8c0,0.8-0.2,1.1-1.1,1.1
			c-2.2-0.1-4.5,0-6.8,0c0-0.6,0-1,0-1.4c0-12.8,0-25.6,0-38.4c0-1.1,0.3-1.5,1.5-1.5c1.7,0.1,3.4,0.1,5,0c1.1-0.1,1.5,0.3,1.5,1.5
			c-0.1,7.1,0,14.2,0,21.4c0,0.4,0,0.8,0,1.3C201.3,256.2,201.4,256.3,201.5,256.3z"/>
		<path id="XMLID_69_" class="st0" d="M153.8,266.7c0,2.1,0,4,0,6c0,0.3-0.4,0.8-0.7,0.8c-1.1,0.2-2.2,0.4-3.3,0.3
			c-2.7-0.2-3.9-1.4-4.5-4.6c-0.4,0.4-0.8,0.8-1.1,1.1c-4,3.5-8.5,4.7-13.6,2.9c-3.7-1.3-5.8-4.1-6-8c-0.3-4.2,1.8-7,5.4-8.8
			c4.2-2,8.5-1.9,12.9-0.8c0.3,0.1,0.7,0.2,1,0.3c0,0,0.1,0,0.1,0c1-3.2-1.1-6.4-4.5-6.9c-3.5-0.5-6.6,0.5-9.5,2.3
			c-0.5,0.3-0.9,0.6-1.5,0.9c-0.8-1.7-1.6-3.3-2.5-5c2-1.4,4.2-2.4,6.5-3.1c3.2-0.9,6.5-1.1,9.7-0.5c6.1,1,9.7,5.3,9.8,11.6
			c0,3,0,6.1,0,9.1C152.1,265.5,152.2,266.6,153.8,266.7z M138.3,259.2c-1.3,0.4-2.8,0.7-4.2,1.3c-1.4,0.7-2.2,1.9-2.1,3.6
			c0.1,1.7,1,2.9,2.5,3.5c2.6,1.1,5,0.4,7.3-0.9c2.1-1.2,2.7-3.1,2.4-5.4c-0.1-0.4-0.5-1-0.8-1.1
			C141.8,259.9,140.2,259.6,138.3,259.2z"/>
		<path id="XMLID_68_" class="st0" d="M187.4,251c-2.4,0.7-4.7,1.5-7.1,2.2c-0.2,0.1-0.6-0.1-0.8-0.3c-2-2.6-4.6-3.5-7.6-2.6
			c-3.3,1-4.9,3.5-5.4,6.7c-0.5,3.5,0.3,6.7,3.4,9c3,2.3,7.4,1.5,9.6-1.5c0.2-0.3,0.7-0.6,1-0.5c2.3,0.6,4.6,1.4,6.8,2.1
			c-0.4,4-7,8-13.2,8c-8.3,0-14.9-5.6-15.7-13.5c-0.8-8.4,4-15.4,11.9-16.9C178.6,241.9,185.2,245.6,187.4,251z"/>
		<path id="XMLID_67_" class="st0" d="M223.8,269.3c0.9-1.5,1.8-3,2.6-4.4c0.1-0.2,0.3-0.3,0.4-0.4c1.5,0.8,2.9,1.7,4.4,2.4
			c2.2,1,4.4,1.6,6.9,1.3c0.8-0.1,1.6-0.4,2.4-0.7c1-0.4,1.3-1.3,1.3-2.4c0-1-0.5-1.7-1.4-2c-1.8-0.7-3.7-1.3-5.5-1.9
			c-1.6-0.5-3.2-0.9-4.8-1.6c-5.6-2.2-7-8.5-2.8-12.9c2.4-2.5,5.4-3.4,8.8-3.5c4-0.1,7.8,0.7,11.1,3.1c0.3,0.2,0.5,0.4,0.8,0.6
			c0.2,0.1,0.3,0.2,0.5,0.4c-1.1,1.7-2.2,3.2-3,4.5c-2.4-1-4.4-2.1-6.7-2.7c-1.4-0.4-3-0.1-4.5,0.1c-1.2,0.2-1.9,1.2-2,2.6
			c-0.1,1.3,0.7,2,1.8,2.4c2.1,0.7,4.3,1.3,6.4,2c1.6,0.5,3.1,1.1,4.6,1.7c6.2,2.6,4.9,10.5,1.6,13.2c-2.4,2-5.3,2.8-8.3,2.9
			c-4.9,0.2-9.4-0.9-13.5-3.8C224.5,269.9,224.2,269.7,223.8,269.3z"/>
	</g>
</g>
<g id="XMLID_134_">
</g>
<g id="XMLID_135_">
</g>
<g id="XMLID_136_">
</g>
<g id="XMLID_137_">
</g>
<g id="XMLID_138_">
</g>
<g id="XMLID_139_">
</g>
</svg>
