<?xml version="1.0" encoding="utf-8"?>
<!-- Generator: Adobe Illustrator 19.0.0, SVG Export Plug-In . SVG Version: 6.00 Build 0)  -->
<svg version="1.1" id="Layer_1" xmlns="http://www.w3.org/2000/svg" xmlns:xlink="http://www.w3.org/1999/xlink" x="0px" y="0px"
	 viewBox="0 0 197.6191406 197.6196289" style="enable-background:new 0 0 197.6191406 197.6196289;" xml:space="preserve">
<style type="text/css">
	.st0{fill:#FFFFFF;}
	.st1{fill:#BDCFC3;}
	.st2{fill:#144825;}
	.st3{fill:#87A694;}
	.st4{fill:#8DC63F;}
</style>
<g>
	<g>
		<g>
			<path class="st0" d="M50.3359299,131.5414886l0.625,11.4277039c0,0,28.6230927-17.5078049,47.6425934-1.5039062
				c0,0,16.8612976-15.2557983,48.2186966,0l0.4687958-11.1678925l-9.039093-16.9981003
				c0,0-19.5858994-11.3788986-39.455101,0.392601c-12.4335022-11.7714996-38.3260994-0.392601-38.3260994-0.392601
				L50.3359299,131.5414886z"/>
		</g>
		<g>
			<path class="st1" d="M50.3359299,131.9867859c0,0,33.2206879-15.5331955,48.2675934-1.1952972
				c12.0410004-14.1835938,48.6874924,0,48.6874924,0l-0.4687958,10.6737976c0,0-27.375-15.8026962-48.2186966,0
				c0,0-15.8495941-15.9588928-47.6425934,1.5039062L50.3359299,131.9867859z"/>
		</g>
		<g>
			<path class="st2" d="M94.2617188,110.2895889c0.2304993,0.8789062,2.9707031,2.0898056,5.0273056,3.107399
				c1.6679993-0.8612976,3.4023972-1.3944931,4.6523972-1.9667969c-0.2148972-1.4413986-0.1641006-4.2012024-0.0898972-5.5898972
				c0.0684052-1.380806-0.0800018-4.005806,1.8417969-6.2480011c1.9121017-2.2362976,5.6054993-7.3906021,6.8652954-12.4804993
				c1.2480011-5.0839996,1.2480011-10.5429459,1.2812042-13.0898209c0.0234985-2.5527344-0.357399-6.6484375,0.5547028-7.9453125
				c0.9004059-1.2871094,2.7851944-4.7734375,4.0254059-6.433567c1.2030945-1.6094017,3.2772903-5.7832031,3.101593-6.0059013
				c-0.1855927-0.2246017-4.1817017,2.5684013-5.6407013,4.6191978c-0.6621017,0.9492035-1.9883041,2.6972237-2.6601028,3.4003525
				c-0.6777878,0.7031212-1.8516006,0.9960899-2.7910004-0.8789101c-0.9356003-1.8730392-2.2519989-2.9296417-2.955101-3.5468407
				c-0.6991959-0.6114006-2.3984985-1.1192017-2.3984985-0.8106003c0,0,0.5254059,1.3964996,1.1641006,2.3067017
				c0.6483994,0.9081993,2.2617111,3.8944893,2.4375,4.7206573c0.1777039,0.8164101,0.347702,3.8320351,0.347702,5.5605507
				s0.0917969,6.9179688,0,8.1757812c-0.0859985,1.2578125,0,3.2851105-1.9589996,7.6230087
				c-3.271492,7.240303-5.5234909,9.4003983-6.392601,9.4141006c-0.9355011,0.017601-1.3281021-2.205101-2.5410004-5.8144989
				c-0.5606003-1.6737976-2.9375-7.0877991-3.9394989-8.4452744c-1.072197-1.4570236-3.1172028-2.0429535-3.4589996-2.0507736
				c-0.2050018-0.0097656,0.2734985,0.6542969,0.802803,1.5585938c0.5331955,0.9082565,1.197197,3.1152496,1.5508041,4.3945541
				c0.3710938,1.3358994,1.23629,5.9160004,1.3495941,7.9140015c0.1151962,1.9902954-0.0839996,11.3613968-0.1133041,12.5644989
				C94.2910233,105.5473938,94.0293198,109.4106903,94.2617188,110.2895889z"/>
		</g>
		<g>
			<path class="st2" d="M105.0761185,46.8090897"/>
		</g>
		<g>
			<path class="st2" d="M108.1074219,42.1352921c0.1387024,3.1092987,1.2558975,5.8788986,2.9452972,7.8280983
				c1.9277039-1.9277,3.1172104-4.9668007,2.9707031-8.3437996c-0.1483994-3.2402-1.4863052-6.0703011-3.4473038-7.8358994
				C108.9336243,35.9027901,107.9668198,38.8734932,108.1074219,42.1352921z"/>
		</g>
		<g>
			<path class="st2" d="M82.2773209,67.8286133c1.5098038,2.4980469,3.722702,4.2363281,6.0762024,5.0273514
				c0.8339996-2.5117264,0.5116959-5.5898514-1.125-8.3046951c-1.5742035-2.59375-4.0098038-4.2753792-6.5175934-4.7909775
				C80.2090225,62.2973633,80.6953201,65.2133789,82.2773209,67.8286133z"/>
		</g>
		<g>
			<path class="st2" d="M80.617218,78.9125977c2.6992035,0.818367,5.4296036,0.609375,7.6523056-0.3867188
				c-1.0098038-2.4140549-3.226593-4.4648438-6.1562042-5.3515549c-2.8164978-0.8554764-5.6679993-0.4550858-7.8222961,0.8652267
				C75.554718,76.236824,77.7773209,78.0571289,80.617218,78.9125977z"/>
		</g>
		<g>
			<path class="st2" d="M83.7539291,87.305191c2.8280945,0.0605011,5.4022903-0.8788986,7.2675934-2.4375
				c-1.6192017-2.0526962-4.302803-3.4237976-7.3731003-3.4942017c-2.9374924-0.0625-5.5762024,1.1016006-7.2968979,2.9473038
				C78.1718216,86.0941925,80.8027191,87.242691,83.7539291,87.305191z"/>
		</g>
		<g>
			<path class="st2" d="M99.4609299,73.7211914c-1.5059128,2.3906326-2.01371,5.0839767-1.6367111,7.4901962
				c2.5918045-0.339798,5.1543045-1.9374695,6.7812042-4.5351181c1.5645065-2.4921875,1.9199982-5.3535156,1.2187958-7.7753906
				C103.373024,69.5493164,101.0332184,71.2133789,99.4609299,73.7211914z"/>
		</g>
		<g>
			<path class="st2" d="M91.5097198,68.4829102c-0.5643997,2.7695312-0.1035004,5.46875,1.1016006,7.5918045
				c2.3066101-1.2343826,4.0723038-2.7773514,4.7577972-6.6347733c0.5098114-2.8925781-0.0820007-5.6835899-1.5956955-7.7050781
				C93.7050171,63.1997108,92.1035233,65.5844727,91.5097198,68.4829102z"/>
		</g>
		<g>
			<path class="st2" d="M116.2226181,47.4594917c-1.5975952,2.3886986-2.2225952,5.1133003-1.9375,7.5565987
				c2.6231003-0.2929001,5.2598114-1.857399,6.9981003-4.464798c1.669899-2.5,2.1406021-5.392601,1.527298-7.8614006
				C120.3203201,43.3012924,117.9023209,44.9438896,116.2226181,47.4594917z"/>
		</g>
		<g>
			<path class="st2" d="M105.2461243,47.1273918c-2.244194-1.9295998-4.9668045-2.8690987-7.5371017-2.8320007
				c-0.0918045,2.7754021,1.1405945,5.7011986,3.5780945,7.7988014c2.3379059,2.0136986,5.2597046,2.8144989,7.9082031,2.4375
				C108.9394226,51.8539925,107.5957184,49.1547928,105.2461243,47.1273918z"/>
		</g>
		<g>
			<path class="st2" d="M98.3945236,61.6040001c2.1229935,1.5195312,4.6210938,2.0918007,6.9335938,1.78125
				c-0.0761871-2.5371094-1.3456955-5.0742569-3.6542969-6.7265587c-2.2128906-1.580101-4.8887024-2.0038986-7.2519989-1.3788986
				C94.8086243,57.6859932,96.1660233,60.0063896,98.3945236,61.6040001z"/>
		</g>
		<g>
			<path class="st2" d="M122.5488205,57.2231903c-2.0625,1.6113014-3.3105011,3.8398018-3.6641006,6.1464424
				c2.45121,0.6484261,5.2422104,0.1464806,7.4804993-1.5957108c2.148407-1.6816292,3.3065948-4.1269302,3.3789062-6.5644302
				C127.3222198,54.8930931,124.7129288,55.5414925,122.5488205,57.2231903z"/>
		</g>
		<g>
			<path class="st3" d="M50.9609375,143.815918c-0.1347656,0-0.2705078-0.0322266-0.3935547-0.0966797
				c-0.2646484-0.1386719-0.4365234-0.40625-0.4521484-0.7041016l-0.625-11.4277344
				c-0.0087891-0.1591797,0.0273438-0.3173828,0.1054688-0.4570312l10.1347656-18.2421875
				c0.0898438-0.1621094,0.2294922-0.2900391,0.3994141-0.3642578c0.2685547-0.1181641,6.6611328-2.9023438,14.6982422-4.2773438
				c10.4648438-1.7919922,18.7675781-0.2675781,24.0800781,4.4003906
				c19.8828125-11.3691406,39.5703125-0.1943359,39.7695312-0.0800781c0.1367188,0.0791016,0.2480469,0.1953125,0.3222656,0.3349609
				l9.0390625,16.9980469c0.0703125,0.1328125,0.1044922,0.2822266,0.0986328,0.4326172l-0.46875,11.1679688
				c-0.0126953,0.2861328-0.1669922,0.5458984-0.4121094,0.6923828c-0.2470703,0.1455078-0.5478516,0.1591797-0.8056641,0.0341797
				c-30.4892578-14.8330078-47.1152344-0.2822266-47.2792969-0.1337891
				c-0.3134766,0.2851562-0.7890625,0.2929688-1.1142578,0.0205078c-18.3242188-15.4199219-46.3740234,1.40625-46.6552734,1.578125
				C51.2675781,143.7749023,51.1142578,143.815918,50.9609375,143.815918z M51.1953125,131.7397461l0.5371094,9.8212891
				c5.6601562-3.0712891,29.8818359-14.8154297,46.8789062-1.1855469
				c3.2158203-2.4326172,19.7832031-13.1552734,47.4179688-0.2265625l0.4052734-9.6572266l-8.8125-16.5722656
				c-2.1191406-1.1357422-20.2646484-10.2373047-38.3935547,0.5009766
				c-0.3232422,0.1943359-0.7392578,0.1484375-1.0136719-0.1132812
				c-11.2412109-10.6425781-34.4355469-1.4667969-37.1455078-0.3417969L51.1953125,131.7397461z"/>
		</g>
		<g>
			<path class="st3" d="M98.6035156,142.3120117c-0.4677734,0-0.8476562-0.3789062-0.8476562-0.8466797v-10.6738281
				c0-0.4677734,0.3798828-0.8466797,0.8476562-0.8466797s0.8476562,0.3789062,0.8476562,0.8466797v10.6738281
				C99.4511719,141.9331055,99.0712891,142.3120117,98.6035156,142.3120117z"/>
		</g>
	</g>
	<g>
		<path d="M30.5869141,139.8520508c-1.1455078,0.6699219-2.5771484,0.2363281-3.2167969-0.9003906
			c-0.640625-1.1376953-0.2568359-2.5664062,0.8808594-3.2060547c1.15625-0.6513672,2.5654297-0.2568359,3.2167969,0.9003906
			C32.1074219,137.7827148,31.7441406,139.2006836,30.5869141,139.8520508z"/>
		<path d="M22.3134766,122.1674805c-1.5566406,0.5390625-2.5576172,0.9941406-3.0029297,1.3652344
			c-0.5439453,0.4667969-0.9248047,1.0214844-1.1445312,1.6630859c-0.1767578,0.5195312-0.2568359,1.2285156-0.2392578,2.1298828
			c0.0039062,0.7734375-0.0371094,1.4091797-0.1240234,1.9082031s-0.2519531,0.9580078-0.4951172,1.375
			c-0.4570312,0.7626953-1.1523438,1.3056641-2.0869141,1.6289062l-0.5390625-1.5566406
			c0.3535156-0.1220703,0.6650391-0.3076172,0.9355469-0.5566406c0.2363281-0.2128906,0.4160156-0.53125,0.5410156-0.9550781
			c0.171875-0.5546875,0.2685547-1.2939453,0.2910156-2.2158203c0.0087891-0.8017578,0.0537109-1.4550781,0.1347656-1.9599609
			s0.2607422-1.0263672,0.5400391-1.5644531c0.1992188-0.3867188,0.5107422-0.7617188,0.9355469-1.1259766
			c0.2910156-0.2558594,0.8369141-0.5585938,1.6376953-0.9101562c0.8007812-0.3505859,1.5166016-0.6357422,2.1464844-0.8535156
			c0.9960938-0.3447266,1.8984375-0.5605469,2.7060547-0.6464844c0.9785156-0.1064453,1.8095703-0.0214844,2.4931641,0.2529297
			c1.1435547,0.4570312,1.9619141,1.4013672,2.4580078,2.8339844c0.4267578,1.2324219,0.3476562,2.3798828-0.2373047,3.4423828
			c-0.5712891,1.0585938-1.5478516,1.8427734-2.9296875,2.3515625l-0.5039062-1.453125
			c0.9433594-0.3652344,1.6005859-0.8759766,1.9697266-1.5302734c0.4267578-0.7832031,0.5068359-1.5595703,0.2412109-2.3271484
			c-0.3115234-0.9003906-0.859375-1.4970703-1.6435547-1.7919922c-0.5976562-0.203125-1.1767578-0.2548828-1.7392578-0.1533203
			C23.9951172,121.6391602,23.2138672,121.855957,22.3134766,122.1674805z"/>
		<path d="M13.6689453,112.9262695c-0.1513672-0.0546875-0.3212891-0.0644531-0.5078125-0.0302734
			c-0.3388672,0.0615234-0.6367188,0.2646484-0.8945312,0.609375c-0.3867188,0.5322266-0.5185547,1.1367188-0.3945312,1.8144531
			c0.1386719,0.7636719,0.4765625,1.3271484,1.0117188,1.6914062c0.5566406,0.3603516,1.1816406,0.4804688,1.875,0.3613281
			l0.2617188,1.4375c-0.6025391,0.0800781-1.1289062,0.0644531-1.5771484-0.046875
			c-0.4482422-0.1123047-0.8945312-0.3212891-1.3378906-0.6279297c-0.8525391-0.5957031-1.3847656-1.4746094-1.5966797-2.6347656
			c-0.2089844-1.1455078-0.0117188-2.1484375,0.5898438-3.0107422c0.4726562-0.6738281,1.0371094-1.0712891,1.6923828-1.1904297
			c0.1230469-0.0224609,0.2470703-0.0341797,0.3740234-0.0351562c0.5234375,0.0166016,0.9404297,0.1396484,1.2509766,0.3691406
			c0.3095703,0.2304688,0.6708984,0.5644531,1.0820312,1.0039062c0.4111328,0.4384766,0.7333984,0.7041016,0.9658203,0.7949219
			c0.0292969-0.5712891,0.1142578-1.0771484,0.2529297-1.5195312s0.3623047-0.8857422,0.6679688-1.328125
			c0.7958984-1.1503906,1.8701172-1.8486328,3.2255859-2.0957031c1.4189453-0.2587891,2.7158203-0.0078125,3.8896484,0.7539062
			c1.1835938,0.7744141,1.8984375,1.8388672,2.1455078,3.1933594c0.2509766,1.3759766-0.0273438,2.6259766-0.8359375,3.7480469
			c-0.8115234,1.1386719-1.9023438,1.8320312-3.2714844,2.0820312c-1.4052734,0.2558594-2.6884766-0.0048828-3.8505859-0.7832031
			c-0.9628906-0.6660156-1.6054688-1.4345703-1.9287109-2.3066406c-0.4228516-0.0791016-0.78125-0.2128906-1.0722656-0.4013672
			c-0.2910156-0.1894531-0.5498047-0.4121094-0.7753906-0.6689453c-0.2255859-0.2558594-0.4394531-0.5-0.6416016-0.7314453
			S13.8671875,112.9936523,13.6689453,112.9262695z M22.3369141,116.7954102
			c1.0302734-0.1884766,1.8398438-0.6855469,2.4296875-1.4931641c0.5742188-0.7744141,0.7695312-1.6591797,0.5888672-2.6533203
			c-0.1777344-0.9726562-0.6708984-1.7207031-1.4814453-2.2431641c-0.8339844-0.5322266-1.7734375-0.703125-2.8183594-0.5126953
			c-1.0664062,0.1943359-1.8916016,0.6875-2.4775391,1.4785156c-0.5537109,0.8007812-0.7373047,1.7128906-0.5507812,2.7363281
			c0.1669922,0.9150391,0.6621094,1.6318359,1.4863281,2.1523438
			C20.3291016,116.8110352,21.2705078,116.9897461,22.3369141,116.7954102z"/>
		<path d="M12.4775391,100.9428711c0.2197266,0.2128906,0.5205078,0.4609375,0.9013672,0.7421875
			c0.3818359,0.2822266,0.7958984,0.5341797,1.2421875,0.7558594s0.8369141,0.3496094,1.1728516,0.3847656
			c-0.5371094-0.9150391-0.7880859-1.8544922-0.7529297-2.8212891c0.0380859-1.0097656,0.2041016-1.8203125,0.4980469-2.4326172
			c0.4160156-0.9443359,0.9931641-1.59375,1.7324219-1.9472656c-0.7099609-0.4296875-1.2373047-1.1240234-1.5830078-2.0820312
			c-0.2734375-0.7060547-0.3935547-1.5136719-0.3603516-2.4208984c0.0605469-1.6318359,0.5996094-2.8066406,1.6152344-3.5244141
			c0.9570312-0.6826172,2.1591797-0.9970703,3.6083984-0.9423828c1.0761719,0.046875,1.9521484,0.2412109,2.6279297,0.5810547
			c0.6767578,0.3408203,1.171875,0.7509766,1.4882812,1.2324219c0.3154297,0.4804688,0.5527344,1.0390625,0.7119141,1.6748047
			l-1.5039062-0.0556641c-0.3486328-0.6650391-0.7089844-1.1298828-1.0800781-1.3925781
			c-0.3857422-0.2783203-1.1523438-0.4638672-2.2988281-0.5585938c-1.0761719-0.0400391-1.9384766,0.1777344-2.5859375,0.6513672
			c-0.6933594,0.4951172-1.0615234,1.3427734-1.1064453,2.5429688c-0.0273438,0.7246094,0.09375,1.3300781,0.3613281,1.8164062
			c0.2958984,0.5234375,0.6201172,0.9101562,0.9736328,1.1572266c0.3535156,0.2480469,0.7939453,0.4179688,1.3222656,0.5107422
			c0.5283203,0.09375,1.2529297,0.1572266,2.1748047,0.1914062l-0.0576172,1.5478516
			c-0.921875-0.0341797-1.6513672-0.0244141-2.1884766,0.0283203c-0.5371094,0.0537109-0.9912109,0.1923828-1.3623047,0.4169922
			s-0.7197266,0.5830078-1.0458984,1.0761719c-0.3037109,0.4658203-0.46875,1.0605469-0.4951172,1.7851562
			c-0.0449219,1.1933594,0.2597656,2.0654297,0.9140625,2.6171875c0.6035156,0.5214844,1.4472656,0.8017578,2.5302734,0.8417969
			c1.1142578-0.0166016,1.8925781-0.1455078,2.3339844-0.3857422c0.3662109-0.1982422,0.7597656-0.6347656,1.1806641-1.3076172
			l1.5039062,0.0556641c-0.2060547,0.6298828-0.4873047,1.1767578-0.8408203,1.6396484
			c-0.3544922,0.4628906-0.8779297,0.8359375-1.5703125,1.1181641c-0.6025391,0.2412109-1.4892578,0.3476562-2.6611328,0.3183594
			l-2.734375-0.0800781c-2.3115234-0.1298828-4.2460938-1.0117188-5.8056641-2.6455078
			c-0.6064453-0.6455078-1.0791016-1.3261719-1.4189453-2.0429688c-0.3125-0.65625-0.5263672-1.5039062-0.6416016-2.5410156
			c-0.0664062-0.5820312-0.0742188-1.5566406-0.0234375-2.9257812c0.0107422-0.2851562,0.0166016-0.5488281,0.0185547-0.7910156
			c0.0087891-0.2333984,0.0214844-0.578125,0.0380859-1.03125c0.0146484-0.3740234,0.0283203-0.6621094,0.0439453-0.8671875
			c0.0693359-1.0751953,0.2099609-2,0.421875-2.7773438c0.2119141-0.7753906,0.5654297-1.4150391,1.0605469-1.9169922
			s1.1875-0.7724609,2.0751953-0.8134766l-0.0595703,1.6142578c-0.6728516,0.3564453-1.1455078,0.7304688-1.4160156,1.1230469
			c-0.3955078,0.5644531-0.6337891,1.9443359-0.7148438,4.140625l-0.1074219,2.8759766
			c-0.0234375,0.6230469,0.0292969,1.2324219,0.1572266,1.8310547s0.3330078,1.1464844,0.6152344,1.6445312
			C11.6679688,100.0532227,12.0322266,100.5161133,12.4775391,100.9428711z"/>
		<path d="M22.0761719,76.2514648c-1.5976562-0.4042969-2.6835938-0.5742188-3.2597656-0.5087891
			c-0.7109375,0.0917969-1.3339844,0.3457031-1.8701172,0.7607422c-0.4326172,0.3369141-0.8896484,0.8857422-1.3701172,1.6474609
			c-0.4208984,0.6494141-0.8056641,1.1582031-1.1523438,1.5273438s-0.7363281,0.6611328-1.1689453,0.8769531
			c-0.8007812,0.3857422-1.6796875,0.4580078-2.6386719,0.2148438l0.4052734-1.5976562
			c0.3623047,0.0917969,0.7246094,0.1083984,1.0869141,0.0488281c0.3144531-0.0488281,0.640625-0.2148438,0.9775391-0.5
			c0.4482422-0.3701172,0.9355469-0.9335938,1.4599609-1.6923828c0.4482422-0.6650391,0.8447266-1.1855469,1.1894531-1.5634766
			c0.3457031-0.3769531,0.7822266-0.7138672,1.3105469-1.0107422c0.3789062-0.2128906,0.8457031-0.3554688,1.4003906-0.4267578
			c0.3837891-0.0537109,1.0068359-0.0068359,1.8691406,0.1396484c0.8623047,0.1474609,1.6162109,0.3027344,2.2617188,0.4658203
			c1.0224609,0.2597656,1.8945312,0.5751953,2.6162109,0.9472656c0.8759766,0.4482422,1.5244141,0.9755859,1.9453125,1.5810547
			c0.703125,1.0097656,0.8691406,2.2490234,0.4960938,3.71875c-0.3203125,1.2636719-1.0175781,2.1787109-2.0898438,2.7451172
			c-1.0595703,0.5703125-2.3056641,0.6894531-3.7402344,0.3554688l0.3779297-1.4912109
			c0.9892578,0.2128906,1.8183594,0.1474609,2.4873047-0.1962891c0.7861328-0.4199219,1.2792969-1.0244141,1.4794922-1.8125
			c0.234375-0.9228516,0.1044922-1.7226562-0.3886719-2.3994141c-0.3876953-0.4990234-0.84375-0.859375-1.3691406-1.0839844
			C23.7714844,76.7348633,22.9990234,76.4858398,22.0761719,76.2514648z"/>
		<path d="M19.1875,65.324707c0.1123047,0.2841797,0.2841797,0.6337891,0.515625,1.046875
			c0.2324219,0.4140625,0.5058594,0.8144531,0.8212891,1.2001953s0.6191406,0.6630859,0.9111328,0.8330078
			c-0.1142578-1.0546875,0.0439453-2.0146484,0.4746094-2.8808594c0.4492188-0.9052734,0.9345703-1.5761719,1.4541016-2.0126953
			c0.7675781-0.6894531,1.5615234-1.0439453,2.3798828-1.0625c-0.4697266-0.6826172-0.6650391-1.5322266-0.5859375-2.5478516
			c0.0410156-0.7568359,0.2636719-1.5419922,0.6679688-2.3554688c0.7265625-1.4628906,1.7011719-2.3115234,2.921875-2.546875
			c1.1523438-0.2285156,2.3779297-0.0205078,3.6767578,0.625c0.9609375,0.4853516,1.6796875,1.0224609,2.15625,1.6113281
			c0.4765625,0.5878906,0.7587891,1.1669922,0.8486328,1.734375c0.0898438,0.5683594,0.0771484,1.1748047-0.0400391,1.8203125
			l-1.3476562-0.6699219c-0.0439453-0.75-0.1816406-1.3203125-0.4111328-1.7138672
			c-0.2373047-0.4121094-0.859375-0.8964844-1.8662109-1.4541016c-0.9638672-0.4794922-1.8388672-0.6357422-2.625-0.4707031
			c-0.8349609,0.1660156-1.5195312,0.7871094-2.0537109,1.8623047c-0.3232422,0.6494141-0.4619141,1.2509766-0.4179688,1.8046875
			c0.0537109,0.5986328,0.1904297,1.0839844,0.4111328,1.4550781c0.2197266,0.3720703,0.5517578,0.7080078,0.9951172,1.0097656
			c0.4423828,0.3027344,1.0771484,0.6582031,1.9033203,1.0693359l-0.6894531,1.3867188
			c-0.8261719-0.4101562-1.4951172-0.7021484-2.0068359-0.8740234c-0.5107422-0.1728516-0.9824219-0.2324219-1.4130859-0.1816406
			c-0.4306641,0.0527344-0.8955078,0.2363281-1.3964844,0.5517578c-0.4677734,0.2988281-0.8623047,0.7734375-1.1855469,1.4228516
			c-0.53125,1.0693359-0.6123047,1.9892578-0.2431641,2.7617188c0.3349609,0.7226562,0.9892578,1.3261719,1.9589844,1.8085938
			c1.0234375,0.4423828,1.7851562,0.6455078,2.2861328,0.6083984c0.4160156-0.0302734,0.9541016-0.265625,1.6152344-0.7070312
			l1.3476562,0.6699219c-0.4472656,0.4892578-0.9277344,0.8720703-1.4414062,1.1484375s-1.1445312,0.4013672-1.890625,0.3730469
			c-0.6494141-0.0273438-1.5009766-0.2958984-2.5576172-0.8046875l-2.4589844-1.1972656
			c-2.0527344-1.0693359-3.4541016-2.6699219-4.2021484-4.7998047c-0.2871094-0.8378906-0.4384766-1.6533203-0.453125-2.4462891
			c-0.0146484-0.7265625,0.1386719-1.5869141,0.4599609-2.5800781c0.1787109-0.5576172,0.5732422-1.4492188,1.1826172-2.6757812
			c0.1279297-0.2558594,0.2412109-0.4941406,0.3427734-0.7138672c0.1044922-0.2089844,0.2568359-0.5175781,0.4589844-0.9248047
			c0.1669922-0.3339844,0.2988281-0.5917969,0.3964844-0.7714844c0.5058594-0.9511719,1.0146484-1.7373047,1.5273438-2.3574219
			s1.0976562-1.0576172,1.7558594-1.3115234c0.6582031-0.2529297,1.3994141-0.2158203,2.2255859,0.1132812l-0.71875,1.4462891
			c-0.7597656,0.046875-1.34375,0.1943359-1.7529297,0.4414062c-0.5917969,0.3515625-1.3769531,1.5117188-2.3544922,3.4785156
			l-1.28125,2.578125c-0.2773438,0.5576172-0.4804688,1.1347656-0.6103516,1.7333984
			C18.75,62.456543,18.7109375,63.0405273,18.7626953,63.6108398C18.8154297,64.1801758,18.9570312,64.7514648,19.1875,65.324707z"
			/>
		<path d="M31.3095703,40.3735352c0.6376953-0.2832031,1.3486328-0.3496094,2.1347656-0.2001953
			c0.3662109,0.0722656,0.8066406,0.2568359,1.3203125,0.5537109c0.2929688,0.1630859,0.5673828,0.3359375,0.8251953,0.5175781
			c0.2578125,0.1826172,0.5859375,0.4355469,0.9824219,0.7597656l4.0419922,3.3007812
			c0.7607422,0.6210938,1.2978516,1.1259766,1.6132812,1.515625c0.3476562,0.3974609,0.5947266,0.8125,0.7431641,1.2451172
			c0.2539062,0.765625,0.3164062,1.4648438,0.1875,2.0966797c-0.1542969,0.734375-0.4824219,1.4072266-0.9824219,2.0205078
			c-0.7597656,0.9296875-1.6699219,1.4257812-2.7314453,1.4853516c-1.0576172,0.0917969-2.0800781-0.265625-3.0673828-1.0722656
			l1.0009766-1.2255859c0.640625,0.4667969,1.2939453,0.6738281,1.9599609,0.6220703
			c0.6767578-0.0527344,1.2324219-0.3457031,1.6679688-0.8789062c0.6162109-0.7539062,0.8095703-1.4892578,0.5810547-2.2060547
			c-0.2216797-0.7001953-1.046875-1.6347656-2.4765625-2.8027344l-3.0292969-2.4736328
			c-1.4296875-1.1669922-2.5097656-1.7890625-3.2412109-1.8671875c-0.7636719-0.0839844-1.3652344,0.1435547-1.8056641,0.6826172
			c-0.1894531,0.2324219-0.3408203,0.515625-0.453125,0.8496094c-0.1005859,0.2861328-0.1230469,0.6083984-0.0654297,0.9667969
			c0.0527344,0.3183594,0.1591797,0.6015625,0.3193359,0.8505859c0.1611328,0.2490234,0.4003906,0.5371094,0.7197266,0.8642578
			l-1,1.2255859c-0.5458984-0.3984375-1.1835938-0.6123047-1.9160156-0.6425781
			c-0.2460938-0.0214844-0.4980469,0.0136719-0.7539062,0.1074219s-0.4541016,0.2255859-0.5927734,0.3955078l-0.5214844,0.6386719
			l-1.1308594-0.9248047l0.4931641-0.6035156c0.5644531-0.6923828,1.3271484-1.0292969,2.2871094-1.0117188
			c0.3964844,0.0117188,0.7861328,0.0791016,1.1679688,0.2021484c-0.2421875-0.4443359-0.3867188-0.8125-0.4316406-1.1044922
			c-0.09375-0.5214844-0.0908203-0.9941406,0.0087891-1.4179688c0.1005859-0.4238281,0.3164062-0.8505859,0.6484375-1.2792969
			C30.2714844,41.0014648,30.7705078,40.6049805,31.3095703,40.3735352z"/>
		<path d="M42.4179688,30.3168945c0.3154297,0.0576172,0.6386719,0.1601562,0.9677734,0.3076172
			c-0.0791016-0.4619141-0.0654297-0.9091797,0.0410156-1.3447266c0.1884766-0.7880859,0.6503906-1.4873047,1.3837891-2.0966797
			c0.6289062-0.4667969,1.3164062-0.7636719,2.0634766-0.8896484c0.7226562-0.1074219,1.4150391-0.0166016,2.0791016,0.2753906
			c0.1132812-0.9785156,0.3144531-1.734375,0.6054688-2.2705078c0.2910156-0.5351562,0.7333984-1.0244141,1.3271484-1.4658203
			c1.3164062-0.9785156,2.5693359-1.2939453,3.7587891-0.9453125c0.5078125,0.1425781,1.0244141,0.4023438,1.5507812,0.7773438
			c0.5253906,0.3759766,1.0087891,0.8613281,1.4501953,1.4550781c0.4921875,0.6738281,0.8417969,1.3037109,1.0488281,1.8896484
			c0.2197266,0.6396484,0.3173828,1.1640625,0.2939453,1.5742188c-0.03125,0.4248047-0.1425781,0.8642578-0.3349609,1.3173828
			c-0.1777344,0.3867188-0.4130859,0.7763672-0.7060547,1.1679688l-0.9042969-1.2167969
			c0.2646484-0.5888672,0.3828125-1.1611328,0.3544922-1.7148438c-0.0273438-0.5273438-0.3417969-1.2382812-0.9423828-2.1328125
			c-0.6425781-0.8642578-1.3535156-1.4033203-2.1328125-1.6181641c-0.8339844-0.2382812-1.6484375-0.0625-2.4414062,0.5273438
			c-0.4472656,0.3320312-0.7890625,0.7744141-1.0273438,1.3251953c-0.2226562,0.5488281-0.3212891,1.0419922-0.296875,1.4794922
			c0.0283203,0.5175781,0.1513672,0.9775391,0.3701172,1.3818359c0.1787109,0.3144531,0.5996094,0.9179688,1.2636719,1.8115234
			l1.2587891,1.6933594l-1.2080078,0.8974609l-1.2587891-1.6933594c-0.7333984-0.9873047-1.3535156-1.7216797-1.8574219-2.2050781
			c-0.3544922-0.3291016-0.7138672-0.5605469-1.0761719-0.6923828c-0.7050781-0.2607422-1.4482422-0.1005859-2.2304688,0.4804688
			c-0.5527344,0.4101562-0.8681641,0.9560547-0.9472656,1.6347656c-0.0517578,0.3486328,0.0683594,0.8232422,0.359375,1.4238281
			c0.2910156,0.5996094,0.8134766,1.4140625,1.5683594,2.4414062l1.2763672,1.6796875l-1.2880859,0.9570312l-1.2451172-1.6757812
			c-0.7685547-1.0341797-1.3574219-1.7470703-1.765625-2.1367188c-0.4091797-0.3896484-0.7919922-0.6484375-1.1503906-0.7744141
			c-0.7167969-0.2519531-1.4570312-0.09375-2.2216797,0.4736328c-0.5527344,0.4111328-0.8681641,0.9560547-0.9472656,1.6357422
			c-0.1025391,0.6962891,0.0859375,1.3681641,0.5664062,2.0146484l2.1757812,2.9277344
			c1.1669922,1.5693359,2.6494141,2.5029297,4.4482422,2.7988281c0.8496094,0.1357422,1.4355469,0.1875,1.7597656,0.1572266
			c0.4248047-0.0419922,0.9404297-0.1835938,1.546875-0.4238281c0.6054688-0.2402344,1.1660156-0.5429688,1.6806641-0.9072266
			l2.9707031-2.2080078c2.0458984-1.5205078,3.1933594-2.5927734,3.4423828-3.2158203
			c0.1777344-0.4238281,0.2148438-1.0302734,0.1113281-1.8203125l1.2958984-0.9638672
			c0.5234375,0.8154297,0.6748047,1.6142578,0.4521484,2.3955078s-0.6689453,1.5117188-1.3398438,2.1933594
			c-0.7285156,0.7509766-1.5664062,1.4785156-2.5126953,2.1816406l-3.1826172,2.3662109
			c-0.6767578,0.5019531-1.3457031,0.921875-2.0078125,1.2587891c-0.6337891,0.3251953-1.3310547,0.546875-2.0917969,0.6650391
			c-0.7412109,0.1220703-1.5585938,0.0957031-2.4541016-0.078125c-2.2705078-0.4394531-4.0917969-1.5820312-5.4628906-3.4277344
			l-2.1503906-2.8916016c-0.7597656-1.0234375-1.0712891-2.0927734-0.9326172-3.2080078
			c0.1113281-1.0048828,0.6640625-1.8994141,1.6601562-2.6845703c0.4990234-0.3710938,0.9951172-0.6308594,1.4882812-0.7783203
			C41.4140625,30.2563477,41.9130859,30.2270508,42.4179688,30.3168945z"/>
		<path d="M67.5439453,15.3178711c0.7539062,0.0234375,1.4482422,0.2490234,2.0830078,0.6767578
			c0.3876953,0.2685547,0.7578125,0.6591797,1.1103516,1.171875c0.3027344,0.4296875,0.6855469,1.2070312,1.1464844,2.3320312
			l1.4609375,3.5566406c0.7558594,1.84375,1.0224609,3.2783203,0.7978516,4.3037109
			c-0.2236328,1.0263672-0.7597656,1.8759766-1.6083984,2.5488281l-0.5625-1.3720703
			c0.3798828-0.4804688,0.6181641-1.0097656,0.7138672-1.5878906c0.0537109-0.3310547,0.0400391-0.7207031-0.0410156-1.1708984
			c-0.0830078-0.4716797-0.3320312-1.2128906-0.7460938-2.2226562l-1.5976562-3.8925781
			c-0.5400391-1.3144531-1.1835938-2.1708984-1.9326172-2.5683594c-0.7792969-0.3925781-1.6728516-0.3818359-2.6826172,0.0322266
			c-1.125,0.4619141-1.8134766,1.1005859-2.0644531,1.9160156c-0.2519531,0.8320312-0.1152344,1.8886719,0.4101562,3.1689453
			l1.6064453,3.9130859c0.3837891,0.9355469,0.7275391,1.6289062,1.0322266,2.0820312
			c0.2246094,0.3349609,0.4882812,0.6308594,0.7910156,0.8867188c0.1796875,0.1474609,0.4169922,0.2763672,0.7109375,0.3847656
			c0.2939453,0.109375,0.5986328,0.1904297,0.9130859,0.2431641l0.5634766,1.3720703
			c-0.6894531,0.0771484-1.3369141,0.0244141-1.9423828-0.1591797c-0.6054688-0.1826172-1.203125-0.6025391-1.7929688-1.2587891
			s-1.1455078-1.6181641-1.6650391-2.8857422l-1.4599609-3.5566406c-0.40625-0.9892578-0.6699219-1.8154297-0.7919922-2.4785156
			c-0.1054688-0.5654297-0.109375-1.1064453-0.0117188-1.6210938c0.1416016-0.7158203,0.4697266-1.3613281,0.9863281-1.9375
			c0.2792969-0.3203125,0.6113281-0.5966797,0.9951172-0.8300781c0.3837891-0.2324219,0.7509766-0.4208984,1.1035156-0.5654297
			c0.3183594-0.1308594,0.7099609-0.2480469,1.1738281-0.3515625
			C66.7080078,15.3442383,67.1416016,15.3012695,67.5439453,15.3178711z"/>
		<path d="M94.3242188,9.6362305c0.6455078,0.2646484,1.1855469,0.7324219,1.6210938,1.4042969
			c0.2011719,0.3144531,0.3720703,0.7597656,0.5126953,1.3369141c0.0849609,0.3232422,0.1503906,0.6416016,0.1972656,0.9541016
			c0.0458984,0.3125,0.0898438,0.7236328,0.1298828,1.2353516l0.4111328,5.2021484
			c0.0771484,0.9785156,0.0830078,1.7158203,0.0195312,2.2128906c-0.0458984,0.5253906-0.1748047,0.9912109-0.3857422,1.3974609
			c-0.3769531,0.7128906-0.8388672,1.2412109-1.3847656,1.5859375c-0.6367188,0.3955078-1.3496094,0.6240234-2.1386719,0.6865234
			c-1.1972656,0.0947266-2.1845703-0.2207031-2.9619141-0.9453125c-0.796875-0.7011719-1.2460938-1.6875-1.3466797-2.9580078
			l1.5771484-0.1240234c0.1064453,0.7851562,0.4082031,1.4003906,0.90625,1.8457031
			c0.5058594,0.453125,1.1025391,0.6513672,1.7890625,0.5976562c0.9707031-0.0761719,1.6357422-0.4453125,1.9951172-1.1054688
			c0.3535156-0.6445312,0.4570312-1.8867188,0.3125-3.7275391l-0.3076172-3.8984375
			c-0.1455078-1.8398438-0.4433594-3.0507812-0.8925781-3.6328125c-0.4677734-0.609375-1.0478516-0.8867188-1.7412109-0.8320312
			c-0.2998047,0.0234375-0.6083984,0.1103516-0.9267578,0.2597656c-0.2773438,0.125-0.5253906,0.3320312-0.7451172,0.6210938
			c-0.1923828,0.2578125-0.3232422,0.53125-0.3925781,0.8193359s-0.1113281,0.6601562-0.1269531,1.1171875l-1.5771484,0.125
			c-0.0898438-0.6689453-0.3759766-1.2783203-0.8603516-1.828125c-0.1552734-0.1933594-0.3544922-0.3505859-0.5986328-0.4707031
			c-0.2451172-0.1201172-0.4765625-0.171875-0.6962891-0.1542969l-0.8212891,0.0644531l-0.1142578-1.4560547l0.7773438-0.0615234
			c0.890625-0.0703125,1.6611328,0.2470703,2.3125,0.9521484c0.265625,0.2949219,0.4853516,0.6230469,0.6611328,0.984375
			c0.1533203-0.4824219,0.3193359-0.8408203,0.4990234-1.0761719c0.3115234-0.4277344,0.6552734-0.7529297,1.03125-0.9736328
			c0.375-0.2207031,0.8330078-0.359375,1.3720703-0.4169922C93.1533203,9.3208008,93.7851562,9.4067383,94.3242188,9.6362305z"/>
		<path d="M111.4833984,11.4262695l-4.421875-0.3857422c-1.3349609-0.1162109-2.3496094,0.0527344-3.0439453,0.5058594
			c-0.6552734,0.4355469-1.0292969,1.1865234-1.1220703,2.2509766l-0.2412109,2.7587891
			c1.0517578-0.8417969,2.2119141-1.2080078,3.4814453-1.0966797c1.4082031,0.1220703,2.5556641,0.7119141,3.4414062,1.7666016
			c0.8974609,1.0859375,1.2871094,2.3066406,1.1689453,3.6640625c-0.1279297,1.4589844-0.7060547,2.6513672-1.7353516,3.5761719
			c-1.0507812,0.9228516-2.2763672,1.3232422-3.6777344,1.2011719c-1.3857422-0.1210938-2.5136719-0.7197266-3.3828125-1.7949219
			c-0.3115234-0.3955078-0.5537109-0.7802734-0.7265625-1.1552734s-0.2958984-0.7792969-0.3681641-1.2119141
			c-0.0732422-0.4335938-0.0888672-0.8798828-0.0488281-1.3388672l0.5732422-6.5673828
			c0.0732422-0.8388672,0.3251953-1.5849609,0.7578125-2.2382812c0.4306641-0.6386719,1.0146484-1.1396484,1.7519531-1.5019531
			c0.4521484-0.2099609,0.9375-0.3408203,1.4570312-0.390625c0.5029297-0.0439453,1.2988281-0.0195312,2.3857422,0.0761719
			l3.8857422,0.3388672L111.4833984,11.4262695z M102.2783203,20.3608398
			c-0.0908203,1.0439453,0.1748047,1.9560547,0.7978516,2.7382812c0.5957031,0.7578125,1.3925781,1.1806641,2.3925781,1.2675781
			c0.9853516,0.0859375,1.8398438-0.1923828,2.5654297-0.8349609c0.734375-0.6640625,1.1474609-1.5244141,1.2402344-2.5830078
			c0.09375-1.0791016-0.1640625-2.0058594-0.7724609-2.7802734c-0.6337891-0.7460938-1.4638672-1.1640625-2.4931641-1.2539062
			c-0.9267578-0.0810547-1.7490234,0.2080078-2.46875,0.8652344
			C102.7929688,18.4204102,102.3730469,19.2807617,102.2783203,20.3608398z"/>
		<path d="M124.0859375,13.3120117c0.5878906,0.4726562,1.0068359,1.0703125,1.2568359,1.7939453
			c0.1474609,0.4482422,0.2080078,0.9824219,0.1816406,1.6044922c-0.0166016,0.5253906-0.1787109,1.3759766-0.4863281,2.5517578
			l-0.9746094,3.7207031c-0.5048828,1.9267578-1.1552734,3.2324219-1.9521484,3.9179688
			c-0.7958984,0.6845703-1.7353516,1.0400391-2.8173828,1.0673828l0.3759766-1.4345703
			c0.5927734-0.1552734,1.1015625-0.4345703,1.5253906-0.8388672c0.2421875-0.2314453,0.4658203-0.5517578,0.6708984-0.9599609
			c0.21875-0.4267578,0.4658203-1.1689453,0.7421875-2.2246094l1.0664062-4.0703125
			c0.359375-1.3740234,0.3603516-2.4453125,0.0009766-3.2138672c-0.3857422-0.7822266-1.1064453-1.3115234-2.1621094-1.5878906
			c-1.1757812-0.3085938-2.109375-0.2119141-2.8007812,0.2880859c-0.7021484,0.5126953-1.2285156,1.4384766-1.5791016,2.7773438
			l-1.0722656,4.0917969c-0.2558594,0.9785156-0.3984375,1.7392578-0.4277344,2.2841797
			c-0.0224609,0.4033203,0.0107422,0.7978516,0.0986328,1.1845703c0.0546875,0.2265625,0.1660156,0.4716797,0.3359375,0.7353516
			c0.1689453,0.2636719,0.3632812,0.5117188,0.5830078,0.7431641l-0.3759766,1.4345703
			c-0.5966797-0.3525391-1.0820312-0.7841797-1.4550781-1.2949219c-0.3740234-0.5107422-0.5986328-1.2050781-0.6748047-2.0849609
			c-0.0761719-0.8789062,0.0585938-1.9814453,0.40625-3.3066406l0.9736328-3.7197266
			c0.2714844-1.0341797,0.5576172-1.8525391,0.859375-2.4550781c0.2558594-0.515625,0.578125-0.9501953,0.9658203-1.3027344
			c0.5439453-0.4863281,1.1943359-0.8037109,1.953125-0.953125c0.4169922-0.0878906,0.8476562-0.109375,1.2949219-0.0644531
			c0.4462891,0.0449219,0.8535156,0.1152344,1.2216797,0.2119141c0.3330078,0.0878906,0.7158203,0.2294922,1.1494141,0.4257812
			C123.4023438,12.8305664,123.7744141,13.0561523,124.0859375,13.3120117z"/>
		<path d="M130.0410156,22.9848633l0.5214844-1.1865234c0.03125,0.0371094,0.1103516,0.0839844,0.2373047,0.140625
			c0.0742188,0.0322266,0.140625,0.0595703,0.1992188,0.0810547c0.0576172,0.0214844,0.1240234,0.0488281,0.1982422,0.0810547
			c0.9589844,0.4208984,1.7744141,0.5400391,2.4472656,0.3554688c0.6503906-0.1865234,1.1503906-0.6787109,1.5009766-1.4765625
			c0.3007812-0.6835938,0.3408203-1.3359375,0.1220703-1.9560547c-0.2197266-0.6210938-0.6445312-1.0693359-1.2744141-1.3466797
			c-0.7109375-0.3125-1.3671875-0.3486328-1.96875-0.1083984c-0.6035156,0.2626953-1.0830078,0.7802734-1.4375,1.5517578
			l-1.3378906-0.5878906c0.5546875-1.1162109,1.3144531-1.8623047,2.2792969-2.2382812
			c0.9716797-0.3730469,1.9980469-0.3222656,3.0771484,0.1523438c1.0800781,0.4746094,1.8007812,1.1992188,2.1640625,2.1748047
			s0.3183594,1.9804688-0.1357422,3.0126953c-0.2880859,0.6572266-0.6230469,1.1181641-1.0029297,1.3828125
			c-0.5146484,0.3505859-1.0537109,0.5849609-1.6181641,0.7050781c0.578125,0.6142578,0.8857422,1.2255859,0.921875,1.8330078
			c0.0419922,0.8349609-0.1669922,1.7744141-0.6269531,2.8212891c-0.1328125,0.3017578-0.3056641,0.6357422-0.5185547,1.0019531
			s-0.4521484,0.71875-0.7167969,1.0585938c-0.265625,0.3398438-0.5488281,0.6347656-0.8515625,0.8857422
			c-0.2714844,0.2167969-0.5625,0.3691406-0.8730469,0.4570312c-0.3105469,0.0869141-0.7158203,0.1455078-1.2158203,0.1738281
			c-0.6123047,0.0263672-1.3603516-0.1542969-2.2451172-0.5429688c-1.1201172-0.4921875-1.84375-1.2304688-2.171875-2.2138672
			c-0.3642578-0.9921875-0.2900391-2.0722656,0.2226562-3.2382812l1.4384766,0.6318359
			c-0.2773438,0.7421875-0.3017578,1.4296875-0.0722656,2.0625c0.2304688,0.6328125,0.6601562,1.0878906,1.2910156,1.3642578
			c0.9384766,0.4130859,1.7314453,0.4931641,2.3779297,0.2412109c0.3759766-0.1464844,0.7421875-0.4609375,1.0986328-0.9443359
			c0.1474609-0.2080078,0.3759766-0.6630859,0.6855469-1.3671875c0.2685547-0.6503906,0.4404297-1.1347656,0.5126953-1.4550781
			s0.0566406-0.6787109-0.0488281-1.0771484c-0.1064453-0.4306641-0.3662109-0.8134766-0.7792969-1.1464844
			c-0.4335938-0.3427734-1.0058594-0.6699219-1.7167969-0.9824219L130.0410156,22.9848633z"/>
		<path d="M148.3369141,26.2973633c-0.0234375,0.5039062-0.1728516,1.0722656-0.4492188,1.703125
			c-0.2753906,0.6308594-0.5732422,1.2011719-0.8935547,1.7089844l-2.7783203,4.4169922
			c-0.4335938,0.6884766-0.8720703,1.2822266-1.3154297,1.7822266c-0.4658203,0.5195312-1.0058594,0.8896484-1.6201172,1.109375
			s-1.1367188,0.3144531-1.5683594,0.2851562c-0.6943359-0.0644531-1.4072266-0.3271484-2.1386719-0.7871094
			c-1.0175781-0.6396484-1.6210938-1.4824219-1.8105469-2.5283203c-0.2148438-1.0341797,0.0175781-2.0908203,0.6962891-3.1699219
			l1.3300781,0.8369141c-0.3847656,0.6923828-0.5097656,1.3691406-0.375,2.0292969
			c0.1337891,0.6591797,0.4931641,1.1728516,1.0751953,1.5390625c0.8310547,0.5224609,1.5849609,0.625,2.2607422,0.3066406
			c0.6611328-0.2939453,1.4863281-1.2285156,2.4775391-2.8037109l2.0820312-3.3105469
			c0.9833984-1.5615234,1.4677734-2.7109375,1.4541016-3.4462891c-0.0048828-0.7470703-0.4228516-1.3828125-1.2539062-1.9052734
			c-0.5830078-0.3662109-1.2021484-0.4619141-1.8574219-0.2861328c-0.6503906,0.1533203-1.2070312,0.5566406-1.6689453,1.2089844
			l-1.3300781-0.8369141c0.6474609-1.0283203,1.5058594-1.6787109,2.5761719-1.9482422
			c1.0302734-0.2773438,2.0449219-0.1152344,3.0419922,0.4863281c0.75,0.4716797,1.2958984,1.0009766,1.6367188,1.5869141
			C148.2402344,24.847168,148.3828125,25.5209961,148.3369141,26.2973633z"/>
		<path d="M155.3652344,33.543457c-0.3056641,0.0175781-0.6914062,0.0732422-1.15625,0.1650391
			c-0.4658203,0.0927734-0.9306641,0.2285156-1.3945312,0.4091797c-0.4648438,0.1796875-0.8232422,0.3828125-1.0742188,0.6074219
			c1.0371094,0.21875,1.9013672,0.6669922,2.5908203,1.3447266c0.7207031,0.7080078,1.2080078,1.3769531,1.4628906,2.0068359
			c0.4169922,0.9443359,0.5078125,1.8076172,0.2714844,2.5917969c0.7949219-0.234375,1.6640625-0.1572266,2.6044922,0.2333984
			c0.7070312,0.2734375,1.3837891,0.7285156,2.0322266,1.3652344c1.1650391,1.1445312,1.6699219,2.3339844,1.515625,3.5683594
			c-0.140625,1.1660156-0.71875,2.2666016-1.734375,3.3007812c-0.7597656,0.7626953-1.4941406,1.2802734-2.2001953,1.5498047
			c-0.7080078,0.2705078-1.3457031,0.3603516-1.9130859,0.2695312c-0.5683594-0.0908203-1.140625-0.2910156-1.71875-0.6015625
			l1.0556641-1.0742188c0.7265625,0.1904297,1.3115234,0.2373047,1.7568359,0.1396484
			c0.4648438-0.0966797,1.1191406-0.5380859,1.9609375-1.3222656c0.7548828-0.7685547,1.1748047-1.5507812,1.2617188-2.3496094
			c0.1005859-0.8447266-0.2773438-1.6884766-1.1337891-2.5302734c-0.5175781-0.5078125-1.0458984-0.8271484-1.5859375-0.9570312
			c-0.5859375-0.1347656-1.0898438-0.1552734-1.5107422-0.0605469c-0.421875,0.0947266-0.8447266,0.3056641-1.2685547,0.6328125
			c-0.4248047,0.3271484-0.9599609,0.8203125-1.6074219,1.4785156l-1.1044922-1.0859375
			c0.6464844-0.6582031,1.1308594-1.203125,1.4541016-1.6357422c0.3222656-0.4326172,0.5253906-0.8623047,0.609375-1.2880859
			c0.0849609-0.4248047,0.0546875-0.9248047-0.0908203-1.4980469c-0.1396484-0.5371094-0.4677734-1.0605469-0.984375-1.5683594
			c-0.8525391-0.8369141-1.7021484-1.1992188-2.5507812-1.0888672c-0.7910156,0.0957031-1.5673828,0.5292969-2.3261719,1.3027344
			c-0.7392578,0.8349609-1.1679688,1.4970703-1.2880859,1.984375c-0.0996094,0.4052734-0.0429688,0.9902344,0.1708984,1.7548828
			l-1.0546875,1.0732422c-0.3261719-0.5771484-0.5410156-1.1523438-0.6445312-1.7265625s-0.0263672-1.2119141,0.2314453-1.9130859
			c0.2275391-0.6083984,0.7470703-1.3349609,1.5576172-2.1816406l1.9013672-1.9667969
			c1.6533203-1.6201172,3.609375-2.4550781,5.8671875-2.5068359c0.8847656-0.0126953,1.7070312,0.0966797,2.4658203,0.328125
			c0.6953125,0.2109375,1.4658203,0.6240234,2.3105469,1.2382812c0.4736328,0.3427734,1.1992188,0.9941406,2.1767578,1.9541016
			c0.203125,0.2001953,0.3945312,0.3818359,0.5722656,0.5458984c0.1669922,0.1640625,0.4121094,0.4052734,0.7363281,0.7236328
			c0.2666016,0.2617188,0.4697266,0.4677734,0.6113281,0.6162109c0.7470703,0.7753906,1.3359375,1.5029297,1.7675781,2.1826172
			c0.4306641,0.6806641,0.6640625,1.3720703,0.7021484,2.0761719c0.0371094,0.7041016-0.2285156,1.3984375-0.7978516,2.0810547
			l-1.1523438-1.1318359c0.1904297-0.7363281,0.2314453-1.3378906,0.1240234-1.8027344
			c-0.1503906-0.671875-1.0097656-1.7783203-2.5771484-3.3183594l-2.0537109-2.0166016
			c-0.4433594-0.4365234-0.9296875-0.8085938-1.4580078-1.1181641c-0.5292969-0.3085938-1.0722656-0.5263672-1.6298828-0.6533203
			S155.9814453,33.5014648,155.3652344,33.543457z"/>
		<path d="M168.7597656,59.277832c-0.1484375,0.2431641-0.3271484,0.4853516-0.5380859,0.7255859
			c-0.2109375,0.2412109-0.3847656,0.4052734-0.5205078,0.4921875c-1.2246094,0.7890625-2.5195312,1.0527344-3.8818359,0.7890625
			c-1.3896484-0.2636719-2.4599609-0.9775391-3.2089844-2.140625c-0.765625-1.1884766-1.0234375-2.4599609-0.7724609-3.8154297
			c0.1298828-0.6240234,0.3994141-1.203125,0.8095703-1.7363281c0.4091797-0.5341797,0.921875-1,1.5371094-1.3964844
			l9.4023438-6.0566406l0.8388672,1.3017578l-9.4755859,6.1044922c-0.4316406,0.2783203-0.7988281,0.6064453-1.1035156,0.9853516
			c-0.2675781,0.3291016-0.4423828,0.7470703-0.5253906,1.2539062s-0.0839844,1.0058594-0.0019531,1.4980469
			c0.0810547,0.4912109,0.2148438,0.8818359,0.4013672,1.171875c0.5361328,0.8310547,1.2792969,1.3359375,2.2314453,1.515625
			c0.9804688,0.1699219,1.9140625-0.0302734,2.8007812-0.6015625c0.2646484-0.1708984,0.5136719-0.4404297,0.7470703-0.8085938
			c0.2392578-0.3720703,0.4755859-0.7431641,0.7070312-1.1142578c0.2304688-0.3720703,0.4785156-0.6425781,0.7441406-0.8134766
			c0.2460938-0.1582031,0.5634766-0.2324219,0.9541016-0.2226562c0.4160156,0.0107422,0.8027344,0.0712891,1.1611328,0.1796875
			l0.8271484,1.2841797c-0.5898438-0.0908203-1.0292969-0.1435547-1.3173828-0.1582031
			c-0.3535156-0.0068359-0.6191406,0.046875-0.7978516,0.1611328c-0.1289062,0.0839844-0.3046875,0.2919922-0.5244141,0.6259766
			C169.0283203,58.8569336,168.8642578,59.1147461,168.7597656,59.277832z"/>
		<path d="M181.8632812,66.4008789c-0.0126953,0.7539062-0.2285156,1.4511719-0.6484375,2.0917969
			c-0.2626953,0.390625-0.6484375,0.7666016-1.1552734,1.1259766c-0.4257812,0.3085938-1.1982422,0.7021484-2.3164062,1.1787109
			l-3.5371094,1.5087891c-1.8320312,0.7822266-3.2626953,1.0673828-4.2919922,0.8574219s-1.8857422-0.734375-2.5703125-1.5732422
			l1.3642578-0.5810547c0.4863281,0.3730469,1.0185547,0.6044922,1.5976562,0.6914062
			c0.3310547,0.0498047,0.7216797,0.03125,1.1699219-0.0566406c0.4707031-0.0898438,1.2089844-0.3486328,2.2128906-0.7763672
			l3.8701172-1.6513672c1.3066406-0.5576172,2.1533203-1.2128906,2.5410156-1.9677734
			c0.3818359-0.7841797,0.3583984-1.6777344-0.0693359-2.6816406c-0.4765625-1.1181641-1.125-1.7978516-1.9443359-2.0371094
			c-0.8349609-0.2412109-1.8896484-0.0898438-3.1621094,0.453125l-3.890625,1.6591797
			c-0.9296875,0.3964844-1.6191406,0.7509766-2.0683594,1.0615234c-0.3320312,0.2294922-0.6240234,0.4970703-0.875,0.8037109
			c-0.1455078,0.1806641-0.2705078,0.4199219-0.3759766,0.7148438c-0.1044922,0.2958984-0.1816406,0.6015625-0.2304688,0.9169922
			l-1.3632812,0.5820312c-0.0869141-0.6884766-0.0429688-1.3359375,0.1318359-1.9443359
			c0.1748047-0.6074219,0.5859375-1.2109375,1.234375-1.8105469c0.6484375-0.5986328,1.6025391-1.1669922,2.8623047-1.7041016
			l3.5371094-1.5087891c0.9833984-0.4199219,1.8056641-0.6943359,2.4667969-0.8251953
			c0.5644531-0.1132812,1.1044922-0.125,1.6210938-0.0351562c0.7167969,0.1318359,1.3671875,0.4521484,1.9501953,0.9599609
			c0.3242188,0.2753906,0.6054688,0.6035156,0.84375,0.984375c0.2373047,0.3798828,0.4316406,0.7451172,0.5810547,1.0957031
			c0.1347656,0.3164062,0.2568359,0.7060547,0.3671875,1.1689453C181.8251953,65.5649414,181.875,65.9975586,181.8632812,66.4008789
			z"/>
		<path d="M180.6376953,78.2036133c-0.3652344-0.4501953-0.8251953-0.8369141-1.3798828-1.1621094
			c-1.1181641-0.6533203-2.3554688-0.8261719-3.7128906-0.5166016c-1.3632812,0.3105469-2.4003906,1.0019531-3.1103516,2.0722656
			c-0.7255859,1.0673828-0.9414062,2.2470703-0.6464844,3.5390625c0.2890625,1.2714844,0.9912109,2.2265625,2.1064453,2.8662109
			c1.1025391,0.6503906,2.3427734,0.8183594,3.7207031,0.5048828c1.3925781-0.3173828,2.4414062-1.0078125,3.1455078-2.0693359
			c0.5390625-0.8291016,0.7705078-1.7763672,0.6933594-2.8398438l-2.28125,0.5195312l-0.3398438-1.4882812l7.2412109-1.6513672
			l0.3398438,1.4892578l-3.4921875,0.7958984c0.1689453,1.4335938-0.1376953,2.7734375-0.9208984,4.0185547
			c-0.9404297,1.4765625-2.2460938,2.4052734-3.9169922,2.7861328c-1.7568359,0.4003906-3.3896484,0.15625-4.8994141-0.7314453
			c-1.5126953-0.9023438-2.4609375-2.1923828-2.8427734-3.8701172c-0.3876953-1.6992188-0.109375-3.2802734,0.8339844-4.7421875
			c0.9443359-1.4628906,2.2724609-2.3886719,3.9863281-2.7792969c1.7285156-0.3945312,3.3417969-0.1386719,4.8398438,0.7666016
			c0.9423828,0.5742188,1.6582031,1.2900391,2.1464844,2.1474609L180.6376953,78.2036133z"/>
		<path d="M186.6025391,97.2319336c-0.4248047,0.2734375-0.9746094,0.4794922-1.6484375,0.6201172
			c-0.6748047,0.140625-1.3115234,0.2275391-1.9111328,0.2607422l-5.2109375,0.2910156
			c-0.8115234,0.0449219-1.5488281,0.03125-2.2138672-0.0410156c-0.6933594-0.0791016-1.3076172-0.3056641-1.8417969-0.6787109
			c-0.5351562-0.3740234-0.9150391-0.7451172-1.140625-1.1132812c-0.3496094-0.6044922-0.5478516-1.3378906-0.5966797-2.2011719
			c-0.0664062-1.1992188,0.2714844-2.1787109,1.0136719-2.9394531c0.7197266-0.7734375,1.7158203-1.1962891,2.9882812-1.2666016
			l0.0878906,1.5683594c-0.7880859,0.0878906-1.4111328,0.3779297-1.8720703,0.8691406
			c-0.4599609,0.4912109-0.6708984,1.0810547-0.6328125,1.7685547c0.0546875,0.9794922,0.4072266,1.6533203,1.0595703,2.0205078
			c0.6210938,0.3681641,1.8613281,0.5009766,3.71875,0.3974609l3.9052734-0.2177734
			c1.8427734-0.1035156,3.0595703-0.3730469,3.6523438-0.8095703c0.6054688-0.4375,0.8818359-1.1455078,0.8271484-2.1259766
			c-0.0380859-0.6875-0.3193359-1.2470703-0.8417969-1.6806641c-0.5019531-0.4414062-1.1523438-0.6611328-1.9521484-0.6611328
			l-0.0869141-1.5683594c1.2138672-0.0673828,2.2402344,0.2558594,3.0800781,0.9726562
			c0.8222656,0.6796875,1.2773438,1.6005859,1.3642578,2.7626953c0.0498047,0.8847656-0.0664062,1.6357422-0.3466797,2.2529297
			C187.7285156,96.3139648,187.2617188,96.8208008,186.6025391,97.2319336z"/>
		<path d="M182.8398438,106.3891602c-0.1982422-0.5449219-0.5048828-1.0615234-0.9228516-1.5498047
			c-0.8408203-0.9853516-1.953125-1.5546875-3.3359375-1.7089844c-1.390625-0.1542969-2.5966797,0.1572266-3.6191406,0.9355469
			c-1.0361328,0.7695312-1.6269531,1.8125-1.7734375,3.1298828c-0.1445312,1.2958984,0.2050781,2.4287109,1.0478516,3.3994141
			c0.8271484,0.9765625,1.9433594,1.5429688,3.3486328,1.6992188c1.4189453,0.1572266,2.6357422-0.1494141,3.6503906-0.9208984
			c0.7822266-0.6064453,1.3115234-1.4238281,1.5878906-2.4541016l-2.3251953-0.2587891l0.1679688-1.5175781l7.3818359,0.8203125
			l-0.1689453,1.5175781l-3.5595703-0.3955078c-0.3115234,1.4091797-1.0410156,2.5742188-2.1894531,3.4931641
			c-1.3740234,1.0849609-2.9121094,1.5332031-4.6152344,1.34375c-1.7910156-0.1992188-3.2539062-0.9658203-4.3876953-2.3007812
			c-1.1318359-1.3486328-1.6035156-2.8789062-1.4130859-4.5898438c0.1923828-1.7324219,0.9746094-3.1337891,2.3466797-4.2050781
			c1.3720703-1.0703125,2.9316406-1.5087891,4.6787109-1.3144531c1.7607422,0.1953125,3.2011719,0.9677734,4.3183594,2.3144531
			c0.7011719,0.8525391,1.1416016,1.7636719,1.3212891,2.734375L182.8398438,106.3891602z"/>
		<path d="M183.4316406,126.8745117c-0.4902344,0.5722656-1.1025391,0.9707031-1.8339844,1.1962891
			c-0.4521484,0.1328125-0.9882812,0.1757812-1.6083984,0.1289062c-0.5253906-0.0341797-1.3701172-0.2236328-2.5361328-0.5703125
			l-3.6855469-1.0966797c-1.9091797-0.5683594-3.1933594-1.2617188-3.8515625-2.0800781s-0.9824219-1.7695312-0.9736328-2.8515625
			l1.421875,0.4228516c0.1347656,0.5976562,0.3974609,1.1152344,0.7871094,1.5527344
			c0.2236328,0.25,0.5361328,0.484375,0.9375,0.703125c0.4199219,0.2314453,1.1523438,0.5029297,2.1992188,0.8144531
			l4.0322266,1.1992188c1.3623047,0.4052734,2.4326172,0.4414062,3.2119141,0.1074219
			c0.7949219-0.359375,1.3476562-1.0625,1.6591797-2.1083984c0.3466797-1.1650391,0.28125-2.1015625-0.1962891-2.8095703
			c-0.4892578-0.7177734-1.3964844-1.2744141-2.7236328-1.6699219l-4.0537109-1.2060547
			c-0.9697266-0.2880859-1.7255859-0.4550781-2.2695312-0.5029297c-0.4023438-0.0351562-0.7978516-0.015625-1.1865234,0.0595703
			c-0.2285156,0.046875-0.4765625,0.1503906-0.7460938,0.3115234c-0.2695312,0.1601562-0.5234375,0.3466797-0.7617188,0.5585938
			l-1.421875-0.4228516c0.3720703-0.5849609,0.8203125-1.0556641,1.3427734-1.4121094s1.2246094-0.5585938,2.1054688-0.6054688
			c0.8818359-0.0478516,1.9785156,0.1240234,3.2910156,0.5146484l3.6855469,1.0966797
			c1.0253906,0.3046875,1.8339844,0.6181641,2.4257812,0.9394531c0.5078125,0.2724609,0.9306641,0.609375,1.2705078,1.0078125
			c0.4677734,0.5595703,0.7636719,1.2207031,0.8886719,1.984375c0.0742188,0.4189453,0.0810547,0.8505859,0.0214844,1.2949219
			c-0.0595703,0.4453125-0.1435547,0.8496094-0.2529297,1.2148438c-0.0976562,0.3300781-0.2519531,0.7080078-0.4628906,1.1347656
			C183.9365234,126.206543,183.6982422,126.5708008,183.4316406,126.8745117z"/>
		<path d="M169.3964844,135.6557617c1.1689453,0.6298828,1.5429688,2.0791016,0.9042969,3.2167969
			c-0.6396484,1.1386719-2.0595703,1.5537109-3.1982422,0.9150391c-1.1572266-0.6503906-1.5537109-2.0595703-0.9033203-3.2177734
			C166.8378906,135.4321289,168.2392578,135.0053711,169.3964844,135.6557617z"/>
	</g>
	<g>
		<path class="st4" d="M98.8095703,197.6196289C44.3261719,197.6196289,0,153.293457,0,98.8100586
			C0,44.3261719,44.3261719,0,98.8095703,0s98.8095703,44.3261719,98.8095703,98.8100586
			C197.6191406,153.293457,153.2929688,197.6196289,98.8095703,197.6196289z M98.8095703,2.0292969
			c-53.3652344,0-96.7802734,43.4155273-96.7802734,96.7807617s43.4150391,96.7802734,96.7802734,96.7802734
			s96.7802734-43.4150391,96.7802734-96.7802734S152.1748047,2.0292969,98.8095703,2.0292969z"/>
	</g>
	<g>
		<path d="M40.6904297,152.3608398c0.8417969-0.9150391,0.7382812-1.796875-0.09375-2.7441406
			c-0.8076172-0.9199219-1.6621094-1.1113281-2.3388672-0.5175781c-0.7216797,0.6337891-0.2177734,1.5166016,0.4462891,2.6904297
			c0.7021484,1.2363281,1.5498047,2.8564453,0.1972656,4.0439453c-1.4257812,1.2519531-3.0644531,0.4394531-4.1416016-0.7871094
			c-1.3466797-1.5332031-1.6240234-3.2861328-0.0732422-4.6484375l0.7207031,0.8212891
			c-1.1308594,1.0576172-0.7929688,2.2617188,0.109375,3.2890625c0.6582031,0.7490234,1.6640625,1.3671875,2.5742188,0.5673828
			c0.8300781-0.7285156,0.2792969-1.6826172-0.4033203-2.9521484c-0.6767578-1.2431641-1.5576172-2.5927734-0.2060547-3.7802734
			c1.3173828-1.1552734,2.8613281-0.4345703,3.875,0.71875c1.1953125,1.3613281,1.3876953,2.8535156,0.0546875,4.1201172
			L40.6904297,152.3608398z"/>
		<path d="M40.2900391,160.7495117c-1.3945312-1.3203125-1.2353516-2.9716797,0.0605469-4.3398438
			c1.4199219-1.4990234,3.1484375-1.6474609,4.4726562-0.3925781c1.0976562,1.0400391,1.2412109,2.2675781,0.3964844,3.4023438
			l-0.765625-0.7265625c0.4716797-0.7597656,0.4013672-1.4707031-0.2089844-2.0488281
			c-0.8535156-0.8085938-2.0371094-0.6416016-3.0605469,0.4394531c-1.0410156,1.0976562-1.1621094,2.2382812-0.3261719,3.03125
			c0.6708984,0.6357422,1.5029297,0.6464844,2.3183594,0.0136719l0.7490234,0.7099609
			C42.7802734,161.7856445,41.4052734,161.8061523,40.2900391,160.7495117z"/>
		<path d="M44.5410156,164.2651367l-0.7919922-0.6621094l3.9765625-4.7480469l0.7910156,0.6621094L44.5410156,164.2651367z
			 M49.2255859,158.6713867l-0.7910156-0.6630859l0.8017578-0.9570312l0.7910156,0.6630859L49.2255859,158.6713867z"/>
		<path d="M48.1962891,167.3813477c-1.4658203-1.0849609-1.6289062-2.6992188-0.4296875-4.3193359
			c1.1933594-1.6103516,2.9355469-2.0078125,4.3144531-0.9863281c1.6386719,1.2138672,1.2929688,2.9726562,0.2285156,4.4101562
			l-0.0859375,0.1152344l-3.7421875-2.7705078l-0.0517578,0.0507812c-0.7861328,1.0605469-0.6689453,2.1328125,0.2958984,2.8466797
			c0.7128906,0.5283203,1.3378906,0.5126953,2.125-0.0683594l0.8007812,0.5927734
			C50.5517578,168.2143555,49.3730469,168.253418,48.1962891,167.3813477z M51.5615234,162.7368164
			c-0.8007812-0.5927734-1.7880859-0.4287109-2.5869141,0.4277344l2.8935547,2.1425781
			C52.4902344,164.3051758,52.3818359,163.3432617,51.5615234,162.7368164z"/>
		<path d="M55.5957031,165.8989258c0.8349609-0.3740234,1.5830078-0.3515625,2.3896484,0.1455078
			c1.2890625,0.7919922,1.3251953,1.7861328,0.5830078,2.9921875l-2.15625,3.5068359l-0.8681641-0.5341797l1.9101562-3.1074219
			c0.515625-0.8388672,0.9150391-1.5791016-0.1787109-2.2519531c-1.1357422-0.6982422-2.03125-0.0654297-2.6728516,0.9775391
			l-1.6972656,2.7597656l-0.8691406-0.5341797l3.2441406-5.2753906l0.8183594,0.5029297L55.5957031,165.8989258z"/>
		<path d="M63.1845703,170.0795898l-1.0957031-0.5732422l-1.6767578,3.2011719
			c-0.2617188,0.5-0.4550781,0.7910156,0.1826172,1.1259766c0.1816406,0.0947266,0.3037109,0.1445312,0.5058594,0.2236328
			l-0.40625,0.7763672c-0.3037109-0.1181641-0.4257812-0.1689453-0.7128906-0.3193359
			c-1.3720703-0.71875-0.9511719-1.3652344-0.3222656-2.5673828l1.5253906-2.9140625l-0.9257812-0.484375l0.390625-0.7451172
			l0.9248047,0.4853516l0.8525391-1.6279297l0.9042969,0.4736328l-0.8525391,1.6269531l1.0947266,0.5742188L63.1845703,170.0795898z
			"/>
		<path d="M63.1728516,176.0004883l-0.9335938-0.4384766l2.6298828-5.6064453l0.9345703,0.4384766L63.1728516,176.0004883z
			 M66.2724609,169.3950195l-0.9345703-0.4384766l0.5302734-1.1298828l0.9335938,0.4384766L66.2724609,169.3950195z"/>
		<path d="M70.2529297,178.9135742c-0.2324219-0.0019531-0.4794922-0.0615234-0.6914062-0.1455078
			c-0.5351562-0.2119141-0.7060547-0.6279297-0.5-1.1796875c-0.8212891,0.4101562-1.5566406,0.4414062-2.4492188,0.0878906
			c-1.1367188-0.4521484-1.5917969-1.3554688-1.1933594-2.359375c0.40625-1.0253906,1.3261719-1.3583984,2.7529297-0.9853516
			c1.4384766,0.3769531,1.8935547,0.5957031,2.203125-0.1845703c0.2431641-0.6132812-0.0810547-1.1298828-0.9287109-1.4658203
			c-0.8808594-0.3496094-1.4667969-0.2080078-1.8925781,0.6044922l-0.9257812-0.3671875
			c0.5205078-1.2138672,1.7001953-1.5849609,3.1835938-0.9960938c0.7695312,0.3056641,1.3476562,0.7666016,1.5859375,1.2744141
			c0.2460938,0.5498047,0.0009766,1.1367188-0.203125,1.6494141c-0.3398438,0.859375-0.7207031,1.6894531-1.0615234,2.5478516
			c-0.1689453,0.4238281-0.1259766,0.6083984,0.1650391,0.7236328c0.0888672,0.0351562,0.1376953,0.0419922,0.2470703,0.0595703
			L70.2529297,178.9135742z M68.4931641,175.1811523c-0.7265625-0.1845703-1.6953125-0.4785156-2.0625,0.4472656
			c-0.234375,0.5917969,0.0546875,1.1318359,0.7685547,1.4150391c0.8916016,0.3544922,1.9951172,0.0810547,2.2861328-0.6542969
			l0.4160156-1.0488281C69.4384766,175.4663086,68.9384766,175.2944336,68.4931641,175.1811523z"/>
		<path d="M78.7958984,178.5024414c-0.203125,0.7568359-0.9863281,1.2080078-1.7431641,1.0048828
			s-1.2080078-0.9873047-1.0048828-1.7441406c0.203125-0.7558594,0.9863281-1.2080078,1.7441406-1.0048828
			C78.5478516,176.9624023,78.9990234,177.7456055,78.7958984,178.5024414z"/>
		<path d="M88.203125,183.1821289l-5.5888672-0.9072266l1.3691406-8.4316406l1.1132812,0.1816406l-1.2119141,7.4589844
			l4.4755859,0.7265625L88.203125,183.1821289z"/>
		<path d="M95.2128906,183.7280273c-0.2216797,0.0673828-0.4755859,0.0839844-0.7021484,0.0664062
			c-0.5742188-0.0439453-0.8613281-0.390625-0.828125-0.9775391c-0.6621094,0.6347656-1.3554688,0.8828125-2.3125,0.8095703
			c-1.2207031-0.09375-1.921875-0.8212891-1.8398438-1.8974609c0.0839844-1.1005859,0.8632812-1.6914062,2.3359375-1.7587891
			c1.4863281-0.0664062,1.9853516,0.0078125,2.0488281-0.8300781c0.0507812-0.6582031-0.4121094-1.0537109-1.3212891-1.1240234
			c-0.9443359-0.0722656-1.4619141,0.2373047-1.6279297,1.1396484l-0.9921875-0.0761719
			c0.1367188-1.3134766,1.1523438-2.0175781,2.7441406-1.8964844c0.8251953,0.0634766,1.5146484,0.3330078,1.8925781,0.7470703
			c0.3984375,0.4511719,0.3378906,1.0849609,0.2949219,1.6347656c-0.0703125,0.9208984-0.1875,1.8271484-0.2578125,2.7480469
			c-0.0351562,0.4541016,0.0605469,0.6181641,0.3720703,0.6416016c0.0957031,0.0078125,0.1445312,0,0.2539062-0.0166016
			L95.2128906,183.7280273z M92.4248047,180.6870117c-0.7480469,0.0390625-1.7597656,0.0458984-1.8359375,1.0390625
			c-0.0488281,0.6337891,0.3886719,1.0644531,1.1542969,1.1230469c0.9570312,0.0732422,1.9277344-0.5146484,1.9882812-1.3046875
			l0.0859375-1.1240234C93.4130859,180.6782227,92.8847656,180.6616211,92.4248047,180.6870117z"/>
		<path d="M97.8623047,178.4526367c0.4550781-0.7158203,1.1816406-1.0390625,2.0332031-1.0537109
			c1.6914062-0.0283203,2.8164062,1.2255859,2.8486328,3.1923828c0.0332031,2.0029297-1.0732422,3.3164062-2.7998047,3.3447266
			c-0.8515625,0.0146484-1.6484375-0.2841797-2.0683594-1.0449219l0.0136719,0.8994141l-0.9589844,0.015625l-0.140625-8.5390625
			l1.0195312-0.0166016L97.8623047,178.4526367z M97.8642578,180.7436523
			c0.0234375,1.4628906,0.7832031,2.3623047,1.9697266,2.3427734c1.1396484-0.0185547,1.8798828-0.9912109,1.8544922-2.4658203
			c-0.0234375-1.4628906-0.7832031-2.3740234-1.9335938-2.3554688
			C98.3388672,178.2885742,97.84375,179.5083008,97.8642578,180.7436523z"/>
		<path d="M110.1259766,179.902832c0.2138672,2.0878906-0.7480469,3.4160156-2.6210938,3.6074219
			c-1.8847656,0.1933594-3.1308594-0.9091797-3.3378906-2.9375c-0.2080078-2.0283203,0.8212891-3.4003906,2.6826172-3.5908203
			S109.9169922,177.8618164,110.1259766,179.902832z M105.2138672,180.440918
			c0.1552734,1.515625,0.9746094,2.3359375,2.2158203,2.2089844c1.1923828-0.1220703,1.8154297-1.1015625,1.6611328-2.6171875
			c-0.1503906-1.4677734-0.984375-2.3232422-2.1777344-2.2011719S105.0634766,178.9731445,105.2138672,180.440918z"/>
		<path d="M114.5498047,176.940918c-0.1083984,0.0068359-0.15625,0.015625-0.2617188,0.0341797
			c-1.65625,0.2900391-1.7304688,1.6074219-1.4892578,2.9794922l0.4521484,2.578125l-1.0048828,0.1757812l-1.0712891-6.1015625
			l0.9589844-0.1679688l0.2304688,1.3125c0.2441406-1.1035156,0.9150391-1.6601562,2.0029297-1.8505859L114.5498047,176.940918z"/>
		<path d="M122.3310547,177.4887695c0.2128906,0.7558594-0.2304688,1.5449219-0.9863281,1.7578125
			c-0.7539062,0.2119141-1.5449219-0.2314453-1.7568359-0.9863281s0.2314453-1.5449219,0.9863281-1.7568359
			C121.3291016,176.2905273,122.1191406,176.7338867,122.3310547,177.4887695z"/>
		<path d="M132.8242188,176.7260742l-5.2724609,2.0664062l-3.1171875-7.9521484l1.0498047-0.4121094l2.7587891,7.0371094
			l4.2226562-1.6552734L132.8242188,176.7260742z"/>
		<path d="M131.9980469,169.0170898l-0.9355469,0.4355469l-0.5263672-1.1318359l0.9355469-0.4355469L131.9980469,169.0170898z
			 M135.078125,175.6313477l-0.9355469,0.4355469l-2.6142578-5.6132812l0.9355469-0.4355469L135.078125,175.6313477z"/>
		<path d="M135.4208984,169.5161133c0.0703125-0.8457031,0.5625-1.4716797,1.3105469-1.8808594
			c1.484375-0.8134766,3.0644531-0.2275391,4.0097656,1.4990234c0.9638672,1.7578125,0.5976562,3.4375-0.9189453,4.2675781
			c-0.7470703,0.4101562-1.5927734,0.5166016-2.3193359,0.0390625l0.4316406,0.7890625l-0.8417969,0.4619141l-4.1064453-7.4960938
			l0.8955078-0.4902344L135.4208984,169.5161133z M136.4912109,171.5444336
			c0.703125,1.2841797,1.7949219,1.7275391,2.8378906,1.15625c1-0.5478516,1.2011719-1.7539062,0.4921875-3.0488281
			c-0.7041016-1.2841797-1.8007812-1.7373047-2.8115234-1.1835938
			C135.7675781,169.1489258,135.8974609,170.4604492,136.4912109,171.5444336z"/>
		<path d="M146.1904297,169.5473633c-1.5175781,1.0136719-3.0917969,0.6220703-4.2128906-1.0546875
			c-1.1132812-1.6660156-0.8984375-3.4404297,0.5283203-4.3945312c1.6962891-1.1328125,3.2353516-0.2128906,4.2285156,1.2744141
			l0.0800781,0.1191406l-3.8720703,2.5878906l0.0302734,0.0664062c0.7333984,1.0976562,1.7822266,1.3496094,2.7802734,0.6826172
			c0.7382812-0.4931641,0.9335938-1.0859375,0.6542969-2.0244141l0.828125-0.5537109
			C147.7685547,167.6118164,147.4072266,168.7338867,146.1904297,169.5473633z M142.9521484,164.8100586
			c-0.828125,0.5537109-1.0068359,1.5390625-0.4697266,2.5810547l2.9941406-2.0009766
			C144.7431641,164.465332,143.8007812,164.2436523,142.9521484,164.8100586z"/>
		<path d="M149.0810547,160.6186523c-0.0927734,0.0566406-0.1308594,0.0859375-0.2167969,0.1523438
			c-1.328125,1.0273438-0.7802734,2.2265625,0.0712891,3.3271484l1.6005859,2.0693359l-0.8066406,0.6240234l-3.7871094-4.8974609
			l0.7675781-0.5947266l0.8144531,1.0537109c-0.2958984-1.0898438,0.0371094-1.8945312,0.9101562-2.5693359L149.0810547,160.6186523
			z"/>
		<path d="M151.8583984,158.1362305l-0.9355469,0.8066406l2.3554688,2.7373047
			c0.3681641,0.4277344,0.5683594,0.7148438,1.1132812,0.2451172c0.1542969-0.1337891,0.2470703-0.2285156,0.3945312-0.3876953
			l0.5722656,0.6640625c-0.2226562,0.2382812-0.3144531,0.3339844-0.5605469,0.5449219
			c-1.1728516,1.0097656-1.6191406,0.3808594-2.5039062-0.6464844l-2.1445312-2.4921875l-0.7910156,0.6806641l-0.5488281-0.6357422
			l0.7919922-0.6816406l-1.1982422-1.3916016l0.7734375-0.6650391l1.1972656,1.3916016l0.9375-0.8066406L151.8583984,158.1362305z"
			/>
		<path d="M160.5498047,157.1577148c-0.0957031,0.2109375-0.25,0.4140625-0.4121094,0.5742188
			c-0.4101562,0.4042969-0.859375,0.3925781-1.28125-0.0175781c0.0449219,0.9160156-0.2226562,1.6015625-0.90625,2.2753906
			c-0.8720703,0.859375-1.8818359,0.9111328-2.6396484,0.1425781c-0.7744141-0.7871094-0.7080078-1.7617188,0.2080078-2.9179688
			c0.9238281-1.1640625,1.3085938-1.4921875,0.71875-2.0898438c-0.4628906-0.4707031-1.0664062-0.3808594-1.7158203,0.2587891
			c-0.6748047,0.6650391-0.7802734,1.2587891-0.2089844,1.9755859l-0.7099609,0.6992188
			c-0.9003906-0.9658203-0.7636719-2.1943359,0.3720703-3.3144531c0.5898438-0.5820312,1.2451172-0.9248047,1.8056641-0.9375
			c0.6025391-0.0039062,1.0400391,0.4570312,1.4277344,0.8496094c0.6484375,0.6582031,1.2539062,1.3417969,1.9023438,1.9990234
			c0.3203125,0.3251953,0.5068359,0.3603516,0.7285156,0.1416016c0.0683594-0.0673828,0.09375-0.109375,0.1542969-0.203125
			L160.5498047,157.1577148z M156.4257812,157.2631836c-0.4619141,0.5908203-1.1210938,1.3583984-0.4228516,2.0673828
			c0.4472656,0.453125,1.0585938,0.40625,1.6044922-0.1328125c0.6835938-0.6738281,0.8779297-1.7919922,0.3232422-2.3564453
			l-0.7929688-0.8027344C157.0673828,156.5131836,156.7080078,156.9008789,156.4257812,157.2631836z"/>
		<path d="M160.6933594,150.3647461c-0.6640625-0.4785156-1.2685547-0.2558594-1.8408203,0.4072266
			c-0.5097656,0.5898438-0.5791016,1.1650391-0.1884766,1.5019531c0.5263672,0.4550781,1.1337891-0.0830078,1.8271484-0.5927734
			c0.8652344-0.6328125,1.9785156-1.4628906,2.9941406-0.5849609c0.9082031,0.7841797,0.8408203,2.0742188-0.1708984,3.2451172
			c-1.0976562,1.2714844-2.2744141,1.4765625-3.3662109,0.6113281l0.6582031-0.7626953
			c0.7480469,0.5664062,1.4453125,0.3291016,2.0878906-0.4160156c0.5966797-0.6894531,0.6796875-1.4101562,0.2080078-1.8183594
			c-0.5175781-0.4472656-1.0810547-0.0146484-1.8095703,0.4980469c-0.8984375,0.6357422-1.9316406,1.6298828-3.0117188,0.6962891
			c-0.84375-0.7294922-0.7753906-1.8916016,0.1660156-2.9804688c0.9091797-1.0537109,2.1230469-1.4316406,3.1132812-0.5761719
			L160.6933594,150.3647461z"/>
	</g>
</g>
</svg>
