<?xml version="1.0" encoding="utf-8"?>
<!-- Generator: Adobe Illustrator 19.0.0, SVG Export Plug-In . SVG Version: 6.00 Build 0)  -->
<svg version="1.1" id="Layer_1" xmlns="http://www.w3.org/2000/svg" xmlns:xlink="http://www.w3.org/1999/xlink" x="0px" y="0px"
	 viewBox="0 0 404.5 69.2" style="enable-background:new 0 0 404.5 69.2;" xml:space="preserve">
<style type="text/css">
	.st0{fill:#0A3A56;}
	.st1{fill:#00539A;}
	.st2{fill:#5F9ED6;}
	.st3{fill:#FFFFFF;}
</style>
<g>
	<g>
		<path class="st0" d="M42.4-2.7"/>
	</g>
	<g>
		<path class="st1" d="M40.3,23.4c1.8,3,22.5,38.3,22.7,38.7c1,1.8,10.1,6.4,12.4,6.4H81L40.3,0c0,0-2.8,9.7-2.1,9.4l1.1,0.2
			C38.7,9,40.3,0,40.3,0L20.9,34.3l3.4,1.8l0.1,0.3l1.9,0.8c3.9,0-4.1,6.3-0.2-0.7c0.1-0.1-3.6-1.6-1.5,1.9c1.6,2.6,4.3,4.5,8.3-2.2
			C36.8,29.8,39.7,24.5,40.3,23.4"/>
	</g>
	<g>
		<path class="st1" d="M23.6,29.8L16,42.3h5.5c4.5-0.1,7.6,0.7,11.6-6.4c0.1-0.1,1.5-2.5,3.6-6.1"/>
	</g>
	<g>
		<path class="st1" d="M30.7,63c4.1-7.3,7.3-6.7,11.1-6.7h25.9l7.4,12.3H27.4"/>
	</g>
	<g>
		<path class="st2" d="M10.6,51.1l18.4,0c-3,5-5,8.3-5.1,8.5c-5.5,9.9-8,8.9-14.3,9H0L10.6,51.1"/>
	</g>
	<g>
		<path class="st2" d="M34.5,42.1l9.5,0c-1.5,2.6-2.6,4.3-2.6,4.4c-2.8,5.1-5.1,4.6-8.3,4.6h-4L34.5,42.1"/>
	</g>
	<g>
		<path class="st2" d="M34.8,42.1l9.5,0c-1.5,2.6-2.6,4.3-2.6,4.4c-2.8,5.1-4,4.6-7.3,4.6h-5.1L34.8,42.1"/>
	</g>
	<g>
		<g>
			<path class="st1" d="M94.4,22.7c0,2.5-0.4,4.3-1.3,5.5c-1.5,2-4.3,3-8.5,3c-1.5,0-2.8-0.1-3.9-0.4c-1.1-0.2-2.1-0.6-2.8-0.9
				l1-3.2c2.2,0.6,4.2,0.9,5.8,0.9c2.2,0,3.8-0.2,4.6-0.7c1-0.6,1.5-1.7,1.5-3.3v-9.5c0-1-0.6-2.1-1.9-3.2c-1-0.9-2.2-1.6-3.6-2
				c-1.7-0.6-2.9-1.5-3.5-2.7c-0.7-1.2-1-3-1-5.3h3.7c0,1.8,0.3,3.2,1,4c0.4,0.4,1.2,0.9,2.4,1.5c1.6,0.8,2.9,1.7,4.1,2.7
				c1.4,1.3,2.2,2.7,2.5,4.1V22.7z"/>
			<path class="st1" d="M84.6,31.8c-1.6,0-2.9-0.1-4-0.4l0,0c-1.2-0.2-2.2-0.6-3-1l0,0l-0.4-0.2l1.2-4.1l0.5,0.1
				c2.2,0.6,4.1,0.9,5.7,0.9l0,0c2.2,0,3.7-0.3,4.3-0.7l0,0c0.8-0.5,1.3-1.3,1.3-2.8l0,0v-9.5c0-0.8-0.5-1.7-1.7-2.8l0,0
				c-1-0.8-2.1-1.5-3.4-1.9l0,0c-1.8-0.6-3.1-1.6-3.9-3l0,0c-0.7-1.3-1.1-3.2-1.1-5.6l0,0V0.3h4.8v0.6c0,1.8,0.3,3,0.9,3.6l0,0
				c0.3,0.3,1,0.8,2.2,1.4l0,0c1.6,0.8,3,1.7,4.2,2.8l0,0c1.5,1.4,2.4,2.8,2.6,4.5l0,0l0,0v9.5c0,2.6-0.4,4.5-1.4,5.8l0,0
				C91.9,30.7,88.9,31.8,84.6,31.8L84.6,31.8C84.6,31.8,84.6,31.8,84.6,31.8L84.6,31.8z M80.8,30.3c1,0.2,2.3,0.4,3.8,0.4l0,0
				c4.1,0,6.7-1,8.1-2.8l0,0c0.7-1,1.2-2.7,1.2-5.1l0,0v-9.5c-0.2-1.3-0.9-2.5-2.3-3.8l0,0c-1.1-1-2.4-1.8-3.9-2.6l0,0
				c-1.2-0.6-2.1-1.1-2.6-1.7l0,0c-0.7-0.9-1-2.1-1.1-3.8l0,0h-2.6c0,2,0.4,3.5,0.9,4.5l0,0c0.6,1.1,1.6,1.9,3.2,2.4l0,0
				c1.4,0.5,2.7,1.2,3.8,2.1l0,0c1.3,1.1,2,2.3,2,3.6l0,0v9.5c0,1.7-0.6,3.1-1.8,3.8l0,0c-1,0.6-2.6,0.8-4.9,0.8l0,0
				c-1.6,0-3.4-0.3-5.5-0.8l0,0l-0.7,2.2C79.2,29.9,79.9,30.1,80.8,30.3L80.8,30.3z"/>
		</g>
		<g>
			<path class="st1" d="M118.4,11.2v4.5h-3.5v-3.8c0-2.5-0.7-4.4-2.2-5.7c-1.2-1.1-2.8-1.7-4.6-1.7c-1.7,0-3.1,0.7-4.2,2
				c-1.2,1.4-1.8,3.2-1.8,5.4v9.6c0,1.6,0.6,3,1.9,4c1.2,1,2.8,1.6,4.8,1.6c1,0,1.9-0.1,2.8-0.2c0.8-0.1,1.9-0.4,3.1-0.7l1,3.2
				c-0.8,0.4-1.7,0.7-2.8,1c-1.1,0.2-2.4,0.4-4,0.4c-3.2,0-5.7-0.9-7.6-2.6c-2-1.9-3-4.2-3-7V10.1c0-2.6,1-4.8,3-6.6
				c2-1.7,4.3-2.6,6.9-2.6c2.5,0,4.7,0.7,6.6,2.2C117.2,5,118.4,7.7,118.4,11.2z"/>
			<path class="st1" d="M100.9,28.4c-2.1-2-3.2-4.5-3.2-7.4l0,0V10.1c0-2.8,1.1-5.2,3.2-7l0,0c2.1-1.8,4.5-2.8,7.3-2.7l0,0
				c2.6,0,4.9,0.8,6.9,2.3l0,0c2.6,2,3.9,4.9,3.9,8.5l0,0v5h-4.6v-4.4c0-2.4-0.7-4.1-2-5.3l0,0c-1.1-1-2.5-1.5-4.2-1.5l0,0
				c-1.5,0-2.7,0.6-3.8,1.8l0,0c-1.1,1.3-1.7,2.9-1.7,5l0,0v9.6c0,1.5,0.5,2.6,1.7,3.6l0,0c1.1,0.9,2.6,1.4,4.4,1.4l0,0
				c0.9,0,1.8-0.1,2.7-0.2l0,0c0.8-0.1,1.8-0.4,3-0.7l0,0l0.5-0.2l1.2,4.2l-0.4,0.2c-0.8,0.4-1.8,0.7-2.9,1l0,0
				c-1.2,0.2-2.5,0.4-4.1,0.4l0,0c0,0,0,0,0,0l0,0C105.5,31.1,102.8,30.2,100.9,28.4L100.9,28.4z M101.6,4c-1.9,1.7-2.8,3.7-2.8,6.2
				l0,0V21c0,2.6,0.9,4.8,2.9,6.6l0,0c1.7,1.6,4,2.4,7.2,2.4l0,0c1.5,0,2.8-0.1,3.9-0.3l0,0c0.9-0.2,1.6-0.4,2.3-0.7l0,0l-0.7-2.2
				c-1,0.3-1.9,0.5-2.6,0.6l0,0c-0.9,0.2-1.9,0.2-2.9,0.2l0,0c-2.1,0-3.8-0.6-5.2-1.7l0,0c-1.4-1.1-2.1-2.7-2.1-4.4l0,0v-9.6
				c0-2.3,0.6-4.2,1.9-5.8l0,0c1.2-1.5,2.8-2.2,4.7-2.2l0,0c2,0,3.7,0.6,5,1.8l0,0c1.6,1.4,2.4,3.6,2.3,6.2l0,0v3.3h2.4v-3.9
				c0-3.4-1.1-5.8-3.4-7.6l0,0c-1.8-1.4-3.9-2.1-6.3-2.1l0,0C105.7,1.5,103.5,2.3,101.6,4L101.6,4z"/>
		</g>
		<g>
			<path class="st1" d="M135.5,7.5c2.8,0,4.7,1,5.7,2.9c0.8,1.4,1.1,3.8,1.1,7l0,3.4c0,2.6-0.7,4.8-2.2,6.6
				c-1.8,2.2-4.4,3.2-7.8,3.2h-0.4c-3.2,0-5.7-1.3-7.5-3.8c-1.4-2-2.1-4-2.1-6.1v-9.8h4v7.9c0,2.5,0.4,4.5,1.3,5.9
				c1,1.7,2.5,2.5,4.4,2.5c1.6,0,3-0.3,4-1c1.6-1,2.5-2.7,2.8-5.1l0.1-3.2v-1.6c0-1.7-0.2-2.9-0.5-3.7c-0.5-1.2-1.5-1.8-3-1.8V16
				l-4,1.9V0.9h3.9V7.5z"/>
			<path class="st1" d="M124.2,27.2c-1.5-2-2.3-4.2-2.3-6.5l0,0V10.3h5.1v8.5c0,2.4,0.4,4.3,1.2,5.6l0,0c0.9,1.5,2.2,2.2,4,2.2l0,0
				c1.5,0,2.8-0.3,3.7-0.9l0,0c1.4-0.9,2.2-2.4,2.5-4.6l0,0l0.1-3.2v-1.6c0-1.7-0.2-2.8-0.5-3.4l0,0c-0.4-0.8-0.9-1.3-1.9-1.4l0,0v5
				l-5.1,2.5V0.4h5.1V7c2.6,0.1,4.6,1.2,5.7,3.2l0,0c0.8,1.6,1.2,4,1.2,7.3l0,0l0,3.4c0,2.7-0.8,5.1-2.3,7l0,0
				c-1.9,2.3-4.7,3.5-8.2,3.5l0,0h-0.4c0,0,0,0,0,0l0,0C128.7,31.2,126,29.8,124.2,27.2L124.2,27.2z M123,20.7c0,2,0.7,3.9,2,5.8
				l0,0c1.7,2.4,4,3.6,7,3.6l0,0h0.4c3.3,0,5.7-1,7.3-3l0,0c1.4-1.7,2.1-3.7,2.1-6.2l0,0l0-3.4c0-3.2-0.4-5.5-1.1-6.7l0,0
				c-0.9-1.7-2.5-2.6-5.2-2.6l0,0h-0.6V1.5h-2.8v15.6l2.8-1.4v-5.4h0.6c1.6,0,2.9,0.7,3.5,2.1l0,0c0.4,0.9,0.6,2.2,0.6,3.9l0,0v1.6
				l-0.1,3.3l0,0c-0.3,2.5-1.3,4.4-3,5.5l0,0c-1.2,0.7-2.6,1.1-4.3,1.1l0,0c-2.1,0-3.9-0.9-4.9-2.8l0,0c-0.9-1.5-1.3-3.6-1.3-6.2
				l0,0v-7.4H123V20.7L123,20.7z"/>
		</g>
		<g>
			<path class="st1" d="M162.3,22.7c0,2.5-0.4,4.3-1.3,5.5c-1.5,2-4.3,3-8.5,3c-1.5,0-2.8-0.1-3.9-0.4c-1.1-0.2-2.1-0.6-2.8-0.9
				l0.9-3.2c2.2,0.6,4.2,0.9,5.8,0.9c2.2,0,3.8-0.2,4.6-0.7c1-0.6,1.5-1.7,1.5-3.3v-9.5c0-1-0.6-2.1-1.9-3.2c-1-0.9-2.2-1.6-3.6-2
				c-1.7-0.6-2.9-1.5-3.5-2.7c-0.7-1.2-1-3-1-5.3h3.7c0,1.8,0.3,3.2,1,4c0.4,0.4,1.2,0.9,2.4,1.5c1.6,0.8,2.9,1.7,4.1,2.7
				c1.4,1.3,2.2,2.7,2.5,4.1V22.7z"/>
			<path class="st1" d="M148.5,31.4c-1.2-0.2-2.1-0.6-3-1l0,0l-0.4-0.2l1.2-4.1l0.5,0.2c2.2,0.6,4.1,0.9,5.7,0.9l0,0
				c2.2,0,3.7-0.3,4.3-0.7l0,0c0.8-0.5,1.3-1.3,1.3-2.8l0,0v-9.5c0-0.8-0.5-1.7-1.7-2.8l0,0c-1-0.8-2.1-1.5-3.4-1.9l0,0
				c-1.8-0.6-3.1-1.6-3.9-3l0,0c-0.7-1.3-1.1-3.2-1.1-5.6l0,0V0.3h4.8v0.6c0,1.8,0.3,3,0.9,3.6l0,0c0.3,0.3,1,0.8,2.2,1.4l0,0
				c1.6,0.8,3,1.7,4.2,2.8l0,0c1.5,1.4,2.4,2.8,2.6,4.5l0,0l0,0v9.5c0,2.6-0.4,4.5-1.4,5.8l0,0c-1.6,2.3-4.7,3.3-9,3.3l0,0
				C151,31.8,149.6,31.6,148.5,31.4L148.5,31.4z M148.7,30.3c1,0.2,2.3,0.4,3.8,0.4l0,0c4.1,0,6.7-1,8.1-2.8l0,0
				c0.7-1,1.2-2.7,1.2-5.1l0,0v-9.5c-0.2-1.3-0.9-2.5-2.3-3.8l0,0c-1.1-1-2.4-1.8-3.9-2.6l0,0c-1.2-0.6-2.1-1.1-2.6-1.7l0,0
				c-0.7-0.9-1-2.1-1.1-3.8l0,0h-2.6c0,2,0.4,3.5,0.9,4.5l0,0c0.6,1.1,1.6,1.9,3.2,2.4l0,0c1.4,0.5,2.7,1.2,3.8,2.1l0,0
				c1.3,1.1,2,2.3,2,3.6l0,0v9.5c0,1.7-0.6,3.1-1.8,3.8l0,0c-1,0.6-2.6,0.8-4.9,0.8l0,0c-1.6,0-3.4-0.3-5.5-0.8l0,0l-0.7,2.2
				C147.1,29.9,147.8,30.1,148.7,30.3L148.7,30.3z"/>
		</g>
		<g>
			<path class="st1" d="M190.9,14.5l0.3-3.5c2.2,0,4.1,0.8,5.9,2.4c2.1,1.9,3.1,4.3,3.1,7.4v0.5c0,2.6-0.7,4.8-2.2,6.6
				c-1.8,2.2-4.4,3.3-7.8,3.3h-0.4c-3.2,0-5.7-1.3-7.5-3.8c-1.4-2-2.1-4-2.1-6.2V0.9h4v18.3c0,2.5,0.4,4.5,1.3,5.9
				c1,1.7,2.5,2.5,4.4,2.5c1.6,0,3-0.3,4-1c1.6-1,2.5-2.7,2.8-5.1l0.1-0.5c0-2-0.6-3.6-1.9-4.8C193.8,15,192.5,14.5,190.9,14.5z"/>
			<path class="st1" d="M182,27.6c-1.5-2-2.3-4.2-2.2-6.5l0,0V0.4h5.1v18.9c0,2.4,0.4,4.3,1.2,5.6l0,0c0.9,1.5,2.2,2.2,4,2.2l0,0
				c1.5,0,2.8-0.3,3.7-0.9l0,0c1.4-0.9,2.2-2.4,2.5-4.7l0,0l0.1-0.5c0-1.8-0.6-3.2-1.7-4.4l0,0c-1.1-1.1-2.2-1.6-3.6-1.6l0,0v-0.6
				l0.6,0l-0.6,0V15h-0.6l0.4-4.6h0.5c2.3,0,4.4,0.9,6.3,2.5l0,0c2.2,2,3.3,4.6,3.3,7.8l0,0v0.5c0,2.7-0.8,5.1-2.3,7l0,0
				c-1.9,2.3-4.7,3.5-8.2,3.5l0,0h-0.4c0,0,0,0,0,0l0,0C186.6,31.7,183.9,30.3,182,27.6L182,27.6z M180.9,21.1c0,2,0.7,3.9,2,5.8
				l0,0c1.7,2.4,4,3.5,7,3.6l0,0h0.4c3.3,0,5.7-1,7.3-3.1l0,0c1.4-1.7,2.1-3.7,2.1-6.2l0,0v-0.5c0-2.9-1-5.2-3-7l0,0
				c-1.5-1.4-3.2-2.1-5-2.2l0,0l-0.2,2.4c1.4,0.1,2.7,0.8,3.8,1.9l0,0c1.4,1.4,2.1,3.2,2.1,5.2l0,0v0.1l0,0l-0.1,0.5
				c-0.3,2.5-1.3,4.4-3,5.5l0,0c-1.2,0.7-2.6,1.1-4.3,1.1l0,0c-2.1,0-3.9-1-4.9-2.8l0,0c-0.9-1.5-1.3-3.6-1.3-6.2l0,0l0-17.8h-2.8
				V21.1L180.9,21.1z"/>
		</g>
		<g>
			<path class="st1" d="M219.5,8.5V18h-3.4V8.6c0-1.4-0.3-2.5-0.9-3.3c-0.7-0.8-1.6-1.2-2.9-1.2c-1.5,0.1-2.5,0.7-3.1,1.7
				c-0.5,0.8-0.7,1.8-0.7,3.1v21.6h-3.5V7.3c0-1.8,0.7-3.3,2-4.6c1.3-1.2,3.1-1.8,5.3-1.8c1.5,0,2.7,0.2,3.5,0.6
				c0.8,0.4,1.5,1,2,1.9c0.5-0.7,1.3-1.3,2.1-1.7c1.1-0.5,2.4-0.8,3.7-0.8c1.9,0,3.5,0.5,4.9,1.6c1.4,1.1,2.1,2.5,2.1,4.1v23.9h-3.5
				V8.9c0-1.3-0.2-2.4-0.7-3.1c-0.6-1-1.6-1.5-3.1-1.7c-1.3,0-2.2,0.4-2.9,1.2C219.8,6,219.5,7.1,219.5,8.5z"/>
			<path class="st1" d="M226.5,31V8.9c0-1.3-0.2-2.2-0.6-2.8l0,0c-0.5-0.8-1.3-1.3-2.7-1.4l0,0c-1.1,0-1.9,0.4-2.4,1l0,0
				c-0.5,0.6-0.7,1.5-0.7,2.9l0,0v10.1h-4.5v-10c0-1.3-0.3-2.3-0.8-2.9l0,0c-0.5-0.7-1.3-1-2.4-1l0,0c-1.4,0.1-2.2,0.6-2.7,1.4l0,0
				c-0.4,0.6-0.6,1.6-0.6,2.8l0,0V31h-4.6V7.3c0-2,0.8-3.7,2.2-5l0,0c1.5-1.3,3.4-1.9,5.7-1.9l0,0c1.6,0,2.8,0.2,3.7,0.7l0,0
				c0.7,0.4,1.3,0.9,1.8,1.5l0,0c0.5-0.5,1.1-1,1.8-1.3l0,0c1.2-0.6,2.5-0.9,4-0.9l0,0c2,0,3.7,0.6,5.2,1.7l0,0
				c1.5,1.2,2.3,2.7,2.3,4.5l0,0V31H226.5L226.5,31z M223.2,3.5L223.2,3.5L223.2,3.5c1.6,0.2,2.9,0.8,3.6,1.9l0,0
				c0.6,0.9,0.8,2,0.8,3.4l0,0l0,21h2.3V6.6c0-1.5-0.6-2.6-1.9-3.6l0,0c-1.3-1-2.8-1.5-4.5-1.5l0,0c-1.3,0-2.4,0.3-3.5,0.7l0,0
				c-0.8,0.4-1.4,0.9-1.9,1.6l0,0l-0.5,0.7l-0.4-0.7c-0.5-0.8-1.1-1.3-1.8-1.7l0,0c-0.7-0.4-1.8-0.6-3.2-0.6l0,0
				c-2.1,0-3.7,0.6-4.9,1.6l0,0c-1.2,1.1-1.8,2.5-1.9,4.2l0,0v22.6h2.4v-21c0-1.4,0.3-2.5,0.8-3.4l0,0c0.7-1.1,2-1.8,3.5-1.9l0,0
				l0,0h0c1.4,0,2.6,0.5,3.3,1.4l0,0c0.7,0.9,1,2.1,1,3.6l0,0v8.9h2.3V8.5c0-1.5,0.3-2.7,1-3.6l0,0C220.7,4,221.8,3.5,223.2,3.5
				L223.2,3.5C223.2,3.5,223.2,3.5,223.2,3.5L223.2,3.5z"/>
		</g>
		<g>
			<path class="st1" d="M261.9,8.1c0-1.3-0.3-2.3-1-2.9c-0.7-0.6-1.5-0.9-2.5-0.9c-0.9,0-1.6,0.3-2.3,0.8c-0.7,0.5-1.1,1.2-1.4,2
				c0.4,1.2,0.6,2.5,0.6,3.9c0,2.5-0.8,4.8-2.4,6.8c-1.9,2.3-4.3,3.4-7.2,3.4c-3.5,0-6.2-1-8-3.1c-1.7-1.9-2.5-4.4-2.5-7.5
				c0-2.9,1-5.3,2.9-7.2c2-1.8,4.3-2.7,7-2.7c1.4,0,2.7,0.2,4.1,0.7c1.3,0.5,2.4,1.2,3.4,2.2c0.5-0.7,1.3-1.3,2.1-1.8
				c1.1-0.5,2.3-0.8,3.7-0.8c1.9,0,3.5,0.5,4.9,1.6c1.4,1.1,2.1,2.5,2.1,4.1c0,0.2,0.2,0.8,0.2,1.6c0.1,0.8,0,1.5,0,2
				c0,2.1-0.1,3.9-0.4,5.3c-0.4,1.9-1,3.2-1.8,3.8c0.7,0.7,1.2,1.1,1.4,1.4c0.5,0.7,0.8,1.7,0.8,3.2c0,1.4-0.6,2.7-1.7,3.8
				c-1.8,1.8-4.7,2.7-8.7,2.7c-2.1,0-4.4-0.2-7-0.7c-2.6-0.5-4.3-0.9-5-1.3l1-3.2c1,0.3,2.8,0.6,5.7,1.1c2.8,0.4,4.6,0.6,5.4,0.6
				c2,0,3.6-0.3,4.9-0.8c1.3-0.5,1.9-1.1,1.9-2c0-1-0.2-1.7-0.5-2.3c-0.5-0.7-1.2-1.1-2.3-1.2h-1.4v-3.4h0.2c1.5,0,2.6-0.7,3.3-2
				c0.5-1,0.8-2.5,0.8-4.5L261.9,8.1z M238.9,10.7c0,1.9,0.4,3.4,1.2,4.7c1.1,1.6,2.7,2.4,4.9,2.4c2,0,3.5-0.5,4.5-1.4
				c1.3-1.2,1.9-3.1,1.9-5.7c0-1.9-0.5-3.5-1.6-4.7c-1.1-1.1-2.7-1.7-4.8-1.7c-2.1,0-3.7,0.7-4.8,2.1C239.3,7.6,238.9,9,238.9,10.7z
				"/>
			<path class="st1" d="M248,30.4c-2.6-0.5-4.3-0.9-5.2-1.4l0,0l-0.4-0.2l1.2-4.2l0.5,0.2c0.9,0.3,2.8,0.6,5.6,1l0,0
				c2.8,0.4,4.6,0.6,5.3,0.6l0,0c2,0,3.5-0.3,4.7-0.7l0,0c1.2-0.5,1.5-0.9,1.5-1.5l0,0c0-0.9-0.2-1.6-0.4-1.9l0,0
				c-0.3-0.5-0.9-0.8-1.9-0.9l0,0h-1.9v-4.5h0.6h0.2c1.3,0,2.2-0.5,2.8-1.7l0,0c0.5-0.9,0.7-2.3,0.7-4.2l0,0l-0.1-2.8l0.6,0h-0.6
				c0-1.2-0.3-2-0.8-2.5l0,0c-0.6-0.5-1.2-0.7-2.2-0.7l0,0c-0.8,0-1.4,0.2-2,0.7l0,0c-0.5,0.4-0.9,1-1.2,1.6l0,0
				c0.4,1.2,0.6,2.5,0.6,3.9l0,0c0,2.7-0.9,5.1-2.5,7.1l0,0c-2,2.4-4.6,3.6-7.7,3.6l0,0c-3.6,0-6.5-1.1-8.5-3.3l0,0
				c-1.8-2-2.7-4.7-2.7-7.9l0,0c0-3.1,1-5.6,3.1-7.6l0,0c2-1.9,4.6-2.9,7.4-2.9l0,0c1.4,0,2.9,0.2,4.3,0.7l0,0
				c1.2,0.4,2.2,1.1,3.2,1.9l0,0c0.5-0.6,1.2-1.1,1.9-1.4l0,0c1.2-0.6,2.5-0.9,4-0.9l0,0c2,0,3.7,0.6,5.2,1.7l0,0
				c1.5,1.2,2.3,2.7,2.3,4.5l0,0c0,0.2,0.2,0.8,0.2,1.6l0,0c0,0.2,0,0.4,0,0.6l0,0c0,0.6,0,1.1,0,1.4l0,0c0,2.2-0.1,4-0.4,5.4l0,0
				c-0.3,1.6-0.8,2.9-1.5,3.7l0,0c0.5,0.5,0.8,0.8,1,1l0,0c0.7,0.8,0.9,2,0.9,3.5l0,0c0,1.6-0.7,3-1.9,4.2l0,0
				c-1.9,1.9-5,2.8-9.1,2.8l0,0C253,31.1,250.6,30.9,248,30.4L248,30.4z M248.2,29.3c2.6,0.5,4.9,0.7,6.9,0.7l0,0
				c3.9,0,6.7-0.9,8.3-2.5l0,0c1.1-1.1,1.6-2.2,1.6-3.4l0,0c0-1.4-0.3-2.3-0.7-2.8l0,0c-0.2-0.2-0.6-0.6-1.3-1.3l0,0l-0.5-0.5
				l0.5-0.4c0.6-0.5,1.2-1.6,1.6-3.5l0,0c0.3-1.3,0.4-3.1,0.4-5.2l0,0c0-0.5,0-0.9,0-1.4l0,0c0-0.2,0-0.4,0-0.5l0,0
				c-0.1-0.8-0.2-1.3-0.2-1.6l0,0l0,0v0c0-1.5-0.6-2.6-1.9-3.6l0,0c-1.3-1-2.8-1.5-4.5-1.5l0,0c-1.3,0-2.5,0.3-3.5,0.8l0,0
				c-0.8,0.4-1.4,0.9-1.9,1.6l0,0l-0.4,0.5l-0.5-0.5c-0.9-0.9-2-1.6-3.2-2.1l0,0c-1.3-0.4-2.6-0.7-3.9-0.7l0,0
				c-2.6,0-4.8,0.8-6.6,2.6l0,0c-1.8,1.7-2.8,3.9-2.8,6.7l0,0c0,3,0.8,5.4,2.4,7.1l0,0c1.7,1.9,4.2,2.9,7.6,2.9l0,0
				c2.8,0,5-1.1,6.8-3.2l0,0c1.5-1.9,2.3-4,2.3-6.4l0,0c0-1.4-0.2-2.6-0.6-3.7l0,0l-0.1-0.2l0.1-0.2c0.3-0.9,0.8-1.7,1.6-2.3l0,0
				c0.8-0.6,1.7-0.9,2.7-0.9l0,0c1.1,0,2.1,0.3,2.9,1l0,0c0.8,0.8,1.1,1.9,1.1,3.3l0,0l0,0l0.1,2.9c0,2-0.3,3.6-0.8,4.7l0,0
				c-0.7,1.4-1.9,2.2-3.4,2.3l0,0v2.3h0.8l0,0c1.2,0.1,2.1,0.6,2.7,1.4l0,0c0.4,0.7,0.6,1.5,0.6,2.6l0,0c0,1.2-0.9,2.1-2.3,2.6l0,0
				c-1.4,0.6-3.1,0.8-5.1,0.8l0,0c-0.9,0-2.7-0.2-5.5-0.6l0,0c-2.4-0.4-4.1-0.7-5.2-0.9l0,0l-0.6,2.2
				C244.6,28.5,246.1,28.9,248.2,29.3L248.2,29.3z M239.6,15.7c-0.9-1.3-1.3-3-1.3-5l0,0c0-1.8,0.5-3.4,1.5-4.6l0,0
				c1.2-1.6,3-2.3,5.2-2.3l0,0c2.1,0,3.9,0.6,5.2,1.9l0,0c1.2,1.3,1.8,3,1.8,5l0,0c0,2.7-0.7,4.7-2.1,6.1l0,0
				c-1.2,1.1-2.8,1.6-4.9,1.6l0,0c0,0,0,0-0.1,0l0,0C242.7,18.4,240.8,17.4,239.6,15.7L239.6,15.7z M240.6,15c1,1.5,2.4,2.2,4.5,2.2
				l0,0c1.9,0,3.2-0.5,4.1-1.3l0,0c1.1-1,1.7-2.7,1.7-5.2l0,0c0-1.8-0.5-3.2-1.5-4.3l0,0c-1-1-2.4-1.5-4.3-1.6l0,0
				c-2,0-3.4,0.6-4.4,1.9l0,0c-0.8,1-1.2,2.3-1.2,3.9l0,0C239.4,12.5,239.8,13.9,240.6,15L240.6,15z"/>
		</g>
		<g>
			<path class="st1" d="M320,8.3v1.4c0,0.8-0.1,1.5-0.4,2.2c-0.4,0.9-1.2,2.1-2.4,3.5c1.2,0.7,2,1.8,2.5,3.4c0.2,0.9,0.4,2,0.4,3.4
				c0,2.5-1,4.5-2.9,6.1c-1.8,1.5-4.3,2.2-7.5,2.2l-0.9,0c-1.3,0-2.4-0.1-3.3-0.4c-1-0.3-1.8-0.6-2.6-1l1-3.2c2.2,0.6,4.2,1,5.8,1
				c1.9,0,3.4-0.5,4.6-1.6c1.1-1,1.8-2.3,2.1-4c0-1.3-0.2-2.3-0.5-2.9c-0.5-0.8-1.2-1.2-2.2-1.2H310V14h2.5c1.4,0,2.3-0.5,2.9-1.4
				c0.5-0.7,0.7-1.8,0.7-3.1c0-1.4-0.3-2.6-1-3.5c-0.8-1.1-1.9-1.6-3.4-1.6c-1.4,0-2.5,0.5-3.3,1.4c-0.9,0.9-1.4,2.1-1.5,3.4h-3.5
				c0-2.3,0.8-4.3,2.4-5.9c1.5-1.6,3.6-2.3,6.3-2.3c1.8,0,3.4,0.5,4.9,1.5C319,3.8,320,5.7,320,8.3z"/>
			<path class="st1" d="M305.3,30.8c-1-0.3-1.9-0.6-2.7-1l0,0l-0.4-0.2l1.2-4.2l0.5,0.2c2.2,0.6,4.1,0.9,5.7,0.9l0,0
				c1.8,0,3.1-0.5,4.2-1.5l0,0c1-0.9,1.6-2,1.9-3.6l0,0c0-1.2-0.2-2.1-0.5-2.6l0,0c-0.4-0.6-0.8-0.9-1.7-0.9l0,0h-4.2v-4.5h3.1
				c1.2,0,1.9-0.4,2.4-1.1l0,0c0.4-0.6,0.6-1.5,0.6-2.8l0,0c0-1.3-0.3-2.4-0.9-3.2l0,0c-0.7-0.9-1.6-1.4-3-1.4l0,0
				c-1.3,0-2.2,0.4-2.9,1.2l0,0c-0.8,0.8-1.2,1.9-1.4,3.1l0,0l-0.1,0.5h-4.5V9.1c0-2.5,0.9-4.6,2.5-6.3l0,0c1.6-1.7,3.9-2.5,6.7-2.5
				l0,0c1.9,0,3.7,0.5,5.3,1.6l0,0c2.2,1.5,3.4,3.7,3.4,6.4l0,0v1.4c0,0.9-0.1,1.7-0.4,2.4l0,0c-0.4,0.9-1.1,1.9-2,3.1l0,0
				c1,0.8,1.8,1.9,2.2,3.4l0,0c0.3,0.9,0.4,2.1,0.4,3.6l0,0c0,2.6-1.1,4.9-3.1,6.6l0,0c-1.9,1.6-4.6,2.3-7.8,2.3l0,0l-0.9,0
				C307.4,31.2,306.3,31,305.3,30.8L305.3,30.8z M305.6,29.7c0.9,0.2,1.9,0.4,3.1,0.4l0,0l0.9,0c3.1,0,5.4-0.7,7.1-2.1l0,0
				c1.8-1.5,2.7-3.4,2.7-5.7l0,0c0-1.4-0.1-2.5-0.3-3.3l0,0c-0.4-1.5-1.1-2.4-2.2-3.1l0,0l-0.6-0.3l0.4-0.5c1.2-1.4,1.9-2.5,2.3-3.3
				l0,0c0.2-0.6,0.4-1.2,0.4-1.9l0,0V8.3c0-2.4-0.9-4.2-2.9-5.5l0,0c-1.4-0.9-3-1.4-4.6-1.4l0,0c-2.6,0-4.5,0.7-5.9,2.2l0,0
				c-1.3,1.4-2.1,3-2.2,5l0,0h2.4c0.2-1.2,0.8-2.3,1.6-3.2l0,0c0.9-1,2.2-1.6,3.8-1.6l0,0c1.6,0,3,0.6,3.9,1.9l0,0
				c0.7,1,1.1,2.3,1.1,3.8l0,0c0,1.4-0.2,2.6-0.8,3.4l0,0c-0.7,1.1-1.9,1.7-3.4,1.7l0,0h-1.9v2.3h3.1c1.1,0,2.1,0.5,2.7,1.5l0,0
				c0.4,0.8,0.6,1.8,0.6,3.2l0,0v0l0,0c-0.3,1.8-1.1,3.2-2.3,4.3l0,0c-1.3,1.2-3,1.8-5,1.8l0,0c-1.6,0-3.4-0.3-5.5-0.8l0,0l-0.7,2.2
				C304.2,29.2,304.8,29.5,305.6,29.7L305.6,29.7z"/>
		</g>
		<g>
			<path class="st1" d="M328.3,9.2h-3.5c0-2.3,0.8-4.3,2.4-5.9c1.5-1.6,3.6-2.3,6.3-2.3c1.8,0,3.4,0.5,4.9,1.5
				c2.1,1.4,3.1,3.4,3.1,6V21c0,2.8-1,5.1-2.9,6.9c-1.9,1.8-4.5,2.7-7.7,2.7c-1.5,0-2.9-0.1-3.9-0.4c-1.1-0.3-2.1-0.6-2.9-1l1-3.2
				c2.2,0.6,4.2,1,5.8,1c1.9,0,3.5-0.5,4.8-1.6c1.3-1.1,1.9-2.4,1.9-4l0-12c0-1.4-0.3-2.6-1-3.5c-0.8-1.1-1.9-1.6-3.4-1.6
				c-1.4,0-2.5,0.5-3.3,1.4C329,6.7,328.5,7.8,328.3,9.2z"/>
			<path class="st1" d="M331,31.1c-1.6,0-2.9-0.1-4.1-0.4l0,0c-1.2-0.3-2.1-0.6-3-1l0,0l-0.4-0.2l1.2-4.2l0.5,0.2
				c2.2,0.6,4.1,0.9,5.7,0.9l0,0c1.8,0,3.3-0.5,4.4-1.4l0,0c1.2-1,1.7-2.1,1.7-3.6l0,0l0-12c0-1.3-0.3-2.4-0.9-3.2l0,0
				c-0.7-0.9-1.6-1.4-3-1.4l0,0c-1.3,0-2.2,0.4-2.9,1.2l0,0c-0.8,0.8-1.2,1.9-1.4,3.1l0,0l-0.1,0.5h-4.5V9.1c0-2.5,0.8-4.6,2.5-6.3
				l0,0c1.6-1.7,3.9-2.5,6.7-2.5l0,0c1.9,0,3.7,0.5,5.3,1.6l0,0c2.2,1.5,3.4,3.7,3.4,6.4l0,0V21c0,2.9-1,5.4-3,7.3l0,0
				C337.1,30.2,334.4,31.1,331,31.1L331,31.1C331,31.1,331,31.1,331,31.1L331,31.1z M327.2,29.7c1,0.2,2.3,0.3,3.8,0.3l0,0
				c3.1,0,5.5-0.9,7.3-2.6l0,0c1.8-1.7,2.7-3.8,2.7-6.5l0,0V8.3c0-2.4-0.9-4.2-2.9-5.5l0,0c-1.4-0.9-3-1.4-4.6-1.4l0,0
				c-2.6,0-4.5,0.7-5.9,2.2l0,0c-1.3,1.4-2.1,3-2.2,5l0,0h2.4c0.2-1.2,0.8-2.3,1.6-3.2l0,0c0.9-1,2.2-1.6,3.8-1.6l0,0
				c1.6,0,3,0.6,3.9,1.9l0,0c0.8,1,1.1,2.3,1.1,3.8l0,0l0,12c0,1.8-0.7,3.3-2.1,4.4l0,0c-1.4,1.1-3.1,1.7-5.2,1.7l0,0
				c-1.6,0-3.4-0.3-5.5-0.8l0,0l-0.7,2.2C325.6,29.2,326.3,29.5,327.2,29.7L327.2,29.7z M328.3,9.1V8.6V9.1L328.3,9.1z"/>
		</g>
		<g>
			<path class="st1" d="M361.1,22.7c0,2.5-0.4,4.3-1.3,5.5c-1.5,2-4.3,3-8.5,3c-1.5,0-2.8-0.1-3.9-0.4c-1.1-0.2-2.1-0.6-2.8-0.9
				l0.9-3.2c2.2,0.6,4.2,0.9,5.8,0.9c2.2,0,3.8-0.2,4.6-0.7c1-0.6,1.5-1.7,1.5-3.3v-9.5c0-1-0.6-2.1-1.9-3.2c-1-0.9-2.2-1.6-3.6-2
				c-1.7-0.6-2.9-1.5-3.5-2.7c-0.7-1.2-1-3-1-5.3h3.7c0,1.8,0.3,3.2,1,4c0.4,0.4,1.2,0.9,2.4,1.5c1.6,0.8,2.9,1.7,4.1,2.7
				c1.4,1.3,2.2,2.7,2.5,4.1V22.7z"/>
			<path class="st1" d="M347.3,31.4c-1.2-0.2-2.2-0.6-3-1l0,0l-0.4-0.2l1.2-4.1l0.5,0.2c2.2,0.6,4.1,0.9,5.7,0.9l0,0
				c2.2,0,3.7-0.3,4.3-0.7l0,0c0.8-0.5,1.3-1.3,1.3-2.8l0,0v-9.5c0-0.8-0.5-1.7-1.7-2.8l0,0c-1-0.8-2.1-1.5-3.4-1.9l0,0
				c-1.8-0.6-3.1-1.6-3.8-3l0,0c-0.7-1.3-1.1-3.2-1.1-5.6l0,0V0.3h4.8v0.6c0,1.8,0.3,3,0.9,3.6l0,0c0.3,0.3,1,0.8,2.2,1.4l0,0
				c1.6,0.8,3,1.7,4.2,2.8l0,0c1.5,1.4,2.4,2.8,2.6,4.5l0,0l0,0v9.5c0,2.6-0.4,4.5-1.4,5.8l0,0c-1.6,2.3-4.7,3.3-9,3.3l0,0
				C349.8,31.8,348.4,31.6,347.3,31.4L347.3,31.4z"/>
		</g>
		<g>
			<path class="st1" d="M365.8,0.8h3.5v11.8c0.9-0.7,1.7-1.2,2.6-1.6c0.9-0.4,1.8-0.6,2.9-0.6c2.2,0,4,0.6,5.5,1.8
				c1.5,1.2,2.2,2.8,2.2,4.9v13.4h-3.5V18.9c0-1.6-0.4-2.8-1.2-3.7c-0.8-0.9-1.9-1.4-3.2-1.4c-1.8,0-3.1,0.6-4.1,1.9
				c-0.8,1-1.1,2.2-1.1,3.6v11.2h-3.5V0.8z"/>
			<path class="st1" d="M378.4,31V18.9c0-1.5-0.4-2.6-1.1-3.4l0,0c-0.7-0.8-1.6-1.2-2.8-1.2l0,0c-1.7,0-2.8,0.5-3.6,1.6l0,0
				c-0.7,0.9-1,2-1,3.2l0,0V31h-4.6V0.8V0.2h4.6v11.2c0.6-0.4,1.2-0.7,1.8-1l0,0c0.9-0.4,2-0.6,3.1-0.6l0,0c2.3,0,4.3,0.6,5.8,1.9
				l0,0c1.6,1.3,2.4,3.1,2.4,5.3l0,0v14H378.4L378.4,31z M378.1,14.8c0.9,1,1.4,2.5,1.4,4.1l0,0v11h2.4V17c0-1.9-0.7-3.4-2-4.5l0,0
				c-1.4-1.1-3-1.7-5.1-1.7l0,0c-1,0-1.9,0.2-2.7,0.5l0,0c-0.8,0.4-1.6,0.9-2.5,1.6l0,0l-0.9,0.7V1.3h-2.4v28.6h2.4V19.2
				c0-1.5,0.4-2.8,1.2-3.9l0,0c1-1.4,2.6-2.1,4.5-2.1l0,0c0,0,0,0,0,0l0,0C375.9,13.2,377.2,13.8,378.1,14.8L378.1,14.8z"/>
		</g>
		<g>
			<path class="st1" d="M387.3,30.5V9.1c0-2.3,0.8-4.3,2.4-5.9c1.5-1.6,3.6-2.4,6.3-2.4c1.8,0,3.4,0.5,4.9,1.5c2,1.4,3.1,3.4,3.1,6
				v22.2h-3.8v-21c0-1.4-0.3-2.6-1-3.5c-0.8-1.1-1.9-1.6-3.4-1.6c-1.4,0-2.5,0.5-3.3,1.4c-0.9,0.9-1.4,2.1-1.5,3.4v21.4H387.3z"/>
			<path class="st1" d="M399.5,31V9.4c0-1.3-0.3-2.4-0.9-3.2l0,0c-0.7-0.9-1.6-1.4-3-1.4l0,0c-1.3,0-2.2,0.4-2.9,1.2l0,0
				c-0.8,0.8-1.2,1.8-1.4,3.1l0,0V31h-4.1v-0.6h0.6h-0.6V31h-0.6V9.1c0-2.5,0.8-4.6,2.5-6.3l0,0c1.7-1.7,3.9-2.5,6.7-2.5l0,0
				c1.9,0,3.6,0.5,5.2,1.6l0,0c2.2,1.5,3.3,3.7,3.3,6.4l0,0V31H399.5L399.5,31z M399.6,5.6c0.7,1,1.1,2.3,1.1,3.8l0,0v20.5h2.7V8.3
				c0-2.4-0.9-4.2-2.8-5.5l0,0c-1.4-0.9-2.9-1.4-4.6-1.4l0,0c-2.6,0-4.5,0.7-5.9,2.2l0,0c-1.5,1.5-2.2,3.3-2.2,5.5l0,0v20.8h2.4V9.1
				l0,0c0.2-1.5,0.8-2.7,1.7-3.7l0,0c0.9-1,2.2-1.6,3.8-1.6l0,0c0,0,0,0,0,0l0,0C397.3,3.7,398.7,4.4,399.6,5.6L399.6,5.6z"/>
		</g>
	</g>
	<g>
		<rect x="327.7" y="46.2" class="st3" width="10.5" height="2.5"/>
		<g>
			<path class="st1" d="M98.3,48.6c0-2.9,0.9-5.4,2.6-7.4c1.7-2,4.1-3,7.2-3c2.9,0,5.4,1,7.3,3c1.9,2,2.9,4.7,2.9,8v18.6h-4V54.4
				h-11.7v-3.9h11.7v-1.1c0-2.5-0.5-4.5-1.6-5.8c-1.1-1.3-2.5-2-4.3-2c-1.8,0-3.1,0.4-4,1.3c-0.9,0.9-1.5,1.8-1.8,2.9
				c-0.2,0.5-0.3,1-0.3,1.5c-0.1,0.5-0.1,0.9-0.1,1.3v19.1h-3.9V48.6z"/>
			<path class="st1" d="M113.8,68.2V54.9h-11.2v13.3h-4.7V48.6c0-3,0.9-5.6,2.7-7.7l0,0c1.8-2.1,4.4-3.1,7.6-3.1l0,0
				c3,0,5.6,1,7.6,3.1l0,0c2,2.1,3,4.9,3,8.3l0,0v19H113.8L113.8,68.2z M103,54h11.7v13.3h3.1V49.2c0-3.3-0.9-5.8-2.7-7.7l0,0
				c-1.8-1.9-4.1-2.8-7-2.8l0,0c-3,0-5.3,1-6.9,2.8l0,0c-1.6,1.9-2.4,4.3-2.4,7.1l0,0v18.8h3V48.6c0-0.4,0-0.8,0.1-1.3l0,0
				c0.1-0.5,0.2-1,0.3-1.6l0,0c0.4-1.1,1-2.1,2-3l0,0c1-1,2.5-1.4,4.3-1.4l0,0c1.9,0,3.5,0.7,4.6,2.1l0,0c1.1,1.4,1.7,3.4,1.7,6l0,0
				v1.5H103V54L103,54z M104.7,43.3c-0.8,0.8-1.4,1.7-1.7,2.7l0,0c-0.1,0.5-0.2,0.9-0.3,1.4l0,0c-0.1,0.5-0.1,0.9-0.1,1.2l0,0v1.5
				l11.2,0v-0.6c0-2.5-0.5-4.3-1.5-5.5l0,0c-1-1.2-2.2-1.8-3.9-1.8l0,0C106.7,42.2,105.5,42.6,104.7,43.3L104.7,43.3z"/>
		</g>
		<g>
			<path class="st1" d="M129.2,38.8v19c0,1.8,0.4,3.4,1.1,4.7c0.7,1.3,2.2,1.9,4.4,1.9c0.1,0,0.1,0,0.2,0c0,0,0.1,0,0.2,0h0
				c0.1,0,0.1,0,0.2,0c0.1,0,0.1,0,0.1,0l3.3,0v3.5h-4.6c-0.5,0-1,0-1.7-0.1c-0.6-0.1-1.2-0.3-1.9-0.5c-1.3-0.5-2.5-1.3-3.6-2.5
				c-1.1-1.2-1.7-2.9-1.7-5.2V38.8H129.2z"/>
			<path class="st1" d="M132.4,68.1c-0.6-0.1-1.3-0.3-2-0.5l0,0c-1.4-0.5-2.7-1.4-3.8-2.6l0,0c-1.2-1.3-1.8-3.2-1.8-5.5l0,0v-21h4.3
				v0.4v-0.4h0.4v19.4c0,1.8,0.4,3.3,1.1,4.5l0,0c0.7,1.1,1.9,1.7,4,1.7l0,0c0,0,0,0,0,0l0,0c0.1,0,0.2,0,0.3,0l0,0
				c0.1,0,0.2,0,0.3,0l0,0c0.1,0,0.1,0,0.1,0l0,0l3.7-0.1v4.4h-5c-0.1,0-0.3,0-0.4,0l0,0C133.3,68.2,132.8,68.2,132.4,68.1
				L132.4,68.1z M125.7,59.4c0,2.2,0.5,3.9,1.5,5l0,0c1.1,1.2,2.2,2,3.5,2.4l0,0c0.6,0.2,1.2,0.4,1.8,0.5l0,0
				c0.4,0.1,0.8,0.1,1.2,0.1l0,0c0.1,0,0.2,0,0.4,0l0,0h4.1v-2.7l-2.8,0c0,0-0.1,0-0.1,0l0,0l0,0l-0.1,0H135h0c0,0-0.1,0-0.1,0l0,0
				c0,0,0,0,0,0l0,0c-0.1,0-0.2,0-0.3,0l0,0c-2.2,0-3.9-0.7-4.7-2.1l0,0c-0.8-1.4-1.2-3-1.2-4.9l0,0V39.2h-3.1V59.4L125.7,59.4z"/>
		</g>
		<g>
			<path class="st1" d="M140.9,38.8h18.6v3.5h-7.1v25.5H148V42.3h-7.1V38.8z"/>
			<path class="st1" d="M147.6,68.2V42.7h-7.1v-4v-0.4h19.5v4.4h-7.1v25.5H147.6L147.6,68.2z M141.3,41.9h7.1l0,25.5h3.5V41.9h7.1
				v-2.7h-17.7V41.9L141.3,41.9z"/>
		</g>
		<g>
			<path class="st1" d="M165.2,48.6c0-2.9,0.9-5.4,2.6-7.4c1.7-2,4.1-3,7.3-3c2.9,0,5.4,1,7.3,3c1.9,2,2.9,4.7,2.9,8v18.6h-4V54.4
				h-11.7v-3.9h11.7v-1.1c0-2.5-0.5-4.5-1.6-5.8c-1.1-1.3-2.5-2-4.3-2c-1.8,0-3.1,0.4-4,1.3c-0.9,0.9-1.5,1.8-1.8,2.9
				c-0.2,0.5-0.3,1-0.3,1.5c-0.1,0.5-0.1,0.9-0.1,1.3v19.1h-3.9V48.6z"/>
			<path class="st1" d="M180.7,68.2V54.9h-11.2v13.3h-4.7V48.6c0-3,0.9-5.6,2.7-7.7l0,0c1.8-2.1,4.4-3.1,7.6-3.1l0,0
				c3,0,5.6,1,7.6,3.1l0,0c2,2.1,3,4.9,3,8.3l0,0v19H180.7L180.7,68.2z M169.9,54h11.7v13.3h3.1V49.2c0-3.3-0.9-5.8-2.7-7.7l0,0
				c-1.8-1.9-4.1-2.8-7-2.8l0,0c-3,0-5.3,1-6.9,2.8l0,0c-1.6,1.9-2.5,4.3-2.5,7.1l0,0v18.8h3V48.6c0-0.4,0-0.8,0.1-1.3l0,0
				c0.1-0.5,0.2-1,0.3-1.6l0,0c0.4-1.1,1-2.1,2-3l0,0c1-1,2.5-1.4,4.3-1.4l0,0c1.9,0,3.5,0.7,4.6,2.1l0,0c1.1,1.4,1.7,3.4,1.7,6l0,0
				v1.5h-11.7V54L169.9,54z M180.7,50.1v-0.6c0-2.5-0.5-4.3-1.5-5.5l0,0c-1-1.2-2.2-1.8-3.9-1.8l0,0c-1.7,0-2.9,0.4-3.7,1.2l0,0
				c-0.8,0.8-1.4,1.7-1.7,2.7l0,0c-0.1,0.5-0.2,0.9-0.3,1.4l0,0c-0.1,0.5-0.1,0.9-0.1,1.2l0,0v1.5H180.7L180.7,50.1z"/>
		</g>
		<g>
			<path class="st1" d="M214.9,64.2c1.3,0,2.3-0.2,3.1-0.7c0.8-0.5,1.2-1.4,1.4-2.5c0-1-0.3-1.9-1-2.7c-0.6-0.8-1.6-1.6-2.9-2.2
				c-0.2-0.1-0.5-0.2-0.8-0.4c-0.3-0.1-0.5-0.2-0.8-0.4c0,0-0.1-0.1-0.1-0.1c0,0-0.1,0-0.1-0.1c-2.3-1.1-4.3-2.3-6.2-3.6
				c-1.9-1.3-2.8-3-2.8-5.2c0-0.1,0-0.2,0-0.2c0-0.1,0-0.1,0-0.1c0,0,0-0.1,0-0.1c0-2.1,0.6-3.7,1.8-4.8c1.2-1.1,2.5-1.8,4-2.1
				c0.2-0.1,0.4-0.1,0.7-0.1c0.2,0,0.5-0.1,0.7-0.1l10.1,0v3.6h-9.5c-1.1,0-1.9,0.4-2.6,1c-0.6,0.6-1,1.3-1.2,2.1c0,0.1,0,0.2,0,0.3
				c0,0.1,0,0.2,0,0.3c0,0.4,0.1,0.9,0.3,1.3c0.2,0.4,0.5,0.7,0.9,1c1.3,0.9,2.4,1.6,3.5,2.2c1.1,0.6,2.1,1.1,3.1,1.5
				c0.3,0.2,0.5,0.3,0.8,0.4c0.3,0.1,0.5,0.3,0.8,0.4c0.2,0.1,0.4,0.3,0.7,0.4c0.2,0.1,0.5,0.3,0.7,0.4c1,0.7,1.8,1.6,2.6,2.7
				c0.8,1.1,1.2,2.4,1.2,4c0,0.4,0,0.8-0.1,1.3c0,0.5-0.1,1-0.3,1.5c-0.3,1.2-1,2.3-2.1,3.2c-1.1,1-2.7,1.5-5,1.5c0,0-0.1,0-0.1,0
				c-0.1,0-0.1,0-0.1,0h0c-0.1,0-0.1,0-0.2,0c-0.1,0-0.1,0-0.1,0l-10.8,0v-3.5H214.9z"/>
			<path class="st1" d="M215.8,68.3c-0.1,0-0.1,0-0.1,0l0,0h0c-0.1,0-0.2,0-0.3,0l0,0c0,0,0,0,0,0l0,0l0,0l-11.2,0v-4.4h10.9v0.4
				l0-0.4c0.1,0,0.1,0,0.2,0l0,0c1.1,0,2-0.2,2.7-0.7l0,0c0.7-0.4,1.1-1.1,1.2-2.2l0,0c0-0.9-0.3-1.7-0.9-2.4l0,0
				c-0.6-0.8-1.5-1.5-2.7-2.1l0,0c-0.2-0.1-0.5-0.2-0.8-0.4l0,0c-0.3-0.1-0.5-0.2-0.8-0.4l0,0l-0.1,0l0,0c-0.1,0-0.1-0.1-0.2-0.1
				l0,0c-2.3-1.1-4.3-2.3-6.2-3.6l0,0c-2-1.3-3-3.2-3-5.6l0,0v-0.1l0-0.1c0-0.1,0-0.1,0-0.1l0,0c0-0.1,0-0.2,0-0.3l0,0
				c0-2.2,0.6-3.9,2-5.1l0,0c1.3-1.1,2.7-1.9,4.1-2.2l0,0c0.2-0.1,0.5-0.1,0.7-0.2l0,0c0.2,0,0.4-0.1,0.7-0.1l0,0l0,0l10.6,0v4.5
				l-9.9,0c-1,0-1.7,0.3-2.3,0.9l0,0c-0.6,0.6-0.9,1.2-1.1,1.8l0,0c0,0.1,0,0.2,0,0.4l0,0c0,0.1,0,0.2,0,0.2l0,0
				c0,0.4,0.1,0.7,0.3,1.1l0,0c0.2,0.4,0.4,0.6,0.7,0.8l0,0c1.2,0.9,2.4,1.6,3.5,2.1l0,0c1.1,0.6,2.1,1.1,3.1,1.5l0,0
				c0.3,0.2,0.5,0.3,0.8,0.4l0,0c0.3,0.1,0.5,0.3,0.8,0.4l0,0c0.2,0.1,0.4,0.3,0.7,0.4l0,0c0.2,0.1,0.5,0.3,0.7,0.5l0,0
				c1,0.7,1.9,1.7,2.7,2.8l0,0c0.9,1.2,1.3,2.6,1.3,4.3l0,0c0,0.4,0,0.9-0.1,1.4l0,0c0,0.5-0.2,1-0.3,1.5l0,0
				c-0.4,1.3-1.1,2.4-2.2,3.4l0,0c-1.2,1.1-3,1.6-5.3,1.6l0,0C215.9,68.3,215.8,68.3,215.8,68.3L215.8,68.3z M204.9,67.3l10.3,0
				c0.1,0,0.2,0,0.2,0l0,0c0,0,0,0,0.1,0l0,0h0c0,0,0.1,0,0.1,0l0,0c0.1,0,0.1,0,0.1,0l0,0c2.2,0,3.8-0.5,4.7-1.3l0,0
				c1-0.9,1.7-1.9,2-3.1l0,0c0.1-0.5,0.2-0.9,0.3-1.4l0,0c0-0.5,0.1-0.9,0.1-1.3l0,0c0-1.5-0.4-2.8-1.1-3.7l0,0
				c-0.8-1-1.6-1.9-2.6-2.6l0,0c-0.2-0.1-0.4-0.3-0.6-0.4l0,0c-0.2-0.1-0.4-0.3-0.7-0.4l0,0c-0.2-0.1-0.5-0.3-0.7-0.4l0,0
				c-0.3-0.1-0.5-0.3-0.8-0.4l0,0c-1-0.5-2-1-3.1-1.5l0,0c-1.1-0.6-2.3-1.3-3.6-2.2l0,0c-0.4-0.3-0.8-0.7-1-1.2l0,0
				c-0.2-0.5-0.4-1-0.4-1.5l0,0c0-0.1,0-0.2,0-0.4l0,0c0-0.1,0-0.2,0-0.3l0,0v0l0,0c0.2-0.9,0.6-1.6,1.3-2.3l0,0
				c0.7-0.7,1.7-1.1,2.9-1.1l0,0h9.1v-2.7l-9.7,0c-0.2,0-0.4,0.1-0.6,0.1l0,0c-0.2,0-0.4,0.1-0.6,0.1l0,0c-1.4,0.3-2.6,1-3.8,2l0,0
				c-1.1,1-1.7,2.4-1.7,4.5l0,0c0,0.1,0,0.2,0,0.2l0,0c0,0.1,0,0.2,0,0.3l0,0c0,2.1,0.9,3.6,2.6,4.8l0,0c1.9,1.3,3.9,2.4,6.2,3.5
				l0,0l0.1,0l0,0c0.1,0,0.1,0.1,0.2,0.1l0,0c0.3,0.1,0.5,0.2,0.8,0.3l0,0c0.3,0.1,0.5,0.2,0.8,0.4l0,0c1.3,0.7,2.4,1.4,3,2.3l0,0
				c0.7,0.9,1.1,1.9,1.1,3l0,0v0l0,0c-0.2,1.2-0.7,2.2-1.6,2.8l0,0c-0.8,0.6-1.9,0.8-3.1,0.8l0,0c-0.1,0-0.1,0-0.2,0l0,0h-10V67.3
				L204.9,67.3z"/>
		</g>
		<g>
			<path class="st1" d="M256.6,48.5c0-4.1,1-6.7,3-7.9c2-1.2,4.3-1.8,6.8-1.8l4.2,0v3.6h-3.9c-1.8,0-3.3,0.4-4.5,1.2
				c-1.2,0.8-1.8,2.3-1.8,4.4v3.5h10.1v3.6h-10.1v12.7h-3.9V48.5z"/>
			<path class="st1" d="M256.2,68.2V48.5c0-4.1,1-7,3.2-8.3l0,0c2.1-1.3,4.4-1.9,7-1.9l0,0l4.6-0.1v4.5h-4.3c-1.8,0-3.2,0.4-4.3,1.2
				l0,0c-1,0.7-1.6,2-1.6,4l0,0V51H271v4.4h-10.1v12.7H256.2L256.2,68.2z M257,67.3h3V54.6h10.1v-2.7H260v-4c0-2.2,0.6-3.8,2-4.7
				l0,0c1.3-0.8,2.9-1.3,4.7-1.3l0,0h3.4v-2.7l-3.8,0c-2.4,0-4.6,0.6-6.5,1.8l0,0c-1.8,1.1-2.8,3.5-2.8,7.6l0,0L257,67.3L257,67.3z"
				/>
		</g>
		<g>
			<path class="st1" d="M277.1,38.8h18.6v3.5h-7.1v25.5h-4.3V42.3h-7.1V38.8z"/>
			<path class="st1" d="M283.8,68.2V42.7h-7.1v-4v-0.4h19.5v4.4h-7.1v25.5H283.8L283.8,68.2z M277.5,41.9h7.1v25.5h3.5V41.9h7.1
				v-2.7h-17.7V41.9L277.5,41.9z"/>
		</g>
		<g>
			<path class="st1" d="M335.9,48.6c0-2.9,0.9-5.4,2.6-7.4c1.7-2,4.1-3,7.2-3c2.9,0,5.4,1,7.3,3c1.9,2,2.9,4.7,2.9,8v18.6h-4V54.4
				h-12.1v-3.9h12.1v-1.1c0-2.5-0.5-4.5-1.6-5.8c-1.1-1.3-2.5-2-4.3-2c-1.8,0-3.1,0.4-4,1.3c-0.9,0.9-1.5,1.8-1.8,2.9
				c-0.2,0.5-0.3,1-0.3,1.5c-0.1,0.5-0.1,0.9-0.1,1.3v19.1h-3.9V48.6z"/>
			<path class="st1" d="M351.4,68.2V54.9h-11.2v13.3h-4.7V48.6c0-3,0.9-5.6,2.7-7.7l0,0c1.8-2.1,4.4-3.1,7.6-3.1l0,0
				c3,0,5.6,1,7.6,3.1l0,0c2,2.1,3,4.9,3,8.3l0,0v19H351.4L351.4,68.2z M340.2,54h12.1l0,13.3h3.1V49.2c0-3.3-0.9-5.8-2.7-7.7l0,0
				c-1.8-1.9-4.1-2.8-7-2.8l0,0c-3,0-5.3,1-6.9,2.8l0,0c-1.6,1.9-2.4,4.3-2.5,7.1l0,0v18.8h3V48.6c0-0.4,0-0.8,0.1-1.3l0,0
				c0.1-0.5,0.2-1,0.3-1.6l0,0c0.4-1.1,1-2.1,2-3l0,0c1-1,2.5-1.4,4.3-1.4l0,0c1.9,0,3.5,0.7,4.6,2.1l0,0c1.1,1.4,1.7,3.4,1.7,6l0,0
				v1.5h-12.1V54L340.2,54z M351.4,50.1v-0.6c0-2.5-0.5-4.3-1.5-5.5l0,0c-1-1.2-2.2-1.8-3.9-1.8l0,0c-1.7,0-2.9,0.4-3.7,1.2l0,0
				c-0.8,0.8-1.4,1.7-1.7,2.7l0,0c-0.1,0.5-0.2,0.9-0.3,1.4l0,0c-0.1,0.5-0.1,0.9-0.1,1.2l0,0v1.5H351.4L351.4,50.1z"/>
		</g>
		<g>
			<path class="st1" d="M363,49.5c0-3.6,0.8-6.3,2.4-8.3c1.6-1.9,4.1-3,7.4-3.1c2.3,0,4.3,0.8,6.1,2.3c1.8,1.6,2.6,3.4,2.6,5.5v0.5
				c0,1.4-0.3,2.6-0.8,3.8c-0.5,1.2-1.3,2-2.5,2.5c1.2,0.5,2.1,1.3,2.7,2.3c0.6,1,1,2.2,1,3.6v9h-4v-8.4c0-1.5-0.5-2.5-1.5-3.2
				c-1-0.7-2.3-1-4-1h-5.3v-3.6h4.6c0,0,0.1,0.1,0.1,0.1c0.1,0,0.1,0,0.2,0h0c0,0,0.1,0,0.1,0c0.1,0,0.1,0,0.1,0c0.1,0,0.2,0,0.3,0
				s0.2,0,0.3,0c1.1-0.2,2.1-0.6,3.1-1.5c0.9-0.8,1.4-2,1.4-3.5c0-1.4-0.4-2.5-1.2-3.2c-0.8-0.7-1.7-1.1-2.6-1.3
				c-0.2,0-0.4-0.1-0.6-0.1c-0.2,0-0.4,0-0.6,0c-1.5,0-2.7,0.4-3.5,1.1c-0.8,0.7-1.4,1.5-1.7,2.4c-0.2,0.4-0.3,0.7-0.3,1.1
				c-0.1,0.4-0.1,0.7-0.1,1v20.1H363V49.5z"/>
			<path class="st1" d="M377.5,68.2v-8.9c0-1.4-0.4-2.3-1.3-2.9l0,0c-0.9-0.6-2.2-0.9-3.7-0.9l0,0h-5.2v12.7h-4.7V49.5
				c0-3.7,0.8-6.5,2.5-8.5l0,0c1.7-2,4.3-3.1,7.7-3.3l0,0c2.4,0,4.6,0.8,6.4,2.5l0,0c1.8,1.6,2.8,3.6,2.8,5.8l0,0v0.5
				c0,1.4-0.3,2.7-0.8,3.9l0,0c-0.4,1-1.1,1.8-2,2.3l0,0c0.9,0.5,1.6,1.2,2.1,2.1l0,0c0.7,1.1,1,2.4,1,3.8l0,0v9.5H377.5L377.5,68.2
				z M367.6,54.7h4.8c1.7,0,3.1,0.4,4.2,1.1l0,0c1.1,0.8,1.7,2,1.7,3.6l0,0v8h3.1v-8.6c0-1.3-0.3-2.4-0.9-3.4l0,0
				c-0.6-1-1.4-1.7-2.5-2.1l0,0l-0.9-0.4l0.9-0.4c1.1-0.5,1.8-1.2,2.3-2.3l0,0c0.5-1.1,0.7-2.3,0.7-3.6l0,0V46c0-2-0.8-3.7-2.5-5.2
				l0,0c-1.7-1.5-3.6-2.2-5.8-2.2l0,0c-3.2,0.2-5.5,1.1-7.1,3l0,0c-1.5,1.8-2.3,4.5-2.3,8l0,0v17.8h3V47.7c0-0.3,0-0.7,0.1-1.1l0,0
				c0.1-0.4,0.2-0.8,0.3-1.2l0,0c0.4-1,1-1.8,1.8-2.6l0,0c0.9-0.8,2.2-1.2,3.8-1.2l0,0c0.2,0,0.4,0,0.7,0l0,0c0.2,0,0.4,0,0.7,0.1
				l0,0c1,0.2,2,0.7,2.8,1.4l0,0c0.9,0.8,1.4,2,1.4,3.5l0,0c0,1.6-0.5,2.9-1.5,3.8l0,0c-1,0.9-2.1,1.4-3.3,1.6l0,0
				c-0.1,0-0.3,0.1-0.4,0.1l0,0c-0.1,0-0.2,0-0.3,0l0,0c0,0-0.1,0-0.1,0l0,0c-0.1,0-0.2,0-0.3,0l0,0c-0.1,0-0.1,0-0.2,0l0,0
				c-0.1,0-0.1,0-0.2-0.1l0,0h-4.1V54.7L367.6,54.7z M372.5,51.2c0.1,0,0.2,0,0.3,0l0,0c0.1,0,0.1,0,0.2,0l0,0l0,0l0,0
				c1-0.1,1.9-0.6,2.8-1.4l0,0c0.8-0.7,1.3-1.8,1.3-3.2l0,0c0-1.4-0.4-2.3-1.1-2.8l0,0c-0.8-0.6-1.6-1-2.4-1.2l0,0
				c-0.2,0-0.4,0-0.6-0.1l0,0c-0.2,0-0.4,0-0.6,0l0,0c-1.4,0-2.5,0.3-3.2,1l0,0c-0.8,0.7-1.3,1.4-1.6,2.3l0,0
				c-0.1,0.3-0.2,0.7-0.3,1l0,0c-0.1,0.3-0.1,0.7-0.1,0.9l0,0V51h4.7l0.1,0.1c0,0,0,0,0.1,0l0,0h0.2L372.5,51.2
				C372.5,51.2,372.5,51.2,372.5,51.2L372.5,51.2z"/>
		</g>
		<g>
			<g>
				<path class="st1" d="M229,58.3v-9.6c0-3.1,1-5.7,3-7.6c2-1.9,4.4-2.9,7.3-2.9c2.4,0,4.3,0.6,5.9,1.8c1.5,1.2,2.6,2.5,3.4,3.9
					c0.3,0.7,0.6,1.4,0.8,2c0.2,0.7,0.3,1.3,0.3,1.8v11.3c0,0.5,0,0.9-0.1,1.4c-0.1,0.5-0.2,0.9-0.3,1.4c-0.5,1.8-1.6,3.4-3.2,4.9
					c-1.6,1.5-3.7,2.2-6.3,2.2c-3,0-5.4-0.7-7-2.2c-1.6-1.5-2.6-3.1-3.2-4.9c-0.2-0.6-0.3-1.1-0.4-1.7C229,59.4,229,58.8,229,58.3
					L229,58.3z M245.1,48.3c0-2.3-0.6-3.9-1.8-4.9c-1.2-0.9-2.6-1.4-4-1.4c-2.4,0-4,0.7-4.8,2.1c-0.8,1.4-1.2,3.2-1.2,5.2v8.2
					c0,2.5,0.5,4.4,1.6,5.4c1.1,1.1,2.5,1.6,4.4,1.6c1.5,0,2.9-0.5,4.1-1.4c1.2-0.9,1.8-2.4,1.8-4.5V58V48.3z"/>
				<path class="st1" d="M239.6,69.1c-3.1,0-5.5-0.8-7.2-2.3l0,0c-1.6-1.5-2.7-3.2-3.3-5.1l0,0c-0.2-0.6-0.3-1.1-0.4-1.7l0,0
					c-0.1-0.6-0.1-1.1-0.1-1.6l0,0v0v-9.6c0-3.2,1-5.8,3.1-7.8l0,0c2.1-2,4.6-3,7.5-3l0,0c2.4,0,4.5,0.6,6,1.8l0,0
					c1.5,1.2,2.7,2.5,3.5,4l0,0c0.3,0.7,0.6,1.4,0.8,2.1l0,0c0.2,0.7,0.3,1.3,0.3,1.9l0,0v11.3c0,0.5,0,1-0.1,1.4l0,0
					c-0.1,0.5-0.2,0.9-0.3,1.4l0,0c-0.5,1.8-1.6,3.5-3.3,5l0,0C244.4,68.3,242.3,69.1,239.6,69.1L239.6,69.1
					C239.6,69.1,239.6,69.1,239.6,69.1L239.6,69.1z M229.3,58.3c0,0.5,0,1,0.1,1.5l0,0c0.1,0.5,0.2,1.1,0.3,1.6l0,0
					c0.5,1.7,1.5,3.3,3.1,4.8l0,0c1.5,1.4,3.7,2.2,6.7,2.2l0,0c2.6,0,4.6-0.7,6.1-2.1l0,0c1.6-1.4,2.6-3,3.1-4.7l0,0
					c0.1-0.5,0.3-0.9,0.3-1.3l0,0c0.1-0.4,0.1-0.9,0.1-1.3l0,0V47.6c0-0.5-0.1-1.1-0.2-1.7l0,0c-0.2-0.6-0.4-1.3-0.7-2l0,0
					c-0.7-1.4-1.8-2.7-3.3-3.8l0,0c-1.4-1.1-3.3-1.7-5.7-1.7l0,0c-2.8,0-5.1,0.9-7,2.8l0,0c-1.9,1.9-2.9,4.3-2.9,7.4l0,0V58.3
					L229.3,58.3L229.3,58.3z M234.6,63.2c-1.2-1.2-1.7-3.1-1.7-5.7l0,0v-8.2c0-2.1,0.4-3.8,1.3-5.3l0,0c0.9-1.6,2.6-2.3,5-2.3l0,0
					c1.5,0,2.9,0.5,4.2,1.5l0,0c1.3,1,2,2.8,2,5.1l0,0V58v0.8c0,2.1-0.6,3.7-1.9,4.7l0,0c-1.2,1-2.7,1.4-4.3,1.4l0,0c0,0,0,0,0,0
					l0,0C237.3,64.9,235.8,64.3,234.6,63.2L234.6,63.2z M234.7,44.3c-0.8,1.4-1.2,3-1.2,5l0,0v8.2c0,2.5,0.5,4.2,1.5,5.2l0,0
					c1,1,2.4,1.5,4.2,1.5l0,0c1.5,0,2.7-0.4,3.9-1.3l0,0c1.1-0.8,1.7-2.2,1.7-4.2l0,0V58v-9.6c0-2.3-0.6-3.8-1.7-4.6l0,0
					c-1.2-0.9-2.5-1.4-3.8-1.4l0,0C236.9,42.4,235.5,43,234.7,44.3L234.7,44.3z"/>
			</g>
		</g>
		<g>
			<path class="st1" d="M317.6,64.2c0.7,0.8,1.6,1.2,2.9,1.2c1.5-0.1,2.5-0.7,3.1-1.7c0.5-0.8,0.7-1.8,0.7-3.1V39.1h3.5V63
				c0,1.6-0.7,3-2.1,4.1c-1.4,1-3,1.6-4.9,1.6c-1.4,0-2.6-0.3-3.7-0.8c-0.9-0.4-1.6-1-2.1-1.7c-0.5,0.8-1.2,1.5-2,1.9
				c-0.8,0.4-2,0.6-3.5,0.6c-2.2,0-4-0.6-5.3-1.8c-1.4-1.2-2-2.8-2-4.6V39.1h3.5v21.6c0,1.3,0.2,2.4,0.7,3.1c0.6,1,1.6,1.5,3.1,1.7
				c1.3,0,2.2-0.4,2.9-1.2c0.6-0.8,0.9-1.9,0.9-3.3v-9.5h3.4V61C316.7,62.4,317,63.5,317.6,64.2z"/>
			<path class="st1" d="M303.8,67.3c-1.5-1.3-2.2-3.1-2.2-5l0,0V38.5h4.7v22.2c0,1.3,0.2,2.2,0.6,2.8l0,0c0.5,0.8,1.3,1.2,2.6,1.4
				l0,0c1.1,0,1.8-0.3,2.4-1l0,0c0.5-0.6,0.8-1.6,0.8-2.9l0,0V50.9h4.6V61c0,1.4,0.3,2.3,0.7,2.8l0,0v0c0.5,0.6,1.3,1,2.4,1l0,0
				c1.3-0.1,2.1-0.6,2.6-1.4l0,0c0.4-0.6,0.6-1.5,0.6-2.8l0,0V38.5h4.7V63c0,1.8-0.8,3.4-2.3,4.6l0,0c-1.5,1.1-3.3,1.7-5.3,1.7l0,0
				c-1.4,0-2.8-0.3-4-0.9l0,0c-0.7-0.3-1.3-0.8-1.8-1.3l0,0c-0.5,0.6-1.1,1.1-1.8,1.4l0,0c-1,0.5-2.2,0.7-3.8,0.7l0,0c0,0,0,0,0,0
				l0,0C307.2,69.2,305.3,68.6,303.8,67.3L303.8,67.3z M302.8,62.3c0,1.7,0.6,3,1.8,4.1l0,0c1.2,1.1,2.8,1.6,4.9,1.6l0,0
				c1.4,0,2.5-0.2,3.2-0.6l0,0c0.7-0.4,1.3-0.9,1.8-1.7l0,0L315,65l0.5,0.7c0.5,0.6,1.1,1.2,1.9,1.5l0,0c1,0.5,2.2,0.7,3.4,0.7l0,0
				c1.8,0,3.2-0.5,4.5-1.4l0,0c1.3-1,1.8-2.1,1.8-3.6l0,0V39.7H325v21c0,1.4-0.2,2.6-0.8,3.4l0,0c-0.7,1.2-2,1.8-3.6,2l0,0l0,0h0
				c-1.4,0-2.6-0.5-3.4-1.4l0,0l0.5-0.4l-0.5,0.4c-0.7-0.9-1-2.1-1-3.6l0,0l0-8.9H314V61c0,1.5-0.3,2.7-1,3.7l0,0
				c-0.8,1-2,1.4-3.4,1.4l0,0h0l0,0c-1.6-0.1-2.9-0.8-3.6-2l0,0c-0.6-0.9-0.8-2.1-0.8-3.5l0,0l0-21h-2.3V62.3L302.8,62.3z"/>
		</g>
		<g>
			<g>
				<path class="st1" d="M403.7,67.7h-10.6c-0.8,0-1.4-0.1-2-0.4c-0.5-0.3-1-0.6-1.4-1.1c-0.4-0.4-0.6-0.9-0.8-1.4
					c-0.2-0.5-0.3-1-0.3-1.5v-1V48.2v-1c0-0.5-0.1-3.9,0.1-4.4c0.2-0.5,0.5-1.5,0.8-1.9c0.4-0.4,1-0.8,1.5-1.1
					c0.6-0.3,1.2-0.4,2-0.4h10.4v2.7h-6.9h-2.4c-0.7,0-1.2,0.2-1.6,0.7c-0.4,0.5-0.6,1-0.6,1.7v0.4V52l8.4-0.2v3.1l-8.4,0.2v7.2v0.4
					c0,0.6,0.2,1.2,0.6,1.6c0.4,0.5,1,0.7,1.6,0.7h2.4h7.1V67.7z"/>
				<path class="st1" d="M393.2,68.4c-0.8,0-1.6-0.1-2.2-0.5l0,0c-0.6-0.3-1.2-0.7-1.6-1.2l0,0c-0.4-0.5-0.7-1-0.9-1.6l0,0
					c-0.2-0.6-0.3-1.2-0.3-1.7l0,0v-1V48.2v-1c0-0.2,0-1.1,0-2l0,0c0-0.5,0-1.1,0-1.5l0,0c0-0.5,0-0.8,0.1-1.1l0,0
					c0.2-0.5,0.4-1.5,0.9-2.1l0,0c0.5-0.6,1.2-0.9,1.7-1.2l0,0c0.7-0.3,1.4-0.5,2.2-0.5l0,0h11v4h-7.5h-2.4c-0.5,0-0.9,0.2-1.2,0.5
					l0,0c-0.3,0.3-0.4,0.7-0.5,1.2l0,0v0.4v6.4h8.4v4.3h-8.4v6.8v0.4c0,0.5,0.1,0.9,0.5,1.2l0,0c0.3,0.3,0.6,0.5,1.2,0.5l0,0h2.4
					h7.7v3.4v0.6H393.2L393.2,68.4z M403.7,67.7v-0.6V67.7L403.7,67.7z M391.5,40.3c-0.5,0.3-1.1,0.6-1.3,0.9l0,0
					c-0.2,0.2-0.5,1.2-0.7,1.7l0,0c0,0,0,0,0,0l0,0c0,0,0,0.1,0,0.2l0,0c0,0.1,0,0.3,0,0.5l0,0c0,0.4,0,1,0,1.5l0,0c0,0.9,0,1.7,0,2
					l0,0v1v14.1v1c0,0.4,0.1,0.9,0.2,1.3l0,0c0.2,0.4,0.4,0.9,0.7,1.2l0,0c0.3,0.4,0.7,0.7,1.2,0.9l0,0c0.4,0.2,1,0.3,1.7,0.3l0,0
					h9.9l0-1.5h-6.5h-2.4c-0.8,0-1.6-0.3-2.1-0.9l0,0c-0.5-0.6-0.8-1.3-0.8-2l0,0v-0.4v-7.8l8.4-0.2v-1.8l-8.4,0.2v-7.8v-0.4
					c0-0.8,0.3-1.5,0.8-2.1l0,0c0.5-0.6,1.3-0.9,2.1-0.9l0,0h2.4h6.3V40h-9.8C392.5,40,391.9,40.1,391.5,40.3L391.5,40.3z"/>
			</g>
		</g>
	</g>
	<g>
		<g>
			<path class="st1" d="M289.5,20.7c0,2.6-0.8,4.8-2.4,6.8c-1.9,2.3-4.3,3.4-7.3,3.4c-3.5,0-6.2-1-8.1-3.1c-1.7-1.9-2.6-4.4-2.6-7.6
				v-9.6c0-3,1-5.4,3-7.2c2-1.8,4.3-2.7,7.1-2.7c1.4,0,2.8,0.2,4.1,0.7c1.3,0.5,2.5,1.2,3.5,2.2c0.5-0.7,1.3-1.3,2.1-1.8
				c1.1-0.5,2.3-0.8,3.7-0.8c1.9,0,3.5,0.5,4.9,1.6c1.4,1.1,2.1,2.5,2.1,4.1v23.8h-3.5V8c0-0.8-0.3-1.6-1-2.5
				c-0.7-0.9-1.5-1.3-2.5-1.3c-0.9,0-1.7,0.3-2.3,0.8c-0.7,0.5-1.1,1.2-1.4,2c0.4,1.2,0.6,2.5,0.6,4V20.7z M285.6,20.2v-9.6
				c0-1.9-0.5-3.5-1.6-4.7c-1.1-1.2-2.7-1.7-4.8-1.7c-2.1,0-3.7,0.7-4.8,2.1c-0.9,1.2-1.4,2.6-1.4,4.3v9.6c0,1.9,0.4,3.4,1.2,4.7
				c1.1,1.6,2.7,2.5,5,2.5c2,0,3.5-0.5,4.5-1.5C285,24.8,285.6,22.9,285.6,20.2z"/>
			<path class="st1" d="M279.8,31.5c-3.7,0-6.6-1.1-8.5-3.3l0,0c-1.8-2-2.7-4.7-2.7-8l0,0v-9.6c0-3.1,1.1-5.7,3.2-7.6l0,0
				c2.1-1.9,4.6-2.9,7.5-2.9l0,0c1.5,0,2.9,0.2,4.3,0.7l0,0c1.2,0.4,2.3,1.1,3.2,1.9l0,0c0.5-0.6,1.2-1.1,1.9-1.4l0,0
				c1.2-0.6,2.5-0.9,4-0.9l0,0c2,0,3.8,0.6,5.3,1.7l0,0c1.5,1.2,2.3,2.8,2.3,4.6l0,0v24.4h-4.7V8c0-0.6-0.3-1.3-0.9-2.1l0,0
				c-0.6-0.8-1.3-1.1-2-1.1l0,0c-0.8,0-1.4,0.2-2,0.7l0,0c-0.5,0.4-0.9,1-1.1,1.6l0,0c0.4,1.2,0.6,2.5,0.6,4l0,0v9.6
				c0,2.7-0.9,5.1-2.6,7.2l0,0C285.6,30.3,283,31.5,279.8,31.5L279.8,31.5C279.8,31.5,279.8,31.5,279.8,31.5L279.8,31.5z M272.5,3.9
				c-1.8,1.7-2.8,4-2.8,6.8l0,0v9.6c0,3.1,0.8,5.4,2.4,7.2l0,0c1.7,1.9,4.2,2.9,7.7,2.9l0,0c2.8,0,5-1.1,6.8-3.2l0,0
				c1.5-1.9,2.3-4,2.3-6.4l0,0v-9.6c0-1.4-0.2-2.6-0.6-3.8l0,0l-0.1-0.2l0.1-0.2c0.3-0.9,0.8-1.7,1.6-2.3l0,0c0.8-0.6,1.7-1,2.7-1
				l0,0c1.1,0,2.1,0.5,2.9,1.5l0,0c0.8,0.9,1.2,1.9,1.2,2.9l0,0v22h2.3V6.8c0-1.5-0.6-2.6-1.9-3.6l0,0c-1.3-1-2.8-1.5-4.6-1.5l0,0
				c-1.3,0-2.5,0.3-3.5,0.8l0,0c-0.8,0.4-1.4,0.9-1.9,1.6l0,0l-0.4,0.6l-0.5-0.5c-1-1-2-1.7-3.2-2.1l0,0c-1.3-0.4-2.6-0.7-3.9-0.7
				l0,0C276.6,1.3,274.4,2.2,272.5,3.9L272.5,3.9z M273.7,25.3c-0.9-1.4-1.3-3.1-1.3-5l0,0v-9.6c0-1.8,0.5-3.4,1.5-4.7l0,0
				c1.2-1.6,3.1-2.4,5.3-2.4l0,0c2.2,0,4,0.6,5.2,1.9l0,0c1.2,1.3,1.8,3.1,1.8,5.1l0,0v9.6c0,2.7-0.7,4.8-2.1,6.1l0,0
				c-1.2,1.1-2.9,1.6-4.9,1.6l0,0c0,0,0,0-0.1,0l0,0C276.8,28,274.9,27.1,273.7,25.3L273.7,25.3z M274.8,6.8c-0.8,1-1.2,2.3-1.2,3.9
				l0,0v9.6c0,1.8,0.4,3.2,1.2,4.4l0,0c1,1.5,2.4,2.2,4.5,2.2l0,0c1.9,0,3.2-0.5,4.1-1.3l0,0c1.1-1,1.7-2.7,1.7-5.3l0,0v-9.6
				c0-1.8-0.5-3.2-1.5-4.3l0,0c-1-1-2.4-1.5-4.4-1.6l0,0C277.2,4.9,275.8,5.5,274.8,6.8L274.8,6.8z"/>
		</g>
	</g>
</g>
<g>
</g>
</svg>
