<?xml version="1.0" encoding="utf-8"?>
<!-- Generator: Adobe Illustrator 19.0.0, SVG Export Plug-In . SVG Version: 6.00 Build 0)  -->
<svg version="1.1" id="Layer_1" xmlns="http://www.w3.org/2000/svg" xmlns:xlink="http://www.w3.org/1999/xlink" x="0px" y="0px"
	 viewBox="-98 263 415 267" style="enable-background:new -98 263 415 267;" xml:space="preserve">
<style type="text/css">
	.st0{fill:#221F1F;}
</style>
<g id="kJDkiq.tif">
	<g id="XMLID_1_">
		<path id="XMLID_40_" class="st0" d="M238,530c-16.3,0-32.7,0-49,0c15.5-27,31-54,46.6-80.9c1.7-2.9,1.9-5,0-8
			c-13.7-20.8-27.3-41.9-40.9-62.8c-0.8-1.2-1.7-2.2-2.1-2.8c-5.9,4.4-11.4,8.5-17.3,12.9c11.9,18.7,24.1,37.9,36.4,57.4
			c-11.6,7.4-22.8,14.5-34.3,21.9c-16-25.1-31.7-49.8-47.5-74.5c-0.4,0.1-0.7,0.2-1.1,0.4c0,17.3,0,34.7,0,52c-13.7,0-26.9,0-40.8,0
			c0-23.1,0-45.7,0-68.4c-0.3-0.1-0.6-0.1-0.9-0.2c-20.5,37.5-41,75-61.9,113.3c21.1,0,40.9,0,59.8,0c0,13.5,0,26.6,0,39.8
			c-43.7,0-87.3,0-131,0c0.7-1.6,1.3-3.4,2.2-4.9c22-38.6,44.1-77.2,66.1-115.7c0.9-1.5,1.6-3.1,2.8-5.4c-22.1,0-43.3,0-65.1,0
			c0-9.3,0-18.1,0-27c-0.3-0.1-0.7-0.1-1-0.2c-11.5,22.6-22.9,45.2-34.5,67.9c-7.8-4.5-15.1-8.7-22.5-12.8c0-12.7,0-25.3,0-38
			c1-1.5,2.1-2.9,3-4.5c21.5-37.5,43-75,64.4-112.6c2.6-4.6,5.1-9.3,7.6-13.9c18,0,36,0,54,0c0.3,1.8,0.7,3.6,0.7,5.3
			c0,30.3,0,60.6,0,90.9c0,1.7,0.2,3.5,0.3,5.3c19,0,37.4,0,56.3,0c0-2.3,0-4.3,0-6.2c0-29.6,0-59.3,0-88.9c0-2.1,0.5-4.2,0.7-6.4
			c15.7,0,31.3,0,47,0c5.8,0.4,11.6,0.8,17.4,1.1c24,1.1,39.9,13.1,47.5,35.9c4.6,13.9,5.2,28.1,3.5,42.4
			c-0.9,7.5-3.2,14.8-4.9,22.6c11.6,0,23.4,0.2,35.2-0.1c4-0.1,5.9,1.3,7.6,4.7c5.2,10,10.8,19.9,16.3,29.8c0.8,1.4,1.7,2.6,2.8,4.5
			c11.3-20.2,22.3-39.8,33.4-59.4c7.7,3.7,15,7.2,22.4,10.7c0,12.3,0,24.7,0,37c-1.1,1.7-2.2,3.3-3.2,5
			C288.5,441.3,263.3,485.7,238,530z M128.7,364.6c13.7,1.1,26.4,0.5,34.6-12.6c7.7-12.4,7.1-30.1-1.5-41.9
			c-7-9.6-20.1-13.7-33.1-10.3C128.7,321.3,128.7,342.8,128.7,364.6z M-35,364.9c6.9,0,12.9-0.1,18.8,0.1c3.1,0.1,4.1-1.1,4.1-4
			c0.2-8,0.7-15.9,0.9-23.9c0.2-7.6,0-15.2,0-21.5C-18.5,330.8-26.5,347.4-35,364.9z"/>
	</g>
</g>
<g id="XMLID_28_">
</g>
<g id="XMLID_29_">
</g>
<g id="XMLID_30_">
</g>
<g id="XMLID_31_">
</g>
<g id="XMLID_32_">
</g>
<g id="XMLID_33_">
</g>
</svg>
