<?xml version="1.0" encoding="utf-8"?>
<!-- Generator: Adobe Illustrator 19.0.0, SVG Export Plug-In . SVG Version: 6.00 Build 0)  -->
<svg version="1.1" id="Layer_1" xmlns="http://www.w3.org/2000/svg" xmlns:xlink="http://www.w3.org/1999/xlink" x="0px" y="0px"
	 viewBox="0 0 211.3339081 296.8624878" style="enable-background:new 0 0 211.3339081 296.8624878;" xml:space="preserve">
<style type="text/css">
	.st0{fill:#270E14;}
	.st1{fill:#CC3E3E;}
	.st2{fill:#853839;}
	.st3{fill:#FFFFFF;}
</style>
<g>
	<g>
		<path class="st0" d="M15.6021051,239.945755c-2.2425566,0-4.2855043-0.3614197-6.1311741-1.0845184
			c-1.84308-0.7230988-3.4257107-1.7747345-4.7481513-3.1577454c-1.3195755-1.3856201-2.3411961-3.0769806-3.0642924-5.0792847
			c-0.7230963-2.0025635-1.0845151-4.2805939-1.0845151-6.8390045c0-2.515686,0.3513218-4.7683411,1.0516353-6.7608032
			c0.7029024-1.9896088,1.693956-3.6786499,2.9734201-5.061676c1.2766328-1.3827667,2.8012538-2.4473419,4.5736551-3.1906281
			c1.7721605-0.7458801,3.7265482-1.1174011,5.8655462-1.1174011c2.2197742,0,4.2223511,0.3665924,6.0045738,1.0997925
			c1.7824993,0.7357788,3.3019581,1.7925873,4.5586395,3.177948c1.2590103,1.3830261,2.2223625,3.0694733,2.8923855,5.061676
			c0.6723537,1.9922028,1.0060883,4.2552185,1.0060883,6.7910919v1.3195953H6.2953138
			c0.126617,1.7825012,0.4450588,3.3348389,0.9607625,4.6546936c0.5133905,1.3195953,1.1782355,2.4118805,1.9950519,3.2690887
			c0.8191471,0.8621216,1.7672243,1.5041809,2.8468199,1.9339447c1.0795965,0.4300232,2.2474756,0.6449127,3.5041571,0.6449127
			c0.9025106,0,1.8026915-0.1188354,2.7052031-0.3616791c0.9001808-0.2402496,1.7141495-0.596756,2.4372463-1.0695038
			c0.7230968-0.4701538,1.3097553-1.0568085,1.759716-1.7597046c0.4499607-0.702652,0.6876278-1.5041962,0.7078209-2.4043732
			h5.7544975c-0.230175,1.5929871-0.7282906,3.0063019-1.4943638,4.2425232
			c-0.7660732,1.2388153-1.7343445,2.2754364-2.907402,3.1147766c-1.1756458,0.8370209-2.5257893,1.4764862-4.0553455,1.9166107
			C18.9773312,239.7259521,17.343956,239.945755,15.6021051,239.945755z M23.7153854,220.7991028
			c-0.2301579-1.4687195-0.5967541-2.7530975-1.0997906-3.85289c-0.5032921-1.1000519-1.1326694-2.0175781-1.8863144-2.7507782
			c-0.7557182-0.7331848-1.6155109-1.2895508-2.5786037-1.6662445c-0.9659405-0.3766937-2.0025597-0.5664673-3.1124477-0.5664673
			c-1.1124754,0-2.1438999,0.1796722-3.0971718,0.5335846c-0.9555845,0.3565063-1.8076115,0.9025116-2.5635872,1.6357117
			c-0.7533875,0.7331848-1.3931193,1.6561584-1.9189367,2.768631c-0.5234876,1.1098785-0.8900843,2.4092865-1.0997901,3.8984528
			H23.7153854z"/>
		<path class="st0" d="M55.1570015,235.5440063c-2.5156898,2.9353638-5.4484634,4.4017487-8.8034973,4.4017487
			c-2.0530434,0-3.8733406-0.3766937-5.4559708-1.1300812c-1.5826302-0.7559814-2.9076614-1.8278046-3.976902-3.2235107
			c-1.0695-1.3931274-1.8811378-3.0692139-2.4375038-5.0313873c-0.5535011-1.9593201-0.8315735-4.1335297-0.8315735-6.5228882
			c0-2.5358887,0.3337173-4.8162384,1.0060692-6.8389893c0.6700401-2.0225067,1.5878067-3.7418213,2.7507668-5.1577301
			c1.1629639-1.4159088,2.5358887-2.500412,4.1185188-3.2537994c1.5828896-0.7559814,3.2970581-1.1326752,5.1427078-1.1326752
			c3.2892723,0,6.1184883,1.0392151,8.4873848,3.1121826v-14.1178589h5.4712486v42.5433502h-5.4712486V235.5440063z
			 M55.1570015,230.2928162v-14.5880127c-2.4525185-2.4954987-5.1652298-3.7420807-8.1435699-3.7420807
			c-1.1730576,0-2.23246,0.250351-3.1756172,0.7536469c-0.9429016,0.5030365-1.7496185,1.2590179-2.419384,2.2653351
			c-0.6726112,1.006073-1.1909218,2.2627563-1.5574989,3.7721252c-0.3666153,1.5093536-0.5512085,3.2716675-0.5512085,5.2840576
			c0,3.792572,0.6625328,6.6696777,1.9821091,8.6290131c1.3198509,1.9619141,3.1554222,2.9405365,5.5015373,2.9405365
			c1.5093651,0,2.9656525-0.4349518,4.37146-1.3045807C52.5680428,233.4329681,53.900322,232.0980988,55.1570015,230.2928162z"/>
		<path class="st0" d="M88.234581,235.2939148c-2.7458267,3.1020966-5.8277435,4.6518402-9.2433624,4.6518402
			c-6.9604111,0-10.4394379-3.7923126-10.4394379-11.3821106V208.410675h5.5344009v19.8723297
			c0,1.2766266,0.1087341,2.3688965,0.3311234,3.2690887c0.2200623,0.9025116,0.55896,1.6356964,1.0216064,2.1995697
			c0.4600601,0.5662079,1.0516357,0.9757843,1.7747345,1.2287292c0.723114,0.250351,1.587822,0.3766937,2.5941315,0.3766937
			c3.0819016,0,5.8909225-1.6460571,8.4268036-4.9376678V208.410675h5.470993v30.7816925h-5.470993V235.2939148z"/>
		<path class="st0" d="M114.2733002,239.945755c-2.1591873,0-4.1262817-0.3565063-5.8960953-1.0669098
			c-1.7721405-0.7129974-3.2916031-1.7620392-4.5609665-3.1450653c-1.2665253-1.3830261-2.2526398-3.0769806-2.9555588-5.0792847
			c-0.7002945-1.9999695-1.0516357-4.2906799-1.0516357-6.8692932c0-2.5358734,0.346405-4.8063965,1.0366211-6.806366
			c0.692543-2.0023041,1.6659927-3.6962585,2.9250031-5.0792847c1.2566833-1.3827667,2.7761459-2.4372406,4.5586395-3.1603394
			c1.7825012-0.7230988,3.7620163-1.0845184,5.9439926-1.0845184c1.6535721,0,3.1906357,0.2148895,4.6065369,0.6446533
			c1.4133148,0.4297638,2.6596375,1.0643158,3.7392349,1.9039154c1.0795975,0.8367615,1.9720078,1.8808899,2.6749344,3.1274719
			c0.7002945,1.2463226,1.15802,2.6772461,1.3677216,4.2930145h-5.6304626
			c-0.04039-0.9229736-0.2399979-1.7421112-0.5964966-2.4525299c-0.3565063-0.7129974-0.8395996-1.3071594-1.4461975-1.7773132
			c-0.609436-0.4727478-1.3146744-0.8292542-2.1213913-1.0695038c-0.8090515-0.2402496-1.6737595-0.3616791-2.5938797-0.3616791
			c-1.3019867,0-2.4903183,0.2480164-3.5699158,0.7383728c-1.0795975,0.4929352-2.0074768,1.2388153-2.7836456,2.2324524
			c-0.7735825,0.9962311-1.3778458,2.2324677-1.8078766,3.7115326c-0.4297638,1.4764862-0.6446457,3.1906433-0.6446457,5.1401215
			c0,1.949234,0.2148819,3.6633911,0.6446457,5.1398621c0.4300308,1.4790802,1.0342941,2.7153015,1.8078766,3.7115326
			c0.7761688,0.9962463,1.7040482,1.7395325,2.7836456,2.2324677s2.2679291,0.7383728,3.5699158,0.7383728
			c0.8797531,0,1.7167435-0.1139221,2.5156937-0.346405c0.7963638-0.2301636,1.5015945-0.5814819,2.1211319-1.0518951
			c0.616951-0.4727478,1.1150665-1.0542297,1.4940872-1.7444458c0.3769531-0.6927948,0.5866623-1.5093536,0.6270523-2.4525146
			h5.6304626c-0.2097015,1.6333771-0.6674271,3.0694733-1.3677216,4.3056946
			c-0.7029266,1.2388153-1.6002579,2.2705231-2.6899338,3.0971832c-1.0897141,0.8292389-2.341217,1.4588776-3.7571182,1.8886414
			C117.4310532,239.7308655,115.9064331,239.945755,114.2733002,239.945755z"/>
		<path class="st0" d="M151.0572357,236.0801849c-2.8721924,2.5788574-6.4775696,3.8655701-10.8159027,3.8655701
			c-1.4891663,0-2.8672485-0.2148895-4.1337891-0.6420593c-1.2693634-0.4297638-2.3740692-1.0340271-3.3172302-1.8101959
			c-0.9429016-0.7738495-1.6838531-1.7066498-2.2171783-2.7963409c-0.5335693-1.0896912-0.8015442-2.3057251-0.8015442-3.6483612
			c0-7.2105103,6.1943359-10.8159027,18.5827789-10.8159027h2.7028656c0-1.3224335-0.04039-2.4954987-0.1240082-3.5220184
			c-0.0859528-1.0265198-0.3565063-1.890976-0.8191528-2.5938873c-0.4600525-0.7028961-1.193222-1.2364807-2.1995697-1.6030731
			c-1.0063324-0.3666077-2.4219818-0.5511932-4.2448578-0.5511932c-4.8643951,0-7.3800964,1.7496185-7.5470886,5.2514496H130.58815
			c0.3994751-6.3714294,4.8643951-9.5594788,13.3950195-9.5594788c1.9290314,0,3.6685486,0.1693115,5.2208862,0.5030365
			c1.5497742,0.3363037,2.8644257,0.943161,3.9440308,1.8228912c1.0795898,0.882309,1.9140167,2.0758209,2.500412,3.5851898
			c0.5866547,1.5093536,0.8799896,3.428299,0.8799896,5.7542114v19.872345h-5.4712524V236.0801849z M151.0572357,231.111969
			v-6.8540192h-3.8026581c-7.9463043,0-11.9182739,2.1591949-11.9182739,6.4773254
			c0,1.5702057,0.591568,2.7761383,1.7773132,3.6154785c1.1834106,0.8370056,2.7507782,1.2566833,4.7002563,1.2566833
			c0.8999176,0,1.7975159-0.1038208,2.6876221-0.3135223c0.892395-0.2099609,1.7392426-0.5082092,2.5482941-0.8975983
			c0.8067169-0.3867798,1.5500336-0.8572083,2.2324524-1.4133148
			C149.9623718,232.4266357,150.5541992,231.8021851,151.0572357,231.111969z"/>
		<path class="st0" d="M180.615387,213.4089203c-0.7963715-0.2500916-1.90625-0.3766937-3.3322449-0.3766937
			c-1.4260101,0-2.7305756,0.3665924-3.9137421,1.0997925c-1.1859894,0.7331848-2.2907104,1.822876-3.3172302,3.2716675v21.788681
			h-5.4409485V208.410675h5.4409485v4.2448578c2.3259277-3.3348389,5.0187073-5.0008392,8.0803986-5.0008392
			c0.3565063,0,0.7484741,0.0227814,1.1782379,0.0631714c0.4297638,0.0429688,0.8647156,0.1061401,1.3045807,0.1895142V213.4089203z
			"/>
		<path class="st0" d="M197.4361115,239.945755c-2.2427979,0-4.2854767-0.3614197-6.1311646-1.0845184
			c-1.8430939-0.7230988-3.4259796-1.7747345-4.7481537-3.1577454c-1.3198547-1.3856201-2.3412018-3.0769806-3.0643005-5.0792847
			c-0.7230988-2.0025635-1.0845184-4.2805939-1.0845184-6.8390045c0-2.515686,0.3513336-4.7683411,1.0516357-6.7608032
			c0.7029114-1.9896088,1.6939697-3.6786499,2.9734192-5.061676c1.2766266-1.3827667,2.8012543-2.4473419,4.5736694-3.1906281
			c1.7721405-0.7458801,3.7265472-1.1174011,5.8655396-1.1174011c2.2197723,0,4.2220764,0.3665924,6.0045776,1.0997925
			c1.7825012,0.7357788,3.3019562,1.7925873,4.5586395,3.177948c1.2590027,1.3830261,2.2223816,3.0694733,2.8921204,5.061676
			c0.6726074,1.9922028,1.0063324,4.2552185,1.0063324,6.7910919v1.3195953h-23.2045898
			c0.1266022,1.7825012,0.4450531,3.3348389,0.9607697,4.6546936c0.513382,1.3195953,1.1782379,2.4118805,1.9947968,3.2690887
			c0.8191376,0.8621216,1.7672119,1.5041809,2.846817,1.9339447c1.0795898,0.4300232,2.2477264,0.6449127,3.5044098,0.6449127
			c0.9025116,0,1.8024292-0.1188354,2.7052002-0.3616791c0.8999329-0.2402496,1.7141571-0.596756,2.4372559-1.0695038
			c0.7230988-0.4701538,1.309494-1.0568085,1.7597046-1.7597046c0.4499664-0.702652,0.6876373-1.5041962,0.7078247-2.4043732
			h5.7544861c-0.2301636,1.5929871-0.7282715,3.0063019-1.4943542,4.2425232
			c-0.7660675,1.2388153-1.7343445,2.2754364-2.9073944,3.1147766c-1.1756439,0.8370209-2.5257874,1.4764862-4.0553436,1.9166107
			C200.8113556,239.7259521,199.1779633,239.945755,197.4361115,239.945755z M205.5491638,220.7991028
			c-0.2299347-1.4687195-0.5965271-2.7530975-1.099823-3.85289c-0.5030365-1.1000519-1.1326599-2.0175781-1.8860474-2.7507782
			c-0.7559814-0.7331848-1.615509-1.2895508-2.5788727-1.6662445c-0.965683-0.3766937-2.0022888-0.5664673-3.1121826-0.5664673
			c-1.1124725,0-2.1439209,0.1796722-3.097168,0.5335846c-0.9558258,0.3565063-1.8078766,0.9025116-2.5635681,1.6357117
			c-0.7536774,0.7331848-1.3931427,1.6561584-1.91922,2.768631c-0.5232239,1.1098785-0.889801,2.4092865-1.0997925,3.8984528
			H205.5491638z"/>
		<path class="st0" d="M19.5233421,286.0768738c0,7.1903381-3.2387867,10.785614-9.7161055,10.785614
			c-1.3957081,0-2.6547184-0.1566467-3.7772913-0.4652405c-1.1225557-0.3135071-2.0755689-0.7608948-2.8543279-1.3449707
			c-0.7839367-0.5840454-1.3856109-1.2944641-1.8102003-2.1389771c-0.4248482-0.8393555-0.6371428-1.7926025-0.6371428-2.8543396
			h4.1185164c0,2.457428,1.6155109,3.6861572,4.8465323,3.6861572c0.9405689,0,1.7749901-0.1136475,2.503006-0.341217
			c0.7282743-0.2275696,1.3426514-0.6270447,1.843339-1.193512c0.5004454-0.5713806,0.8797283-1.3374634,1.1375885-2.3005676
			c0.2578602-0.9633484,0.3867903-2.1871338,0.3867903-3.6737061v-1.069519c-1.8202972,2.1239929-3.9440203,3.18573-6.37117,3.18573
			c-1.4865804,0-2.803843-0.2731323-3.9491987-0.8191528s-2.1035292-1.3221741-2.8771102-2.3311157
			c-0.7738401-1.0086365-1.3628283-2.2223511-1.7648938-3.6405945C0.1998677,280.1429749,0,278.5678711,0,276.8384399
			c0-1.8353271,0.2428444-3.4839783,0.7282743-4.9503479c0.4854298-1.4612122,1.1476858-2.7052002,1.9922042-3.73172
			c0.8393407-1.0213623,1.832983-1.8076172,2.9783387-2.3538818c1.1453557-0.5460205,2.3867617-0.8191528,3.7216291-0.8191528
			c2.3815842,0,4.429451,0.7510376,6.1436005,2.2528992v-1.7066345h3.9592953V286.0768738z M15.5640469,281.3667908v-10.5582886
			c-1.7747316-1.8050232-3.739234-2.7077942-5.8932476-2.7077942c-0.8496971,0-1.6157703,0.182251-2.2982197,0.5462646
			c-0.6827087,0.3640137-1.266778,0.9100037-1.7522078,1.6382751c-0.4854298,0.7280273-0.8621235,1.6383057-1.1251616,2.7305908
			c-0.2679572,1.0922852-0.3994765,2.3663025-0.3994765,3.8226013c0,2.7458496,0.477922,4.8291931,1.4337659,6.2450867
			c0.955585,1.4208069,2.2829442,2.1286316,3.9818196,2.1286316c1.0922813,0,2.1465063-0.3135071,3.1629486-0.9454651
			C13.6906757,283.6396179,14.6540279,282.6713562,15.5640469,281.3667908z"/>
		<path class="st0" d="M46.4648323,288.3523254c-1.6232796,0-3.1023521-0.2630615-4.4372177-0.7836914
			c-1.3348694-0.526062-2.4802246-1.2869568-3.4358101-2.2881165c-0.9558449-1.0011597-1.6939545-2.2249451-2.2200317-3.6737366
			c-0.5206413-1.4485168-0.78368-3.0995178-0.78368-4.9503479c0-1.8203125,0.2529449-3.4510803,0.763485-4.8920898
			c0.5056229-1.4412842,1.2238007-2.6622314,2.1490974-3.6636353c0.925312-1.0011597,2.0276718-1.7698364,3.3120537-2.3106689
			c1.2792244-0.5361633,2.6951065-0.8067017,4.242527-0.8067017c1.6080055,0,3.0565262,0.265625,4.3460884,0.7966003
			c1.289299,0.5307617,2.3890915,1.296814,3.2993698,2.2982483c0.9102783,1.0011292,1.6080017,2.2223511,2.0934334,3.6633606
			c0.4854279,1.4410095,0.7280121,3.0793152,0.7280121,4.9148865v0.9558411H39.729393
			c0.0911331,1.2893066,0.3210335,2.4118652,0.6928062,3.3677063c0.3715172,0.9555969,0.8546143,1.7444458,1.4461937,2.366333
			c0.5915756,0.6218567,1.2766151,1.0896912,2.0579643,1.4006042c0.7813454,0.3109436,1.6281967,0.4652405,2.538475,0.4652405
			c0.6521568,0,1.3045769-0.0859375,1.9567337-0.2627563c0.6524162-0.1721802,1.2388191-0.4300537,1.7648926-0.7738647
			c0.5206413-0.338623,0.945488-0.7634888,1.2742882-1.2742615c0.3236198-0.5056458,0.4955254-1.0871277,0.51054-1.7392883
			h4.1640854c-0.166729,1.1528625-0.528389,2.1768188-1.0795975,3.0718079
			c-0.5561104,0.8950195-1.256424,1.645813-2.1058578,2.252655c-0.8496971,0.606842-1.8280678,1.0694885-2.9353638,1.3879395
			C48.9069977,288.1930847,47.7238426,288.3523254,46.4648323,288.3523254z M52.335556,274.4949036
			c-0.1669884-1.0619812-0.4323578-1.9898682-0.7966232-2.7888184c-0.3640099-0.7937927-0.819149-1.4588928-1.3651581-1.989624
			c-0.5460129-0.5310059-1.1681404-0.9330444-1.8658638-1.2062073c-0.6977234-0.2728577-1.4487801-0.4095459-2.252655-0.4095459
			c-0.8041115,0-1.5523224,0.1289062-2.2402267,0.3870239c-0.6925468,0.2578735-1.309494,0.6521606-1.8557663,1.1831665
			c-0.5460091,0.5310059-1.0086555,1.1984253-1.3879395,2.0022888c-0.3792839,0.8041382-0.6446495,1.7447205-0.7963638,2.8217163
			H52.335556z"/>
		<path class="st0" d="M81.6433487,264.9833374c1.6080093,0,3.0565262,0.265625,4.3460922,0.7966003
			c1.289299,0.5307617,2.3890915,1.296814,3.2993698,2.2982483c0.9102783,1.0011292,1.6080017,2.2223511,2.0934296,3.6633606
			s0.7280121,3.0793152,0.7280121,4.9148865c0,1.8508301-0.2500687,3.5018311-0.7507935,4.9503479
			c-0.5007095,1.4487915-1.2059402,2.6725769-2.1162186,3.6737366s-2.0100632,1.7620544-3.2993698,2.2881165
			c-1.289299,0.5206299-2.7230453,0.7836914-4.3005219,0.7836914c-1.5626907,0-2.9860992-0.2578735-4.2678986-0.7735901
			c-1.2817917-0.5157166-2.3815842-1.274292-3.2967758-2.2754517c-0.9203796-1.0011292-1.6333771-2.2249451-2.1389999-3.6760559
			c-0.5105438-1.4461975-0.7634888-3.1049194-0.7634888-4.9707947c0-1.8355713,0.2503586-3.4761963,0.7508011-4.9249878
			c0.5007019-1.448761,1.2061996-2.6748962,2.1162186-3.6760559c0.9102783-1.0014038,2.0100632-1.7648926,3.2993698-2.2855225
			C78.6321335,265.2437744,80.0656433,264.9833374,81.6433487,264.9833374z M81.6433487,285.2121582
			c0.9403152,0,1.8001251-0.1768188,2.583786-0.5359192c0.7787552-0.3539124,1.4461899-0.892395,2.0022964-1.6131592
			c0.5512085-0.72052,0.9835663-1.618103,1.2944794-2.6850281c0.3111954-1.0718079,0.4678268-2.3106384,0.4678268-3.7216187
			c0-1.4107361-0.1566315-2.6495361-0.4678268-3.7216187c-0.3109131-1.066925-0.7432709-1.9619141-1.2944794-2.6850281
			c-0.5561066-0.717926-1.2235413-1.2564087-2.0022964-1.612915c-0.7836609-0.3565063-1.6434708-0.5361633-2.583786-0.5361633
			c-0.940567,0-1.8026886,0.179657-2.5840378,0.5361633c-0.7810898,0.3565063-1.4511108,0.894989-2.0123978,1.612915
			c-0.5612869,0.723114-0.9988174,1.618103-1.3097534,2.6850281c-0.310936,1.0720825-0.4652405,2.3108826-0.4652405,3.7216187
			c0,1.4109802,0.1543045,2.6498108,0.4652405,3.7216187c0.310936,1.066925,0.7484665,1.9645081,1.3097534,2.6850281
			c0.5612869,0.7207642,1.231308,1.2592468,2.0123978,1.6131592
			C79.8406601,285.0353394,80.7027817,285.2121582,81.6433487,285.2121582z"/>
		<path class="st0" d="M119.7797623,269.1473999c-0.5763092-0.1820068-1.3804398-0.2728577-2.4118805-0.2728577
			s-1.9771881,0.2653503-2.8318024,0.7963562c-0.8595352,0.5310059-1.6584854,1.3198547-2.4017563,2.3665771v15.7688293h-3.9365311
			v-22.2767029h3.9365311v3.0718079c1.6838379-2.4118958,3.6330643-3.6180725,5.8479233-3.6180725
			c0.2578583,0,0.5410919,0.0152588,0.8520279,0.0455627c0.3109512,0.0302734,0.6270447,0.0758362,0.945488,0.1366882V269.1473999z"
			/>
		<path class="st0" d="M152.2504883,286.0768738c0,7.1903381-3.2387848,10.785614-9.7161102,10.785614
			c-1.3957062,0-2.6547089-0.1566467-3.7772827-0.4652405c-1.1225739-0.3135071-2.0755768-0.7608948-2.8543396-1.3449707
			c-0.7839355-0.5840454-1.3856049-1.2944641-1.8101959-2.1389771c-0.4248505-0.8393555-0.637146-1.7926025-0.637146-2.8543396
			h4.118515c0,2.457428,1.6155243,3.6861572,4.8468018,3.6861572c0.9403076,0,1.7747345-0.1136475,2.5027618-0.341217
			c0.7282562-0.2275696,1.3426208-0.6270447,1.843338-1.193512c0.5004272-0.5713806,0.879715-1.3374634,1.1375732-2.3005676
			c0.2578735-0.9633484,0.386795-2.1871338,0.386795-3.6737061v-1.069519c-1.8202972,2.1239929-3.9440308,3.18573-6.37117,3.18573
			c-1.4865875,0-2.8038483-0.2731323-3.9492035-0.8191528s-2.1035156-1.3221741-2.8771057-2.3311157
			c-0.7738495-1.0086365-1.3628387-2.2223511-1.7649078-3.6405945c-0.4017944-1.4184875-0.6016693-2.9935913-0.6016693-4.7230225
			c0-1.8353271,0.2428436-3.4839783,0.7282715-4.9503479c0.4854279-1.4612122,1.1476898-2.7052002,1.9922028-3.73172
			c0.8393402-1.0213623,1.8329926-1.8076172,2.9783478-2.3538818c1.1453552-0.5460205,2.3867645-0.8191528,3.7216339-0.8191528
			c2.3815765,0,4.4294434,0.7510376,6.1436005,2.2528992v-1.7066345h3.9592896V286.0768738z M148.2911987,281.3667908v-10.5582886
			c-1.7747345-1.8050232-3.7392426-2.7077942-5.8932495-2.7077942c-0.8497009,0-1.6157684,0.182251-2.2982178,0.5462646
			c-0.6827087,0.3640137-1.2667847,0.9100037-1.7521973,1.6382751c-0.4854431,0.7280273-0.8621216,1.6383057-1.1251831,2.7305908
			c-0.2679596,1.0922852-0.3994751,2.3663025-0.3994751,3.8226013c0,2.7458496,0.4779205,4.8291931,1.4337616,6.2450867
			c0.9556122,1.4208069,2.2829437,2.1286316,3.9818268,2.1286316c1.0922852,0,2.1465302-0.3135071,3.1629333-0.9454651
			C146.4178162,283.6396179,147.3811798,282.6713562,148.2911987,281.3667908z"/>
		<path class="st0" d="M173.685257,261.3199463h-3.9365082v-4.3005066h3.9365082V261.3199463z M173.685257,287.8063049h-3.9365082
			v-22.2767029h3.9365082V287.8063049z"/>
		<path class="st0" d="M205.3140564,285.5536499c-2.0781555,1.8658752-4.6873169,2.7986755-7.8274536,2.7986755
			c-1.0770111,0-2.0758057-0.1566467-2.9936218-0.4652405c-0.9177551-0.3109436-1.7167358-0.7481995-2.3991852-1.3095093
			c-0.6827087-0.5612793-1.2162781-1.2364807-1.6054077-2.0253296c-0.3844604-0.7888489-0.5791321-1.6685791-0.5791321-2.6394348
			c0-5.2183228,4.4827576-7.8274841,13.4480591-7.8274841h1.9567413c0-0.9558411-0.0302887-1.8052673-0.0908661-2.5485535
			c-0.0608521-0.7433167-0.2578583-1.3677673-0.5918427-1.8785706c-0.3337097-0.5056152-0.8644562-0.892395-1.5927277-1.15802
			c-0.7280121-0.2653809-1.7519531-0.3994751-3.0717926-0.3994751c-3.5194397,0-5.3397369,1.2667542-5.4611511,3.8000488h-4.0048676
			c0.2884064-4.6114502,3.5194244-6.9174194,9.6935883-6.9174194c1.3954468,0,2.6547089,0.1213989,3.7772827,0.3642578
			c1.1225739,0.2425842,2.0729828,0.6824646,2.8543243,1.3195801c0.7813721,0.637146,1.3856201,1.5018616,1.8102112,2.5941467
			c0.4248505,1.0922852,0.6371307,2.4802246,0.6371307,4.164093v14.3808899h-3.9592896V285.5536499z M205.3140564,281.958374
			v-4.9604492h-2.7533569c-5.7492828,0-8.6238251,1.562439-8.6238251,4.6873169
			c0,1.1378479,0.4271851,2.0100403,1.2843781,2.6169128c0.8569489,0.6065979,1.992218,0.9100037,3.4029388,0.9100037
			c0.65242,0,1.2996521-0.0758362,1.9468994-0.2275696c0.6420593-0.1517029,1.2564087-0.3665771,1.8404846-0.6472168
			c0.5840759-0.2806702,1.1225739-0.6218872,1.618103-1.0265503
			C204.5202789,282.9113464,204.9500427,282.4588013,205.3140564,281.958374z"/>
	</g>
	<g>
		<circle class="st1" cx="105.666893" cy="90.0738068" r="90.0737915"/>
		<g>
			<path class="st2" d="M159.5706482,59.3248596h-42.9984741c0.2653732,4.7950134,1.913765,8.5241547,4.9503555,11.1824951
				c3.0314102,2.6648178,7.1170425,3.9908829,12.2519913,3.9908829c6.4040527,0,11.2762146-1.6672897,14.6110535-4.9995422
				l5.4507904,10.7325363c-4.9428253,4.0110779-12.3278503,6.0136337-22.1425934,6.0136337
				c-9.180191,0-16.438858-2.6852646-21.7785873-8.0640945c-5.3397293-5.3764877-8.0097198-12.8803329-8.0097198-22.5091896
				c0-9.4799957,2.9327698-17.1619568,8.7985764-23.0453682c5.8603668-5.880825,12.899231-8.821106,21.1033936-8.821106
				c8.7276306,0,15.7362061,2.6052704,21.0202789,7.8124447c5.2814636,5.2043285,7.9235077,11.8385372,7.9235077,19.894865
				C160.7512207,53.2356262,160.3569183,55.8383102,159.5706482,59.3248596z M117.0804138,48.7580223h29.5604553
				c-0.968277-8.8022079-5.8401794-13.2065468-14.6107941-13.2065468
				C124.0128479,35.5514755,119.0296173,39.9558144,117.0804138,48.7580223z"/>
			<path class="st2" d="M66.5853424,153.37323l8.8819275-10.9613953c4.9099579,4.4990997,10.37603,6.7442474,16.4111557,6.7442474
				c4.0426559,0,7.3824158-0.59935,10.0042572-1.7977753c2.6195068-1.2020569,3.9341812-2.848114,3.9341812-4.9464722
				c0-3.5598145-2.9050751-5.3371429-8.7149582-5.3371429c-1.5676117,0-3.9113998,0.1869202-7.0212555,0.5610352
				c-3.1121902,0.3730621-5.4533844,0.5602417-7.0259171,0.5602417c-9.66819,0-14.5023117-3.4650574-14.5023117-10.3964844
				c0-1.9859924,0.8041306-3.9352188,2.4170456-5.8453522c1.6105957-1.9114304,3.486557-3.3169785,5.622963-4.2132721
				c-6.8591843-4.4599991-10.2851562-10.7731781-10.2851562-18.9418716c0-6.4446945,2.3564682-11.7743301,7.0792694-15.9863052
				c4.7201691-4.2197495,10.5277252-6.3232803,17.4223785-6.3232803c5.3979874,0,9.9107971,1.0086594,13.5464783,3.0327148
				l5.5090408-6.4066467l9.721283,8.821106l-6.6898651,4.8897705c2.3235855,3.5256424,3.4865494,7.6819611,3.4865494,12.4795609
				c0,6.8540115-2.0908432,12.3379517-6.2650223,16.4375687c-4.1816864,4.1035004-9.453331,6.1537018-15.821907,6.1537018
				c-1.0138397,0-2.3639832-0.0908737-4.0452499-0.2816849l-2.3059692-0.3350067
				c-0.2653885,0-1.2639465,0.4007721-3.0060577,1.2072296c-1.7444382,0.8038712-2.6143341,1.6382904-2.6143341,2.4991226
				c0,1.5005646,1.289566,2.251358,3.8759308,2.251358c1.1629639,0,3.1124496-0.2842636,5.8479614-0.8455505
				c2.7331467-0.5599976,5.0766754-0.8419342,7.0235672-0.8419342c13.6779938,0,20.5143967,5.4888535,20.5143967,16.4665604
				c0,6.0706024-2.7354889,10.8389435-8.2041473,14.3050385c-5.4764328,3.4650726-12.0676575,5.1981201-19.7837982,5.1981201
				C82.3795319,161.5204315,74.0412674,158.802536,66.5853424,153.37323z M80.6376801,98.8546524
				c0,3.5608597,0.9835434,6.4180374,2.9480515,8.572052c1.9694214,2.1540146,4.6189575,3.2310181,7.9563904,3.2310181
				c3.3322449,0,5.8984451-1.0467148,7.6961975-3.1476593c1.8001022-2.0947266,2.6974335-4.9780502,2.6974335-8.6554108
				c0-3.0352936-0.963089-5.5988846-2.892128-7.7024155c-1.9316177-2.0947266-4.4297028-3.1453247-7.501503-3.1453247
				c-3.2235184,0-5.8479462,1.0151291-7.8704376,3.0352936C81.6463394,93.0660019,80.6376801,95.6715317,80.6376801,98.8546524z"/>
		</g>
		<g>
			<path class="st3" d="M161.917099,59.3248596h-42.9984665c0.2653656,4.7950134,1.9137573,8.5241547,4.9503479,11.1824951
				c3.0314102,2.6648178,7.1170425,3.9908829,12.2519913,3.9908829c6.4040527,0,11.2762146-1.6672897,14.6110535-4.9995422
				l5.4507904,10.7325363c-4.9428253,4.0110779-12.3278503,6.0136337-22.1425934,6.0136337
				c-9.180191,0-16.438858-2.6852646-21.7785873-8.0640945c-5.3397293-5.3764877-8.0097198-12.8803329-8.0097198-22.5091896
				c0-9.4799957,2.9327698-17.1619568,8.7985764-23.0453682c5.8603745-5.880825,12.899231-8.821106,21.1033936-8.821106
				c8.7276306,0,15.7362061,2.6052704,21.0202789,7.8124447c5.2814636,5.2043285,7.9235077,11.8385372,7.9235077,19.894865
				C163.0976715,53.2356262,162.7033691,55.8383102,161.917099,59.3248596z M119.4268646,48.7580223h29.5604553
				c-0.968277-8.8022079-5.8401794-13.2065468-14.6107941-13.2065468
				C126.3592987,35.5514755,121.3760681,39.9558144,119.4268646,48.7580223z"/>
			<path class="st3" d="M68.9317932,153.37323l8.8819275-10.9613953c4.9099579,4.4990997,10.37603,6.7442474,16.4111557,6.7442474
				c4.0426559,0,7.3824158-0.59935,10.0042572-1.7977753c2.6195068-1.2020569,3.9341812-2.848114,3.9341812-4.9464722
				c0-3.5598145-2.9050674-5.3371429-8.7149582-5.3371429c-1.5676117,0-3.9113998,0.1869202-7.0212555,0.5610352
				c-3.1121902,0.3730621-5.4533844,0.5602417-7.0259171,0.5602417c-9.66819,0-14.5023117-3.4650574-14.5023117-10.3964844
				c0-1.9859924,0.8041306-3.9352188,2.4170456-5.8453522c1.6105957-1.9114304,3.486557-3.3169785,5.622963-4.2132721
				c-6.8591843-4.4599991-10.2851562-10.7731781-10.2851562-18.9418716c0-6.4446945,2.3564682-11.7743301,7.0792694-15.9863052
				c4.7201691-4.2197495,10.5277252-6.3232803,17.4223785-6.3232803c5.3979874,0,9.9107971,1.0086594,13.5464783,3.0327148
				l5.5090408-6.4066467l9.721283,8.821106l-6.6898651,4.8897705c2.3235855,3.5256424,3.4865494,7.6819611,3.4865494,12.4795609
				c0,6.8540115-2.0908432,12.3379517-6.2650223,16.4375687c-4.1816864,4.1035004-9.453331,6.1537018-15.821907,6.1537018
				c-1.0138397,0-2.3639832-0.0908737-4.0452499-0.2816849l-2.3059692-0.3350067
				c-0.2653885,0-1.2639465,0.4007721-3.0060577,1.2072296c-1.7444382,0.8038712-2.6143341,1.6382904-2.6143341,2.4991226
				c0,1.5005646,1.289566,2.251358,3.8759308,2.251358c1.1629639,0,3.1124496-0.2842636,5.8479614-0.8455505
				c2.7331467-0.5599976,5.0766754-0.8419342,7.0235672-0.8419342c13.6779938,0,20.5143967,5.4888535,20.5143967,16.4665604
				c0,6.0706024-2.7354889,10.8389435-8.2041473,14.3050385c-5.4764252,3.4650726-12.0676575,5.1981201-19.7837982,5.1981201
				C84.7259827,161.5204315,76.3877258,158.802536,68.9317932,153.37323z M82.9841309,98.8546524
				c0,3.5608597,0.9835434,6.4180374,2.9480515,8.572052c1.9694214,2.1540146,4.6189575,3.2310181,7.9563904,3.2310181
				c3.3322449,0,5.8984451-1.0467148,7.6961975-3.1476593c1.8001022-2.0947266,2.6974335-4.9780502,2.6974335-8.6554108
				c0-3.0352936-0.963089-5.5988846-2.892128-7.7024155c-1.9316177-2.0947266-4.4297028-3.1453247-7.501503-3.1453247
				c-3.2235184,0-5.8479462,1.0151291-7.8704376,3.0352936C83.9927902,93.0660019,82.9841309,95.6715317,82.9841309,98.8546524z"/>
		</g>
	</g>
</g>
</svg>
