<?xml version="1.0" encoding="utf-8"?>
<!-- Generator: Adobe Illustrator 19.0.0, SVG Export Plug-In . SVG Version: 6.00 Build 0)  -->
<svg version="1.1" id="Layer_1" xmlns="http://www.w3.org/2000/svg" xmlns:xlink="http://www.w3.org/1999/xlink" x="0px" y="0px"
	 viewBox="-2092.0307617 193.9000244 1261.2313232 268.1000366"
	 style="enable-background:new -2092.0307617 193.9000244 1261.2313232 268.1000366;" xml:space="preserve">
<style type="text/css">
	.st0{fill:#3E98D3;}
	.st1{fill:#F8FBFE;}
</style>
<g>
	<path class="st0" d="M-1880.755249,457.9000244c-46,0-92-0.2999878-138,0.2000122
		c-16.8000488,0.2000122-31.2000732-5.2999878-43.6002197-15.7000122c-25.6000977-21.5-35.3000488-49.2000122-26.5-81.5
		c8.8999023-32.5,31.3000488-51.2999878,64.5001221-57.0999756c8.1999512-1.4000244,16.3000488-1.2999878,24.3000488,0.5
		c4,0.9000244,5-0.4000244,6.1999512-3.7999878c15.3000488-43,45.1999512-70.0999756,89.6000977-80
		c58.8000488-13.2000122,119.3000488,21.7000122,138.3000488,79.0999756c1.6000977,4.7999878,3,6.5999756,8.8000488,5.7999878
		c40.5-5.7999878,79.3999023,23.9000244,85.3000488,64.5999756c5,34.4000244-11.6999512,67.2000122-42,81.7000122
		c-8.5,4.0999756-17.3000488,6.5-27.1000977,6.4000244C-1787.4552002,457.7000122-1834.1551514,457.9000244-1880.755249,457.9000244
		z M-1828.9552002,361.7000122c-9.3000488,9.7000122-18.1999512,19-27.1999512,28.5c-1.5,1.5999756-3.3000488,2-5.3999023,1.9000244
		c-10,0-20-0.0999756-30,0c-2.8000488,0-4.3999023-0.9000244-5.8999023-3.4000244c-4-6.7000122-11.6999512-9.5-19-7.4000244
		S-1928.7550049,390-1928.7550049,397.7000122s4.6999512,14.0999756,12.1999512,16.4000244
		c7.1000977,2.2000122,15.1000977-0.5999756,19.1000977-7.2999878c1.6000977-2.7000122,3.5-3.4000244,6.5-3.4000244
		c11.1999512,0.0999756,22.3000488-0.0999756,33.5,0.0999756c3.3000488,0.0999756,5.6999512-1,7.8000488-3.4000244
		c9.5-10.2999878,19.5-20.0999756,28.3999023-30.7999878c6-7.2000122,12.6999512-9.7999878,21.6999512-8.7000122
		c2.6000977,0.2999878,4,0.7999878,5.1000977,3.5c4.3000488,10.7000122,12.5,16.7999878,24,17.4000244
		c13.3000488,0.7000122,25.5-9.5,27.5-22.7000122s-6.1999512-26.2999878-18.6999512-30
		c-13.3999023-3.9000244-27.3999023,2.5-32.5,15.4000244c-1.3999023,3.5999756-3.1999512,4.7000122-6.8999023,4.5
		c-6.3000488-0.2999878-12.6999512-0.2000122-19,0c-2.5,0.0999756-4.3999023-0.7000122-6.1999512-2.5
		c-13.3999023-12.9000244-27-25.7000122-40.5-38.7000122c-2.6000977-2.5-5.1999512-3.7000122-8.8000488-3.5999756
		c-14.3000488,0.2000122-28.6999512,0-43,0.0999756c-2.8000488,0-4.5-0.7999878-6.1000977-3.2000122
		c-4.5-7-12-9.7000122-19.5-7.2999878c-7.1999512,2.2999878-11.8000488,8.5999756-11.8000488,16.2000122
		c0,8,4.6000977,14.2999878,12,16.5c7.5,2.2000122,14.8999023-0.5,19.3999023-7.5999756
		c1.5-2.2999878,3-3.0999756,5.6000977-3.0999756c13.6999512,0.0999756,27.3000488,0.0999756,41,0
		c2.6000977,0,4.3999023,0.9000244,6.1999512,2.5999756c9,8.7000122,18.1000977,17.2000122,27.1000977,25.9000244
		c1.1000977,1.0999756,3.3000488,2.0999756,2.6000977,3.7999878c-0.6999512,1.7999878-3,0.7999878-4.5,0.7999878
		c-38.6999512,0-77.3000488,0-116,0.0999756c-3.8999023,0-6.6000977-0.5-9.1000977-4.2000122
		c-4.5-6.5-12.1000977-8.2000122-19.1000977-5.5c-6.8999023,2.5999756-11.1999512,9.2999878-11,16.7999878
		c0.3000488,7.0999756,5.3000488,13.7000122,12,15.5999756c7.5,2.0999756,15-0.4000244,19.1000977-7.2000122
		c1.8000488-2.9000244,3.8000488-3.5,6.8000488-3.5c43.3000488,0.0999756,86.6000977,0,130,0.0999756
		C-1832.3551025,360.9000244-1830.8551025,360.5-1828.9552002,361.7000122z"/>
	<path class="st0" d="M-1363.8551025,457.9000244c-14.6999512,0-29.3000488,0.0999756-44,0
		c-9.1000977-0.0999756-13.5-7.2000122-9.3000488-14.4000244c1.6999512-2.9000244,4.5-3.7999878,7.3000488-4.7999878
		c6.8000488-2.5999756,8.1000977-4.0999756,8.1000977-11.2999878c0.1000977-25.5,0-51,0.1000977-76.5
		c0-3.0999756-0.8999023-4-4-3.9000244c-6.8000488,0.2000122-13.6999512,0-20.5,0.0999756
		c-2.5,0-3.3999023-0.7000122-3.6000977-3.4000244c-0.6999512-13.7000122-0.8000488-13.7000122,12.6999512-13.7000122
		c3.6999512,0,7.3999023-0.2000122,11,0.0999756c3.6999512,0.2999878,4.3999023-1.2000122,4.3999023-4.5999756
		c-0.1000977-23.2999878,0-46.7000122-0.1000977-70c0-8.2000122-1.1000977-9.5-8.8999023-12.0999756
		c-5.8000488-1.9000244-8.5-5.5999756-7.8999023-10.5c0.6000977-4.7999878,4-7.7000122,10.1000977-7.7000122
		c30-0.0999756,60-0.0999756,90,0c6.1000977,0,9.6000977,2.9000244,10.3000488,7.5
		c0.8000488,4.9000244-1.8000488,8.5-7.8000488,10.5999756c-8.3999023,3-9.6999512,4.7999878-9.6999512,13.9000244c0,56,0,112,0,168
		c0,9,1.5,11.0999756,9.6000977,14c5.8999023,2.0999756,8.6999512,6.0999756,7.8999023,11.0999756
		c-0.6999512,4.7999878-4.3000488,7.7000122-10.6999512,7.7999878
		C-1333.8551025,458-1348.8551025,457.9000244-1363.8551025,457.9000244z"/>
	<path class="st0" d="M-1481.8551025,457.9000244c-14.6999512,0-29.3000488,0.0999756-44,0
		c-8-0.0999756-11.8999023-4.2000122-11.1000977-10.7000122c0.6000977-4.5,3.6999512-6.4000244,7.5-7.7999878
		c8.6999512-3.2000122,9.6000977-4.5,9.6000977-13.7999878c0-56.2000122,0-112.2999878,0-168.5
		c0-9.4000244-1-10.7999878-10-14.0999756c-5.6000977-2.0999756-7.6999512-5.0999756-7.1000977-10.4000244
		c0.6000977-5.2000122,4.5-6.5999756,8.6999512-7.4000244c1.8000488-0.4000244,3.6999512-0.2000122,5.5-0.2000122
		c27.3000488,0,54.6999512,0,82,0c0.3000488,0,0.6999512,0,1,0c8.1999512,0.0999756,11.8000488,2.2999878,12.6999512,7.7000122
		c0.8000488,5.5-2,9.0999756-9.6000977,11.2000122c-4.6000977,1.2999878-6.3999023,4.2999878-7,8.5999756
		c-0.1999512,1.5-0.1000977,3-0.1000977,4.5c0,56.2000122,0,112.2999878,0,168.5
		c0,9.7999878,0.8000488,10.9000244,9.6999512,14.2999878c5.1999512,1.9000244,7.6999512,5.7999878,6.8999023,10.7000122
		c-0.8000488,4.5999756-4,7.4000244-9.6999512,7.5c-9.3000488,0.2000122-18.6999512,0.0999756-28,0.0999756
		C-1470.5550537,457.9000244-1476.1551514,457.9000244-1481.8551025,457.9000244z"/>
	<path class="st0" d="M-946.5552368,341.4000244c0,37-0.0999756,74,0.0999756,111
		c0,4.2000122-0.6999512,5.7000122-5.4000244,5.7000122c-24.8000488-0.2999878-49.5999756-0.0999756-74.499939-0.0999756
		c-2.6999512,0-5.3000488-0.0999756-7.9000244-1.0999756c-3.1999512-1.2999878-5.3000488-3.5-5.5999756-7
		c-0.3000488-3.7999878,0.8000488-6.9000244,4.1999512-8.9000244c0.9000244-0.5,1.8000488-1,2.6999512-1.2000122
		c10.7999878-2.7000122,10.2999878-7.0999756,10.2999878-15.4000244c0-55.2999878,0-110.5999756,0-165.9000244
		c0-1.5-0.0999756-3-0.0999756-4.5c-0.0999756-5.2999878-2.0999146-8.9000244-7.6998901-10.0999756
		c-1.9000244-0.4000244-3.8000488-1.2999878-5.5-2.2999878c-3.1999512-1.9000244-4.3000488-4.9000244-4-8.5999756
		c0.3000488-3.5999756,2.5-5.7000122,5.5999756-6.9000244c2.4000244-1,4.8000488-1.0999756,7.4000244-1.0999756
		c25.1998901,0,50.2999878,0.0999756,75.499939-0.0999756c4.1999512,0,4.8000488,1.5,4.8000488,5.2000122
		C-946.6552124,267.0999756-946.5552368,304.2999878-946.5552368,341.4000244z"/>
	<path class="st0" d="M-1234.5550537,224.9000244c13.5,0,27,0,40.5,0c3,0,6,0,8.9000244,0.9000244
		c3.5,1.0999756,5.8000488,3.4000244,6.3000488,7c0.5,3.7999878-1.0999756,6.7999878-4.3000488,8.9000244
		c-0.6999512,0.4000244-1.5,0.7999878-2.1999512,1.0999756c-10.5,4.4000244-10.9000244,5-11,16.5c0,19.7999878,0,39.5999756,0,59.5
		c0,24.2000122,0,48.2999878,0,72.5c0,10.0999756-0.0999756,20.2999878,1.5,30.4000244
		c1.4000244,8.7000122,5.6999512,15.2000122,14.8000488,17.4000244c2.5,0.5999756,3.5,1.9000244,3.4000244,4.5999756
		c-0.1999512,5.2999878-0.0999756,10.7000122,0,16c0,1.9000244-0.4000244,3.2000122-2.6999512,3.2000122
		c-27.9000244-0.0999756-54.3999023-4.5999756-76.1999512-24.0999756c-10.5-9.4000244-14.6999512-21.5-15.8999023-35
		c-0.6000977-7-0.8000488-14-0.8000488-21c-0.1000977-41,0-81.9000244,0-122.9000244c0-2.2999878-0.1000977-4.7000122-0.1000977-7
		c-0.1000977-4.5-2.1999512-7.2999878-6.6999512-8.7999878c-8.5-2.7999878-11.3000488-6.2000122-10.3000488-11.7000122
		c0.8999023-5,5.3000488-7.4000244,13.6000977-7.4000244
		C-1262.255249,224.9000244-1248.4552002,224.9000244-1234.5550537,224.9000244z"/>
	<path class="st0" d="M-1112.6551514,224.9000244c13.6999512,0,27.3000488,0,41,0
		c2.0999756,0,4.4000244,0.0999756,6.4000244,0.5999756c4,1,7,3.0999756,7.3000488,7.7000122
		c0.3000488,4.5999756-1.9000244,7.5999756-6,9.4000244c-1.6999512,0.7000122-3.4000244,1.2999878-5.1999512,1.7999878
		c-3.6999512,1.0999756-5.4000244,3.7000122-5.8000488,7.2999878c-0.1999512,2.7000122-0.3000488,5.2999878-0.3000488,8
		c0,42.0999756,0,84.2999878-0.0999756,126.4000244c0,7-0.5999756,14-1.1999512,20.9000244
		c-1.6999512,19.5999756-13,32.5999756-29.4000244,41.9000244c-14.0999756,8-29.4000244,12.2000122-45.5999756,13.0999756
		c-5.0999756,0.2999878-10.3000488,0.4000244-15.5,0.7999878c-2.6999512,0.2000122-4-0.5-3.9000244-3.5999756
		c0.1999512-5.2999878,0.0999756-10.7000122,0-16c-0.0999756-2.2000122,0.5999756-3.5,2.6999512-4
		c12.5999756-3.0999756,15.6999512-12.7999878,16.1999512-23.9000244c1.1999512-24.5,0.5999756-48.9000244,0.6999512-73.4000244
		c0.0999756-27,0-54,0-80.9000244c0-2.7000122-0.4000244-5.2999878-0.5-8c-0.0999756-5-2.5999756-8-7.5999756-9.0999756
		c-1.5999756-0.4000244-3.1999512-1.0999756-4.5999756-1.7999878c-3.6999512-1.9000244-5.4000244-5-4.9000244-9
		c0.5-3.9000244,2.9000244-6.2000122,6.5999756-7.2000122c2.8000488-0.7999878,5.5999756-0.7999878,8.4000244-0.7999878
		C-1139.9552002,224.9000244-1126.255127,224.9000244-1112.6551514,224.9000244z"/>
	<path class="st0" d="M-890.255188,336.7000122c7.3000488,2.2999878,14.8000488,3.9000244,21.9000244,6.4000244
		c44.5999756,15.7000122,44.5999756,67.2999878,25.1999512,90.0999756c-12.4000244,14.5999756-28.8000488,21.5-47.5,23.5999756
		c-12.5999756,1.4000244-25.3000488,0.7000122-37.9000244,1.0999756c-3.3000488,0.0999756-4.5999756-1-4.0999756-4.2000122
		c0.0999756-1,0-2,0-3c0.0999756-3.2999878-0.9000244-7.2000122,0.5-9.7999878s5.6999512-1.5,8.6999512-2.5
		c8.5-2.7000122,13-9,13.5999756-17.4000244c1.1999512-18.5999756,1.0999756-37.2999878,0-55.9000244
		c-0.5-9.4000244-7.4000244-16.2999878-17.0999756-18.2999878c-3.6999512-0.7999878-5.6999512-2.0999756-4.9000244-6.0999756
		c0.0999756-0.5,0-1,0-1.5c0-3.2999878-0.8000488-7,0.3000488-9.9000244c1.3000488-3.5,5.8000488-1.9000244,8.8000488-3.0999756
		c8.0999756-3,12.6999512-9.0999756,13.0999756-17.2000122c0.5999756-14.5,0.5-29-0.0999756-43.5
		c-0.5-11.7999878-6.8000488-18.5999756-18.4000244-21c-3.8000488-0.7999878-4.8000488-2.2999878-4.5999756-5.9000244
		c0.3000488-3.5999756,0.0999756-7.2999878,0.0999756-11c0-1.7000122,0.3000488-2.9000244,2.4000244-2.9000244
		c21-0.0999756,42.0999756-0.9000244,62,7.5c14.8000488,6.2000122,26.0999756,15.9000244,31.4000244,31.5
		c9,26.2999878-3.5,54-29.0999756,64.9000244C-873.8551636,332.0999756-882.0552368,334.0999756-890.255188,336.7000122z"/>
	<path class="st0" d="M-1632.5550537,374.4000244c0-19.7999878-0.1000977-39.5999756,0.1000977-59.5
		c0-5.4000244-1.1000977-9.4000244-7.1000977-10.7999878c-3.6000977-0.9000244-5.6000977-3.5-5.1000977-7.5
		c0.5-4.0999756,3.5-5.7000122,7.1000977-5.7000122c21.6999512-0.0999756,43.3000488-0.0999756,65,0
		c3.3000488,0,6.3000488,1.4000244,6.8999023,5.2999878c0.6000977,4.0999756-1.3000488,7-5.1999512,7.9000244
		c-5.6999512,1.4000244-7,5-7,10.2999878c0.1000977,40.0999756,0.1000977,80.2999878,0,120.4000244
		c0,5.2000122,1.6000977,8.5999756,6.8999023,9.9000244c4,0.9000244,5.8000488,3.7000122,5.1999512,7.7999878
		c-0.6000977,3.9000244-3.6999512,5.0999756-7,5.0999756c-21.6999512,0.0999756-43.3000488,0.0999756-65,0
		c-3.6000977,0-6.6000977-1.7000122-6.8999023-5.7999878c-0.3999023-4,1.6999512-6.4000244,5.3999023-7.2000122
		c5.3999023-1.2000122,6.8999023-4.7999878,6.8000488-9.9000244
		C-1632.6551514,414.7000122-1632.5550537,394.5999756-1632.5550537,374.4000244z"/>
	<path class="st0" d="M-1563.755249,235.4000244c0,23-18.5,41.5999756-41.6000977,41.5c-23,0-41.5-18.5999756-41.3999023-41.7000122
		c0.1000977-22.7999878,18.5-41.2000122,41.3000488-41.2999878
		C-1582.3551025,193.9000244-1563.8551025,212.2999878-1563.755249,235.4000244z"/>
	<path class="st1" d="M-1828.9552002,361.7000122c-1.8999023-1.2000122-3.3999023-0.7999878-4.8000488-0.7999878
		c-43.3000488,0-86.6000977,0-130-0.0999756c-3.1000977,0-5.1000977,0.5999756-6.8000488,3.5
		c-4.1000977,6.7999878-11.6000977,9.4000244-19.1000977,7.2000122c-6.6999512-1.9000244-11.6999512-8.5-12-15.5999756
		c-0.3000488-7.5,4.1000977-14.2000122,11-16.7999878c7-2.7000122,14.6999512-0.9000244,19.1000977,5.5
		c2.5,3.7000122,5.3000488,4.2000122,9.1000977,4.2000122c38.6999512-0.0999756,77.3000488,0,116-0.0999756
		c1.6000977,0,3.8000488,1,4.5-0.7999878c0.6999512-1.7000122-1.5-2.7000122-2.6000977-3.7999878
		c-9-8.7000122-18.1000977-17.2000122-27.1000977-25.9000244c-1.8000488-1.7000122-3.6000977-2.5999756-6.1999512-2.5999756
		c-13.6999512,0.0999756-27.3000488,0.0999756-41,0c-2.6000977,0-4.1999512,0.7999878-5.6000977,3.0999756
		c-4.5,7.0999756-11.8999023,9.7999878-19.3999023,7.5999756s-12-8.5-12-16.5
		c0-7.5999756,4.6000977-13.9000244,11.8000488-16.2000122c7.3999023-2.4000244,15,0.2999878,19.5,7.2999878
		c1.6000977,2.5,3.3000488,3.2000122,6.1000977,3.2000122c14.3000488-0.0999756,28.6999512,0,43-0.0999756
		c3.6000977,0,6.3000488,1.0999756,8.8000488,3.5999756c13.3999023,13,27,25.7000122,40.5,38.7000122
		c1.8000488,1.7999878,3.6999512,2.5,6.1999512,2.5c6.3000488-0.0999756,12.6999512-0.2999878,19,0
		c3.6999512,0.2000122,5.5-0.9000244,6.8999023-4.5c5.1000977-12.9000244,19-19.2999878,32.5-15.4000244
		c12.5,3.5999756,20.6999512,16.7999878,18.6999512,30s-14.1999512,23.5-27.5,22.7000122
		c-11.5-0.5999756-19.6999512-6.7000122-24-17.4000244c-1.1000977-2.7000122-2.3999023-3.2000122-5.1000977-3.5
		c-9-1.0999756-15.6999512,1.5999756-21.6999512,8.7000122c-8.8999023,10.7000122-19,20.5-28.3999023,30.7999878
		c-2.1999512,2.4000244-4.5,3.4000244-7.8000488,3.4000244c-11.1999512-0.2000122-22.3000488,0-33.5-0.0999756
		c-2.8999023,0-4.8000488,0.7000122-6.5,3.4000244c-4,6.7000122-12,9.5-19.1000977,7.2999878
		c-7.5-2.2999878-12.1999512-8.7000122-12.1999512-16.4000244s5-14.2999878,12.3000488-16.4000244
		c7.3999023-2.0999756,15,0.7000122,19,7.4000244c1.5,2.5,3.1000977,3.4000244,5.8999023,3.4000244c10-0.2000122,20-0.0999756,30,0
		c2.1000977,0,3.8999023-0.2999878,5.3999023-1.9000244C-1847.255249,380.7999878-1838.255249,371.4000244-1828.9552002,361.7000122
		z M-1787.4552002,342.4000244c8.6000977-1.5,16.6999512-1,23.6999512,4.5999756s9.8000488,13.2000122,10.3000488,22.4000244
		c7.8000488-11.2999878,5.3000488-25-5.1000977-31.9000244
		C-1768.255249,331.2000122-1781.5550537,333.2999878-1787.4552002,342.4000244z"/>
	<path class="st0" d="M-1787.4552002,342.4000244c5.8999023-9.0999756,19.1999512-11.2000122,28.8999023-4.7999878
		c10.3999023,6.9000244,12.8999023,20.5,5.1000977,31.9000244c-0.5-9.2999878-3.3000488-16.7999878-10.3000488-22.4000244
		C-1770.8551025,341.4000244-1778.8551025,340.9000244-1787.4552002,342.4000244z"/>
</g>
</svg>
