<?xml version="1.0" encoding="utf-8"?>
<!-- Generator: Adobe Illustrator 19.0.0, SVG Export Plug-In . SVG Version: 6.00 Build 0)  -->
<svg version="1.1" id="Layer_1" xmlns="http://www.w3.org/2000/svg" xmlns:xlink="http://www.w3.org/1999/xlink" x="0px" y="0px"
	 viewBox="-724.3 99.2 815.7 509" style="enable-background:new -724.3 99.2 815.7 509;" xml:space="preserve">
<style type="text/css">
	.st0{fill:#3E98D3;}
	.st1{fill:#F8FBFE;}
</style>
<g>
	<path class="st0" d="M-315.8,339.3c-46,0-92-0.3-138,0.2c-16.9,0.2-31.2-5.6-43.5-16c-25-21.2-34.5-48.4-26.3-80.2
		c8.1-31.6,29.5-50.5,61.3-57.5c9.2-2,18.6-2.1,27.8,0c4,0.9,5-0.4,6.2-3.8c15.3-43,45.2-70.1,89.6-80
		c58.8-13.2,119.3,21.7,138.3,79.1c1.6,4.9,3,6.6,8.8,5.8c40.4-5.8,79.3,23.9,85.3,64.6c4.8,33.2-9.9,63.8-38.9,80
		c-9.1,5.1-18.8,8.1-29.7,8.1C-221.8,339.2-268.8,339.3-315.8,339.3z M-263.5,243.2c-9.4,9.8-18.7,19.5-28,29.2
		c-1.3,1.4-3,1.2-4.7,1.2c-10,0-20-0.1-30,0c-2.6,0-4.2-0.6-5.6-3c-4.2-7.1-11.8-9.9-19.3-7.7c-7.3,2.1-12.2,8.8-12.2,16.5
		c0,7.6,5,14.1,12.3,16.4c7.1,2.1,14.9-0.7,19-7.4c1.5-2.5,3.2-3.3,6-3.3c11.5,0.1,23,0,34.5,0.1c2.7,0,4.7-0.7,6.6-2.7
		c8.3-9.1,16.7-18.1,25.1-27.1c6.7-7.2,12.6-15.6,24.8-13.2c3.4,0.7,5.1,1.4,6.4,4.6c4.8,11.5,17.1,18.3,28.6,16.1
		c13.4-2.5,22.6-13.3,22.6-26.6c0-13.1-9.1-24.1-22-26.6c-12.5-2.4-24.9,4.6-29.8,17.3c-1.1,2.7-2.4,3.5-5.1,3.4
		c-6.8-0.2-13.7-0.2-20.5,0c-2.6,0.1-4.3-0.9-6.1-2.6c-13.5-12.9-27-25.7-40.5-38.7c-2.6-2.5-5.3-3.5-8.9-3.5
		c-14.2,0.1-28.3,0-42.5,0.1c-3,0-4.8-0.7-6.5-3.4c-4.3-6.8-11.8-9.4-19.1-7.3c-7.4,2.2-12.1,8.7-12.1,16.5
		c0,7.6,4.6,13.9,11.8,16.2c7.5,2.4,15.1-0.3,19.5-7.3c1.5-2.5,3.2-3.3,6-3.3c13.5,0.1,27,0.1,40.5,0c2.7,0,4.7,0.9,6.6,2.8
		c8,7.8,16.2,15.4,24.1,23.2c2.1,2.1,5.4,3.2,6.3,6.6c-1.7,1.1-3.4,0.6-5,0.6c-38.2,0-76.3,0-114.5,0.1c-4.7,0-8.4-0.3-11.9-4.9
		c-6.1-8.1-17.8-7.9-24.6-0.7c-6.9,7.3-6.1,19,1.7,25.3c7.6,6.1,19.2,4.5,24.5-3.9c1.9-2.9,3.8-3.9,7.1-3.9
		c43.2,0.1,86.3,0.1,129.5,0.1C-267.2,242.4-265.5,241.9-263.5,243.2z"/>
	<path class="st0" d="M-440.8,370.3c13.5,0,27,0,40.5,0c1,0,2,0,3,0c7.2,0.2,11,2.8,11.7,7.8c0.7,5.1-2.1,8.5-8.9,10.8
		c-7,2.4-8.6,4.8-8.7,13.1c0,32,0,64,0,96c0,23.8,0,47.7,0,71.5c0,10,1.1,11.5,10.2,15.1c5.3,2,7.9,5.8,7.3,10.6
		c-0.5,4.6-3.6,7.3-9.4,8c-0.8,0.1-1.7,0.1-2.5,0.1c-29.2,0-58.3,0.1-87.5,0c-9.1,0-13.4-6.2-10.1-13.7c1.4-3.2,4.4-4.3,7.4-5.5
		c7.4-2.7,8.4-4.1,8.4-12.1c0.1-25.2,0-50.3,0.1-75.5c0-3.2-0.8-4.4-4.1-4.3c-6.5,0.2-13-0.1-19.5,0.1c-3,0.1-4.4-0.5-4.4-4
		c-0.2-13.1-0.3-13,12.9-13.1c4.9-0.1,11.5,2.2,14.3-1.1c2.4-2.8,0.8-9.2,0.8-14c0-19.5,0-39,0-58.5c0-9.1-0.8-10.1-9.1-13
		c-5.8-2-8.5-5.7-7.7-10.7c0.7-4.8,4.1-7.5,10.2-7.6C-470.8,370.3-455.8,370.4-440.8,370.3C-440.8,370.4-440.8,370.3-440.8,370.3z"
		/>
	<path class="st0" d="M-559.3,603.3c-14.7,0-29.3,0.1-44,0c-8-0.1-11.9-4.1-11.1-10.7c0.6-4.5,3.7-6.4,7.5-7.8
		c8.7-3.2,9.7-4.6,9.7-13.8c0-56.2,0-112.3,0-168.5c0-9.4-1-10.8-10-14.1c-5.7-2.1-7.7-5.1-7.2-10.4c0.4-4.2,3.7-6.9,9.2-7.6
		c1.6-0.2,3.3-0.2,5-0.2c27.3,0,54.7,0,82,0c0.5,0,1,0,1.5,0c7.8,0.1,11.4,2.4,12.2,7.6c0.8,5.4-1.9,8.8-9.1,11.1
		c-6.1,2-7.6,4.2-7.6,11.7c0,29,0,58,0,87c0,28,0,56,0,84c0,8.6,1.2,10.2,9.2,13.1c5.6,2,8.3,5.9,7.4,10.8
		c-0.8,4.8-4.1,7.5-10.2,7.6C-529.7,603.4-544.5,603.3-559.3,603.3z"/>
	<path class="st0" d="M-24.1,486.8c0,37-0.1,74,0.1,111c0,4.8-1.5,5.7-5.9,5.7c-24.7-0.2-49.3-0.1-74-0.1c-2.9,0-5.7-0.1-8.3-1.3
		c-3.1-1.4-5.1-3.7-5.2-7.3c-0.1-3.6,1-6.6,4.3-8.4c1.4-0.8,3-1.4,4.6-2c7.1-2.5,8.3-3.9,8.3-11.6c0.1-57.5,0.1-115,0-172.4
		c0-7.6-1.2-8.8-8.6-11.4c-1.7-0.6-3.5-1.3-4.9-2.3c-3.1-2.1-4-5.2-3.6-8.8c0.4-3.3,2.5-5.3,5.5-6.5c2.5-1,5.2-1.1,7.9-1.1
		c25,0,50,0.1,75-0.1c4.2,0,4.8,1.5,4.8,5.2C-24.1,412.5-24.1,449.7-24.1,486.8z"/>
	<path class="st0" d="M-350,471.9c0-26.2,0-47.7,0-69.2c0-10.9-1.8-11.7-9.6-14.2c-5.8-1.8-8.2-5.5-7.6-10.2
		c0.5-4.3,3.9-7.1,9.7-7.8c2.3-0.3,4.7-0.2,7-0.2c26.2,0,52.3,0,78.5,0c3.2,0,6.3,0,9.4,1c3.5,1.1,5.7,3.4,6.2,7.1
		c0.5,3.8-1.1,6.8-4.4,8.8c-0.7,0.4-1.5,0.8-2.3,1c-9.1,2.5-10.8,2.9-10.8,16c-0.2,47-0.2,94,0,141c0,7.4-0.1,15,1.4,22.4
		c1.7,8.3,5.8,14.5,14.5,16.7c2.6,0.7,3.8,1.9,3.7,4.9c-0.3,5.2-0.1,10.3-0.1,15.5c0,2.2-0.5,3.5-3,3.5
		c-24.7-0.1-48.4-3.8-69.2-18.6c-14.9-10.6-21.8-25-22.7-42.9C-350.6,520.2-349.6,493.7-350,471.9z"/>
	<path class="st0" d="M-190.6,370.3c13,0,26,0,39,0c1.7,0,3.3,0,5,0c6.6,0.3,10.6,3.1,11.2,7.8c0.7,5-2,8.4-8.4,10.7
		c-8,2.9-8.8,3.9-8.8,13.3c0,42.3,0,84.7,0,127c0,7.8-0.5,15.6-1.2,23.4c-1.9,19.6-13.2,32.5-29.6,41.8c-14.2,8-29.4,12.2-45.7,13
		c-5,0.3-10,0.4-15,0.8c-2.9,0.2-4.3-0.7-4.2-3.9c0.2-5.2,0.2-10.3,0-15.5c-0.1-2.5,0.9-3.7,3.1-4.3c12-3.1,15.4-12.4,15.8-23.2
		c1.6-42.1,0.5-84.3,0.7-126.5c0.1-12,0.5-24-0.3-36c-0.3-5.1-2.4-8.5-7.6-9.7c-1.6-0.4-3.2-1-4.6-1.8c-3.7-1.9-5.4-4.9-4.9-9
		c0.4-3.9,2.9-6.2,6.6-7.3c2.8-0.8,5.6-0.8,8.4-0.8C-217.6,370.3-204.1,370.3-190.6,370.3z"/>
	<path class="st0" d="M30.7,482.1c7.9,2.1,14.4,3.6,20.6,5.6c21.1,6.9,35.4,20.5,39.1,43c6.5,39.7-18.6,64.4-51.9,70.6
		c-15,2.8-30.2,1.9-45.3,2.1c-2.5,0-3.9-0.6-3.5-3.3c0.1-0.5,0-1,0-1.5c0-3.8-0.9-8,0.3-11.4c1.5-4,6.6-2.3,10-3.6
		c8.2-3.2,11.9-9.6,12.6-17.7c1.5-18.3,1.3-36.6,0-54.9c-0.7-9.6-7.5-16.9-17.2-18.7c-3.8-0.7-5.6-2.2-4.9-6.2c0.2-0.8,0-1.7,0-2.5
		c0.1-3.2-0.8-6.8,0.5-9.3c1.3-2.6,5.4-1.6,8.2-2.5c8.2-2.7,13.9-10.2,14.1-20.4c0.2-12.8,0.6-25.6-0.4-38.5
		c-1.1-13.8-6.4-20.3-19.7-23.3c-2.5-0.6-3.8-1.2-3.6-4.1c0.2-4.2,0.1-8.3,0-12.5c0-1.8,0.4-2.8,2.5-2.8c20-0.1,40.1-0.9,59.2,6.4
		c20.1,7.7,33.6,21,36.5,43.3c3,23.1-9.6,44.9-31.5,54.2C48.6,477.6,40.3,479.5,30.7,482.1z"/>
	<path class="st0" d="M-682.6,603.3c-10.5,0-21,0.1-31.5,0c-5.8-0.1-8.9-3.2-8.1-7.7c0.6-3.2,2.8-4.8,5.8-5.5
		c4.9-1.2,6.4-4.4,6.4-9.2c-0.1-40.6-0.1-81.3,0-121.9c0-4.8-1.5-7.9-6.5-9.2c-3.9-1-6.5-3.6-5.7-8.1c0.8-4.3,4.3-5.4,7.9-5.4
		c21.1-0.1,42.3-0.1,63.4,0c3.5,0,6.7,1.1,7.5,5.2c0.8,4.4-1.4,7.2-5.5,8.2c-5.3,1.3-6.6,4.6-6.6,9.6c0.1,40.5,0.1,80.9,0,121.4
		c0,5,1.7,8.3,6.8,9.5c4,0.9,6,3.6,5.4,7.7c-0.6,4.2-3.9,5.3-7.3,5.3C-661.3,603.4-672,603.3-682.6,603.3L-682.6,603.3z"/>
	<path class="st0" d="M-641.3,380.9c0,23-18.6,41.5-41.6,41.5s-41.5-18.7-41.4-41.8c0.1-22.7,18.6-41.2,41.4-41.2
		C-659.9,339.3-641.3,357.9-641.3,380.9z"/>
	<path class="st1" d="M-263.5,243.2c-2-1.3-3.7-0.8-5.3-0.8c-43.2,0-86.3,0-129.5-0.1c-3.4,0-5.3,1-7.1,3.9c-5.4,8.4-17,10-24.5,3.9
		c-7.8-6.3-8.6-18-1.7-25.3c6.8-7.2,18.6-7.4,24.6,0.7c3.5,4.6,7.1,4.9,11.9,4.9c38.2-0.1,76.3,0,114.5-0.1c1.6,0,3.3,0.5,5-0.6
		c-0.9-3.4-4.2-4.5-6.3-6.6c-8-7.8-16.1-15.4-24.1-23.2c-1.9-1.9-3.9-2.8-6.6-2.8c-13.5,0.1-27,0.1-40.5,0c-2.8,0-4.4,0.8-6,3.3
		c-4.4,7-12,9.6-19.5,7.3c-7.2-2.2-11.7-8.5-11.8-16.2c0-7.8,4.7-14.3,12.1-16.5c7.3-2.2,14.8,0.5,19.1,7.3c1.7,2.7,3.5,3.4,6.5,3.4
		c14.2-0.1,28.3,0,42.5-0.1c3.6,0,6.3,0.9,8.9,3.5c13.4,13,27,25.7,40.5,38.7c1.8,1.7,3.6,2.7,6.1,2.6c6.8-0.2,13.7-0.2,20.5,0
		c2.7,0.1,4-0.7,5.1-3.4c5-12.6,17.4-19.7,29.8-17.3c12.9,2.5,22,13.5,22,26.6c0,13.3-9.2,24.1-22.6,26.6
		c-11.5,2.2-23.9-4.6-28.6-16.1c-1.3-3.2-3-3.9-6.4-4.6c-12.2-2.5-18.1,5.9-24.8,13.2c-8.4,9-16.8,18-25.1,27.1
		c-1.8,2-3.9,2.8-6.6,2.7c-11.5-0.1-23,0-34.5-0.1c-2.8,0-4.5,0.7-6,3.3c-4.1,6.7-11.9,9.6-19,7.4c-7.4-2.2-12.3-8.8-12.3-16.4
		c0-7.7,4.9-14.3,12.2-16.5c7.5-2.2,15.1,0.6,19.3,7.7c1.4,2.4,3.1,3,5.6,3c10-0.1,20,0,30,0c1.7,0,3.4,0.2,4.7-1.2
		C-282.2,262.7-272.9,253-263.5,243.2z M-222.4,224c9.2-1.8,17.3-1.1,24.3,4.6c6.9,5.6,9.8,13,10,22c8.6-10.1,4.5-24.2-3.1-30.2
		C-200.9,212.7-214.5,213.9-222.4,224z"/>
	<path class="st0" d="M-222.4,224c7.9-10.1,21.5-11.3,31.2-3.6c7.6,6,11.7,20.1,3.1,30.2c-0.2-9-3.2-16.4-10-22
		C-205.2,222.9-213.2,222.3-222.4,224z"/>
</g>
</svg>
