<?xml version="1.0" encoding="utf-8"?>
<!-- Generator: Adobe Illustrator 19.0.0, SVG Export Plug-In . SVG Version: 6.00 Build 0)  -->
<svg version="1.1"
	 id="svg17154" sodipodi:docname="logo_eng_geo.svg" inkscape:version="0.91 r13725" xmlns:rdf="http://www.w3.org/1999/02/22-rdf-syntax-ns#" xmlns:svg="http://www.w3.org/2000/svg" xmlns:sodipodi="http://sodipodi.sourceforge.net/DTD/sodipodi-0.dtd" xmlns:inkscape="http://www.inkscape.org/namespaces/inkscape" xmlns:dc="http://purl.org/dc/elements/1.1/" xmlns:cc="http://creativecommons.org/ns#"
	 xmlns="http://www.w3.org/2000/svg" xmlns:xlink="http://www.w3.org/1999/xlink" x="0px" y="0px" viewBox="15.5 44.2 408.9 116.4"
	 style="enable-background:new 15.5 44.2 408.9 116.4;" xml:space="preserve">
<style type="text/css">
	.st0{fill:#3366CC;}
	.st1{fill:#FFFF00;}
</style>
<sodipodi:namedview  inkscape:window-maximized="1" inkscape:window-y="-8" inkscape:current-layer="layer1" inkscape:document-units="px" inkscape:pageopacity="0.0" inkscape:window-x="-8" inkscape:window-height="745" inkscape:window-width="1251" inkscape:pageshadow="2" pagecolor="#ffffff" inkscape:zoom="0.98994949" borderopacity="1.0" inkscape:cx="262.79107" bordercolor="#666666" id="base" showgrid="false" inkscape:cy="891.58155">
	</sodipodi:namedview>
<g id="layer1" inkscape:groupmode="layer" inkscape:label="Layer 1">
	<g id="rect18234">
		<path inkscape:export-ydpi="299.99777" inkscape:export-xdpi="299.99777" class="st0" d="M33.4,44.2h373.1c9.9,0,17.9,8,17.9,17.9
			v80.7c0,9.9-8,17.9-17.9,17.9H33.4c-9.9,0-17.9-8-17.9-17.9V62.1C15.5,52.2,23.5,44.2,33.4,44.2z"/>
		<path d="M406.6,160.7H33.4c-9.9,0-17.9-8-17.9-17.9V62.1c0-9.9,8-17.9,17.9-17.9h373.1c9.9,0,17.9,8,17.9,17.9v80.7
			C424.5,152.6,416.4,160.7,406.6,160.7z M33.4,44.3c-9.8,0-17.8,8-17.8,17.8v80.7c0,9.8,8,17.8,17.8,17.8h373.1
			c9.8,0,17.8-8,17.8-17.8V62.1c0-9.8-8-17.8-17.8-17.8H33.4z"/>
	</g>
	
		<g id="g17012" transform="matrix(1.331,0,0,1.331,9.4407449,-414.22221)" inkscape:export-ydpi="299.99777" inkscape:export-xdpi="299.99777">
		<g id="g9810">
			<g id="path12">
				<path inkscape:connector-curvature="0" class="st1" d="M142.7,388.9c0,2.8,2.1,5,4.9,5c-2.8,0-5,2.1-5,4.9c0-2.8-2.1-5-4.9-5
					C140.6,393.8,142.7,391.7,142.7,388.9"/>
			</g>
			<g id="path14">
				<path inkscape:connector-curvature="0" class="st1" d="M148,404.6c-0.8-2.5-3.3-3.8-5.8-3c2.5-0.8,3.8-3.3,3-5.8
					c0.8,2.5,3.3,3.8,5.8,3C148.5,399.6,147.2,402.1,148,404.6"/>
			</g>
			<g id="path16">
				<path inkscape:connector-curvature="0" class="st1" d="M154.1,407.8c-1.5-2-4.1-2.4-6-0.9c2-1.5,2.3-4.1,0.9-6
					c1.5,2,4.1,2.3,6,0.9C153,403.2,152.6,405.8,154.1,407.8"/>
			</g>
			<g id="path18">
				<path inkscape:connector-curvature="0" class="st1" d="M160.4,408.7c-1.9-1.3-4.3-0.8-5.6,1.1c1.3-1.9,0.8-4.3-1.1-5.6
					c1.9,1.3,4.3,0.8,5.6-1.1C158.1,405,158.5,407.4,160.4,408.7"/>
			</g>
			<g id="path20">
				<path inkscape:connector-curvature="0" class="st1" d="M166.4,407.7c-2-0.6-4,0.5-4.6,2.5c0.6-2-0.5-4-2.5-4.6
					c2,0.6,4-0.5,4.6-2.5C163.4,405.1,164.4,407.1,166.4,407.7"/>
			</g>
			<g id="path22">
				<path inkscape:connector-curvature="0" class="st1" d="M171.9,405.2c-1.9,0-3.4,1.4-3.4,3.3c0-1.9-1.4-3.4-3.3-3.4
					c1.9,0,3.4-1.4,3.4-3.3C168.5,403.7,170,405.2,171.9,405.2"/>
			</g>
			<g id="path24">
				<path inkscape:connector-curvature="0" class="st1" d="M176.4,401.3c-1.7,0.5-2.6,2.1-2.1,3.8c-0.5-1.7-2.1-2.6-3.8-2.1
					c1.7-0.5,2.6-2.1,2.1-3.8C173.2,400.9,174.8,401.8,176.4,401.3"/>
			</g>
			<g id="path26">
				<path inkscape:connector-curvature="0" class="st1" d="M179.7,396.4c-1.3,0.8-1.6,2.5-0.8,3.8c-0.8-1.3-2.5-1.6-3.8-0.8
					c1.3-0.8,1.6-2.5,0.8-3.8C176.8,396.9,178.4,397.2,179.7,396.4"/>
			</g>
			<g id="path28">
				<path inkscape:connector-curvature="0" class="st1" d="M181.4,390.5c-0.8,1.1-0.7,2.5,0.4,3.4c-1.1-0.8-2.5-0.7-3.4,0.4
					c0.8-1.1,0.7-2.5-0.4-3.4C179.1,391.7,180.5,391.5,181.4,390.5"/>
			</g>
			<g id="path30">
				<path inkscape:connector-curvature="0" class="st1" d="M181.2,384.4c-0.4,1.1,0.1,2.3,1.2,2.7c-1.1-0.4-2.3,0.1-2.7,1.2
					c0.4-1.1-0.1-2.3-1.2-2.7C179.6,386.1,180.8,385.5,181.2,384.4"/>
			</g>
			<g id="path32">
				<path inkscape:connector-curvature="0" class="st1" d="M179.5,378.8c-0.1,1,0.6,1.8,1.6,1.9c-1-0.1-1.8,0.6-1.9,1.6
					c0.1-1-0.6-1.8-1.6-1.9C178.6,380.5,179.4,379.8,179.5,378.8"/>
			</g>
			<g id="path34">
				<path inkscape:connector-curvature="0" class="st1" d="M176.3,373.9c0.2,0.8,0.9,1.3,1.7,1.1c-0.8,0.2-1.3,0.9-1.1,1.7
					c-0.2-0.8-0.9-1.3-1.7-1.1C176,375.5,176.5,374.7,176.3,373.9"/>
			</g>
			<g id="path36">
				<path inkscape:connector-curvature="0" class="st1" d="M172,370.1c0.3,0.6,1,0.8,1.5,0.4c-0.6,0.3-0.8,1-0.4,1.5
					c-0.3-0.6-1-0.8-1.5-0.4C172.1,371.4,172.3,370.7,172,370.1"/>
			</g>
			<g id="path38">
				<path inkscape:connector-curvature="0" class="st1" d="M166.7,367.8c0.3,0.3,0.9,0.3,1.2,0c-0.3,0.3-0.3,0.9,0,1.2
					c-0.3-0.3-0.9-0.3-1.2,0C167,368.6,167,368.1,166.7,367.8"/>
			</g>
			<g id="path40">
				<path inkscape:connector-curvature="0" class="st1" d="M157,393.8c-2.8,0-4.9,2.2-4.9,5c0-2.8-2.2-4.9-5-4.9
					c2.8,0,4.9-2.2,4.9-5C152,391.7,154.2,393.8,157,393.8"/>
			</g>
			<g id="path42">
				<path inkscape:connector-curvature="0" class="st1" d="M153.9,391.2c2.5-0.8,3.8-3.3,2.9-5.9c0.8,2.5,3.3,3.8,5.9,3
					c-2.5,0.8-3.8,3.3-3,5.9C158.9,391.7,156.4,390.4,153.9,391.2"/>
			</g>
			<g id="path44">
				<path inkscape:connector-curvature="0" class="st1" d="M158.9,387.4c2-1.5,2.3-4.1,0.8-6.1c1.5,2,4.1,2.3,6.1,0.8
					c-2,1.5-2.3,4.1-0.8,6.1C163.5,386.2,160.9,385.9,158.9,387.4"/>
			</g>
			<g id="path46">
				<path inkscape:connector-curvature="0" class="st1" d="M162.1,382.4c1.3-1.9,0.8-4.3-1.1-5.5c1.9,1.3,4.3,0.8,5.5-1.1
					c-1.3,1.9-0.8,4.3,1.1,5.5C165.7,380,163.3,380.5,162.1,382.4"/>
			</g>
			<g id="path48">
				<path inkscape:connector-curvature="0" class="st1" d="M163.3,376.8c0.6-2-0.5-4-2.5-4.6c2,0.6,4-0.5,4.6-2.5
					c-0.6,2,0.5,4,2.5,4.6C165.8,373.7,163.9,374.8,163.3,376.8"/>
			</g>
			<g id="path50">
				<path inkscape:connector-curvature="0" class="st1" d="M162.7,371.1c0-1.9-1.5-3.4-3.4-3.3c1.9,0,3.4-1.5,3.3-3.4
					c0,1.9,1.5,3.4,3.4,3.3C164.1,367.7,162.7,369.2,162.7,371.1"/>
			</g>
			<g id="path52">
				<path inkscape:connector-curvature="0" class="st1" d="M160.5,365.7c-0.5-1.7-2.1-2.5-3.8-2c1.7-0.5,2.5-2.1,2-3.8
					c0.5,1.7,2.1,2.5,3.8,2C160.8,362.4,160,364.1,160.5,365.7"/>
			</g>
			<g id="path54">
				<path inkscape:connector-curvature="0" class="st1" d="M156.7,361.3c-0.9-1.3-2.5-1.6-3.8-0.7c1.3-0.9,1.6-2.5,0.7-3.8
					c0.9,1.3,2.5,1.6,3.8,0.7C156.1,358.3,155.8,360,156.7,361.3"/>
			</g>
			<g id="path56">
				<path inkscape:connector-curvature="0" class="st1" d="M151.5,358.1c-1.1-0.8-2.6-0.6-3.4,0.5c0.8-1.1,0.6-2.6-0.5-3.4
					c1.1,0.8,2.6,0.6,3.4-0.5C150.2,355.9,150.4,357.3,151.5,358.1"/>
			</g>
			<g id="path58">
				<path inkscape:connector-curvature="0" class="st1" d="M145.6,356.9c-1.1-0.4-2.3,0.2-2.7,1.3c0.4-1.1-0.2-2.3-1.3-2.7
					c1.1,0.4,2.3-0.2,2.7-1.3C143.9,355.4,144.5,356.6,145.6,356.9"/>
			</g>
			<g id="path60">
				<path inkscape:connector-curvature="0" class="st1" d="M139.6,357.7c-1-0.1-1.8,0.7-1.9,1.7c0.1-1-0.7-1.8-1.7-1.9
					c1,0.1,1.8-0.7,1.9-1.7C137.9,356.8,138.6,357.6,139.6,357.7"/>
			</g>
			<g id="path62">
				<path inkscape:connector-curvature="0" class="st1" d="M134.1,360.1c-0.8,0.2-1.3,1-1.1,1.7c-0.2-0.8-1-1.3-1.7-1.1
					c0.8-0.2,1.3-0.9,1.1-1.7C132.5,359.8,133.3,360.3,134.1,360.1"/>
			</g>
			<g id="path64">
				<path inkscape:connector-curvature="0" class="st1" d="M129.5,364c-0.5,0.3-0.7,1-0.4,1.6c-0.3-0.5-1-0.7-1.6-0.4
					c0.5-0.3,0.7-1,0.4-1.6C128.3,364.2,129,364.4,129.5,364"/>
			</g>
			<g id="path66">
				<path inkscape:connector-curvature="0" class="st1" d="M126.5,369.3c-0.3,0.3-0.3,0.9,0.1,1.2c-0.3-0.3-0.9-0.3-1.2,0.1
					c0.3-0.3,0.3-0.9-0.1-1.2C125.6,369.7,126.2,369.6,126.5,369.3"/>
			</g>
			<g id="path68">
				<path inkscape:connector-curvature="0" class="st1" d="M152,389.4c0-2.8-2.2-4.9-5-4.9c2.8,0,4.9-2.2,4.9-5c0,2.8,2.2,4.9,5,4.9
					C154.1,384.4,152,386.6,152,389.4"/>
			</g>
			<g id="path70">
				<path inkscape:connector-curvature="0" class="st1" d="M146.3,373.9c0.8,2.5,3.3,3.8,5.9,2.9c-2.5,0.8-3.8,3.3-2.9,5.9
					c-0.8-2.5-3.3-3.8-5.9-2.9C145.9,378.9,147.2,376.4,146.3,373.9"/>
			</g>
			<g id="path72">
				<path inkscape:connector-curvature="0" class="st1" d="M140,371c1.5,1.9,4.1,2.3,6.1,0.8c-1.9,1.5-2.3,4.1-0.8,6.1
					c-1.5-1.9-4.1-2.3-6.1-0.8C141.2,375.6,141.5,373,140,371"/>
			</g>
			<g id="path74">
				<path inkscape:connector-curvature="0" class="st1" d="M133.6,370.5c1.9,1.3,4.3,0.8,5.5-1.2c-1.3,1.9-0.8,4.3,1.2,5.5
					c-1.9-1.3-4.3-0.8-5.5,1.2C136,374.1,135.5,371.7,133.6,370.5"/>
			</g>
			<g id="path76">
				<path inkscape:connector-curvature="0" class="st1" d="M127.6,371.8c2,0.6,4-0.5,4.5-2.5c-0.6,2,0.5,4,2.5,4.5
					c-2-0.6-4,0.5-4.5,2.5C130.7,374.3,129.6,372.4,127.6,371.8"/>
			</g>
			<g id="path78">
				<path inkscape:connector-curvature="0" class="st1" d="M122.2,374.6c1.9,0,3.4-1.5,3.3-3.4c0,1.9,1.5,3.4,3.4,3.3
					c-1.9,0-3.4,1.5-3.3,3.4C125.6,376,124.1,374.6,122.2,374.6"/>
			</g>
			<g id="path80">
				<path inkscape:connector-curvature="0" class="st1" d="M117.9,378.7c1.7-0.5,2.5-2.1,2-3.8c0.5,1.7,2.1,2.5,3.8,2
					c-1.7,0.5-2.5,2.1-2,3.8C121.2,379.1,119.5,378.2,117.9,378.7"/>
			</g>
			<g id="path82">
				<path inkscape:connector-curvature="0" class="st1" d="M114.9,383.9c1.3-0.9,1.6-2.5,0.7-3.8c0.9,1.3,2.5,1.6,3.8,0.7
					c-1.3,0.9-1.6,2.5-0.7,3.8C117.8,383.4,116.1,383.1,114.9,383.9"/>
			</g>
			<g id="path84">
				<path inkscape:connector-curvature="0" class="st1" d="M113.5,389.9c0.8-1.1,0.6-2.6-0.5-3.4c1.1,0.8,2.6,0.6,3.4-0.5
					c-0.8,1.1-0.6,2.6,0.5,3.4C115.8,388.7,114.3,388.9,113.5,389.9"/>
			</g>
			<g id="path86">
				<path inkscape:connector-curvature="0" class="st1" d="M114,396c0.4-1.1-0.2-2.3-1.3-2.7c1.1,0.4,2.3-0.2,2.7-1.3
					c-0.4,1.1,0.2,2.3,1.3,2.7C115.6,394.3,114.4,394.9,114,396"/>
			</g>
			<g id="path88">
				<path inkscape:connector-curvature="0" class="st1" d="M116.1,401.5c0.1-1-0.7-1.8-1.7-1.9c1,0.1,1.8-0.7,1.9-1.7
					c-0.1,1,0.7,1.8,1.7,1.9C117,399.8,116.1,400.5,116.1,401.5"/>
			</g>
			<g id="path90">
				<path inkscape:connector-curvature="0" class="st1" d="M119.5,406.3c-0.2-0.8-1-1.3-1.7-1.1c0.8-0.2,1.3-1,1.1-1.7
					c0.2,0.8,1,1.3,1.7,1.1C119.8,404.7,119.3,405.5,119.5,406.3"/>
			</g>
			<g id="path92">
				<path inkscape:connector-curvature="0" class="st1" d="M124.1,409.8c-0.3-0.5-1-0.7-1.6-0.4c0.5-0.3,0.7-1,0.4-1.6
					c0.3,0.5,1,0.7,1.6,0.4C123.9,408.6,123.8,409.3,124.1,409.8"/>
			</g>
			<g id="path94">
				<path inkscape:connector-curvature="0" class="st1" d="M147.7,384.5c-2.8,0-4.9,2.2-4.9,5c0-2.8-2.2-4.9-5-4.9
					c2.8,0,4.9-2.2,4.9-5C142.7,382.4,144.8,384.5,147.7,384.5"/>
			</g>
			<g id="path96">
				<path inkscape:connector-curvature="0" class="st1" d="M140.3,386.1c-2.5,0.8-3.8,3.3-3,5.9c-0.8-2.5-3.3-3.8-5.9-3
					c2.5-0.8,3.8-3.3,3-5.9C135.3,385.7,137.8,386.9,140.3,386.1"/>
			</g>
			<g id="path98">
				<path inkscape:connector-curvature="0" class="st1" d="M134.6,389.3c-2,1.5-2.3,4.1-0.8,6.1c-1.5-2-4.1-2.3-6.1-0.8
					c2-1.5,2.3-4.1,0.8-6.1C130.1,390.5,132.7,390.8,134.6,389.3"/>
			</g>
			<g id="path100">
				<path inkscape:connector-curvature="0" class="st1" d="M130.6,393.9c-1.3,1.9-0.8,4.3,1.1,5.5c-1.9-1.3-4.3-0.8-5.5,1.1
					c1.3-1.9,0.8-4.3-1.1-5.5C127,396.3,129.4,395.8,130.6,393.9"/>
			</g>
			<g id="path102">
				<path inkscape:connector-curvature="0" class="st1" d="M128.5,399.4c-0.6,2,0.5,4,2.5,4.6c-2-0.6-4,0.5-4.6,2.5
					c0.6-2-0.5-4-2.5-4.6C125.9,402.5,127.9,401.4,128.5,399.4"/>
			</g>
			<g id="path104">
				<path inkscape:connector-curvature="0" class="st1" d="M128.2,405.3c0,1.9,1.5,3.4,3.4,3.3c-1.9,0-3.4,1.5-3.3,3.4
					c0-1.9-1.5-3.4-3.4-3.3C126.8,408.7,128.2,407.3,128.2,405.3"/>
			</g>
			<g id="path106">
				<path inkscape:connector-curvature="0" class="st1" d="M129.7,411.1c0.5,1.7,2.1,2.5,3.8,2c-1.7,0.5-2.5,2.1-2,3.8
					c-0.5-1.7-2.1-2.5-3.8-2C129.3,414.4,130.2,412.8,129.7,411.1"/>
			</g>
			<g id="path108">
				<path inkscape:connector-curvature="0" class="st1" d="M132.8,416.2c0.9,1.3,2.5,1.6,3.8,0.7c-1.3,0.9-1.6,2.5-0.7,3.8
					c-0.9-1.3-2.5-1.6-3.8-0.7C133.4,419.1,133.7,417.5,132.8,416.2"/>
			</g>
			<g id="path110">
				<path inkscape:connector-curvature="0" class="st1" d="M137.6,420.1c1.1,0.8,2.6,0.6,3.4-0.5c-0.8,1.1-0.6,2.6,0.5,3.4
					c-1.1-0.8-2.6-0.6-3.4,0.5C138.9,422.4,138.7,421,137.6,420.1"/>
			</g>
			<g id="path112">
				<path inkscape:connector-curvature="0" class="st1" d="M143.4,422.2c1.1,0.4,2.3-0.2,2.7-1.3c-0.4,1.1,0.2,2.3,1.3,2.7
					c-1.1-0.4-2.3,0.2-2.7,1.3C145,423.8,144.5,422.6,143.4,422.2"/>
			</g>
			<g id="path114">
				<path inkscape:connector-curvature="0" class="st1" d="M149.5,422.4c1,0.1,1.8-0.7,1.9-1.7c-0.1,1,0.7,1.8,1.7,1.9
					c-1-0.1-1.8,0.7-1.9,1.7C151.2,423.3,150.5,422.5,149.5,422.4"/>
			</g>
			<g id="path116">
				<path inkscape:connector-curvature="0" class="st1" d="M155.4,420.8c0.8-0.2,1.3-1,1.1-1.8c0.2,0.8,1,1.3,1.8,1.1
					c-0.8,0.2-1.3,1-1.1,1.8C157,421.1,156.2,420.6,155.4,420.8"/>
			</g>
			<g id="path118">
				<path inkscape:connector-curvature="0" class="st1" d="M160.5,417.5c0.5-0.3,0.7-1,0.4-1.6c0.3,0.5,1,0.7,1.6,0.4
					c-0.5,0.3-0.7,1-0.4,1.6C161.8,417.4,161.1,417.2,160.5,417.5"/>
			</g>
			<g id="path120">
				<path inkscape:connector-curvature="0" class="st1" d="M164.4,412.7c0.3-0.3,0.3-0.9-0.1-1.2c0.3,0.3,0.9,0.3,1.2-0.1
					c-0.3,0.3-0.3,0.9,0.1,1.2C165.2,412.4,164.7,412.4,164.4,412.7"/>
			</g>
		</g>
	</g>
	
		<g id="g9800" transform="matrix(1.331,0,0,1.331,-131.20673,-487.95651)" inkscape:export-ydpi="299.99777" inkscape:export-xdpi="299.99777">
		<g id="rect122">
			<rect x="129.7" y="440.2" class="st1" width="5.5" height="14.2"/>
		</g>
		<g id="path124">
			<path inkscape:connector-curvature="0" class="st1" d="M143.7,454.2v-8H142v8h-4.9v-8c0-0.9,0.2-1.6,0.7-2.2
				c0.5-0.6,1.3-0.8,2.3-0.8h5.4c0.6,0,1,0.1,1.4,0.2c0.4,0.2,0.7,0.4,0.9,0.7c0.2,0.3,0.4,0.6,0.5,1c0.1,0.4,0.2,0.8,0.2,1.2v8
				H143.7"/>
		</g>
		<g id="path126">
			<path inkscape:connector-curvature="0" class="st1" d="M156.9,454.2v-8h-1.7v8h-4.9v-8c0-0.9,0.2-1.6,0.7-2.2
				c0.5-0.6,1.3-0.8,2.3-0.8h5.4c0.6,0,1,0.1,1.4,0.2c0.4,0.2,0.7,0.4,0.9,0.7c0.2,0.3,0.4,0.6,0.5,1c0.1,0.4,0.2,0.8,0.2,1.2v8
				H156.9"/>
		</g>
		<g id="path128">
			<path inkscape:connector-curvature="0" class="st1" d="M169.9,446.2h-1.5v5h1.5V446.2z M174.8,451c0,0.3,0,0.7-0.1,1
				c-0.1,0.4-0.2,0.7-0.4,1c-0.2,0.3-0.5,0.6-0.9,0.8c-0.4,0.2-0.9,0.3-1.6,0.4c-0.7,0-1.2,0-1.6,0h-2.1c-0.2,0-0.4,0-0.7,0
				c-0.2,0-0.6,0-1,0c-0.3,0-0.7-0.1-1-0.1c-0.3-0.1-0.7-0.2-1-0.4c-0.3-0.2-0.5-0.5-0.7-0.9c-0.2-0.4-0.3-0.9-0.3-1.6v-4.8
				c0-0.3,0-0.7,0.1-1c0.1-0.4,0.2-0.7,0.4-1c0.2-0.3,0.5-0.6,0.9-0.8c0.4-0.2,0.9-0.3,1.6-0.4c0.7,0,1.2,0,1.6,0h2.1
				c0.2,0,0.4,0,0.7,0c0.3,0,0.6,0,1,0c0.3,0,0.6,0.1,1,0.1c0.4,0.1,0.7,0.2,1,0.4c0.3,0.2,0.5,0.5,0.7,0.9c0.2,0.4,0.3,0.9,0.3,1.6
				L174.8,451"/>
		</g>
		<g id="path130">
			<path inkscape:connector-curvature="0" class="st1" d="M177.8,454.3h5.8v-11.8h2.9v-3.1h-11.5v3.1h2.9V454.3"/>
		</g>
		<g id="path132">
			<path inkscape:connector-curvature="0" class="st1" d="M192.3,445.9h-1.6v2h1.6V445.9z M190.8,449.5v1.5h5.9v3.2h-7.7
				c-0.6,0-1.2-0.1-1.6-0.3c-0.4-0.2-0.7-0.5-0.9-0.8c-0.2-0.3-0.4-0.6-0.4-1c-0.1-0.4-0.1-0.7-0.1-1v-4.8c0-1,0.3-1.8,0.8-2.3
				c0.5-0.5,1.3-0.8,2.2-0.9c0.2,0,0.3,0,0.6,0c0.2,0,0.5,0,0.7,0c0.2,0,0.5,0,0.7,0h1.3c0.2,0,0.5,0,0.7,0c0.2,0,0.5,0,0.7,0
				c0.2,0,0.4,0,0.6,0c1,0,1.7,0.3,2.2,0.8c0.5,0.5,0.8,1.3,0.8,2.2v3.3H190.8"/>
		</g>
		<g id="path134">
			<path inkscape:connector-curvature="0" class="st1" d="M201.7,454.2c-0.3,0-0.6,0-1-0.1c-0.4-0.1-0.7-0.2-1-0.4
				c-0.3-0.2-0.6-0.5-0.8-0.9c-0.2-0.4-0.3-0.9-0.3-1.6v-5c0-0.6,0.1-1.2,0.3-1.6c0.2-0.4,0.5-0.7,0.8-0.9c0.3-0.2,0.6-0.4,1-0.4
				c0.4-0.1,0.7-0.1,1-0.1h6.2v3.3h-4.3v4.5h4.3v3.3L201.7,454.2"/>
		</g>
		<g id="path136">
			<path inkscape:connector-curvature="0" class="st1" d="M132.4,432.3c0,2.1,1.6,3.8,3.7,3.8c-2.1,0-3.8,1.6-3.8,3.7
				c0-2.2-1.6-3.8-3.7-3.8C130.8,436.1,132.4,434.5,132.4,432.3"/>
		</g>
	</g>
	
		<g id="g16959" transform="matrix(1.331,0,0,1.331,47.647809,-499.37274)" inkscape:export-ydpi="299.99777" inkscape:export-xdpi="299.99777">
		<g id="path9987">
			<path inkscape:connector-curvature="0" class="st1" d="M216.5,443c0,2.3,1.7,4.1,4.1,4.1c-2.3,0-4.1,1.7-4.1,4.1
				c0-2.3-1.7-4.1-4.1-4.1C214.7,447.1,216.5,445.4,216.5,443"/>
		</g>
		<g id="g9989" transform="scale(0.24,0.24)">
			<g id="path9991">
				<path inkscape:connector-curvature="0" class="st1" d="M736.7,1920.4h-6.3c-1.5,0-2.2-0.2-2.7-0.7c-0.4-0.4-0.6-1.1-0.6-2.7
					v-31.7c0-0.7-0.1-0.9-1-0.9h-27.5c-0.7,0-0.9,0.2-0.9,0.9v31.7c0,1.5-0.2,2.2-0.6,2.7c-0.5,0.5-1.2,0.7-2.7,0.7H688
					c-1.5,0-2.3-0.2-2.7-0.7c-0.4-0.5-0.6-1.2-0.6-2.7v-33.8c0-4.4,2-9.7,11.8-9.7h31.7c9.7,0,11.8,5.3,11.8,9.7v33.8
					c0,1.6-0.2,2.3-0.6,2.7C738.9,1920.2,738.2,1920.4,736.7,1920.4L736.7,1920.4"/>
			</g>
			<g id="path9993">
				<path inkscape:connector-curvature="0" class="st1" d="M760.4,1899.3v9.3c0,0.7,0.2,0.9,0.9,0.9h27.5c0.7,0,0.9-0.2,0.9-0.9
					v-6.3c0-0.7-0.2-0.9-0.9-0.9h-23.3c-3,0-4-0.4-4.5-0.9C760.8,1900.2,760.6,1899.9,760.4,1899.3L760.4,1899.3L760.4,1899.3z
					 M790.9,1920.4h-31.7c-3.1,0-5.8-0.8-7.9-2.3c-2.6-1.8-3.9-4.3-3.9-7.4v-27.4c0-4.2,1.5-7.1,4.4-8.5c1.6-0.8,4-1.2,7.4-1.2h38.1
					c3,0,4,0.4,4.5,0.9c0.5,0.5,0.9,1.5,0.9,4.5c0,3-0.4,4-0.9,4.5c-0.5,0.6-1.5,0.9-4.5,0.9h-33.8c-2.1,0-2.7,0.2-2.9,0.3
					c0.1,0-0.1,0.6-0.1,2.7v5c0.2-0.6,0.4-0.9,0.6-1.1c0.5-0.5,1.4-0.9,4.5-0.9h25.4c3.4,0,5.8,0.4,7.4,1.2c2.9,1.4,4.3,4.3,4.3,8.5
					v10.6C802.7,1915.1,800.6,1920.4,790.9,1920.4L790.9,1920.4"/>
			</g>
			<g id="path9995">
				<path inkscape:connector-curvature="0" class="st1" d="M862,1920.4h-6.3c-1.5,0-2.3-0.2-2.7-0.7c-0.4-0.5-0.6-1.2-0.6-2.7v-31.7
					c0-0.8-0.2-0.9-0.9-0.9h-6.3c-0.4,0-0.7,0-0.9,0c0,0.2,0,0.5,0,0.9v12.7c0,1.5-0.2,2.2-0.6,2.7c-0.5,0.5-1.2,0.6-2.7,0.6h-6.3
					c-1.5,0-2.3-0.2-2.7-0.7c-0.4-0.4-0.6-1.2-0.6-2.7v-12.7c0-0.4,0-0.7,0-0.9c-0.2,0-0.5,0-0.9,0h-6.4c-0.7,0-0.9,0.2-0.9,0.9
					v31.7c0,1.5-0.2,2.3-0.6,2.7c-0.4,0.5-1.2,0.6-2.7,0.6h-6.3c-1.5,0-2.3-0.2-2.7-0.7c-0.5-0.5-0.6-1.3-0.6-2.7v-33.8
					c0-4.4,2-9.7,11.8-9.7h31.7c9.7,0,11.8,5.3,11.8,9.7v33.8c0,1.6-0.2,2.3-0.7,2.8C864.3,1920.2,863.5,1920.4,862,1920.4
					L862,1920.4"/>
			</g>
			<g id="path9997">
				<path inkscape:connector-curvature="0" class="st1" d="M916.2,1920.4h-31.7c-9.7,0-11.8-5.3-11.8-9.7v-33.8
					c0-1.4,0.2-2.2,0.7-2.7c0.5-0.5,1.2-0.7,2.7-0.7h6.3c1.5,0,2.2,0.2,2.7,0.6c0.5,0.5,0.6,1.2,0.6,2.7v31.7c0,0.4,0,0.7,0,0.9
					c0.2,0,0.5,0,0.9,0h27.4c0.4,0,0.7,0,0.9,0c0-0.2,0-0.5,0-0.9v-23.2c0-0.4,0-0.7,0-0.9c-0.2,0-0.5,0-0.9,0h-6.3
					c-0.4,0-0.7,0-0.9,0c0,0.2,0,0.5,0,0.9v12.7c0,1.5-0.2,2.2-0.6,2.7c-0.5,0.5-1.2,0.6-2.7,0.6h-6.4c-1.5,0-2.3-0.2-2.7-0.7
					c-0.4-0.4-0.6-1.2-0.6-2.7v-14.8c0-4.4,2.1-9.7,11.8-9.7h10.6c9.8,0,11.8,5.3,11.8,9.7v27.4C928,1915.1,926,1920.4,916.2,1920.4
					L916.2,1920.4"/>
			</g>
			<g id="path9999">
				<path inkscape:connector-curvature="0" class="st1" d="M979,1920.4h-31.8c-9.7,0-11.8-5.2-11.8-9.6v-6.4c0-1.5,0.2-2.2,0.7-2.7
					c0.4-0.5,1.2-0.7,2.6-0.7h6.3c1.5,0,2.2,0.2,2.7,0.6c0.5,0.5,0.6,1.2,0.6,2.7v4.2c0,0.7,0.1,0.9,1,0.9h27.5
					c0.7,0,0.9-0.2,0.9-0.9v-23.2c0-0.7-0.2-0.9-0.9-0.9h-27.5c-0.8,0-1,0.2-1,0.9v2.1c0,1.5-0.2,2.2-0.7,2.7
					c-0.4,0.4-1.2,0.6-2.7,0.6h-6.3c-1.5,0-2.2-0.2-2.7-0.7c-0.5-0.4-0.6-1.2-0.6-2.7v-4.3c0-4.4,2-9.7,11.8-9.7H979
					c9.7,0,11.8,5.2,11.8,9.7v27.6c0,3.1-1.3,5.6-3.9,7.4C984.7,1919.6,982,1920.4,979,1920.4L979,1920.4"/>
			</g>
			<g id="path10001">
				<path inkscape:connector-curvature="0" class="st1" d="M1041.6,1920.4h-31.7c-9.8,0-11.8-5.3-11.8-9.7v-8.4
					c0-1.4,0.2-2.2,0.6-2.6c0.5-0.5,1.2-0.7,2.7-0.7h6.4c1.4,0,2.2,0.2,2.6,0.6c0.5,0.5,0.7,1.3,0.7,2.7v6.3c0,0.4,0,0.7,0,0.9
					c0.2,0,0.5,0,0.9,0h27.4c0.4,0,0.7,0,0.9,0c0-0.2,0-0.5,0-0.9v-6.3c0-0.4,0-0.7,0-0.9c-0.2,0-0.5,0-0.9,0h-8.4
					c-1.5,0-2.2-0.2-2.7-0.6c-0.5-0.5-0.6-1.2-0.6-2.7v-4.2c0-1.5,0.2-2.2,0.6-2.7c0.5-0.5,1.2-0.6,2.7-0.6h8.4c0.4,0,0.7,0,0.9,0
					c0-0.2,0-0.5,0-0.9v-12.7c0-1.5,0.2-2.2,0.7-2.7c0.5-0.5,1.3-0.6,2.7-0.6h6.3c1.5,0,2.2,0.2,2.7,0.6c0.5,0.5,0.6,1.2,0.6,2.7
					v33.8C1053.4,1915.1,1051.4,1920.4,1041.6,1920.4L1041.6,1920.4"/>
			</g>
			<g id="path10003">
				<path inkscape:connector-curvature="0" class="st1" d="M1112.8,1920.4h-6.3c-1.5,0-2.2-0.2-2.7-0.7c-0.4-0.4-0.6-1.1-0.6-2.7
					v-31.7c0-0.7-0.1-0.9-1-0.9h-27.5c-0.7,0-0.9,0.2-0.9,0.9v31.7c0,1.4-0.2,2.2-0.6,2.7c-0.5,0.5-1.2,0.7-2.8,0.7h-6.4
					c-1.5,0-2.3-0.2-2.7-0.7c-0.4-0.5-0.6-1.2-0.6-2.7v-33.8c0-4.4,2.1-9.7,11.8-9.7h31.7c9.7,0,11.8,5.3,11.8,9.7v33.8
					c0,1.5-0.2,2.3-0.6,2.7C1115,1920.2,1114.3,1920.4,1112.8,1920.4L1112.8,1920.4"/>
			</g>
		</g>
	</g>
</g>
</svg>
