<?xml version="1.0" encoding="utf-8"?>
<!-- Generator: Adobe Illustrator 19.0.0, SVG Export Plug-In . SVG Version: 6.00 Build 0)  -->
<svg version="1.1" id="Layer_1" xmlns="http://www.w3.org/2000/svg" xmlns:xlink="http://www.w3.org/1999/xlink" x="0px" y="0px"
	 viewBox="-141 173.3 224.7 325.3" style="enable-background:new -141 173.3 224.7 325.3;" xml:space="preserve">
<style type="text/css">
	.st0{fill:none;stroke:#000000;stroke-miterlimit:10;}
	.st1{fill:none;stroke:#000000;stroke-width:7;stroke-miterlimit:10;}
</style>
<image style="display:none;overflow:visible;enable-background:new    ;" width="318" height="451" xlink:href="D0EBF22236A5482.png"  transform="matrix(0.72 0 0 0.72 -145 172)">
</image>
<polyline class="st0" points="-129.3,198 -129.3,220 -97,252.2 -58.8,252.2 -53,246.2 -46.5,252.8 "/>
<line class="st0" x1="-68.4" y1="252.2" x2="-55.6" y2="238.2"/>
<line class="st0" x1="-52" y1="237.6" x2="-39.5" y2="250.9"/>
<polyline class="st0" points="-123.4,197.1 -123.4,216 -95.1,244.3 -72.3,244.3 -52.6,224.7 -46.5,224.7 -46.5,233.2 -30.5,250.9 
	"/>
<polyline class="st0" points="-112.5,198 -117.3,202.8 -117.3,213.6 -93.9,236.8 -72.3,236.8 -64.6,228.6 -64.6,224.8 -72.2,224.8 
	-74.4,222.6 -74.4,222.2 -74.4,218.6 -77.6,218.6 -77.6,222.4 -74.9,222.4 "/>
<polyline class="st0" points="-72.1,225 -77.3,230.8 -90.2,230.8 -111.1,210.2 -111.1,205.5 -103.1,198 "/>
<polyline class="st0" points="-91.6,198 -102.1,208.9 -87.9,223.1 "/>
<polyline class="st0" points="-80.9,198 -92.6,209.4 -86.7,215.2 -80.9,215.2 -77.6,218.6 "/>
<polyline class="st0" points="-74.4,218.6 -69.9,214.4 -46.5,214.4 -40.3,220.8 -40.3,231.8 -18.9,252.8 -12.4,252.8 "/>
<polyline class="st0" points="-72.1,198.3 -79.6,204.5 -79.6,209.2 -42.7,209.2 -30.5,223.1 -30.5,230.4 -16.2,243.1 -9.8,243.1 
	-0.4,253.2 8.6,253.2 "/>
<polyline class="st0" points="9.1,246.7 2.5,246.7 -13.4,230.6 -18.7,230.6 -18.7,224 -43,200.1 -56.7,200.1 "/>
<polyline class="st0" points="-47.9,194.1 -40,194.1 -12.4,221.7 -12.4,225.4 -9.9,225.4 -9.9,193.1 "/>
<line class="st0" x1="-16.3" y1="188.2" x2="-16.3" y2="208.3"/>
<polyline class="st0" points="-35.5,184.1 -25.6,184.1 -22,187.2 -22,201.9 "/>
<line class="st0" x1="-35.5" y1="198.6" x2="-28.9" y2="192.4"/>
<polyline class="st0" points="-2.4,198.6 -2.4,231.8 5.9,240.5 9.1,240.5 "/>
<polyline class="st0" points="3.4,199 3.4,219.2 12,227.9 12,237.6 "/>
<polyline class="st0" points="9.6,199 9.6,216.1 18.3,224.8 18.3,237.6 "/>
<polyline class="st0" points="15.5,198.3 15.5,212.6 21.5,218.6 27.6,212.5 27.6,197.9 "/>
<polyline class="st0" points="33.8,197.9 33.8,215.1 24.2,224.8 24.2,236.9 "/>
<polyline class="st0" points="30.1,237.6 30.1,228.3 39.9,218.5 39.9,197.9 "/>
<polyline class="st0" points="45.9,198.3 45.9,221.5 36.1,230.8 36.1,239.2 "/>
<polyline class="st0" points="39.6,240.5 46.4,240.5 55.5,230.8 55.5,198.3 "/>
<polyline class="st0" points="62.1,198.3 62.1,233.5 49.6,246.7 37.6,246.7 "/>
<polyline class="st0" points="39,253.2 53.3,253.2 67.9,236.9 67.9,199.7 70.7,199.7 79.3,205.2 "/>
<line class="st0" x1="74.3" y1="212" x2="74.3" y2="241.8"/>
<polyline class="st0" points="80,235.8 70,245.9 70,249.5 78.7,249.5 "/>
<polyline class="st0" points="79.1,255.7 76.6,259.3 66.4,259.3 62.1,253.8 "/>
<polyline class="st0" points="53.3,253.2 76.6,277.2 79.5,273.9 "/>
<polyline class="st0" points="76.6,277.2 76.6,284.8 79.8,288.1 "/>
<polyline class="st0" points="80.5,295.6 70.6,286.5 70.6,280.1 48.6,258.5 37.3,258.5 "/>
<polyline class="st0" points="38.1,265.2 45.5,265.2 57.9,277.5 57.9,306.1 "/>
<line class="st0" x1="65.5" y1="290.2" x2="81.1" y2="305.9"/>
<polyline class="st0" points="66.4,299.7 77.1,311.3 80.5,311.3 "/>
<polyline class="st0" points="60.9,314.8 66.9,320.8 80.5,320.8 "/>
<polyline class="st0" points="61.6,322.2 64.5,325.5 64.5,332.4 "/>
<polyline class="st0" points="61.6,339.6 64.9,343 80.5,325.9 "/>
<polyline class="st0" points="79.8,335.5 67.6,348.6 60.3,348.6 "/>
<polyline class="st0" points="61.6,352.7 67,358.1 67,363.2 68.3,363.2 68.3,367.7 "/>
<polyline class="st0" points="79.8,345.3 75.8,349.3 75.8,389.4 71,395.1 36,395.1 21.6,379.8 21.6,364.2 "/>
<polyline class="st0" points="33.9,370.2 33.9,377.7 44.7,388.5 50.7,388.5 57.2,394.8 "/>
<polyline class="st0" points="40,366.8 40,373.7 48.9,382.5 54.5,382.5 65.6,395.1 "/>
<polyline class="st0" points="46.6,366.2 46.6,371.8 51.5,376.7 58.5,376.7 73.3,392.4 "/>
<polyline class="st0" points="51.9,366.2 54.3,370.2 62.2,370.2 62.2,372.1 75.8,385.8 "/>
<polyline class="st0" points="80.2,394.2 74.1,400.8 49.7,400.8 42.6,408 42.6,444.6 66.2,444.6 "/>
<polyline class="st0" points="79.8,406.2 52,406.2 48.1,409.8 48.1,438.8 71.9,438.8 "/>
<polyline class="st0" points="74.6,435.8 74.6,412.4 53.9,412.4 53.9,432.2 75.4,432.2 "/>
<polyline class="st0" points="68.2,426.3 68.2,418.4 59.4,418.4 59.4,426.3 68.6,426.3 "/>
<line class="st0" x1="42.6" y1="444.6" x2="23.4" y2="463.8"/>
<polyline class="st0" points="15.4,366.8 15.4,382.5 37.1,404.2 37.1,440.4 "/>
<polyline class="st0" points="15.4,393.5 29.9,408 29.9,441.6 4.5,467 2.5,469 "/>
<polyline class="st0" points="1.5,469.9 -7.6,469.9 20.6,442.1 20.6,433.5 "/>
<polyline class="st0" points="21.6,413.4 21.6,409.9 8.6,397.9 8.6,366.2 "/>
<polyline class="st0" points="3.1,366.8 3.1,404.5 18.9,420.4 "/>
<polyline class="st0" points="-3.5,366.2 -3.5,410.8 11.9,426.3 11.9,441.9 -12.5,465.8 -12.5,476.4 "/>
<polyline class="st0" points="-22.8,485.2 -22.8,465.9 5.6,437.4 5.6,428 -3.4,419.4 -37,453.1 -37,483.4 -32.4,485.2 -32.4,456.4 
	-4.3,428.2 -0.3,432.2 -0.3,435.5 -25.5,459.6 "/>
<polyline class="st0" points="-47,476.4 -47,449.8 -13.3,417.6 -13.3,382 -18.8,376.6 -18.8,369.4 -13.9,364.9 "/>
<polyline class="st0" points="-27.8,366.2 -27.8,379.3 -21.9,385.2 -21.9,416.8 -52.2,447.1 -52.2,473.4 "/>
<polyline class="st0" points="-58.8,469.9 -58.8,444.6 -27.9,413.7 -27.9,388.8 -34.8,381.9 -53.9,381.9 -61.9,373.1 -74.9,373.1 
	-74.9,381 -61.8,394.1 -40.5,394.1 -40.5,407.5 -55,422.3 -59.8,422.3 -86.9,395.1 -86.9,373.6 -94.1,366.2 "/>
<polyline class="st0" points="-84.9,366.2 -80.2,370.9 -80.2,391.9 -59.6,412.5 -54.9,412.5 -46.1,404.4 -46.1,401 -63.4,401 
	-73.9,390.5 "/>
<polyline class="st0" points="-64.1,379.3 -56.5,387.8 -38.3,387.8 -34.1,391.9 -34.1,410.8 -56,432.8 -59.6,432.8 -93.7,398.7 
	-93.7,375.1 -102.2,366.7 "/>
<polyline class="st0" points="-105.1,366.2 -105.1,374.4 -99.7,379.8 -99.7,400.8 -65.5,435.6 -65.5,444.4 -108.8,401.1 
	-108.8,378.5 -119.5,366.7 "/>
<line class="st0" x1="-113.3" y1="366.2" x2="-116.5" y2="370"/>
<polyline class="st0" points="-127.3,351.1 -127.3,373.6 -132.8,379.2 -137.5,379.2 "/>
<polyline class="st0" points="-133,351.1 -133,370 -137.5,373.2 "/>
<polyline class="st0" points="-137.5,385.6 -128.8,385.6 -124,379.2 -118.9,379.2 -114.1,384 -114.1,405.3 -64.8,454.6 -64.8,469.9 
	"/>
<path class="st0" d="M-71.1,465.6v-9.8l-50-50v-17.5h-2.8c0,0-3.6,3.4-3.6,3.6c0,0.2-10.1,0-10.1,0"/>
<path class="st0" d="M-137.5,403.6l4.9-4.9h6.3v12.7c0,0,49.1,48.6,49.2,49s0,3.8,0,3.8"/>
<line class="st0" x1="-82.3" y1="464.1" x2="-126" y2="420.4"/>
<line class="st0" x1="-132.8" y1="407.5" x2="-132.8" y2="432.8"/>
<line class="st0" x1="-126.5" y1="429.6" x2="-94.3" y2="461.8"/>
<line class="st0" x1="-126" y1="441" x2="-115.1" y2="441"/>
<polyline class="st0" points="36.1,267.8 36.1,272.2 51.9,288 51.9,303.4 "/>
<polyline class="st0" points="45.2,302.5 45.2,289.6 29.7,274.1 29.7,266 "/>
<polyline class="st0" points="25.2,265.2 25.2,278.8 39.6,293.2 39.6,304.8 "/>
<polyline class="st0" points="33.8,301.9 33.8,296.5 18.4,281.1 18.4,265.2 "/>
<polyline class="st0" points="12,267 12,285 28.4,301.4 "/>
<polyline class="st0" points="-120.1,300.8 -108.4,289.4 -79.6,289.4 -74.4,282.9 -68.4,282.9 -57.5,271 -9.5,271 20.2,300.8 "/>
<polyline class="st0" points="-111.1,301.4 -104.4,295.2 -70.3,295.2 "/>
<polyline class="st0" points="-78.6,303.5 -51.8,276.6 -12.4,276.6 12,301.9 "/>
<line class="st0" x1="-66.5" y1="301.9" x2="-49.4" y2="284.8"/>
<polyline class="st0" points="-55.6,301.9 -36.9,283.1 -16.8,283.1 3.9,303.4 "/>
<polyline class="st0" points="-51,301.9 -47.9,298.3 -39.5,298.3 -31.3,288.9 -22,288.9 -8,302.9 "/>
<polyline class="st0" points="-34.6,302.5 -28.6,295.2 -23.8,295.2 -16.5,302.5 "/>
<polyline class="st0" points="-138.4,342.1 -116.5,342.1 -120.1,336.1 -138.9,336.1 -138.9,330 -114.9,330 -117.8,323.5 
	-139.6,323.5 -139,317.2 -118.8,317.2 -118.5,310.6 -134.6,310.6 -138.3,306 "/>
<polyline class="st0" points="-137.5,292.6 -123.4,292.6 -111.8,279.1 -85.1,279.1 -77.8,271.8 -68.9,271.8 "/>
<polyline class="st0" points="-92,279.1 -100.1,270.5 -118.4,270.5 -126.8,279.1 -137.5,279.1 -138.8,274.1 -130,274.1 
	-121.4,265.2 10.6,265.2 "/>
<polyline class="st0" points="9.6,258.5 -124.5,258.5 -132.2,267 -138.8,267 "/>
<polyline class="st0" points="-137.5,262.8 -127.3,252.2 -104.5,252.2 -137.5,220.2 "/>
<line class="st0" x1="-137.5" y1="229.8" x2="-121.2" y2="246.2"/>
<line class="st0" x1="-138.8" y1="238.2" x2="-131.7" y2="245.3"/>
<circle cx="-12.5" cy="382.5" r="3.3"/>
<circle cx="-34.6" cy="376.9" r="3.3"/>
<circle cx="-49" cy="370.2" r="3.3"/>
<circle cx="-64.5" cy="379.2" r="3.3"/>
<circle cx="-75" cy="389.4" r="3.3"/>
<circle cx="-133" cy="406.4" r="3.3"/>
<circle cx="-127.3" cy="418.8" r="3.3"/>
<circle cx="-127.3" cy="428.8" r="3.3"/>
<circle cx="-127.3" cy="438.5" r="3.3"/>
<circle cx="-58.8" cy="444.4" r="3.3"/>
<circle cx="-26.9" cy="460.8" r="3.3"/>
<circle cx="2.5" cy="469" r="3.3"/>
<circle cx="36.3" cy="442.3" r="3.3"/>
<circle cx="-12.5" cy="416.7" r="3.3"/>
<circle cx="14.3" cy="392.4" r="3.3"/>
<circle cx="29.9" cy="368.2" r="3.3"/>
<circle cx="70.1" cy="368.2" r="3.3"/>
<circle cx="63.9" cy="333.5" r="3.3"/>
<circle cx="64.5" cy="290.1" r="3.3"/>
<circle cx="64.4" cy="299.6" r="3.3"/>
<circle cx="75.9" cy="268.9" r="3.3"/>
<circle cx="60.8" cy="252.5" r="3.3"/>
<circle cx="72.8" cy="210" r="3.3"/>
<circle cx="-28.7" cy="192.4" r="3.3"/>
<circle cx="-22.6" cy="204.2" r="3.3"/>
<circle cx="-10.2" cy="252.8" r="3.3"/>
<circle cx="-28.5" cy="252.8" r="3.3"/>
<circle cx="-38.2" cy="253.2" r="3.3"/>
<circle cx="-46.7" cy="253.2" r="3.3"/>
<circle cx="-54.1" cy="236.8" r="3.3"/>
<circle cx="-68.8" cy="252.8" r="3.3"/>
<circle cx="-86.9" cy="225" r="3.3"/>
<circle cx="-94.6" cy="245.2" r="3.3"/>
<circle cx="-121.2" cy="246.7" r="3.3"/>
<circle cx="-68.4" cy="272.2" r="3.3"/>
<circle cx="-123.4" cy="293.2" r="3.3"/>
<circle cx="-48.7" cy="284.2" r="3.3"/>
<circle cx="-15.6" cy="284.8" r="3.3"/>
<circle cx="-130.9" cy="247" r="3.3"/>
<circle cx="-16.3" cy="210" r="3.3"/>
<line class="st0" x1="-34.1" y1="366.8" x2="-34.1" y2="376"/>
<polyline class="st0" points="-40.4,366.7 -40.4,370.2 -40.4,376.9 -51.5,376.9 -61.5,366.2 "/>
<line class="st0" x1="-40.4" y1="370.2" x2="-49" y2="370.2"/>
<rect x="17.5" y="412.5" width="7.1" height="23.3"/>
<rect x="7.7" y="235.8" width="33.3" height="33.3"/>
<rect x="-136.3" y="353.5" width="16.8" height="8.6"/>
<path class="st1" d="M78.9,197.1c-0.2-0.2-81.9-0.1-82.6,0c-0.6,0.1-17.6-14.2-24.2-19.2c0,0-1.1-0.9-1.3-0.9
	c-0.2,0-1.3,0.9-1.3,0.9c-6.5,5-23.3,19.3-23.9,19.2c-0.7-0.1-81.4-0.2-81.6,0c-0.2,0.2-1.4,151.5-1.4,220.9
	c0,20.4,15.6,31.3,18.6,33.6c12.9,10,41.3,11.6,69.8,26.5c9.7,5.1,16.4,11.6,19.1,14.2l0.7,0.7l0.7-0.6c2.7-2.7,9.5-9.1,19.3-14.2
	c28.8-14.9,57.6-16.5,70.6-26.5c3.1-2.4,18.8-13.3,18.8-33.6C80.2,348.6,79,197.3,78.9,197.1z"/>
<path d="M14.5,320.3c-1.8,0-3.1,0.1-3.7,0.3v11.9c0.8,0.2,1.7,0.2,3.1,0.2c4.9,0,7.9-2.5,7.9-6.5C21.7,322.5,19.1,320.3,14.5,320.3z
	"/>
<path d="M-121.9,299.7v68.5H63v-68.5C63,299.7-121.9,299.7-121.9,299.7z M-88,354.1h-9.1v-40.4h9.1V354.1z M-52.1,321.3h-11v32.8
	h-9.1v-32.8h-10.9v-7.7h31.1C-52.1,313.7-52.1,321.3-52.1,321.3z M-42.6,353.5h-2.2V313h2.2V353.5z M-12.7,354.1l-10-17.5l-3.4,4.3
	v13.2h-9.1v-40.4h9.1v17.9h0.1c0.9-1.6,1.9-3,2.8-4.4l9.1-13.4h11.3l-13.4,17.2l14,23.2L-12.7,354.1L-12.7,354.1z M27,335.6
	c-3.1,2.9-7.7,4.3-13.1,4.3c-1.2,0-2.3-0.1-3.1-0.2v14.5H1.7v-39.9c2.8-0.5,6.8-0.8,12.4-0.8c5.6,0,9.7,1.1,12.4,3.2
	c2.6,2,4.3,5.4,4.3,9.4C30.8,329.9,29.5,333.3,27,335.6z M45.8,354.1h-9.1v-40.4h9.1V354.1z"/>
</svg>
