<?xml version="1.0" encoding="utf-8"?>
<!-- Generator: Adobe Illustrator 19.0.0, SVG Export Plug-In . SVG Version: 6.00 Build 0)  -->
<svg version="1.1" id="Layer_1" xmlns="http://www.w3.org/2000/svg" xmlns:xlink="http://www.w3.org/1999/xlink" x="0px" y="0px"
	 viewBox="-16.7 348.6 267.7 97.1" style="enable-background:new -16.7 348.6 267.7 97.1;" xml:space="preserve">
<style type="text/css">
	.st0{fill:#136BA2;}
	.st1{fill:#FA930D;}
</style>
<g>
	<g>
		<path class="st0" d="M249.2,381.2c-5.6-3.1-7.9-4.3-11.2-4.3c-3.1,0-4.5,1.6-4.5,4c0,7.3,17.5,5.3,17.5,22.3
			c0,9.3-5.1,14.9-13.8,14.9c-5.3,0-7.8-2.3-11.7-4.9v-10.4c5.6,4.6,7.9,6.3,12.1,6.3c3.3,0,4.5-1.7,4.5-4.6c0-8-17.4-5-17.4-22.6
			c0-8.4,3.5-14,12.5-14c4.3,0,7.1,1.1,12,3.9V381.2z"/>
		<path class="st0" d="M107.1,388.3h4c2.7,0,5.4-1.4,5.4-5.6c0-3.7-1.9-5.6-5.6-5.6h-3.7V388.3z M113.7,368.3c8,0,11.5,6.7,11.5,14
			c0,5.3-2.2,9.3-6.6,11.9c-1.2,0.5-1.9,0.7-2.8,0.9l13.4,21.9h-9.5l-12.7-19.9V417h-8.5v-48.7C98.5,368.3,113.7,368.3,113.7,368.3z
			"/>
		<path class="st0" d="M149.5,379.9l-4.5,19h9.7L149.5,379.9z M169.9,417h-9.2l-3.2-9.7h-15.1l-2.9,9.7h-9.1l14.5-48.7h9L169.9,417z
			"/>
		<rect x="172.8" y="368.3" class="st0" width="8.5" height="48.7"/>
		<polygon class="st0" points="221,417 213.9,417 195.9,385.7 195.9,417 187.4,417 187.4,368.3 195.1,368.3 212.4,398 212.4,368.3 
			221,368.3 		"/>
		<path class="st0" d="M78.1,408H75v-11.4h4.5c3.4,0,5.9,1.9,5.9,5.4C85.4,406.3,83.5,408,78.1,408 M86.2,390.2
			c3.3-2,5.4-5.6,5.4-9.7c0-2.2-0.4-4.5-1.5-6.6c-3.1,2.8-6.6,5.8-7.6,6.7c0.2,0.6,0.2,1.1,0.2,1.7c0,2.6-1.4,5.3-4.9,5.3H75v-2.5
			v-7.9V376l10.2-6.7c-1.5-0.6-3.2-1-5.3-1H66.4V417h14.3c11.4,0,13.8-8.7,13.8-14.3C94.6,397,91.8,392,86.2,390.2"/>
	</g>
	<g>
		<path class="st1" d="M98.4,362.6c-0.5-0.3-6.8,3.6-10.7,6.3l-1.4,1l-10.1,6.8v7.5c2.2-1.5,3.9-2.8,5.1-4.1l7.5-6.4
			c0,0,3.8-3.4,5.7-5.4l0.7-0.7c0.6-0.5,0.9-0.8,0.9-1.3c0,0,0-0.1,0-0.1C96.2,365.9,98.6,362.7,98.4,362.6"/>
		<path class="st1" d="M30,400.6c-0.1-2.6-0.6-5.9,2.7-7.7c1.3-0.7,2.1-0.3,2.5,0.2C36.1,394,34.1,398,30,400.6 M1.3,430.2
			c-2.3-1.9-3.4-3.5-5.1-7.6c-2.9-6.9,1.1-9.1,8.3-13.2C3.7,416.9,3.1,432,1.3,430.2 M58.9,394.4l6.1-4.2v-7.5l-5.5,3.6
			c0,0-4.9,3.2-6.6,4.3c0.1-1,0.3-2,0.3-2c0.9-6.4,1.7-12.7,1.7-17c0-2-0.2-3.6-0.6-4.4c-0.3-0.6-0.8-0.9-1.4-1.1
			c-0.8-0.2-1.7,0.1-2.6,0.8c-2.8,2-4.2,7.7-4.2,17.4c0,3.1,0.2,6.7,0.4,10.7c-0.3,0.3-1.9,1.7-1.9,1.7c0,0-2.8,2.4-2.8,2.4
			c0,0-0.1,0.1-0.1,0.2c-2.6,2.3-4.2,3.6-4.8,3.8c-0.8,0.3-1.5,0.4-2.1,0.3c3.5-2.6,6.4-8.2,6.4-11.5c0-0.4,0-0.7-0.1-1
			c-0.6-2.3-1.7-3.9-3.3-4.8c-1.6-0.8-3.4-0.9-5.6-0.1l-0.8,0.3c-3.9,1.8-15.7,8.4-19.3,10.5c0.4-5.2,2.6-28.8,3.2-41.2
			c0.4-8,0-3.1,0-4.6c0-5.9-7.3,0-11.4,4.1c-1.7,1.7-7,6.6-5.1,10.3c2.1,4,4.3,2.7,5.4,9.5c2,12.1,0.5,24.5,0.5,25.3
			c-0.7,0.3-5.7,2.7-5.7,2.7c-8.7,4-15.3,7.1-15.3,12.1c0,0.8,0.2,1.6,0.5,2.5c7.2,18.9,17.1,29.1,21,28.1c5.6-1.5,5.9-8.9,6.2-20.1
			c0.2-5.6,0.4-11.9,1.2-19c0.5-0.3,9.9-7.3,11.7-8.5c-0.8,1.7-0.8,3.4-0.8,4.3c0,2.2,0.3,4.1,0.8,5c0.8,1.6,1.4,2.8,3.2,3.6
			c2.2,1.1,4.1,1.3,7.9-0.1c1.7-0.7,4.6-2.7,7.8-5.4c0.6,1.1,3.4,5.9,3.4,5.9l2.6,4.4c1.2,2.1,3,2.6,5,1.6c1.6-0.8,2.6-1.5,2.9-2.5
			c0.1-0.2,0.1-0.4,0.1-0.6c0-0.7-0.3-1.3-0.6-1.8c-2.9-5.2-3.1-9.8-3.1-13.3c0-0.2,0-0.4,0-0.7C53.6,398.1,58.9,394.4,58.9,394.4"
			/>
	</g>
</g>
</svg>
