<?xml version="1.0" encoding="utf-8"?>
<!-- Generator: Adobe Illustrator 19.0.0, SVG Export Plug-In . SVG Version: 6.00 Build 0)  -->
<svg version="1.1" id="Layer_1" xmlns="http://www.w3.org/2000/svg" xmlns:xlink="http://www.w3.org/1999/xlink" x="0px" y="0px"
	 viewBox="0 0 727.4 284.2" style="enable-background:new 0 0 727.4 284.2;" xml:space="preserve">
<style type="text/css">
	.st0{fill:#0094D4;}
	.st1{fill-rule:evenodd;clip-rule:evenodd;fill:#0094D4;}
</style>
<path class="st0" d="M712.5,207.1h6.8v6.4h-6.8V207.1z M704.5,207.1h6.8v6.4h-6.8V207.1z M696.4,207.1h6.8v6.4h-6.8V207.1z
	 M688.3,207.1h6.8v6.4h-6.8V207.1z M680.3,207.1h6.8v6.4h-6.8V207.1z M672.3,207.1h6.8v6.4h-6.8V207.1z M720.5,199.5h6.8v6.4h-6.8
	V199.5z M712.5,199.5h6.8v6.4h-6.8V199.5z M680.3,199.5h6.8v6.4h-6.8V199.5z M672.3,199.5h6.8v6.4h-6.8V199.5z M720.5,191.9h6.8v6.4
	h-6.8V191.9z M712.5,191.9h6.8v6.4h-6.8V191.9z M680.3,191.9h6.8v6.4h-6.8V191.9z M672.3,191.9h6.8v6.4h-6.8V191.9z M712.5,184.4
	h6.8v6.4h-6.8V184.4z M704.5,184.4h6.8v6.4h-6.8V184.4z M696.4,184.4h6.8v6.4h-6.8V184.4z M688.3,184.4h6.8v6.4h-6.8V184.4z
	 M680.3,184.4h6.8v6.4h-6.8V184.4z M672.3,184.4h6.8v6.4h-6.8V184.4z M720.5,229.9h6.8v6.4h-6.8V229.9z M712.5,229.9h6.8v6.4h-6.8
	V229.9z M680.3,229.9h6.8v6.4h-6.8V229.9z M672.3,229.9h6.8v6.4h-6.8V229.9z M712.5,222.4h6.8v6.4h-6.8V222.4z M704.5,222.4h6.8v6.4
	h-6.8V222.4z M680.3,222.4h6.8v6.4h-6.8V222.4z M672.3,222.4h6.8v6.4h-6.8V222.4z M704.5,214.8h6.8v6.4h-6.8V214.8z M696.4,214.8
	h6.8v6.4h-6.8V214.8z M680.3,214.8h6.8v6.4h-6.8V214.8z M672.3,214.8h6.8v6.4h-6.8V214.8z M649.3,207.1h6.8v6.4h-6.8V207.1z
	 M641.3,207.1h6.8v6.4h-6.8V207.1z M633.1,207.1h6.8v6.4h-6.8V207.1z M625.1,207.1h6.8v6.4h-6.8V207.1z M617.1,207.1h6.8v6.4h-6.8
	V207.1z M609.1,207.1h6.8v6.4h-6.8V207.1z M617.1,199.5h6.8v6.4h-6.8V199.5z M609.1,199.5h6.8v6.4h-6.8V199.5z M617.1,191.9h6.8v6.4
	h-6.8V191.9z M609.1,191.9h6.8v6.4h-6.8V191.9z M657.3,184.4h6.8v6.4h-6.8V184.4z M649.3,184.4h6.8v6.4h-6.8V184.4z M641.3,184.4
	h6.8v6.4h-6.8V184.4z M633.1,184.4h6.8v6.4h-6.8V184.4z M625.1,184.4h6.8v6.4h-6.8V184.4z M617.1,184.4h6.8v6.4h-6.8V184.4z
	 M609.1,184.4h6.8v6.4h-6.8V184.4z M657.3,229.9h6.8v6.4h-6.8V229.9z M649.3,229.9h6.8v6.4h-6.8V229.9z M641.3,229.9h6.8v6.4h-6.8
	V229.9z M633.1,229.9h6.8v6.4h-6.8V229.9z M625.1,229.9h6.8v6.4h-6.8V229.9z M617.1,229.9h6.8v6.4h-6.8V229.9z M609.1,229.9h6.8v6.4
	h-6.8V229.9z M617.1,222.4h6.8v6.4h-6.8V222.4z M609.1,222.4h6.8v6.4h-6.8V222.4z M617.1,214.8h6.8v6.4h-6.8V214.8z M609.1,214.8
	h6.8v6.4h-6.8V214.8z M569.9,207.1h6.8v6.4h-6.8V207.1z M561.9,207.1h6.8v6.4h-6.8V207.1z M569.9,199.5h6.8v6.4h-6.8V199.5z
	 M561.9,199.5h6.8v6.4h-6.8V199.5z M569.9,191.9h6.8v6.4h-6.8V191.9z M561.9,191.9h6.8v6.4h-6.8V191.9z M586.1,184.4h6.8v6.4h-6.8
	V184.4z M578.1,184.4h6.8v6.4h-6.8V184.4z M569.9,184.4h6.8v6.4h-6.8V184.4z M561.9,184.4h6.8v6.4h-6.8V184.4z M553.9,184.4h6.8v6.4
	h-6.8V184.4z M545.9,184.4h6.8v6.4h-6.8V184.4z M569.9,229.9h6.8v6.4h-6.8V229.9z M561.9,229.9h6.8v6.4h-6.8V229.9z M569.9,222.4
	h6.8v6.4h-6.8V222.4z M561.9,222.4h6.8v6.4h-6.8V222.4z M569.9,214.8h6.8v6.4h-6.8V214.8z M561.9,214.8h6.8v6.4h-6.8V214.8z
	 M522.9,207.1h6.8v6.4h-6.8V207.1z M514.9,207.1h6.8v6.4h-6.8V207.1z M506.7,207.1h6.8v6.4h-6.8V207.1z M498.7,207.1h6.8v6.4h-6.8
	V207.1z M490.7,207.1h6.8v6.4h-6.8V207.1z M482.7,207.1h6.8v6.4h-6.8V207.1z M490.7,199.5h6.8v6.4h-6.8V199.5z M482.7,199.5h6.8v6.4
	h-6.8V199.5z M490.7,191.9h6.8v6.4h-6.8V191.9z M482.7,191.9h6.8v6.4h-6.8V191.9z M530.9,184.4h6.8v6.4h-6.8V184.4z M522.9,184.4
	h6.8v6.4h-6.8V184.4z M514.9,184.4h6.8v6.4h-6.8V184.4z M506.7,184.4h6.8v6.4h-6.8V184.4z M498.7,184.4h6.8v6.4h-6.8V184.4z
	 M490.7,184.4h6.8v6.4h-6.8V184.4z M482.7,184.4h6.8v6.4h-6.8V184.4z M530.9,229.9h6.8v6.4h-6.8V229.9z M522.9,229.9h6.8v6.4h-6.8
	V229.9z M514.9,229.9h6.8v6.4h-6.8V229.9z M506.7,229.9h6.8v6.4h-6.8V229.9z M498.7,229.9h6.8v6.4h-6.8V229.9z M490.7,229.9h6.8v6.4
	h-6.8V229.9z M482.7,229.9h6.8v6.4h-6.8V229.9z M490.7,222.4h6.8v6.4h-6.8V222.4z M482.7,222.4h6.8v6.4h-6.8V222.4z M490.7,214.8
	h6.8v6.4h-6.8V214.8z M482.7,214.8h6.8v6.4h-6.8V214.8z M443.5,207.1h6.8v6.4h-6.8V207.1z M435.5,207.1h6.8v6.4h-6.8V207.1z
	 M427.5,207.1h6.8v6.4h-6.8V207.1z M419.4,207.1h6.8v6.4h-6.8V207.1z M451.7,199.5h6.8v6.4h-6.8V199.5z M443.5,199.5h6.8v6.4h-6.8
	V199.5z M427.5,199.5h6.8v6.4h-6.8V199.5z M419.4,199.5h6.8v6.4h-6.8V199.5z M459.7,191.9h6.8v6.4h-6.8V191.9z M451.7,191.9h6.8v6.4
	h-6.8V191.9z M427.5,191.9h6.8v6.4h-6.8V191.9z M419.4,191.9h6.8v6.4h-6.8V191.9z M467.7,184.4h6.8v6.4h-6.8V184.4z M459.7,184.4
	h6.8v6.4h-6.8V184.4z M427.5,184.4h6.8v6.4h-6.8V184.4z M419.4,184.4h6.8v6.4h-6.8V184.4z M467.7,229.9h6.8v6.4h-6.8V229.9z
	 M459.7,229.9h6.8v6.4h-6.8V229.9z M427.5,229.9h6.8v6.4h-6.8V229.9z M419.4,229.9h6.8v6.4h-6.8V229.9z M459.7,222.4h6.8v6.4h-6.8
	V222.4z M451.7,222.4h6.8v6.4h-6.8V222.4z M443.5,222.4h6.8v6.4h-6.8V222.4z M427.5,222.4h6.8v6.4h-6.8V222.4z M419.4,222.4h6.8v6.4
	h-6.8V222.4z M451.7,214.8h6.8v6.4h-6.8V214.8z M443.5,214.8h6.8v6.4h-6.8V214.8z M435.5,214.8h6.8v6.4h-6.8V214.8z M427.5,214.8
	h6.8v6.4h-6.8V214.8z M419.4,214.8h6.8v6.4h-6.8V214.8z M396.5,207.1h6.8v6.4h-6.8V207.1z M388.5,207.1h6.8v6.4h-6.8V207.1z
	 M380.3,207.1h6.8v6.4h-6.8V207.1z M372.3,207.1h6.8v6.4h-6.8V207.1z M364.3,207.1h6.8v6.4h-6.8V207.1z M356.2,207.1h6.8v6.4h-6.8
	V207.1z M404.5,199.5h6.8v6.4h-6.8V199.5z M396.5,199.5h6.8v6.4h-6.8V199.5z M364.3,199.5h6.8v6.4h-6.8V199.5z M356.2,199.5h6.8v6.4
	h-6.8V199.5z M404.5,191.9h6.8v6.4h-6.8V191.9z M396.5,191.9h6.8v6.4h-6.8V191.9z M364.3,191.9h6.8v6.4h-6.8V191.9z M356.2,191.9
	h6.8v6.4h-6.8V191.9z M396.5,184.4h6.8v6.4h-6.8V184.4z M388.5,184.4h6.8v6.4h-6.8V184.4z M380.3,184.4h6.8v6.4h-6.8V184.4z
	 M372.3,184.4h6.8v6.4h-6.8V184.4z M364.3,184.4h6.8v6.4h-6.8V184.4z M356.2,184.4h6.8v6.4h-6.8V184.4z M404.5,229.9h6.8v6.4h-6.8
	V229.9z M396.5,229.9h6.8v6.4h-6.8V229.9z M364.3,229.9h6.8v6.4h-6.8V229.9z M356.2,229.9h6.8v6.4h-6.8V229.9z M396.5,222.4h6.8v6.4
	h-6.8V222.4z M388.5,222.4h6.8v6.4h-6.8V222.4z M364.3,222.4h6.8v6.4h-6.8V222.4z M356.2,222.4h6.8v6.4h-6.8V222.4z M388.5,214.8
	h6.8v6.4h-6.8V214.8z M380.3,214.8h6.8v6.4h-6.8V214.8z M364.3,214.8h6.8v6.4h-6.8V214.8z M356.2,214.8h6.8v6.4h-6.8V214.8z
	 M341.3,207.1h6.8v6.4h-6.8V207.1z M333.3,207.1h6.8v6.4h-6.8V207.1z M301.1,207.1h6.8v6.4h-6.8V207.1z M293,207.1h6.8v6.4H293
	V207.1z M341.3,199.5h6.8v6.4h-6.8V199.5z M333.3,199.5h6.8v6.4h-6.8V199.5z M301.1,199.5h6.8v6.4h-6.8V199.5z M293,199.5h6.8v6.4
	H293V199.5z M333.3,191.9h6.8v6.4h-6.8V191.9z M325.2,191.9h6.8v6.4h-6.8V191.9z M309.1,191.9h6.8v6.4h-6.8V191.9z M301.1,191.9h6.8
	v6.4h-6.8V191.9z M325.2,184.4h6.8v6.4h-6.8V184.4z M317.1,184.4h6.8v6.4h-6.8V184.4z M309.1,184.4h6.8v6.4h-6.8V184.4z
	 M341.3,229.9h6.8v6.4h-6.8V229.9z M333.3,229.9h6.8v6.4h-6.8V229.9z M301.1,229.9h6.8v6.4h-6.8V229.9z M293,229.9h6.8v6.4H293
	V229.9z M341.3,222.4h6.8v6.4h-6.8V222.4z M333.3,222.4h6.8v6.4h-6.8V222.4z M301.1,222.4h6.8v6.4h-6.8V222.4z M293,222.4h6.8v6.4
	H293V222.4z M341.3,214.8h6.8v6.4h-6.8V214.8z M333.3,214.8h6.8v6.4h-6.8V214.8z M325.2,214.8h6.8v6.4h-6.8V214.8z M317.1,214.8h6.8
	v6.4h-6.8V214.8z M309.1,214.8h6.8v6.4h-6.8V214.8z M301.1,214.8h6.8v6.4h-6.8V214.8z M293,214.8h6.8v6.4H293V214.8z"/>
<path class="st0" d="M721.5,258.7c0-0.5-0.1-1-0.3-1.4c-0.2-0.4-0.5-0.8-0.9-1c-0.4-0.2-0.8-0.4-1.3-0.5c-0.5-0.1-1.1-0.1-1.7-0.1
	h-2.9v7h2.5c0.8,0,1.5-0.1,2-0.2c0.6-0.1,1.1-0.4,1.5-0.8c0.4-0.3,0.7-0.7,0.8-1.2C721.5,260,721.5,259.4,721.5,258.7 M727.3,272.1
	h-3.2l-6.2-7.4h-3.5v7.4H712v-18.6h5.2c1.1,0,2.1,0.1,2.8,0.2c0.7,0.1,1.4,0.4,2,0.8c0.7,0.4,1.2,1,1.6,1.6c0.4,0.6,0.6,1.5,0.6,2.5
	c0,1.3-0.3,2.5-1,3.4c-0.7,0.9-1.6,1.6-2.8,2L727.3,272.1z M708,272.1h-12.2v-18.6H708v2.2h-9.8v5.1h9.8v2.2h-9.8v6.9h9.8V272.1z
	 M690.8,272.1h-2.5v-16l-5.2,10.9h-1.5l-5.1-10.9v16h-2.3v-18.6h3.4l4.9,10.3l4.8-10.3h3.4V272.1z M666.1,258.7c0-0.5-0.1-1-0.3-1.4
	c-0.2-0.4-0.5-0.8-0.9-1c-0.4-0.2-0.8-0.4-1.3-0.5c-0.5-0.1-1.1-0.1-1.7-0.1H659v7h2.5c0.8,0,1.5-0.1,2-0.2c0.6-0.1,1.1-0.4,1.5-0.8
	c0.4-0.3,0.7-0.7,0.8-1.2C666,260,666.1,259.4,666.1,258.7z M671.9,272.1h-3.2l-6.2-7.4H659v7.4h-2.5v-18.6h5.2
	c1.1,0,2.1,0.1,2.8,0.2c0.7,0.1,1.4,0.4,2,0.8c0.7,0.4,1.2,1,1.6,1.6c0.4,0.6,0.6,1.5,0.6,2.5c0,1.3-0.3,2.5-1,3.4
	c-0.7,0.9-1.6,1.6-2.8,2L671.9,272.1z M650.1,262.8c0-2.4-0.5-4.3-1.6-5.6c-1.1-1.3-2.6-2-4.4-2c-1.9,0-3.4,0.7-4.4,2
	c-1.1,1.3-1.6,3.2-1.6,5.6c0,2.4,0.5,4.3,1.6,5.6c1.1,1.3,2.6,1.9,4.4,1.9c1.8,0,3.3-0.6,4.4-1.9
	C649.5,267.1,650.1,265.2,650.1,262.8z M650.3,255.6c0.8,0.8,1.3,1.8,1.7,3.1c0.4,1.2,0.6,2.6,0.6,4.1c0,1.5-0.2,2.9-0.6,4.1
	c-0.4,1.2-1,2.2-1.7,3c-0.8,0.8-1.7,1.5-2.7,1.9c-1,0.4-2.2,0.6-3.6,0.6c-1.3,0-2.5-0.2-3.6-0.6c-1.1-0.4-2-1.1-2.7-1.9
	c-0.7-0.8-1.3-1.8-1.7-3c-0.4-1.2-0.6-2.6-0.6-4.1c0-1.5,0.2-2.9,0.6-4.1c0.4-1.2,1-2.2,1.7-3.1c0.7-0.8,1.6-1.4,2.7-1.9
	c1.1-0.4,2.3-0.6,3.5-0.6c1.3,0,2.5,0.2,3.6,0.7C648.6,254.2,649.5,254.8,650.3,255.6z M633.6,255.7h-9.4v5.2h8.1v2.2h-8.1v8.9h-2.5
	v-18.6h11.9V255.7z M616.8,272.1h-3.1l-8.8-16.6v16.6h-2.3v-18.6h3.8l8,15.2v-15.2h2.3V272.1z M598.5,272.1h-7.3v-1.9h2.4v-14.8
	h-2.4v-1.9h7.3v1.9h-2.4v14.8h2.4V272.1z M579,266.8c0,0.7-0.2,1.4-0.5,2.1c-0.3,0.7-0.8,1.3-1.4,1.8c-0.7,0.5-1.4,0.9-2.3,1.2
	c-0.9,0.3-2,0.4-3.2,0.4c-1.3,0-2.5-0.1-3.6-0.4c-1.1-0.2-2.2-0.6-3.3-1.1v-3.1h0.2c0.9,0.8,2,1.4,3.3,1.8c1.2,0.4,2.4,0.6,3.5,0.6
	c1.5,0,2.7-0.3,3.6-0.9c0.9-0.6,1.3-1.3,1.3-2.3c0-0.8-0.2-1.4-0.6-1.8c-0.4-0.4-1-0.7-1.8-0.9c-0.6-0.2-1.3-0.3-2-0.4
	c-0.7-0.1-1.5-0.2-2.3-0.4c-1.6-0.3-2.9-0.9-3.7-1.8c-0.8-0.8-1.2-1.9-1.2-3.3c0-1.6,0.7-2.8,2-3.8c1.3-1,3-1.5,5-1.5
	c1.3,0,2.5,0.1,3.6,0.4c1.1,0.2,2.1,0.6,2.9,0.9v2.9h-0.2c-0.7-0.6-1.6-1.1-2.8-1.5c-1.1-0.4-2.3-0.6-3.5-0.6
	c-1.3,0-2.4,0.3-3.2,0.8c-0.8,0.5-1.2,1.3-1.2,2.1c0,0.8,0.2,1.4,0.6,1.8c0.4,0.4,1.1,0.8,2.1,1c0.5,0.1,1.3,0.3,2.3,0.4
	c1,0.2,1.8,0.3,2.5,0.5c1.4,0.4,2.4,0.9,3.1,1.7C578.6,264.4,579,265.4,579,266.8z M561.8,266.8c0,0.7-0.2,1.4-0.5,2.1
	c-0.3,0.7-0.8,1.3-1.4,1.8c-0.7,0.5-1.4,0.9-2.3,1.2c-0.9,0.3-2,0.4-3.2,0.4c-1.3,0-2.5-0.1-3.6-0.4c-1.1-0.2-2.2-0.6-3.3-1.1v-3.1
	h0.2c0.9,0.8,2,1.4,3.3,1.8c1.2,0.4,2.4,0.6,3.5,0.6c1.5,0,2.7-0.3,3.6-0.9c0.9-0.6,1.3-1.3,1.3-2.3c0-0.8-0.2-1.4-0.6-1.8
	c-0.4-0.4-1-0.7-1.8-0.9c-0.6-0.2-1.3-0.3-2-0.4c-0.7-0.1-1.5-0.2-2.3-0.4c-1.6-0.3-2.9-0.9-3.7-1.8c-0.8-0.8-1.2-1.9-1.2-3.3
	c0-1.6,0.7-2.8,2-3.8c1.3-1,3-1.5,5-1.5c1.3,0,2.5,0.1,3.6,0.4c1.1,0.2,2.1,0.6,2.9,0.9v2.9h-0.2c-0.7-0.6-1.6-1.1-2.8-1.5
	c-1.1-0.4-2.3-0.6-3.5-0.6c-1.3,0-2.4,0.3-3.2,0.8c-0.8,0.5-1.2,1.3-1.2,2.1c0,0.8,0.2,1.4,0.6,1.8c0.4,0.4,1.1,0.8,2.1,1
	c0.5,0.1,1.3,0.3,2.3,0.4c1,0.2,1.8,0.3,2.5,0.5c1.4,0.4,2.4,0.9,3.1,1.7C561.5,264.4,561.8,265.4,561.8,266.8z M544.4,272.1h-12.2
	v-18.6h12.2v2.2h-9.8v5.1h9.8v2.2h-9.8v6.9h9.8V272.1z M527.3,272.1h-3.1l-8.8-16.6v16.6h-2.3v-18.6h3.8l8,15.2v-15.2h2.3V272.1z
	 M508.9,272.1h-7.3v-1.9h2.4v-14.8h-2.4v-1.9h7.3v1.9h-2.4v14.8h2.4V272.1z M498.4,266.8c0,0.7-0.2,1.4-0.5,2.1
	c-0.3,0.7-0.8,1.3-1.4,1.8c-0.7,0.5-1.4,0.9-2.3,1.2c-0.9,0.3-2,0.4-3.2,0.4c-1.3,0-2.5-0.1-3.6-0.4c-1.1-0.2-2.2-0.6-3.3-1.1v-3.1
	h0.2c0.9,0.8,2,1.4,3.3,1.8c1.2,0.4,2.4,0.6,3.5,0.6c1.5,0,2.7-0.3,3.6-0.9c0.9-0.6,1.3-1.3,1.3-2.3c0-0.8-0.2-1.4-0.6-1.8
	c-0.4-0.4-1-0.7-1.8-0.9c-0.6-0.2-1.3-0.3-2-0.4c-0.7-0.1-1.5-0.2-2.3-0.4c-1.6-0.3-2.9-0.9-3.7-1.8c-0.8-0.8-1.2-1.9-1.2-3.3
	c0-1.6,0.7-2.8,2-3.8c1.3-1,3-1.5,5-1.5c1.3,0,2.5,0.1,3.6,0.4c1.1,0.2,2.1,0.6,2.9,0.9v2.9h-0.2c-0.7-0.6-1.6-1.1-2.8-1.5
	c-1.1-0.4-2.3-0.6-3.5-0.6c-1.3,0-2.4,0.3-3.2,0.8c-0.8,0.5-1.2,1.3-1.2,2.1c0,0.8,0.2,1.4,0.6,1.8c0.4,0.4,1.1,0.8,2.1,1
	c0.5,0.1,1.3,0.3,2.3,0.4c1,0.2,1.8,0.3,2.5,0.5c1.4,0.4,2.4,0.9,3.1,1.7C498,264.4,498.4,265.4,498.4,266.8z M480.2,264.6
	c0,1.3-0.1,2.5-0.4,3.5c-0.3,1-0.8,1.8-1.5,2.5c-0.6,0.6-1.4,1.1-2.2,1.4c-0.9,0.3-1.9,0.4-3,0.4c-1.2,0-2.2-0.2-3-0.5
	c-0.9-0.3-1.6-0.8-2.2-1.4c-0.7-0.7-1.2-1.5-1.5-2.5c-0.3-1-0.4-2.1-0.4-3.6v-11.1h2.5v11.2c0,1,0.1,1.8,0.2,2.4
	c0.1,0.6,0.4,1.1,0.7,1.6c0.4,0.5,0.9,0.9,1.5,1.2c0.6,0.3,1.4,0.4,2.3,0.4c0.9,0,1.6-0.1,2.3-0.4c0.6-0.3,1.1-0.7,1.5-1.2
	c0.3-0.5,0.6-1,0.7-1.6c0.1-0.6,0.2-1.4,0.2-2.3v-11.3h2.5V264.6z M460.1,266.4c0-0.7-0.1-1.3-0.3-1.8c-0.2-0.4-0.6-0.8-1.2-1.1
	c-0.4-0.2-0.9-0.3-1.5-0.4c-0.6-0.1-1.3-0.1-2.1-0.1h-3.9v6.9h3.3c1.1,0,2-0.1,2.7-0.2c0.7-0.1,1.3-0.3,1.7-0.6
	c0.5-0.3,0.8-0.7,1-1.1C460,267.6,460.1,267.1,460.1,266.4z M458.6,258c0-0.5-0.1-0.8-0.2-1.1c-0.1-0.3-0.4-0.6-0.7-0.7
	c-0.4-0.2-0.9-0.4-1.4-0.4c-0.6-0.1-1.2-0.1-2.1-0.1h-2.9v5.4h3.2c0.8,0,1.4,0,1.8-0.1c0.5-0.1,0.9-0.2,1.3-0.5
	c0.4-0.2,0.7-0.6,0.8-1C458.5,259,458.6,258.5,458.6,258z M462.7,266.3c0,0.9-0.2,1.7-0.5,2.4c-0.3,0.7-0.8,1.3-1.4,1.7
	c-0.7,0.5-1.5,0.9-2.3,1.2c-0.8,0.2-1.9,0.3-3.2,0.3h-6.6v-18.6h5.5c1.4,0,2.4,0.1,3,0.1c0.7,0.1,1.3,0.3,1.9,0.6
	c0.7,0.4,1.2,0.8,1.5,1.4c0.3,0.6,0.5,1.2,0.5,2c0,0.9-0.2,1.6-0.7,2.2c-0.5,0.6-1,1.1-1.8,1.5v0.1c1.3,0.3,2.2,0.8,3,1.7
	C462.3,264,462.7,265.1,462.7,266.3z M435.8,272.1h-12.2v-18.6h12.2v2.2h-9.8v5.1h9.8v2.2h-9.8v6.9h9.8V272.1z M421.1,255.7h-6.6
	v16.4H412v-16.4h-6.6v-2.2h15.7V255.7z M403.7,272.1h-7.3v-1.9h2.4v-14.8h-2.4v-1.9h7.3v1.9h-2.4v14.8h2.4V272.1z M388.9,258.7
	c0-0.5-0.1-1-0.3-1.4c-0.2-0.4-0.5-0.8-0.9-1c-0.4-0.2-0.8-0.4-1.3-0.5c-0.5-0.1-1.1-0.1-1.7-0.1h-2.9v7h2.5c0.8,0,1.5-0.1,2-0.2
	c0.6-0.1,1.1-0.4,1.5-0.8c0.4-0.3,0.7-0.7,0.8-1.2C388.9,260,388.9,259.4,388.9,258.7z M394.7,272.1h-3.2l-6.2-7.4h-3.5v7.4h-2.5
	v-18.6h5.2c1.1,0,2.1,0.1,2.8,0.2c0.7,0.1,1.4,0.4,2,0.8c0.7,0.4,1.2,1,1.6,1.6c0.4,0.6,0.6,1.5,0.6,2.5c0,1.3-0.3,2.5-1,3.4
	c-0.7,0.9-1.6,1.6-2.8,2L394.7,272.1z M374.7,264.6c0,1.3-0.1,2.5-0.4,3.5c-0.3,1-0.8,1.8-1.5,2.5c-0.6,0.6-1.4,1.1-2.2,1.4
	c-0.9,0.3-1.9,0.4-3,0.4c-1.2,0-2.2-0.2-3-0.5c-0.9-0.3-1.6-0.8-2.2-1.4c-0.7-0.7-1.2-1.5-1.5-2.5c-0.3-1-0.4-2.1-0.4-3.6v-11.1h2.5
	v11.2c0,1,0.1,1.8,0.2,2.4c0.1,0.6,0.4,1.1,0.7,1.6c0.4,0.5,0.9,0.9,1.5,1.2c0.6,0.3,1.4,0.4,2.3,0.4c0.9,0,1.6-0.1,2.3-0.4
	c0.6-0.3,1.1-0.7,1.5-1.2c0.3-0.5,0.6-1,0.7-1.6c0.1-0.6,0.2-1.4,0.2-2.3v-11.3h2.5V264.6z M354.2,262.8c0-2.4-0.5-4.3-1.6-5.6
	c-1.1-1.3-2.6-2-4.4-2c-1.9,0-3.4,0.7-4.4,2c-1.1,1.3-1.6,3.2-1.6,5.6c0,2.4,0.5,4.3,1.6,5.6c1.1,1.3,2.6,1.9,4.4,1.9
	c1.8,0,3.3-0.6,4.4-1.9C353.6,267.1,354.2,265.2,354.2,262.8z M354.4,255.6c0.8,0.8,1.3,1.8,1.7,3.1c0.4,1.2,0.6,2.6,0.6,4.1
	c0,1.5-0.2,2.9-0.6,4.1c-0.4,1.2-1,2.2-1.7,3c-0.8,0.8-1.7,1.5-2.7,1.9c-1,0.4-2.2,0.6-3.6,0.6c-1.3,0-2.5-0.2-3.6-0.6
	c-1.1-0.4-2-1.1-2.7-1.9c-0.7-0.8-1.3-1.8-1.7-3c-0.4-1.2-0.6-2.6-0.6-4.1c0-1.5,0.2-2.9,0.6-4.1c0.4-1.2,1-2.2,1.7-3.1
	c0.7-0.8,1.6-1.4,2.7-1.9c1.1-0.4,2.3-0.6,3.5-0.6c1.3,0,2.5,0.2,3.6,0.7C352.8,254.2,353.7,254.8,354.4,255.6z M337.8,253.5
	l-6.8,18.6h-3.3l-6.8-18.6h2.6l5.8,16.3l5.8-16.3H337.8z M315.8,264.8l-3.2-9.1l-3.3,9.1H315.8z M321.1,272.1h-2.6l-1.8-5.2h-8
	l-1.8,5.2h-2.5l6.8-18.6h3.3L321.1,272.1z M304.9,255.7h-9.4v5.2h8.1v2.2h-8.1v8.9H293v-18.6h11.9V255.7z"/>
<path class="st1" d="M213.7,130.7h23.2v22.3h-23.2V130.7z M186.4,130.7h23.2v22.3h-23.2V130.7z M159.1,130.7h23.2v22.3h-23.2V130.7z
	 M131.4,130.7h23.2v22.3h-23.2V130.7z M104.1,130.7h23.2v22.3h-23.2V130.7z M76.8,130.7h23.2v22.3H76.8V130.7z M49.5,130.7h23.2
	v22.3H49.5V130.7z M213.7,104.4h23.2v22.4h-23.2V104.4z M186.4,104.4h23.2v22.4h-23.2V104.4z M159.1,104.4h23.2v22.4h-23.2V104.4z
	 M104.1,104.4h23.2v22.4h-23.2V104.4z M76.8,104.4h23.2v22.4H76.8V104.4z M49.5,104.4h23.2v22.4H49.5V104.4z M213.7,78.1h23.2v22.3
	h-23.2V78.1z M186.4,78.1h23.2v22.3h-23.2V78.1z M76.8,78.1h23.2v22.3H76.8V78.1z M49.5,78.1h23.2v22.3H49.5V78.1z M213.7,51.7h23.2
	v22.3h-23.2V51.7z M49.5,51.7h23.2v22.3H49.5V51.7z M213.7,210.2h23.2v22.3h-23.2V210.2z M186.4,210.2h23.2v22.3h-23.2V210.2z
	 M76.8,210.2h23.2v22.3H76.8V210.2z M49.5,210.2h23.2v22.3H49.5V210.2z M213.7,183.8h23.2v22.3h-23.2V183.8z M186.4,183.8h23.2v22.3
	h-23.2V183.8z M76.8,183.8h23.2v22.3H76.8V183.8z M49.5,183.8h23.2v22.3H49.5V183.8z M213.7,157.5h23.2v22.4h-23.2V157.5z
	 M186.4,157.5h23.2v22.4h-23.2V157.5z M131.4,157.5h23.2v22.4h-23.2V157.5z M76.8,157.5h23.2v22.4H76.8V157.5z M49.5,157.5h23.2
	v22.4H49.5V157.5z M280.1,266.8c0,0.7-0.2,1.4-0.5,2.1c-0.3,0.7-0.8,1.3-1.4,1.8c-0.7,0.5-1.4,0.9-2.3,1.2c-0.9,0.3-2,0.4-3.2,0.4
	c-1.3,0-2.5-0.1-3.6-0.4c-1.1-0.2-2.2-0.6-3.3-1.1v-3.1h0.2c0.9,0.8,2,1.4,3.3,1.8c1.2,0.4,2.4,0.6,3.5,0.6c1.5,0,2.7-0.3,3.6-0.9
	c0.9-0.6,1.3-1.3,1.3-2.3c0-0.8-0.2-1.4-0.6-1.8c-0.4-0.4-1-0.7-1.8-0.9c-0.6-0.2-1.3-0.3-2-0.4c-0.7-0.1-1.5-0.2-2.3-0.4
	c-1.6-0.3-2.9-0.9-3.7-1.8c-0.8-0.8-1.2-1.9-1.2-3.3c0-1.6,0.7-2.8,2-3.8c1.3-1,3-1.5,5-1.5c1.3,0,2.5,0.1,3.6,0.4
	c1.1,0.2,2.1,0.6,2.9,0.9v2.9h-0.2c-0.7-0.6-1.6-1.1-2.8-1.5c-1.1-0.4-2.3-0.6-3.5-0.6c-1.3,0-2.4,0.3-3.2,0.8
	c-0.8,0.5-1.2,1.3-1.2,2.1c0,0.8,0.2,1.4,0.6,1.8c0.4,0.4,1.1,0.8,2.1,1c0.5,0.1,1.3,0.3,2.3,0.4c1,0.2,1.8,0.3,2.5,0.5
	c1.4,0.4,2.4,0.9,3.1,1.7C279.7,264.4,280.1,265.4,280.1,266.8z M264.3,252.7l-3.4,7h-1.7l2.1-7H264.3z M254.8,272.1h-3.1l-8.8-16.6
	v16.6h-2.3v-18.6h3.8l8,15.2v-15.2h2.3V272.1z M234.1,262.8c0-2.4-0.5-4.3-1.6-5.6c-1.1-1.3-2.6-2-4.4-2c-1.9,0-3.4,0.7-4.4,2
	c-1.1,1.3-1.6,3.2-1.6,5.6c0,2.4,0.5,4.3,1.6,5.6c1.1,1.3,2.6,1.9,4.4,1.9c1.8,0,3.3-0.6,4.4-1.9
	C233.6,267.1,234.1,265.2,234.1,262.8z M234.4,255.6c0.8,0.8,1.3,1.8,1.7,3.1c0.4,1.2,0.6,2.6,0.6,4.1c0,1.5-0.2,2.9-0.6,4.1
	c-0.4,1.2-1,2.2-1.7,3c-0.8,0.8-1.7,1.5-2.7,1.9c-1,0.4-2.2,0.6-3.6,0.6c-1.3,0-2.5-0.2-3.6-0.6c-1.1-0.4-2-1.1-2.7-1.9
	c-0.7-0.8-1.3-1.8-1.7-3c-0.4-1.2-0.6-2.6-0.6-4.1c0-1.5,0.2-2.9,0.6-4.1c0.4-1.2,1-2.2,1.7-3.1c0.7-0.8,1.6-1.4,2.7-1.9
	c1.1-0.4,2.3-0.6,3.5-0.6c1.3,0,2.5,0.2,3.6,0.7C232.7,254.2,233.6,254.8,234.4,255.6z M216.3,272.1H209v-1.9h2.4v-14.8H209v-1.9
	h7.3v1.9h-2.4v14.8h2.4V272.1z M207.3,255.7h-6.6v16.4h-2.5v-16.4h-6.6v-2.2h15.7V255.7z M187.5,264.8l-3.2-9.1l-3.3,9.1H187.5z
	 M192.7,272.1h-2.6l-1.8-5.2h-8l-1.8,5.2h-2.5l6.8-18.6h3.3L192.7,272.1z M173.2,272.1h-3.1l-8.8-16.6v16.6H159v-18.6h3.8l8,15.2
	v-15.2h2.3V272.1z M0,0h286.3v284.2H0V0z"/>
</svg>
