<?xml version="1.0" encoding="utf-8"?>
<!-- Generator: Adobe Illustrator 19.0.0, SVG Export Plug-In . SVG Version: 6.00 Build 0)  -->
<svg version="1.1" id="Layer_1" xmlns="http://www.w3.org/2000/svg" xmlns:xlink="http://www.w3.org/1999/xlink" x="0px" y="0px"
	 viewBox="0 0 541.4 541.4" style="enable-background:new 0 0 541.4 541.4;" xml:space="preserve">
<style type="text/css">
	.st0{fill:#35A2DB;}
	.st1{fill:#FFFFFF;}
</style>
<rect class="st0" width="541.4" height="541.4"/>
<g>
	<rect x="89.4" y="93.3" class="st1" width="46.8" height="46.8"/>
	<rect x="89.4" y="144.6" class="st1" width="46.8" height="46.8"/>
	<rect x="89.4" y="196" class="st1" width="46.8" height="46.8"/>
	<rect x="89.4" y="247.3" class="st1" width="46.8" height="46.8"/>
	<rect x="89.4" y="298.6" class="st1" width="46.8" height="46.8"/>
	<rect x="89.4" y="350" class="st1" width="46.8" height="46.8"/>
	<rect x="89.4" y="401.3" class="st1" width="46.8" height="46.8"/>
	<rect x="142" y="144.6" class="st1" width="46.8" height="46.8"/>
	<rect x="142" y="196" class="st1" width="46.8" height="46.8"/>
	<rect x="142" y="247.3" class="st1" width="46.8" height="46.8"/>
	<rect x="142" y="298.6" class="st1" width="46.8" height="46.8"/>
	<rect x="142" y="350" class="st1" width="46.8" height="46.8"/>
	<rect x="142" y="401.3" class="st1" width="46.8" height="46.8"/>
	<rect x="194.7" y="196" class="st1" width="46.8" height="46.8"/>
	<rect x="194.7" y="247.3" class="st1" width="46.8" height="46.8"/>
	<rect x="247.3" y="247.3" class="st1" width="46.8" height="46.8"/>
	<rect x="247.3" y="298.6" class="st1" width="46.8" height="46.8"/>
	<rect x="299.9" y="196" class="st1" width="46.8" height="46.8"/>
	<rect x="299.9" y="247.3" class="st1" width="46.8" height="46.8"/>
	<rect x="352.6" y="144.6" class="st1" width="46.8" height="46.8"/>
	<rect x="352.6" y="196" class="st1" width="46.8" height="46.8"/>
	<rect x="352.6" y="247.3" class="st1" width="46.8" height="46.8"/>
	<rect x="352.6" y="298.6" class="st1" width="46.8" height="46.8"/>
	<rect x="352.6" y="350" class="st1" width="46.8" height="46.8"/>
	<rect x="352.6" y="401.3" class="st1" width="46.8" height="46.8"/>
	<rect x="405.2" y="93.3" class="st1" width="46.8" height="46.8"/>
	<rect x="405.2" y="144.6" class="st1" width="46.8" height="46.8"/>
	<rect x="405.2" y="196" class="st1" width="46.8" height="46.8"/>
	<rect x="405.2" y="247.3" class="st1" width="46.8" height="46.8"/>
	<rect x="405.2" y="298.6" class="st1" width="46.8" height="46.8"/>
	<rect x="405.2" y="350" class="st1" width="46.8" height="46.8"/>
	<rect x="405.2" y="401.3" class="st1" width="46.8" height="46.8"/>
</g>
<g>
</g>
<g>
</g>
<g>
</g>
<g>
</g>
<g>
</g>
<g>
</g>
</svg>
