<?xml version="1.0" encoding="utf-8"?>
<!-- Generator: Adobe Illustrator 19.0.0, SVG Export Plug-In . SVG Version: 6.00 Build 0)  -->
<svg version="1.1" id="Layer_1" xmlns="http://www.w3.org/2000/svg" xmlns:xlink="http://www.w3.org/1999/xlink" x="0px" y="0px"
	 viewBox="0 0 393.9 84.1" style="enable-background:new 0 0 393.9 84.1;" xml:space="preserve">
<style type="text/css">
	.st0{fill:#77787B;}
	.st1{fill:#F26522;}
	.st2{fill:#8DC63F;}
	.st3{fill:#00AEEF;}
	.st4{fill:#FFC20E;}
</style>
<g>
	<path class="st0" d="M139,48.5l-2.4,6.6h-0.1c-0.4-1.5-1.1-3.7-2.2-6.5l-12.6-31.7h-12.4v50.4h8.1v-31c0-1.9,0-4.2-0.1-6.9
		c0-1.3-0.2-2.4-0.2-3.2h0.2c0.4,1.9,0.8,3.3,1.2,4.3l15.2,36.8h5.7l15-37.1c0.3-0.8,0.7-2.5,1-4h0.2c-0.2,3.7-0.4,7-0.4,9v32h8.7
		V16.8H152L139,48.5z"/>
	<rect x="172" y="31.1" class="st0" width="8.5" height="36.1"/>
	<path class="st0" d="M176.4,15.8c-1.4,0-2.6,0.5-3.6,1.4c-1,0.9-1.5,2.1-1.5,3.5c0,1.4,0.5,2.6,1.5,3.5c1,0.9,2.2,1.4,3.6,1.4
		c1.4,0,2.7-0.5,3.7-1.4c1-0.9,1.5-2.1,1.5-3.5c0-1.4-0.5-2.5-1.5-3.5C179.1,16.3,177.8,15.8,176.4,15.8z"/>
	<path class="st0" d="M210.6,30.8c-1.6-0.3-3.2-0.5-4.7-0.5c-3.9,0-7.4,0.8-10.3,2.5c-3,1.7-5.3,4-6.8,7c-1.6,3-2.3,6.5-2.3,10.4
		c0,3.4,0.8,6.5,2.3,9.3c1.5,2.8,3.6,4.9,6.4,6.4c2.7,1.5,5.8,2.3,9.3,2.3c4,0,7.5-0.8,10.2-2.4l0.1-0.1v-7.8l-0.4,0.3
		c-1.3,0.9-2.7,1.6-4.2,2.2c-1.5,0.5-2.9,0.8-4.1,0.8c-3.3,0-6-1-8-3.1c-1.9-2.1-2.9-4.9-2.9-8.6c0-3.7,1-6.6,3.1-8.8
		c2-2.2,4.7-3.3,8-3.3c2.8,0,5.5,0.9,8.1,2.8l0.4,0.3v-8.2l-0.1-0.1C213.6,31.5,212.2,31.1,210.6,30.8z"/>
	<path class="st0" d="M238.6,30.5c-2.1,0-4,0.7-5.7,2c-1.4,1.2-2.5,2.8-3.3,4.8h-0.1v-6.3H221v36.1h8.5V48.8c0-3.1,0.7-5.7,2.1-7.7
		c1.4-1.9,3.2-2.9,5.5-2.9c0.8,0,1.6,0.1,2.6,0.4c0.9,0.2,1.6,0.5,2,0.8l0.4,0.3V31l-0.1-0.1C241.1,30.7,240,30.5,238.6,30.5z"/>
	<path class="st0" d="M261.7,30.2c-6,0-10.7,1.7-14.1,5.2c-3.4,3.4-5.1,8.2-5.1,14.2c0,5.7,1.7,10.2,5,13.5c3.3,3.3,7.8,5,13.3,5
		c5.8,0,10.4-1.8,13.8-5.3c3.4-3.5,5.1-8.2,5.1-14c0-5.7-1.6-10.3-4.8-13.6C271.7,31.9,267.3,30.2,261.7,30.2z M268.4,58
		c-1.6,2-4,3-7.1,3c-3.1,0-5.6-1-7.3-3.1c-1.7-2-2.6-5-2.6-8.7c0-3.8,0.9-6.8,2.6-8.9c1.7-2.1,4.2-3.1,7.2-3.1c3,0,5.4,1,7.1,3
		c1.7,2,2.6,5,2.6,8.8C270.8,53,270,56,268.4,58z"/>
	<path class="st0" d="M298.5,46c-2.7-1.1-4.4-2-5.1-2.7c-0.7-0.7-1-1.6-1-2.8c0-1.1,0.4-1.9,1.3-2.6c0.9-0.7,2.1-1,3.7-1
		c1.4,0,2.9,0.2,4.4,0.7c1.5,0.4,2.7,1,3.8,1.8l0.4,0.2v-7.9l-0.1-0.1c-1-0.4-2.3-0.8-3.9-1.1c-1.6-0.3-3-0.4-4.2-0.4
		c-4.1,0-7.4,1-10,3.1c-2.6,2.1-3.9,4.8-3.9,8c0,1.7,0.3,3.2,0.8,4.5c0.6,1.3,1.4,2.4,2.6,3.4c1.1,0.9,2.9,1.9,5.2,2.9
		c2,0.8,3.4,1.5,4.3,2c0.9,0.5,1.6,1.1,1.9,1.6c0.4,0.5,0.5,1.2,0.5,2c0,2.4-1.8,3.6-5.6,3.6c-1.4,0-3-0.3-4.7-0.9
		c-1.7-0.6-3.4-1.4-4.8-2.4l-0.4-0.3v8.3l0.1,0.1c1.2,0.6,2.8,1,4.6,1.4c1.8,0.4,3.4,0.6,4.9,0.6c4.4,0,7.9-1,10.5-3.1
		c2.6-2.1,3.9-4.8,3.9-8.2c0-2.4-0.7-4.5-2.1-6.2C304.2,48.9,301.8,47.4,298.5,46z"/>
	<path class="st0" d="M330.6,30.2c-6,0-10.7,1.7-14.1,5.2c-3.4,3.4-5.1,8.2-5.1,14.2c0,5.7,1.7,10.2,5,13.5c3.3,3.3,7.8,5,13.3,5
		c5.8,0,10.4-1.8,13.8-5.3c3.4-3.5,5.1-8.2,5.1-14c0-5.7-1.6-10.3-4.8-13.6C340.6,31.9,336.2,30.2,330.6,30.2z M337.3,58
		c-1.6,2-4,3-7.1,3c-3.1,0-5.6-1-7.3-3.1c-1.7-2-2.6-5-2.6-8.7c0-3.8,0.9-6.8,2.6-8.9c1.7-2.1,4.2-3.1,7.2-3.1c3,0,5.4,1,7.1,3
		c1.7,2,2.6,5,2.6,8.8C339.8,53,338.9,56,337.3,58z"/>
	<path class="st0" d="M393.9,38v-6.9h-8.6V20.3l-0.3,0.1l-8.1,2.5l-0.2,0v8.2H364v-4.5c0-2.1,0.5-3.7,1.4-4.8
		c0.9-1.1,2.3-1.6,3.9-1.6c1.2,0,2.5,0.3,3.7,0.9l0.3,0.1v-7.3l-0.1-0.1c-1.2-0.4-2.8-0.6-4.8-0.6c-2.5,0-4.8,0.5-6.8,1.6
		c-2,1.1-3.6,2.6-4.7,4.6c-1.1,2-1.6,4.2-1.6,6.7v5h-6V38h6v29.2h8.6V38h12.7v18.5c0,7.6,3.6,11.5,10.7,11.5c1.2,0,2.4-0.1,3.7-0.4
		c1.3-0.3,2.1-0.6,2.7-0.8l0.1-0.1v-7l-0.3,0.2c-0.5,0.3-1,0.6-1.7,0.8c-0.7,0.2-1.3,0.3-1.7,0.3c-1.7,0-2.9-0.4-3.7-1.3
		c-0.8-0.9-1.2-2.5-1.2-4.6V38H393.9z"/>
</g>
<rect class="st1" width="40" height="40"/>
<rect x="44.1" class="st2" width="40" height="40"/>
<rect y="44.1" class="st3" width="40" height="40"/>
<rect x="44.1" y="44.1" class="st4" width="40" height="40"/>
<g id="XMLID_27_">
</g>
<g id="XMLID_28_">
</g>
<g id="XMLID_29_">
</g>
<g id="XMLID_30_">
</g>
<g id="XMLID_31_">
</g>
<g id="XMLID_32_">
</g>
</svg>
