<?xml version="1.0" encoding="utf-8"?>
<!-- Generator: Adobe Illustrator 19.0.0, SVG Export Plug-In . SVG Version: 6.00 Build 0)  -->
<svg version="1.1" id="Layer_1" xmlns="http://www.w3.org/2000/svg" xmlns:xlink="http://www.w3.org/1999/xlink" x="0px" y="0px"
	 viewBox="0 0 391.4 234.5" style="enable-background:new 0 0 391.4 234.5;" xml:space="preserve">
<style type="text/css">
	.st0{fill:none;}
	.st1{fill:#443B3B;}
	.st2{fill:#E64E26;}
	.st3{fill:#601811;}
	.st4{fill:#E84C27;}
</style>
<g>
	<g>
		<path class="st0" d="M185.4,105.3"/>
	</g>
	<path class="st1" d="M223.9,53.9c0,0,0.3,0,0.7-0.1c0.5-0.1,1.1-0.3,1.9-0.6c0.8-0.3,1.7-0.8,2.5-1.4c0.9-0.7,1.7-1.5,2.5-2.6
		c0.7-1.1,1.4-2.3,1.8-3.8c0.5-1.4,0.8-3,1-4.7c0.2-1.7,0.3-3.3,0.1-5c-0.2-1.6-0.6-3.2-1.3-4.7c-0.3-0.7-0.8-1.4-1.2-2.1
		c-0.5-0.7-1-1.3-1.6-1.9c-1.1-1.2-2.5-2.2-3.8-2.9c-0.2-0.1-0.3-0.2-0.5-0.2l-0.2-0.1c0,0-0.1,0-0.1,0c0,0,0,0,0,0l0,0l0,0l0.1,0
		c0,0,0.1,0,0.1,0l0,0l0.2,0c0.1,0,0.3,0,0.4-0.1c0.1,0,0.2-0.1,0.3-0.2c0.1-0.1-0.5,0.2-0.2,0.1l0,0c0,0,0,0-0.3,0.1
		c-0.1,0-0.2,0.1-0.4,0.1l-0.2,0c-0.1,0-0.1,0-0.1,0c-0.2,0-0.4,0-0.5,0l-0.2,0l-0.1,0l-0.2,0l-0.1,0c-0.3-0.1-0.6-0.1-0.9-0.1
		c-0.3,0-0.6,0-0.9,0.1c-1.3,0.2-2.6,0.9-3.8,1.6c-1.2,0.7-2.3,1.5-3.3,2.1c-1,0.7-1.8,1.3-2.5,1.9c-0.7,0.5-1.2,1-1.6,1.3
		c-0.4,0.3-0.6,0.4-0.6,0.4s0.1-0.2,0.3-0.7c0.2-0.4,0.6-1,1-1.8c0.5-0.8,1-1.7,1.8-2.7c0.7-1,1.7-2.1,2.8-3.2
		c1.2-1.1,2.6-2.2,4.6-3c0.5-0.2,1.1-0.3,1.6-0.4c0.6-0.1,1.2-0.1,1.8-0.1l0.2,0c0.1,0,0.1,0,0.1,0l0.1,0c0,0,0,0,0,0
		c0,0-0.1,0-0.1,0l-0.1,0c0,0-0.1,0-0.1,0c-0.1,0-0.2,0-0.3,0.1c-0.3,0.1-0.1,0.1-0.1,0l0,0c0.3-0.1-0.3,0.2-0.2,0.1
		c0.1-0.1,0.3-0.1,0.4-0.2c0.2-0.1,0.3-0.1,0.5-0.1c0.1,0,0.2,0,0.2,0l0.1,0c0.1,0,0.2,0,0.3,0l0.2,0l0.1,0l0,0l0.3,0
		c0.2,0,0.4,0.1,0.5,0.1l0.5,0.1c0.3,0.1,0.6,0.2,0.8,0.3c1.1,0.4,2,0.9,3,1.5c0.9,0.6,1.8,1.3,2.7,2c0.8,0.8,1.6,1.6,2.3,2.5
		c0.7,0.9,1.3,1.9,1.8,3c1,2.1,1.5,4.4,1.7,6.7c0.1,2.2-0.2,4.5-0.6,6.4c-0.5,2-1.2,3.8-2,5.5c-0.9,1.7-2,3.1-3.3,4.3
		c-0.6,0.6-1.3,1-1.9,1.4c-0.7,0.4-1.3,0.7-1.9,0.9c-1.3,0.4-2.4,0.6-3.3,0.6c-0.9,0-1.6-0.1-2.1-0.2
		C224.1,54,223.9,53.9,223.9,53.9z"/>
	<path class="st1" d="M211.7,40.9c0.5-0.8,1-1.5,1.6-2.2c0.6-0.7,1.2-1.4,1.8-2c0.7-0.6,1.4-1.2,2.2-1.8c0.2-0.1,0.4-0.3,0.6-0.4
		c0.2-0.1,0.4-0.2,0.7-0.3l0.3-0.2c0.1,0,0.1,0,0.2-0.1l0.2-0.1c0.2-0.1,0.4-0.2,0.6-0.2c0.5-0.1,0.9-0.3,1.5-0.3
		c0.5-0.1,1.1-0.1,1.6,0c0.6,0.1,1.2,0.3,1.6,0.6c0.5,0.3,0.9,0.7,1.2,1.1c0.3,0.4,0.6,0.8,0.8,1.3c0.1,0.2,0.2,0.4,0.3,0.6l0.2,0.3
		l0.1,0.2l0.1,0.2c0.1,0.2,0.2,0.4,0.2,0.6c0.1,0.3,0.2,0.6,0.2,0.8l0.1,0.8l0,0.8c0,1-0.2,2.1-0.6,3c-0.4,1-0.8,1.9-1.4,2.7
		c-0.2,0.2-0.3,0.4-0.5,0.6c-0.2,0.2-0.4,0.4-0.7,0.6c-0.3,0.2-0.8,0.6-1.2,0.8c-0.8,0.5-1.6,0.9-2.4,1.3c-1.6,0.9-3.2,1.6-4.9,2.4
		c-0.8,0.4-1.7,0.7-2.5,1c-0.9,0.3-1.7,0.6-2.7,0.8l-0.6,0.1l-0.3-0.5l-1.1-2.1c-0.4-0.7-0.7-1.4-1.1-2.1c-0.4-0.7-0.7-1.4-1.1-2.1
		c-0.4-0.7-0.7-1.4-1-2.1c0.5,0.6,1,1.2,1.5,1.9c0.5,0.6,1,1.2,1.5,1.9c0.5,0.6,1,1.3,1.4,1.9l1.4,1.9l-0.9-0.4
		c0.8-0.3,1.6-0.6,2.3-1c0.8-0.4,1.6-0.8,2.3-1.2c1.5-0.8,3.1-1.7,4.6-2.6c0.8-0.4,1.5-0.9,2.2-1.4l0.5-0.3l0.2-0.2l0.3-0.2
		c0.1-0.1,0.2-0.2,0.3-0.3c0.1-0.1,0.2-0.3,0.3-0.4c0.4-0.6,0.8-1.3,1.1-2c0.3-0.7,0.4-1.5,0.5-2.2l0-0.5c0-0.2,0-0.4-0.1-0.5
		c0-0.2-0.1-0.3-0.1-0.5c0-0.2-0.1-0.4-0.2-0.6l0-0.1l0,0l0,0c0-0.1,0,0.1,0,0.1l0,0l-0.1-0.1l-0.1-0.3c-0.1-0.2-0.2-0.4-0.3-0.6
		c-0.2-0.4-0.4-0.7-0.6-1c-0.4-0.6-0.8-1-1.4-1.1c-0.6-0.2-1.4-0.1-2.2,0.1c-0.2,0-0.4,0.1-0.6,0.1l-0.2,0c0,0-0.1,0-0.1,0l-0.3,0.1
		c-0.2,0-0.4,0.1-0.6,0.2c-0.2,0.1-0.4,0.2-0.6,0.3c-0.8,0.4-1.5,0.8-2.2,1.3C214.4,38.6,213,39.7,211.7,40.9z"/>
	<path class="st1" d="M208.2,54c0,0,0,0-0.1,0c-0.1,0-0.2-0.1-0.3-0.1c-0.3-0.1-0.6-0.3-0.9-0.5c-0.4-0.2-0.7-0.6-1.1-0.9
		c-0.4-0.4-0.7-0.8-1-1.2c-0.6-0.9-1-1.9-1.1-2.8c-0.1-0.4-0.1-0.8-0.1-1.1c0-0.1,0-0.3,0-0.3c0-0.1,0-0.1,0-0.1s0,0,0.1,0
		c0.1,0,0.2,0.1,0.3,0.1c0.3,0.1,0.6,0.3,0.9,0.5c0.7,0.5,1.5,1.3,2.1,2.2c0.3,0.5,0.5,0.9,0.7,1.4c0.2,0.5,0.3,0.9,0.4,1.4
		c0.1,0.4,0.1,0.8,0.1,1.1c0,0.1,0,0.3,0,0.3C208.2,54,208.2,54,208.2,54z"/>
	<path class="st1" d="M206.2,55.3c0,0,0,0-0.1,0c-0.1,0-0.2-0.1-0.3-0.1c-0.3-0.1-0.6-0.3-0.9-0.5c-0.4-0.2-0.7-0.6-1.1-0.9
		c-0.4-0.4-0.7-0.8-1-1.2c-0.6-0.9-1-1.9-1.1-2.8c-0.1-0.4-0.1-0.8-0.1-1.1c0-0.1,0-0.3,0-0.3c0-0.1,0-0.1,0-0.1s0,0,0.1,0
		c0.1,0,0.2,0.1,0.3,0.1c0.3,0.1,0.6,0.3,0.9,0.5c0.7,0.5,1.5,1.3,2.1,2.2c0.3,0.5,0.5,0.9,0.7,1.4c0.2,0.5,0.3,0.9,0.4,1.4
		c0.1,0.4,0.1,0.8,0.1,1.1c0,0.1,0,0.3,0,0.3C206.2,55.3,206.2,55.3,206.2,55.3z"/>
	<path class="st1" d="M204.2,56.6c0,0,0,0-0.1,0c-0.1,0-0.2-0.1-0.3-0.1c-0.3-0.1-0.6-0.3-0.9-0.5c-0.4-0.2-0.7-0.6-1.1-0.9
		c-0.4-0.4-0.7-0.8-1-1.2c-0.6-0.9-1-1.9-1.1-2.8c-0.1-0.4-0.1-0.8-0.1-1.1c0-0.1,0-0.3,0-0.3c0-0.1,0-0.1,0-0.1s0,0,0.1,0
		c0.1,0,0.2,0.1,0.3,0.1c0.3,0.1,0.6,0.3,0.9,0.5c0.7,0.5,1.5,1.3,2.1,2.2c0.3,0.5,0.5,0.9,0.7,1.4c0.2,0.5,0.3,0.9,0.4,1.4
		c0.1,0.4,0.1,0.8,0.1,1.1c0,0.1,0,0.3,0,0.3C204.2,56.6,204.2,56.6,204.2,56.6z"/>
	<path class="st1" d="M197.1,51c0.5,0.5,1,1.1,1.5,1.6c0.5,0.6,1,1.1,1.5,1.7c1,1.1,1.9,2.3,2.8,3.5l0.6,0.8l-1,0.6
		c-2.9,1.8-5.9,3.5-8.9,5.1c-0.8,0.4-1.5,0.8-2.3,1.2c-0.8,0.4-1.5,0.8-2.3,1.2c-1.5,0.8-3.1,1.5-4.7,2.2l-0.8,0.3l-0.4-0.6
		c-0.6-1-1.2-2.1-1.8-3.1c-0.3-0.5-0.6-1.1-0.9-1.6c-0.3-0.5-0.5-1.1-0.8-1.6c0.4,0.4,0.9,0.9,1.3,1.3c0.4,0.4,0.8,0.9,1.2,1.3
		c0.8,0.9,1.6,1.8,2.4,2.7l-1.1-0.3c1.4-0.9,2.9-1.8,4.4-2.7c0.7-0.4,1.5-0.9,2.2-1.3c0.7-0.4,1.5-0.8,2.3-1.3
		c3-1.6,6.1-3.2,9.2-4.6l-0.4,1.5c-0.7-1.3-1.5-2.6-2.2-3.9c-0.3-0.7-0.7-1.3-1-2C197.8,52.4,197.4,51.7,197.1,51z"/>
	<path class="st1" d="M242.5,18c0,0,0,0,0.1,0c0.1,0,0.2,0,0.3,0.1c0.1,0,0.3,0.1,0.5,0.2c0.2,0.1,0.4,0.2,0.6,0.3
		c0.4,0.2,0.8,0.5,1.3,0.9c0.1,0.1,0.2,0.2,0.3,0.3c0.1,0.1,0.2,0.2,0.3,0.3c0.2,0.2,0.4,0.4,0.6,0.7c0.2,0.2,0.4,0.5,0.5,0.7
		c0.1,0.1,0.2,0.3,0.2,0.4c0.1,0.1,0.2,0.3,0.2,0.4c0.3,0.5,0.5,1.1,0.7,1.6c0.1,0.2,0.1,0.5,0.2,0.7c0.1,0.2,0.1,0.4,0.1,0.6
		c0,0.2,0,0.3,0.1,0.4c0,0.1,0,0.1,0,0.1l-0.1,0.1c0,0-0.1-0.1-0.3-0.3c-0.2-0.2-0.4-0.5-0.7-0.8c-0.3-0.4-0.6-0.8-1-1.2
		c-0.4-0.4-0.7-0.9-1.1-1.4c-0.4-0.5-0.7-1-1.1-1.4c-0.3-0.5-0.7-0.9-0.9-1.3c-0.3-0.4-0.5-0.7-0.7-0.9
		C242.5,18.2,242.4,18.1,242.5,18L242.5,18z"/>
	<path class="st1" d="M134.6,107.6c4-20.1-11.6-19.2-11.6-19.2L134.6,107.6z"/>
	<path class="st1" d="M236.1,11c0.9-1,1.9-2,2.9-2.9c1-0.9,2-1.8,3.1-2.7c1.1-0.8,2.2-1.6,3.4-2.4c1.2-0.7,2.4-1.4,3.8-2
		c1.4-0.6,2.8-1,4.5-1.1c0.9,0,1.8,0.1,2.8,0.5c0.5,0.2,0.9,0.5,1.4,0.8c0.2,0.2,0.4,0.3,0.6,0.5l0.1,0.1l0.1,0.1l0,0l0.1,0.1
		l0.2,0.2c0.1,0.1,0.2,0.2,0.3,0.4l0.4,0.5c0.2,0.3,0.4,0.6,0.6,1c0.4,0.7,0.8,1.3,1,2c0.6,1.4,1.1,2.8,1.4,4.2
		c0.3,1.4,0.6,2.8,0.7,4.3c0.1,1.4,0.2,2.8,0.2,4.3c0,1.4-0.1,2.8-0.3,4.2c-0.2,1.4-0.4,2.8-0.7,4.1c-0.3,1.4-0.6,2.7-1,4
		c-0.4,1.3-0.8,2.6-1.3,3.9c-0.5,1.3-1,2.6-1.6,3.8c-0.3,0.6-0.6,1.2-0.9,1.9l-0.9,1.8l-0.9,1.7l-0.8-1.5l-0.7-1.3l-0.7-1.3
		c-0.2-0.4-0.5-0.9-0.7-1.4c-0.2-0.5-0.4-0.9-0.6-1.4c0.4,0.3,0.7,0.7,1.1,1c0.4,0.3,0.7,0.7,1.1,1.1l1.1,1.1l1,1.1l-1.7,0.2
		c0.4-1.3,0.7-2.6,1-3.9c0.3-1.3,0.6-2.6,0.9-3.8c0.1-0.6,0.3-1.3,0.4-1.9c0.1-0.6,0.2-1.3,0.4-1.9c0.1-0.6,0.2-1.3,0.3-1.9
		c0.1-0.6,0.2-1.3,0.2-1.9c0.2-1.3,0.3-2.6,0.3-3.8c0.1-1.3,0.1-2.5,0.1-3.8c0-1.3-0.1-2.5-0.2-3.8c-0.1-1.2-0.3-2.5-0.6-3.7
		c-0.3-1.2-0.6-2.4-1.1-3.5c-0.2-0.6-0.5-1.1-0.7-1.6c-0.1-0.2-0.3-0.5-0.4-0.7l-0.2-0.3c-0.1-0.1-0.2-0.3-0.3-0.4l-0.2-0.3
		c0-0.1-0.1-0.1-0.1-0.2c-0.1-0.1-0.2-0.2-0.3-0.3c-0.3-0.2-0.7-0.3-1.1-0.3c-1-0.1-2.1,0.1-3.3,0.4c-1.2,0.3-2.4,0.7-3.6,1.2
		c-1.2,0.5-2.4,1-3.6,1.6c-1.2,0.6-2.4,1.2-3.6,1.8C238.5,9.7,237.3,10.4,236.1,11z"/>
	<path class="st1" d="M250,16.5c0,0,3.9-8.8,9.4-5.4"/>
	<path class="st1" d="M178.6,65.4c0,0-4.1-0.8-5.9,3.8c0,0-1.5,3.4,1.6,3.4c0,0-0.5,2.3,1.3,2.3c1.8,0,1.6-0.5,1.6-0.5
		s-0.5,2.5,2,3.1c2.5,0.6,2.2-8.6,2.2-8.6"/>
	<path class="st1" d="M247.8,35.3c0,0,0.2,0.5,0.4,1.5c0.2,1,0.5,2.5,0.5,4.5c0.1,2,0,4.3-0.4,7.1c-0.4,2.7-1.2,5.8-2.6,9
		c-1.4,3.1-3.4,6.5-6.3,9.3c-0.3,0.4-0.7,0.7-1.1,1.1c-0.4,0.3-0.8,0.7-1.2,1c-0.4,0.3-0.8,0.7-1.2,1l0,0l-0.2,0.1l-0.1,0.1
		l-0.2,0.1l-0.3,0.2l-0.6,0.4c-0.2,0.1-0.4,0.3-0.6,0.4l-0.7,0.4c-0.5,0.3-1,0.5-1.5,0.8c-1,0.4-1.9,0.9-2.9,1.3
		c-3.9,1.5-8,2.7-12.1,3.9c-4.1,1.1-8.3,2.2-12.5,3.3c-8.4,2.2-16.8,4.2-24.7,5.9c-7.9,1.7-15.3,3.3-21.7,4.6
		c-6.4,1.3-11.6,2.3-15.4,3.1c-3.7,0.7-5.8,1.1-5.8,1.1s2.1-0.4,5.8-1.2c3.7-0.8,9-1.9,15.3-3.4c6.3-1.5,13.7-3.2,21.5-5.3
		c3.9-1,7.9-2.1,12-3.3c4.1-1.2,8.2-2.4,12.3-3.7c4.1-1.3,8.2-2.8,12.1-4.4c3.9-1.6,7.7-3.4,11.1-5.2c0.9-0.4,1.7-0.9,2.5-1.4
		c0.4-0.2,0.7-0.5,1.1-0.7l0.5-0.3c0.2-0.1,0.4-0.3,0.6-0.4c0.4-0.3,0.7-0.5,1-0.8c0.3-0.3,0.6-0.6,1-0.9c0.6-0.6,1.3-1.1,1.9-1.8
		c2.4-2.4,4.2-5.1,5.8-7.7c0.8-1.3,1.4-2.6,2-3.9c0.3-0.6,0.5-1.3,0.8-1.9c0.3-0.6,0.5-1.2,0.7-1.8c0.9-2.4,1.5-4.5,2-6.3
		c0.5-1.8,0.8-3.3,1-4.3c0.1-0.5,0.2-0.9,0.2-1.2C247.8,35.4,247.8,35.3,247.8,35.3z"/>
	<path class="st1" d="M178.2,48.6c-0.2-1.8-0.4-3.6-0.6-5.3c-0.2-1.8-0.4-3.6-0.5-5.3l0.6,0.7c-1.8-0.3-3.5-0.7-5.3-1
		c-1.8-0.3-3.5-0.7-5.3-1l-2.3-0.5l1.8-1.6c1.7-1.5,3.4-3,5.1-4.5l5.2-4.4l5.2-4.4c1.7-1.5,3.5-2.9,5.3-4.3l5.3-4.3
		c0.9-0.7,1.8-1.4,2.7-2.1l0.7-0.6l0.7-0.5c0.4-0.3,1-0.7,1.6-1c0.6-0.3,1.2-0.5,1.7-0.8c0.6-0.2,1.2-0.4,1.8-0.5
		c1.2-0.3,2.5-0.3,3.7-0.3c1.2,0,2.4,0.2,3.6,0.5c1.2,0.3,2.3,0.7,3.4,1.2l0.5,0.2l0.1,0.5c0.1,0.7,0.2,1.4,0.2,2.2
		c0,0.7,0,1.4,0,2.1c0,0.4,0,0.7-0.1,1.1c-0.1,0.4-0.1,0.7-0.2,1c-0.1,0.3-0.1,0.7-0.2,1l-0.3,1c-0.1,0.3-0.3,0.7-0.4,1
		c-0.1,0.3-0.3,0.6-0.5,1c-0.2,0.3-0.3,0.6-0.5,0.9c-0.2,0.3-0.4,0.6-0.6,0.9l-0.7,0.8c-0.2,0.3-0.5,0.5-0.7,0.7l-0.4,0.4l-0.4,0.3
		l-0.8,0.6l0.7-0.8l0.3-0.4l0.3-0.4c0.2-0.3,0.4-0.5,0.6-0.8l0.5-0.9c0.2-0.3,0.3-0.6,0.4-0.9c0.1-0.3,0.3-0.6,0.4-0.9
		c0.1-0.3,0.2-0.6,0.3-0.9c0.1-0.3,0.2-0.6,0.2-0.9l0.2-1c0-0.3,0.1-0.6,0.1-1c0-0.3,0-0.6,0-1c0-0.3,0-0.6,0-1
		c0-0.6-0.1-1.3-0.2-1.9c-0.1-0.6-0.2-1.3-0.4-1.9l0.6,0.7c-1-0.4-2-0.6-3.1-0.8c-1.1-0.2-2.1-0.3-3.2-0.2c-1,0-2.1,0.1-3.1,0.4
		c-0.5,0.1-1,0.3-1.5,0.5c-0.4,0.2-0.9,0.4-1.3,0.7c-0.4,0.3-0.8,0.4-1.3,0.8l-0.7,0.5l-0.6,0.5c-0.9,0.7-1.7,1.5-2.6,2.2l-5.2,4.4
		c-1.7,1.5-3.5,2.9-5.3,4.3l-5.3,4.3l-5.4,4.2c-1.8,1.4-3.6,2.8-5.4,4.2l-0.5-2.1c1.7,0.5,3.5,0.9,5.2,1.4c1.7,0.5,3.4,1,5.2,1.5
		l0.6,0.2l0,0.5c0,1.8,0,3.6-0.1,5.4C178.4,45,178.3,46.8,178.2,48.6z"/>
	<polygon class="st2" points="165.8,47.9 127.1,73.9 164.4,45.9 	"/>
	<polygon class="st2" points="165.9,42.7 136,64.3 164.5,41.1 	"/>
	<polygon class="st2" points="170.2,49 137.1,68.5 169,47.2 	"/>
	<polygon class="st2" points="120.8,103.7 77.6,128.3 119.5,101.5 	"/>
	<polygon class="st2" points="120.6,98.3 86.1,119.5 119.3,96.3 	"/>
	<polygon class="st2" points="125.4,105.5 86.1,125.9 124.2,103.2 	"/>
	<path class="st3" d="M74.4,124.6c-0.4,0-0.7,0-1.1,0H62v9.9L74.4,124.6z"/>
	<g>
		<path class="st4" d="M130.8,123h12c5.7,0,10.2,2.1,13.5,6.4c3.3,4.3,4.9,12.4,4.9,24.2c0,11.4-1.4,19.5-4.3,24.2
			c-2.9,4.7-8.1,7-15.5,7h-10.6V123z M139.1,129.3v49.3c3.5,0,6.2-0.6,8-1.9c1.8-1.3,3.2-3.7,4.1-7.2c0.9-3.5,1.3-8.8,1.3-15.9
			c0-9-0.8-15.3-2.5-18.8c-1.7-3.6-4.9-5.3-9.7-5.3H139.1z"/>
		<path class="st4" d="M172,123h9.8c5.3,0,9.2,1.3,11.8,3.9c2.5,2.6,3.8,6.7,3.8,12.2c0,7.8-3,12.8-9,14.9c6.5,1.3,9.8,6.5,9.8,15.4
			c0,4.9-1.2,8.7-3.5,11.4c-2.4,2.7-5.7,4-10.1,4H172V123z M180.2,129.3v21.5c3.2-0.1,5.5-0.9,6.9-2.5c1.4-1.6,2.2-4.3,2.2-8.1
			c0-4.2-0.6-7-1.9-8.6C186.2,130.1,183.8,129.3,180.2,129.3z M180.2,157v21.6c3.3-0.1,5.7-0.8,7.1-2.2c1.4-1.4,2.1-4.1,2.1-8.1
			c0-4.3-0.7-7.2-2.1-8.8C185.8,157.9,183.5,157.1,180.2,157z"/>
		<path class="st4" d="M230.7,184.9h-22.4V123h22v7h-13.7v19.6h12.7v7h-12.7V178h14.1V184.9z"/>
		<path class="st4" d="M267.7,184.9h-8.7l-9.7-29.1h-0.7v29.1h-8.4V123h11.6c9.4,0,14.1,5.3,14.1,15.8c0,4.8-0.7,8.4-2.1,10.8
			s-3.7,4.3-6.8,5.5L267.7,184.9z M248.6,150.1c3.2-0.1,5.6-0.8,7-2.3c1.4-1.5,2.2-4.2,2.2-8c0-3.7-0.7-6.4-2-8
			c-1.3-1.6-3.6-2.4-6.7-2.4h-0.5V150.1z"/>
		<path class="st4" d="M304.1,184.9h-8.7l-9.7-29.1H285v29.1h-8.4V123h11.6c9.4,0,14.1,5.3,14.1,15.8c0,4.8-0.7,8.4-2.1,10.8
			s-3.7,4.3-6.8,5.5L304.1,184.9z M285,150.1c3.2-0.1,5.6-0.8,7-2.3c1.4-1.5,2.2-4.2,2.2-8c0-3.7-0.7-6.4-2-8
			c-1.3-1.6-3.6-2.4-6.7-2.4H285V150.1z"/>
		<path class="st4" d="M340.5,123l-12,35.5v26.4H320v-26L308.3,123h8.3l7.7,27.9l0.2-0.1l7.8-27.8H340.5z"/>
		<polygon class="st4" points="106.6,178 106.6,156.7 119.3,156.7 119.3,149.7 106.6,149.7 106.6,130 120.3,130 120.3,123 
			104.3,123 98.3,125.4 98.3,184.9 120.7,184.9 120.7,178 		"/>
		<g>
			<path class="st4" d="M85.4,149.7c1.4-2.4,2.1-6,2.1-10.8c0-3.4-0.5-6.2-1.5-8.6l-7.7,3.1c0.7,1.6,1.1,3.7,1.1,6.4
				c0,3.9-0.7,6.6-2.2,8c-1.4,1.5-3.8,2.2-7,2.3v-13.6l-8.4,3.3v45h8.4v-29.1h0.7l9.7,29.1h8.7l-10.6-29.7
				C81.7,153.9,84,152.1,85.4,149.7z"/>
			<path class="st4" d="M77,123.3c-1.1-0.2-2.3-0.3-3.6-0.3H61.8v12.4L77,123.3z"/>
		</g>
	</g>
</g>
<g>
	<g>
		<path class="st1" d="M0,208.7h15.9v1.6h-7v18.5H7v-18.5H0V208.7z"/>
		<path class="st1" d="M15.4,222c0,0.6,0.1,1.3,0.3,2c0.2,0.7,0.5,1.3,0.9,1.8s0.9,1,1.5,1.4c0.6,0.4,1.3,0.5,2.2,0.5
			c1.3,0,2.3-0.3,3-1c0.7-0.7,1.2-1.6,1.5-2.7h1.8c-0.4,1.7-1.1,2.9-2.1,3.8c-1,0.9-2.4,1.4-4.3,1.4c-1.1,0-2.1-0.2-3-0.6
			c-0.8-0.4-1.5-1-2-1.7c-0.5-0.7-0.9-1.5-1.2-2.4c-0.3-0.9-0.4-1.9-0.4-2.9c0-1,0.1-1.9,0.4-2.8s0.6-1.7,1.2-2.5
			c0.5-0.7,1.2-1.3,2-1.7c0.8-0.4,1.8-0.7,3-0.7c1.2,0,2.2,0.2,3,0.7s1.5,1.1,2,1.8c0.5,0.8,0.9,1.6,1.1,2.6c0.2,1,0.3,2,0.3,3H15.4
			z M24.8,220.5c0-0.7-0.1-1.3-0.4-1.9c-0.2-0.6-0.5-1.2-0.9-1.6c-0.4-0.5-0.9-0.9-1.4-1.2s-1.2-0.4-1.9-0.4c-0.7,0-1.4,0.1-1.9,0.4
			s-1,0.7-1.4,1.2c-0.4,0.5-0.7,1-0.9,1.7c-0.2,0.6-0.4,1.3-0.5,1.9H24.8z"/>
		<path class="st1" d="M39.2,218.8c-0.2-1.1-0.7-1.9-1.4-2.6c-0.7-0.6-1.6-0.9-2.8-0.9c-0.8,0-1.6,0.2-2.2,0.5
			c-0.6,0.4-1.2,0.8-1.6,1.4c-0.4,0.6-0.7,1.2-1,2c-0.2,0.7-0.3,1.5-0.3,2.3s0.1,1.5,0.3,2.3s0.5,1.4,1,2c0.4,0.6,1,1.1,1.6,1.4
			c0.6,0.4,1.4,0.5,2.2,0.5c0.5,0,1.1-0.1,1.5-0.3c0.5-0.2,0.9-0.5,1.3-0.9c0.4-0.4,0.7-0.8,0.9-1.3c0.2-0.5,0.4-1.1,0.5-1.7h1.8
			c-0.2,1.8-0.9,3.1-1.9,4.1c-1.1,1-2.4,1.5-4.1,1.5c-1.1,0-2.1-0.2-2.9-0.6c-0.9-0.4-1.6-1-2.2-1.6c-0.6-0.7-1-1.5-1.3-2.4
			c-0.3-0.9-0.5-1.9-0.5-3c0-1.1,0.2-2,0.5-3s0.7-1.7,1.3-2.4c0.6-0.7,1.3-1.2,2.2-1.7s1.8-0.6,2.9-0.6c1.6,0,2.9,0.4,4,1.2
			c1.1,0.8,1.7,2.1,1.9,3.7H39.2z"/>
		<path class="st1" d="M43.5,208.7h1.8v8.1h0.1c0.3-0.9,0.9-1.6,1.8-2.1c0.9-0.5,1.8-0.8,2.8-0.8c1,0,1.9,0.1,2.5,0.4
			s1.2,0.6,1.6,1.1c0.4,0.5,0.7,1.1,0.9,1.8c0.2,0.7,0.3,1.5,0.3,2.3v9.3h-1.8v-9.1c0-0.6-0.1-1.2-0.2-1.7c-0.1-0.5-0.3-1-0.6-1.4
			c-0.3-0.4-0.7-0.7-1.1-0.9c-0.5-0.2-1.1-0.3-1.8-0.3c-0.7,0-1.3,0.1-1.9,0.4c-0.6,0.3-1,0.6-1.4,1s-0.7,1-0.9,1.6s-0.3,1.3-0.4,2
			v8.5h-1.8V208.7z"/>
		<path class="st1" d="M58.7,221.8v-1.6h7v1.6H58.7z"/>
		<path class="st1" d="M69.4,208.7h8.5c0.8,0,1.7,0.1,2.4,0.2c0.8,0.2,1.5,0.4,2.1,0.8c0.6,0.4,1.1,0.9,1.4,1.5
			c0.4,0.6,0.5,1.4,0.5,2.4c0,0.5-0.1,1-0.3,1.5c-0.2,0.5-0.4,0.9-0.7,1.4c-0.3,0.4-0.7,0.7-1.1,1c-0.4,0.3-0.9,0.5-1.4,0.6v0.1
			c1.3,0.2,2.3,0.7,3.1,1.6c0.8,0.9,1.2,2,1.2,3.3c0,0.3,0,0.7-0.1,1.1c-0.1,0.4-0.2,0.8-0.3,1.2c-0.2,0.4-0.4,0.8-0.7,1.3
			c-0.3,0.4-0.7,0.8-1.3,1.1c-0.5,0.3-1.2,0.6-2,0.8c-0.8,0.2-1.7,0.3-2.8,0.3h-8.5V208.7z M71.3,217.5h6.6c0.8,0,1.4-0.1,2-0.3
			s1-0.4,1.4-0.7s0.7-0.7,0.8-1.1c0.2-0.4,0.3-0.9,0.3-1.3c0-2.5-1.5-3.8-4.5-3.8h-6.6V217.5z M71.3,227.1h6.6c0.7,0,1.4-0.1,2-0.2
			s1.2-0.3,1.7-0.7c0.5-0.3,0.9-0.7,1.2-1.3c0.3-0.5,0.4-1.2,0.4-2c0-1.3-0.5-2.3-1.4-2.9c-0.9-0.6-2.2-1-3.9-1h-6.6V227.1z"/>
		<path class="st1" d="M87.7,218.7c0.1-0.8,0.2-1.6,0.5-2.2c0.3-0.6,0.7-1.1,1.2-1.5c0.5-0.4,1.1-0.7,1.8-0.9s1.5-0.3,2.3-0.3
			c0.6,0,1.3,0.1,1.9,0.2s1.2,0.4,1.7,0.7s0.9,0.8,1.2,1.4c0.3,0.6,0.5,1.4,0.5,2.4v7.7c0,0.7,0.3,1.1,1,1.1c0.2,0,0.4,0,0.6-0.1
			v1.5c-0.2,0-0.4,0.1-0.5,0.1c-0.2,0-0.4,0-0.6,0c-0.5,0-0.8-0.1-1.1-0.2s-0.5-0.3-0.6-0.5c-0.2-0.2-0.2-0.5-0.3-0.8
			c0-0.3-0.1-0.7-0.1-1h-0.1c-0.3,0.5-0.6,0.9-1,1.3c-0.3,0.4-0.7,0.7-1.1,0.9c-0.4,0.2-0.9,0.4-1.4,0.6s-1.1,0.2-1.8,0.2
			c-0.7,0-1.3-0.1-1.9-0.2s-1.1-0.4-1.5-0.8c-0.4-0.3-0.8-0.8-1-1.3c-0.3-0.5-0.4-1.2-0.4-1.9c0-1,0.2-1.8,0.7-2.4
			c0.5-0.6,1-1,1.8-1.3s1.6-0.5,2.5-0.6c0.9-0.1,1.9-0.2,2.8-0.4c0.4,0,0.7-0.1,1-0.1c0.3-0.1,0.5-0.2,0.7-0.3s0.3-0.3,0.4-0.6
			c0.1-0.2,0.2-0.6,0.2-1c0-0.6-0.1-1.1-0.3-1.5c-0.2-0.4-0.5-0.7-0.8-0.9c-0.3-0.2-0.8-0.4-1.2-0.5c-0.5-0.1-1-0.1-1.5-0.1
			c-1.1,0-2,0.3-2.8,0.8c-0.7,0.5-1.1,1.4-1.1,2.6H87.7z M97.2,220.8L97.2,220.8c-0.2,0.2-0.4,0.4-0.7,0.5c-0.3,0.1-0.6,0.2-0.8,0.2
			c-0.8,0.1-1.5,0.2-2.3,0.4c-0.8,0.1-1.5,0.3-2.2,0.5s-1.2,0.5-1.6,0.9c-0.4,0.4-0.6,0.9-0.6,1.6c0,0.5,0.1,0.8,0.3,1.2
			c0.2,0.3,0.4,0.6,0.7,0.9c0.3,0.3,0.6,0.4,1,0.6c0.4,0.1,0.8,0.2,1.2,0.2c0.7,0,1.3-0.1,1.9-0.3c0.6-0.2,1.2-0.5,1.6-0.9
			c0.5-0.4,0.8-0.9,1.1-1.4s0.4-1.2,0.4-1.9V220.8z"/>
		<path class="st1" d="M111.2,218.5c0-0.5-0.1-1-0.3-1.4c-0.2-0.4-0.5-0.7-0.8-1c-0.3-0.3-0.7-0.5-1.2-0.6c-0.5-0.1-0.9-0.2-1.4-0.2
			c-0.4,0-0.8,0-1.2,0.1c-0.4,0.1-0.8,0.2-1.1,0.4c-0.3,0.2-0.6,0.5-0.8,0.8c-0.2,0.3-0.3,0.7-0.3,1.2c0,0.4,0.1,0.7,0.3,1
			c0.2,0.3,0.4,0.5,0.7,0.7s0.6,0.3,1,0.5c0.4,0.1,0.7,0.2,1,0.3l2.4,0.5c0.5,0.1,1,0.2,1.5,0.4c0.5,0.2,0.9,0.5,1.3,0.8
			c0.4,0.3,0.7,0.7,0.9,1.2c0.2,0.5,0.4,1,0.4,1.7c0,0.8-0.2,1.5-0.5,2c-0.4,0.6-0.8,1-1.4,1.4c-0.6,0.3-1.2,0.6-1.9,0.7
			c-0.7,0.1-1.4,0.2-2.1,0.2c-1.7,0-3.1-0.4-4.2-1.2s-1.7-2.1-1.8-3.9h1.8c0.1,1.2,0.5,2.1,1.3,2.7c0.8,0.6,1.8,0.9,3,0.9
			c0.4,0,0.9,0,1.3-0.1s0.9-0.3,1.3-0.5c0.4-0.2,0.7-0.5,1-0.9s0.4-0.8,0.4-1.3c0-0.4-0.1-0.8-0.3-1.1s-0.4-0.5-0.7-0.7
			s-0.6-0.4-1-0.5s-0.8-0.2-1.2-0.3l-2.3-0.5c-0.6-0.1-1.1-0.3-1.6-0.5c-0.5-0.2-0.9-0.4-1.3-0.7c-0.4-0.3-0.7-0.6-0.9-1.1
			c-0.2-0.4-0.3-0.9-0.3-1.6c0-0.7,0.2-1.4,0.5-1.9c0.3-0.5,0.8-0.9,1.3-1.3c0.5-0.3,1.1-0.6,1.8-0.7c0.6-0.2,1.3-0.2,1.9-0.2
			c0.7,0,1.4,0.1,2,0.3c0.6,0.2,1.2,0.5,1.7,0.9c0.5,0.4,0.9,0.9,1.1,1.5c0.3,0.6,0.4,1.3,0.5,2.1H111.2z"/>
		<path class="st1" d="M117.1,222c0,0.6,0.1,1.3,0.3,2c0.2,0.7,0.5,1.3,0.9,1.8s0.9,1,1.5,1.4c0.6,0.4,1.3,0.5,2.2,0.5
			c1.3,0,2.3-0.3,3-1c0.7-0.7,1.2-1.6,1.5-2.7h1.8c-0.4,1.7-1.1,2.9-2.1,3.8c-1,0.9-2.4,1.4-4.3,1.4c-1.1,0-2.1-0.2-3-0.6
			c-0.8-0.4-1.5-1-2-1.7c-0.5-0.7-0.9-1.5-1.2-2.4c-0.3-0.9-0.4-1.9-0.4-2.9c0-1,0.1-1.9,0.4-2.8s0.6-1.7,1.2-2.5
			c0.5-0.7,1.2-1.3,2-1.7c0.8-0.4,1.8-0.7,3-0.7c1.2,0,2.2,0.2,3,0.7s1.5,1.1,2,1.8c0.5,0.8,0.9,1.6,1.1,2.6c0.2,1,0.3,2,0.3,3
			H117.1z M126.5,220.5c0-0.7-0.1-1.3-0.4-1.9c-0.2-0.6-0.5-1.2-0.9-1.6s-0.9-0.9-1.4-1.2s-1.2-0.4-1.9-0.4c-0.7,0-1.4,0.1-1.9,0.4
			s-1,0.7-1.4,1.2c-0.4,0.5-0.7,1-0.9,1.7c-0.2,0.6-0.4,1.3-0.5,1.9H126.5z"/>
		<path class="st1" d="M143.4,228.8h-1.6V226h-0.1c-0.2,0.5-0.5,0.9-0.8,1.3c-0.4,0.4-0.8,0.7-1.3,1c-0.5,0.3-1,0.5-1.5,0.6
			c-0.5,0.1-1.1,0.2-1.6,0.2c-1.1,0-2.1-0.2-2.9-0.6c-0.8-0.4-1.5-1-2-1.7c-0.5-0.7-0.9-1.5-1.2-2.4c-0.3-0.9-0.4-1.9-0.4-2.9
			s0.1-2,0.4-2.9c0.3-0.9,0.7-1.7,1.2-2.4c0.5-0.7,1.2-1.3,2-1.7s1.8-0.6,2.9-0.6c0.5,0,1.1,0.1,1.6,0.2s1,0.3,1.4,0.6
			c0.5,0.3,0.8,0.6,1.2,1c0.3,0.4,0.6,0.9,0.8,1.4h0.1v-8.3h1.8V228.8z M131.8,221.5c0,0.8,0.1,1.5,0.3,2.2c0.2,0.7,0.5,1.4,0.8,2
			c0.4,0.6,0.9,1.1,1.5,1.4c0.6,0.4,1.3,0.5,2.2,0.5c0.9,0,1.7-0.2,2.4-0.5c0.6-0.4,1.2-0.8,1.6-1.4c0.4-0.6,0.7-1.2,0.9-2
			c0.2-0.7,0.3-1.5,0.3-2.2c0-0.8-0.1-1.5-0.3-2.2c-0.2-0.7-0.5-1.4-0.9-2c-0.4-0.6-0.9-1.1-1.6-1.4c-0.6-0.4-1.4-0.5-2.4-0.5
			c-0.8,0-1.6,0.2-2.2,0.5c-0.6,0.4-1.1,0.8-1.5,1.4c-0.4,0.6-0.7,1.2-0.8,2S131.8,220.7,131.8,221.5z"/>
		<path class="st1" d="M154.9,208.7h2.8l7,17.6l6.9-17.6h2.8v20.1h-1.9v-17.4h-0.1l-6.9,17.4h-1.8l-6.9-17.4h-0.1v17.4h-1.9V208.7z"
			/>
		<path class="st1" d="M177.9,218.7c0.1-0.8,0.2-1.6,0.5-2.2c0.3-0.6,0.7-1.1,1.2-1.5c0.5-0.4,1.1-0.7,1.8-0.9s1.5-0.3,2.3-0.3
			c0.6,0,1.3,0.1,1.9,0.2s1.2,0.4,1.7,0.7s0.9,0.8,1.2,1.4c0.3,0.6,0.5,1.4,0.5,2.4v7.7c0,0.7,0.3,1.1,1,1.1c0.2,0,0.4,0,0.6-0.1
			v1.5c-0.2,0-0.4,0.1-0.5,0.1c-0.2,0-0.4,0-0.6,0c-0.5,0-0.8-0.1-1.1-0.2s-0.5-0.3-0.6-0.5c-0.2-0.2-0.2-0.5-0.3-0.8
			c0-0.3-0.1-0.7-0.1-1h-0.1c-0.3,0.5-0.6,0.9-1,1.3c-0.3,0.4-0.7,0.7-1.1,0.9c-0.4,0.2-0.9,0.4-1.4,0.6s-1.1,0.2-1.8,0.2
			c-0.7,0-1.3-0.1-1.9-0.2s-1.1-0.4-1.5-0.8c-0.4-0.3-0.8-0.8-1-1.3c-0.3-0.5-0.4-1.2-0.4-1.9c0-1,0.2-1.8,0.7-2.4
			c0.5-0.6,1-1,1.8-1.3s1.6-0.5,2.5-0.6c0.9-0.1,1.9-0.2,2.8-0.4c0.4,0,0.7-0.1,1-0.1c0.3-0.1,0.5-0.2,0.7-0.3s0.3-0.3,0.4-0.6
			c0.1-0.2,0.2-0.6,0.2-1c0-0.6-0.1-1.1-0.3-1.5c-0.2-0.4-0.5-0.7-0.8-0.9c-0.3-0.2-0.8-0.4-1.2-0.5c-0.5-0.1-1-0.1-1.5-0.1
			c-1.1,0-2,0.3-2.8,0.8c-0.7,0.5-1.1,1.4-1.1,2.6H177.9z M187.3,220.8L187.3,220.8c-0.2,0.2-0.4,0.4-0.7,0.5
			c-0.3,0.1-0.6,0.2-0.8,0.2c-0.8,0.1-1.5,0.2-2.3,0.4c-0.8,0.1-1.5,0.3-2.2,0.5s-1.2,0.5-1.6,0.9c-0.4,0.4-0.6,0.9-0.6,1.6
			c0,0.5,0.1,0.8,0.3,1.2c0.2,0.3,0.4,0.6,0.7,0.9c0.3,0.3,0.6,0.4,1,0.6c0.4,0.1,0.8,0.2,1.2,0.2c0.7,0,1.3-0.1,1.9-0.3
			c0.6-0.2,1.2-0.5,1.6-0.9c0.5-0.4,0.8-0.9,1.1-1.4s0.4-1.2,0.4-1.9V220.8z"/>
		<path class="st1" d="M192.7,214.2h1.6v3.4h0.1c0.5-1.2,1.1-2.1,2.1-2.7s2.1-0.9,3.4-0.9v1.8c-0.8,0-1.5,0.1-2.2,0.3
			c-0.7,0.3-1.2,0.6-1.7,1.1c-0.5,0.5-0.8,1-1.1,1.7c-0.3,0.6-0.4,1.4-0.4,2.1v7.7h-1.8V214.2z"/>
		<path class="st1" d="M201.5,208.7h1.8v12.6l8.1-7h2.4l-6.2,5.4l6.6,9.1h-2.2l-5.7-7.9l-2.9,2.4v5.5h-1.8V208.7z"/>
		<path class="st1" d="M216.7,222c0,0.6,0.1,1.3,0.3,2c0.2,0.7,0.5,1.3,0.9,1.8c0.4,0.5,0.9,1,1.5,1.4c0.6,0.4,1.3,0.5,2.2,0.5
			c1.3,0,2.3-0.3,3-1c0.7-0.7,1.2-1.6,1.5-2.7h1.8c-0.4,1.7-1.1,2.9-2.1,3.8c-1,0.9-2.4,1.4-4.3,1.4c-1.1,0-2.1-0.2-3-0.6
			c-0.8-0.4-1.5-1-2-1.7c-0.5-0.7-0.9-1.5-1.2-2.4c-0.3-0.9-0.4-1.9-0.4-2.9c0-1,0.1-1.9,0.4-2.8c0.3-0.9,0.6-1.7,1.2-2.5
			s1.2-1.3,2-1.7c0.8-0.4,1.8-0.7,3-0.7c1.2,0,2.2,0.2,3,0.7s1.5,1.1,2,1.8c0.5,0.8,0.9,1.6,1.1,2.6c0.2,1,0.3,2,0.3,3H216.7z
			 M226.1,220.5c0-0.7-0.1-1.3-0.4-1.9c-0.2-0.6-0.5-1.2-0.9-1.6c-0.4-0.5-0.9-0.9-1.4-1.2c-0.6-0.3-1.2-0.4-1.9-0.4
			c-0.7,0-1.4,0.1-1.9,0.4s-1,0.7-1.4,1.2c-0.4,0.5-0.7,1-0.9,1.7c-0.2,0.6-0.4,1.3-0.5,1.9H226.1z"/>
		<path class="st1" d="M233,214.2h3v1.5h-3v9.8c0,0.6,0.1,1,0.2,1.4c0.2,0.3,0.6,0.5,1.2,0.5c0.5,0,1,0,1.5-0.1v1.5
			c-0.3,0-0.5,0-0.8,0c-0.3,0-0.5,0-0.8,0c-1.2,0-2-0.2-2.5-0.7c-0.5-0.5-0.7-1.3-0.7-2.5v-9.9h-2.5v-1.5h2.5v-4.4h1.8V214.2z"/>
		<path class="st1" d="M238.6,208.7h1.8v2.8h-1.8V208.7z M238.6,214.2h1.8v14.5h-1.8V214.2z"/>
		<path class="st1" d="M243.7,214.2h1.8v2.5h0.1c0.3-0.9,0.9-1.6,1.8-2.1c0.9-0.5,1.8-0.8,2.8-0.8c1,0,1.9,0.1,2.5,0.4
			c0.7,0.3,1.2,0.6,1.6,1.1c0.4,0.5,0.7,1.1,0.9,1.8c0.2,0.7,0.3,1.5,0.3,2.3v9.3h-1.8v-9.1c0-0.6-0.1-1.2-0.2-1.7
			c-0.1-0.5-0.3-1-0.6-1.4c-0.3-0.4-0.7-0.7-1.1-0.9s-1.1-0.3-1.8-0.3c-0.7,0-1.3,0.1-1.9,0.4s-1,0.6-1.4,1s-0.7,1-0.9,1.6
			s-0.3,1.3-0.4,2v8.5h-1.8V214.2z"/>
		<path class="st1" d="M271.2,227.6c0,1.1-0.1,2-0.4,2.9c-0.2,0.9-0.6,1.6-1.1,2.2s-1.2,1.1-2,1.4c-0.8,0.3-1.8,0.5-3,0.5
			c-0.7,0-1.4-0.1-2.1-0.3s-1.3-0.4-1.9-0.8c-0.6-0.4-1-0.8-1.4-1.4c-0.4-0.6-0.6-1.2-0.6-2h1.8c0.1,0.5,0.3,1,0.5,1.4
			c0.3,0.4,0.6,0.7,1,0.9c0.4,0.2,0.8,0.4,1.3,0.5c0.5,0.1,0.9,0.2,1.4,0.2c1.7,0,2.8-0.5,3.6-1.4c0.7-0.9,1.1-2.3,1.1-4.1v-2h-0.1
			c-0.4,0.9-1,1.6-1.8,2.2c-0.8,0.5-1.7,0.8-2.8,0.8c-1.2,0-2.2-0.2-3-0.6c-0.8-0.4-1.5-0.9-2-1.6c-0.5-0.7-0.9-1.5-1.2-2.4
			c-0.2-0.9-0.4-1.9-0.4-2.9c0-1,0.1-1.9,0.4-2.8c0.3-0.9,0.7-1.7,1.3-2.3c0.6-0.7,1.2-1.2,2.1-1.6s1.8-0.6,2.8-0.6
			c0.5,0,1.1,0.1,1.5,0.2c0.5,0.1,0.9,0.4,1.3,0.6c0.4,0.3,0.7,0.6,1.1,0.9c0.3,0.4,0.5,0.7,0.7,1.1h0.1v-2.5h1.8V227.6z
			 M264.7,227.1c0.8,0,1.4-0.2,2-0.5c0.6-0.3,1.1-0.8,1.5-1.3c0.4-0.5,0.7-1.1,0.9-1.8c0.2-0.7,0.3-1.4,0.3-2.1
			c0-0.7-0.1-1.4-0.3-2.1s-0.4-1.4-0.8-1.9c-0.4-0.6-0.9-1.1-1.5-1.4c-0.6-0.4-1.3-0.5-2.2-0.5s-1.6,0.2-2.2,0.5s-1.1,0.8-1.5,1.4
			c-0.4,0.6-0.7,1.2-0.9,1.9c-0.2,0.7-0.3,1.5-0.3,2.2c0,0.7,0.1,1.4,0.3,2.1c0.2,0.7,0.5,1.3,0.9,1.8c0.4,0.5,0.9,1,1.5,1.3
			C263.2,226.9,263.9,227.1,264.7,227.1z"/>
		<path class="st1" d="M283.6,222.1c0,1,0.1,1.9,0.5,2.6s0.8,1.2,1.4,1.7c0.6,0.4,1.3,0.7,2.1,0.9c0.8,0.2,1.7,0.3,2.6,0.3
			c0.5,0,1.1-0.1,1.7-0.2c0.6-0.2,1.2-0.4,1.7-0.7c0.5-0.3,1-0.8,1.3-1.3s0.5-1.1,0.5-1.9c0-0.6-0.1-1.1-0.4-1.5
			c-0.3-0.4-0.6-0.8-1-1c-0.4-0.3-0.8-0.5-1.3-0.7c-0.5-0.2-1-0.3-1.4-0.4l-4.5-1.1c-0.6-0.1-1.1-0.3-1.7-0.6s-1-0.5-1.5-0.9
			c-0.4-0.4-0.7-0.8-1-1.4c-0.3-0.5-0.4-1.2-0.4-2c0-0.5,0.1-1.1,0.3-1.7c0.2-0.7,0.5-1.3,1.1-1.9c0.5-0.6,1.2-1.1,2.1-1.5
			c0.9-0.4,2.1-0.6,3.5-0.6c1,0,1.9,0.1,2.8,0.4c0.9,0.3,1.7,0.7,2.4,1.2c0.7,0.5,1.2,1.2,1.6,2c0.4,0.8,0.6,1.7,0.6,2.7h-1.9
			c0-0.8-0.2-1.4-0.5-2c-0.3-0.6-0.7-1.1-1.2-1.4s-1.1-0.7-1.7-0.9s-1.3-0.3-2-0.3c-0.7,0-1.3,0.1-1.9,0.2c-0.6,0.1-1.1,0.4-1.6,0.7
			s-0.8,0.7-1.1,1.2c-0.3,0.5-0.4,1.1-0.4,1.9c0,0.5,0.1,0.9,0.2,1.2c0.2,0.3,0.4,0.6,0.7,0.9c0.3,0.2,0.6,0.4,1,0.6
			c0.4,0.1,0.8,0.3,1.2,0.4l4.9,1.2c0.7,0.2,1.4,0.4,2,0.7c0.6,0.3,1.2,0.6,1.7,1c0.5,0.4,0.9,0.9,1.1,1.5c0.3,0.6,0.4,1.3,0.4,2.1
			c0,0.2,0,0.5-0.1,0.9s-0.2,0.8-0.3,1.2c-0.2,0.4-0.4,0.8-0.8,1.3c-0.3,0.4-0.8,0.8-1.4,1.2c-0.6,0.3-1.3,0.6-2.1,0.8
			s-1.9,0.3-3,0.3s-2.3-0.1-3.3-0.4c-1-0.3-1.9-0.7-2.6-1.3c-0.7-0.6-1.3-1.3-1.6-2.2c-0.4-0.9-0.5-1.9-0.5-3.2H283.6z"/>
		<path class="st1" d="M306.2,213.8c1.1,0,2.1,0.2,2.9,0.6c0.9,0.4,1.6,1,2.2,1.7c0.6,0.7,1,1.5,1.3,2.4c0.3,0.9,0.5,1.9,0.5,3
			c0,1.1-0.1,2-0.5,3c-0.3,0.9-0.7,1.7-1.3,2.4c-0.6,0.7-1.3,1.2-2.2,1.6c-0.9,0.4-1.8,0.6-2.9,0.6s-2.1-0.2-2.9-0.6
			c-0.9-0.4-1.6-1-2.2-1.6c-0.6-0.7-1-1.5-1.3-2.4c-0.3-0.9-0.5-1.9-0.5-3c0-1.1,0.2-2,0.5-3c0.3-0.9,0.7-1.7,1.3-2.4
			c0.6-0.7,1.3-1.2,2.2-1.7C304.1,214,305.1,213.8,306.2,213.8z M306.2,215.3c-0.8,0-1.6,0.2-2.2,0.5c-0.6,0.4-1.2,0.8-1.6,1.4
			c-0.4,0.6-0.7,1.2-1,2c-0.2,0.7-0.3,1.5-0.3,2.3s0.1,1.5,0.3,2.3s0.5,1.4,1,2c0.4,0.6,1,1.1,1.6,1.4c0.6,0.4,1.4,0.5,2.2,0.5
			s1.6-0.2,2.2-0.5c0.6-0.4,1.2-0.8,1.6-1.4c0.4-0.6,0.7-1.2,1-2s0.3-1.5,0.3-2.3s-0.1-1.5-0.3-2.3c-0.2-0.7-0.5-1.4-1-2
			c-0.4-0.6-1-1.1-1.6-1.4C307.8,215.5,307.1,215.3,306.2,215.3z"/>
		<path class="st1" d="M315.8,208.7h1.8v20.1h-1.8V208.7z"/>
		<path class="st1" d="M332.7,228.8h-1.6v-2.6H331c-0.5,1-1.1,1.7-2,2.2s-1.9,0.8-3,0.8c-0.9,0-1.7-0.1-2.4-0.4s-1.2-0.6-1.6-1.1
			s-0.7-1-0.9-1.7s-0.3-1.4-0.3-2.3v-9.4h1.8v9.5c0,1.3,0.3,2.3,0.9,3c0.6,0.7,1.6,1,3,1c0.8,0,1.4-0.2,2-0.5c0.5-0.3,1-0.8,1.4-1.3
			s0.6-1.2,0.8-1.9s0.3-1.4,0.3-2.2v-7.6h1.8V228.8z"/>
		<path class="st1" d="M338.9,214.2h3v1.5h-3v9.8c0,0.6,0.1,1,0.2,1.4c0.2,0.3,0.6,0.5,1.2,0.5c0.5,0,1,0,1.5-0.1v1.5
			c-0.3,0-0.5,0-0.8,0c-0.3,0-0.5,0-0.8,0c-1.2,0-2-0.2-2.5-0.7c-0.5-0.5-0.7-1.3-0.7-2.5v-9.9h-2.5v-1.5h2.5v-4.4h1.8V214.2z"/>
		<path class="st1" d="M344.4,208.7h1.8v2.8h-1.8V208.7z M344.4,214.2h1.8v14.5h-1.8V214.2z"/>
		<path class="st1" d="M355.8,213.8c1.1,0,2.1,0.2,2.9,0.6c0.9,0.4,1.6,1,2.2,1.7c0.6,0.7,1,1.5,1.3,2.4c0.3,0.9,0.5,1.9,0.5,3
			c0,1.1-0.1,2-0.5,3c-0.3,0.9-0.7,1.7-1.3,2.4c-0.6,0.7-1.3,1.2-2.2,1.6c-0.9,0.4-1.8,0.6-2.9,0.6s-2.1-0.2-2.9-0.6
			c-0.9-0.4-1.6-1-2.2-1.6c-0.6-0.7-1-1.5-1.3-2.4c-0.3-0.9-0.5-1.9-0.5-3c0-1.1,0.2-2,0.5-3c0.3-0.9,0.7-1.7,1.3-2.4
			c0.6-0.7,1.3-1.2,2.2-1.7C353.7,214,354.6,213.8,355.8,213.8z M355.8,215.3c-0.8,0-1.6,0.2-2.2,0.5c-0.6,0.4-1.2,0.8-1.6,1.4
			c-0.4,0.6-0.7,1.2-1,2c-0.2,0.7-0.3,1.5-0.3,2.3s0.1,1.5,0.3,2.3s0.5,1.4,1,2c0.4,0.6,1,1.1,1.6,1.4c0.6,0.4,1.4,0.5,2.2,0.5
			s1.6-0.2,2.2-0.5c0.6-0.4,1.2-0.8,1.6-1.4c0.4-0.6,0.7-1.2,1-2s0.3-1.5,0.3-2.3s-0.1-1.5-0.3-2.3c-0.2-0.7-0.5-1.4-1-2
			c-0.4-0.6-1-1.1-1.6-1.4C357.3,215.5,356.6,215.3,355.8,215.3z"/>
		<path class="st1" d="M365.2,214.2h1.8v2.5h0.1c0.3-0.9,0.9-1.6,1.8-2.1c0.9-0.5,1.8-0.8,2.8-0.8c1,0,1.9,0.1,2.5,0.4
			c0.7,0.3,1.2,0.6,1.6,1.1c0.4,0.5,0.7,1.1,0.9,1.8c0.2,0.7,0.3,1.5,0.3,2.3v9.3h-1.8v-9.1c0-0.6-0.1-1.2-0.2-1.7
			c-0.1-0.5-0.3-1-0.6-1.4c-0.3-0.4-0.7-0.7-1.1-0.9s-1.1-0.3-1.8-0.3c-0.7,0-1.3,0.1-1.9,0.4s-1,0.6-1.4,1s-0.7,1-0.9,1.6
			s-0.3,1.3-0.4,2v8.5h-1.8V214.2z"/>
		<path class="st1" d="M389.1,218.5c0-0.5-0.1-1-0.3-1.4c-0.2-0.4-0.5-0.7-0.8-1c-0.3-0.3-0.7-0.5-1.2-0.6s-0.9-0.2-1.4-0.2
			c-0.4,0-0.8,0-1.2,0.1c-0.4,0.1-0.8,0.2-1.1,0.4c-0.3,0.2-0.6,0.5-0.8,0.8c-0.2,0.3-0.3,0.7-0.3,1.2c0,0.4,0.1,0.7,0.3,1
			c0.2,0.3,0.4,0.5,0.7,0.7c0.3,0.2,0.6,0.3,1,0.5c0.4,0.1,0.7,0.2,1,0.3l2.4,0.5c0.5,0.1,1,0.2,1.5,0.4c0.5,0.2,0.9,0.5,1.3,0.8
			c0.4,0.3,0.7,0.7,0.9,1.2s0.4,1,0.4,1.7c0,0.8-0.2,1.5-0.5,2c-0.4,0.6-0.8,1-1.4,1.4s-1.2,0.6-1.9,0.7c-0.7,0.1-1.4,0.2-2.1,0.2
			c-1.7,0-3.1-0.4-4.2-1.2s-1.7-2.1-1.8-3.9h1.8c0.1,1.2,0.5,2.1,1.3,2.7c0.8,0.6,1.8,0.9,3,0.9c0.4,0,0.9,0,1.3-0.1
			s0.9-0.3,1.3-0.5c0.4-0.2,0.7-0.5,1-0.9c0.3-0.3,0.4-0.8,0.4-1.3c0-0.4-0.1-0.8-0.3-1.1c-0.2-0.3-0.4-0.5-0.7-0.7
			c-0.3-0.2-0.6-0.4-1-0.5s-0.8-0.2-1.2-0.3l-2.3-0.5c-0.6-0.1-1.1-0.3-1.6-0.5c-0.5-0.2-0.9-0.4-1.3-0.7c-0.4-0.3-0.7-0.6-0.9-1.1
			c-0.2-0.4-0.3-0.9-0.3-1.6c0-0.7,0.2-1.4,0.5-1.9c0.3-0.5,0.8-0.9,1.3-1.3c0.5-0.3,1.1-0.6,1.8-0.7c0.6-0.2,1.3-0.2,1.9-0.2
			c0.7,0,1.4,0.1,2,0.3c0.6,0.2,1.2,0.5,1.7,0.9c0.5,0.4,0.9,0.9,1.1,1.5c0.3,0.6,0.4,1.3,0.5,2.1H389.1z"/>
	</g>
</g>
<g>
</g>
<g>
</g>
<g>
</g>
<g>
</g>
<g>
</g>
<g>
</g>
</svg>
