<?xml version="1.0" encoding="utf-8"?>
<!-- Generator: Adobe Illustrator 19.0.0, SVG Export Plug-In . SVG Version: 6.00 Build 0)  -->
<svg version="1.1" id="Layer_1" xmlns="http://www.w3.org/2000/svg" xmlns:xlink="http://www.w3.org/1999/xlink" x="0px" y="0px"
	 viewBox="-194.9 364.5 219.7 64.6" style="enable-background:new -194.9 364.5 219.7 64.6;" xml:space="preserve">
<style type="text/css">
	.st0{fill:#3F3F3F;}
</style>
<g>
	<path class="st0" d="M-158.3,389.5h-11.2c-0.5,0-0.9-0.5-0.8-1l1.5-8.4c0.1-0.4,0.4-0.7,0.8-0.7h17.3c3.8,0,7-2.7,7.7-6.4l1.3-7.3
		c0.1-0.5-0.3-1-0.8-1h-32c-5.3,0-9.8,3.8-10.7,9l-3.3,18.4c-1.1,6.3,3.7,12.1,10.1,12.1h11.3c0.5,0,0.9,0.5,0.8,1l-1.5,8.4
		c-0.1,0.4-0.4,0.7-0.8,0.7h-17.3c-3.8,0-7,2.7-7.7,6.4l-1.3,7.4c-0.1,0.5,0.3,1,0.8,1h32c5.3,0,9.8-3.8,10.7-9l3.3-18.5
		C-147,395.3-151.9,389.5-158.3,389.5z"/>
	<path class="st0" d="M-50.4,428.3l4.1-23.5c0.1-0.4,0.4-0.7,0.8-0.7h15.8c0.4,0,0.7-0.3,0.8-0.7l2.3-13.1c0.1-0.5-0.3-1-0.8-1
		h-15.3c-0.5,0-0.9-0.5-0.8-1l1.5-8.4c0.1-0.4,0.4-0.7,0.8-0.7h28.4c0.5,0,0.9,0.5,0.8,1l-8.4,47.7c-0.1,0.5,0.3,1,0.8,1h15.9
		c0.4,0,0.7-0.3,0.8-0.7l8.5-48.3c0.1-0.4,0.4-0.7,0.8-0.7h9.4c3.8,0,7-2.7,7.7-6.4l1.3-7.3c0.1-0.5-0.3-1-0.8-1h-80.2
		c-0.4,0-0.7,0.3-0.8,0.7l-10.9,62.9c-0.1,0.5,0.3,1,0.8,1h15.9C-50.8,429-50.4,428.7-50.4,428.3z"/>
	<path class="st0" d="M-81.8,365.3l-11.1,62.8c-0.1,0.5,0.3,1,0.8,1h15.9c0.4,0,0.7-0.3,0.8-0.7l11.1-62.7c0.1-0.5-0.3-1-0.8-1H-81
		C-81.4,364.7-81.7,364.9-81.8,365.3z"/>
	<path class="st0" d="M-106.5,365.3l-4.1,23.5c-0.1,0.4-0.4,0.7-0.8,0.7h-10c-0.5,0-0.9-0.5-0.8-1l4-22.9c0.1-0.5-0.3-1-0.8-1h-15.9
		c-0.4,0-0.7,0.3-0.8,0.7l-11.1,62.7c-0.1,0.5,0.3,1,0.8,1h15.9c0.4,0,0.7-0.3,0.8-0.7l4.1-23.5c0.1-0.4,0.4-0.7,0.8-0.7h10
		c0.5,0,0.9,0.5,0.8,1l-4,22.9c-0.1,0.5,0.3,1,0.8,1h15.9c0.4,0,0.7-0.3,0.8-0.7l11.2-62.7c0.1-0.5-0.3-1-0.8-1h-16
		C-106.1,364.7-106.4,364.9-106.5,365.3z"/>
</g>
</svg>
