<?xml version="1.0" encoding="utf-8"?>
<!-- Generator: Adobe Illustrator 19.0.0, SVG Export Plug-In . SVG Version: 6.00 Build 0)  -->
<svg version="1.1" id="Layer_1" xmlns="http://www.w3.org/2000/svg" xmlns:xlink="http://www.w3.org/1999/xlink" x="0px" y="0px"
	 viewBox="-147.7919922 546.9561157 343.0350952 55.4208984"
	 style="enable-background:new -147.7919922 546.9561157 343.0350952 55.4208984;" xml:space="preserve">
<style type="text/css">
	.st0{fill:#4C5A6B;}
	.st1{fill:#0A83B7;}
</style>
<g>
	<g>
		<path class="st0" d="M-39.0732956,565.3394165c-0.2451019-3.0761719-1.3182983-5.2744141-6.0057983-5.2744141
			c-5.2256012,0-6.2509995,2.3934937-6.2509995,6.1547852c0,5.2246094,4.5371017,5.1752319,9.2723999,5.6650391
			c4.3495941,0.4375,8.8398972,2.5888672,8.8398972,10.449707c0,8.1098633-3.0781021,11.5741577-10.8359985,11.5741577h-0.9316025
			c-7.719696,0-11.2304993-3.7606812-11.5692978-10.1576538h5.0262985c0.2452011,3.1723633,1.6573029,5.6156616,6.4961014,5.6156616
			h0.9228973c5.0830002,0,6.1094055-2.3916016,6.1094055-6.7875977c0-6.1522827-4.0577011-6.2508545-8.7461014-6.6416016
			c-4.3955002-0.3413086-9.4228973-2.4901733-9.4228973-9.668396c0-6.9854126,3.1718979-10.5977173,11.0898972-10.5977173
			c7.464798,0,10.4959946,3.4668579,10.8348999,9.6680298H-39.0732956z"/>
		<path class="st0" d="M-28.5761948,583.3085938v-8.152771c0-7.5689087,4.1044998-10.3530273,10.6942978-10.3530273
			c6.5986938,0,10.694397,2.7841187,10.694397,10.3530273v8.152771c0,7.7666016-3.1259918,10.8920898-10.694397,10.8920898
			C-25.5917969,594.2006836-28.5761948,591.0751953-28.5761948,583.3085938z M-11.8291016,583.3085938v-8.152771
			c0-5.1777344-2.1933899-6.2012329-6.0527954-6.2012329c-3.8602982,0-6.0536957,1.0234985-6.0536957,6.2012329v8.152771
			c0,5.1777954,1.9013977,6.8394165,6.0536957,6.8394165C-13.5800934,590.1480103-11.8291016,588.4863892-11.8291016,583.3085938z"
			/>
		<path class="st0" d="M18.8417969,584.0430298c-0.0937958,7.5219727-3.0214996,10.1576538-10.449295,10.1576538
			c-7.4178925,0-10.6943054-3.1254883-10.6943054-10.8920898v-8.1029663c0-7.5712891,4.1045074-10.402832,10.6943054-10.402832
			c6.3545074,0,10.1582031,2.2474976,10.449295,9.5717163l-4.3955994,0.0498047
			c-0.1884003-4.493103-2.344696-5.3237305-6.0536957-5.3237305c-3.907196,0-6.0536957,0.9273071-6.0536957,6.1050415v8.1029663
			c0,5.1777954,2.0995941,6.4488525,6.0536957,6.4488525s5.9589996-0.8287354,6.0536957-5.7144165H18.8417969z"/>
		<path class="st0" d="M29.7342987,558.6011353c0,3.4667969-5.6102905,3.711853-5.6102905,0
			C24.1240082,555.0357056,29.7342987,554.8901978,29.7342987,558.6011353z M24.5566101,593.7115479v-28.3721313h4.6405945
			v28.3721313H24.5566101z"/>
		<path class="st0" d="M55.2841034,593.7115479H51.085907l-0.3955078-3.8555298
			c-1.0263977,2.0996094-3.8134918,4.1000977-7.2773895,4.1000977c-6.5429077,0-8.1523132-3.4644165-8.4912109-6.8344727
			c-0.4901886-5.0322266,2.9278107-8.6445312,8.7832031-9.475647c2.25-0.3413086,4.6407013-0.390564,6.8907013-0.4375v-2.7841797
			c0-3.2246094-1.1298981-5.3237305-5.4219055-5.3237305c-2.6835938,0-4.5478973,0.9273071-4.4911957,4.784729h-4.5469055
			c-0.1972961-6.3477173,3.1260071-9.0332031,9.1787109-9.0332031c6.2509918,0,9.969696,2.6362305,9.969696,9.5722046V593.7115479z
			 M44.1005096,581.5527954c-3.1728058,0.6826172-4.8388062,2.1982422-4.4912109,4.9848022
			c0.1885071,2.2408447,2.1934052,2.9746094,4.2929993,2.9746094c5.1309052,0,6.6464996-3.7557983,6.7881012-8.4442749
			C49.3720093,581.0679321,46.5380096,581.0161133,44.1005096,581.5527954z"/>
		<path class="st0" d="M61.7705078,556.012207h4.5467987v30.2290039c0,2.296875,0.8759918,2.8804321,2.9277954,2.8804321v4.5899048
			c-5.5635071,0-7.4745941-1.4122314-7.4745941-7.4185181V556.012207z"/>
		<path class="st0" d="M111.0439148,593.7115479v-18.1153564c0-6.0087891-1.1201172-8.352478-6.3926086-8.352478
			c-4.3964996,0-6.4482117,2.0029297-6.4482117,7.180603v19.2872314h-2.3915863V556.012207h2.4385071v11.7705078
			c1.223587-2.1489258,4.1991882-2.9799194,6.4012909-2.9799194c6.3457031,0,8.8310852,2.8807983,8.8310852,10.8427124v18.06604
			H111.0439148z"/>
		<path class="st0" d="M134.6825867,593.7115479l-0.046875-3.8081055c-1.9492188,3.1771851-4.585022,4.0526733-8.397522,4.0526733
			c-4.688385,0-7.9647827-2.1464844-7.9647827-7.5689087c0-7.0795898,6.1102905-8.5458984,16.1171875-7.7645874v-4.1021118
			c0.0469055-5.0786133-1.7041016-7.227478-6.2041016-7.227478c-4.0478821,0-6.194397,1.2709961-6.194397,6.6908569h-2.343689
			c0-6.0057983,2.3905945-8.8866577,8.5380859-8.8866577c5.7715149,0,8.547821,2.7348633,8.547821,9.3764648v19.237854H134.6825867z
			 M134.3905945,580.9644165c-9.3291016-0.9224243-13.6690063,0.4896851-13.6690063,5.4697266
			c0,3.6669922,2.0996094,5.2294922,6.3916016,5.2294922c5.4229126,0,7.2774048-4.1044922,7.2774048-7.0322266V580.9644165z"/>
		<path class="st0" d="M144.9345093,564.8994141l0.1503906,3.4194946c1.1767883-2.343811,4.1044922-4.0029907,7.6162109-3.3701172
			v2.2949219c-4.3398132-0.6826172-7.4658203,2.1015015-7.4658203,6.1542969l-0.0556946,20.3135376h-2.438385v-28.8121338
			H144.9345093z"/>
		<path class="st0" d="M172.2450867,593.7115479l-10.2050781-14.2061157h-2.6924133v14.2061157h-2.532196V556.012207h2.4852905
			v20.9512329h2.6827087l9.1405945-12.1606445h2.9287109l-10.0166016,13.4291992l11.2304993,15.4795532H172.2450867z"/>
		<path class="st0" d="M179.3710022,585.7564087c0,3.3182983,1.7138977,5.7612305,6.7402954,5.7612305
			c4.3965149,0,6.5898132-2.1509399,6.5898132-5.8130493c0-5.1776733-4.0947266-5.2767944-8.1054077-5.8134766
			c-3.8027954-0.4891968-7.5683899-1.4140015-7.5683899-7.4697266c0-4.6884766,3.031189-7.6185913,8.8397827-7.6185913
			c6.0527954,0,8.6416016,2.8807983,8.6416016,7.5688477h-2.3905945c-0.094696-3.5161133-1.8544922-5.2739258-6.2041016-5.2739258
			c-4.3866882,0-6.2977905,2.0521851-6.2977905,5.2739258c0,4.9330444,3.4169922,4.9823608,7.0791016,5.4696655
			c4.1512756,0.5859985,8.5477905,1.4663086,8.5477905,7.8115845c0,4.984314-2.8807983,8.2089233-9.1318054,8.2089233
			c-5.5635071,0-9.1787109-2.1981812-9.1787109-8.1054077H179.3710022z"/>
	</g>
	<g>
		<path class="st1" d="M-79.4453888,546.9561157h-62.8066101c-3.0595856,0-5.5399933,2.480896-5.5399933,5.5424805v44.3379517
			c0,3.0594482,2.4804077,5.5404663,5.5399933,5.5404663h7.2920074
			c13.3251953-4.7260742,22.3867035-20.6450195,11.8612976-38.5532227
			c-1.3934937-2.3769531,0.7197037-3.2851562,3.7793045-2.0615845
			c21.8086014,8.7128906,30.1581955,37.2774048,31.0292969,40.6099243c0,0.0048828-0.0048981,0.0048828-0.0048981,0.0048828
			h8.8496017c3.0644989,0,5.5449905-2.4810181,5.5449905-5.5404663v-44.3379517
			C-73.9003983,549.4370117-76.3808899,546.9561157-79.4453888,546.9561157z"/>
	</g>
	<path class="st0" d="M75.2987976,585.7564087c0,3.3182983,1.7138062,5.7612305,6.7402039,5.7612305
		c4.3964996,0,6.5899048-2.1509399,6.5899048-5.8130493c0-5.1776733-4.0948029-5.2767944-8.1054993-5.8134766
		c-3.8027039-0.4891968-7.5684052-1.4140015-7.5684052-7.4697266c0-4.6884766,3.0312958-7.6185913,8.8399048-7.6185913
		c6.0526886,0,8.6416016,2.8807983,8.6416016,7.5688477h-2.3906097c-0.0948029-3.5161133-1.8544922-5.2739258-6.2041016-5.2739258
		c-4.386795,0-6.2978973,2.0521851-6.2978973,5.2739258c0,4.9330444,3.4170074,4.9823608,7.0791016,5.4696655
		c4.1513977,0.5859985,8.5478973,1.4663086,8.5478973,7.8115845c0,4.984314-2.8808899,8.2089233-9.131897,8.2089233
		c-5.5635071,0-9.1786957-2.1981812-9.1786957-8.1054077H75.2987976z"/>
</g>
</svg>
