<?xml version="1.0" encoding="utf-8"?>
<!-- Generator: Adobe Illustrator 19.0.0, SVG Export Plug-In . SVG Version: 6.00 Build 0)  -->
<svg version="1.1" id="Layer_1" xmlns="http://www.w3.org/2000/svg" xmlns:xlink="http://www.w3.org/1999/xlink" x="0px" y="0px"
	 viewBox="0 0 297.7485962 94.2455978" style="enable-background:new 0 0 297.7485962 94.2455978;" xml:space="preserve">
<style type="text/css">
	.st0{fill:#ED1A3B;}
	.st1{fill:#4D595B;}
</style>
<g>
	<path class="st0" d="M81.2001953,15.0424995C73.0424957,6.3408999,62.0165939,1.0972,50.1523933,0.2764L44.9921951,0v59.3731003
		h13.8223v-43.232399c12.6777,4.8924999,21.3325081,17.3173008,21.3325081,31.0576
		c0,18.3524971-14.9307098,33.2837029-33.2832069,33.2837029c-18.3530006,0-33.283699-14.9312057-33.283699-33.2837029
		c0-14.3203011,9.1245003-26.9203987,22.4805012-31.4883003V0.126H0v13.5282993h13.875
		C4.8847957,22.4698009-0.184504,34.4413986-0.184504,47.1982994c0,25.9418983,21.1058998,47.0472984,47.0483017,47.0472984
		s47.0482979-21.1054001,47.0482979-47.0472984C93.9120941,35.2066002,89.3974915,23.7861996,81.2001953,15.0424995z"/>
	<g>
		<path class="st1" d="M122.2817917,41.5894012c-2.5805969,3.1138-3.9151001,6.4057999-3.9151001,9.8319969
			c0,3.8257027,2.8467026,6.8511009,6.4516983,7.8296013c1.6450043,0.3115005,3.0693054,0.4897995,4.1811066,0.4897995
			c3.3804016,0,5.9169922-0.8901978,7.740799-2.625c1.6009979-1.6455002,2.5365906-4.2705002,2.5365906-6.9848976
			c0-0.7119026-0.1342926-1.4682999-0.3564911-2.3579025v0.0449028c-0.3563995-1.1123009-0.9794006-2.1357002-1.9134979-2.8921013
			c-0.4893036-0.3998985-1.0673981-0.7563019-1.6450043-1.0228996c0.710907,0.9785004,1.1557007,2.269001,1.1557007,3.6478996
			c0,2.2245979-1.3789062,3.9151001-3.6923981,5.0269012c-1.023407,0.4897003-2.4028015,0.7567978-3.7368011,0.7567978
			c-2.0018997,0-3.6030045-0.4892006-5.027298-1.5131989c-1.6455002-1.1562004-2.4468002-2.6688995-2.4468002-4.6709023
			c0-1.4237976,0.4452972-2.579998,1.3344955-3.6483994c0.5791016-0.6669998,1.2905045-1.2011986,2.046402-1.5570984
			c-1.8243027-0.8897018-2.9804993-2.7579002-2.9804993-4.9379997c0-2.4019012,1.1123047-4.1817017,3.2480011-5.3828011
			c0.978096-0.5781994,2.4463043-0.8896999,4.0923004-0.8896999c3.1591949,0,5.2940063,1.1562996,6.3618011,3.4252987
			c0.4003906,0.9346008,0.6230927,1.9126015,0.6230927,2.8472023c0,1.2010994-0.5336914,2.625-1.601593,3.6483994
			c3.5147095,0.3110008,5.9174957,2.0019989,7.6078949,5.0269012c0.8448029,1.5570984,1.2891083,3.4701996,1.2891083,5.6498985
			c0,4.8050995-2.2686005,8.2304001-6.7612,10.3652c-2.2696075,1.0684013-5.0274048,1.5581017-8.1860962,1.5581017
			c-4.4487076,0-8.2300034-1.2905006-10.944809-3.4707031c-2.402298-2.0902977-3.7368011-4.8934975-3.7368011-8.1854973
			c0-3.9594994,1.1561966-7.251503,3.6044998-10.0098H122.2817917z M129.0883942,49.8199005
			c2.0019989,0,3.069397-1.2905998,3.069397-2.8916016c0-2.4023972-1.0234985-3.6484985-3.069397-3.6484985
			c-1.7798004,0-3.1138,1.4682999-3.1138,3.4258003C125.9745941,48.5737991,127.3085938,49.8199005,129.0883942,49.8199005z
			 M129.266098,40.4771004c0.8901978,0,1.6455994-0.355999,2.1806946-0.9785004
			c0.6221008-0.7123985,0.8892059-1.5131989,0.8892059-2.4029007c0-1.8680992-1.2906036-3.0692978-3.2036133-3.0692978
			c-1.7792892,0-3.1137924,1.3344994-3.1137924,3.2475967C126.0185928,39.0536995,127.4868927,40.4771004,129.266098,40.4771004z"/>
		<path class="st1" d="M158.585495,31.6240997c-0.0899048,0.7563019-0.0899048,1.3344002-0.0899048,2.1347008
			c0,0.8907013,0.0899048,1.5575981,0.3565063,2.091301c0.3563995,1.0239983,1.9131012,2.4023972,4.5381012,4.0932999
			c2.7577972,1.7792969,4.7596893,3.9149971,5.6952972,6.0058975c0.6660004,1.3789024,0.9775085,3.1585999,0.9775085,5.0273018
			c0,5.0263977-1.8232117,8.6753006-4.8935089,10.8101006c-1.6016083,0.9790001-3.4707031,1.4687004-5.6504059,1.4687004
			c-3.6484985,0-6.5400848-1.3799019-8.4530945-3.9600029c-1.0225067-1.6455002-1.9122009-3.9144974-1.9122009-5.9165001
			c0-1.4681969,0.3554993-3.0252991,1.1562958-4.7162971h4.4042969c-0.8007965,1.6909981-1.2001953,3.2481003-1.2001953,4.6269989
			c0,3.8261986,2.3563995,6.4511986,6.0048981,6.4511986c3.0702972,0,5.1621094-1.8681984,5.7842102-4.9379997
			c0.2225952-1.2905998,0.3553925-2.5365982,0.3553925-3.8261986c0-2.8921013-1.023407-5.25-2.6239929-6.6289024h0.0429993
			c-0.6660004-0.533699-1.5567017-1.1122971-2.7129059-1.8686981c-1.6464996-0.9345016-2.7129059-1.6459999-3.3368988-2.1352005
			c-2.0010071-1.5126991-2.9815063-3.6479988-2.9815063-6.3623009c0-0.7563972,0.0449066-1.5121994,0.1787109-2.357399H158.585495z"
			/>
		<path class="st1" d="M186.1235962,37.4522018h-6.2276001c-1.8242035,0-2.7588043-0.6675034-2.7588043-2.091301v-3.7368011
			h4.3594055v1.8241997c0,0.3105011,0.0448914,0.4887009,0.1786957,0.4887009h8.8085938l-0.3114929,10.7216988
			c4.5381012,1.1123009,7.5186005,4.9389992,7.3856964,8.9873009c0,3.6474991-1.6914062,6.4501991-5.0731964,8.2748985
			c-1.6885071,0.9336014-3.780304,1.3345032-6.3153992,1.3345032c-4.4062958,0-7.6524048-1.5581017-9.5664062-4.7158012
			c-0.8887024-1.4238014-1.3339996-2.9814987-1.3339996-4.8046989c0-1.7354012,0.4902039-3.3369026,1.3789062-4.7607002
			c1.7792969-2.8472023,5.1611023-4.5820999,9.0302887-4.5820999c0.1337128,0,0.2236023-0.0444031,0.4453125,0.0444984V37.4522018z
			 M181.4965973,58.1836014v-0.0449028c1.2460938,1.0684013,2.8916016,1.6021004,4.760788,1.6021004
			c2.9804077,0,4.9842987-0.9346008,6.1396179-2.8471985c0.5331879-0.8456993,0.7567902-1.9131012,0.7567902-3.0254021
			c0-2.402298-0.8457031-4.0928001-2.6259003-5.1161995c-0.933609-0.578598-2.2237091-0.8451996-3.6475067-0.8451996
			c-1.8690948,0-3.6483917,0.4892006-4.9823914,1.3344002c-1.3789062,1.0674019-2.2686005,2.625-2.2686005,4.4048004
			C179.6293945,55.5141983,180.3403931,57.0713005,181.4965973,58.1836014z"/>
		<path class="st1" d="M214.4623871,43.4136009l-0.0428925-6.9849014c0-1.4237976-0.222702-2.1800995-0.7577972-2.1800995
			c-0.0879059,0-0.2657013,0.0892982-0.4883118,0.2671013c-0.1337891,0.1338005-0.222702,0.2670975-0.3564911,0.4447975
			c-0.0438995,0.0444031-0.0888062,0.1338005-0.1327972,0.1781998c-0.0459137,0.0444031-0.0888062,0.1333008-0.1338043,0.1333008
			h0.0449982c-0.3125,0.3554993-0.7129059,0.7564011-1.1132965,1.2012024
			c-1.3789062,1.5565987-3.069397,2.3129997-5.1153107,2.3129997c-1.6463928,0-2.9375-0.4888-3.8710938-1.5122032
			c-0.8457031-0.9340973-1.2910004-2.2690964-1.2910004-3.9151001c0-0.4442978,0.0899048-1.0233994,0.222702-1.7347984h4.3164062
			c-0.1338043,0.7563019-0.222702,1.3344002-0.222702,1.8241997c0,1.2012024,0.4892883,1.8237,1.3339996,1.8237
			c0.4013977,0,0.7128906-0.1333008,1.0683899-0.4453011c0.4453125-0.3998985,1.1123047-1.1117973,1.5127106-1.6459999
			c1.246994-1.5565987,2.5809937-2.4462986,4.0477905-2.4462986c1.6026001,0,2.7588043,0.5781002,3.381897,2.1353016
			c1.3348999-1.4683018,3.0693054-2.1353016,5.5166016-2.1353016c2.2246094,0,4.0028992,0.9335995,5.3828125,2.8472004
			c0.5780945,0.9341011,0.9784851,2.2240982,0.9784851,3.6035004v14.9926987c0,7.3847008-3.1581879,11.0776024-9.6093903,11.0776024
			c-1.8231964,0-3.648407-0.3564034-5.2938995-1.1567001c-3.6923981-1.6909027-5.5166016-4.8941002-5.5166016-9.5650024
			c0-1.0677986,0.1777039-2.2689972,0.5780945-3.6035004h4.4492035c-0.4452972,1.5567017-0.6669922,2.8031998-0.6669922,3.6475029
			c0,3.2030983,1.0673981,5.3387985,3.1581879,6.4061966c1.0234985,0.5347023,2.0010071,0.7569008,3.0243988,0.7569008
			c2.2246094,0,3.7383118-0.8901978,4.7168121-2.6694984c0.5341949-0.9785004,0.7558899-2.2685013,0.7558899-4.0483017V38.1192017
			c0-2.580101-0.8887024-3.8706017-2.7577972-3.8706017c-1.601593,0-2.7577972,1.2015991-2.7577972,2.9365005v6.2285004H214.4623871
			z"/>
		<path class="st1" d="M236.175293,51.3320999h3.7372894c-2.2684937-1.6904984-3.5585785-3.7812996-4.2255859-6.4062996
			c-0.2675018-1.3788986-0.4453125-2.7134018-0.4453125-4.0033989c0-4.8052025,1.4229126-7.8745003,4.2266083-9.2544022
			c1.2001953-0.6220989,2.3573914-0.9335995,3.5137024-0.9335995c1.8672028,0,3.5155945,0.8008003,4.7596893,2.2241001
			c1.3350067-1.3344002,3.160202-2.2241001,5.2051086-2.2241001c2.0917969,0,3.8262177,0.8446999,5.2061005,2.2685986
			c1.4237976-1.5121975,3.2919922-2.2685986,5.8720093-2.2685986c1.3339844,0,2.4902954,0.3115005,3.5585938,0.9785004
			c2.3583984,1.3789005,3.5585938,3.737299,3.5585938,7.0733013c0,0.7567978-0.0878906,1.6019974-0.2666016,2.3583984
			c-0.1318054,0.6674004-0.3994141,1.5570984-0.7998047,2.6693993c-0.3563843,0.8892021-0.7557983,1.7793007-1.1582031,2.535202
			h-4.5361023c1.6006165-2.891201,2.4023132-5.4267998,2.4023132-7.6070023c0-1.2010994-0.3564148-2.3583984-0.8895874-3.2030983
			c-0.6231079-0.7563019-1.5127258-1.2905006-2.7149048-1.2905006c-2.2246094,0-3.5136108,1.6015015-3.5136108,3.8706017v5.560997
			h-3.515686v-5.560997c0-2.580101-1.1113129-3.8706017-3.2910156-3.8706017c-2.2684937,0-3.4257965,1.2905006-3.4257965,3.8706017
			v5.560997h-3.469696v-5.560997c0-2.580101-1.0233917-3.8706017-2.9365082-3.8706017
			c-1.4237976,0-2.4023895,0.7118988-2.9364929,2.1352005c-0.3565063,0.9346008-0.5342102,2.3583984-0.5342102,4.4053001
			c0,2.891098,0.5781097,5.0713005,1.7344055,6.6278992c0.9795074,1.3793983,2.3144073,2.3583984,3.558609,2.9365997
			c1.2030945,0.4887009,2.8475952,0.8451996,4.6728058,1.0677986c2.980484,0.2222023,4.9833832,0.4448013,6.0497894,0.6226006
			c2.1797028,0.4004021,4.3153839,0.9341011,5.8730927,1.6459999c3.1582031,1.5127029,5.3388062,4.4936028,5.6503906,8.7196999
			h-4.3603821c-0.3114929-3.0692978-1.8681946-5.0718002-4.4931946-5.9169998
			c-1.2900085-0.4447975-3.5595093-0.8451996-5.5175171-1.1567001c-2.0898895-0.2665977-4.8486938-0.4447975-8.0078888-0.5331993
			h-0.3993988c-0.1338043,0-0.2666016-0.0453987-0.4004059-0.0453987c-1.1123047-0.0439987-2.0458984-0.0439987-2.8036957-0.0439987
			c-1.5117035,0-3.4687042,0.0893974-4.9375,0.1777992V51.3320999z"/>
		<path class="st1" d="M286.2709961,31.6240997c-0.0898132,0.7563019-0.0898132,1.3344002-0.0898132,2.1347008
			c0,0.8907013,0.0898132,1.5575981,0.3564148,2.091301c0.3564758,1.0239983,1.9130859,2.4023972,4.5380859,4.0932999
			c2.7578125,1.7792969,4.7597961,3.9149971,5.694397,6.0058975c0.6669312,1.3789024,0.9785156,3.1585999,0.9785156,5.0273018
			c0,5.0263977-1.8242188,8.6753006-4.8935852,10.8101006c-1.601532,0.9790001-3.4707336,1.4687004-5.6504211,1.4687004
			c-3.648407,0-6.5400085-1.3799019-8.4520874-3.9600029c-1.0234985-1.6455002-1.9131165-3.9144974-1.9131165-5.9165001
			c0-1.4681969,0.3544922-3.0252991,1.156189-4.7162971h4.4043274c-0.8017273,1.6909981-1.2002258,3.2481003-1.2002258,4.6269989
			c0,3.8261986,2.3565063,6.4511986,6.0049133,6.4511986c3.0703125,0,5.1611938-1.8681984,5.7832031-4.9379997
			c0.2236938-1.2905998,0.3565063-2.5365982,0.3565063-3.8261986c0-2.8921013-1.0234985-5.25-2.625-6.6289024h0.0438843
			c-0.6669922-0.533699-1.5566101-1.1122971-2.7138062-1.8686981c-1.6455994-0.9345016-2.7128906-1.6459999-3.3359985-2.1352005
			c-2.0018921-1.5126991-2.9813843-3.6479988-2.9813843-6.3623009c0-0.7563972,0.0448914-1.5121994,0.1786804-2.357399H286.2709961z
			"/>
	</g>
</g>
</svg>
