<?xml version="1.0" encoding="utf-8"?>
<!-- Generator: Adobe Illustrator 19.0.0, SVG Export Plug-In . SVG Version: 6.00 Build 0)  -->
<svg version="1.1" id="Layer_1" xmlns="http://www.w3.org/2000/svg" xmlns:xlink="http://www.w3.org/1999/xlink" x="0px" y="0px"
	 viewBox="0 0 169.663147 34.3200111" style="enable-background:new 0 0 169.663147 34.3200111;" xml:space="preserve">
<style type="text/css">
	.st0{fill-rule:evenodd;clip-rule:evenodd;fill:#00AEEF;}
	.st1{fill:#00AEEF;}
</style>
<path class="st0" d="M0.7332634,30.7763729l16.6478882-28.791687c1.0380096-1.8005981,1.1741028-1.0159912,0.9335022,0.1451416
	c-0.504303,2.4470825-1.4368896,9.7981567-0.4277954,17.1209717c0.2292938,1.663269,0.4501038,2.7662964-0.8843994,4.1218262
	c-4.6029053,4.6748657-10.7725067,7.7093506-14.9515991,9.2732525C0.827166,33.1051064-1.0499398,33.8651161,0.7332634,30.7763729"
	/>
<path class="st0" d="M36.3585548,34.2990761L3.1016564,34.27808c-2.0783997,0-1.4669954-0.508606-0.3421936-0.8822021
	c2.3731995-0.7857056,9.2041016-3.6538067,15.042099-8.1906719c1.3256989-1.0286865,2.1705017-1.772522,4.0112915-1.2943115
	c6.350708,1.6481323,12.0640125,5.4746094,15.5080128,8.3104229C38.3294563,33.0531654,39.9259529,34.2990761,36.3585548,34.2990761
	"/>
<path class="st0" d="M21.5820637,1.6348929l16.6104908,28.8109741c1.0398102,1.802,0.2931061,1.5262451-0.592392,0.7399292
	c-1.8684082-1.6643066-7.7667103-6.1461182-14.613802-8.9343262c-1.5552979-0.6326904-2.6217041-0.9937744-3.1273956-2.8260498
	c-1.7479095-6.3238535-1.2909088-13.1837158-0.5559082-17.5864258C19.5179615,0.549993,19.7988605-1.4545846,21.5820637,1.6348929"
	/>
<path class="st1" d="M71.4840698,4.3689017c-0.3334045,0-0.602417,0.2675781-0.602417,0.6021118
	c0,0,0.0158997,0.5648804,0.0158997,0.9099121c0,0.7341919,0.5865173,0.9883423,1.0881958,0.9883423
	c0.5028992,0,1.9528198,0.0108032,2.2929993,0.0108032v3.0010371c-0.5870972,0.0291748-1.1616821,0.1680908-1.6994019,0.4522095
	c-0.6130981,0.3267822-1.1142883,0.7774658-1.4924011,1.3283081c-0.3874817,0.5563965-0.5802917,1.1831665-0.5802917,1.8659668
	c0,1.0332031,0.4537964,1.9244995,1.3521118,2.6472788c0.8381958,0.6589966,1.7869873,0.9904175,2.8329773,0.9904175
	c1.0511169,0,2.0028992-0.3338623,2.8295288-0.9904175c0.8838806-0.7094736,1.3359985-1.6006479,1.3359985-2.6472788
	c0-0.8328247-0.2965088-1.5975952-0.8736267-2.296875c-0.5003967-0.5997925-1.1333008-1.0205078-1.8578796-1.2906494V5.5999808
	c0-0.1309814-0.1100159-0.2349854-0.2401123-0.2349854h-3.1578064V4.9710135c0-0.3345337-0.2689819-0.6021118-0.5983887-0.6021118
	H71.4840698z M73.0734558,15.0050097c-0.4838867-0.4229126-0.7206116-0.9067993-0.7206116-1.4747925
	c0-0.8008423,0.401123-1.4083252,1.2235107-1.8496094c0.3786926-0.2092285,0.7568054-0.3140869,1.1097107-0.3140869
	c0.8200989,0,1.4711914,0.3670654,1.9833984,1.1221924c0.2233887,0.331665,0.3330994,0.6798096,0.3330994,1.0415039
	c0,0.7785645-0.4008179,1.3704834-1.2337036,1.8150024c-0.373291,0.1980591-0.7347107,0.2975464-1.0827942,0.2975464
	C74.0919495,15.642766,73.5629578,15.4392748,73.0734558,15.0050097z M52.0800514,5.694097
	c-0.3410034-0.3585815-0.7369995-0.6687012-1.2145996-0.897522c-0.5697937-0.2857056-1.1553955-0.420105-1.7330933-0.420105
	c-0.6647949,0-1.3128052,0.1721191-1.9244995,0.5060425c-0.6142883,0.3347778-1.1199951,0.7877808-1.5028992,1.3339844
	c-0.3843994,0.5648804-0.5862122,1.1911011-0.5862122,1.8601069v5.4509888c0,1.3510132,0.7103271,2.4129028,2.1081238,3.1453257
	c0.6102905,0.3242798,1.2460938,0.4923706,1.9054871,0.4923706c0.6643982,0,1.3062134-0.1680908,1.9131165-0.4923706
	c0.6022949-0.3237305,1.1048889-0.7625132,1.4909973-1.3062143c0.3913879-0.5621338,0.5872803-1.1809082,0.5872803-1.8391113
	V8.0476732c0-0.5810542,0.1151123-1.0711665,0.3424072-1.4640498c0.2651062-0.4612427,0.6329956-0.6860352,1.1247864-0.6860352
	c0.5216064,0,0.9343262,0.2540283,1.269928,0.7758179c0.1340942,0.2114868,0.199585,0.4370728,0.199585,0.671875v6.8493037
	c0,0.4547119-0.0473022,0.8240356-0.1650085,1.2792969c-0.1033936,0.4042358-0.4736023,0.9495859-0.4758911,0.9495859
	c-0.1213074,0.1964111-0.1358032,0.3813477-0.0552979,0.5304565c0.0751038,0.1342773,0.2210999,0.2113647,0.3931885,0.2113647
	h0.6463013c0.2817078,0,0.585907-0.223877,0.7832031-0.4758911c0.1513977-0.1959229,0.3186035-0.4821777,0.4645996-0.9179087
	c0.1556091-0.453186,0.254303-1.0742798,0.254303-1.5769043V7.3452811c0-1.1106567-0.9512939-2.1707764-1.7569885-2.5883789
	c-0.503418-0.2562256-1.0213013-0.3804321-1.5579224-0.3804321C53.5696449,4.3764701,52.7288551,4.8317924,52.0800514,5.694097z
	 M47.6098671,15.0075731c-0.4329224-0.4223633-0.6427002-0.9093628-0.6427002-1.4799805V8.0766039
	c0-0.7653804,0.3685913-1.3762202,1.1287842-1.8555903c0.3410034-0.2167969,0.6795044-0.3234253,1.0364075-0.3234253
	c0.5697021,0,1.0661011,0.2092285,1.4992065,0.6312866c0.4333801,0.4205933,0.6456909,0.9102173,0.6456909,1.4862056v5.5125122
	c0,0.8059082-0.3565979,1.3955078-1.086792,1.817627c-0.3424072,0.1958618-0.6904907,0.2975464-1.0581055,0.2975464
	C48.5401649,15.642766,48.0398598,15.4392748,47.6098671,15.0075731z M60.5950661,6.4160819
	C60.2222633,7.2971244,60.02985,8.640996,60.02985,10.4216967c0,1.1270752,0.1729126,2.7442017,0.2936096,3.4168701
	c0.3362122,1.8436279,0.7325134,2.5849009,0.8706055,2.8216562c0.1807861,0.3157959,0.4647827,0.5050659,0.7568054,0.5050659
	h0.6456909c0.1712036,0,0.3189087-0.0770874,0.4017029-0.2052002c0.0870056-0.1450806,0.0900879-0.3486938,0-0.5012207
	c-0.0924072-0.1552734-0.3694153-0.6479502-0.6032104-1.4512949c-0.3415833-1.175293-0.5158997-2.7166748-0.5158997-4.5858765
	c0-1.3007812,0.1167908-2.3187256,0.34552-3.0324702c0.3316956-1.0023193,0.9804993-1.4916382,1.9850731-1.4916382
	c1.0103149,0,1.6600037,0.4893188,1.992218,1.4940796c0.2154846,0.6628413,0.3282776,1.6804194,0.3282776,3.0300288
	c0,1.7860718-0.1839905,3.303772-0.5533752,4.6292725c-0.2216187,0.7767334-0.4464111,1.2288218-0.5428162,1.4008188
	c-0.0989075,0.1680908-0.0906982,0.3632202-0.0022888,0.5083008c0.0810852,0.1281128,0.2243042,0.2052002,0.3959961,0.2052002
	h0.6496887c0.2929077,0,0.5144958-0.1411133,0.7339172-0.4645996c0.2084045-0.3192139,0.6023865-1.2536631,0.8566895-2.6749887
	c0.1845093-1.0205078,0.3114929-2.4185791,0.3114929-3.6040039c0-1.8366089-0.1796875-3.1541133-0.54599-4.0203853
	c-0.5744934-1.3442383-1.791687-2.0248413-3.619812-2.0248413C62.3905678,4.3764701,61.1727638,5.0617118,60.5950661,6.4160819z
	 M81.5371704,6.4160819c-0.3702087,0.8810425-0.5644226,2.2249141-0.5644226,4.0056148
	c0,1.1270752,0.1721191,2.7442017,0.2937012,3.4168701c0.337616,1.8436279,0.7339172,2.5849009,0.8688049,2.8216562
	c0.1838989,0.3157959,0.468811,0.5050659,0.7576904,0.5050659h0.6480103c0.1729126,0,0.3171997-0.0770874,0.3988037-0.2052002
	c0.085907-0.1450806,0.0903931-0.3486938,0-0.5012207c-0.0910034-0.1552734-0.3662109-0.6479502-0.6008911-1.4512949
	c-0.3424988-1.175293-0.5154114-2.7166748-0.5154114-4.5858765c0-1.3007812,0.1137085-2.3187256,0.3442078-3.0324702
	c0.332489-1.0023193,0.9826965-1.4916382,1.9867859-1.4916382c1.0068054,0,1.6588135,0.4893188,1.9895935,1.4940796
	c0.2171021,0.6628413,0.3274231,1.6804194,0.3274231,3.0300288c0,1.7860718-0.1813965,3.303772-0.5522156,4.6292725
	c-0.2187805,0.7767334-0.4444885,1.2288218-0.5413818,1.4008188c-0.0989075,0.1680908-0.0901184,0.3632202-0.001709,0.5083008
	c0.0765076,0.1281128,0.2247925,0.2052002,0.3963013,0.2052002h0.6480103c0.293396,0,0.5169983-0.1411133,0.7355957-0.4645996
	c0.2082825-0.3192139,0.6028748-1.2536631,0.8548889-2.6749887c0.1859131-1.0205078,0.3132019-2.4185791,0.3132019-3.6040039
	c0-1.8366089-0.1799927-3.1541133-0.5479126-4.0203853c-0.5737-1.3442383-1.7915039-2.0248413-3.6186829-2.0248413
	C83.33255,4.3764701,82.1139526,5.0617118,81.5371704,6.4160819z M101.8241577,6.4160819
	c-0.3742065,0.8810425-0.5635986,2.2249141-0.5635986,4.0056148c0,1.1270752,0.1712036,2.7442017,0.2911987,3.4168701
	c0.3375854,1.8436279,0.7337952,2.5849009,0.8707886,2.8216562c0.1805115,0.3157959,0.4654236,0.5050659,0.7599182,0.5050659
	h0.6437988c0.1697998,0,0.3182983-0.0770874,0.3963013-0.2052002c0.0900879-0.1450806,0.0917969-0.3486938,0.0039062-0.5012207
	c-0.0930176-0.1552734-0.3693237-0.6479502-0.6029053-1.4512949c-0.3387146-1.175293-0.5162048-2.7166748-0.5162048-4.5858765
	c0-1.3007812,0.1167908-2.3187256,0.34729-3.0324702c0.3302002-1.0023193,0.9796143-1.4916382,1.9851074-1.4916382
	c1.0093994,0,1.6582031,0.4893188,1.9930115,1.4940796c0.2145996,0.6628413,0.3273926,1.6804194,0.3273926,3.0300288
	c0,1.7860718-0.1813965,3.303772-0.5563965,4.6292725c-0.2163086,0.7767334-0.4436951,1.2288218-0.5397949,1.4008188
	c-0.1003113,0.1680908-0.0910034,0.3632202-0.0031128,0.5083008c0.0797119,0.1281128,0.2242126,0.2052002,0.3977051,0.2052002
	h0.644104c0.2966919,0,0.5192871-0.1411133,0.7411804-0.4645996c0.2075195-0.3192139,0.6011963-1.2536631,0.8547058-2.6749887
	c0.1791077-1.0205078,0.3092041-2.4185791,0.3092041-3.6040039c0-1.8366089-0.1773987-3.1541133-0.5476074-4.0203853
	c-0.5720825-1.3442383-1.7901001-2.0248413-3.6172791-2.0248413C103.6178589,4.3764701,102.4018555,5.0617118,101.8241577,6.4160819
	z M92.0590515,4.3689017c-0.3321838,0-0.6029053,0.2675781-0.6029053,0.6021118v8.7056885
	c0,1.1010132,0.388916,1.9763184,1.1500244,2.60077c0.7006836,0.5888062,1.6066895,0.8878174,2.6919861,0.8878174
	c1.6362,0,2.7831116-0.5776978,3.40271-1.7131968c0.2928772-0.534668,0.4405823-1.131897,0.4405823-1.7753906
	c0-1.97229-1.2442017-2.5106201-1.3674927-2.8800049c-0.0257874-0.0805054,0.0454102-0.2418213,0.0454102-0.2418213
	c0.0621033-0.1977539,0.0424805-0.3760986-0.0562134-0.5056763c-0.0932007-0.1254883-0.2414856-0.1950073-0.4104004-0.1950073
	h-0.6456909c-0.3084106,0-0.5587158,0.1791992-0.6961975,0.5059814c-0.1907959,0.4552002,0.0033875,1.0093994,0.3443909,1.3734131
	c0.3486023,0.364502,0.9407959,0.8413086,0.9407959,1.9431152c0,0.7183228-0.1550903,1.2296753-0.4541016,1.5153809
	c-0.3027954,0.295105-0.824585,0.4506836-1.5437927,0.4506836c-1.3605957,0-1.9913025-0.6266479-1.9913025-1.9660645V4.9710135
	c0-0.3345337-0.2716064-0.6021118-0.6021118-0.6021118H92.0590515z"/>
<path class="st1" d="M79.958252,27.9395199c0,3.9331055,2.4655151,6.4728985,6.2875061,6.4728985
	c1.2562866,0,2.355896-0.262207,2.9029846-0.4175415c0.3140259-0.0878906,0.485321-0.3710938,0.415802-0.6765747
	l-0.1080017-0.4561157c-0.0379944-0.1604614-0.1317749-0.2888794-0.2596741-0.3684692
	c-0.122406-0.072937-0.2698059-0.0910034-0.4249268-0.045105c0,0-1.2655945,0.3662109-2.1876831,0.3662109
	c-2.9370117,0-4.6931152-1.8422222-4.6931152-4.9323101c0-3.1217041,1.8303223-5.0592041,4.7828979-5.0592041
	c0.8306274,0,1.5914001,0.2139893,2.0429077,0.3338623c0.296814,0.0859375,0.6145935-0.0742798,0.7064209-0.34729
	c0-0.0064697,0.1505737-0.4500732,0.1505737-0.4500732c0.0476074-0.1420288,0.0348206-0.2973022-0.0307007-0.434021
	c-0.068573-0.1334839-0.1838989-0.2352905-0.321991-0.2839966c-0.6069031-0.1895752-1.6766968-0.3988037-2.6025085-0.3988037
	C82.6355591,21.2429867,79.958252,23.9367123,79.958252,27.9395199 M63.8409462,21.5565243
	c-0.3440857,0.0512695-0.5461731,0.2564697-0.5461731,0.56427v11.5314312c0,0.2919922,0.2034912,0.5147705,0.5124817,0.5620728
	c0.2720909,0.0322876,1.3027916,0.1057129,2.1086998,0.1057129c2.0939941,0,3.5282898-0.394043,4.3877869-1.2030029
	c0.7404175-0.6928101,1.1191101-1.5626812,1.1191101-2.5886211c0-1.6364136-1.1593933-2.7523804-2.2818909-3.15979
	c1.1918945-0.5753784,1.8132935-1.5073853,1.8132935-2.781311c0-0.9699707-0.3829956-1.7617798-1.1029968-2.2974854
	c-0.7789001-0.6480103-1.8561096-0.934021-3.4908142-0.934021C65.8195496,21.3557796,64.8756409,21.4096127,63.8409462,21.5565243z
	 M65.1338501,26.6577206v-3.612793c0-0.0637207,0.0606995-0.1363525,0.1248169-0.1499023
	c0,0,0.4458008-0.0638428,1.197876-0.0717163c1.071228-0.0111084,2.6229248,0.3338623,2.6229248,1.9328613
	c0,1.2796021-1.0245056,2.0157471-2.8114014,2.0157471h-1.0214233
	C65.1820679,26.7719173,65.1338501,26.7215023,65.1338501,26.6577206z M65.2492676,32.7901649
	c0,0-0.1154175-0.0181885-0.1154175-0.1204834v-4.3607769c0-0.0615234,0.0482178-0.1099854,0.112793-0.1099854h1.1138
	c1.9596252,0,3.1296997,0.8588867,3.1296997,2.3101807c0,2.0216656-1.9490967,2.3317852-3.1106873,2.3317852L65.2492676,32.7901649z
	 M45.8120461,21.4467831c-0.3122864,0-0.5643005,0.2548218-0.5643005,0.5643311v0.4719849
	c0,0.3079224,0.2520142,0.5618286,0.5643005,0.5618286h3.1400146c0.0598145,0,0.111908,0.0481567,0.111908,0.1096802v10.4931011
	c0,0.3100586,0.254303,0.5617676,0.5652771,0.5617676h0.7268066c0.3135071,0,0.5652161-0.251709,0.5652161-0.5617676V23.1546078
	c0-0.0615234,0.0543823-0.1096802,0.1105042-0.1096802h3.1577759c0.313324,0,0.5650024-0.2539062,0.5650024-0.5618286v-0.4719849
	c0-0.3095093-0.2516785-0.5643311-0.5650024-0.5643311H45.8120461z"/>
<path class="st1" d="M107.4877625,21.5573177c-0.3405151,0.045105-0.5446167,0.2565918-0.5446167,0.5643921V33.653019
	c0,0.2919922,0.2041016,0.5139771,0.5144958,0.5618896c0.2723999,0.0325928,1.2975159,0.1036987,2.1065063,0.1036987
	c2.0933228,0,3.5281982-0.3931885,4.3903198-1.2015991c0.7391968-0.6928101,1.1159973-1.5618877,1.1159973-2.5886211
	c0-1.6369629-1.1605225-2.7521973-2.2810974-3.1588745c1.1973877-0.5769043,1.8138733-1.5075073,1.8138733-2.7814331
	c0-0.9668579-0.3213806-1.6574097-1.1028748-2.2974854c-0.7790222-0.6456909-1.8610229-0.9345093-3.4926147-0.9345093
	C109.4688416,21.3560848,108.5240479,21.4096127,107.4877625,21.5573177 M108.7868652,26.6577206v-3.6119385
	c0-0.0645752,0.0583801-0.137207,0.1221924-0.1507568c0,0,0.2582092-0.0774536,1.1976013-0.0717163
	c1.6117859,0.0047607,2.6211853,0.6535645,2.6211853,1.9331665c0,1.2792969-1.0238953,2.0148926-2.8099976,2.0148926h-1.0252991
	C108.8310547,26.771368,108.7868652,26.7205868,108.7868652,26.6577206z M108.8925476,32.7904701
	c0,0-0.1056824-0.0181885-0.1056824-0.1199951v-4.3615704c0-0.0610352,0.0441895-0.1096802,0.1056824-0.1096802h1.1152039
	c1.9598999,0,3.1314087,0.8585815,3.1314087,2.3110962c0,2.0213604-1.9465027,2.329771-3.1090088,2.329771L108.8925476,32.7904701z
	 M151.046051,21.4467831c-0.3113098,0-0.5651855,0.2548218-0.5651855,0.5649414l0.0038757,9.3744507l-5.7244873-9.6048584
	c-0.1343994-0.2169189-0.3113098-0.3345337-0.5170898-0.3345337h-1.0854187c-0.3117981,0-0.5648804,0.2548218-0.5648804,0.5649414
	v11.6359844c0,0.3092041,0.2530823,0.562561,0.5648804,0.562561h0.6166077c0.3100891,0,0.5657959-0.2533569,0.5657959-0.562561
	c0-0.0057373-0.0054016-9.6041241-0.0054016-9.6041241s5.8612061,9.801939,5.9284058,9.8898296
	c0.0968933,0.1317749,0.2825928,0.2768555,0.4742126,0.2768555h0.9266052c0.3100891,0,0.5657959-0.2533569,0.5657959-0.562561
	V22.0117245c0-0.3101196-0.2557068-0.5649414-0.5657959-0.5649414H151.046051z M167.8081665,21.4467831
	c-0.2653198,0-0.6378174,0.1981201-0.8399048,0.4609375l-4.3506165,5.303894v-5.1998901
	c0-0.3101196-0.2539978-0.5649414-0.5626831-0.5649414h-0.713501c-0.3125916,0-0.5666199,0.2548218-0.5666199,0.5649414v11.6359844
	c0,0.3092041,0.2540283,0.562561,0.5666199,0.562561h0.713501c0.3086853,0,0.5626831-0.2533569,0.5626831-0.562561v-4.1077251
	c0-0.0929565,0.0552063-0.242981,0.1193237-0.3132935c0-0.0031128,0.9155884-1.0457153,0.9155884-1.0457153
	c0.0646057-0.0276489,0.0810852-0.0133057,0.0960999,0.0040283l3.7136841,5.5769024
	c0.1562195,0.2503052,0.4799194,0.4483643,0.7390137,0.4483643h1.0960999c0.1405945,0,0.2533875-0.0614624,0.3084106-0.1663818
	c0.0583801-0.1184692,0.0332031-0.2661133-0.071106-0.4066772c0,0-4.4255066-6.5729961-4.4720154-6.6371441
	c-0.0354004-0.0591431-0.0344849-0.1578979,0.0145264-0.2198486l4.0566711-4.7302246
	c0.1785278-0.2227783,0.1683044-0.3643188,0.1312256-0.4475708c-0.0299988-0.0593262-0.1020203-0.1556396-0.3033142-0.1556396
	H167.8081665z M128.2214661,21.4467831c-0.1600952,0-0.460907,0.0795898-0.6361084,0.5895996l-3.940094,11.5764141
	c-0.047699,0.1491089-0.0325928,0.2888184,0.0464783,0.3994141c0.0924072,0.1223755,0.2511292,0.1980591,0.4294128,0.1980591
	h0.7868958c0.3124084,0,0.4941101-0.1450806,0.5967102-0.46875l3.2807922-10.3989239l3.3446045,10.3829937
	c0.1000977,0.3126831,0.292511,0.4846802,0.5498962,0.4846802h0.7900085c0.2888794,0,0.4263916-0.1065674,0.4949951-0.1980591
	c0.0884094-0.1239014,0.1026001-0.2849121,0.0441895-0.4639893c0,0-3.9299927-11.5546246-3.9250793-11.5546246
	c-0.1619263-0.4505005-0.4318237-0.546814-0.6339111-0.546814H128.2214661z M127.3554688,31.7691097
	c-0.3398132,0-0.4768066-0.2401123-0.3078003-0.5336914l1.4237976-2.4656372c0.1706848-0.2944946,0.4458923-0.2944946,0.6165771,0
	l1.4241028,2.4656372c0.171814,0.2935791,0.0320129,0.5336914-0.3072815,0.5336914H127.3554688z"/>
<path class="st1" d="M122.1292419,4.3689017c-0.3338928,0-0.6023865,0.2675781-0.6023865,0.6021118
	c0,0,0.0173035,0.5651855,0.0173035,0.9101562c0,0.7341309,0.585083,0.9884033,1.0881958,0.9884033
	c0.5014954,0,1.9490967,0.0102539,2.2915955,0.0102539v3.0015864c-0.5874023,0.0288696-1.1616821,0.1680908-1.697998,0.4520874
	c-0.6148071,0.3269043-1.1148071,0.7766724-1.4946899,1.3283691c-0.3851929,0.5563965-0.5794067,1.1831055-0.5794067,1.8660278
	c0,1.0332031,0.4570007,1.9241943,1.3529968,2.6469736c0.8373108,0.6593018,1.7868958,0.9907227,2.82901,0.9907227
	c1.0541992,0,2.0059814-0.3344727,2.8325806-0.9907227c0.8861084-0.7091684,1.3368225-1.6004038,1.3368225-2.6469736
	c0-0.8328247-0.2950134-1.5985107-0.8753052-2.296875c-0.5003052-0.5998535-1.1315918-1.0205078-1.8569946-1.2911987V5.600225
	c0-0.1312256-0.1074219-0.2352295-0.2431946-0.2352295h-3.1530151V4.9710135c0-0.3345337-0.2709961-0.6021118-0.6008911-0.6021118
	H122.1292419z M123.7163696,15.0045214c-0.4816284-0.4221191-0.7183228-0.9067993-0.7183228-1.4743042
	c0-0.8005371,0.401123-1.40802,1.2225952-1.8502197c0.3804016-0.2089233,0.7546082-0.3131714,1.1106262-0.3131714
	c0.824585,0,1.4702759,0.3667603,1.9842834,1.121582c0.2225037,0.3322754,0.3322144,0.6803589,0.3322144,1.0418091
	c0,0.7788696-0.4017029,1.3707886-1.2342224,1.8153076c-0.3696899,0.1972656-0.7327881,0.2967529-1.0822754,0.2967529
	C124.7368469,15.6422777,124.2087708,15.4392748,123.7163696,15.0045214z M142.0774536,5.4591117
	c-0.2330017,0.347168-0.3449097,0.7352905-0.3449097,1.1641846v7.3646846c0,1.2849121,0.6715088,2.2218027,2.0018005,2.8012094
	c0.589325,0.25,1.2073059,0.3764038,1.8397217,0.3764038c1.5570984,0,2.6843872-0.5617676,3.3457031-1.6755991
	c0.3268738-0.5430908,0.494873-1.2044067,0.494873-1.9597778c0-1.1033325-0.3692932-1.9976196-1.1017761-2.6716919
	c-0.7285156-0.6639404-1.6488953-1.001709-2.7388-1.001709c-0.8479004,0-1.5187988,0.1502075-1.9945068,0.4364624V6.6232963
	c0-0.4019775,0.1088867-0.8068237,0.9511108-0.8068237c0.2391968,0,0.6461792,0.1907959,1.0543823,0.3141479
	c0.4088135,0.119873,1.1509094,0.3504028,1.6384888,0.3504028c1.1287231,0,1.8036194-0.4230347,1.8036194-1.1293335v-0.487915
	c0-0.1768799-0.0663147-0.3157959-0.1980896-0.4041748c-0.0774231-0.0502319-0.2441101-0.1229858-0.4958191-0.0203857
	c-0.537384,0.2241821-1.0487976,0.2962036-1.6622009,0.2374878c-0.0570068-0.0054321-0.7528992-0.1176147-0.7528992-0.1176147
	c-0.4255066-0.1073608-0.9093018-0.2114868-1.5415039-0.2114868C143.3530579,4.3476005,142.5812683,4.7271781,142.0774536,5.4591117
	z M144.0767517,15.0592089c-0.332489-0.3674316-0.4971924-0.8754272-0.4971924-1.5289917
	c0-0.7705078,0.1491089-1.3331909,0.457489-1.6711426c0.2954102-0.3264771,0.8139038-0.4922485,1.533905-0.4922485
	c0.9479065,0,1.5335083,0.2865601,1.7900085,0.8783569c0.1340942,0.3079224,0.2012939,0.7443848,0.2012939,1.2850342
	c0,1.442749-0.6307068,2.1120605-1.9913025,2.1120605C144.9172668,15.6422777,144.4288635,15.4520922,144.0767517,15.0592089z
	 M133.9604492,4.3689017c-0.3321838,0-0.6029053,0.2675781-0.6029053,0.6021118v1.0097046
	c0,0.8057861,0.2208252,1.477356,0.6525269,1.9969482c0.2817993,0.3424067,0.8438721,0.773315,1.7129822,1.3147578
	c0.7521057,0.4577637,1.2752991,0.9021606,1.5462952,1.3276978c0.3368225,0.5113525,0.5074158,1.199585,0.5074158,2.0324707
	c0,0.8209229-0.167511,1.5065918-0.4974976,2.0449219c-0.3747253,0.6337891-0.9147034,0.9447632-1.651123,0.9447632
	c-0.7874756,0-1.3954773-0.4008789-1.8546753-1.2279663c-0.2053223-0.3724976-0.3110046-0.7311401-0.3110046-1.0610352
	c0-0.7600098,0.1521912-1.3092651,0.2003784-1.4640503c0.0522156-0.1721191,0.0292053-0.34021-0.0645752-0.4689331
	c-0.094696-0.128418-0.2449036-0.2028809-0.4113159-0.2028809h-0.6471863c-0.2937012,0-0.5689087,0.2085571-0.6931152,0.5161743
	c-0.1070862,0.2653198-0.2286987,0.9960938-0.2286987,1.6196899c0,1.0579224,0.4082031,1.9655151,1.2120972,2.7073984
	c0.7996216,0.7307129,1.740509,1.1049194,2.7980957,1.1049194c1.253418,0,2.2612-0.4649048,2.9898987-1.3867197
	c0.6670227-0.8399048,1.008606-1.9038086,1.008606-3.1563721c0-0.998291-0.209198-1.852417-0.6170959-2.5432129
	c-0.365387-0.6455078-0.9801941-1.2633667-1.8209839-1.8475952c-0.7996216-0.5562129-1.2722168-0.9022822-1.4025269-1.0386958
	c-0.3937988-0.3900146-0.5799866-0.8358765-0.5799866-1.3630981V4.9710135c0-0.3345337-0.2732849-0.6021118-0.6040955-0.6021118
	H133.9604492z M156.3167419,4.973516v0.6907959c0,0.3265991,0.2741089,0.4309082,0.4431152,0.5650024
	c0.3092041,0.2384033,0.5940857,0.5808105,0.5940857,1.121582c0,0.5413818-0.1212769,0.9746089-0.364502,1.3124995
	c-0.2012939,0.262207-0.4529724,0.494873-0.781189,0.494873c-0.3291016,0-0.6134949,0.2857056-0.6134949,0.6100464v0.3157959
	c0,0.3378906,0.3171997,0.6130981,0.6134949,0.6130981c0.2919006,0,0.6596069,0.2573853,0.9248962,0.6933594
	c0.1539001,0.2412109,0.2207947,0.5388184,0.2207947,0.7741089v1.689209c0,0.5679932-0.1773987,0.9992065-0.5475769,1.3093262
	c-0.3702087,0.3180542-0.8564148,0.4790649-1.4454041,0.4790649c-0.6069031,0-1.0780029-0.1947632-1.4403076-0.5918579
	c-0.3724976-0.4088135-0.5675049-0.8810425-0.5508118-1.5202026c0.0125122-0.7665405,0.1925049-1.2819214,0.2809143-1.6866455
	c0.086792-0.4008789-0.0639954-0.6261597-0.487793-0.6261597h-0.6440125c-0.3220825,0-0.6054993,0.2116699-0.7080994,0.5456543
	c-0.1048889,0.3353271-0.2889099,1.0440063-0.2889099,1.7648315c0,1.1239014,0.3711243,2.0236816,1.1030273,2.687501
	c0.6887817,0.6290283,1.613678,0.9501953,2.7393799,0.9501953c0.9952087,0,1.8683167-0.2941895,2.6101074-0.8721924
	c0.8139038-0.6375132,1.2313843-1.4570322,1.2313843-2.4442759v-1.6866455c0-0.9212646-0.4500732-1.6630859-1.2880859-2.2521973
	c0.841095-0.668396,1.2880859-1.5230103,1.2880859-2.565002c0-0.7219849-0.2573853-1.4057007-0.7616882-2.0151978
	c-0.3789978-0.4608765-1.0805054-0.9533081-1.5272827-0.9533081C156.597168,4.3767753,156.3167419,4.6577201,156.3167419,4.973516z
	 M161.8806458,6.416326c-0.3782043,0.8810425-0.5683899,2.2251582-0.5683899,4.0056758
	c0,1.1270142,0.1712036,2.7435913,0.2919922,3.4160156c0.3403931,1.8444824,0.7364197,2.5854502,0.8716125,2.8224497
	c0.1774902,0.3157349,0.4654846,0.505127,0.756897,0.505127h0.6470947c0.1680908,0,0.319519-0.0773926,0.3963013-0.2058105
	c0.088501-0.1445923,0.0916138-0.3483887,0.0031128-0.5006104c-0.0898132-0.1555786-0.3670044-0.6479502-0.6036987-1.4512949
	c-0.3379211-1.175293-0.5125122-2.71698-0.5125122-4.5858765c0-1.3013916,0.1152954-2.3187866,0.3427124-3.0333858
	c0.3338928-1.0015259,0.9835815-1.4907227,1.9881897-1.4907227c1.0071106,0,1.6582947,0.4891968,1.9916077,1.4932861
	c0.2153931,0.6636348,0.3291016,1.6812129,0.3291016,3.0308223c0,1.7860718-0.184021,3.303772-0.5584106,4.628418
	c-0.2145996,0.7763672-0.4415894,1.2296762-0.5379944,1.4008799c-0.1011963,0.1688843-0.0939026,0.3638916-0.0057068,0.5084839
	c0.0813904,0.128418,0.2250977,0.2058105,0.3963013,0.2058105h0.6473999c0.2981873,0,0.5192871-0.1411743,0.7401123-0.4649048
	c0.208374-0.3197021,0.603302-1.2531748,0.8571777-2.6748056c0.1815186-1.0172729,0.3096008-2.418457,0.3096008-3.6038818
	c0-1.8366089-0.1791992-3.1541133-0.5487976-4.0214839c-0.5737-1.3434448-1.7891846-2.0237427-3.6172791-2.0237427
	C163.6738586,4.3767753,162.4551697,5.0618949,161.8806458,6.416326z"/>
</svg>
