<?xml version="1.0" encoding="utf-8"?>
<!-- Generator: Adobe Illustrator 19.0.0, SVG Export Plug-In . SVG Version: 6.00 Build 0)  -->
<svg version="1.1" id="Layer_1" xmlns="http://www.w3.org/2000/svg" xmlns:xlink="http://www.w3.org/1999/xlink" x="0px" y="0px"
	 viewBox="0 0 386.9662781 132.5619965" style="enable-background:new 0 0 386.9662781 132.5619965;" xml:space="preserve">
<style type="text/css">
	.st0{fill:#A7A9AC;}
	.st1{fill:#ED1C24;}
	.st2{fill:#A7A9AC;stroke:#A7A9AC;stroke-width:0.75;stroke-miterlimit:10;}
	.st3{fill:#A7A9AC;stroke:#A7A9AC;stroke-miterlimit:10;}
</style>
<g>
	<g>
		<g>
			<path d="M101.4432983,46.5777016h9.4482956v37.1595955c0,5.1377029,2.3437042,6.9682999,6.9608994,6.6846008v8.4438019
				c-10.7260971,1.1279984-16.4091949-5.2074966-16.4091949-15.1284027V46.5777016z"/>
			<path d="M157.1362,87.3955002c-2.1333008,7.391098-8.5962067,12.3891983-17.6885071,12.3891983
				c-10.3705902,0-18.7533951-8.4458008-18.7533951-18.9306946c0-10.4887009,8.3828049-19.0757027,18.7533951-19.0757027
				c8.808609,0,16.1952972,5.4908028,17.9721985,15.2007027L131.5630035,87.75
				c1.8490906,2.4614029,4.6175995,3.8672028,7.8134003,3.8672028c3.0546875,0,6.180191-1.3379059,7.742691-4.2217026H157.1362z
				 M146.6230011,73.177803c-1.7070007-2.036705-4.2607117-3.2325058-7.2465973-3.2325058
				c-5.3964081,0-9.7299042,4.2188034-9.9458008,10.4151001L146.6230011,73.177803z"/>
			<path d="M219.3636932,98.9365005h-9.3739929V77.7564011c0-2.0429993-0.7089996-6.8999023-6.8901062-6.8999023
				c-4.1235962,0-7.1029968,2.8120041-7.1029968,6.8999023v21.1800995h-9.3804016V77.7564011
				c0-2.0429993-0.6392059-6.8999023-6.8208008-6.8999023c-4.1900024,0-7.1025848,2.8120041-7.1025848,6.8999023v21.1800995
				h-9.3764191V77.966301c0-9.2207031,6.4673004-16.1879997,16.4790039-16.1879997
				c4.9736023,0,9.0229034,1.9692993,11.652298,5.1386986c2.7725067-3.1693993,6.8892059-5.1386986,11.6519012-5.1386986
				c10.2285004,0,16.2640991,6.6861,16.2640991,16.1879997V98.9365005z"/>
			<path d="M262.3417969,80.8540039c0,10.835495-8.3101044,18.9306946-18.4721985,18.9306946
				c-10.1557922,0-18.3945007-8.0951996-18.3945007-18.9306946c0-10.8423004,8.2387085-19.0757027,18.3945007-19.0757027
				C254.0316925,61.7783012,262.3417969,70.0117035,262.3417969,80.8540039z M252.8934937,80.9189987
				c0-6.2587967-4.0493011-10.6264954-9.0238953-10.6264954c-4.9692078,0-9.0200043,4.3676987-9.0200043,10.6264954
				c0,6.1245041,4.0507965,10.3476028,9.0200043,10.3476028C248.8441925,91.2666016,252.8934937,87.0435028,252.8934937,80.9189987z
				"/>
			<path d="M284.930603,61.7783012c10.2309875,0,16.2700806,6.6861,16.2700806,16.1879997v20.9701996h-9.378479V77.7564011
				c0-2.0429993-0.7065125-6.8999023-6.8916016-6.8999023c-4.1176147,0-7.1029968,2.8120041-7.1029968,6.8999023v21.1800995
				h-9.3740234V77.966301C268.4535828,68.7455978,274.9858093,61.7783012,284.930603,61.7783012z"/>
			<path d="M344.8876953,80.8540039c0,10.4848938-7.7451172,18.9306946-18.7543945,18.9306946
				c-11.0805969,0-18.824707-8.4458008-18.824707-18.9306946c0-10.4199066,7.8857117-18.9350052,17.4765015-18.9350052
				c4.331604,0,7.8867188,1.3369026,10.7284851,4.2220993V46.5777016h9.374115V80.8540039z M326.1333008,70.5044022
				c-5.1817017,0-9.3760071,4.4360962-9.3760071,10.4145966c0,5.7753983,4.1943054,10.2085037,9.3760071,10.2085037
				c5.1860046,0,9.3802795-4.5772018,9.3802795-10.2085037C335.5135803,75.1503983,331.3193054,70.5044022,326.1333008,70.5044022z"
				/>
			<path d="M386.8031921,80.8540039c0,10.835495-8.3163757,18.9306946-18.4736023,18.9306946
				c-10.1572876,0-18.3980103-8.0951996-18.3980103-18.9306946c0-10.8423004,8.2407227-19.0757027,18.3980103-19.0757027
				C378.4868164,61.7783012,386.8031921,70.0117035,386.8031921,80.8540039z M377.3534851,80.9189987
				c0-6.2587967-4.0517883-10.6264954-9.0238953-10.6264954c-4.9732056,0-9.0249023,4.3676987-9.0249023,10.6264954
				c0,6.1245041,4.0516968,10.3476028,9.0249023,10.3476028C373.3016968,91.2666016,377.3534851,87.0435028,377.3534851,80.9189987z
				"/>
		</g>
		<path class="st0" d="M16.2069988,104.5849991c0.2598095,0,0.5200005-0.0073013,0.7847004-0.0195007l0.451601-0.024498
			c0.1171989-0.0063019,0.2319984-0.0106964,0.3500996-0.0223999l0.1455002-0.0112991
			c0.0674-0.0053024,0.1332989-0.010704,0.2017002-0.0195007l0.4857998-0.0444031
			c0.1220989-0.0170975,0.2173004-0.0253983,0.3071995-0.0410004c0.2054996-0.0214996,0.3584003-0.0410004,0.5112095-0.067894
			c0.1254902-0.0156021,0.2338905-0.0361023,0.3461914-0.0562057c0.2011986-0.0292969,0.3638077-0.0570984,0.5278072-0.0834961
			l0.3764915-0.0737c0.1527996-0.0293045,0.3066006-0.0586014,0.4603996-0.0893021
			c-3.4393997-5.7310028-5.249999-12.2343979-5.249999-18.9151001c0-5.2246017,1.1441088-10.4531021,3.3163996-15.2304001
			c-0.1131992,0-0.2255001-0.0014954-0.3374004-0.0014954l-0.0858898-0.0044022c-0.0054092,0-0.0054092,0-0.0054092,0
			c-1.0034008,0-1.9300995,0.0702972-2.7621994,0.2089996C8.3319998,71.3686981,0.0195,78.6132965,0.0195,88.0888977
			C0.0195,97.530304,8.5648994,104.5849991,16.2069988,104.5849991z"/>
		<path class="st1" d="M71.1898956,58.5024986c-6.3222961-4.5073967-19.0673981-12.1093979-33.4188957-12.3731003
			c-2.3945999-0.0468979-4.7276001,0.1182022-6.9380016,0.4834023c-1.8070984,0.2993011-3.6303997,0.7626991-5.4169998,1.3716011
			c-0.0092983,0.0048981-0.0614986,0.0243988-0.1127987,0.0385971c-0.4497013,0.1582031-0.8783913,0.331501-1.2998009,0.4990005
			l-0.3822994,0.1557999c-1.3349991,0.5356026-2.4654007,1.0512009-3.4589996,1.5741997
			c-0.5347004,0.278801-0.9829006,0.5234032-1.3969994,0.7646027c-0.3476009,0.1977997-0.7134018,0.419899-1.1299,0.6816978
			c-0.5259018,0.3330002-1.0835018,0.7046013-1.6923923,1.134201l-0.0625086,0.0468979
			c-0.3618002,0.2588005-0.7524004,0.5381012-1.1317997,0.8384018c-0.3935003,0.3027-0.7700005,0.610302-1.1880007,0.9599991
			C13.0415001,55.1142998,12.4326,55.6421013,11.8413,56.2001991c-0.1128006,0.1016006-0.2196999,0.2080002-0.3242006,0.3081017
			L11.3379002,56.6875c-0.7959003,0.7803001-1.4839001,1.4971008-2.0996008,2.2001991L9.0962,59.0517998
			c-0.7032003,0.8027-1.3985,1.6631012-2.0752001,2.5658989l-0.2744002,0.377903
			C6.2469997,62.6846008,5.7323999,63.4463005,5.1689,64.3252029c-0.2997999,0.4859009-0.5386,0.8774948-0.7568002,1.2564011
			c-0.1342912,0.2298965-0.2588,0.453598-0.3822913,0.6747971l-0.2613087,0.4746017
			C3.707,66.8359985,3.6698999,66.8999023,3.6362,66.9667969C2.2798085,69.5170975,1.1728084,72.2573013,0.332,75.1006012
			c0.1108085-0.1416016,0.2212-0.280304,0.3335-0.4194031l0.1763085-0.210495
			C0.9843,74.2968979,1.1294,74.1304016,1.2773,73.9634018c0.0346999-0.0425034,0.0756999-0.0889053,0.1177-0.1333008
			l0.0649-0.0708008C1.6391,73.5625,1.7822,73.4073029,1.9261999,73.2529984c0.0747001-0.080101,0.1622-0.1718979,0.2535-0.2607956
			C2.2939,72.8744965,2.4433,72.7246017,2.5962,72.5772018l0.2289999-0.2281036
			c0.1626086-0.1528015,0.3154001-0.2894974,0.4663-0.4237976l0.2295001-0.2118988
			c0.1787-0.160202,0.352-0.3076019,0.5239-0.4502029l0.0688-0.0596008
			c0.0493999-0.0390015,0.0971999-0.0834961,0.1508999-0.1230011c0.461-0.3788986,0.9605002-0.7616959,1.4678001-1.1147995
			c0.0541997-0.0423965,0.1338-0.0965958,0.2147999-0.1512985C6.1289001,69.689003,6.3104997,69.5679016,6.4951,69.4487991
			c0.0819998-0.0586014,0.1854997-0.1221008,0.2890997-0.1865997c0.1567001-0.0986023,0.3291001-0.2074966,0.5-0.310997
			C7.3685999,68.9003983,7.4663,68.8394012,7.5713,68.7823029l0.7943997-0.4463043
			c0.1641083-0.0894012,0.3212996-0.1703949,0.4775-0.2514954l0.3326092-0.1709061
			c0.5370913-0.2631989,1.0873909-0.5058975,1.6341906-0.7304993l0.2559004-0.0951996
			c0.1919088-0.0780945,0.3828001-0.1459961,0.5703001-0.214798c0.1138-0.0425034,0.2216997-0.0766983,0.3301001-0.1118011
			c0.1518002-0.0546951,0.3309994-0.1123962,0.5092993-0.1718979l0.3261003-0.0996017
			c0.1733999-0.0536957,0.3506002-0.0981979,0.5249004-0.1480026l0.3163996-0.0814972
			c0.1928997-0.0513,0.3818998-0.0942993,0.5669003-0.1362991l0.2788-0.0634003
			c0.2774-0.0606003,0.5522995-0.1103973,0.8339996-0.1573029c1.8135004-0.3026962,3.9345999-0.3470993,6.2451086-0.1327972
			c0.2919998,0.0249023,0.5873909,0.0673981,0.882391,0.108902l3.5790997,0.4609985l-0.0698986,0.1156998
			c12.4141006,2.5516968,27.7011986,10.919899,28.5737991,15.868103c0.7328987,4.1293945-6.5424995,10.9916992-8.7915001,12.9965973
			c-5.4272995,4.8423004-11.8769989,8.8448029-17.8990002,11.131897l0.0450001,0.0771027l-2.7115002,0.8295975
			c-0.0819988,0.0254059-0.1639996,0.0522003-0.2455997,0.0825043c-0.1849995,0.0619965-0.3509998,0.1195984-0.5151005,0.1641006
			c-2.9638996,0.8197937-5.6474991,1.2192001-8.2084999,1.2192001c-0.2841902,0-0.5756989-0.0078049-0.8607988-0.0229034
			c-0.0718002-0.0009995-0.1602001-0.0102997-0.2495003-0.016098c-0.21-0.0141983-0.4117002-0.0307999-0.6055002-0.0484009
			c-0.1303911-0.0150986-0.2441998-0.0298004-0.3598995-0.0468979c-0.1284008-0.0102005-0.3130007-0.0376053-0.4931002-0.0649033
			l-0.3852997-0.0615005c-0.1792002-0.0356979-0.3589001-0.0669022-0.5390921-0.1049957l-0.268508-0.0537033
			c-0.2739-0.0659027-0.5249004-0.1298981-0.7749004-0.1919022c-0.0098,0-0.0508003-0.0093002-0.0864-0.0195007
			c-0.2901001-0.0811005-0.5733004-0.1651001-0.8526001-0.2563934l-0.2372999-0.0766068
			c-0.2020998-0.0659943-0.3978996-0.136795-0.5922909-0.2070999L9.5913,107.5346985
			c-0.1684914-0.0658951-0.3364-0.1333008-0.5014915-0.2011948l-0.3066092-0.1284027
			c-0.2299995-0.1010971-0.4150991-0.1880035-0.5951996-0.2739029l-0.2568998-0.1205978
			c-0.2435999-0.1215973-0.4672914-0.2324982-0.6928-0.3516006l-0.1280003-0.0679016
			c-0.2665997-0.1468964-0.5306997-0.2958984-0.791491-0.4501953C6.2880998,105.9228973,6.2451,105.8936005,6.1987,105.865303
			l-0.2241001-0.1362991c-0.1455002-0.0898056-0.2929997-0.1797028-0.4326-0.2715073l-0.2627001-0.1776962
			c-0.1679997-0.1112976-0.3393998-0.2300034-0.5113001-0.3579025C4.6977,104.8775024,4.6025,104.8057022,4.5043998,104.7349014
			c-0.1742997-0.1304016-0.3383999-0.2534027-0.5009999-0.3823013l-0.2416999-0.189003
			c-0.1851001-0.1449966-0.375-0.3041992-0.5596001-0.4633942l-0.1547999-0.1328049
			c-0.2314-0.1972961-0.4628999-0.4100952-0.6919-0.623497L2.2275,102.8218002
			c-0.2026-0.1958008-0.374-0.3666992-0.5420001-0.5394974c-0.0546914-0.0572052-0.1284-0.1338043-0.2006915-0.2099991
			c-0.146-0.1504059-0.2744085-0.2959061-0.4096085-0.4414062l-0.2388-0.2686005
			c-0.0811-0.0970993-0.1553-0.1865005-0.2285-0.2709961c1.4145,4.5195999,3.5087998,8.6972961,6.2099085,12.3398972
			c6.0673909,7.8838043,14.8032913,12.5708008,23.9614906,12.841301c0.1303005,0.0009995,0.2636013,0.0112,0.4018002,0.0214996
			l0.0987091,0.0053024c0.1210918,0.0107956,0.2328911,0.0209961,0.3514919,0.0209961
			c5.8150005,0,11.5771999-1.072197,17.128397-3.1825943c15.0318031-5.7217026,24.9506989-17.8198013,29.5269012-24.5249023
			c6.3427963-9.3051987,9.6240005-18.7304993,9.0282974-22.1317978
			C86.6791992,72.8906021,80.8099976,65.3701019,71.1898956,58.5024986z"/>
		<g>
			<path class="st0" d="M108.321701,126.1880035c-3.0238953,0.3526001-5.1152039-1.4365005-5.1152039-4.7383041v-6.1977005
				h-1.7631989v-2.040596h1.7631989v-2.7709045h2.1176987v2.7709045h2.9463043v2.040596h-2.9463043v6.1977005
				c0,2.2935028,1.4096985,2.8726044,2.9975052,2.7730026V126.1880035z"/>
			<path class="st0" d="M117.0394974,115.0253983c-2.2435989-0.1254959-4.1586914,1.0581055-4.1586914,3.6548004v7.5078049
				h-2.1416092v-12.9766006h2.0663986v1.4614944c0.9824982-1.3862991,2.7476044-1.9399948,4.233902-1.7646942V115.0253983z"/>
			<path class="st0" d="M127.6434937,124.7012024c-0.9305954,1.1337967-2.4427948,1.7894974-4.4584961,1.7894974
				c-2.671402,0-5.0649033-1.2093964-5.0649033-4.0067978c0-2.6704025,1.9393997-3.8804016,5.2910004-4.0570984
				c3.1748047-0.1519012,4.2089996-0.7300034,4.2089996-1.7637024c0-1.0326996-0.9838943-1.8134995-3.1757965-1.8134995
				c-1.3602982,0-3.1483994,0.428299-3.3759995,2.3173981h-2.2168045c0.1509018-2.5957031,2.2910995-4.2826996,5.6192017-4.2826996
				c3.4759979,0,5.2406998,1.6122971,5.2406998,4.0313034v7.1551971c0,0.6542969,0.1753082,1.6132965,0.3764954,2.1172028
				h-2.1157913C127.7963943,125.8086014,127.6693954,125.3061981,127.6434937,124.7012024z M127.6200943,119.2085037
				c-0.8578949,0.7548981-2.3930969,0.9320984-3.9306946,1.0331955c-2.8222046,0.1758041-3.4525909,1.158699-3.4525909,2.2422028
				c0,1.410202,1.3607864,2.0150986,3.0243912,2.0150986c2.2162933,0,4.308609-0.9570007,4.3588943-3.2987976V119.2085037z"/>
			<path class="st0" d="M135.5043945,111.2455978h-2.1415863v-2.5443954h2.1415863V111.2455978z M135.5043945,126.1880035
				h-2.1415863v-12.9766006h2.1415863V126.1880035z"/>
			<path class="st0" d="M150.0404968,126.1880035h-2.1156921v-7.887207c0-1.9911957-1.108902-3.4511948-3.1748047-3.4511948
				c-1.9658051,0-3.4013977,1.4599991-3.4013977,3.4009018v7.9375h-2.1426086v-12.9766006h2.0669098v1.4116974
				c0.8822937-1.0849991,2.2173004-1.7388,3.7787933-1.7388c3.1757965,0,4.9888,2.2670975,4.9888,5.4922028V126.1880035z"/>
			<path class="st0" d="M155.8339996,111.2455978h-2.1411896v-2.5443954h2.1411896V111.2455978z M155.8339996,126.1880035
				h-2.1411896v-12.9766006h2.1411896V126.1880035z"/>
			<path class="st0" d="M170.3730011,126.1880035h-2.118103v-7.887207c0-1.9911957-1.1074982-3.4511948-3.174408-3.4511948
				c-1.9653015,0-3.4012909,1.4599991-3.4012909,3.4009018v7.9375h-2.1421051v-12.9766006h2.0679016v1.4116974
				c0.8802948-1.0849991,2.2148132-1.7388,3.7778168-1.7388c3.1747894,0,4.9901886,2.2670975,4.9901886,5.4922028V126.1880035z"/>
			<path class="st0" d="M186.0918121,125.5824966c0,4.1582108-2.6953125,6.9794998-6.6758118,6.9794998
				c-3.0737,0-5.4683075-1.6376953-6.1226044-4.2836914h2.2416992c0.8569946,1.9404907,2.9234009,2.2177887,3.8809052,2.2177887
				c3.3256989,0,4.5355988-2.5682907,4.5355988-4.9135971v-1.3597946c-0.9331055,1.259697-2.5449066,2.293396-4.4105988,2.293396
				c-3.7280121,0-6.5005035-3.0497971-6.5005035-6.8055954c0-3.7534027,2.7724915-6.8262024,6.5005035-6.8262024
				c1.9149933,0,3.578598,1.0835037,4.4858093,2.3936005v-2.0664978h2.0650024V125.5824966z M179.5410004,114.8736038
				c-2.4434052,0-4.358902,2.1679001-4.358902,4.8636932c0,2.6455002,1.9154968,4.8120041,4.358902,4.8120041
				c2.3934937,0,4.4105988-2.1665039,4.4105988-4.8120041C183.9515991,117.0415039,181.934494,114.8736038,179.5410004,114.8736038z
				"/>
			<path class="st0" d="M194.3055878,126.516098c-3.1503906,0-5.4422913-1.6893997-5.7953949-4.4355011h2.1679993
				c0.2763977,1.5117035,1.7617035,2.4438019,3.6273956,2.4438019c2.0152283,0,3.2505035-0.982399,3.2505035-2.1156998
				c0-0.9081955-0.3540039-1.5884018-3.5282898-2.0166016c-3.148407-0.453598-5.0653992-1.2098999-5.0653992-3.653801
				c0-1.8646927,1.612793-3.8539963,5.0907898-3.8539963c2.9994965,0,5.0142059,1.5106964,5.2929993,4.0561981h-2.1669922
				c-0.3037109-1.3857956-1.5381012-2.0908966-3.1260071-2.0908966c-1.7128906,0-2.9481964,0.8057022-2.9481964,1.8134995
				c0,0.9330978,0.7294006,1.2593002,3.2768097,1.6641006c2.871582,0.452095,5.2406921,1.0077972,5.2406921,3.955101
				C199.6224976,124.8779984,197.4051971,126.516098,194.3055878,126.516098z"/>
		</g>
		<g>
			<path class="st2" d="M0,0.4610002h1.7709999v10.4681997c0,2.1812,0.4349999,3.7504997,1.3032,4.7110004
				c0.8686085,0.9588995,2.2681,1.4393988,4.1962996,1.4393988c1.0083089,0,1.8633084-0.1254997,2.5674005-0.3788986
				c0.7035999-0.2518997,1.2739086-0.6343002,1.7084999-1.1465006c0.434-0.5131998,0.7465-1.1493998,0.9375-1.9154997
				c0.1919088-0.7642002,0.2870998-1.6680002,0.2870998-2.7095003V0.4610002h1.7733994v10.9584999
				c0,2.2923994-0.6039991,4.0453997-1.8125,5.2567997c-1.2079992,1.2119007-3.0292997,1.8178997-5.4613996,1.8178997
				c-2.4482999,0-4.2748995-0.6171989-5.4716911-1.8540001C0.5981,15.4042997,0,13.6620998,0,11.4195004V0.4610002z"/>
			<path class="st2" d="M27.3656998,18.028801H25.800808V5.3906002h1.5648918V7.1475
				c0.625-0.6166997,1.2719994-1.1210999,1.9419003-1.5126996c0.6688995-0.3906002,1.472208-0.5845003,2.410099-0.5845003
				c0.8355007,0,1.6079998,0.1322999,2.3203983,0.4024C34.75,5.7217002,35.3495979,6.1885004,35.8378983,6.8535004
				c0.3300018,0.4561,0.52491,0.9252996,0.5859108,1.4042997c0.0590897,0.4814997,0.0902901,0.9800005,0.0902901,1.5010004
				v8.2700005h-1.5639V9.7832003c0-1.1381998-0.2700996-1.9931002-0.8067017-2.5620003
				c-0.5404968-0.5692997-1.4344978-0.8534999-2.6859989-0.8534999c-0.487299,0-0.9291992,0.0674-1.3285999,0.2065001
				c-0.3993988,0.1396999-0.7598,0.3207998-1.0824986,0.5479002c-0.3223,0.2284999-0.5943012,0.4902-0.8213005,0.7821999
				C27.9994984,8.1973,27.8256989,8.5059004,27.7054996,8.8305998c-0.1566906,0.4072008-0.2529011,0.7978001-0.2866001,1.1724005
				c-0.0350914,0.3745003-0.0531998,0.7797003-0.0531998,1.2207003V18.028801z"/>
			<path class="st2" d="M47.6963005,2.6333003V0.4610002h1.7192001v2.1723001H47.6963005z M47.7753983,18.028801V5.3906002
				h1.5620003V18.028801H47.7753983z"/>
			<path class="st2" d="M59.1371994,5.3906002h1.6958008l4.3768997,10.8339996l4.3785019-10.8339996h1.6937943L66.0438995,18.028801
				h-1.7455978L59.1371994,5.3906002z"/>
			<path class="st2" d="M81.8143997,12.0523005c0,0.6844997,0.0947952,1.3295994,0.2851944,1.9408998
				c0.1904068,0.6084003,0.4741058,1.1381998,0.8462143,1.5859003c0.3744888,0.4457998,0.8470917,0.8056993,1.4217911,1.0717993
				c0.5737991,0.269001,1.2330017,0.4043007,1.9794998,0.4043007c1.0259018,0,1.9052963-0.2529011,2.6337967-0.7588005
				c0.7281036-0.5029001,1.2154007-1.2182999,1.4585037-2.1470003h1.7471008
				c-0.1914062,0.6036005-0.4424057,1.1612005-0.7544022,1.6724005c-0.3120041,0.5137005-0.703598,0.9608994-1.1758041,1.3423004
				c-0.4692001,0.3827991-1.0253983,0.6772003-1.6659927,0.8906002c-0.6436005,0.2118988-1.3921051,0.3163986-2.2432022,0.3163986
				c-1.0771027,0-2.0072937-0.1703987-2.788002-0.5112c-0.7817993-0.3407993-1.4252853-0.8085995-1.9291992-1.4018993
				c-0.5044022-0.5965996-0.8769989-1.2938995-1.120697-2.0986004c-0.2436066-0.8056993-0.3656998-1.6728992-0.3656998-2.5995998
				c0-0.9257994,0.1440964-1.7979002,0.4306946-2.6122999c0.2861023-0.8125,0.6953049-1.5239,1.2261047-2.1322999
				c0.5298004-0.6108999,1.1756973-1.0903997,1.9403992-1.441c0.7651062-0.3505001,1.6352005-0.5239,2.6063995-0.5239
				c1.8619003,0,3.3189011,0.5971999,4.3814011,1.7944999c1.0575943,1.1943007,1.5790939,2.9310999,1.5629959,5.2075005H81.8143997z
				 M90.6205978,10.8340006c0-0.6201-0.0898972-1.2026005-0.2710037-1.7456007
				c-0.1835938-0.5458994-0.4526978-1.0185995-0.8090973-1.4154997c-0.3560028-0.3985-0.8031998-0.7157998-1.341301-0.9517002
				c-0.5375977-0.2343998-1.1567001-0.3534999-1.8520966-0.3534999c-0.6932907,0-1.305603,0.1210999-1.8378983,0.3657002
				c-0.528801,0.2427001-0.9809036,0.5703001-1.3540039,0.9761C82.7811966,8.1167002,82.4804001,8.5868998,82.255806,9.125
				c-0.2256088,0.5370998-0.3730011,1.1050005-0.4414062,1.7090006H90.6205978z"/>
			<path class="st2" d="M104.2285004,18.028801h-1.5650024V5.3906002h1.5650024v2.3667002h0.0522003
				c0.4335938-1.0083003,0.994194-1.7109003,1.6801987-2.1098003c0.6875-0.3985,1.5937958-0.5971999,2.7240982-0.5971999v1.586
				c-0.8861923-0.0170999-1.6156998,0.1127-2.1880035,0.3891001C105.9208984,7.3037004,105.4652939,7.6773,105.1273956,8.1489
				c-0.3388977,0.4722004-0.5727005,1.0284004-0.7030945,1.6709003c-0.1309052,0.6420994-0.1958008,1.3129997-0.1958008,2.0142002
				V18.028801z"/>
			<path class="st2" d="M119.4238052,14.0777006c0.2436905,1.0902996,0.6815948,1.8583994,1.3158951,2.3070993
				c0.6337967,0.4473,1.5434952,0.6704006,2.7236938,0.6704006c0.5737,0,1.0703049-0.0654011,1.4868011-0.1968002
				c0.4174042-0.1294003,0.759201-0.3031998,1.028801-0.5228996c0.2700043-0.2193012,0.4736023-0.4683008,0.6118088-0.745101
				c0.1400909-0.2768993,0.2094955-0.5703993,0.2094955-0.8785c0-0.6170998-0.2144012-1.0760994-0.6387024-1.3778992
				c-0.4253006-0.3013-0.9589996-0.5376005-1.6021042-0.7084999c-0.6455002-0.1719007-1.3387985-0.3193007-2.0858994-0.4390001
				c-0.7471008-0.1210003-1.442894-0.3032007-2.0868988-0.5497999c-0.6406021-0.2421007-1.1753006-0.5927-1.6006012-1.0493002
				c-0.426796-0.4560003-0.6391983-1.0962-0.6391983-1.9258003c0-1.0576,0.4122009-1.9228001,1.2369156-2.6009998
				c0.8251877-0.6739001,1.9935837-1.0103002,3.5067825-1.0103002c1.4604034,0,2.6460037,0.3032002,3.5576019,0.9155002
				c0.9106979,0.6083999,1.4648972,1.6299,1.6562958,3.0595999h-1.5912933
				c-0.1387024-0.9750996-0.5342026-1.6610999-1.1856003-2.0605001c-0.6499023-0.3975-1.4736023-0.5971999-2.4643021-0.5971999
				c-0.9888,0-1.745697,0.1996999-2.2666016,0.5971999c-0.5224991,0.3994002-0.7817993,0.9233003-0.7817993,1.5742006
				c0,0.5668993,0.2124023,1.0033998,0.6381989,1.3046999c0.4253006,0.3016996,0.9608994,0.5453997,1.6035004,0.7333994
				c0.6416016,0.1875,1.3374023,0.3520002,2.0839996,0.4975004c0.7490005,0.1490002,1.4434052,0.3549995,2.0868988,0.625
				c0.6411057,0.2680998,1.1758041,0.6303997,1.6026001,1.0839996c0.4252014,0.4569998,0.6396027,1.0889006,0.6396027,1.9024
				c0,0.6035004-0.1396027,1.1357002-0.4179993,1.6014996c-0.2778015,0.4624004-0.6601028,0.8481998-1.1488876,1.1568012
				c-0.4844131,0.3094997-1.0620041,0.5410004-1.7314148,0.6961994c-0.6679993,0.1543007-1.4042969,0.2304993-2.2026978,0.2304993
				c-0.7987976,0-1.5073013-0.1097984-2.1244965-0.3270988c-0.6172028-0.2222004-1.1421051-0.5249004-1.5757065-0.9169998
				c-0.434494-0.3901997-0.7723999-0.8446999-1.0165939-1.3643007c-0.2440948-0.5209999-0.3847046-1.0830002-0.419899-1.6849995
				H119.4238052z"/>
			<path class="st2" d="M138.944809,2.6333003V0.4610002h1.7211914v2.1723001H138.944809z M139.0229034,18.028801V5.3906002
				h1.5649872V18.028801H139.0229034z"/>
			<path class="st2" d="M156.5643921,18.0785999c-0.1918945,0.0307999-0.4423981,0.0909004-0.7548981,0.1714001
				c-0.3128967,0.080101-0.6620941,0.1210995-1.0448914,0.1210995c-0.7812042,0-1.375-0.1815987-1.7846069-0.5492992
				c-0.4087067-0.3638-0.6118927-1.0195007-0.6118927-1.9647999v-9.2437h-1.9028015V5.3906002h1.9028015V1.8770002h1.5625v3.5135999
				h2.5298004v1.2227001h-2.5298004v8.6587c0,0.3100996,0.0087891,0.5796003,0.0273895,0.8075991
				c0.0166016,0.2271004,0.0682983,0.4151001,0.1567078,0.5606003c0.0849915,0.1473999,0.2207031,0.2524014,0.4032898,0.3178005
				c0.1812134,0.0634995,0.4371033,0.0972004,0.7696075,0.0972004c0.2089996,0,0.4198914-0.0165997,0.6382141-0.0493011
				c0.2176819-0.0321999,0.4295807-0.0732994,0.6385803-0.1236V18.0785999z"/>
			<path class="st2" d="M166.2059937,21.4473c0.2095032,0.0303001,0.4203949,0.0648994,0.6381989,0.0962009
				c0.2158051,0.033699,0.4400024,0.0507984,0.6665039,0.0507984c0.4326019,0,0.7901154-0.1313992,1.0679016-0.3915997
				c0.2763977-0.2593002,0.5083008-0.5723,0.6903992-0.9365997c0.1831055-0.3675995,0.3334961-0.75,0.4555969-1.1469002
				c0.1215973-0.3985004,0.2612152-0.7348995,0.418396-1.0102997l-5.2381744-12.7182999h1.7450867L170.9756012,16.25
				l4.3275909-10.8593998h1.6963043l-5.0326843,12.4692993c-0.311615,0.7954006-0.6123199,1.512701-0.897522,2.1465015
				c-0.2870941,0.6341991-0.5941925,1.174799-0.9144745,1.6215992c-0.320816,0.4477005-0.6778259,0.7905006-1.0679169,1.0252991
				c-0.3916016,0.2364006-0.8554993,0.3545017-1.3930969,0.3545017c-0.2788086,0-0.546402-0.0151005-0.796402-0.0478001
				c-0.2524109-0.0337009-0.4819031-0.0733013-0.6914062-0.1236V21.4473z"/>
			<path class="st2" d="M206.4491882,18.3710995c-0.8695984-0.0150986-1.680191-0.1620998-2.4375-0.4379997
				c-0.7553864-0.2757988-1.4149933-0.6898994-1.9818726-1.2451c-0.5625153-0.5531998-1.011322-1.2426996-1.3418274-2.0731993
				c-0.3300934-0.8296003-0.4936981-1.7964001-0.4936981-2.9034004c0-0.9286995,0.1294098-1.7929001,0.391098-2.5999994
				c0.2593079-0.8042002,0.6504211-1.5074005,1.1729126-2.1104002c0.5223999-0.6001,1.1727905-1.0762,1.9541016-1.4268003
				c0.7816925-0.3505001,1.6937866-0.5239,2.7367859-0.5239c1.0610046,0,1.9819031,0.1733999,2.7642059,0.5239
				C209.9925995,5.9248004,210.6473999,6.395,211.1678925,6.9888c0.5209961,0.5936999,0.9087067,1.2982998,1.1587067,2.1122999
				c0.2529907,0.8120003,0.3769989,1.6816006,0.3769989,2.6103001c0,1.0074005-0.1455078,1.9209003-0.4423981,2.7339001
				c-0.2938995,0.8125-0.7153015,1.5113001-1.2617035,2.0957003c-0.5474091,0.5860004-1.2095032,1.0380993-1.9810028,1.3554993
				C208.2430878,18.2133999,207.3876953,18.3710995,206.4491882,18.3710995z M211.0394897,11.7114
				c0-0.7489996-0.0883942-1.4482002-0.2621918-2.0999994c-0.1733093-0.6500006-0.4452972-1.2159004-0.8099976-1.6944003
				c-0.3638-0.4809003-0.8334961-0.8579001-1.405304-1.1338c-0.5741882-0.2768002-1.2792969-0.4155002-2.1128082-0.4155002
				c-0.8153839,0-1.5165863,0.1504002-2.0966949,0.4492002c-0.5845032,0.3028002-1.0560913,0.7006998-1.421402,1.1983004
				c-0.3656921,0.4955997-0.6356964,1.0663996-0.8060913,1.7069998c-0.1753082,0.6426001-0.2627106,1.3056993-0.2627106,1.9891996
				c0,0.7803001,0.1001129,1.4990997,0.3003082,2.1583004c0.1992035,0.6605997,0.4912109,1.2255001,0.8724976,1.6953001
				c0.3824005,0.472599,0.858902,0.8388004,1.4346008,1.1005993c0.5717926,0.2578011,1.2323914,0.3896008,1.9794922,0.3896008
				c0.8193054,0,1.5171051-0.1513996,2.0976257-0.4521008c0.5834808-0.3008003,1.0566864-0.7051001,1.4204865-1.2070999
				c0.3647003-0.5043993,0.6366882-1.0731993,0.8099976-1.7094994
				C210.9510956,13.0528002,211.0394897,12.3930998,211.0394897,11.7114z"/>
			<path class="st2" d="M221.4633942,6.6133003V5.3906002h2.0077972v-2c0-1.0083001,0.2158051-1.8066,0.6513062-2.3910999
				c0.4335938-0.5859,1.171402-0.8789,2.2144012-0.8789c0.2431946,0,0.4706879,0.0093,0.6766968,0.0225
				c0.2099915,0.0195,0.4179993,0.0415,0.6255035,0.0742v1.3452001c-0.3462067-0.084-0.6587067-0.125-0.9380035-0.125
				c-0.3993988,0-0.710907,0.0713-0.9384003,0.2079999c-0.2261047,0.1397001-0.391098,0.3213-0.4936981,0.5483999
				c-0.1063995,0.2280002-0.1694031,0.4853001-0.1977081,0.7690001c-0.0249023,0.2871001-0.0375977,0.5747001-0.0375977,0.8657
				v1.562h2.6054077v1.2227001h-2.6054077V18.028801h-1.5625V6.6133003H221.4633942z"/>
			<path class="st2" d="M260.0101929,10.3691998V8.9561005h8.0288086v9.0727005h-1.512207v-2.9985008
				c-0.3309937,0.5186005-0.7084961,0.9946003-1.1357117,1.4277c-0.4257812,0.4286995-0.9159851,0.7959003-1.4721985,1.0967007
				c-0.5565796,0.3013-1.1967773,0.5331993-1.9286804,0.6952991c-0.7295227,0.1636009-1.5537109,0.2441998-2.4746094,0.2441998
				c-1.1825867,0-2.2773132-0.1948986-3.2861023-0.5860004c-1.0063934-0.3890991-1.8759918-0.971199-2.6049957-1.7445984
				c-0.7310028-0.7720003-1.2998047-1.745101-1.706604-2.9170008c-0.4095917-1.1718998-0.6123047-2.5352001-0.6123047-4.0991001
				c0-1.2817998,0.1729126-2.4843998,0.5210114-3.5971999c0.347702-1.1156998,0.8793945-2.0829999,1.6010895-2.9017999
				c0.7221985-0.8243001,1.6260071-1.4687999,2.7108917-1.941c1.0859985-0.4731,2.367218-0.7075,3.8467102-0.7075
				c0.9883118,0,1.9136047,0.1128,2.7744141,0.3404c0.8613892,0.229,1.6328735,0.5732,2.3183899,1.0366
				c0.6889954,0.4629,1.2670898,1.0419999,1.7352905,1.7334c0.468811,0.6894,0.8072205,1.5078001,1.0166931,2.4510999h-1.8261719
				c-0.1543274-0.6517997-0.4224243-1.2377-0.7945251-1.7567999c-0.3744812-0.5195-0.8211975-0.9545999-1.3421936-1.3037
				c-0.5195923-0.3506-1.1026001-0.6200999-1.7475891-0.8061999c-0.6411133-0.186-1.3096008-0.2812001-2.0058899-0.2812001
				c-1.2338257,0-2.2924194,0.2051001-3.1792297,0.6099c-0.8862,0.4072001-1.6166687,0.9819-2.1888885,1.7207
				c-0.5733032,0.7412-0.9946899,1.6258998-1.2631989,2.6601c-0.2704926,1.0317998-0.407196,2.1670003-0.407196,3.4052997
				c0,0.9731007,0.1528015,1.9018002,0.4593964,2.7798004c0.3038025,0.8788996,0.7447052,1.6508999,1.3287048,2.3192997
				c0.5815125,0.6675005,1.2924042,1.1943998,2.1371918,1.5859995c0.8421936,0.3875999,1.8022156,0.5848999,2.8793945,0.5848999
				c0.5029297,0,1.0249329-0.0546989,1.5644226-0.1596985c0.5375977-0.1064014,1.059082-0.2797012,1.5653992-0.523901
				c0.5014954-0.2451,0.9711914-0.5614996,1.4057922-0.9506998c0.4346008-0.3915997,0.8061829-0.8701,1.1191101-1.4408998
				c0.2973938-0.5522003,0.5014954-1.1299,0.6147766-1.7334003c0.1123047-0.6005993,0.1763-1.2353001,0.1958008-1.9018002
				H260.0101929z"/>
			<path class="st2" d="M280.2865906,12.0523005c0,0.6844997,0.094696,1.3295994,0.2865906,1.9408998
				c0.190918,0.6084003,0.4766235,1.1381998,0.8486328,1.5859003c0.3745728,0.4457998,0.8466797,0.8056993,1.4208679,1.0717993
				c0.5718079,0.269001,1.2333984,0.4043007,1.9810181,0.4043007c1.0243835,0,1.9022827-0.2529011,2.6318054-0.7588005
				c0.7294922-0.5029001,1.2163086-1.2182999,1.4589844-2.1470003h1.7460938
				c-0.1889038,0.6036005-0.4429016,1.1612005-0.7567749,1.6724005c-0.3115234,0.5137005-0.703125,0.9608994-1.1724243,1.3423004
				c-0.468689,0.3827991-1.0253906,0.6772003-1.6679993,0.8906002c-0.6434937,0.2118988-1.3895874,0.3163986-2.2396851,0.3163986
				c-1.0796204,0-2.0093079-0.1703987-2.789093-0.5112c-0.7837219-0.3407993-1.4272156-0.8085995-1.9311218-1.4018993
				c-0.5025024-0.5965996-0.8754883-1.2938995-1.1181946-2.0986004c-0.2441101-0.8056993-0.3656921-1.6728992-0.3656921-2.5995998
				c0-0.9257994,0.1445007-1.7979002,0.4312134-2.6122999c0.2831726-0.8125,0.6932678-1.5239,1.2215881-2.1322999
				c0.5312805-0.6108999,1.1796875-1.0903997,1.9429016-1.441c0.7651062-0.3505001,1.632782-0.5239,2.6083984-0.5239
				c1.8578796,0,3.3173828,0.5971999,4.3769836,1.7944999c1.0605164,1.1943007,1.5825195,2.9310999,1.5664062,5.2075005H280.2865906
				z M289.0961914,10.8340006c0-0.6201-0.0903931-1.2026005-0.2724915-1.7456007
				c-0.1831055-0.5458994-0.4521179-1.0185995-0.8081055-1.4154997c-0.3564148-0.3985-0.8027039-0.7157998-1.3423157-0.9517002
				c-0.5394592-0.2343998-1.156189-0.3534999-1.8495789-0.3534999c-0.6958008,0-1.3101196,0.1210999-1.8398132,0.3657002
				c-0.5288086,0.2427001-0.9804993,0.5703001-1.3536072,0.9761c-0.3744812,0.4071999-0.6752014,0.8773994-0.9012756,1.4154997
				c-0.2250977,0.5370998-0.3731079,1.1050005-0.4424133,1.7090006H289.0961914z"/>
			<path class="st2" d="M306.4300842,18.3710995c-0.8690796-0.0150986-1.6810913-0.1620998-2.4378967-0.4379997
				c-0.754364-0.2757988-1.414093-0.6898994-1.9815063-1.2451C301.4476929,16.1348,301,15.4453001,300.6698914,14.6148005
				c-0.3305969-0.8296003-0.4945984-1.7964001-0.4945984-2.9034004c0-0.9286995,0.1293945-1.7929001,0.3911133-2.5999994
				c0.2592773-0.8042002,0.6503906-1.5074005,1.1708984-2.1104002c0.5209961-0.6001,1.1737976-1.0762,1.9559937-1.4268003
				c0.7807922-0.3505001,1.6918945-0.5239,2.7367859-0.5239c1.0591125,0,1.9810181,0.1733999,2.7632141,0.5239
				C309.9755859,5.9248004,310.6278992,6.395,311.1468811,6.9888c0.5234985,0.5936999,0.9096985,1.2982998,1.1607056,2.1122999
				c0.2528992,0.8120003,0.378418,1.6816006,0.378418,2.6103001c0,1.0074005-0.1479187,1.9209003-0.4434204,2.7339001
				c-0.2953796,0.8125-0.7176819,1.5113001-1.2640991,2.0957003c-0.5469055,0.5860004-1.2070007,1.0380993-1.9784851,1.3554993
				C308.2230835,18.2133999,307.3690796,18.3710995,306.4300842,18.3710995z M311.0175781,11.7114
				c0-0.7489996-0.0869751-1.4482002-0.2607727-2.0999994c-0.1733093-0.6500006-0.4434204-1.2159004-0.8076172-1.6944003
				c-0.3656921-0.4809003-0.8339844-0.8579001-1.4082031-1.1338c-0.5741882-0.2768002-1.2774048-0.4155002-2.1109009-0.4155002
				c-0.8164062,0-1.5174866,0.1504002-2.0990906,0.4492002c-0.5820007,0.3028002-1.0546875,0.7006998-1.4198914,1.1983004
				c-0.3662109,0.4955997-0.6357117,1.0663996-0.8086243,1.7069998c-0.1737976,0.6426001-0.2606812,1.3056993-0.2606812,1.9891996
				c0,0.7803001,0.1005859,1.4990997,0.2987976,2.1583004c0.2012024,0.6605997,0.4932251,1.2255001,0.8760071,1.6953001
				c0.3822937,0.472599,0.8583984,0.8388004,1.4325867,1.1005993c0.5712891,0.2578011,1.2344055,0.3896008,1.980896,0.3896008
				c0.8174133,0,1.5151978-0.1513996,2.0967102-0.4521008c0.585022-0.3008003,1.0567017-0.7051001,1.4223938-1.2070999
				c0.3641968-0.5043993,0.6343079-1.0731993,0.8076172-1.7094994
				C310.930603,13.0528002,311.0175781,12.3930998,311.0175781,11.7114z"/>
			<path class="st2" d="M324.4408875,18.028801h-1.5650024V5.3906002h1.5650024v2.3667002h0.0531921
				c0.4331055-1.0083003,0.9927368-1.7109003,1.6802063-2.1098003c0.6860046-0.3985,1.5942078-0.5971999,2.723114-0.5971999v1.586
				c-0.8852234-0.0170999-1.6141968,0.1127-2.1884155,0.3891001C326.1328125,7.3037004,325.6781921,7.6773,325.3408203,8.1489
				c-0.3394165,0.4722004-0.5728149,1.0284004-0.7036133,1.6709003c-0.1314087,0.6420994-0.1963196,1.3129997-0.1963196,2.0142002
				V18.028801z"/>
			<path class="st2" d="M349.1513062,5.3906002h1.5625v11.4200001c0,0.8467007-0.0898132,1.6537991-0.2744141,2.4272003
				c-0.1815796,0.7729988-0.5072937,1.4521999-0.9755859,2.0375996c-0.4697266,0.5874004-1.1142273,1.0536995-1.9296265,1.4043007
				c-0.8173828,0.3481998-1.8676758,0.5229988-3.1557922,0.5229988c-0.9882812,0-1.8388977-0.1171989-2.5537109-0.3526001
				c-0.7123718-0.2362995-1.2929993-0.5345993-1.745575-0.8929996c-0.4507141-0.355999-0.7964172-0.7514992-1.0317993-1.1816998
				c-0.2333984-0.4311008-0.359314-0.8309994-0.3754883-1.2080002h1.6674805
				c0.121582,0.4731998,0.3125,0.8589001,0.5741882,1.1576996c0.2603149,0.3037014,0.5674133,0.5366001,0.9234009,0.7080002
				c0.3564148,0.1709003,0.7549133,0.2896004,1.1903992,0.3549995c0.4312134,0.0640011,0.8833008,0.0986004,1.3511047,0.0986004
				c1.0605164,0,1.9136047-0.1728001,2.5556946-0.5150986c0.6435242-0.3408012,1.1289062-0.7871017,1.4589233-1.3393002
				c0.3320923-0.5552006,0.5439758-1.1807003,0.6411743-1.8804016c0.0927124-0.6977997,0.1333008-1.4150982,0.1171265-2.1474991
				c-0.5068054,0.7831993-1.1972046,1.3726006-2.0727234,1.7709999c-0.8775024,0.3969994-1.7958984,0.5956993-2.7519836,0.5956993
				c-1.0249023,0-1.9154968-0.1815987-2.6717834-0.5492992c-0.7554321-0.3638-1.3804321-0.8525009-1.8731384-1.4647999
				c-0.4989929-0.6084003-0.8671875-1.3199005-1.1098633-2.1324005c-0.2436218-0.8133993-0.3647156-1.6595993-0.3647156-2.5394993
				c0-0.9263,0.1117859-1.7964001,0.3374023-2.6094007c0.2255859-0.8134995,0.5874023-1.5170994,1.0829773-2.1107998
				c0.4961243-0.5937996,1.125-1.0611,1.887207-1.4033999c0.7676086-0.3413,1.6978149-0.5112,2.7904968-0.5112
				c0.4346313,0,0.8775024,0.0567002,1.3321228,0.1698999c0.4501953,0.1143003,0.8885803,0.2764001,1.3148804,0.4888
				c0.4243164,0.2114,0.8153992,0.4795003,1.1723938,0.8046999c0.3535156,0.3257003,0.6479187,0.6904001,0.8735046,1.0986004
				h0.0532227V5.3906002z M349.1513062,11.7598c0-0.7656002-0.1020203-1.4765997-0.3003235-2.1342993
				c-0.1996765-0.6606007-0.4911804-1.2300005-0.875-1.7085004c-0.3822937-0.4809003-0.8598022-0.8579001-1.4325867-1.1338
				c-0.5726929-0.2768002-1.2260132-0.4155002-1.9545898-0.4155002c-0.6621094,0-1.2675171,0.1094003-1.8242188,0.3296003
				c-0.5585938,0.2182999-1.0438843,0.5414996-1.4613953,0.9633999c-0.4154968,0.4218001-0.7416992,0.9403996-0.9755859,1.5488
				c-0.2329102,0.6103001-0.3525085,1.3148994-0.3525085,2.1093998c-0.0342102,0.7982998,0.0340881,1.5433998,0.2084961,2.2348003
				c0.1727905,0.6904993,0.4511108,1.2964001,0.8348999,1.8174c0.3814087,0.5199995,0.8677063,0.9311991,1.4584961,1.2319994
				c0.5899048,0.3007011,1.2940063,0.4521008,2.1118164,0.4521008c0.7123718,0,1.351593-0.1421013,1.9145813-0.4281998
				c0.5674133-0.2842007,1.0434265-0.6670008,1.4335938-1.1465006c0.3901062-0.4805002,0.6929016-1.0404997,0.901825-1.6841002
				C349.0458984,13.1548004,349.1513062,12.4766006,349.1513062,11.7598z"/>
			<path class="st2" d="M362.050293,2.6333003V0.4610002h1.7192078v2.1723001H362.050293z M362.1288757,18.028801V5.3906002h1.5625
				V18.028801H362.1288757z"/>
			<path class="st2" d="M381.1283875,10.6616001c0.2954102-0.0332003,0.6470032-0.0799999,1.0560913-0.1463995
				c0.4082031-0.0655003,0.7432251-0.1543007,1.0039062-0.2671003c0.2597961-0.1167002,0.4200134-0.3057003,0.4810181-0.5738001
				C383.730896,9.4042997,383.7612,9.1553001,383.7612,8.9281998c0-0.7465-0.2568054-1.3607998-0.7680969-1.8412995
				c-0.5127258-0.4798999-1.3769226-0.7192001-2.5937195-0.7192001c-0.5385742,0-1.0365601,0.0434999-1.4867859,0.1308999
				c-0.4517212,0.0927-0.8462219,0.2465-1.1860962,0.4663c-0.3379211,0.2192001-0.6162109,0.5112004-0.8330078,0.8774004
				c-0.2176819,0.3671999-0.3602905,0.8261995-0.4291992,1.3799h-1.5907898
				c0.0517883-0.7481003,0.2348938-1.3872004,0.5463867-1.9165001c0.3143921-0.5258999,0.7157898-0.9584999,1.2129211-1.2920003
				c0.495575-0.3339996,1.0682678-0.5762,1.718689-0.7333999c0.6528931-0.1522999,1.3442993-0.23,2.0737915-0.23
				c0.6781921,0,1.3143921,0.0679002,1.9145203,0.2080002c0.6010742,0.1381998,1.1225891,0.3569999,1.5653687,0.6557999
				c0.4434204,0.3037,0.7891235,0.7051001,1.0411072,1.2080002c0.2528992,0.5049,0.3764038,1.1240001,0.3764038,1.8554997v6.8794003
				c0,0.5722008,0.1109009,0.934,0.3291016,1.0858994c0.2172852,0.1576996,0.6547852,0.1196003,1.3144836-0.107399v1.1459999
				c-0.121582,0.0321999-0.2978821,0.0825005-0.532196,0.1473999c-0.2344055,0.0644989-0.4653931,0.0972004-0.6900024,0.0972004
				c-0.245575,0-0.4794922-0.0254002-0.7055969-0.0742016c-0.2612-0.0331993-0.4676819-0.1078987-0.6273804-0.2314987
				c-0.155304-0.1235008-0.2812195-0.2679996-0.3755188-0.4393997c-0.0957031-0.1695004-0.1611023-0.3565006-0.1962891-0.5611
				c-0.0336914-0.2026005-0.0522156-0.4179001-0.0522156-0.6473999c-0.6596985,0.6854992-1.4184875,1.2069988-2.2680969,1.5634995
				c-0.8495789,0.357399-1.7720032,0.535099-2.7611694,0.535099c-0.5918274,0-1.159729-0.0717983-1.7080078-0.2192001
				c-0.5464172-0.1464996-1.0322266-0.3736-1.4478149-0.6830997c-0.4159851-0.3071995-0.7466125-0.6861-0.9891663-1.1332989
				c-0.2442322-0.4473009-0.3667297-0.9815006-0.3667297-1.6001005c0-2.1459999,1.5737-3.4165001,4.7182007-3.8062
				L381.1283875,10.6616001z M383.7612,11.3945999c-0.6587219,0.2602005-1.3296204,0.4292002-2.0088196,0.5112
				c-0.6766968,0.0815001-1.3529968,0.1465006-2.031189,0.1948004c-1.1993103,0.0824995-2.1323853,0.3334999-2.8008118,0.7587996
				c-0.6713867,0.4209003-1.0058899,1.0649004-1.0058899,1.9258003c0,0.3895998,0.082489,0.7279997,0.2485962,1.0137005
				c0.1660156,0.2831993,0.3828125,0.5184994,0.6538086,0.7054996c0.2680054,0.1875,0.5809937,0.3276997,0.9369812,0.4155006
				c0.3535156,0.0903988,0.7168274,0.1352997,1.0820007,0.1352997c0.6255188,0,1.2319336-0.0732002,1.8228149-0.2196999
				c0.5921936-0.147501,1.1166992-0.3701,1.575592-0.6718998c0.4644165-0.3022003,0.831604-0.6831007,1.1114197-1.1465006
				c0.2753906-0.4633999,0.4154968-1.0127001,0.4154968-1.6473999V11.3945999z"/>
		</g>
		<line class="st3" x1="-0.4097" y1="27.1982994" x2="386.8188171" y2="27.1982994"/>
	</g>
</g>
</svg>
