<?xml version="1.0" encoding="utf-8"?>
<!-- Generator: Adobe Illustrator 19.0.0, SVG Export Plug-In . SVG Version: 6.00 Build 0)  -->
<svg version="1.1" id="Layer_1" xmlns="http://www.w3.org/2000/svg" xmlns:xlink="http://www.w3.org/1999/xlink" x="0px" y="0px"
	 viewBox="289.7 54.3 391.2 687" style="enable-background:new 289.7 54.3 391.2 687;" xml:space="preserve">
<style type="text/css">
	.st0{fill:#B26B44;}
	.st1{fill:#59585B;}
</style>
<g id="wLoU4w_1_">
	<g id="XMLID_2_">
		<path id="XMLID_231_" class="st0" d="M492,54.5c6.6,0.7,13.2,1.3,19.8,1.9c5,0.4,9.8,1.2,14.6,2.8c6,2.1,12.4,3,18.4,5
			c5.6,1.8,10.9,4.4,16.4,6.6c5.1,2,10.3,3.9,15.3,6.1c2.8,1.2,5.3,3.2,8,4.7c4.3,2.4,8.7,4.6,12.8,7.3c2.6,1.8,5.2,3.8,7.8,5.4
			c3.5,2.2,5.5,5.9,9.3,7.7c2.1,1,3.6,3.4,5.3,5.1c4.8,4.8,9.9,9.4,14.5,14.4c3.1,3.4,5.7,7.3,8.5,11c2.5,3.2,5.1,6.2,7.4,9.5
			c1.7,2.4,3,5,4.4,7.6c3,5.3,6.3,10.5,8.9,16c2.7,5.7,4.9,11.6,7.3,17.5c1.7,4.3,3.5,8.5,5,12.9c1,3,1.7,6.2,2.5,9.3
			c0.5,1.8,1,3.6,1.4,5.5c0.5,2.6-0.2,3.3-2.8,3c-1.8-0.2-3.6-0.2-5.4-0.2c-42.7-0.1-85.4-0.2-128-0.3c-4.7,0-9.3,0.1-14,0.1
			c-2,0-3.3,0.6-3.8,2.9c-0.3,1.4-1.5,2.9-2.6,3.9c-5.8,5.6-11.3,11.6-18.9,14.9c-7.3,3.2-15,4.2-22.9,3.7c-2.3-0.2-4.8-0.1-6.9-1
			c-5.2-2-10.8-3.2-15.1-7.4c-2.3-2.2-5.4-3.5-7.5-5.7c-2.7-2.8-4.7-6.3-7.1-9.4c-0.5-0.6-1.3-1.2-2-1.3c-2.4-0.3-4.9-0.5-7.3-0.5
			c-26.7,0-53.4,0-80.2,0c-12.5,0-25.1-0.3-37.6-0.3c-6.7,0-13.5,0.5-20.2,0.7c-1.3,0-2.8,0.2-3.9-0.3c-0.8-0.3-1.9-1.7-1.7-2.5
			c0.6-3.6,1.4-7.2,2.6-10.7c2.3-7.3,4.5-14.6,7.4-21.7c3.3-8.1,7-16,11-23.8c2.7-5.2,6.3-9.9,9.6-14.9c0.2-0.2,0.4-0.5,0.5-0.7
			c0.5-5.1,5.1-7.1,7.8-10.6c3.2-4.1,6.5-8.1,10-11.8c3.4-3.6,7.1-7,10.7-10.4c7.5-7.1,15.4-13.9,24.2-19.4c5-3.1,10.3-5.7,15.5-8.5
			c3.6-1.9,7.1-3.9,10.7-5.6c5.3-2.4,10.1-5.6,15.9-7c6.7-1.7,13.1-4.1,19.7-6.2c1.4-0.4,3-0.5,4.5-0.9c12.1-2.9,24.3-4.4,36.7-4.6
			 M516,63.7c-4.2-0.6-8.5-1.2-12.7-1.3c-10.8-0.2-21.7-0.4-32.5,0c-7.4,0.3-14.9,1.2-22.2,2.7c-8.2,1.7-16.3,4.3-24.4,6.6
			c-1.3,0.4-2.6,0.9-3.9,1.4c-3,1.3-6,2.6-9.1,3.9c-4.6,1.9-9.2,3.7-13.7,5.8c-3.9,1.9-7.6,4-11.2,6.3c-5.1,3.1-10.2,6.1-14.9,9.7
			c-5,3.8-9.8,8.1-14.3,12.5c-7.4,7.3-14.9,14.5-21.5,22.5c-5.8,7.1-10.6,15.1-15.4,23c-3.8,6.3-7.2,12.9-10.1,19.7
			c-3,6.8-5.4,13.9-7.8,21c-0.9,2.5-1,5.5-1.5,8.8c2.7,0,4.7,0,6.6,0c43.6,0,87.3,0,130.9,0c2.4,0,4.8-0.2,7.1,0.2
			c1.3,0.2,2.7,1.1,3.5,2.2c1.8,2.3,3.2,4.9,4.7,7.4c1.9,3.3,5.3,5.2,8,7.7c7.3,6.6,16.5,9,26.4,8.2c2.1-0.2,4.2-0.4,6.2-1
			c3.8-1.2,7.8-2.3,11.2-4.4c3.7-2.2,6.9-5.2,10-8.2c2-2,4.3-4.4,4.9-6.9c0.9-3.4,1.6-5,5.4-5c5.5-0.1,11-0.1,16.5-0.1
			c41.3,0,82.5,0,123.8,0c1.5,0,3-0.1,4.6-0.2c-0.1-1-0.1-1.6-0.3-2.2c-1.3-4.5-2.9-8.9-4.1-13.5c-2.5-9.3-7.3-17.6-11.1-26.2
			c-2.3-5.1-6-9.6-8.7-14.5c-5.6-10.2-12.8-19.1-21-27.3c-2.6-2.6-4.7-6.1-8.7-7.3c-0.6-0.2-0.9-1.2-1.3-1.9
			c-0.3-0.5-0.4-1.3-0.8-1.7c-3.1-2.7-6.2-5.4-9.4-8.1c-8-6.6-16.2-12.7-25.7-17.1c-8.9-4.1-17.7-8.5-26.7-12.5
			c-4.3-1.9-9-2.8-13.5-4.4"/>
		<path id="XMLID_228_" class="st0" d="M476.1,741.1c-0.5-0.2-1.1-0.5-1.6-0.5c-6.5-0.6-12.9-1.1-19.4-1.7c-1.7-0.2-3.3-0.8-5-1.1
			c-4.3-0.8-8.5-1.5-12.8-2.3c-4.4-0.8-8.9-1.7-13.3-2.6c-0.8-0.2-1.5-1.1-2.3-1.6c-1.6-1-3.3-2-5-2.8c-6.2-2.6-12.6-4.7-18.7-7.6
			c-4.5-2.1-8.7-5.1-13-7.6c-2.8-1.6-5.6-3.2-8.4-4.8c-0.7-0.4-1.3-0.9-2-1.4c-1.4-1-3-1.8-4.3-2.9c-2.8-2.2-5.5-4.6-8.3-6.9
			c-3.3-2.8-6.5-5.6-9.8-8.4c-1-0.8-1.9-1.7-2.9-2.4c-1.6-1.3-3.5-2.3-5-3.7c-2.2-2.3-4.1-5-6.2-7.5c-2.8-3.3-5.6-6.6-8.3-9.9
			c-2.6-3.3-5.2-6.6-7.7-10c-2.6-3.6-5.3-7.1-7.3-11c-4.7-9-9-18.2-13.5-27.3c-3.9-7.9-5.9-16.3-7.5-24.8c-0.4-2.4-1.5-4.8-2.2-7.1
			c-0.5-1.6,0-2.6,1.9-2.6c4.1,0,8.2,0,12.3,0c102.5,0,205,0,307.5,0c21.1,0,42.2,0,63.3,0c2.2,0,2.9,1.5,2.1,3.7
			c-0.5,2.9-0.8,5.2-2,9.3c-1.3,5.3-3.2,10.4-5.1,15.3c-3,7.8-7,15.3-10.5,22.9c-1.7,3.6-4,6.8-5.1,10.8c-0.8,3-3.6,5.6-5.6,8.3
			c-4.1,5.4-8,10.9-12.4,16c-4,4.6-8.7,8.7-12.9,13.1c-1.5,1.5-2.5,3.5-4,5c-3.6,3.5-7.4,7-11.2,10.3c-2.3,2.1-4.6,4.2-7.2,5.9
			c-4.4,2.9-8.7,5.9-13.5,8.3c-2.8,1.4-5.5,3-8.3,4.5c-4.5,2.4-9,5-13.6,7.3c-2.5,1.2-5.3,1.7-7.9,2.7c-1.9,0.8-3.8,1.9-5.6,2.8
			c-2.8,1.4-5.6,2.8-8.4,4.2c-0.2,0.1-0.5,0.1-0.8,0.2c-4.4,0.9-8.9,1.3-13.2,2.6c-8.3,2.6-16.7,3.2-25.2,3.6
			c-2.5,0.1-5,1.2-7.5,1.9C491.3,741.1,483.7,741.1,476.1,741.1z M659.6,589.2c-2.2-0.1-4.4,0-6.6,0c-39.1-0.1-78.1-0.3-117.2-0.3
			c-41,0-81.9,0.3-122.9,0.4c-35.8,0.1-71.7,0-107.5-0.1c-0.8,0-1.5,0-2.3-0.1c-2.2-0.5-2.9,0.5-2.3,2.4c1.9,6.5,3.6,13.1,5.9,19.4
			c1.4,3.8,4.3,7.2,5.4,11c2.5,8.7,7.5,16,12,23.6c4.6,7.6,9.4,15.1,16,21.3c3.3,3.1,5.9,7,9.1,10.3c3,3.1,6.4,5.8,9.6,8.7
			c4.1,3.6,8.1,7.6,12.5,10.8c5.7,4.2,11.8,8,17.9,11.8c3.2,2,6.6,3.7,10,5.2c3,1.4,6.1,2.3,9.1,3.5c2.3,0.9,4.4,2.1,6.7,2.9
			c5.2,2.1,10.4,4.2,15.7,6c3.9,1.3,7.9,2,11.9,2.8c8.6,1.5,17.1,3.5,25.7,4.1c16.8,1.3,33.6,1.2,50.2-1.8c4.5-0.8,9-1.8,13.5-3
			c4-1,7.8-2.4,11.7-3.6c3.5-1.1,7-2.1,10.4-3.5c5-2.1,9.9-4.6,14.9-7c4.3-2,8.6-4,12.7-6.2c4.4-2.5,8.8-5.1,12.9-8
			c4.1-2.8,8-5.9,11.8-9.1c4.2-3.6,8.1-7.4,12.1-11.1c3.7-3.5,7.5-7,10.9-10.7c3.2-3.6,6.2-7.4,9-11.3c3.9-5.6,7.7-11.4,11.2-17.3
			c2.6-4.4,4.8-9.1,7.1-13.7c1.9-3.8,3.8-7.5,5.5-11.4c2.2-5.3,4.1-10.7,6-16.1c1.1-3.1,1.8-6.2,2.9-10.1"/>
		<path id="XMLID_225_" class="st1" d="M481.2,331.9c0,3.6,0,6.8,0,10.1c0,14.2,0,28.3,0,42.5c0,3.4-0.3,3.6-3.8,3.6
			c-3.9,0-4.1-0.1-4.1-3.6c0-43.1,0-86.1,0-129.2c0-3.6,0.2-3.7,3.7-3.7c14.5,0,29.1-0.1,43.6,0.1c5.4,0.1,10.9,0,16.1,1.4
			c11.6,3,20.9,8.7,24.4,21.5c2.4,8.6,3.2,17.3,1.8,25.7c-1.7,10.3-5.6,20.2-15.6,25.8c-3.7,2.1-7.8,3.4-11.8,5.2
			c10,18.5,20.2,37.3,30.7,56.7c-3.2,0-5.5,0.1-7.8,0c-0.5,0-1.2-0.6-1.4-1c-5-9.1-9.9-18.3-14.9-27.4c-3.8-6.8-7.6-13.6-11.4-20.4
			c-0.6-1.1-1.6-2-1.8-3.1c-0.7-3.7-2.9-4.2-6.3-4.1c-12.7,0.2-25.5,0.1-38.2,0.1C483.5,331.9,482.5,331.9,481.2,331.9z M481.1,324
			c0.6,0.1,1.1,0.2,1.5,0.2c12.7,0,25.5,0,38.2,0c6.1,0,12.1-0.4,17.7-2.7c3.7-1.5,7.1-3.4,9.6-6.9c6.1-8.5,8.1-18.1,7.4-28.1
			c-0.3-4.6-2-9.2-4-13.4c-1.9-4.1-4.7-7.7-9.1-9.8c-5.4-2.6-11-3.8-16.9-3.9c-13.4-0.1-26.8-0.1-40.2-0.1c-1.5,0-2.9,0-4.4,0
			C481.1,281.1,481.1,302.4,481.1,324z"/>
		<path id="XMLID_222_" class="st1" d="M471.5,475.8c0,3.8,0.3,7.6-0.1,11.4c-0.5,6-1.7,11.9-2.2,17.8c-0.6,8-4.2,15-7.7,21.9
			c-2.1,4.1-5.3,7.6-9.6,9.6c-4.4,2.1-9,4-13.5,5.8c-1.9,0.7-4,1.2-6,1.4c-5.5,0.5-11.1,1-16.7,1.1c-4.2,0-8.5-0.2-12.7-1
			c-9.6-1.9-19-4.9-25.8-12.4c-3.4-3.8-5.5-8.8-7.9-13.4c-2.2-4.3-3-9.1-4.1-13.9c-3.1-14.4-2.4-29-1.9-43.5
			c0.2-6.1,2.3-12.1,3.2-18.1c1.4-8.8,5.6-16.4,10.7-23.3c2.2-2.9,5.9-4.8,9.2-6.8c6.7-4.2,14.1-6.3,22.1-6.3
			c3.8,0,7.8-1.3,11.5-0.9c8.8,1,17.7,1.3,25.9,5.6c8.3,4.3,14.5,10.2,17.9,18.8c2.3,5.7,4.2,11.4,5.4,17.5
			C471.2,456.7,471.6,466.2,471.5,475.8z M372.1,476.2h0.1c0,6.5-0.6,13,0.2,19.4c0.8,6.6,2.6,13,4.6,19.4c1.5,4.8,3.8,9.4,8,12.9
			c8.4,7.2,18.5,8.9,28.9,9.5c5.5,0.3,11.1-0.5,16.7-1c2.8-0.3,5.6-0.6,8.3-1.5c11.7-4,18.5-12.6,21.3-24.2
			c1.6-6.5,1.9-13.4,2.8-20.1c1.2-9.4,0.9-18.7-0.1-28c-0.3-2.3,0.2-4.6-0.3-6.8c-1.4-6.3-2-12.7-4.5-18.8
			c-2.2-5.5-4.7-10.6-9.1-14.6c-8-7.4-18-8.6-28.1-9.5c-6.9-0.6-13.8,0.7-20.7,2.2c-5,1.1-9.2,3.7-13.2,6.6
			c-5.4,4-7.8,9.9-10.3,15.9c-2.8,6.7-3.4,13.7-4.3,20.6C371.4,464,372.1,470.1,372.1,476.2z"/>
		<path id="XMLID_221_" class="st1" d="M334.6,380.4c3.2,0,6.8,0.1,10.4-0.1c0.7,0,1.7-0.8,1.9-1.4c1-3.2,1.7-6.6,2.6-9.9
			c1-3.8,2.1-7.6,3.1-11.4s2-7.5,3.1-11.3c0.9-3.4,1.8-6.8,2.8-10.2c1.1-3.7,2.2-7.3,3.3-10.9c1.5-5.1,2.9-10.2,4.3-15.3
			c1.1-3.8,2-7.7,3.1-11.6c1.4-4.8,2.9-9.6,4.3-14.4c1.1-3.7,2-7.4,3-11.1c0.5-1.7,0.9-3.4,1.4-5.1c1.2-4.5,2.3-9,3.8-13.3
			c0.4-1.1,1.9-2.3,3.1-2.7c1.7-0.5,3.6-0.1,5.9-0.1c-1.8,5.7-3.5,10.7-4.9,15.8c-1.4,5.2-2.5,10.4-3.9,15.6
			c-1.4,5-3.2,9.9-4.6,14.8c-1,3.5-1.8,7.2-2.7,10.7c-0.9,3.3-1.8,6.7-2.8,10c-1.1,4-2.2,8-3.4,12c-1.4,4.7-2.8,9.4-4.2,14.1
			c-1,3.5-2,7-3,10.4c-1.1,4-2.3,8-3.4,12c-0.9,3.4-1.8,6.8-2.7,10.1c-0.9,3.3-1.7,6.5-2.7,9.7c-0.1,0.5-1.2,0.9-1.8,0.9
			c-6.6,0.1-13.1,0.2-19.7,0.2c-2.6,0-2.8-2.5-3.3-4c-2.2-6.8-4-13.7-5.9-20.5c-1-3.7-1.8-7.4-2.8-11.1c-1.4-4.9-2.9-9.7-4.4-14.6
			c-1-3.6-2-7.2-3-10.7c-0.9-3.5-1.8-7-2.8-10.5c-1-3.7-2.2-7.4-3.3-11.1c-1.1-3.8-2.3-7.6-3.3-11.5c-1-3.7-1.8-7.4-2.9-11.1
			c-1-3.4-2.1-6.8-3.2-10.3c-0.6-1.8-1.1-3.6-1.6-5.3c-1.2-4.3-2.3-8.5-3.5-12.8c-0.5-1.8,0-3,2.2-2.9c0.3,0,0.6,0,0.9,0
			c4.5,0.1,5.3,1,5.8,5.6c0.2,1.7,0.8,3.4,1.3,5.1c1.6,6,3.2,12,4.9,18c1.4,4.8,3.1,9.4,4.5,14.2c1.1,3.6,1.8,7.4,2.9,11
			c1.3,4.8,2.8,9.6,4.2,14.4c1.1,3.7,2.1,7.4,3.1,11.1c0.9,3.4,1.9,6.8,2.8,10.3c1.1,4,2.1,8,3.2,12c0.5,1.9,1.2,3.7,1.7,5.6
			C330.5,365.9,332.5,372.9,334.6,380.4z"/>
		<path id="XMLID_220_" class="st1" d="M633.3,414.1c0,23,0,45.6,0,68.3c0,19,0,38,0.1,57c0,2.6-0.7,3.5-3.3,3.4
			c-6.5-0.2-5.6,0.6-5.6-5.7c0-39.9,0-79.8,0.1-119.8c0-2.2-0.8-2.7-2.8-2.7c-13,0.1-26,0.2-39.1,0.2c-4.6,0-6.1-2-4.9-6.3
			c0.2-0.5,1.2-1.1,1.8-1.2c1.9-0.2,3.8-0.1,5.7-0.1c30.1,0,60.3,0,90.4,0c2.4,0,4.3,0,4.1,3.3c-0.2,3.4-0.7,4.2-4.2,4.1
			c-13.3-0.2-26.5-0.5-39.8-0.7C635,414,634.3,414.1,633.3,414.1z"/>
		<path id="XMLID_219_" class="st1" d="M298.6,535.1c6.9,0,13.4,0,19.8,0c14.2,0,28.3,0,42.5,0.1c0.8,0,1.5,0,2.3,0.1
			c3.7,0.5,5.2,2.8,3.8,6.3c-0.2,0.6-1.6,1.1-2.5,1.1c-5,0.1-10.1,0.1-15.1,0.1c-18.4,0-36.7-0.1-55.1,0.1c-2.7,0-3.8-0.5-3.8-3.5
			c0.1-43.1,0.1-86.1,0-129.2c0-2.2,0.6-3,2.8-2.7c0.5,0.1,0.9,0,1.4,0c3.8,0,3.8,0,3.8,3.7c0,40.4,0,80.8,0,121.2
			C298.6,533.1,298.6,533.9,298.6,535.1z"/>
		<path id="XMLID_218_" class="st1" d="M557.9,251.8c2.5,0,4.3,0,6.2,0c37.6,0,75.2,0,112.9,0c2.4,0,3.4,1,3.1,3.2
			c-0.2,1.9,0.9,4.4-2.9,4.4c-36.5-0.1-73-0.2-109.4,0.1C561.9,259.5,560.8,255.7,557.9,251.8z"/>
		<path id="XMLID_217_" class="st1" d="M448.6,407.8c1.2-0.6,2-1.3,2.9-1.3c13.1,0,26.2,0,39.3,0.1c25.3,0.2,50.5,0.5,75.8,0.7
			c3,0,3.1,1.4,3.2,3.6c0.1,2.6-0.9,3.2-3.3,3.2c-22.3-0.1-44.7-0.1-67,0c-12.5,0.1-25.1,0.2-37.6,0.7c-4.1,0.1-6.4-2.7-9.4-4.3
			C451.4,409.8,450.4,409.1,448.6,407.8z"/>
		<path id="XMLID_216_" class="st1" d="M565.2,380.4c1.8,0,3.1,0,4.5,0c35.8,0,71.6,0,107.4-0.1c2.3,0,3.2,0.7,2.8,2.9
			c-0.3,2,1.2,4.8-2.8,4.8c-34.7-0.1-69.3-0.1-104-0.1C568.7,388,567.6,386.5,565.2,380.4z"/>
		<path id="XMLID_215_" class="st1" d="M358.6,380.4c2.1,0,4,0,6,0c33.5,0,67.1,0,100.6,0c1.2,0,3.4,0.4,3.5,0.9
			c0.3,2,0.1,4.1-0.3,6.1c-0.1,0.3-1.7,0.6-2.5,0.6c-15.5,0-31,0.1-46.5,0.1c-19.8,0-39.5-0.1-59.3-0.1c-3.4,0-4.1-1.3-2.7-4.4
			C357.8,382.7,358.1,381.7,358.6,380.4z"/>
		<path id="XMLID_214_" class="st1" d="M625,289.7c17.2,0,34.4,0,51.6,0c1.1,0,3.1,0.5,3.1,0.9c0.2,2,0,4.1-0.3,6.1
			c0,0.3-1.5,0.5-2.3,0.5c-24,0.1-47.9,0.1-71.9,0.1c-10.4,0-20.7,0-31.1,0.1c-4,0-6.2-3-4.4-6.6c0.3-0.7,1.9-1.1,2.8-1.1
			c6.8-0.1,13.7,0,20.5,0C603.7,289.7,614.4,289.7,625,289.7z"/>
		<path id="XMLID_213_" class="st1" d="M522,452c-14.6,0-29.3,0-43.9,0c-1.5,0-3.6,0.7-3.5-2.3c0.1-5.2,0-5.2,3.3-5.2
			c16.7-0.1,33.5-0.2,50.2-0.1c13,0.1,25.9,0.7,38.9,0.9c2.4,0,2.8,1.1,2.8,3.2s0,3.6-2.9,3.6C551.8,451.9,536.9,452,522,452z"/>
		<path id="XMLID_212_" class="st1" d="M425.6,297.4c-13.4,0-26.8,0-40.2,0c-2,0-2.7-0.7-2.7-2.7c0-3.6,1.3-5.1,4.8-5.1
			c26,0,52.1,0,78.1,0c1.1,0,3.1,0.5,3.1,1c0.2,2,0,4.1-0.3,6.1c0,0.3-1.5,0.4-2.4,0.4C452.5,297.3,439,297.3,425.6,297.4
			C425.6,297.3,425.6,297.3,425.6,297.4z"/>
		<path id="XMLID_211_" class="st1" d="M430.8,259.3c-11.5,0-23,0-34.5,0c-2.2,0-2.9-1-2.7-3c0.3-2.8,2.2-4.5,5-4.5
			c21.7,0,43.5-0.1,65.2-0.1c4,0,5.9,2.4,4.1,6c-0.4,0.9-2.3,1.4-3.6,1.4c-11,0.1-22,0.1-33,0.1C431.2,259.3,431,259.3,430.8,259.3
			L430.8,259.3z"/>
		<path id="XMLID_210_" class="st1" d="M617.1,564.2c0-3.7,0.1-7.4,0-11c-0.1-1.9,0.6-2.7,2.4-2.5c1.7,0.1,3.9-0.4,3.8,2.5
			c0,3.4,0,6.8,0,10.3c0,3.2-0.1,6.5-0.1,9.7c0,2.1-0.9,2.8-2.9,2.8c-5.5,0.2-5.5,0.2-7.1-5c-0.7-2.4-1.7-4.7-3-7c0,3-0.1,6.1,0,9.1
			c0.1,2.1-0.6,3-2.7,2.9c-2-0.1-3.4-0.1-3.4-2.8c0.1-6.6-0.1-13.3-0.4-19.9c-0.1-1.8,0.6-2.4,2.2-2.4c0.9,0,1.7,0,2.6,0
			c3.7,0,4.2,0.5,5.1,4c0.8,3.2,1.9,6.4,2.8,9.6C616.6,564.3,616.9,564.2,617.1,564.2z"/>
		<path id="XMLID_207_" class="st1" d="M353.9,576.9c-5.2-0.8-9-2.5-9.2-9c-0.1-3.2,0-6.4,0.1-9.5c0-4.5,5-9.9,11.5-7.8
			c5.6,1.8,6.7,3.6,7.6,9.6c0.4,2.7,0.1,5.1-0.1,7.6C363.2,573.9,359.9,576.5,353.9,576.9z M358.7,563.9c-0.3-1.8-0.7-3.7-1-5.5
			c-0.3-2.2-2.3-3.2-3.7-3.1c-1.2,0.1-3,1.7-3.5,3c-1.5,3.7-1.2,7.7,0.4,11.3c0.6,1.4,2.2,2.5,4.4,1.5
			C358.8,569.6,358.4,566.7,358.7,563.9z"/>
		<path id="XMLID_206_" class="st1" d="M674.8,571.3c-0.3-1.7,1-3.7-1.8-4.5c-0.5-0.1-0.7-2.4-0.6-3.6c0.1-0.5,1.3-1.3,2-1.3
			c6.5-0.7,6.9-0.2,6.3,6.4c-0.1,1.5-0.3,3.1-0.1,4.5c0.3,2.1-0.3,2.9-2.5,3c-1.6,0.1-3.1,0.8-4.7,0.9c-6,0.3-9.8-2.4-10.7-8.5
			c-0.6-4.2-1-8.6,0.8-12.9c1.8-4.3,6.7-6.6,11-5.1c1,0.4,2.2,0.4,3.4,0.4c2.1,0,3.1,0.7,3,3c-0.1,2.4-1.5,2.6-3.2,2.5
			c-1.5-0.1-3-0.3-4.5-0.5c-2.5-0.3-4.2,1-4.4,3.6s-0.3,5.3-0.1,7.9C669,570.8,670.7,571.9,674.8,571.3z"/>
		<path id="XMLID_205_" class="st1" d="M510.1,568.2c0.9-5,2-10,2.8-15c0.5-3.4,2.9-2.4,4.7-2.5c2.4,0,1.8,1.8,1.5,3.1
			c-1,4.3-2.1,8.6-3.2,13c-0.6,2.5-1.1,5-1.8,7.4c-0.2,0.6-1,1.4-1.6,1.5c-2.2,0.2-4.4,0.1-6.5-0.1c-0.6-0.1-1.5-0.9-1.6-1.6
			c-1.7-7-3.2-13.9-4.7-20.9c-0.1-0.7,0.7-2.2,1.1-2.2c1.7-0.1,4.1-1.2,4.8,1.4c1,3.9,1.7,7.9,2.5,11.9c0.3,1.4,0.8,2.8,1.2,4.2
			C509.6,568.4,509.9,568.3,510.1,568.2z"/>
		<path id="XMLID_138_" class="st1" d="M299.1,576.7c-5.3-0.1-8.8-2.8-9.3-8.5c-0.4-4.3,0.1-8.9,1.1-13.1c0.9-4,6.3-6.2,10.3-4.8
			c0.7,0.2,1.5,0.5,2.2,0.5c2.9-0.1,2.6,1.8,2.5,3.7c-0.1,2.3-1.8,1.7-3.1,1.6c-0.8-0.1-1.7-0.4-2.5-0.4c-3.1-0.1-4.3,1-4.5,4.1
			c-0.1,2.7-0.3,5.5,0,8.1c0.4,3.2,2.3,3.9,5.3,3.1c1.4-0.3,3-0.4,4.3,0.2c0.5,0.2,0.8,2.9,0.3,3.3c-1.4,1.1-3.3,1.7-5,2.4
			C300.3,577,299.7,576.8,299.1,576.7z"/>
		<path id="XMLID_137_" class="st1" d="M403.6,563.3c0-3.4,0.1-6.8,0-10.2c-0.1-2,0.9-2.5,2.6-2.4c1.6,0,2.7,0.3,2.7,2.4
			c-0.1,4.9,0.1,9.9-0.1,14.8c-0.1,2.1,0.4,3.1,2.6,2.7c1-0.1,2.1,0.1,3.1,0c2-0.2,3,0.4,3.1,2.6c0.1,2.3-1.1,2.7-3,2.7
			c-2.8-0.1-5.7-0.1-8.5,0c-1.8,0-2.6-0.7-2.5-2.5C403.7,570,403.6,566.7,403.6,563.3L403.6,563.3z"/>
		<path id="XMLID_136_" class="st1" d="M461.1,563.5c0,3.2,0,6.4,0,9.6c0,1.7-0.6,2.9-2.7,2.7c-1.9-0.1-2.9-0.5-2.8-2.8
			c0.1-6.5-0.1-13.1-0.3-19.6c-0.1-2,0.6-2.8,2.5-2.8s3.5,0.2,3.6,2.6c0.1,3.4,0,6.8,0,10.2C461.3,563.5,461.2,563.5,461.1,563.5z"
			/>
		<path id="XMLID_135_" class="st1" d="M558.2,563.1c0-3.4,0.1-6.8,0-10.3c-0.1-1.7,0.7-2.2,2.2-2.1c1.5,0,2.9,0,2.9,2.1
			c0,7,0,14,0.1,21.1c0,1.8-1.1,1.9-2.4,1.9s-2.8,0.2-2.8-1.9C558.2,570.3,558.2,566.7,558.2,563.1L558.2,563.1z"/>
	</g>
</g>
<g id="XMLID_56_">
</g>
<g id="XMLID_57_">
</g>
<g id="XMLID_58_">
</g>
<g id="XMLID_59_">
</g>
<g id="XMLID_60_">
</g>
<g id="XMLID_61_">
</g>
</svg>
