<?xml version="1.0" encoding="utf-8"?>
<!-- Generator: Adobe Illustrator 19.0.0, SVG Export Plug-In . SVG Version: 6.00 Build 0)  -->
<svg version="1.1" id="Layer_1" xmlns="http://www.w3.org/2000/svg" xmlns:xlink="http://www.w3.org/1999/xlink" x="0px" y="0px"
	 viewBox="-275.7000122 407 57.1000023 102" style="enable-background:new -275.7000122 407 57.1000023 102;" xml:space="preserve">
<style type="text/css">
	.st0{fill:#B36B40;}
	.st1{fill:#59585B;}
	.st2{enable-background:new    ;}
</style>
<path class="st0" d="M-247.5999908,407c-13.9999847,0.2000122-25.6000214,10.2000122-28.1999969,23.3999634h22.3999481
	c1.2000122,2.2000122,3.5,3.8000488,6.2000122,3.8000488s5.1000366-1.5,6.2000122-3.8000488h22.4000244
	c-2.7000122-13.6999512-14.2000122-22.7999878-28-23.3999634 M-241.5999908,429.2999878l-0.3000488,0.5999756
	c-1,2-3,3.2000122-5.1999512,3.2000122c-2.2000122,0-4.2000122-1.2999878-5.2000122-3.2000122l-0.2999878-0.5999756h-21.8000336
	c3-12.4000244,14.3000488-21.2999878,27.3000336-21.2999878h0.7999878
	c12.5999756,0.3999634,23.2999878,9.0999756,26.3999634,21.2999878H-241.5999908z"/>
<path id="XMLID_13_" class="st1" d="M-233.5000153,459.8999939v-1h14.8000031v1h-6.8000031v18.8999939h-1.0999908v-18.8999939
	H-233.5000153z M-263.5,476.3999939c-0.6000061-0.8999939-1-2-1.2000122-3.1000061
	C-264.9000244,472.0999756-265,470.6999817-265,468.8999939c0-3.5,0.5999756-6.1000061,1.6999817-7.6999817
	c1.1000061-1.7000122,3.2000122-2.5,6.2000122-2.5s5.0999908,0.7999878,6.1999969,2.5
	C-249.8000183,462.8999939-249.2000122,465.5-249.2000122,469c0,3.6000061-0.6000061,6.1000061-1.6999969,7.7000122
	C-252.0000153,478.2999878-254.1000214,479-257.2000122,479C-260.3000183,479-262.4000244,478.2000122-263.5,476.3999939z
	 M-262.7000122,475.7000122c0.5,0.7999878,1.2000122,1.3999634,2.1000061,1.7999878
	c0.8999939,0.3999939,2.1000061,0.6000061,3.5,0.6000061s2.5999908-0.1999817,3.5-0.5
	c0.8999939-0.3000183,1.5999908-0.8999939,2.0999908-1.6999817c0.5-0.8000183,0.8000031-1.7000122,1-2.8000183
	s0.3000031-2.3999939,0.3000031-4.1000061c0-3.2000122-0.5-5.5-1.3999939-7c-1-1.5-2.7000122-2.2999878-5.3999939-2.2999878
	c-2.7000122,0-4.6000061,0.7999878-5.5,2.5C-263,463-263.3000183,464-263.5,465
	c-0.2000122,1.1000061-0.3000183,2.3999939-0.3000183,4s0.1000061,2.8999939,0.3000183,4
	C-263.5,473.8999939-263.2000122,474.8999939-262.7000122,475.7000122z M-264.6000061,478.7999878h-11.2000122v-19.8999939
	h1.1000061v18.8999939h10.1000061C-264.6000061,477.7999878-264.6000061,478.7999878-264.6000061,478.7999878z
	 M-236.9000092,441.7999878c0-1.6000061-0.4000092-2.7999878-1.2000122-3.6000061
	c-0.7999878-0.6999817-2-1.1000061-3.6999969-1.1000061h-6.1999969v9.7000122h6.1999969
	C-238.5000153,446.7999878-236.9000092,445.0999756-236.9000092,441.7999878z M-247.9000092,447.7000122v8.1999817h-1v-19.8000183
	h7.1999969c2,0,3.5,0.5,4.5,1.4000244c1,0.8999634,1.5,2.2999878,1.5,4.2999878
	c0,3.2999878-1.4000092,5.2999878-4.1999969,5.7999878l4.5,8.4000244h-1.2000122l-4.5-8.2000122h-6.7999878V447.7000122z
	 M-265.8000183,455h16.1000061v1h-16.3999939L-265.8000183,455z M-260.5,436.0999756h10.6999817v1h-11L-260.5,436.0999756z
	 M-262,441.7000122h12.2999878v1h-12.6000061L-262,441.7000122z M-262.2000122,436.0999756h1l-5.6000061,19.8000183h-3.2999878
	l-5.6000061-19.8000183h1L-269.4000244,455h1.8000183L-262.2000122,436.0999756z M-235.4000092,455h16.7999878v1h-16.2999878
	L-235.4000092,455z M-236.5000153,436.0999756h17.9000092v1h-17.2000122L-236.5000153,436.0999756z M-234.7000122,441.7000122
	h16.1000061v1h-16.1000061V441.7000122z M-248.8000183,464.5h13.9000092v1h-13.8000031L-248.8000183,464.5z
	 M-252.6000061,458.8999939h17.6999969v1h-16.3000031L-252.6000061,458.8999939z"/>
<path id="XMLID_10_" class="st0" d="M-241.6000061,485.5999756h2.5h19.1999969
	c-3,12.2000122-13.8000031,20.9000244-26.3999939,21.3000183h-0.9000092c-12.8999939,0-24.2000122-8.8999939-27.2999878-21.3000183
	h14.2999878h7.4000092H-241.6000061z M-246.3000183,508c13.7000122-0.3999939,25.1000061-10.2999878,27.7000122-23.3999939h-20.5
	h-1.9000092h-1.1999969h-9.8999939h-1.2000122h-6.7999878h-1.7000122h-14C-273.1000061,497.9000244-261.4000244,508-247.2000122,508
	C-246.9000092,508-246.6000061,508-246.3000183,508z"/>
<g id="XMLID_9_" class="st2">
	<path class="st1" d="M-273.6455078,483.4781189c-0.3212891,0.0703125-0.6103516,0.1064453-0.8662109,0.1064453
		s-0.4624023-0.0380859-0.6201172-0.1142578s-0.2792969-0.1953125-0.3647461-0.3554688
		c-0.0859375-0.1621094-0.1455078-0.3457031-0.1782227-0.5546875s-0.0488281-0.46875-0.0488281-0.78125
		c0-0.3115234,0.0161133-0.5732422,0.0488281-0.7851562s0.0922852-0.3984375,0.1782227-0.5625
		c0.0854492-0.1621094,0.206543-0.28125,0.3623047-0.3554688c0.15625-0.0742188,0.3588867-0.1113281,0.6088867-0.1113281
		c0.2495117,0,0.5429688,0.0371094,0.8798828,0.1113281l-0.0141602,0.3300781
		c-0.3154297-0.0605469-0.5961914-0.0908203-0.8422852-0.0908203c-0.34375,0-0.5703125,0.1103516-0.6811523,0.3330078
		s-0.1665039,0.6015625-0.1665039,1.1367188c0,0.2675781,0.0102539,0.4824219,0.0307617,0.6455078
		c0.0200195,0.1630859,0.0600586,0.3095703,0.1191406,0.4404297c0.0595703,0.1298828,0.1459961,0.2226562,0.2597656,0.2792969
		c0.1137695,0.0556641,0.2807617,0.0839844,0.5009766,0.0839844s0.4799805-0.03125,0.7792969-0.0917969L-273.6455078,483.4781189z"
		/>
</g>
<g id="XMLID_8_" class="st2">
	<path class="st1" d="M-265.1665039,481.8003845c0,0.6269531-0.0922852,1.0810547-0.2763672,1.3623047
		s-0.5185547,0.421875-1.0039062,0.421875s-0.8198242-0.1435547-1.0039062-0.4326172
		c-0.184082-0.2871094-0.2763672-0.7412109-0.2763672-1.359375c0-0.6191406,0.09375-1.078125,0.28125-1.3789062
		c0.1870117-0.2998047,0.5195312-0.4492188,0.996582-0.4492188c0.4775391,0,0.8105469,0.1484375,0.9995117,0.4472656
		S-265.1665039,481.1724548-265.1665039,481.8003845z M-267.3569336,481.7896423
		c0,0.5146484,0.0620117,0.8857422,0.1870117,1.1103516c0.125,0.2265625,0.3657227,0.3388672,0.7231445,0.3388672
		s0.5976562-0.1103516,0.7207031-0.3310547c0.1235352-0.2197266,0.1850586-0.5898438,0.1850586-1.1074219
		c0-0.5195312-0.0639648-0.8974609-0.1918945-1.1347656s-0.3671875-0.3554688-0.7182617-0.3554688
		s-0.5898438,0.1171875-0.7163086,0.3535156C-267.2939453,480.8990173-267.3569336,481.2749939-267.3569336,481.7896423z"/>
</g>
<g id="XMLID_7_" class="st2">
	<path class="st1" d="M-257.2446289,483.533783h-1.7832031v-3.5185547h0.3603516v3.1679688h1.4228516V483.533783z"/>
</g>
<g id="XMLID_6_" class="st2">
	<path class="st1" d="M-251.3071442,483.533783v-3.5185547h0.3603516v3.5185547H-251.3071442z"/>
</g>
<g id="XMLID_5_" class="st2">
	<path class="st1" d="M-242.7109528,480.0152283h0.375l-0.8476562,3.5185547h-0.8046875l-0.8476562-3.5185547h0.375
		l0.7441406,3.1728516h0.2617188L-242.7109528,480.0152283z"/>
</g>
<g id="XMLID_4_" class="st2">
	<path class="st1" d="M-236.2724762,483.533783v-3.5185547h0.3603516v3.5185547H-236.2724762z"/>
</g>
<g id="XMLID_3_" class="st2">
	<path class="st1" d="M-229.5156403,483.533783v-3.5185547h0.6738281l1.2402344,3.1728516h0.0986328v-3.1728516h0.3554688v3.5185547
		h-0.6591797l-1.2597656-3.1728516h-0.0888672v3.1728516H-229.5156403z"/>
</g>
<g id="XMLID_2_" class="st2">
	<path class="st1" d="M-219.5254059,482.0845642v-0.3505859h0.8945312v1.7285156
		c-0.3925781,0.0820312-0.7441406,0.1220703-1.0527344,0.1220703c-0.4716797,0-0.7988281-0.1474609-0.9804688-0.4423828
		c-0.1835938-0.2949219-0.2744141-0.75-0.2744141-1.3652344s0.0908203-1.0712891,0.2744141-1.3681641
		c0.1816406-0.2958984,0.5058594-0.4443359,0.9707031-0.4443359c0.2910156,0,0.5917969,0.0332031,0.9033203,0.1015625
		l0.1591797,0.0302734l-0.0136719,0.3251953c-0.3867188-0.0703125-0.7226562-0.1064453-1.0058594-0.1064453
		c-0.359375,0-0.6015625,0.1123047-0.7265625,0.3378906s-0.1875,0.6005859-0.1875,1.1240234s0.0625,0.8984375,0.1875,1.1230469
		c0.125,0.2265625,0.3652344,0.3388672,0.7207031,0.3388672c0.21875,0,0.4414062-0.0244141,0.6699219-0.0712891v-1.0830078
		H-219.5254059z"/>
</g>
</svg>
