<?xml version="1.0" encoding="utf-8"?>
<!-- Generator: Adobe Illustrator 19.0.0, SVG Export Plug-In . SVG Version: 6.00 Build 0)  -->
<svg version="1.1" id="Layer_1" xmlns="http://www.w3.org/2000/svg" xmlns:xlink="http://www.w3.org/1999/xlink" x="0px" y="0px"
	 viewBox="-113.3 355.2 354.8 85.5" style="enable-background:new -113.3 355.2 354.8 85.5;" xml:space="preserve">
<style type="text/css">
	.st0{fill-rule:evenodd;clip-rule:evenodd;fill:#A6CE39;}
	.st1{fill-rule:evenodd;clip-rule:evenodd;fill:#006D38;}
	.st2{fill:#65696E;}
	.st3{fill:#A6CE39;}
</style>
<g>
	<g>
		<path class="st0" d="M-31,394.1v-22.2c0-9.2-7.5-16.7-16.7-16.7h-4v10c0,13.8-11.2,25-25,25h-9.9v4c0,9.2,7.5,16.7,16.7,16.7h22.2
			C-38.4,410.7-31,403.3-31,394.1"/>
		<path class="st1" d="M-59.9,365.1v-9.9h-9.9c-9.2,0-16.7,7.5-16.7,16.7v9.9h9.9C-67.4,381.8-59.9,374.3-59.9,365.1"/>
		<path class="st1" d="M-106.3,362.8h-7.1v7.1c0,6.5,5.3,11.9,11.9,11.9h7.1v-7.1C-94.4,368.1-99.7,362.8-106.3,362.8"/>
	</g>
	<g>
		<path class="st2" d="M21,371c0,0.2,0,0.4-0.1,0.5l-8.9,32.1c-0.4,1.3-0.9,2.4-1.5,3.2c-0.6,0.8-1.3,1.5-2.1,2
			c-0.8,0.5-1.6,0.8-2.5,1.1c-0.9,0.2-1.8,0.3-2.7,0.3c-0.9,0-1.8-0.1-2.7-0.3c-0.9-0.2-1.7-0.6-2.5-1.1c-0.8-0.5-1.5-1.2-2.1-2
			c-0.6-0.8-1.1-1.9-1.4-3.2l-8.9-32.1c0-0.1-0.1-0.3-0.1-0.5c0-0.8,0.4-1.1,1.1-1.1h7.1c0.7,0,1.2,0.5,1.4,1.4l6.8,29.5
			c0.1,0.7,0.3,1.1,0.6,1.4c0.2,0.3,0.5,0.4,0.8,0.4c0.3,0,0.5-0.1,0.8-0.4c0.2-0.3,0.4-0.7,0.6-1.4l6.8-29.5
			c0.2-0.9,0.7-1.4,1.5-1.4h7.1C20.7,369.9,21,370.2,21,371z"/>
		<path class="st2" d="M38.1,363.2c0,0.4-0.1,0.7-0.4,1c-0.3,0.3-0.6,0.4-1,0.4h-6.8c-0.4,0-0.7-0.1-1-0.4c-0.3-0.3-0.5-0.6-0.5-1
			v-6.2c0-0.4,0.2-0.7,0.5-1c0.3-0.3,0.6-0.4,1-0.4h6.8c0.4,0,0.7,0.1,1,0.4c0.3,0.3,0.4,0.6,0.4,1V363.2z M37.8,408.2
			c0,0.4-0.1,0.7-0.4,1c-0.3,0.3-0.6,0.5-1,0.5h-6.5c-0.4,0-0.7-0.2-1-0.5c-0.3-0.3-0.4-0.6-0.4-1v-36.9c0-0.4,0.1-0.7,0.4-1
			c0.3-0.3,0.6-0.4,1-0.4h6.5c0.4,0,0.7,0.1,1,0.4c0.3,0.3,0.4,0.6,0.4,1V408.2z"/>
		<path class="st2" d="M80.9,371c0,0.2,0,0.4-0.1,0.5l-8.9,32.1c-0.4,1.3-0.9,2.4-1.5,3.2c-0.6,0.8-1.3,1.5-2.1,2
			c-0.8,0.5-1.6,0.8-2.5,1.1c-0.9,0.2-1.8,0.3-2.7,0.3c-0.9,0-1.8-0.1-2.7-0.3c-0.9-0.2-1.7-0.6-2.5-1.1c-0.8-0.5-1.5-1.2-2.1-2
			c-0.6-0.8-1.1-1.9-1.4-3.2l-8.9-32.1c0-0.1-0.1-0.3-0.1-0.5c0-0.8,0.4-1.1,1.1-1.1h7.1c0.7,0,1.2,0.5,1.4,1.4l6.8,29.5
			c0.1,0.7,0.3,1.1,0.6,1.4c0.2,0.3,0.5,0.4,0.8,0.4c0.3,0,0.5-0.1,0.8-0.4c0.2-0.3,0.4-0.7,0.6-1.4l6.8-29.5
			c0.2-0.9,0.7-1.4,1.5-1.4h7.1C80.5,369.9,80.9,370.2,80.9,371z"/>
		<path class="st2" d="M119.5,399.8c-0.6,1.9-1.4,3.4-2.3,4.7c-0.9,1.3-2,2.3-3.2,3c-1.2,0.8-2.4,1.3-3.6,1.7
			c-1.2,0.4-2.3,0.7-3.4,0.8c-1.1,0.1-1.9,0.2-2.6,0.2h-0.4c-0.7,0-1.6-0.1-2.6-0.2c-1.1-0.1-2.2-0.4-3.4-0.8
			c-1.2-0.4-2.4-1-3.6-1.7c-1.2-0.8-2.3-1.8-3.2-3c-0.9-1.3-1.7-2.8-2.3-4.7c-0.6-1.8-0.9-4-0.9-6.6v-21.8c0-0.4,0.1-0.7,0.4-1
			c0.3-0.3,0.6-0.5,1-0.5h6.6c0.4,0,0.7,0.2,1,0.5c0.3,0.3,0.4,0.6,0.4,1v21.8c0,1.8,0.2,3.3,0.5,4.5c0.3,1.2,0.8,2.1,1.4,2.8
			c0.6,0.7,1.3,1.1,2.1,1.4c0.8,0.3,1.8,0.4,2.8,0.4h0.4c1,0,2-0.1,2.8-0.4c0.8-0.3,1.5-0.7,2.1-1.4c0.6-0.7,1-1.6,1.4-2.8
			c0.3-1.2,0.5-2.7,0.5-4.5v-21.8c0-0.4,0.1-0.7,0.4-1c0.3-0.3,0.6-0.5,1-0.5h6.6c0.4,0,0.7,0.2,1,0.5c0.3,0.3,0.4,0.6,0.4,1v21.8
			C120.4,395.7,120.1,397.9,119.5,399.8z"/>
		<path class="st2" d="M157.1,399.2c0,1.6-0.3,3-0.8,4.3c-0.6,1.3-1.4,2.5-2.6,3.5c-1.2,1-2.6,1.8-4.3,2.3c-1.7,0.6-3.8,0.8-6.1,0.8
			c-0.7,0-1.6,0-2.6-0.1c-1,0-2.1-0.1-3.3-0.2c-1.2-0.1-2.4-0.3-3.5-0.4c-1.2-0.2-2.3-0.4-3.2-0.7c-0.9-0.2-1.3-0.8-1.3-1.6v-4.3
			c0-0.3,0.1-0.5,0.3-0.8c0.2-0.2,0.5-0.4,0.9-0.4h0.3c0.8,0.1,1.8,0.2,3,0.3c1.2,0.1,2.3,0.2,3.4,0.2c1.1,0.1,2.2,0.1,3.2,0.2
			c1,0,1.7,0.1,2.3,0.1c1.1,0,2-0.1,2.6-0.2c0.7-0.2,1.2-0.4,1.5-0.7c0.4-0.3,0.6-0.7,0.7-1.1c0.1-0.4,0.2-0.9,0.2-1.3
			c0-0.7-0.2-1.2-0.7-1.8c-0.5-0.5-1.3-1.1-2.4-1.8l-9.7-5.9c-1.7-1.1-3.2-2.5-4.3-4.1c-1.1-1.7-1.7-3.5-1.7-5.6
			c0-7,4.5-10.6,13.4-10.6c1.4,0,2.7,0,3.8,0.1c1.2,0.1,2.2,0.2,3.2,0.3c1,0.1,1.9,0.3,2.8,0.5c0.9,0.2,1.8,0.3,2.7,0.5
			c0.8,0.2,1.3,0.8,1.3,1.6v4.1c0,0.9-0.4,1.3-1.1,1.3h-0.3c-0.5,0-1.2-0.1-2.1-0.2c-0.9-0.1-1.9-0.2-3-0.3
			c-1.1-0.1-2.2-0.1-3.4-0.2c-1.2-0.1-2.2-0.1-3.2-0.1c-1.7,0-2.9,0.2-3.7,0.7c-0.8,0.4-1.2,1.2-1.2,2.3c0,0.6,0.2,1.1,0.7,1.5
			c0.5,0.4,1.2,0.9,2.1,1.4l9.2,5.6c1.5,0.9,2.6,1.8,3.5,2.7c0.9,0.9,1.6,1.8,2.1,2.7c0.5,0.9,0.8,1.8,1,2.7
			C157,397.5,157.1,398.4,157.1,399.2z"/>
	</g>
	<g>
		<path class="st3" d="M172.6,410.3c-0.2,0.2-0.5,0.3-0.7,0.3h-6.2c-0.3,0-0.5-0.1-0.8-0.3c-0.2-0.2-0.3-0.5-0.3-0.7v-6.7
			c0-0.3,0.1-0.5,0.3-0.7c0.2-0.2,0.5-0.3,0.8-0.3h6.2c0.3,0,0.5,0.1,0.7,0.3c0.2,0.2,0.3,0.4,0.3,0.7v6.7
			C172.9,409.8,172.8,410,172.6,410.3z"/>
	</g>
	<g>
		<path class="st3" d="M208.5,377.9c-0.1,0.1-0.3,0.1-0.6,0.1h-0.2c-1.3-0.1-2.9-0.2-4.8-0.3c-1.9-0.1-4-0.2-6.3-0.2
			c-1.1,0-2,0.1-2.9,0.4c-0.9,0.3-1.6,0.8-2.2,1.5c-0.6,0.7-1.1,1.6-1.4,2.8c-0.3,1.2-0.5,2.6-0.5,4.4v6.7c0,1.8,0.2,3.4,0.6,4.5
			c0.4,1.2,0.9,2.1,1.4,2.8c0.6,0.7,1.2,1.1,1.9,1.4c0.7,0.2,1.4,0.4,2,0.4c1.5,0,2.8-0.1,4.1-0.2v-12.2c0-0.3,0.1-0.5,0.3-0.7
			c0.2-0.2,0.4-0.3,0.7-0.3h6.8c0.3,0,0.5,0.1,0.7,0.3c0.2,0.2,0.3,0.5,0.3,0.7v17.9c0,0.7-0.4,1.1-1.1,1.2
			c-1.5,0.3-3.1,0.5-5.1,0.8c-1.9,0.2-4.2,0.3-6.9,0.3c-1,0-2.1-0.1-3.2-0.3c-1.2-0.2-2.3-0.6-3.4-1.1c-1.1-0.5-2.2-1.2-3.2-2
			c-1-0.9-1.9-1.9-2.7-3.1c-0.8-1.2-1.4-2.7-1.9-4.4c-0.5-1.7-0.7-3.7-0.7-5.9v-6.6c0-3.4,0.5-6.2,1.4-8.4c1-2.2,2.2-3.9,3.8-5.2
			c1.5-1.3,3.3-2.2,5.2-2.7c1.9-0.5,3.9-0.7,5.8-0.7c2.7,0,4.9,0.2,6.8,0.5c1.9,0.3,3.3,0.6,4.3,0.8c0.6,0.1,0.9,0.4,0.9,0.8v5.6
			C208.8,377.6,208.7,377.8,208.5,377.9z"/>
		<path class="st3" d="M240.4,409.5c-0.9,0.1-2.2,0.3-3.7,0.5c-1.5,0.2-3.8,0.2-6.6,0.2c-1.7,0-3.3-0.1-4.9-0.4
			c-1.6-0.3-3-0.8-4.1-1.6c-1.2-0.8-2.2-2-2.9-3.5c-0.7-1.5-1.1-3.5-1.1-5.9V381c0-2.4,0.4-4.4,1.1-5.9c0.7-1.5,1.7-2.6,2.9-3.5
			c1.2-0.8,2.6-1.4,4.2-1.7c1.6-0.3,3.2-0.4,4.9-0.4c1.4,0,2.7,0,3.8,0.1c1.1,0.1,2,0.1,2.8,0.2c0.8,0.1,1.5,0.1,2.1,0.2
			c0.6,0.1,1.1,0.1,1.6,0.2c0.7,0.1,1.1,0.5,1.1,1.1v4.9c0,0.3-0.1,0.5-0.3,0.7c-0.2,0.2-0.5,0.3-0.7,0.3h-10.8
			c-1.2,0-2.1,0.3-2.6,0.8c-0.5,0.5-0.8,1.5-0.8,2.8v4.8H240c0.3,0,0.5,0.1,0.7,0.3c0.2,0.2,0.3,0.5,0.3,0.7v5.1
			c0,0.3-0.1,0.5-0.3,0.7c-0.2,0.2-0.5,0.3-0.7,0.3h-13.8v5.6c0,1.4,0.3,2.3,0.8,2.8c0.5,0.5,1.4,0.8,2.6,0.8h10.8
			c0.3,0,0.5,0.1,0.7,0.3c0.2,0.2,0.3,0.5,0.3,0.7v4.9C241.5,409,241.1,409.4,240.4,409.5z"/>
	</g>
	<g>
		<path class="st2" d="M-2.9,437c0,1.1-0.5,2-1.6,2.7c-0.9,0.6-1.9,0.8-3.1,0.8c-1.1,0-2-0.2-2.7-0.6c-0.8-0.5-1.2-1.1-1.2-1.9
			c0-0.6,0.2-1.1,0.7-1.5c0.4-0.3,0.7-0.5,1.1-0.5l0,0.1c-0.3,0.5-0.4,1-0.4,1.5c0,0.6,0.3,1.2,0.8,1.5c0.5,0.4,1.1,0.5,1.8,0.5
			c0.8,0,1.5-0.2,2.1-0.7c0.6-0.5,0.9-1.2,0.9-2c0-1.5-0.6-2.2-1.8-2.2h-0.5l-0.1-0.1v-0.5l0.1-0.1h0.5c0.4,0,0.8-0.2,1.2-0.6
			c0.4-0.4,0.6-1,0.6-1.6c0-1.6-0.6-2.4-1.9-2.4c-0.4,0-0.9,0.2-1.4,0.5c0.3,0.4,0.4,1,0.4,1.8c0,0.9-0.3,1.6-0.8,2.2
			c-0.6,0.6-1.3,0.8-2.1,0.8c-0.9,0-1.7-0.3-2.2-0.8c-0.5-0.5-0.7-1.2-0.7-2.1c0-0.9,0.3-1.7,0.8-2.2c0.5-0.6,1.3-0.8,2.1-0.8
			c0.8,0,1.5,0.2,2,0.7c0.7-0.5,1.4-0.7,2.1-0.7c0.8,0,1.5,0.2,2.1,0.7c0.6,0.5,0.9,1.2,0.9,2.1c0,1.1-0.6,2-1.9,2.7
			c0,0,0,0.1,0,0.1C-3.6,435.1-2.9,435.9-2.9,437z M-8.6,432c0-1.6-0.6-2.5-1.7-2.5c-0.6,0-1,0.2-1.2,0.7c-0.2,0.4-0.4,0.9-0.4,1.5
			c0,1.7,0.6,2.5,1.8,2.5C-9.1,434.3-8.6,433.5-8.6,432z"/>
		<path class="st2" d="M9.1,436.4c0,1.3-0.5,2.2-1.4,3c-0.9,0.7-2.2,1.1-3.8,1.1c-3.1,0-4.6-0.9-4.6-2.6c0-0.6,0.2-1.1,0.7-1.4
			c0.4-0.3,0.7-0.4,1-0.4l0,0.1c-0.3,0.5-0.4,1-0.4,1.4c0,0.7,0.3,1.2,1,1.6c0.6,0.4,1.4,0.6,2.3,0.6c1.1,0,2-0.3,2.6-0.8
			c0.7-0.6,1.1-1.4,1.1-2.4v-5.7c0-0.9-0.3-1.3-1-1.3c-0.7,0-1.1,0.5-1.1,1.4v1.5l-0.2,0.1h-1l-0.2-0.1v-1.3c0-1.1-0.3-1.6-1-1.6
			c-0.3,0-0.5,0.2-0.7,0.6c0,0-0.1,0.4-0.3,1c-0.4,1.2-1.1,1.7-2.2,1.7c-0.7,0-1.2-0.2-1.6-0.5c-0.4-0.3-0.5-0.8-0.5-1.4
			c0-0.4,0.2-0.8,0.6-1.2c0.4-0.4,0.8-0.6,1.2-0.5l0.1,0.1c-0.4,0.6-0.5,1.1-0.5,1.6c0,0.4,0.1,0.6,0.2,0.9c0.2,0.3,0.4,0.4,0.8,0.4
			c0.3,0,0.5-0.1,0.7-0.4c0-0.1,0.2-0.4,0.3-0.8c0.2-0.7,0.4-1.2,0.6-1.3c0.3-0.5,0.9-0.7,1.6-0.7c0.7,0,1.2,0.3,1.5,0.9h0.2
			c0.4-0.6,0.9-0.9,1.7-0.9c1.6,0,2.4,0.7,2.4,2.1V436.4z"/>
		<path class="st2" d="M17.8,428.9c0.5,0,1,0.2,1.3,0.5c0.4,0.4,0.6,1,0.6,1.9c0,0,0.1,0,0.1,0c0-0.7,0.2-1.2,0.7-1.7
			c0.5-0.5,1-0.7,1.7-0.7c0.6,0,1.2,0.1,1.6,0.4c0.7,0.4,1,1.1,1,2.1c0,0.8-0.3,1.5-0.8,2.1c-0.5,0.6-1.1,0.9-1.8,0.9l0-0.1
			c0.2-0.3,0.5-0.5,0.7-0.8c0.3-0.5,0.5-1.1,0.5-1.8c0-0.8-0.2-1.4-0.5-1.8c-0.2-0.3-0.5-0.4-0.9-0.4c-0.6,0-1,0.3-1.3,0.9
			c-0.2,0.4-0.4,1-0.4,1.6c0,0.7,0,1.1,0,1.4l-0.1,0.1h-1.1l-0.1-0.1c0-0.3,0-0.7,0-1.3c0-1.7-0.4-2.5-1.4-2.5
			c-0.4,0-0.8,0.2-1.1,0.7c-0.3,0.4-0.4,1-0.4,1.8l0,1.4l-0.1,0.1h-1.1l-0.1-0.1c0-0.3,0-0.7,0-1.3c0-0.7-0.1-1.3-0.4-1.7
			c-0.3-0.5-0.6-0.7-1.1-0.7c-0.5,0-1,0.3-1.3,1c-0.2,0.5-0.4,1.1-0.4,1.8c0,0.7,0.1,1.3,0.3,1.7c0.2,0.5,0.6,0.9,1.1,1.3
			c0.5,0.4,1.2,0.8,2.1,1.2l3.4,1.5c1.2,0.5,1.9,0.8,2,0.9c0.5,0.4,0.8,0.9,0.9,1.6l-0.1,0c-0.8-0.5-2.1-1.1-4-1.6
			c-0.9-0.3-2-0.4-3.1-0.4c-0.3,0-0.6,0.1-0.9,0.3c0-0.3,0.1-0.6,0.2-0.7c0.1-0.1,0.4-0.2,0.7-0.2c0.2,0,0.4,0,0.6,0
			c0.3,0,0.5,0,0.5,0c0,0,0.1,0,0.2,0c-1.6-0.7-2.7-1.3-3.3-1.8c-1.4-1-2.1-2.2-2.1-3.6c0-1.1,0.3-2.1,1-2.8c0.6-0.7,1.4-1,2.3-1
			c0.6,0,1,0.2,1.4,0.7c0.4,0.5,0.6,1,0.6,1.7c0,0,0.1,0,0.1,0c0-0.7,0.2-1.2,0.5-1.6C16.6,429.1,17.2,428.9,17.8,428.9z"/>
		<path class="st2" d="M29.1,436.3c-1-0.1-1.8-0.5-2.3-1.2c-0.6-0.7-0.9-1.5-0.9-2.5c0-1.1,0.4-2,1.2-2.7c0.8-0.7,1.8-1,2.9-1
			c1.2,0,2.1,0.3,2.8,1c0.7,0.7,1.1,1.6,1.1,2.7c0,0.9-0.3,1.7-1,2.5c-0.6,0.7-1.3,1.1-2.1,1.3c0,0,0-0.1,0-0.1c0,0,0.1-0.2,0.4-0.4
			c0.3-0.3,0.6-0.6,0.8-1c0.3-0.6,0.4-1.2,0.4-2c0-0.9-0.2-1.7-0.7-2.3c-0.5-0.6-1.1-0.9-1.9-0.9c-0.8,0-1.4,0.3-1.9,0.9
			c-0.4,0.5-0.6,1.2-0.6,2.1c0,1.7,0.6,2.9,1.8,3.8C29.2,436.3,29.1,436.3,29.1,436.3z"/>
		<path class="st2" d="M47.8,429.5c-0.5,0-1.2,0.3-1.9,0.9c0.4,0.6,0.6,1.3,0.6,2.1c0,1.1-0.4,2-1.1,2.7c-0.7,0.7-1.6,1.1-2.7,1.1
			c-1.1,0-2-0.4-2.7-1.1c-0.6-0.7-0.9-1.5-0.9-2.6c0-1.1,0.4-2,1.1-2.7c0.7-0.7,1.6-1,2.8-1c1,0,1.8,0.3,2.5,1
			c0-0.1,0.3-0.2,0.7-0.5c0.6-0.3,1.3-0.5,1.9-0.5c0.9,0,1.7,0.3,2.4,1c0.7,0.7,1,1.5,1,2.6c0,1.1-0.4,2-1.1,2.8
			c-0.7,0.8-1.6,1.1-2.5,1.1c0,0,0,0,0-0.1c0.2-0.2,0.5-0.3,0.7-0.5c0.4-0.3,0.7-0.6,1-1.1c0.3-0.6,0.5-1.2,0.5-2
			c0-0.8-0.2-1.5-0.5-2.1C49,429.9,48.5,429.5,47.8,429.5z M45,432.9c0-0.9-0.2-1.7-0.6-2.3c-0.4-0.7-1-1.1-1.8-1.1
			c-0.7,0-1.2,0.3-1.6,0.9c-0.3,0.5-0.5,1.1-0.5,1.9c0,0.9,0.2,1.7,0.6,2.3c0.4,0.7,1,1.1,1.8,1.1c0.7,0,1.2-0.3,1.6-0.9
			C44.8,434.3,45,433.7,45,432.9z"/>
		<path class="st2" d="M52.5,434.4c0-0.3,0.1-0.6,0.4-0.9c0.3-0.3,0.6-0.4,0.9-0.4c0,0,0,0.1,0,0.1c-0.1,0.3-0.2,0.7-0.2,1.1
			c0,0.4,0.1,0.7,0.4,1c0.3,0.3,0.7,0.5,1.1,0.5c0.6,0,1.1-0.2,1.4-0.6c0.3-0.4,0.5-0.8,0.5-1.4c0-1.2-0.5-2-1.4-2.6
			c-0.5-0.3-0.9-0.6-1.3-0.8c-0.4-0.3-0.7-0.6-0.7-0.9c0-0.4,0.2-0.7,0.6-0.9c0.3-0.2,0.7-0.3,1.1-0.3l0,0.1
			c-0.4,0.2-0.6,0.4-0.6,0.8c0,0.3,0.3,0.7,0.8,1.1c0.4,0.2,0.8,0.5,1.1,0.7c1.1,0.7,1.6,1.6,1.6,2.6c0,0.7-0.3,1.3-0.9,1.9
			c-0.6,0.6-1.4,0.9-2.3,0.9c-0.8,0-1.4-0.2-1.9-0.5C52.7,435.6,52.5,435.1,52.5,434.4z"/>
		<path class="st2" d="M59.6,428.1c0-1.2,0.1-2,0.2-2.4c0.2-0.5,0.6-0.8,1.2-0.8c0.2,0,0.7,0.1,1.3,0.3c0.7,0.2,1.2,0.3,1.6,0.3
			c0.5,0,1.2-0.2,1.9-0.6l0,0.1c-0.1,0.5-0.2,0.9-0.5,1.2c-0.3,0.3-0.7,0.5-1.1,0.5c-0.3,0-0.6-0.1-0.9-0.2c0,0-0.3-0.1-0.8-0.4
			c-0.2-0.1-0.4-0.2-0.6-0.3c-0.2-0.1-0.5-0.2-0.7-0.2c-0.2,0-0.4,0.3-0.4,0.8c0,0.1,0,0.6,0,1.5v1.9c0.7-0.6,1.5-0.9,2.1-0.9
			c1,0,1.8,0.3,2.5,1c0.6,0.7,0.9,1.5,0.9,2.6c0,1.1-0.3,2.1-1,2.8c-0.6,0.7-1.5,1.1-2.5,1.1c-1.1,0-2-0.3-2.6-1
			c-0.5-0.6-0.8-1.5-0.8-2.7V428.1z M64.9,432.8c0-1-0.1-1.7-0.4-2.2c-0.3-0.7-0.9-1-1.7-1c-0.7,0-1.3,0.3-2,0.9v3.1
			c0,0.4,0.1,0.8,0.4,1.3c0.4,0.6,0.9,0.9,1.6,0.9c0.7,0,1.2-0.3,1.6-1C64.8,434.2,64.9,433.5,64.9,432.8z"/>
		<path class="st2" d="M67.5,434.4c0-0.3,0.1-0.6,0.4-0.9c0.3-0.3,0.6-0.4,0.9-0.4c0,0,0,0.1,0,0.1c-0.1,0.3-0.2,0.7-0.2,1.1
			c0,0.4,0.1,0.7,0.4,1c0.3,0.3,0.7,0.5,1.1,0.5c0.6,0,1.1-0.2,1.4-0.6c0.3-0.4,0.5-0.8,0.5-1.4c0-1.2-0.5-2-1.4-2.6
			c-0.5-0.3-0.9-0.6-1.3-0.8c-0.4-0.3-0.7-0.6-0.7-0.9c0-0.4,0.2-0.7,0.6-0.9c0.3-0.2,0.7-0.3,1.1-0.3l0,0.1
			c-0.4,0.2-0.6,0.4-0.6,0.8c0,0.3,0.3,0.7,0.8,1.1c0.4,0.2,0.8,0.5,1.1,0.7c1.1,0.7,1.6,1.6,1.6,2.6c0,0.7-0.3,1.3-0.9,1.9
			c-0.6,0.6-1.4,0.9-2.3,0.9c-0.8,0-1.4-0.2-1.9-0.5C67.8,435.6,67.5,435.1,67.5,434.4z"/>
		<path class="st2" d="M78.2,425.5c-0.7,0-1.3,0.2-1.5,0.7c-0.1,0.2-0.2,0.5-0.3,1c-0.1,0.5-0.5,0.7-1.3,0.7l-0.1,0
			c0-0.8,0.2-1.4,0.6-1.9c0.5-0.7,1.4-1,2.6-1c0.9,0,1.7,0.3,2.2,0.8c0.6,0.6,0.9,1.4,0.9,2.4v4.5c0,1.1-0.3,1.9-0.8,2.6
			c-0.6,0.8-1.5,1.1-2.6,1.1c-1,0-1.8-0.4-2.4-1.1c-0.7-0.7-1-1.6-1-2.6c0-1.2,0.3-2.1,0.9-2.8c0.6-0.7,1.4-1,2.5-1
			c0.6,0,1.3,0.3,2.1,0.9c0-2.6,0-2.9,0-0.8c0-0.2,0-0.5,0-0.8s0-0.4,0-0.4c0-0.7-0.1-1.2-0.3-1.5C79.4,425.8,78.9,425.5,78.2,425.5
			z M80,430.5c-0.6-0.6-1.3-0.9-2.1-0.9c-1.3,0-1.9,1-1.9,3c0,1,0.2,1.8,0.5,2.3c0.4,0.6,0.9,0.9,1.6,0.9c0.6,0,1-0.2,1.4-0.7
			c0.3-0.4,0.5-1,0.5-1.8V430.5z"/>
		<path class="st2" d="M89.2,435.2c0,1.6-0.2,2.8-0.6,3.7c-0.6,1.1-1.5,1.6-2.9,1.6c-1,0-1.8-0.3-2.4-0.9c-0.5-0.5-0.8-1.2-0.8-1.9
			c0-0.8,0.4-1.4,1.3-1.9l0.2,0c-0.1,0.4-0.2,0.9-0.2,1.5c0,0.6,0.2,1.2,0.5,1.6c0.4,0.6,0.9,0.9,1.6,0.9c1.4,0,2.1-1.3,2.1-3.9
			v-2.5c0-1.4-0.1-2.4-0.3-2.9c-0.2-0.7-0.8-1-1.6-1c-1.3,0-1.9,0.8-1.9,2.5c0,0.5,0,0.9,0.1,1.2l-0.1,0.1c-0.4,0-0.7-0.2-1-0.6
			c-0.2-0.3-0.3-0.7-0.3-1c0-0.7,0.3-1.3,0.9-1.9c0.7-0.6,1.5-1,2.4-1c2,0,3,1.1,3,3.3V435.2z"/>
		<path class="st2" d="M100.9,440.6l-0.1,0.1c-0.3-0.2-1-0.5-1.9-0.9c-0.6-0.2-1.1-0.4-1.3-0.5c-0.5-0.2-0.9-0.3-1.3-0.4
			c-0.8-0.2-1.7-0.3-2.7-0.3c-0.2,0-0.4,0.1-0.5,0.2l-0.2,0c0-0.6,0.2-0.9,0.6-0.9c0.7,0,1.3,0,1.6,0.1c-1.6-0.8-2.7-1.5-3.3-2.1
			c-1.1-1-1.6-2.1-1.6-3.3c0-1.1,0.4-2,1.2-2.8c0.7-0.7,1.6-1,2.6-1c0.5,0,0.9,0.1,1.4,0.3c0.5,0.2,0.8,0.5,1.1,0.9
			c0.2-0.3,0.5-0.5,1-0.8c0.6-0.3,1.2-0.5,1.8-0.5c1.2,0,2.1,0.3,2.8,1c0.7,0.7,1,1.6,1,2.7c0,1.1-0.4,2-1.1,2.7
			c-0.7,0.7-1.6,1-2.7,1c-1.2,0-2.1-0.3-2.8-1c-0.7-0.7-1-1.5-1-2.7c0-0.3,0.1-0.6,0.2-1c0.1-0.4,0.2-0.7,0.4-0.9
			c-0.6-0.8-1.3-1.2-2.2-1.2c-0.6,0-1.1,0.3-1.5,0.9c-0.3,0.5-0.5,1.2-0.5,2c0,0.9,0.2,1.6,0.7,2.2c0.4,0.5,0.9,0.9,1.6,1.4
			c0.7,0.4,1.4,0.7,2.1,1.1c0.3,0.2,1.6,0.8,3.7,1.7C100.5,439.2,100.9,439.8,100.9,440.6z M101.5,432.9c0-0.9-0.2-1.7-0.6-2.3
			c-0.4-0.7-1.1-1.1-1.9-1.1c-0.7,0-1.2,0.3-1.6,0.9c-0.3,0.5-0.5,1.1-0.5,1.9c0,0.9,0.2,1.7,0.6,2.3c0.4,0.7,1.1,1.1,1.9,1.1
			c0.7,0,1.2-0.3,1.6-0.9C101.3,434.3,101.5,433.7,101.5,432.9z"/>
		<path class="st2" d="M110.3,425L110.3,425c1.1,0,1.6,0.2,1.6,0.7c0,0.5-0.5,0.8-1.6,1c-2.1,0.5-3.5,1.2-4.2,2.4l0,0
			c0.4-0.2,0.7-0.2,1.1-0.2c0.6,0,1.1,0.2,1.4,0.6c0.4,0.4,0.6,0.9,0.6,1.5c0,0,0.1,0,0.1,0c0-0.7,0.2-1.2,0.7-1.6
			c0.4-0.3,0.9-0.5,1.4-0.5c0.8,0,1.4,0.3,2,0.9c0.6,0.6,0.9,1.4,0.9,2.4c0,1.5-0.8,2.8-2.4,4.1l-0.1,0l-0.4-0.3v-0.1
			c1-0.8,1.5-2,1.5-3.6c0-0.9-0.2-1.6-0.5-2.1c-0.3-0.4-0.6-0.6-1-0.6c-1,0-1.5,0.8-1.5,2.5c0,0.2,0,0.5,0,0.9l-0.1,0h-1.1l-0.1,0
			c0-0.2,0-0.4,0-0.9c0-1.6-0.4-2.5-1.4-2.5c-0.5,0-0.9,0.3-1.2,0.8c-0.3,0.5-0.4,1.2-0.4,1.9c0,1.6,0.5,2.8,1.4,3.6v0.1l-0.3,0.3
			h-0.1c-1.7-1-2.5-2.5-2.5-4.3c0-1.4,0.5-2.6,1.4-3.7c0.4-0.5,1-0.9,1.5-1.3c0.4-0.2,1.1-0.5,1.9-0.8c0.3-0.1,0.7-0.2,1-0.3
			c0.4-0.2,0.5-0.3,0.5-0.6C110.4,425.3,110.3,425.1,110.3,425z"/>
		<path class="st2" d="M124.7,429.7c0.6,0.6,0.9,1.4,0.9,2.4c0,1.1-0.5,2.1-1.5,3.2c0.8-0.6,1.5-0.9,2-0.9l0.1,0.1l-0.1,0.7l-0.1,0
			c-0.4,0-0.6,0-0.5,0c-0.7,0.1-1.3,0.3-1.8,0.6c-0.3,0.2-0.4,0.3-0.6,0.4l-0.1,0l-0.3-0.3v-0.1c1-0.9,1.5-2.1,1.5-3.5
			c0-0.9-0.2-1.6-0.5-2.2c-0.3-0.4-0.6-0.7-1-0.7c-1,0-1.5,0.8-1.5,2.5c0,0.3,0,0.6,0,0.9l-0.1,0h-1.1l-0.1,0V432
			c0-1.6-0.5-2.5-1.4-2.5c-0.4,0-0.8,0.2-1,0.6c-0.4,0.5-0.5,1.2-0.5,2.1c0,0.7,0.1,1.4,0.4,2.1c0.3,0.7,0.6,1.2,1,1.5v0.1l-0.3,0.3
			h-0.1c-0.6-0.3-1.1-0.8-1.6-1.4c-0.6-0.8-0.9-1.6-0.9-2.5c0-1,0.3-1.9,1-2.5c0.6-0.6,1.3-0.9,2-0.9c0.6,0,1.1,0.2,1.4,0.5
			c0.4,0.4,0.6,0.9,0.6,1.6c0,0,0.1,0,0.1,0c0-0.7,0.3-1.2,0.8-1.6c0.4-0.3,0.8-0.5,1.3-0.5C123.4,428.9,124.1,429.2,124.7,429.7z"
			/>
		<path class="st2" d="M133.8,437.1c0,1-0.4,1.8-1.1,2.4c-0.8,0.7-1.7,1-2.7,1c-1,0-1.8-0.3-2.4-0.9c-0.6-0.5-0.9-1.2-0.9-1.9
			c0-0.5,0.1-0.9,0.2-1.2c0.2-0.3,0.5-0.6,0.9-0.7l0.2,0c-0.1,0.3-0.1,0.7-0.1,1.3c0,0.8,0.2,1.4,0.5,1.9c0.4,0.5,0.9,0.8,1.6,0.8
			c0.7,0,1.3-0.3,1.7-0.9c0.4-0.5,0.6-1.1,0.6-1.8c0-0.6-0.2-1.1-0.5-1.5c-0.3-0.4-0.8-0.7-1.4-0.7c-0.7,0-1,0-0.9,0l-0.1-0.1v-0.5
			l0.1-0.1h1c0.5,0,0.9-0.3,1.2-0.8c0.2-0.5,0.4-1,0.4-1.7c0-0.6-0.2-1.1-0.5-1.5c-0.4-0.5-0.9-0.7-1.6-0.7c-0.7,0-1.3,0.3-1.7,0.9
			c-0.3,0.5-0.4,1.1-0.4,1.8c0,0.2,0,0.5,0.1,0.7l-0.1,0.1c-0.3,0-0.6-0.1-0.8-0.4c-0.3-0.3-0.4-0.6-0.4-0.9c0-0.7,0.3-1.3,0.9-1.9
			c0.7-0.6,1.5-0.9,2.6-0.9c1.1,0,1.9,0.3,2.6,0.9c0.6,0.5,0.8,1.2,0.8,2c0,1.2-0.6,2.1-1.7,2.7c0,0,0,0.1,0,0.1
			c0.5,0.2,0.9,0.5,1.3,0.8C133.6,435.8,133.8,436.4,133.8,437.1z"/>
		<path class="st2" d="M141.5,435.2c0,1.6-0.2,2.8-0.6,3.7c-0.6,1.1-1.5,1.6-2.9,1.6c-1,0-1.8-0.3-2.4-0.9c-0.5-0.5-0.8-1.2-0.8-1.9
			c0-0.8,0.4-1.4,1.3-1.9l0.2,0c-0.1,0.4-0.2,0.9-0.2,1.5c0,0.6,0.2,1.2,0.5,1.6c0.4,0.6,0.9,0.9,1.6,0.9c1.4,0,2.1-1.3,2.1-3.9
			v-2.5c0-1.4-0.1-2.4-0.3-2.9c-0.2-0.7-0.8-1-1.6-1c-1.3,0-1.9,0.8-1.9,2.5c0,0.5,0,0.9,0.1,1.2l-0.1,0.1c-0.4,0-0.7-0.2-1-0.6
			c-0.2-0.3-0.3-0.7-0.3-1c0-0.7,0.3-1.3,0.9-1.9c0.7-0.6,1.5-1,2.4-1c2,0,3,1.1,3,3.3V435.2z"/>
		<path class="st2" d="M147,427.4c0-0.6-0.1-1.1-0.2-1.4c-0.1-0.3-0.3-0.5-0.5-0.7c-0.1-0.1-0.3-0.2-0.4-0.3c0,0,0,0,0-0.1
			c0.4-0.1,0.7-0.1,0.8-0.1c0.4,0,0.7,0.2,1,0.5c0.3,0.3,0.5,0.7,0.5,1.1v2.5c0.1-0.2,0.3-0.4,0.6-0.8c0.3-0.4,0.5-0.6,0.6-0.7
			c0.2-0.2,0.4-0.3,0.6-0.3c0.4,0,0.6,0.2,0.6,0.5c0,0.2,0,0.4-0.2,0.6l-0.1,0c-0.1-0.2-0.2-0.4-0.3-0.4c-0.2,0-0.4,0.2-0.8,0.6
			c-0.3,0.3-0.6,0.7-1,1.2v0.1c0.8-0.6,1.5-0.8,2.2-0.8c1.2,0,2.1,0.3,2.8,1c0.7,0.6,1,1.5,1,2.7c0,1.2-0.4,2.1-1.1,2.8
			c-0.7,0.7-1.6,1-2.6,1c-1.1,0-2-0.3-2.6-1c-0.6-0.7-0.9-1.5-0.9-2.6V427.4z M152.8,432.9c0-1-0.2-1.7-0.5-2.3
			c-0.4-0.7-1-1.1-1.9-1.1c-0.7,0-1.4,0.4-2.1,1.1v1.7c0,0.9,0.2,1.6,0.5,2.2c0.4,0.8,1,1.2,1.9,1.2
			C152.1,435.7,152.8,434.8,152.8,432.9z"/>
		<path class="st2" d="M155.3,434.4c0-0.3,0.1-0.6,0.4-0.9c0.3-0.3,0.6-0.4,0.9-0.4c0,0,0,0.1,0,0.1c-0.1,0.3-0.2,0.7-0.2,1.1
			c0,0.4,0.1,0.7,0.4,1c0.3,0.3,0.7,0.5,1.1,0.5c0.6,0,1.1-0.2,1.4-0.6c0.3-0.4,0.5-0.8,0.5-1.4c0-1.2-0.5-2-1.4-2.6
			c-0.5-0.3-0.9-0.6-1.3-0.8c-0.4-0.3-0.7-0.6-0.7-0.9c0-0.4,0.2-0.7,0.6-0.9c0.3-0.2,0.7-0.3,1.1-0.3l0,0.1
			c-0.4,0.2-0.6,0.4-0.6,0.8c0,0.3,0.3,0.7,0.8,1.1c0.4,0.2,0.8,0.5,1.1,0.7c1.1,0.7,1.6,1.6,1.6,2.6c0,0.7-0.3,1.3-0.9,1.9
			c-0.6,0.6-1.4,0.9-2.3,0.9c-0.8,0-1.4-0.2-1.9-0.5C155.6,435.6,155.3,435.1,155.3,434.4z"/>
		<path class="st2" d="M169.8,428.9c0.5,0,1,0.2,1.3,0.5c0.4,0.4,0.6,1,0.6,1.9c0,0,0.1,0,0.1,0c0-0.7,0.2-1.2,0.7-1.7
			c0.5-0.5,1-0.7,1.7-0.7c0.6,0,1.2,0.1,1.6,0.4c0.7,0.4,1,1.1,1,2.1c0,0.8-0.3,1.5-0.8,2.1c-0.5,0.6-1.1,0.9-1.8,0.9l0-0.1
			c0.2-0.3,0.5-0.5,0.7-0.8c0.3-0.5,0.5-1.1,0.5-1.8c0-0.8-0.2-1.4-0.5-1.8c-0.2-0.3-0.5-0.4-0.9-0.4c-0.6,0-1,0.3-1.3,0.9
			c-0.2,0.4-0.3,1-0.3,1.6c0,0.7,0,1.1,0,1.4l-0.1,0.1h-1.1l-0.1-0.1c0-0.3,0-0.7,0-1.3c0-1.7-0.4-2.5-1.4-2.5
			c-0.4,0-0.8,0.2-1.1,0.7c-0.3,0.4-0.4,1-0.4,1.8l0,1.4l-0.1,0.1H167l-0.1-0.1c0-0.3,0-0.7,0-1.3c0-0.7-0.1-1.3-0.4-1.7
			c-0.3-0.5-0.6-0.7-1.1-0.7c-0.5,0-1,0.3-1.3,1c-0.2,0.5-0.4,1.1-0.4,1.8c0,0.7,0.1,1.3,0.3,1.7c0.2,0.5,0.6,0.9,1.1,1.3
			c0.5,0.4,1.2,0.8,2.1,1.2l3.4,1.5c1.2,0.5,1.9,0.8,2,0.9c0.5,0.4,0.8,0.9,0.9,1.6l-0.1,0c-0.8-0.5-2.1-1.1-4-1.6
			c-0.9-0.3-2-0.4-3.1-0.4c-0.3,0-0.6,0.1-0.9,0.3c0-0.3,0.1-0.6,0.2-0.7c0.1-0.1,0.4-0.2,0.7-0.2c0.2,0,0.4,0,0.6,0
			c0.3,0,0.5,0,0.5,0c0,0,0.1,0,0.2,0c-1.6-0.7-2.7-1.3-3.3-1.8c-1.4-1-2.1-2.2-2.1-3.6c0-1.1,0.3-2.1,1-2.8c0.6-0.7,1.4-1,2.3-1
			c0.6,0,1,0.2,1.4,0.7c0.4,0.5,0.6,1,0.6,1.7c0,0,0.1,0,0.1,0c0-0.7,0.2-1.2,0.5-1.6C168.6,429.1,169.1,428.9,169.8,428.9z"/>
		<path class="st2" d="M178.2,427.4c0-0.6-0.1-1.1-0.2-1.4c-0.1-0.3-0.3-0.5-0.5-0.7c-0.1-0.1-0.3-0.2-0.4-0.3c0,0,0,0,0-0.1
			c0.4-0.1,0.7-0.1,0.8-0.1c0.4,0,0.7,0.2,1.1,0.5c0.3,0.3,0.5,0.7,0.5,1.1v2.5c0.1-0.2,0.3-0.4,0.6-0.8c0.3-0.4,0.5-0.6,0.6-0.7
			c0.2-0.2,0.4-0.3,0.6-0.3c0.4,0,0.6,0.2,0.6,0.5c0,0.2-0.1,0.4-0.2,0.6l-0.1,0c-0.1-0.2-0.2-0.4-0.3-0.4c-0.2,0-0.4,0.2-0.8,0.6
			c-0.3,0.3-0.6,0.7-1,1.2v0.1c0.8-0.6,1.5-0.8,2.2-0.8c1.2,0,2.1,0.3,2.8,1c0.6,0.6,1,1.5,1,2.7c0,1.2-0.4,2.1-1.1,2.8
			c-0.7,0.7-1.6,1-2.6,1c-1.1,0-2-0.3-2.6-1c-0.6-0.7-0.9-1.5-0.9-2.6V427.4z M184,432.9c0-1-0.2-1.7-0.5-2.3
			c-0.4-0.7-1-1.1-1.9-1.1c-0.7,0-1.4,0.4-2.1,1.1v1.7c0,0.9,0.2,1.6,0.5,2.2c0.4,0.8,1,1.2,1.9,1.2
			C183.3,435.7,184,434.8,184,432.9z"/>
		<path class="st2" d="M189.7,436.3c-1-0.1-1.8-0.5-2.3-1.2c-0.6-0.7-0.9-1.5-0.9-2.5c0-1.1,0.4-2,1.2-2.7c0.8-0.7,1.8-1,2.9-1
			c1.2,0,2.1,0.3,2.8,1c0.7,0.7,1.1,1.6,1.1,2.7c0,0.9-0.3,1.7-1,2.5c-0.6,0.7-1.3,1.1-2.1,1.3c0,0,0-0.1,0-0.1c0,0,0.1-0.2,0.4-0.4
			c0.3-0.3,0.6-0.6,0.8-1c0.3-0.6,0.4-1.2,0.4-2c0-0.9-0.2-1.7-0.7-2.3c-0.5-0.6-1.1-0.9-1.9-0.9c-0.8,0-1.4,0.3-1.9,0.9
			c-0.4,0.5-0.6,1.2-0.6,2.1c0,1.7,0.6,2.9,1.8,3.8C189.8,436.3,189.8,436.3,189.7,436.3z"/>
		<path class="st2" d="M197.4,433.8c0,0.5,0.2,0.9,0.5,1.3c0.3,0.4,0.8,0.6,1.2,0.6c0.8,0,1.4-0.2,1.7-0.7c0.3-0.4,0.4-1,0.4-1.8
			c0-0.7-0.1-1.3-0.4-1.8c-0.1-0.2-0.4-0.5-0.7-1c-0.3-0.3-0.4-0.6-0.4-0.9c0-0.4,0.2-0.8,0.7-1c0.4-0.2,0.8-0.3,1.2-0.3l0,0.1
			c-0.5,0.2-0.8,0.6-0.8,1.2c0,0.5,0.3,1,0.9,1.8c0.6,0.7,0.9,1.3,0.9,1.8c0,1.1-0.3,1.9-1,2.5c-0.6,0.5-1.5,0.8-2.5,0.8
			c-1,0-1.7-0.3-2.3-0.8c-0.5-0.5-0.8-1.3-0.8-2.3v-5.9c0-0.6-0.1-1.1-0.2-1.4c-0.1-0.3-0.2-0.5-0.4-0.7c-0.1-0.1-0.3-0.2-0.4-0.3
			c0,0,0.1,0,0.1-0.1c0.4-0.1,0.7-0.1,0.8-0.1c0.4,0,0.7,0.2,1,0.5c0.3,0.3,0.5,0.7,0.5,1.1V433.8z"/>
		<path class="st2" d="M212.4,429.5c-0.5,0-1.2,0.3-1.9,0.9c0.4,0.6,0.6,1.3,0.6,2.1c0,1.1-0.4,2-1.1,2.7c-0.7,0.7-1.6,1.1-2.7,1.1
			c-1.1,0-2-0.4-2.7-1.1c-0.6-0.7-0.9-1.5-0.9-2.6c0-1.1,0.4-2,1.1-2.7c0.7-0.7,1.7-1,2.8-1c1,0,1.8,0.3,2.5,1
			c0-0.1,0.3-0.2,0.7-0.5c0.6-0.3,1.3-0.5,1.9-0.5c0.9,0,1.7,0.3,2.4,1c0.7,0.7,1,1.5,1,2.6c0,1.1-0.4,2-1.1,2.8
			c-0.7,0.8-1.6,1.1-2.5,1.1c0,0,0,0,0-0.1c0.2-0.2,0.5-0.3,0.7-0.5c0.4-0.3,0.7-0.6,1-1.1c0.3-0.6,0.5-1.2,0.5-2
			c0-0.8-0.2-1.5-0.5-2.1C213.6,429.9,213.1,429.5,212.4,429.5z M209.6,432.9c0-0.9-0.2-1.7-0.6-2.3c-0.4-0.7-1-1.1-1.8-1.1
			c-0.7,0-1.2,0.3-1.6,0.9c-0.3,0.5-0.5,1.1-0.5,1.9c0,0.9,0.2,1.7,0.6,2.3c0.4,0.7,1,1.1,1.8,1.1c0.7,0,1.2-0.3,1.6-0.9
			C209.4,434.3,209.6,433.7,209.6,432.9z"/>
		<path class="st2" d="M224,437.1c0,1-0.4,1.8-1.1,2.4c-0.8,0.7-1.7,1-2.7,1c-1,0-1.8-0.3-2.4-0.9c-0.6-0.5-0.9-1.2-0.9-1.9
			c0-0.5,0.1-0.9,0.2-1.2c0.2-0.3,0.5-0.6,0.9-0.7l0.2,0c-0.1,0.3-0.1,0.7-0.1,1.3c0,0.8,0.2,1.4,0.5,1.9c0.4,0.5,0.9,0.8,1.6,0.8
			c0.7,0,1.3-0.3,1.7-0.9c0.4-0.5,0.6-1.1,0.6-1.8c0-0.6-0.2-1.1-0.5-1.5c-0.3-0.4-0.8-0.7-1.4-0.7c-0.7,0-1,0-0.9,0l-0.1-0.1v-0.5
			l0.1-0.1h1c0.5,0,0.9-0.3,1.2-0.8c0.2-0.5,0.4-1,0.4-1.7c0-0.6-0.2-1.1-0.5-1.5c-0.4-0.5-0.9-0.7-1.6-0.7c-0.7,0-1.3,0.3-1.7,0.9
			c-0.3,0.5-0.4,1.1-0.4,1.8c0,0.2,0,0.5,0.1,0.7l-0.1,0.1c-0.3,0-0.6-0.1-0.8-0.4s-0.4-0.6-0.4-0.9c0-0.7,0.3-1.3,0.9-1.9
			c0.7-0.6,1.5-0.9,2.6-0.9c1.1,0,1.9,0.3,2.6,0.9c0.6,0.5,0.8,1.2,0.8,2c0,1.2-0.6,2.1-1.7,2.7c0,0,0,0.1,0,0.1
			c0.5,0.2,0.9,0.5,1.3,0.8C223.8,435.8,224,436.4,224,437.1z"/>
		<path class="st2" d="M228.3,436.3c-1-0.1-1.8-0.5-2.3-1.2c-0.6-0.7-0.9-1.5-0.9-2.5c0-1.1,0.4-2,1.2-2.7c0.8-0.7,1.8-1,2.9-1
			c1.2,0,2.1,0.3,2.8,1c0.7,0.7,1.1,1.6,1.1,2.7c0,0.9-0.3,1.7-1,2.5c-0.6,0.7-1.3,1.1-2.1,1.3c0,0,0-0.1,0-0.1c0,0,0.1-0.2,0.4-0.4
			c0.3-0.3,0.6-0.6,0.8-1c0.3-0.6,0.4-1.2,0.4-2c0-0.9-0.2-1.7-0.7-2.3c-0.5-0.6-1.1-0.9-1.9-0.9c-0.8,0-1.4,0.3-1.9,0.9
			c-0.4,0.5-0.6,1.2-0.6,2.1c0,1.7,0.6,2.9,1.8,3.8C228.3,436.3,228.3,436.3,228.3,436.3z"/>
		<path class="st2" d="M236,433.8c0,0.5,0.2,0.9,0.5,1.3c0.3,0.4,0.8,0.6,1.2,0.6c0.8,0,1.4-0.2,1.7-0.7c0.3-0.4,0.4-1,0.4-1.8
			c0-0.7-0.1-1.3-0.4-1.8c-0.1-0.2-0.4-0.5-0.7-1c-0.3-0.3-0.4-0.6-0.4-0.9c0-0.4,0.2-0.8,0.7-1c0.4-0.2,0.8-0.3,1.2-0.3l0,0.1
			c-0.5,0.2-0.8,0.6-0.8,1.2c0,0.5,0.3,1,0.9,1.8c0.6,0.7,0.9,1.3,0.9,1.8c0,1.1-0.3,1.9-1,2.5c-0.6,0.5-1.5,0.8-2.5,0.8
			c-1,0-1.7-0.3-2.3-0.8c-0.5-0.5-0.8-1.3-0.8-2.3v-5.9c0-0.6-0.1-1.1-0.2-1.4c-0.1-0.3-0.2-0.5-0.4-0.7c-0.1-0.1-0.3-0.2-0.4-0.3
			c0,0,0.1,0,0.1-0.1c0.4-0.1,0.7-0.1,0.8-0.1c0.4,0,0.7,0.2,1,0.5c0.3,0.3,0.5,0.7,0.5,1.1V433.8z"/>
	</g>
</g>
</svg>
