<?xml version="1.0" encoding="utf-8"?>
<!-- Generator: Adobe Illustrator 19.0.0, SVG Export Plug-In . SVG Version: 6.00 Build 0)  -->
<svg version="1.1" id="Layer_1" xmlns="http://www.w3.org/2000/svg" xmlns:xlink="http://www.w3.org/1999/xlink" x="0px" y="0px"
	 viewBox="0 0 86.3483887 63.3081474" style="enable-background:new 0 0 86.3483887 63.3081474;" xml:space="preserve">
<style type="text/css">
	.st0{clip-path:url(#SVGID_2_);}
	.st1{clip-path:url(#SVGID_6_);}
	.st2{fill:#434444;}
	.st3{fill:#68BF93;}
</style>
<g>
	<defs>
		<rect id="SVGID_1_" x="-20.3225517" y="-34.519001" width="128.7088928" height="125.7210007"/>
	</defs>
	<clipPath id="SVGID_2_">
		<use xlink:href="#SVGID_1_"  style="overflow:visible;"/>
	</clipPath>
	<g class="st0">
		<defs>
			<rect id="SVGID_3_" x="-98.3995514" y="-39.8231964" width="452.646698" height="134.1007996"/>
		</defs>
		<clipPath id="SVGID_4_">
			<use xlink:href="#SVGID_3_"  style="overflow:visible;"/>
		</clipPath>
	</g>
</g>
<g>
	<defs>
		<rect id="SVGID_5_" x="-20.9980507" y="-34.519001" width="128.7088928" height="125.7210007"/>
	</defs>
	<clipPath id="SVGID_6_">
		<use xlink:href="#SVGID_5_"  style="overflow:visible;"/>
	</clipPath>
	<g class="st1">
		<defs>
			<rect id="SVGID_7_" x="-99.0751495" y="-39.8231964" width="452.6467896" height="134.1007996"/>
		</defs>
		<clipPath id="SVGID_8_">
			<use xlink:href="#SVGID_7_"  style="overflow:visible;"/>
		</clipPath>
	</g>
</g>
<g>
	<path class="st2" d="M0.438236,47.4390068l2.3652344,5.6289062l1.6840823-3.9824219
		c0.0473633-0.0849609,0.1323242-0.1425781,0.2172852-0.1425781c0.1044922,0,0.1894531,0.0576172,0.2368164,0.1425781
		l1.6743164,3.9824219l2.3652344-5.6289062c0.0566406-0.1132812,0.1796875-0.1699219,0.3120117-0.1132812
		c0.1137695,0.046875,0.1704102,0.1894531,0.1137695,0.3027344L6.833744,53.7397881
		c-0.0380859,0.0849609-0.1230469,0.1416016-0.1894531,0.1513672H6.6257362H6.5969276
		c-0.0375977,0-0.0756836-0.0097656-0.1132812-0.0380859c-0.0092773-0.0087891-0.0283203-0.0185547-0.0380859-0.0380859
		c-0.0092773-0.0087891-0.0283203-0.0371094-0.0375977-0.0566406c0-0.0087891,0-0.0185547-0.0097656-0.0283203l-1.6835938-4.0009766
		l-1.6933596,4.0009766c0,0.0195312-0.0097656,0.0380859-0.019043,0.0478516
		c-0.0092773,0.0283203-0.0283203,0.046875-0.0473633,0.0664062c-0.0092773,0-0.019043,0.0087891-0.019043,0.0087891
		c-0.0375977,0.0283203-0.0849609,0.0380859-0.1323242,0.0380859c-0.0566406,0-0.1040039-0.0185547-0.1420898-0.046875
		L2.6428258,53.824749l-0.0097656-0.0097656c-0.0283203-0.0283203-0.0473633-0.0654297-0.0566406-0.1132812l-2.5541992-6.0732422
		c-0.0566406-0.1132812,0-0.2558594,0.1132812-0.3027344C0.2492712,47.2690849,0.3908727,47.3257256,0.438236,47.4390068z"/>
</g>
<g>
	<path class="st2" d="M10.4367714,47.4956474c0-0.1230469,0.1040039-0.2265625,0.2270508-0.2265625h0.019043h3.3867188
		c0.1323242,0,0.2270508,0.1035156,0.2270508,0.2265625c0,0.1328125-0.0947266,0.2363281-0.2270508,0.2363281h-3.1694336v2.6210938
		h2.7719727c0.1230469,0,0.2270508,0.1035156,0.2270508,0.2363281c0,0.1230469-0.1040039,0.2275391-0.2270508,0.2275391h-2.7719727
		v2.6103516h3.1694336c0.1323242,0,0.2270508,0.1044922,0.2270508,0.2373047c0,0.1220703-0.0947266,0.2265625-0.2270508,0.2265625
		h-3.3774414h-0.0283203h-0.019043c-0.1132812-0.0097656-0.2080078-0.1044922-0.2080078-0.2265625V47.4956474z"/>
</g>
<g>
	<path class="st2" d="M15.8664589,47.4956474c0-0.1230469,0.1040039-0.2265625,0.2270508-0.2265625H16.12183h1.4472656
		c0.9082031,0,1.6464844,0.7373047,1.6464844,1.6552734c0,0.5205078-0.2553711,0.984375-0.6337891,1.2871094
		c0.7470703,0.2548828,1.2958984,0.9550781,1.2958984,1.7871094c0,1.0507812-0.8515625,1.8925781-1.8920898,1.8925781H16.12183
		h-0.0283203h-0.0092773c-0.1230469,0-0.2177734-0.1044922-0.2177734-0.2265625V47.4956474z M17.5690956,50.0972099
		c0.652832,0,1.1826172-0.5292969,1.1826172-1.1728516c0-0.6621094-0.5297852-1.1923828-1.1826172-1.1923828h-1.2392578v2.3652344
		H17.5690956z M17.9855995,53.4272881c0.7851562,0,1.4189453-0.6337891,1.4287109-1.4287109
		c-0.0097656-0.7851562-0.6435547-1.4277344-1.4287109-1.4277344h-1.6557617v2.8564453H17.9855995z"/>
</g>
<g>
	<path class="st2" d="M21.2678261,47.4956474c0-0.1230469,0.1040039-0.2265625,0.2270508-0.2265625
		c0.1323242,0,0.2363281,0.1035156,0.2363281,0.2265625v6.1689453c0,0.1220703-0.1040039,0.2265625-0.2363281,0.2265625
		c-0.1230469,0-0.2270508-0.1044922-0.2270508-0.2265625V47.4956474z"/>
</g>
<g>
	<path class="st2" d="M24.3894081,48.2436943v5.4208984c0,0.1220703-0.1040039,0.2265625-0.2270508,0.2265625
		s-0.2270508-0.1044922-0.2270508-0.2265625V47.590374c-0.0283203-0.0947266,0-0.1894531,0.0849609-0.2548828
		c0.1044922-0.0664062,0.2558594-0.0478516,0.3217773,0.0566406l4.0112305,5.5625v-5.3925781
		c0-0.1230469,0.1040039-0.2265625,0.2270508-0.2265625c0.1323242,0,0.2368164,0.1035156,0.2368164,0.2265625v6.1025391
		c0,0.1220703-0.1044922,0.2265625-0.2368164,0.2265625c-0.0756836,0-0.1323242-0.0283203-0.1796875-0.0849609
		c-0.0092773-0.0097656-0.0283203-0.0195312-0.0375977-0.0380859L24.3894081,48.2436943z"/>
</g>
<g>
	<path class="st2" d="M32.6379433,47.7319756h-1.9960938c-0.1230469,0-0.2270508-0.1035156-0.2270508-0.2363281
		c0-0.1230469,0.1040039-0.2265625,0.2270508-0.2265625h4.4462891c0.1230469,0,0.2270508,0.1035156,0.2270508,0.2265625
		c0,0.1328125-0.1040039,0.2363281-0.2270508,0.2363281h-1.9960938v5.9326172c0,0.1220703-0.1040039,0.2265625-0.2270508,0.2265625
		s-0.2270508-0.1044922-0.2270508-0.2265625V47.7319756z"/>
</g>
<g>
	<path class="st2" d="M36.8659706,47.4956474c0-0.1230469,0.1040039-0.2265625,0.2270508-0.2265625h0.019043h3.3867188
		c0.1323242,0,0.2270508,0.1035156,0.2270508,0.2265625c0,0.1328125-0.0947266,0.2363281-0.2270508,0.2363281h-3.1694336v2.6210938
		h2.7719727c0.1230469,0,0.2270508,0.1035156,0.2270508,0.2363281c0,0.1230469-0.1040039,0.2275391-0.2270508,0.2275391h-2.7719727
		v2.6103516h3.1694336c0.1323242,0,0.2270508,0.1044922,0.2270508,0.2373047c0,0.1220703-0.0947266,0.2265625-0.2270508,0.2265625
		h-3.3774414h-0.0283203h-0.019043c-0.1132812-0.0097656-0.2080078-0.1044922-0.2080078-0.2265625V47.4956474z"/>
</g>
<g>
	<path class="st2" d="M42.5515175,53.8911552h-0.019043c-0.1230469,0-0.2270508-0.1044922-0.2270508-0.2265625v-6.1689453
		c0-0.1230469,0.1040039-0.2265625,0.2270508-0.2265625c0.1323242,0,0.2363281,0.1035156,0.2363281,0.2265625v5.9316406h3.1694336
		c0.1328125,0,0.2363281,0.1044922,0.2363281,0.2373047c0,0.1220703-0.1035156,0.2265625-0.2363281,0.2265625H42.5515175z"/>
</g>
<g>
	<path class="st2" d="M47.6872597,53.8911552H47.668705c-0.1230469,0-0.2265625-0.1044922-0.2265625-0.2265625v-6.1689453
		c0-0.1230469,0.1035156-0.2265625,0.2265625-0.2265625c0.1328125,0,0.2363281,0.1035156,0.2363281,0.2265625v5.9316406h3.1699219
		c0.1318359,0,0.2363281,0.1044922,0.2363281,0.2373047c0,0.1220703-0.1044922,0.2265625-0.2363281,0.2265625H47.6872597z"/>
</g>
<g>
	<path class="st2" d="M52.7009315,47.4956474c0-0.1230469,0.1044922-0.2265625,0.2275391-0.2265625
		c0.1318359,0,0.2363281,0.1035156,0.2363281,0.2265625v6.1689453c0,0.1220703-0.1044922,0.2265625-0.2363281,0.2265625
		c-0.1230469,0-0.2275391-0.1044922-0.2275391-0.2265625V47.4956474z"/>
</g>
<g>
	<path class="st2" d="M58.4333534,50.9106865c-0.1318359,0-0.2363281-0.09375-0.2363281-0.2265625
		s0.1044922-0.2363281,0.2363281-0.2363281h2.0439453h0.0283203c0.1132812,0.0087891,0.2080078,0.1132812,0.2080078,0.2363281
		v2.2705078v0.0380859c-0.0097656,0.0664062-0.0380859,0.1318359-0.0849609,0.1699219
		c-0.5869141,0.4638672-1.3242188,0.7285156-2.1386719,0.7285156c-1.9013672-0.0097656-3.4433594-1.4951172-3.4433594-3.3681641
		c0-1.8447266,1.5419922-3.3486328,3.4433594-3.3486328c0.8232422,0,1.5517578,0.2832031,2.1474609,0.7470703
		c0.0859375,0.0664062,0.1142578,0.2275391,0.0292969,0.3222656c-0.0761719,0.09375-0.2177734,0.1132812-0.3320312,0.0371094
		c-0.4824219-0.3974609-1.1347656-0.6425781-1.8447266-0.6425781c-1.6552734,0-2.9794922,1.2958984-2.9794922,2.8847656
		c0,1.6083984,1.3242188,2.9042969,2.9794922,2.9042969c0.6435547,0,1.2587891-0.2080078,1.7509766-0.5673828v-1.9492188H58.4333534
		z"/>
</g>
<g>
	<path class="st2" d="M62.8503456,47.4956474c0-0.1230469,0.1044922-0.2265625,0.2275391-0.2265625h0.0185547h3.3867149
		c0.1328125,0,0.2275391,0.1035156,0.2275391,0.2265625c0,0.1328125-0.0947266,0.2363281-0.2275391,0.2363281h-3.1689415v2.6210938
		h2.7724571c0.1230469,0,0.2265625,0.1035156,0.2265625,0.2363281c0,0.1230469-0.1035156,0.2275391-0.2265625,0.2275391h-2.7724571
		v2.6103516h3.1689415c0.1328125,0,0.2275391,0.1044922,0.2275391,0.2373047c0,0.1220703-0.0947266,0.2265625-0.2275391,0.2265625
		H63.106205h-0.0283203H63.05933c-0.1142578-0.0097656-0.2089844-0.1044922-0.2089844-0.2265625V47.4956474z"/>
</g>
<g>
	<path class="st2" d="M68.7634277,48.2436943v5.4208984c0,0.1220703-0.1044922,0.2265625-0.2275391,0.2265625
		s-0.2265625-0.1044922-0.2265625-0.2265625V47.590374c-0.0292969-0.0947266,0-0.1894531,0.0849609-0.2548828
		c0.1035156-0.0664062,0.2548828-0.0478516,0.3212891,0.0566406l4.0117188,5.5625v-5.3925781
		c0-0.1230469,0.1035156-0.2265625,0.2265625-0.2265625c0.1328125,0,0.2363281,0.1035156,0.2363281,0.2265625v6.1025391
		c0,0.1220703-0.1035156,0.2265625-0.2363281,0.2265625c-0.0751953,0-0.1328125-0.0283203-0.1796875-0.0849609
		c-0.0097656-0.0097656-0.0283203-0.0195312-0.0380859-0.0380859L68.7634277,48.2436943z"/>
</g>
<g>
	<path class="st2" d="M78.5339355,47.1743584c0.8144531,0,1.5615234,0.2832031,2.1386719,0.7285156
		c0.1035156,0.0849609,0.1230469,0.2460938,0.0380859,0.3310547c-0.0761719,0.1132812-0.2275391,0.1230469-0.3222656,0.046875
		c-0.5107422-0.3974609-1.1542969-0.6425781-1.8544922-0.6425781c-1.6552734,0-2.9794922,1.2958984-2.9794922,2.9130859
		c0,1.5800781,1.3242188,2.8759766,2.9794922,2.8759766c0.7001953,0,1.34375-0.2265625,1.8359375-0.6425781
		c0.1132812-0.0761719,0.2646484-0.0576172,0.3310547,0.0566406c0.0947266,0.0849609,0.0751953,0.2548828-0.0283203,0.3310547
		c-0.5771484,0.4443359-1.3242188,0.71875-2.1386719,0.71875c-1.9013672,0-3.4433594-1.4951172-3.4433594-3.3398438
		C75.0905762,48.668499,76.6325684,47.184124,78.5339355,47.1743584z"/>
</g>
<g>
	<path class="st2" d="M82.4890137,47.4956474c0-0.1230469,0.1035156-0.2265625,0.2265625-0.2265625h0.0185547h3.3876953
		c0.1318359,0,0.2265625,0.1035156,0.2265625,0.2265625c0,0.1328125-0.0947266,0.2363281-0.2265625,0.2363281h-3.1699219v2.6210938
		h2.7724609c0.1230469,0,0.2265625,0.1035156,0.2265625,0.2363281c0,0.1230469-0.1035156,0.2275391-0.2265625,0.2275391h-2.7724609
		v2.6103516h3.1699219c0.1318359,0,0.2265625,0.1044922,0.2265625,0.2373047c0,0.1220703-0.0947266,0.2265625-0.2265625,0.2265625
		h-3.3779297h-0.0283203h-0.0185547c-0.1142578-0.0097656-0.2080078-0.1044922-0.2080078-0.2265625V47.4956474z"/>
</g>
<g>
	<path class="st2" d="M11.6203651,63.2798271c-0.034668-0.0136719-0.0556641-0.0419922-0.0698242-0.0771484l-1.2885742-3.0673828
		c-0.0351562-0.0839844,0.0068359-0.1816406,0.0839844-0.2167969c0.0839844-0.0351562,0.1889648,0.0068359,0.2167969,0.0908203
		l1.1416016,2.703125l0.7915039-1.8837891c0.0283203-0.0625,0.0981445-0.1044922,0.1611328-0.1044922
		c0.0703125,0,0.1401367,0.0419922,0.1679688,0.1044922l0.7915039,1.8837891l1.1347656-2.703125
		c0.0351562-0.0839844,0.1401367-0.1259766,0.2172852-0.0908203c0.0839844,0.0351562,0.1259766,0.1328125,0.0908203,0.2167969
		l-1.2817383,3.0537109c-0.0136719,0.0351562-0.034668,0.0634766-0.0629883,0.0839844
		c-0.027832,0.0214844-0.0561523,0.0351562-0.0839844,0.0351562h-0.0141602h-0.0209961
		c-0.0556641-0.0068359-0.1191406-0.0488281-0.1328125-0.1054688l-0.0073242-0.0068359l-0.7983398-1.8974609l-0.7915039,1.890625
		c0,0-0.0068359,0.0068359-0.0068359,0.0136719c-0.0209961,0.0634766-0.0908203,0.1054688-0.1469727,0.1054688
		c-0.0209961,0-0.0419922-0.0068359-0.0629883-0.0136719C11.6345253,63.2944756,11.6276894,63.2866631,11.6203651,63.2798271z"/>
</g>
<g>
	<path class="st2" d="M15.9880409,61.5991631c0-0.9521484,0.7421875-1.7226562,1.6669922-1.7226562
		c0.8823242,0,1.5825195,0.7001953,1.652832,1.5966797v0.0068359v0.0214844c0,0.0908203-0.0771484,0.1533203-0.1679688,0.1533203
		h-2.815918c0.0351562,0.75,0.6235352,1.3173828,1.3310547,1.3173828c0.4550781,0,0.8754883-0.2382812,1.1064453-0.6240234
		c0.0488281-0.0839844,0.1542969-0.0976562,0.2241211-0.0556641c0.0771484,0.0556641,0.1049805,0.1542969,0.0561523,0.2382812
		c-0.2944336,0.46875-0.8056641,0.7773438-1.3867188,0.7773438C16.7302284,63.3081474,15.9880409,62.5376396,15.9880409,61.5991631z
		 M16.3449745,61.3257256h2.5986328c-0.1118164-0.6435547-0.6582031-1.1132812-1.2885742-1.1132812
		C17.0105019,60.2124443,16.4714394,60.6743584,16.3449745,61.3257256z"/>
</g>
<g>
	<path class="st2" d="M26.9733925,61.2768974c-0.0141602-0.5810547-0.4760742-1.0644531-1.0644531-1.0644531
		c-0.581543,0-1.0576172,0.4833984-1.0576172,1.0644531v1.8701172v0.0214844c0,0.0068359-0.0073242,0.0136719-0.0073242,0.0136719
		v0.0136719c-0.0136719,0.0419922-0.0488281,0.0703125-0.0839844,0.0908203
		c-0.027832,0.0146484-0.0556641,0.0214844-0.0839844,0.0214844h-0.0209961H24.640873
		c-0.0068359,0-0.0136719-0.0068359-0.0136719-0.0068359c-0.0141602,0-0.0283203-0.0146484-0.0419922-0.0214844
		c-0.0073242,0-0.0141602-0.0068359-0.0209961-0.0136719l-0.0209961-0.0214844
		c-0.0073242-0.0068359-0.0073242-0.0136719-0.0141602-0.0136719c0-0.0068359,0-0.0068359-0.0068359-0.0136719
		c0,0,0-0.0068359-0.0073242-0.0146484c0-0.0068359,0-0.0136719-0.0068359-0.0205078v-0.0214844v-0.0136719v-1.8701172
		c0-0.5810547-0.4692383-1.0644531-1.0576172-1.0644531s-1.0576172,0.4833984-1.0576172,1.0644531v1.8701172
		c0,0.0556641-0.027832,0.1054688-0.0771484,0.1328125c-0.0068359,0.0068359-0.027832,0.0214844-0.0419922,0.0214844
		c-0.0068359,0.0068359-0.0136719,0.0068359-0.027832,0.0068359h-0.0209961h-0.0209961
		c-0.0629883-0.0068359-0.1191406-0.0634766-0.1401367-0.1259766v-0.0351562v-1.8701172v-0.0556641v-1.1767578
		c0-0.0908203,0.0771484-0.1611328,0.1611328-0.1611328c0.0981445,0,0.1679688,0.0703125,0.1679688,0.1611328v0.3291016
		c0.2524414-0.3007812,0.6303711-0.4902344,1.0576172-0.4902344c0.5322266,0,0.987793,0.2939453,1.2255859,0.7285156
		c0.2451172-0.4345703,0.7075195-0.7285156,1.2329102-0.7285156c0.7705078,0,1.3935547,0.6230469,1.3935547,1.3935547v1.8701172
		c0,0.0839844-0.0698242,0.1611328-0.1679688,0.1611328c-0.0913086,0-0.1611328-0.0771484-0.1611328-0.1611328V61.2768974z"/>
	<path class="st2" d="M31.3400917,60.0444756v3.0957031c0,0.0908203-0.0771484,0.1679688-0.1679688,0.1679688
		s-0.1679688-0.0771484-0.1679688-0.1679688v-0.5117188c-0.2944336,0.40625-0.7636719,0.6796875-1.2885742,0.6796875
		c-0.9038086,0-1.625-0.7773438-1.625-1.7158203s0.7211914-1.7158203,1.625-1.7158203
		c0.5249023,0,0.9941406,0.265625,1.2885742,0.671875v-0.5039062c0-0.0986328,0.0771484-0.1679688,0.1679688-0.1679688
		S31.3400917,59.9458427,31.3400917,60.0444756z M31.0041542,61.5923271c0-0.7705078-0.581543-1.3867188-1.2885742-1.3867188
		c-0.7006836,0-1.2890625,0.6162109-1.2890625,1.3867188s0.5883789,1.3798828,1.2890625,1.3798828
		C30.4226112,62.9722099,31.0041542,62.3628349,31.0041542,61.5923271z"/>
</g>
<g>
	<path class="st2" d="M32.5148964,58.5737724c0-0.0908203,0.0771484-0.1679688,0.1679688-0.1679688
		c0.0981445,0,0.175293,0.0771484,0.175293,0.1679688v3.2988281l2.03125-2.0244141
		c0.0698242-0.0703125,0.1679688-0.0703125,0.237793,0c0.0703125,0.0634766,0.0703125,0.1679688,0,0.2382812l-1.3237305,1.3232422
		l1.3310547,1.6181641c0.0629883,0.0771484,0.0556641,0.1748047-0.0141602,0.2451172
		c-0.0351562,0.0283203-0.0771484,0.0351562-0.1123047,0.0351562c-0.0488281,0-0.1049805-0.0136719-0.1328125-0.0634766
		l-1.3168945-1.5898438l-0.7001953,0.7011719v0.7841797c0,0.0908203-0.0771484,0.1679688-0.175293,0.1679688
		c-0.0908203,0-0.1679688-0.0771484-0.1679688-0.1679688V58.5737724z"/>
</g>
<g>
	<path class="st2" d="M35.9167519,61.5991631c0-0.9521484,0.7421875-1.7226562,1.6669922-1.7226562
		c0.8823242,0,1.5825195,0.7001953,1.652832,1.5966797v0.0068359v0.0214844c0,0.0908203-0.0771484,0.1533203-0.1679688,0.1533203
		h-2.815918c0.0351562,0.75,0.6235352,1.3173828,1.3310547,1.3173828c0.4550781,0,0.8754883-0.2382812,1.1064453-0.6240234
		c0.0488281-0.0839844,0.1542969-0.0976562,0.2241211-0.0556641c0.0771484,0.0556641,0.1049805,0.1542969,0.0561523,0.2382812
		c-0.2944336,0.46875-0.8056641,0.7773438-1.3867188,0.7773438C36.6589394,63.3081474,35.9167519,62.5376396,35.9167519,61.5991631z
		 M36.2736855,61.3257256h2.5986328c-0.1118164-0.6435547-0.6582031-1.1132812-1.2885742-1.1132812
		C36.9392128,60.2124443,36.4001503,60.6743584,36.2736855,61.3257256z"/>
	<path class="st2" d="M42.0134315,58.9233818c0-0.0908203,0.0771484-0.1679688,0.168457-0.1679688
		c0.0976562,0,0.1748047,0.0771484,0.1748047,0.1679688v0.1611328c0,0.0986328-0.0771484,0.1826172-0.1748047,0.1826172
		c-0.0913086,0-0.168457-0.0839844-0.168457-0.1826172V58.9233818z M42.0134315,60.0444756
		c0-0.0986328,0.0771484-0.1679688,0.168457-0.1679688c0.0976562,0,0.1748047,0.0693359,0.1748047,0.1679688v3.0957031
		c0,0.0908203-0.0771484,0.1679688-0.1748047,0.1679688c-0.0913086,0-0.168457-0.0771484-0.168457-0.1679688V60.0444756z"/>
	<path class="st2" d="M46.4597206,62.6431084c-0.3007812,0.40625-0.7773438,0.6650391-1.3164062,0.6650391
		c-0.9248047,0-1.659668-0.7705078-1.659668-1.7089844c0-0.9521484,0.7348633-1.7226562,1.659668-1.7226562
		c0.5390625,0,1.015625,0.265625,1.3164062,0.671875v-1.9746094c0-0.0908203,0.0771484-0.1679688,0.1757812-0.1679688
		c0.0908203,0,0.1679688,0.0771484,0.1679688,0.1679688v2.9550781v0.0703125v1.5410156
		c0,0.0908203-0.0771484,0.1679688-0.1679688,0.1679688c-0.0986328,0-0.1757812-0.0771484-0.1757812-0.1679688V62.6431084z
		 M46.4597206,61.6548271V61.543499c-0.0273438-0.7353516-0.609375-1.3242188-1.3164062-1.3242188
		c-0.7216797,0-1.3164062,0.6162109-1.3164062,1.3798828c0,0.7568359,0.5947266,1.3662109,1.3164062,1.3662109
		C45.8503456,62.965374,46.4323769,62.3833427,46.4597206,61.6548271z"/>
	<path class="st2" d="M47.8308144,61.5991631c0-0.9521484,0.7421875-1.7226562,1.6669922-1.7226562
		c0.8828125,0,1.5830078,0.7001953,1.6523438,1.5966797v0.0068359v0.0214844c0,0.0908203-0.0761719,0.1533203-0.1679688,0.1533203
		h-2.8154297c0.0351562,0.75,0.6240234,1.3173828,1.3310547,1.3173828c0.4550781,0,0.875-0.2382812,1.1064453-0.6240234
		c0.0488281-0.0839844,0.1542969-0.0976562,0.2246094-0.0556641c0.0761719,0.0556641,0.1044922,0.1542969,0.0556641,0.2382812
		c-0.2939453,0.46875-0.8056641,0.7773438-1.3867188,0.7773438C48.5730019,63.3081474,47.8308144,62.5376396,47.8308144,61.5991631z
		 M48.1882362,61.3257256h2.5976562c-0.1113281-0.6435547-0.6582031-1.1132812-1.2880859-1.1132812
		C48.8532753,60.2124443,48.3142128,60.6743584,48.1882362,61.3257256z"/>
	<path class="st2" d="M54.9519081,60.0444756v3.0957031c0,0.0908203-0.0771484,0.1679688-0.1679688,0.1679688
		c-0.0917969,0-0.1689453-0.0771484-0.1689453-0.1679688v-0.5117188c-0.2939453,0.40625-0.7626953,0.6796875-1.2880859,0.6796875
		c-0.9033203,0-1.625-0.7773438-1.625-1.7158203s0.7216797-1.7158203,1.625-1.7158203
		c0.5253906,0,0.9941406,0.265625,1.2880859,0.671875v-0.5039062c0-0.0986328,0.0771484-0.1679688,0.1689453-0.1679688
		C54.8747597,59.8765068,54.9519081,59.9458427,54.9519081,60.0444756z M54.614994,61.5923271
		c0-0.7705078-0.5810547-1.3867188-1.2880859-1.3867188c-0.7001953,0-1.2890625,0.6162109-1.2890625,1.3867188
		s0.5888672,1.3798828,1.2890625,1.3798828C54.0339394,62.9722099,54.614994,62.3628349,54.614994,61.5923271z"/>
	<path class="st2" d="M55.9079628,62.5933037c0.0566406-0.0693359,0.1611328-0.0839844,0.2382812-0.0205078
		c0.2382812,0.1748047,0.6162109,0.3994141,1.0507812,0.3994141c0.265625,0,0.4970703-0.0839844,0.6513672-0.2099609
		c0.1679688-0.1123047,0.2587891-0.2666016,0.2587891-0.4208984c-0.0068359-0.1611328-0.0703125-0.2724609-0.2451172-0.4199219
		c-0.1474609-0.1123047-0.3925781-0.1962891-0.7285156-0.2519531l-0.0136719-0.0068359
		c-0.3085938-0.0566406-0.5810547-0.1259766-0.7773438-0.2666016c-0.2177734-0.1259766-0.3710938-0.3505859-0.3710938-0.6162109
		c0-0.2734375,0.1533203-0.5117188,0.3710938-0.6728516c0.203125-0.1396484,0.4902344-0.2304688,0.8398438-0.2304688
		c0.4414062,0,0.7568359,0.203125,1.0234375,0.3710938c0.0761719,0.0556641,0.0976562,0.1611328,0.0488281,0.2382812
		s-0.1542969,0.0976562-0.2314453,0.0488281c-0.2519531-0.1679688-0.5039062-0.3427734-0.8408203-0.3427734
		c-0.2792969,0-0.5039062,0.0761719-0.6513672,0.1953125c-0.1396484,0.1123047-0.2167969,0.2529297-0.2167969,0.3925781
		s0.0634766,0.2382812,0.1962891,0.3427734c0.1542969,0.1054688,0.3847656,0.1894531,0.7001953,0.2382812h0.0136719
		c0.3300781,0.0488281,0.5957031,0.1474609,0.8339844,0.2802734c0.2236328,0.1474609,0.3847656,0.4130859,0.3847656,0.7001953
		s-0.1611328,0.5185547-0.3916016,0.6933594c-0.2382812,0.1757812-0.5185547,0.2734375-0.8544922,0.2734375
		c-0.5537109-0.0068359-0.9873047-0.2666016-1.2675781-0.4902344
		C55.8591347,62.7544365,55.8522987,62.6636162,55.9079628,62.5933037z"/>
</g>
<g>
	<path class="st2" d="M62.2722206,63.2798271c-0.0351562-0.0136719-0.0556641-0.0419922-0.0703125-0.0771484l-1.2880859-3.0673828
		c-0.0351562-0.0839844,0.0068359-0.1816406,0.0839844-0.2167969c0.0839844-0.0351562,0.1894531,0.0068359,0.2167969,0.0908203
		l1.1416016,2.703125l0.7919922-1.8837891c0.0273438-0.0625,0.0976562-0.1044922,0.1611328-0.1044922
		c0.0693359,0,0.1396484,0.0419922,0.1679688,0.1044922l0.7910118,1.8837891l1.1347656-2.703125
		c0.0351562-0.0839844,0.1396484-0.1259766,0.2167969-0.0908203c0.0839844,0.0351562,0.1259766,0.1328125,0.0917969,0.2167969
		l-1.2822266,3.0537109c-0.0136719,0.0351562-0.0351562,0.0634766-0.0625,0.0839844
		c-0.0283203,0.0214844-0.0566406,0.0351562-0.0849609,0.0351562h-0.0136719h-0.0205078
		c-0.0566406-0.0068359-0.1191406-0.0488281-0.1337891-0.1054688l-0.0068359-0.0068359L63.30933,61.2983818l-0.7919922,1.890625
		c0,0-0.0068359,0.0068359-0.0068359,0.0136719c-0.0214844,0.0634766-0.0908203,0.1054688-0.1474609,0.1054688
		c-0.0205078,0-0.0419922-0.0068359-0.0625-0.0136719C62.286869,63.2944756,62.2790565,63.2866631,62.2722206,63.2798271z"/>
</g>
<g>
	<path class="st2" d="M68.3415527,59.8765068c0.9033203,0,1.625,0.7841797,1.625,1.7158203s-0.7216797,1.7158203-1.625,1.7158203
		c-0.8964844,0-1.625-0.7841797-1.625-1.7158203S67.4450684,59.8765068,68.3415527,59.8765068z M68.3415527,62.9722099
		c0.7001953,0,1.2890625-0.6162109,1.2890625-1.3798828s-0.5888672-1.3867188-1.2890625-1.3867188
		s-1.2890625,0.6230469-1.2890625,1.3867188S67.6413574,62.9722099,68.3415527,62.9722099z"/>
	<path class="st2" d="M70.9938965,60.0513115c0-0.0976562,0.0771484-0.1679688,0.1748047-0.1679688
		c0.0839844,0,0.1611328,0.0703125,0.1611328,0.1679688v0.7568359c0.0146484-0.0283203,0.0283203-0.0566406,0.0488281-0.0839844
		c0.2597656-0.40625,0.7148438-0.8408203,1.3730469-0.8408203c0.0908203,0,0.1679688,0.0703125,0.1679688,0.1679688
		c0,0.0908203-0.0771484,0.1679688-0.1679688,0.1679688c-0.4482422,0-0.7558594,0.2519531-0.9941406,0.5605469
		c-0.2314453,0.3085938-0.3642578,0.6582031-0.4130859,0.7988281c-0.0146484,0.0273438-0.0146484,0.0419922-0.0146484,0.0556641
		v1.5058594c0,0.0976562-0.0771484,0.1679688-0.1611328,0.1679688c-0.0976562,0-0.1748047-0.0703125-0.1748047-0.1679688V60.0513115
		z"/>
</g>
<g>
	<path class="st2" d="M73.7937012,58.5737724c0-0.0908203,0.0771484-0.1679688,0.1679688-0.1679688
		c0.0986328,0,0.1748047,0.0771484,0.1748047,0.1679688v3.2988281l2.03125-2.0244141
		c0.0703125-0.0703125,0.1679688-0.0703125,0.2382812,0c0.0703125,0.0634766,0.0703125,0.1679688,0,0.2382812l-1.3232422,1.3232422
		l1.3300781,1.6181641c0.0634766,0.0771484,0.0566406,0.1748047-0.0136719,0.2451172
		c-0.0351562,0.0283203-0.0771484,0.0351562-0.1123047,0.0351562c-0.0488281,0-0.1044922-0.0136719-0.1328125-0.0634766
		l-1.3164062-1.5898438l-0.7011719,0.7011719v0.7841797c0,0.0908203-0.0761719,0.1679688-0.1748047,0.1679688
		c-0.0908203,0-0.1679688-0.0771484-0.1679688-0.1679688V58.5737724z"/>
</g>
<polygon class="st2" points="19.7372494,0.0008039 31.5162487,11.8598032 31.4962482,23.6808033 43.255249,11.8828039 
	55.0182495,23.6808033 55.0142479,11.7598038 66.7732468,11.7598038 66.7712479,23.7008038 55.0222473,35.5308037 
	43.255249,23.7008038 31.4962482,35.5218048 19.7372494,23.6808033 "/>
<rect x="55.275547" class="st3" width="11.4980001" height="9.7370005"/>
</svg>
