<?xml version="1.0" encoding="utf-8"?>
<!-- Generator: Adobe Illustrator 19.0.0, SVG Export Plug-In . SVG Version: 6.00 Build 0)  -->
<svg version="1.1" id="Layer_1" xmlns="http://www.w3.org/2000/svg" xmlns:xlink="http://www.w3.org/1999/xlink" x="0px" y="0px"
	 viewBox="0 0 510.3670044 141.9570007" style="enable-background:new 0 0 510.3670044 141.9570007;" xml:space="preserve">
<style type="text/css">
	.st0{fill:#F4952E;}
	.st1{fill-rule:evenodd;clip-rule:evenodd;fill:#F4952E;}
</style>
<path class="st0" d="M249.1579895,121.8790283c0.8479919,0,1.552002-0.3269958,2.1380005-0.9880066
	c0.5910034-0.6640015,0.867981-1.4639893,0.867981-2.3729858v-21.230011c0-0.8049927-0.2609863-1.4899902-0.7909851-2.1090088
	c-0.5069885-0.6069946-1.0629883-1.0409851-1.6679993-1.2099915c-0.0769958-0.0100098-0.177002,0-0.2789917-0.0369873
	c-0.1000061-0.0120239-0.1790161-0.0220032-0.2680054-0.0220032h-20.9669952c-0.1549988,0-0.3529968,0.1229858-0.5930023,0.2409973
	c-0.2429962,0.1099854-0.4720001,0.2739868-0.7200012,0.4499817c-0.4320068,0.2870178-0.8280029,0.6530151-1.1660004,1.1460266
	c-0.3370056,0.5130005-0.5220032,1.0609741-0.5220032,1.6469727v21.006012c0,0.8930054,0.2819977,1.6919861,0.8470001,2.321991
	c0.5550079,0.6400146,1.178009,1.0240173,1.8570099,1.1570129H249.1579895 M228.1909943,130.2180176
	c-3.2630005,0-6.0800018-1.3439941-8.4490051-4.0140076c-2.3540039-2.6879883-3.5370026-5.9199829-3.5370026-9.6719971V99.3300171
	c0-3.8139954,1.1829987-7.0579834,3.5370026-9.743988c2.3690033-2.6650085,5.1860046-4.0270081,8.4490051-4.0270081
	l20.9669952-0.053009c3.3169861,0.0429993,6.1380005,1.4150085,8.4840088,4.0800171
	c2.3499756,2.6860046,3.5079956,5.9299927,3.5079956,9.743988v17.2019958c0,3.7520142-1.15802,6.9840088-3.5079956,9.6719971
	c-2.3460083,2.6700134-5.1670227,4.0140076-8.4840088,4.0140076H228.1909943z M299.2909851,121.8790283
	c0.8380127,0,1.5559998-0.3269958,2.1390076-0.9880066c0.5769958-0.6640015,0.8589783-1.4639893,0.8589783-2.3729858v-21.230011
	c0-0.8049927-0.2529907-1.4899902-0.7749939-2.1090088c-0.5180054-0.6069946-1.0740051-1.0409851-1.6759949-1.2099915
	c-0.0749817-0.0100098-0.177002,0-0.2770081-0.0369873c-0.0959778-0.0120239-0.1959839-0.0220032-0.269989-0.0220032h-20.9700012
	c-0.1669922,0-0.3599854,0.1229858-0.6019897,0.2409973c-0.2380066,0.1099854-0.45401,0.2739868-0.70401,0.4499817
	c-0.4490051,0.2870178-0.8420105,0.6530151-1.1860046,1.1460266c-0.3359985,0.5130005-0.5,1.0609741-0.5,1.6469727v21.006012
	c0,0.8930054,0.2770081,1.6919861,0.8390198,2.321991c0.5549927,0.6400146,1.1839905,1.0240173,1.8589783,1.1570129H299.2909851z
	 M278.3209839,130.2180176c-3.269989,0-6.0889893-1.3439941-8.4450073-4.0140076
	c-2.3609924-2.6879883-3.5369873-5.9199829-3.5369873-9.6719971V99.3300171c0-3.8139954,1.1759949-7.0579834,3.5369873-9.743988
	c2.3560181-2.6650085,5.1750183-4.0270081,8.4450073-4.0270081l20.9700012-0.053009
	c3.3179932,0.0429993,6.1400146,1.4150085,8.4819946,4.0800171c2.3399963,2.6860046,3.5110168,5.9299927,3.5110168,9.743988
	v17.2019958c0,3.7520142-1.1710205,6.9840088-3.5110168,9.6719971c-2.34198,2.6700134-5.1640015,4.0140076-8.4819946,4.0140076
	H278.3209839z M336.0220032,125.7920227V93.8980103h-5.9920044c-0.0290222,0.0360107-0.0770264,0.0730286-0.1590271,0.0730286
	h-0.1409912c-0.6759949,0.072998-1.2969971,0.4559937-1.867981,1.0999756
	c-0.5490112,0.6430054-0.8230286,1.4120178-0.8230286,2.335022v28.3859863c0,5.9370117-8.9969788,5.9030151-8.9969788,0V99.2610168
	c0-3.7659912,1.1839905-6.9889832,3.5369873-9.6730042c2.3650208-2.6689758,5.1759949-4.0289917,8.4510193-4.0289917
	l20.96698-0.053009c3.3260193,0.0429993,6.1500244,1.4130249,8.4790039,4.0820007
	c2.3510132,2.684021,3.5160217,5.928009,3.5160217,9.7420044v26.4450073c0,5.8980103-8.9850159,5.9330139-8.9850159,0.1010132
	V97.2880249c0-0.9339905-0.2980042-1.7330017-0.8729858-2.3999939c-0.5910034-0.6640015-1.2980042-0.9900208-2.1370239-0.9900208
	h-5.992981v31.8940125C345.0039978,131.7490234,336.0220032,131.7290344,336.0220032,125.7920227z M431.6900024,118.3890381
	c0,1.493988,1.1619873,3.0419922,2.5130005,3.4339905c0.1429749,0.0449829,0.3089905,0.0559998,0.4649963,0.0559998h19.8759766
	c5.4830322,0,5.5020142,8.3389893,0,8.3389893h-19.8759766c-3.2709961,0-6.0820007-1.3439941-8.4450073-4.0140076
	c-2.3600159-2.6879883-3.5400085-5.9199829-3.5400085-9.6719971V99.3300171c0-3.8139954,1.1799927-7.0579834,3.5400085-9.743988
	c2.3630066-2.6650085,5.1740112-4.0270081,8.4450073-4.0270081l19.5109863-0.0429993
	c5.5030212-0.0289917,5.4580078,8.3819885,0,8.3819885h-19.5109863c-1.6970215,0-2.9779968,1.7090149-2.9779968,3.5080261v5.9539795
	h21.3279724c5.4900208,0,5.4840088,8.5780029-0.0109863,8.5780029h-21.3169861V118.3890381z M498.0209961,93.8980103h-20.6010132
	v9.4630127h20.6010132C501.8850098,103.3610229,501.9899902,93.8980103,498.0209961,93.8980103z M473.8680115,85.559021h23.8539734
	c3.3059692,0,6.15802,1.3600159,8.4810181,4.0289917c2.3410034,2.684021,3.5130005,5.928009,3.5130005,9.7420044
	c0,1.5610046-0.1970215,3.0460205-0.6140137,4.4389954c-0.3909912,1.3890076-0.9260254,2.6940002-1.5560303,3.8860168
	c0.9140015,1.196991,1.6170044,2.553009,2.0960083,4.0480042c0.467041,1.5299988,0.7250366,3.1369934,0.7250366,4.8309937v9.2949829
	c0,5.9000244-8.9910278,5.8790283-8.9910278,0.0270081v-10.5440063c0-1.5629883-1.0570068-3.0979919-2.5189819-3.3599854
	c-0.0759888-0.0130005-1.2250366,0-3.4390259,0h-17.9979858v13.9240112c0,5.9049988-8.9789734,5.8909912-8.9789734-0.0200195
	V91.2600403C468.4410095,88.1930237,470.0620117,85.5490112,473.8680115,85.559021z M388.8309937,125.7920227V93.8980103h-5.9980164
	c-0.039978,0.0360107-0.0859985,0.0730286-0.1599731,0.0730286h-0.1380005
	c-0.6870117,0.072998-1.2929993,0.4559937-1.8510132,1.0999756c-0.572998,0.6430054-0.8399963,1.4120178-0.8399963,2.335022
	v28.3859863c0,5.9370117-8.9890137,5.9030151-8.9890137,0V99.2610168c0-3.7659912,1.1759949-6.9889832,3.5370178-9.6730042
	c2.3619995-2.6689758,5.1719971-4.0289917,8.440979-4.0289917l20.9760132-0.053009
	c3.3169861,0.0429993,6.1419983,1.4130249,8.4670105,4.0820007c2.3399963,2.684021,3.5119934,5.928009,3.5119934,9.7420044
	v26.4450073c0,5.8980103-8.9779968,5.9330139-8.9779968,0.1010132V97.2880249c0-0.9339905-0.2910156-1.7330017-0.8720093-2.3999939
	c-0.5830078-0.6640015-1.2990112-0.9900208-2.1289978-0.9900208h-5.9890137v31.8940125
	C397.8199768,131.7490234,388.8309937,131.7290344,388.8309937,125.7920227z M202.7969971,93.8980103h-27.8160095
	c-5.4570007,0.0220032-5.5910034-8.3919983,0.0200043-8.3919983h28.6849976
	c8.4309998,0.20401,9.8650055,11.1910095,2.2749939,16.7190247l-27.022995,19.6549988h27.6300049
	c5.5079956,0,5.4779968,8.3379822,0,8.348999l-29.2740021,0.0589905c-7.7019958,0-8.4049988-12.2999878-2.8509979-16.2340088
	L202.7969971,93.8980103z"/>
<path class="st0" d="M197.0669861,26.2970276l-0.052002,12.3210144c-0.3240051,1.052002-1.1799927,1.8119812-2.5630035,2.2680054
	c-1.3819885,0.4609985-2.9059906,0.7089844-4.6109924,0.7089844c-1.6459961-0.0119934-3.1710052-0.2479858-4.5859985-0.7200012
	c-1.3950043-0.4679871-2.2400055-1.2170105-2.5140076-2.2569885l0.0339966-12.3210144
	c0.0450134-0.8779907,0.7990112-1.5650024,2.2490082-2.0599976c1.4519958-0.4920044,3.1100006-0.7869873,4.9369965-0.8909912
	c1.7750092,0.1040039,3.4130096,0.401001,4.875,0.9020081C196.3009796,24.7320251,197.0499878,25.4300232,197.0669861,26.2970276
	 M229.2089844,43.7360229l-0.0429993,6.6730042c-0.052002,0.8659973-0.4900055,1.5859985-1.3309937,2.1260071
	c-0.8350067,0.5499878-1.8280029,0.9859924-2.9690094,1.3049927c-1.1499939,0.3420105-2.3339996,0.5500183-3.5650024,0.6750183
	c-1.2259979,0.1119995-2.1959991,0.1489868-2.9089966,0.1489868c-7.076004-0.0620117-10.6199951-1.3760071-10.6309967-3.9490051
	c0.0110016-0.7689819,0.0220032-1.4299927,0.0220032-2.0130005c0.0289917-0.5709839,0.0399933-1.1319885,0.0399933-1.6269836
	c0-0.5480042-0.0279999-1.0840149-0.0399933-1.6470032c-0.0110016-0.5970154,0-1.2600098,0-2.0230103
	c0.1049957-0.6520081,0.6060028-1.2290039,1.4519958-1.6940002c0.8699951-0.4609985,1.8600006-0.8359985,2.9729919-1.1350098
	c1.1410065-0.3099976,2.2660065-0.5119934,3.4100037-0.6169739c1.1670074-0.1119995,2.0599976-0.1690063,2.7109985-0.1690063
	c0.4390106,0,1.2610016,0.0449829,2.4629974,0.1459961c1.1930084,0.0620117,2.4130096,0.2399902,3.6490021,0.4710083
	c1.2380066,0.2539978,2.3440094,0.6409912,3.3170013,1.196991
	C228.7139893,42.1560364,229.1989899,42.8760376,229.2089844,43.7360229z M241.1409912,42.6060181h-0.0870056
	c0.0369873-3.0689697-1.6960144-5.7579956-5.1450195-8.0559998c-4.1669769-2.79599-10.016983-4.2229919-17.4529877-4.2909851
	c-3.2299957,0-6.4089966,0.3770142-9.5479889,1.1419983l0.0500031-5.0820007
	c0.0249939-2.480011-0.6400146-4.5050049-1.9620056-6.0849915c-1.3310089-1.6020203-2.9389954-2.8710022-4.8639984-3.8330078
	c-1.9219971-0.9620056-3.9790039-1.6029968-6.1750031-1.9349976c-2.1959991-0.3309937-4.1799927-0.4720154-5.9750061-0.42099
	c-2.1119995,0.1129761-4.2879944,0.3410034-6.5369873,0.7079773c-2.2710114,0.355011-4.3250122,0.9730225-6.1560059,1.8680115
	c-1.8509979,0.9190063-3.3699951,2.1350098-4.5769958,3.6589966c-1.2140045,1.5339966-1.8209991,3.5370178-1.8330078,6.006012
	l-0.072998,12.8169861c-0.0240021,1.8049927,0.5,3.4389954,1.5650024,4.8869934
	c1.0720062,1.4620056,2.4880066,2.6630249,4.2480011,3.65802c1.7599945,0.9969788,3.772995,1.75,6.0209961,2.2669983
	c2.227005,0.5270081,4.5359955,0.7879944,6.8890076,0.7879944h0.647995c0.1230011,0,0.4799957-0.0220032,1.1289978-0.07901
	c0.651001-0.04599,1.4349976-0.1479797,2.404007-0.2529907c0.9559937-0.1140137,1.743988-0.2139893,2.375-0.3110046
	c-0.0360107,0.2640076,0,0.5639954,0.0639954,0.8930054c0.0800018,0.2799988,0.1029968,0.5419922,0.052002,0.8160095
	c-0.0110016,1.7619934,0.3389893,3.2839966,1.1179962,4.5669861c0.7839966,1.2820129,1.7899933,2.3890076,3.0449982,3.2940063
	c1.2630005,0.9049988,2.6609955,1.6470032,4.2480011,2.2120056c1.5639954,0.5809937,3.1710052,1.0359802,4.8289948,1.4039917
	c1.654007,0.3519897,3.256012,0.6069946,4.803009,0.7420044c1.522995,0.1399841,2.8769989,0.2070007,4.022995,0.2070007
	c1.8580017,0,4.0970001-0.2220154,6.7070007-0.6849976c2.6289978-0.4710083,5.1199951-1.1920166,7.5200043-2.1790161
	c2.3880005-0.9809875,4.4229736-2.2529907,6.1049805-3.7850037c1.6809998-1.5179749,2.5030212-3.3639832,2.4920044-5.5029907
	L241.1409912,42.6060181z"/>
<path class="st0" d="M288.9550171,23.401001c0.0239868-1.3139954-0.4770203-2.51297-1.5360107-3.6039734
	c-1.0429993-1.0960083-2.4830017-2.0930176-4.3110046-2.9649963c-1.6400146-0.82901-3.5289917-1.4150085-5.7130127-1.7810059
	c-2.1749878-0.3529968-4.196991-0.5290222-6.0469971-0.5290222c-0.8339844,0-1.7559814-0.0109863-2.8069763-0.0429993
	c-1.0400085-0.0349731-2.1300049,0.0429993-3.2270203,0.184021c-1.1019897,0.1689758-2.1940002,0.46698-3.2569885,0.8769836
	c-1.0780029,0.4120178-2.0050049,1.052002-2.8210144,1.9349976c-1.7639771-1.9779968-3.8109741-2.9639893-6.1219788-2.9639893
	l-5.1480103-0.0100098c-0.9960022,0-1.8399963,0.2520142-2.5299988,0.7520142
	c-0.6929932,0.4949951-1.2030029,1.0910034-1.5190125,1.8339844c-0.3280029,0.7430115-0.4660034,1.5480042-0.394989,2.434021
	c0.0669861,0.8699951,0.3680115,1.6869812,0.8940125,2.4530029c0.8609924,1.1569824,2.0279846,1.7339783,3.4960022,1.7339783
	l4.0219727,0.0119934c0.5500183,0,1.052002,0.085022,1.5160217,0.2880249c0.46698,0.1849976,1.2279968,0.769989,1.197998,1.9230042
	c-0.1620178,6.0339966,9.5140076,5.9759827,9.4519958-0.2440186c-0.0110168-0.8959961,1.1409912-1.427002,2.4119873-1.8009949
	c1.2720032-0.3880005,2.6150208-0.553009,4.0710144-0.5299988c1.4700012,0.0249939,2.8370056,0.2430115,4.1199951,0.6520081
	c1.2829895,0.4279785,2.1149902,1.0059814,2.4779968,1.7769775c0,4.1549988-0.0249939,8.3370056-0.0769958,12.5380249
	c-0.0450134,4.1899719-0.0660095,8.375-0.0660095,12.5169983c0.0209961,2.5789795-3.4859924,3.8819885-10.526001,3.9509888
	c-2.6439819,0-4.9239807-0.3420105-6.9109802-1.0079956c-2.4450073-0.7650146-3.6880188-1.8640137-3.7380066-3.2820129
	l-0.0339966-6.4119873c0-1.8540039-0.4880066-3.2139893-1.45401-4.0800171
	c-0.9570007-0.8259888-2.3119812-1.2929993-4.0910034-1.3320007c-1.9299927-0.0699768-3.447998,0.3710022-4.5339966,1.303009
	c-1.1029968,0.9299927-1.6459961,2.2950134-1.6730042,4.1000061c-0.0379944,1.3160095-0.0709839,2.6419983-0.1000061,3.9920044
	c-0.0309753,1.3370056-0.0309753,2.678009,0,4.0619812c0.0290222,1.7610168,0.7030029,3.3400269,2.0490112,4.7640076
	c1.3200073,1.4150085,3.1199951,2.756012,5.4190063,3.9590149c4.5979919,2.2869873,9.6589966,3.4279785,15.1759949,3.3840027
	c7.3510132-0.059021,13.053009-1.4609985,17.1170044-4.1860046c3.3420105-2.2360229,5.0660095-4.9219971,5.1879883-8.0460205
	v-14.29599C288.9379883,32.9350281,288.9379883,28.1730042,288.9550171,23.401001"/>
<path class="st0" d="M329.75,44.7180176c-0.0160217,0.7669983-0.026001,1.3739929-0.0160217,1.802002v1.2809753
	c0,0.3960266,0,0.8330078,0.0160217,1.2669983c0.0239868,0.4470215,0,1.0440063-0.026001,1.8100281
	c0.026001,2.572998-3.4810181,3.8909912-10.5190125,3.9329834c-2.6439819,0-4.9419861-0.321991-6.9100037-0.9840088
	c-2.446991-0.7769775-3.6600037-1.8649902-3.6600037-3.2819824v-5.5939941
	c-0.065979-1.0940247,0.8990173-2.0240173,2.8950195-2.7960205c1.0010071-0.3179932,2.1539917-0.5950012,3.4719849-0.7749939
	c1.3359985-0.1860046,2.809021-0.2739868,4.4400024-0.2739868c1.2080078,0,2.3359985,0.0559998,3.3789978,0.1889954
	c1.0500183,0.1300049,2.0899963,0.3729858,3.1090088,0.7030029c1.0669861,0.3439941,1.9620056,0.7099915,2.6839905,1.1640015
	C329.3209839,43.5899963,329.7019958,44.1130066,329.75,44.7180176 M341.7380066,26.6499939
	c0.072998-2.8459778-1.5970154-5.4649963-4.9910278-7.8039856c-4.1989746-2.7990112-9.9349976-4.2340088-17.21698-4.3009949
	c-2.8110046-0.0440063-5.4580078,0.1849976-7.9550171,0.7109985c-2.492981,0.5140076-4.8629761,1.2909851-7.0849915,2.3240051
	c-4.9410095,2.2909851-7.2420044,5.2079773-7.4759827,8.7049866c-0.375,5.0270081,10.947998,5.8690186,11.7319946,0.6640015
	c0.7030029-4.4979858,21.2769775-4.0050049,21.1629944,0.2630005l0.0239868,2.8869934l-0.0239868,3.0380249
	c-1.6080017-0.4990234-3.276001-0.8660278-5.0480042-1.0730286c-1.7479858-0.2309875-3.5820007-0.3529968-5.4920044-0.3529968
	c-7.3890076,0.0670166-13.1340027,1.4670105-17.2909851,4.1860046c-3.4430237,2.3009949-5.1790161,4.9649963-5.2109985,7.9840088
	l-0.1080017,8.2900085c0.0239868,1.743988,0.7030029,3.3479919,2.0329895,4.7719727
	c1.3299866,1.427002,3.1470032,2.7440186,5.427002,3.9480286c4.6019897,2.3079834,9.6539917,3.4189758,15.1589966,3.3709717
	c7.3859863-0.0429993,13.0840149-1.440979,17.125-4.1749878c3.3510132-2.2349854,5.0830078-4.9199829,5.1879883-8.0509949
	c-0.0179749-3.6119995-0.0429993-7.4519958-0.0839844-11.5390015c-0.0209961-4.0750122-0.0090027-7.9389954,0.0839844-11.5469971
	L341.7380066,26.6499939z"/>
<path class="st0" d="M393.8900146,26.7680054c0.0139771-1.6459961-0.3870239-3.0789795-1.1980286-4.3509827
	c-0.7749939-1.2650146-1.8439941-2.3439941-3.125-3.2120056c-1.3049927-0.8800049-2.7659912-1.6220093-4.4129944-2.2309875
	c-1.6329956-0.6069946-3.2669983-1.0559998-4.9019775-1.3880005c-1.65802-0.3200073-3.2410278-0.57901-4.7740173-0.7539978
	c-1.5079956-0.1679993-2.7919922-0.230011-3.8410034-0.230011c-1.2489929,0-2.6919861,0.0620117-4.3169861,0.2200012
	c-6.5750122,0.6749878-18.2730103,3.1369934-18.2850037,10.9869995c-0.0329895,6.82901,11.4230042,5.3399963,11.8240051,0.9830017
	c0.4329834-4.3860168,21.1669922-3.9570007,21.151001,1.6260071l-0.1110229,22.0050049
	c-0.2519836,0.7059937-0.7890015,1.3469849-1.5859985,1.9319763c-0.8099976,0.57901-1.7409973,1.052002-2.7839966,1.4400024
	c-1.0489807,0.375-2.1259766,0.6629944-3.21698,0.8609924c-1.098999,0.178009-2.0350037,0.2900085-2.7929993,0.2799988
	c-0.5130005,0-1.3320007-0.0539856-2.5420227-0.2159729c-1.1629944-0.1240234-2.3710022-0.3760071-3.6029968-0.6950073
	c-1.2559814-0.3300171-2.3349915-0.7709961-3.2659912-1.3170166c-0.9460144-0.5489807-1.3819885-1.2559814-1.3460083-2.1279907
	l-0.0169983-6.9079895c0-6.5030212-11.7709961-6.6090088-11.7709961-0.1660156l-0.0220032,8.3780212h-0.071991
	c0.0619812,1.6940002,0.5119934,3.1589966,1.3049927,4.3959961c0.8250122,1.2309875,1.8819885,2.3110046,3.1740112,3.2399902
	c1.2819824,0.9320068,2.7149963,1.7030029,4.3299866,2.3089905c1.6080017,0.5950012,3.2290039,1.0859985,4.8470154,1.4420166
	c1.625,0.3619995,3.2249756,0.6149902,4.7720032,0.7789917c1.54599,0.1809998,2.8579712,0.2470093,3.9579773,0.2609863
	c1.2010193,0,2.5870056-0.0899963,4.1480103-0.2889709c1.5589905-0.1910095,3.1799927-0.5,4.8559875-0.8980103
	c1.6660156-0.4179993,3.3099976-0.9389954,4.9219971-1.6140137c1.6000061-0.6529846,3.0320129-1.4140015,4.303009-2.2980042
	c1.2770081-0.8639832,2.3110046-1.8579712,3.0849915-2.9519958c0.7770081-1.0929871,1.1850281-2.3199768,1.210022-3.6779785
	L393.8900146,26.7680054"/>
<path class="st0" d="M446.3989868,53.0170288l-0.0589905,0.0889893l-0.019989-0.0889893H446.3989868 M458.3160095,42.4869995
	c0.0279846-1.8659973-0.4810181-3.5589905-1.4760132-5.065979c-5.5450134-8.3430176-19.6359863-8.6640015-27.5830078-4.0880127
	h-0.0910034c-5.1919861-3.1009827-11.5350037-3.5249939-17.3479919-2.3099976v-0.3429871
	c1.071991-3.5809937,2.2009888-6.9680176,5.9779968-6.9680176l25.9769897,0.0190125
	c6.3650208,0,11.710022-1.8720093,9.8490295-8.9219971c-0.2310181-0.8710022-0.881012-1.6260071-1.9850159-2.256012
	c-1.0849915-0.6289978-2.3460083-0.9490051-3.7600098-0.9490051c-0.5679932,0-1.1309814,0.1730042-1.7209778,0.5290222
	c-0.5780029,0.3549805-1.1480103,0.7639771-1.6800232,1.2349854c-0.5349731,0.4680176-1.0539856,0.8800049-1.5249939,1.2330017
	c-0.4719849,0.3429871-0.8919983,0.5280151-1.2210083,0.5280151l-22.4549866-0.0130005
	c-3.2820129,0-6.1229858,0.4679871-8.5360107,1.4309998c-2.3919983,0.9619751-4.3719788,2.2409973-5.9499817,3.8579712
	c-1.5589905,1.6220093-2.7160034,3.5230103-3.4710083,5.710022c-0.730011,2.1869812-1.0799866,4.5220032-1.0279846,6.9779968
	c-0.1920166,7.3939819-0.3540039,14.7969971-0.3150024,22.1889954c-0.0740051,5.3869934,8.4949951,7.8600159,12.6279907,8.5570068
	c1.9710083,0.3330078,3.5379944,0.5010071,4.6870117,0.5010071c4.5690002,0.0109863,7.8039856-4.2650146,4.1459961-7.9720154
	c-0.9810181-0.9840088-2.3690186-1.4790039-4.1740112-1.4790039c-0.3349915,0-0.7749939-0.0549927-1.3049927-0.1210022
	c-0.5440063-0.0929871-1.0769958-0.1990051-1.6450195-0.3349915c-0.5589905-0.1400146-1.0709839-0.3089905-1.5239868-0.5379944
	c-0.4830017-0.2229919-0.756012-0.5029907-0.848999-0.8320007l0.0620117-10.9530029
	c0.0229797-4.7860107,11.2989807-4.1090088,11.2449951-0.3309937c-0.0509949,2.5539856-0.0180054,4.7279968-0.0509949,7.276001
	v0.1139832c-0.0140076,0.0890198,0,0.1629944,0,0.2279968c0.4109802,1.3050232,1.1779785,2.2969971,2.3509827,2.9530029
	c1.1440125,0.65802,2.3540039,0.9700012,3.6100159,0.9380188c1.2509766-0.0200195,2.4419861-0.3650208,3.5799866-1.0190125
	c1.1520081-0.6629944,1.927002-1.6109924,2.3699951-2.8720093c0.0299988-0.0549927,0.0299988-0.1689758-0.0109863-0.3329773
	l0.0409851-7.276001c0.0240173-3.8320007,11.3850098-4.3670044,11.3340149,0.3569946
	c-0.0110168,1.7879944-0.0500183,3.2829895-0.0830078,5.2070007c-0.0339966,1.92099-0.0669861,3.7999878-0.0669861,5.6650085
	c-0.0800171,0.3320007-0.3460083,0.6119995-0.8180237,0.8639832c-0.4369812,0.2430115-0.9549866,0.4299927-1.5239868,0.5759888
	c-0.5559998,0.1350098-1.1109924,0.2280273-1.6669922,0.3340149c-0.5580139,0.0660095-0.9980164,0.1080017-1.3450012,0.1080017
	c-1.7870178,0-3.1820068,0.4970093-4.1369934,1.4689941c-3.6660156,3.7170105-0.5020142,7.9830017,4.0969849,7.9830017
	c1.1530151,0.0140076,2.6900024-0.1659851,4.6270142-0.4880066c1.9369812-0.3309937,3.8479919-0.8710022,5.7419739-1.6019897
	c2.9790039-1.1690063,6.9260254-3.230011,6.9490051-6.9330139L458.3160095,42.4869995z"/>
<path class="st0" d="M510.3560181,26.8479919h-0.0840454c-0.0289917-3.0739746-1.6870117-5.6939697-4.9429932-7.8829956
	c-4.0499878-2.7489929-9.8519897-4.1900024-17.3799744-4.3009949c-5.4240112-0.0489807-10.4060059,0.9850159-14.9320068,3.1329956
	c-2.3849792,1.125-4.2319946,2.4389954-5.5759888,3.8880005c-1.355011,1.447998-2.0119934,3.0480042-1.9830017,4.8080139
	l-0.1759949,33.0270081c0.0119934,1.4719849,0.5899963,2.6879883,1.7709961,3.6129761
	c1.1990051,0.8300171,2.5749817,1.2420044,4.0979919,1.2420044c1.5859985,0,2.9940186-0.3989868,4.1839905-1.2420044
	c1.1910095-0.9159851,1.7710266-2.1289978,1.7710266-3.6029968l0.0609741-31.5509949
	c0.0250244-1.3630066,0.9450073-2.3789978,2.7340088-3.0440063c1.8049927-0.6489868,4.4290161-0.947998,7.8860168-0.8919983
	c7.1419983,0.105011,10.7209778,1.401001,10.6929626,3.8780212l-0.1889648,31.6219788
	c0,1.4830017,0.5799561,2.6870117,1.7659912,3.6170044c1.190979,0.8299866,2.5849609,1.2330017,4.1569824,1.2330017
	c1.6049805,0,3.0029907-0.4030151,4.2180176-1.2330017c1.1090088-0.9190063,1.6549683-2.1239929,1.6549683-3.6170044
	L510.3560181,26.8479919"/>
<path class="st1" d="M75.3619995,141.9570007C112.4789886,139.6669922,141.875,108.7539978,141.875,70.946991
	C141.875,33.4660034,112.9769897,2.7539978,76.3099976,0c18.0550003,3.4970093,23.0930023,16.9689941,8.6030045,40.1190186
	C72.9960022,60.9259949,47.897995,78.6459961,44.8190002,99.4599915
	C42.2019958,122.0639954,53.7089996,135.480011,75.3619995,141.9570007 M0,70.946991
	c0,39.2980042,31.7609997,71.1540222,70.9380035,71.1540222c0.3849945,0,0.7709961-0.0079956,1.1529999-0.0160217
	c-36.352005-0.9869995-49.5240021-24.867981-45.1640015-46.1359863
	c5.1449986-20.4630127,31.4590015-45.8789978,35.1509933-63.2510071C65.560997,14.1700134,46.173996,3.9980164,22.8139973,19.776001
	C7.355999,30.2200012,0,53.2140198,0,70.946991z"/>
</svg>
